<?xml version="1.0" encoding="UTF-8"?>
<svg id="Capa_1" data-name="Capa 1" xmlns="http://www.w3.org/2000/svg" version="1.1" xmlns:xlink="http://www.w3.org/1999/xlink" viewBox="0 0 278 530.9">
  <defs>
    <style>
      .cls-1 {
        fill: #7f00ff;
        filter: url(#outer-glow-1);
        stroke: #3a3a3a;
      }

      .cls-1, .cls-2 {
        stroke-miterlimit: 10;
        stroke-width: 2px;
      }

      .cls-3, .cls-4, .cls-5, .cls-6, .cls-7, .cls-8, .cls-9, .cls-10 {
        stroke-width: 0px;
      }

      .cls-3, .cls-11 {
        fill: #000;
      }

      .cls-2 {
        stroke: #000;
        stroke-linecap: round;
      }

      .cls-2, .cls-5 {
        fill: none;
      }

      .cls-4 {
        fill: #acacac;
      }

      .cls-6 {
        fill: #aa2636;
      }

      .cls-12 {
        clip-path: url(#clippath-1);
      }

      .cls-11 {
        font-family: BerlinSansFB-Reg, 'Berlin Sans FB';
        font-size: 2.8px;
      }

      .cls-7 {
        fill: url(#Degradado_sin_nombre_20);
        filter: url(#outer-glow-2);
      }

      .cls-13 {
        clip-path: url(#clippath);
      }

      .cls-8 {
        fill: #3a3a3a;
      }

      .cls-9 {
        fill: #333;
      }

      .cls-10 {
        fill: #fff;
      }
    </style>
    <clipPath id="clippath">
      <path class="cls-5" d="M121.3,445.9l-.4-1.7-5.4-1.6-1.1.4c-1.1,1.7-1.9,3.7-2.2,6.1,0,.5-.3,1.1-.6,1.7-.4.9-.8,1.8-.8,2.8.2,3.3.8,6.5,1.8,9.4l.7.6,2.2.6,1.2-1.2c-1.7-6.2.3-13.4,4.7-17.2Z"/>
    </clipPath>
    <filter id="outer-glow-1" filterUnits="userSpaceOnUse">
      <feOffset dx="0" dy="0"/>
      <feGaussianBlur result="blur" stdDeviation="5"/>
      <feFlood flood-color="#7f00ff" flood-opacity=".8"/>
      <feComposite in2="blur" operator="in"/>
      <feComposite in="SourceGraphic"/>
    </filter>
    <clipPath id="clippath-1">
      <path class="cls-5" d="M97.4,386.2v86.6h80.6v-86.6h-80.6ZM121.7,445.6c-4.8,3.8-6.9,11.6-4.9,18h0c-.2,0-.5,0-.7-.1-1.2-.4-2.5-.7-3.7-1.1-.9-2.8-1.4-5.7-1.6-8.8,0-1,.4-1.9.8-2.8.3-.6.5-1.2.6-1.7.3-2.3,1-4.2,2.1-5.9,2.5.7,5,1.5,7.5,2.2h0Z"/>
    </clipPath>
    <linearGradient id="Degradado_sin_nombre_20" data-name="Degradado sin nombre 20" x1="167.7" y1="470.4" x2="227.3" y2="492.5" gradientUnits="userSpaceOnUse">
      <stop offset="0" stop-color="#7f00ff" stop-opacity=".4"/>
      <stop offset="0" stop-color="rgba(127, 0, 255, .4)" stop-opacity=".4"/>
      <stop offset=".1" stop-color="rgba(127, 0, 255, .2)" stop-opacity=".2"/>
      <stop offset=".2" stop-color="rgba(127, 0, 255, .2)" stop-opacity=".2"/>
      <stop offset=".3" stop-color="rgba(127, 0, 255, 0)" stop-opacity="0"/>
      <stop offset=".4" stop-color="rgba(127, 0, 255, 0)" stop-opacity="0"/>
      <stop offset=".6" stop-color="rgba(127, 0, 255, 0)" stop-opacity="0"/>
      <stop offset="1" stop-color="#7f00ff" stop-opacity="0"/>
    </linearGradient>
    <filter id="outer-glow-2" filterUnits="userSpaceOnUse">
      <feOffset dx="0" dy="0"/>
      <feGaussianBlur result="blur-2" stdDeviation="5"/>
      <feFlood flood-color="#7f00ff" flood-opacity=".8"/>
      <feComposite in2="blur-2" operator="in"/>
      <feComposite in="SourceGraphic"/>
    </filter>
  </defs>
  <line class="cls-2" x1="139" y1="396" x2="139"/>
  <g>
    <g class="cls-13">
      <path class="cls-6" d="M120.8,464.1h0c.5-1.2,1.9-1.9,3.2-1.5l3.3,1c1,.3,1.7,1.4,1.5,2.4v.5c-.2.5-.7.8-1.1.6l-6.3-2c-.5-.1-.7-.6-.5-1.1Z"/>
      <path class="cls-3" d="M121.4,388.6c-.5.9-.9,1.9-1.5,2.7-2.9,4.4-5.9,8.7-7.1,13.9-.3,1.2-.2,2.7.3,3.9,1.2,3.5,2.6,7,4.1,10.4.4.9,1.2,1.8,2,2.3,3.6,2.1,7.2,4.1,10.9,6.1.6.3,1.5.1,2.5.2-2.2-2.7-4.4-4.6-5.8-7.1-3.3-5.8-3.5-12.1-.7-18.2,2.4-5.1,6.3-8.6,12.3-8.7,5.9,0,9.8,3.2,12.4,8.1,4.4,8.3,2.5,20.2-6.2,25.1-.2,0-.2.4-.6,1,.9-.1,1.6,0,2-.3,3.5-1.6,7-3.2,10.5-5,.7-.4,1.4-1.2,1.8-1.9,1.9-3.4,3.8-6.7,5.6-10.2.6-1.1.9-2.6.7-3.8-1-5.8-4.5-10.4-7.5-15.2-.4-.7-.8-1.4-1.1-2l.5-.5c.4.3.9.5,1.2.9,2.3,2.8,4.5,5.7,6.7,8.6,2,2.7,3,5.8,3,9.2,0,1.1-.4,2.2-.8,3.2-1.5,4-3.3,7.8-4.6,11.8-.7,2.1-1.9,3.3-3.9,4-3.6,1.3-7.2,2.7-11.5,4.4,3.2,0,5.7-.4,8.2,0,6,.9,10.1-2.2,14.7-5.4,6.1-4.2,5-9.7,4.9-15.4,0-1.1,0-2.1-.2-3.2.2,0,.4,0,.6-.1.2.3.7.6.7,1,.2,4.1.6,8.2.5,12.2,0,1.5-1.1,3.3-2.1,4.5-2.6,2.9-5.5,5.5-8.2,8.3-1.2,1.2-2.4,1.6-4,1.7-5.1.2-10.3.5-15.5,1.2,2.1,1,4.1,2.2,6.3,2.9,7.2,2.3,9.9,8,10.9,14.6,1,6.4-2.3,11.5-6.7,15.8-.3-.1-.5-.2-.8-.3.3-.6.6-1.3,1-1.9,1.2-2,2.7-3.8,3.6-6,1.3-3,.9-5.8-.6-8.9-3-6.6-8.7-10-14.4-13.6-.2.2-.4.4-.6.5,2.3,2.4,4.8,4.7,7,7.3.8.9,1.3,2.2,1.4,3.4.2,2.6.2,5.2,0,7.7-.3,4.7-2.8,8.6-5.3,12.4-.1.2-.4.3-.6.3-.3,0-.6,0-1.2,0,.3-.5.4-.9.6-1.2,3.5-5.8,3.3-12.2,2.5-18.4-.3-2.6-2.9-5-4.6-7.4-.7-.9-1.9-1.5-2.8-2.3-.2,1.1-.4,2.2-.5,3.3-.1,1.1-.2,2.3-.3,3.4-.3,0-.6,0-.9,0-.1-.8-.2-1.6-.4-2.4-1.3,0-2.6-.2-4.1-.3-.1,1-.2,2-.3,3-2.2-1.9-1-4.3-1.3-7.3-1.2,1.5-2,2.5-2.9,3.5-1.3,1.6-2.7,3.1-4,4.7-.5.6-1,1.3-1.1,1.9-.7,5.9-.9,11.8,2,17.4.3.5.5,1.1.7,1.6l-.5.5c-.5-.5-1.2-.9-1.6-1.4-3.6-6.1-3.8-12.9-3-19.7.2-2,2.3-3.8,3.6-5.6,1.1-1.5,2.4-2.9,3.3-4.7-2.3,1.3-4.6,2.8-7,3.9-8.6,3.9-11,17-6.3,24.2.5.8.9,1.7,1.6,3.1-.9-.2-1.6-.2-1.8-.5-3.4-4.9-5.1-10.5-5.4-16.4,0-1.4,1.2-2.8,1.4-4.3.8-5.9,4.2-9.3,10-10.7,1.6-.4,3.2-1.3,4.8-1.9,0-.2,0-.5,0-.7-3.8,0-7.7-.2-11.5,0-3.4.2-6-1.1-8.3-3.4-2.2-2.2-4.4-4.4-6.5-6.7-.6-.6-1.2-1.5-1.4-2.3-1.2-5.6-.9-11.2,1.3-16.6.1-.3.5-.5,1.3-1.2,0,1.3,0,2-.2,2.7-1.4,5.2.5,10.2.9,15.3,0,.5.7,1,1.1,1.4,1.7,1.5,3.3,3.1,5.2,4.4,1.1.7,2.6,1.1,3.9,1.3,4.7.4,9.4.7,14.2.4-2.3-1-4.6-2.1-7.1-2.9-4.3-1.4-6.8-4.1-7.7-8.6-.8-3.8-2.3-7.4-3.1-11.2-.4-1.7-.2-4,.7-5.5,2.9-4.9,6.1-9.5,9.3-14.3.2-.3.6-.4.9-.7.2.1.5.3.7.4Z"/>
      <path class="cls-4" d="M124.8,446.3c4.3,1.3,8.6,2.5,12.9,3.7.8.2,1.9.2,2.7,0,2.5-.9,4.8-2,7.3-2.8,1-.3,2.3-.4,3.3-.1,3.8,1,7.6,2.2,11.4,3.3,2.1.6,3.3,1.9,3.8,4,.9,3.5.5,7.1-.3,10.6-1.2,4.9-2.6,9.8-5.9,13.8-.7.9-1.6,1.9-2.6,2.3-1,.5-2.4.8-3.5.5-4.1-1-8.2-2.3-12.3-3.6-.9-.3-1.9-1.1-2.5-1.9-1.7-2.2-3.2-4.5-4.9-6.7-.9-1.1-2.2-1.6-3.7-.9-.6.3-1.5.2-2.2,0-2.3-.6-4.7-1.3-7-2-.5-.2-1.3-.4-1.5-.8-.8-1.6-2.3-1.7-3.7-2.1-2.8-.8-5.6-1.6-8.5-2.5-3.9-1.1-5-2.5-5-6.5,0-3.6,1-7,3.3-9.9,1.8-2.3,3.5-2.8,6.3-2,4.2,1.2,8.4,2.4,12.6,3.7h0ZM162.2,466.5c-.1,0-.3-.1-.4-.2.9-3.1,1.5-6.3.9-9.6-.2-1.3-.6-2.6-2-3.1-1.4-.5-2.6.4-3.3,1.4-1.4,2-2.8,4.1-3.7,6.3-1.6,3.8-2.4,7.9-1.5,12,.2,1,1,2.2,1.9,2.7,1.2.7,2.3-.4,3.2-1.2.2-.2.4-.4.5-.6,1.5-2.6,2.9-5.2,4.4-7.9Z"/>
      <g>
        <path class="cls-9" d="M109.7,443.8l.2-.9h.1s-.2,1-.2,1h-.1ZM110.1,443.9v-.8c0,0-.1,0-.1,0v-.2c0,0,.1,0,.1,0v.8c0,0,.1,0,.1,0v.2c0,0-.1,0-.1,0ZM110.2,444l.2-.9h.1s-.2,1-.2,1h-.1Z"/>
        <path class="cls-9" d="M110.8,444.1c0,0-.2,0-.2-.2,0,0,0-.2,0-.3,0-.1,0-.2.2-.2s.2,0,.2,0,.2,0,.2.2c0,0,0,.2,0,.3,0,.1,0,.2-.1.2s-.2,0-.2,0ZM110.8,444c0,0,0,0,.1,0,0,0,0,0,0-.2,0,0,0-.1,0-.2,0,0,0,0-.1,0,0,0,0,0-.1,0s0,0,0,.2c0,0,0,.1,0,.2s0,0,.1,0Z"/>
        <path class="cls-9" d="M112.3,444.5c0,0-.1,0-.2,0,0,0,0,0,0-.2,0,0,0-.1.1-.1,0,0,.1,0,.2,0,0,0,0,0,.1,0,0,0,0,0,0,0h0c0,0,0,0,0,0,0,0,0,0,0,0-.1,0-.2,0-.2,0,0,0,0,0,0,0,0,0,0,0,0,0,0,0,0,0,.1,0,0,0,0,0,0,0,0,0,0,0,0,0h0c0,0,0,.1,0,.1h0s0,0,0,0c0,0,0,0,0,0,0,0,0,0,0,0,0,0,0,0-.1,0ZM112.5,444.6v-.2s0,0,0,0v-.2c0,0,0,0,0-.1,0,0,0,0-.1,0h-.2s0-.2,0-.2h.1c.1,0,.2.1.2.2,0,0,0,.1,0,.2v.3c0,0,0,0,0,0h0c0,.1-.2,0-.2,0Z"/>
        <path class="cls-9" d="M113.2,444.8c-.1,0-.2,0-.2-.2s0-.2,0-.3c0-.1,0-.2.2-.2,0,0,.2,0,.3,0,0,0,.1,0,.2,0,0,0,0,0,0,.1h-.1s0,0,0,0c0,0,0,0,0,0,0,0-.1,0-.2,0,0,0,0,0,0,.2,0,0,0,.1,0,.2,0,0,0,0,.2.1,0,0,0,0,0,0,0,0,0,0,0,0h0c0,.1,0,.1-.1.1,0,0,0,0-.1,0Z"/>
        <path class="cls-9" d="M114,445c-.1,0-.2,0-.2-.2,0,0,0-.2,0-.3,0-.1,0-.2.2-.2,0,0,.2,0,.3,0,0,0,.2,0,.2.1,0,0,0,.2,0,.3,0,0,0,0,0,0h-.5c0-.1,0-.2,0-.2h.4s0,0,0,0c0,0,0,0-.1,0,0,0-.1,0-.2,0s0,0,0,.2c0,0,0,.1,0,.2,0,0,0,0,.2.1,0,0,0,0,0,0,0,0,0,0,0,0h0c0,.1,0,.1-.1.1,0,0,0,0,0,0Z"/>
        <path class="cls-9" d="M114.4,445.1h0c0-.1.5,0,.5,0h0c0,.1-.5,0-.5,0ZM114.5,445.1l.2-.7h.1s0,.2,0,.2v.5c-.1,0-.3,0-.3,0ZM114.5,444.5h0c0-.1.2,0,.2,0h0c0,.1-.2,0-.2,0ZM114.7,444.9v-.2s0,0,0,0c0-.1.1-.2.2-.1,0,0,.1,0,.1.1,0,0,0,.1,0,.2h-.1c0,0,0-.1,0-.2,0,0,0,0,0,0,0,0-.1,0-.2,0,0,0,0,.1-.1.2Z"/>
        <path class="cls-9" d="M115.6,445.4c-.1,0-.2,0-.2-.2,0,0,0-.2,0-.3,0-.1,0-.2.2-.2,0,0,.2,0,.3,0,0,0,.1,0,.2,0,0,0,0,0,0,.1h-.1s0,0,0,0c0,0,0,0,0,0,0,0-.1,0-.2,0,0,0,0,0,0,.2,0,0,0,.1,0,.2,0,0,0,0,.2.1,0,0,0,0,0,0,0,0,0,0,0,0h0c0,.1,0,.1-.1.1,0,0,0,0-.1,0Z"/>
        <path class="cls-9" d="M116.2,445.6c0,0-.1,0-.2,0,0,0,0,0,0-.2,0,0,0-.1.1-.1,0,0,.1,0,.2,0,0,0,0,0,.1,0,0,0,0,0,0,0h0c0,0,0,0,0,0,0,0,0,0,0,0-.1,0-.2,0-.2,0,0,0,0,0,0,0,0,0,0,0,0,0,0,0,0,0,.1,0,0,0,0,0,0,0,0,0,0,0,0,0h0c0,0,0,.1,0,.1h0s0,0,0,0c0,0,0,0,0,0,0,0,0,0,0,0,0,0,0,0-.1,0ZM116.4,445.6v-.2s0,0,0,0v-.2c0,0,0,0,0-.1,0,0,0,0-.1,0h-.2s0-.2,0-.2h.1c.1,0,.2.1.2.2,0,0,0,.1,0,.2v.3c0,0,0,0,0,0h0c0,.1-.2,0-.2,0Z"/>
        <path class="cls-9" d="M116.7,445.7h0c0-.1.5,0,.5,0h0c0,.1-.5,0-.5,0ZM116.9,445.7l.2-.7h.1s0,.2,0,.2v.5c-.1,0-.3,0-.3,0ZM116.9,445.1h0c0-.1.2,0,.2,0h0c0,.1-.2,0-.2,0ZM117.1,445.5v-.2s0,0,0,0c0-.1.1-.2.2-.1,0,0,.1,0,.1.1,0,0,0,.1,0,.2h-.1c0,0,0-.1,0-.2,0,0,0,0,0,0,0,0-.1,0-.2,0,0,0,0,.1-.1.2Z"/>
        <path class="cls-9" d="M109.5,445.5c0,0-.1,0-.2,0,0,0,0-.1,0-.2,0,0,0-.1.1-.1,0,0,.1,0,.2,0,0,0,0,0,.1,0,0,0,0,0,0,0h0c0,0,0,0,0,0,0,0,0,0,0,0-.1,0-.2,0-.2,0,0,0,0,0,0,0,0,0,0,0,0,0,0,0,0,0,.1,0,0,0,0,0,0,0,0,0,0,0,0,0h0c0,0,0,.1,0,.1h0s0,0,0,0c0,0,0,0,0,0,0,0,0,0,0,0,0,0,0,0-.1,0ZM109.7,445.6v-.2s0,0,0,0v-.2c0,0,0,0,0-.1,0,0,0,0-.1,0h-.2s0-.2,0-.2h.1c.1,0,.2.1.2.2,0,0,0,.1,0,.2v.3c0,0,0,0,0,0h0c0,.1-.2,0-.2,0Z"/>
        <path class="cls-9" d="M111,445h0c0-.1.2,0,.2,0h0c0,.1-.2,0-.2,0ZM111.2,446c0,0-.1,0-.2-.1,0,0,0-.1,0-.2l.2-.7h.1s-.2.7-.2.7c0,0,0,0,0,0,0,0,0,0,0,0,0,0,0,0,0,0,0,0,0,0,.1,0h0c0,.1,0,.1-.1.1,0,0,0,0-.1,0Z"/>
        <path class="cls-9" d="M111.9,446.2c0,0-.2,0-.2-.2,0,0,0-.2,0-.3,0-.1,0-.2.1-.2,0,0,.2,0,.2,0s.2,0,.2.2c0,0,0,.2,0,.3,0,.1,0,.2-.1.2s-.2,0-.2,0ZM112,446c0,0,0,0,.1,0,0,0,0,0,0-.2,0,0,0-.1,0-.2,0,0,0,0-.1,0s0,0-.1,0c0,0,0,0,0,.2,0,0,0,.1,0,.2,0,0,0,0,.1,0Z"/>
        <path class="cls-9" d="M112.7,446.3c0,0,0,0-.1,0,0,0,0,0,0,0h0c0-.1,0,0,.1,0s0,0,0,0c0,0,.1,0,.2,0,0,0,0,0,0,0,0,0,0,0,0,0,0,0,0,0,0,0h-.1c0-.1-.1-.2-.1-.2s0,0,0-.1c0,0,0-.1.1-.1,0,0,.2,0,.3,0,0,0,0,0,0,0,0,0,0,0,0,0h0c0,.1,0,0,0,0,0,0,0,0,0,0,0,0-.1,0-.2,0,0,0,0,0,0,0,0,0,0,0,0,0,0,0,0,0,0,0h.1c0,.1.1.1.1.2,0,0,0,0,0,.1,0,0,0,.1-.1.1,0,0-.2,0-.3,0Z"/>
        <path class="cls-9" d="M114.3,446.8c0,0-.2,0-.2-.2,0,0,0-.2,0-.3,0-.1,0-.2.1-.2,0,0,.2,0,.2,0s.2,0,.2.2c0,0,0,.2,0,.3,0,.1,0,.2-.1.2,0,0-.2,0-.2,0ZM114.3,446.7c0,0,0,0,.1,0s0,0,0-.2c0,0,0-.1,0-.2,0,0,0,0-.1,0s0,0-.1,0,0,0,0,.2c0,0,0,.1,0,.2s0,0,.1,0Z"/>
        <path class="cls-9" d="M114.7,447.2h0c0-.1.1-.1.1-.1,0,0,.1,0,.2,0,0,0,0,0,0-.1v-.2c0,0,.2,0,.2,0v.2c0,0-.1.1-.1.2,0,0,0,0-.1,0,0,0-.1,0-.2,0h-.1ZM115,446.3h0c0-.1.3,0,.3,0h0c0,.1-.3,0-.3,0ZM115.2,446.8v-.5c.1,0,.3,0,.3,0v.5c-.1,0-.3,0-.3,0ZM115.4,446.2s0,0,0,0,0,0,0,0c0,0,0,0,0,0,0,0,0,0,0,0s0,0,0,0c0,0,0,0,0,0,0,0,0,0,0,0,0,0,0,0,0,0Z"/>
        <path class="cls-9" d="M115.8,447.2c0,0-.2,0-.2-.2,0,0,0-.2,0-.3,0-.1,0-.2.1-.2,0,0,.2,0,.2,0,0,0,.2,0,.2.2,0,0,0,.2,0,.3,0,.1,0,.2-.1.2,0,0-.2,0-.2,0ZM115.9,447.1c0,0,0,0,.1,0,0,0,0,0,0-.2,0,0,0-.1,0-.2,0,0,0,0-.1,0s0,0-.1,0c0,0,0,0,0,.2,0,0,0,.1,0,.2s0,0,.1,0Z"/>
        <path class="cls-9" d="M116.6,447.4c0,0,0,0-.1,0s0,0,0,0h0c0-.1,0,0,.1,0,0,0,0,0,0,0,0,0,.1,0,.2,0,0,0,0,0,0,0,0,0,0,0,0,0,0,0,0,0,0,0h-.1c0-.1-.1-.2-.1-.2,0,0,0,0,0-.1,0,0,0-.1.1-.1,0,0,.2,0,.3,0,0,0,0,0,0,0,0,0,0,0,0,0h0c0,.1,0,0,0,0,0,0,0,0,0,0,0,0-.1,0-.2,0,0,0,0,0,0,0,0,0,0,0,0,0,0,0,0,0,0,0h.1c0,.1.1.1.1.2,0,0,0,0,0,.1,0,0,0,.1-.1.1,0,0-.2,0-.3,0Z"/>
      </g>
    </g>
    <path class="cls-4" d="M124.8,446.3c4.3,1.3,8.6,2.5,12.9,3.7.8.2,1.9.2,2.7,0,2.5-.9,4.8-2,7.3-2.8,1-.3,2.3-.4,3.3-.1,3.8,1,7.6,2.2,11.4,3.3,2.1.6,3.3,1.9,3.8,4,.9,3.5.5,7.1-.3,10.6-1.2,4.9-2.6,9.8-5.9,13.8-.7.9-1.6,1.9-2.6,2.3-1,.5-2.4.8-3.5.5-4.1-1-8.2-2.3-12.3-3.6-.9-.3-1.9-1.1-2.5-1.9-1.7-2.2-3.2-4.5-4.9-6.7-.9-1.1-2.2-1.6-3.7-.9-.6.3-1.5.2-2.2,0-2.3-.6-4.7-1.3-7-2-.5-.2-1.3-.4-1.5-.8-.8-1.6-2.3-1.7-3.7-2.1-2.8-.8-5.6-1.6-8.5-2.5-3.9-1.1-5-2.5-5-6.5,0-3.6,1-7,3.3-9.9,1.8-2.3,3.5-2.8,6.3-2,4.2,1.2,8.4,2.4,12.6,3.7h0ZM162.2,466.5c-.1,0-.3-.1-.4-.2.9-3.1,1.5-6.3.9-9.6-.2-1.3-.6-2.6-2-3.1-1.4-.5-2.6.4-3.3,1.4-1.4,2-2.8,4.1-3.7,6.3-1.6,3.8-2.4,7.9-1.5,12,.2,1,1,2.2,1.9,2.7,1.2.7,2.3-.4,3.2-1.2.2-.2.4-.4.5-.6,1.5-2.6,2.9-5.2,4.4-7.9Z"/>
    <path class="cls-1" d="M162.2,466.5c-1.5,2.6-2.9,5.2-4.4,7.9-.1.2-.3.4-.5.6-.9.8-2,1.9-3.2,1.2-.9-.5-1.7-1.7-1.9-2.7-.9-4.2,0-8.2,1.5-12,.9-2.2,2.3-4.3,3.7-6.3.7-1,1.9-1.9,3.3-1.4,1.4.4,1.8,1.8,2,3.1.6,3.3,0,6.4-.9,9.6.1,0,.3.1.4.2Z"/>
    <g>
      <path class="cls-9" d="M109.7,443.8l.2-.9h.1s-.2,1-.2,1h-.1ZM110.1,443.9v-.8c0,0-.1,0-.1,0v-.2c0,0,.1,0,.1,0v.8c0,0,.1,0,.1,0v.2c0,0-.1,0-.1,0ZM110.2,444l.2-.9h.1s-.2,1-.2,1h-.1Z"/>
      <path class="cls-9" d="M110.8,444.1c0,0-.2,0-.2-.2,0,0,0-.2,0-.3,0-.1,0-.2.2-.2s.2,0,.2,0,.2,0,.2.2c0,0,0,.2,0,.3,0,.1,0,.2-.1.2s-.2,0-.2,0ZM110.8,444c0,0,0,0,.1,0,0,0,0,0,0-.2,0,0,0-.1,0-.2,0,0,0,0-.1,0,0,0,0,0-.1,0s0,0,0,.2c0,0,0,.1,0,.2s0,0,.1,0Z"/>
      <path class="cls-9" d="M112.3,444.5c0,0-.1,0-.2,0,0,0,0,0,0-.2,0,0,0-.1.1-.1,0,0,.1,0,.2,0,0,0,0,0,.1,0,0,0,0,0,0,0h0c0,0,0,0,0,0,0,0,0,0,0,0-.1,0-.2,0-.2,0,0,0,0,0,0,0,0,0,0,0,0,0,0,0,0,0,.1,0,0,0,0,0,0,0,0,0,0,0,0,0h0c0,0,0,.1,0,.1h0s0,0,0,0c0,0,0,0,0,0,0,0,0,0,0,0,0,0,0,0-.1,0ZM112.5,444.6v-.2s0,0,0,0v-.2c0,0,0,0,0-.1,0,0,0,0-.1,0h-.2s0-.2,0-.2h.1c.1,0,.2.1.2.2,0,0,0,.1,0,.2v.3c0,0,0,0,0,0h0c0,.1-.2,0-.2,0Z"/>
      <path class="cls-9" d="M113.2,444.8c-.1,0-.2,0-.2-.2s0-.2,0-.3c0-.1,0-.2.2-.2,0,0,.2,0,.3,0,0,0,.1,0,.2,0,0,0,0,0,0,.1h-.1s0,0,0,0c0,0,0,0,0,0,0,0-.1,0-.2,0,0,0,0,0,0,.2,0,0,0,.1,0,.2,0,0,0,0,.2.1,0,0,0,0,0,0,0,0,0,0,0,0h0c0,.1,0,.1-.1.1,0,0,0,0-.1,0Z"/>
      <path class="cls-9" d="M114,445c-.1,0-.2,0-.2-.2,0,0,0-.2,0-.3,0-.1,0-.2.2-.2,0,0,.2,0,.3,0,0,0,.2,0,.2.1,0,0,0,.2,0,.3,0,0,0,0,0,0h-.5c0-.1,0-.2,0-.2h.4s0,0,0,0c0,0,0,0-.1,0,0,0-.1,0-.2,0s0,0,0,.2c0,0,0,.1,0,.2,0,0,0,0,.2.1,0,0,0,0,0,0,0,0,0,0,0,0h0c0,.1,0,.1-.1.1,0,0,0,0,0,0Z"/>
      <path class="cls-9" d="M114.4,445.1h0c0-.1.5,0,.5,0h0c0,.1-.5,0-.5,0ZM114.5,445.1l.2-.7h.1s0,.2,0,.2v.5c-.1,0-.3,0-.3,0ZM114.5,444.5h0c0-.1.2,0,.2,0h0c0,.1-.2,0-.2,0ZM114.7,444.9v-.2s0,0,0,0c0-.1.1-.2.2-.1,0,0,.1,0,.1.1,0,0,0,.1,0,.2h-.1c0,0,0-.1,0-.2,0,0,0,0,0,0,0,0-.1,0-.2,0,0,0,0,.1-.1.2Z"/>
      <path class="cls-9" d="M115.6,445.4c-.1,0-.2,0-.2-.2,0,0,0-.2,0-.3,0-.1,0-.2.2-.2,0,0,.2,0,.3,0,0,0,.1,0,.2,0,0,0,0,0,0,.1h-.1s0,0,0,0c0,0,0,0,0,0,0,0-.1,0-.2,0,0,0,0,0,0,.2,0,0,0,.1,0,.2,0,0,0,0,.2.1,0,0,0,0,0,0,0,0,0,0,0,0h0c0,.1,0,.1-.1.1,0,0,0,0-.1,0Z"/>
      <path class="cls-9" d="M116.2,445.6c0,0-.1,0-.2,0,0,0,0,0,0-.2,0,0,0-.1.1-.1,0,0,.1,0,.2,0,0,0,0,0,.1,0,0,0,0,0,0,0h0c0,0,0,0,0,0,0,0,0,0,0,0-.1,0-.2,0-.2,0,0,0,0,0,0,0,0,0,0,0,0,0,0,0,0,0,.1,0,0,0,0,0,0,0,0,0,0,0,0,0h0c0,0,0,.1,0,.1h0s0,0,0,0c0,0,0,0,0,0,0,0,0,0,0,0,0,0,0,0-.1,0ZM116.4,445.6v-.2s0,0,0,0v-.2c0,0,0,0,0-.1,0,0,0,0-.1,0h-.2s0-.2,0-.2h.1c.1,0,.2.1.2.2,0,0,0,.1,0,.2v.3c0,0,0,0,0,0h0c0,.1-.2,0-.2,0Z"/>
      <path class="cls-9" d="M116.7,445.7h0c0-.1.5,0,.5,0h0c0,.1-.5,0-.5,0ZM116.9,445.7l.2-.7h.1s0,.2,0,.2v.5c-.1,0-.3,0-.3,0ZM116.9,445.1h0c0-.1.2,0,.2,0h0c0,.1-.2,0-.2,0ZM117.1,445.5v-.2s0,0,0,0c0-.1.1-.2.2-.1,0,0,.1,0,.1.1,0,0,0,.1,0,.2h-.1c0,0,0-.1,0-.2,0,0,0,0,0,0,0,0-.1,0-.2,0,0,0,0,.1-.1.2Z"/>
      <path class="cls-9" d="M109.5,445.5c0,0-.1,0-.2,0,0,0,0-.1,0-.2,0,0,0-.1.1-.1,0,0,.1,0,.2,0,0,0,0,0,.1,0,0,0,0,0,0,0h0c0,0,0,0,0,0,0,0,0,0,0,0-.1,0-.2,0-.2,0,0,0,0,0,0,0,0,0,0,0,0,0,0,0,0,0,.1,0,0,0,0,0,0,0,0,0,0,0,0,0h0c0,0,0,.1,0,.1h0s0,0,0,0c0,0,0,0,0,0,0,0,0,0,0,0,0,0,0,0-.1,0ZM109.7,445.6v-.2s0,0,0,0v-.2c0,0,0,0,0-.1,0,0,0,0-.1,0h-.2s0-.2,0-.2h.1c.1,0,.2.1.2.2,0,0,0,.1,0,.2v.3c0,0,0,0,0,0h0c0,.1-.2,0-.2,0Z"/>
      <path class="cls-9" d="M111,445h0c0-.1.2,0,.2,0h0c0,.1-.2,0-.2,0ZM111.2,446c0,0-.1,0-.2-.1,0,0,0-.1,0-.2l.2-.7h.1s-.2.7-.2.7c0,0,0,0,0,0,0,0,0,0,0,0,0,0,0,0,0,0,0,0,0,0,.1,0h0c0,.1,0,.1-.1.1,0,0,0,0-.1,0Z"/>
      <path class="cls-9" d="M111.9,446.2c0,0-.2,0-.2-.2,0,0,0-.2,0-.3,0-.1,0-.2.1-.2,0,0,.2,0,.2,0s.2,0,.2.2c0,0,0,.2,0,.3,0,.1,0,.2-.1.2s-.2,0-.2,0ZM112,446c0,0,0,0,.1,0,0,0,0,0,0-.2,0,0,0-.1,0-.2,0,0,0,0-.1,0s0,0-.1,0c0,0,0,0,0,.2,0,0,0,.1,0,.2,0,0,0,0,.1,0Z"/>
      <path class="cls-9" d="M112.7,446.3c0,0,0,0-.1,0,0,0,0,0,0,0h0c0-.1,0,0,.1,0s0,0,0,0c0,0,.1,0,.2,0,0,0,0,0,0,0,0,0,0,0,0,0,0,0,0,0,0,0h-.1c0-.1-.1-.2-.1-.2s0,0,0-.1c0,0,0-.1.1-.1,0,0,.2,0,.3,0,0,0,0,0,0,0,0,0,0,0,0,0h0c0,.1,0,0,0,0,0,0,0,0,0,0,0,0-.1,0-.2,0,0,0,0,0,0,0,0,0,0,0,0,0,0,0,0,0,0,0h.1c0,.1.1.1.1.2,0,0,0,0,0,.1,0,0,0,.1-.1.1,0,0-.2,0-.3,0Z"/>
      <path class="cls-9" d="M114.3,446.8c0,0-.2,0-.2-.2,0,0,0-.2,0-.3,0-.1,0-.2.1-.2,0,0,.2,0,.2,0s.2,0,.2.2c0,0,0,.2,0,.3,0,.1,0,.2-.1.2,0,0-.2,0-.2,0ZM114.3,446.7c0,0,0,0,.1,0s0,0,0-.2c0,0,0-.1,0-.2,0,0,0,0-.1,0s0,0-.1,0,0,0,0,.2c0,0,0,.1,0,.2s0,0,.1,0Z"/>
      <path class="cls-9" d="M114.7,447.2h0c0-.1.1-.1.1-.1,0,0,.1,0,.2,0,0,0,0,0,0-.1v-.2c0,0,.2,0,.2,0v.2c0,0-.1.1-.1.2,0,0,0,0-.1,0,0,0-.1,0-.2,0h-.1ZM115,446.3h0c0-.1.3,0,.3,0h0c0,.1-.3,0-.3,0ZM115.2,446.8v-.5c.1,0,.3,0,.3,0v.5c-.1,0-.3,0-.3,0ZM115.4,446.2s0,0,0,0,0,0,0,0c0,0,0,0,0,0,0,0,0,0,0,0s0,0,0,0c0,0,0,0,0,0,0,0,0,0,0,0,0,0,0,0,0,0Z"/>
      <path class="cls-9" d="M115.8,447.2c0,0-.2,0-.2-.2,0,0,0-.2,0-.3,0-.1,0-.2.1-.2,0,0,.2,0,.2,0,0,0,.2,0,.2.2,0,0,0,.2,0,.3,0,.1,0,.2-.1.2,0,0-.2,0-.2,0ZM115.9,447.1c0,0,0,0,.1,0,0,0,0,0,0-.2,0,0,0-.1,0-.2,0,0,0,0-.1,0s0,0-.1,0c0,0,0,0,0,.2,0,0,0,.1,0,.2s0,0,.1,0Z"/>
      <path class="cls-9" d="M116.6,447.4c0,0,0,0-.1,0s0,0,0,0h0c0-.1,0,0,.1,0,0,0,0,0,0,0,0,0,.1,0,.2,0,0,0,0,0,0,0,0,0,0,0,0,0,0,0,0,0,0,0h-.1c0-.1-.1-.2-.1-.2,0,0,0,0,0-.1,0,0,0-.1.1-.1,0,0,.2,0,.3,0,0,0,0,0,0,0,0,0,0,0,0,0h0c0,.1,0,0,0,0,0,0,0,0,0,0,0,0-.1,0-.2,0,0,0,0,0,0,0,0,0,0,0,0,0,0,0,0,0,0,0h.1c0,.1.1.1.1.2,0,0,0,0,0,.1,0,0,0,.1-.1.1,0,0-.2,0-.3,0Z"/>
    </g>
    <path class="cls-6" d="M120.8,464.1h0c.5-1.2,1.9-1.9,3.2-1.5l3.3,1c1,.3,1.7,1.4,1.5,2.4v.5c-.2.5-.7.8-1.1.6l-6.3-2c-.5-.1-.7-.6-.5-1.1Z"/>
    <g class="cls-12">
      <path class="cls-3" d="M121.4,388.6c-.5.9-.9,1.9-1.5,2.7-2.9,4.4-5.9,8.7-7.1,13.9-.3,1.2-.2,2.7.3,3.9,1.2,3.5,2.6,7,4.1,10.4.4.9,1.2,1.8,2,2.3,3.6,2.1,7.2,4.1,10.9,6.1.6.3,1.5.1,2.5.2-2.2-2.7-4.4-4.6-5.8-7.1-3.3-5.8-3.5-12.1-.7-18.2,2.4-5.1,6.3-8.6,12.3-8.7,5.9,0,9.8,3.2,12.4,8.1,4.4,8.3,2.5,20.2-6.2,25.1-.2,0-.2.4-.6,1,.9-.1,1.6,0,2-.3,3.5-1.6,7-3.2,10.5-5,.7-.4,1.4-1.2,1.8-1.9,1.9-3.4,3.8-6.7,5.6-10.2.6-1.1.9-2.6.7-3.8-1-5.8-4.5-10.4-7.5-15.2-.4-.7-.8-1.4-1.1-2l.5-.5c.4.3.9.5,1.2.9,2.3,2.8,4.5,5.7,6.7,8.6,2,2.7,3,5.8,3,9.2,0,1.1-.4,2.2-.8,3.2-1.5,4-3.3,7.8-4.6,11.8-.7,2.1-1.9,3.3-3.9,4-3.6,1.3-7.2,2.7-11.5,4.4,3.2,0,5.7-.4,8.2,0,6,.9,10.1-2.2,14.7-5.4,6.1-4.2,5-9.7,4.9-15.4,0-1.1,0-2.1-.2-3.2.2,0,.4,0,.6-.1.2.3.7.6.7,1,.2,4.1.6,8.2.5,12.2,0,1.5-1.1,3.3-2.1,4.5-2.6,2.9-5.5,5.5-8.2,8.3-1.2,1.2-2.4,1.6-4,1.7-5.1.2-10.3.5-15.5,1.2,2.1,1,4.1,2.2,6.3,2.9,7.2,2.3,9.9,8,10.9,14.6,1,6.4-2.3,11.5-6.7,15.8-.3-.1-.5-.2-.8-.3.3-.6.6-1.3,1-1.9,1.2-2,2.7-3.8,3.6-6,1.3-3,.9-5.8-.6-8.9-3-6.6-8.7-10-14.4-13.6-.2.2-.4.4-.6.5,2.3,2.4,4.8,4.7,7,7.3.8.9,1.3,2.2,1.4,3.4.2,2.6.2,5.2,0,7.7-.3,4.7-2.8,8.6-5.3,12.4-.1.2-.4.3-.6.3-.3,0-.6,0-1.2,0,.3-.5.4-.9.6-1.2,3.5-5.8,3.3-12.2,2.5-18.4-.3-2.6-2.9-5-4.6-7.4-.7-.9-1.9-1.5-2.8-2.3-.2,1.1-.4,2.2-.5,3.3-.1,1.1-.2,2.3-.3,3.4-.3,0-.6,0-.9,0-.1-.8-.2-1.6-.4-2.4-1.3,0-2.6-.2-4.1-.3-.1,1-.2,2-.3,3-2.2-1.9-1-4.3-1.3-7.3-1.2,1.5-2,2.5-2.9,3.5-1.3,1.6-2.7,3.1-4,4.7-.5.6-1,1.3-1.1,1.9-.7,5.9-.9,11.8,2,17.4.3.5.5,1.1.7,1.6l-.5.5c-.5-.5-1.2-.9-1.6-1.4-3.6-6.1-3.8-12.9-3-19.7.2-2,2.3-3.8,3.6-5.6,1.1-1.5,2.4-2.9,3.3-4.7-2.3,1.3-4.6,2.8-7,3.9-8.6,3.9-11,17-6.3,24.2.5.8.9,1.7,1.6,3.1-.9-.2-1.6-.2-1.8-.5-3.4-4.9-5.1-10.5-5.4-16.4,0-1.4,1.2-2.8,1.4-4.3.8-5.9,4.2-9.3,10-10.7,1.6-.4,3.2-1.3,4.8-1.9,0-.2,0-.5,0-.7-3.8,0-7.7-.2-11.5,0-3.4.2-6-1.1-8.3-3.4-2.2-2.2-4.4-4.4-6.5-6.7-.6-.6-1.2-1.5-1.4-2.3-1.2-5.6-.9-11.2,1.3-16.6.1-.3.5-.5,1.3-1.2,0,1.3,0,2-.2,2.7-1.4,5.2.5,10.2.9,15.3,0,.5.7,1,1.1,1.4,1.7,1.5,3.3,3.1,5.2,4.4,1.1.7,2.6,1.1,3.9,1.3,4.7.4,9.4.7,14.2.4-2.3-1-4.6-2.1-7.1-2.9-4.3-1.4-6.8-4.1-7.7-8.6-.8-3.8-2.3-7.4-3.1-11.2-.4-1.7-.2-4,.7-5.5,2.9-4.9,6.1-9.5,9.3-14.3.2-.3.6-.4.9-.7.2.1.5.3.7.4Z"/>
    </g>
    <path class="cls-7" d="M154,476.1l51.6,43.9,21.2-63.3-66.2-3.1c-1.6,1.6-4.3,4.6-5.9,9.3-2.1,5.9-1.3,11-.8,13.3Z"/>
    <path class="cls-10" d="M140,444.6c.9,0,.9-1.5,0-1.5s-.9,1.5,0,1.5h0Z"/>
    <path class="cls-10" d="M135.9,444.6c.9,0,.9-1.5,0-1.5s-.9,1.5,0,1.5h0Z"/>
  </g>
  <path class="cls-8" d="M138.3,450.2c-4.5,3.8-6.1,9.8-5.9,15.5,0,.8.1,1.7.1,2.5-.2-.8-.4-1.6-.6-2.4-1.1-5.8.9-12.7,6.4-15.5h0Z"/>
  <circle class="cls-8" cx="105.9" cy="456.9" r="1.7"/>
  <text class="cls-11" transform="translate(104.7 457.4) rotate(24.3) scale(1.2 1)"><tspan x="0" y="0">X</tspan></text>
</svg>