<?xml version="1.0" encoding="UTF-8"?>
<svg id="Capa_1" data-name="Capa 1" xmlns="http://www.w3.org/2000/svg" version="1.1" viewBox="0 0 278 530.9">
  <defs>
    <style>
      .cls-1 {
        fill: #000;
      }

      .cls-1, .cls-2 {
        stroke-width: 0px;
      }

      .cls-3 {
        fill: none;
        stroke: #000;
        stroke-linecap: round;
        stroke-miterlimit: 10;
        stroke-width: 2px;
      }

      .cls-2 {
        fill: #fff;
      }
    </style>
  </defs>
  <line class="cls-3" x1="139" y1="396" x2="139"/>
  <path class="cls-1" d="M121.4,388.6c-.5.9-.9,1.9-1.5,2.7-2.9,4.4-5.9,8.7-7.1,13.9-.3,1.2-.2,2.7.3,3.9,1.2,3.5,2.6,7,4.1,10.4.4.9,1.2,1.8,2,2.3,3.6,2.1,7.2,4.1,10.9,6.1.6.3,1.5.1,2.5.2-2.2-2.7-4.4-4.6-5.8-7.1-3.3-5.8-3.5-12.1-.7-18.2,2.4-5.1,6.3-8.6,12.3-8.7,5.9,0,9.8,3.2,12.4,8.1,4.4,8.3,2.5,20.2-6.2,25.1-.2,0-.2.4-.6,1,.9-.1,1.6,0,2-.3,3.5-1.6,7-3.2,10.5-5,.7-.4,1.4-1.2,1.8-1.9,1.9-3.4,3.8-6.7,5.6-10.2.6-1.1.9-2.6.7-3.8-1-5.8-4.5-10.4-7.5-15.2-.4-.7-.8-1.4-1.1-2l.5-.5c.4.3.9.5,1.2.9,2.3,2.8,4.5,5.7,6.7,8.6,2,2.7,3,5.8,3,9.2,0,1.1-.4,2.2-.8,3.2-1.5,4-3.3,7.8-4.6,11.8-.7,2.1-1.9,3.3-3.9,4-3.6,1.3-7.2,2.7-11.5,4.4,3.2,0,5.7-.4,8.2,0,6,.9,10.1-2.2,14.7-5.4,6.1-4.2,5-9.7,4.9-15.4,0-1.1,0-2.1-.2-3.2.2,0,.4,0,.6-.1.2.3.7.6.7,1,.2,4.1.6,8.2.5,12.2,0,1.5-1.1,3.3-2.1,4.5-2.6,2.9-5.5,5.5-8.2,8.3-1.2,1.2-2.4,1.6-4,1.7-5.1.2-10.3.5-15.5,1.2,2.1,1,4.1,2.2,6.3,2.9,7.2,2.3,9.9,8,10.9,14.6,1,6.4-2.3,11.5-6.7,15.8-.3-.1-.5-.2-.8-.3.3-.6.6-1.3,1-1.9,1.2-2,2.7-3.8,3.6-6,1.3-3,.9-5.8-.6-8.9-3-6.6-8.7-10-14.4-13.6-.2.2-.4.4-.6.5,2.3,2.4,4.8,4.7,7,7.3.8.9,1.3,2.2,1.4,3.4.2,2.6.2,5.2,0,7.7-.3,4.7-2.8,8.6-5.3,12.4-.1.2-.4.3-.6.3-.3,0-.6,0-1.2,0,.3-.5.4-.9.6-1.2,3.5-5.8,3.3-12.2,2.5-18.4-.3-2.6-2.9-5-4.6-7.4-.7-.9-1.9-1.5-2.8-2.3-.2,1.1-.4,2.2-.5,3.3-.1,1.1-.2,2.3-.3,3.4-.3,0-.6,0-.9,0-.1-.8-.2-1.6-.4-2.4-1.3,0-2.6-.2-4.1-.3-.1,1-.2,2-.3,3-2.2-1.9-1-4.3-1.3-7.3-1.2,1.5-2,2.5-2.9,3.5-1.3,1.6-2.7,3.1-4,4.7-.5.6-1,1.3-1.1,1.9-.7,5.9-.9,11.8,2,17.4.3.5.5,1.1.7,1.6l-.5.5c-.5-.5-1.2-.9-1.6-1.4-3.6-6.1-3.8-12.9-3-19.7.2-2,2.3-3.8,3.6-5.6,1.1-1.5,2.4-2.9,3.3-4.7-2.3,1.3-4.6,2.8-7,3.9-8.6,3.9-11,17-6.3,24.2.5.8.9,1.7,1.6,3.1-.9-.2-1.6-.2-1.8-.5-3.4-4.9-5.1-10.5-5.4-16.4,0-1.4,1.2-2.8,1.4-4.3.8-5.9,4.2-9.3,10-10.7,1.6-.4,3.2-1.3,4.8-1.9,0-.2,0-.5,0-.7-3.8,0-7.7-.2-11.5,0-3.4.2-6-1.1-8.3-3.4-2.2-2.2-4.4-4.4-6.5-6.7-.6-.6-1.2-1.5-1.4-2.3-1.2-5.6-.9-11.2,1.3-16.6.1-.3.5-.5,1.3-1.2,0,1.3,0,2-.2,2.7-1.4,5.2.5,10.2.9,15.3,0,.5.7,1,1.1,1.4,1.7,1.5,3.3,3.1,5.2,4.4,1.1.7,2.6,1.1,3.9,1.3,4.7.4,9.4.7,14.2.4-2.3-1-4.6-2.1-7.1-2.9-4.3-1.4-6.8-4.1-7.7-8.6-.8-3.8-2.3-7.4-3.1-11.2-.4-1.7-.2-4,.7-5.5,2.9-4.9,6.1-9.5,9.3-14.3.2-.3.6-.4.9-.7.2.1.5.3.7.4Z"/>
  <path class="cls-2" d="M140,444.6c.9,0,.9-1.5,0-1.5s-.9,1.5,0,1.5h0Z"/>
  <path class="cls-2" d="M135.9,444.6c.9,0,.9-1.5,0-1.5s-.9,1.5,0,1.5h0Z"/>
</svg>