<?xml version="1.0" encoding="UTF-8"?>
<svg id="Capa_1" data-name="Capa 1" xmlns="http://www.w3.org/2000/svg" version="1.1" viewBox="0 0 1496 946">
  <defs>
    <style>
      .cls-1 {
        fill: #2e3192;
      }

      .cls-1, .cls-2, .cls-3, .cls-4, .cls-5, .cls-6, .cls-7, .cls-8, .cls-9, .cls-10 {
        stroke-width: 0px;
      }

      .cls-2 {
        fill: #000;
      }

      .cls-3 {
        fill: #c1272d;
      }

      .cls-11 {
        stroke-linejoin: round;
      }

      .cls-11, .cls-12, .cls-13, .cls-14 {
        fill: none;
        stroke: #8c6239;
      }

      .cls-11, .cls-13 {
        stroke-width: 4px;
      }

      .cls-11, .cls-13, .cls-14 {
        stroke-linecap: round;
      }

      .cls-4 {
        fill: #ff0;
      }

      .cls-5 {
        fill: #f15a24;
      }

      .cls-6 {
        fill: #662d91;
      }

      .cls-12, .cls-13, .cls-14 {
        stroke-miterlimit: 10;
      }

      .cls-12, .cls-14 {
        stroke-width: 3px;
      }

      .cls-7 {
        fill: #009245;
      }

      .cls-8 {
        fill: #8c6239;
      }

      .cls-9 {
        fill: #f0f;
      }

      .cls-10 {
        fill: #fff;
      }
    </style>
  </defs>
  <g>
    <path class="cls-12" d="M369,260.9c6.9,25,17.1,54.4,32.6,85.8,22.3,45.3,48.4,80.2,70.3,105.3"/>
    <g>
      <path class="cls-3" d="M373.2,157.7l-4.2,101c0,2-2.6,3-4,1.6,0,0-71.5-71.4-71.5-71.4-18.3-18.2-18.3-47.9,0-66.1,30.3-30.2,81.5-7.1,79.8,35h0Z"/>
      <polygon class="cls-3" points="364.9 268.4 374.6 264.7 365.5 255.8 364.9 268.4"/>
    </g>
  </g>
  <g>
    <g>
      <line class="cls-10" x1="470.6" y1="446" x2="415.1" y2="174.2"/>
      <rect class="cls-8" x="441.5" y="171.4" width="2.6" height="277.4" transform="translate(-53.1 94.9) rotate(-11.5)"/>
    </g>
    <g>
      <path class="cls-1" d="M437.4,70.5l-21.3,98.8c-.4,2-3.1,2.5-4.2.9,0,0-58.3-82.5-58.3-82.5-14.9-21.1-9.9-50.3,11.2-65.2,35-24.6,81.6,6.8,72.7,48h0Z"/>
      <polygon class="cls-1" points="410.4 178.2 420.6 176.1 413.2 165.9 410.4 178.2"/>
    </g>
  </g>
  <g>
    <path class="cls-12" d="M468.3,279.2c3.5,25.7,5.6,56.7,3.7,91.7-2.8,50.5-13,92.8-23.4,124.4"/>
    <g>
      <path class="cls-7" d="M403.3,141.5l63,132.2c1.2,2.6,5.2,2.5,6.3-.2,0,0,54.8-135.9,54.8-135.9,14-34.7-2.8-74.2-37.5-88.2-57.5-23-112.8,36.8-86.6,92h0Z"/>
      <polygon class="cls-7" points="477.4 284.4 462.3 284.9 469.3 267.9 477.4 284.4"/>
    </g>
  </g>
  <g>
    <path class="cls-12" d="M540.5,213.5c-2.7,25.8-7.9,56.5-18,90-14.6,48.4-34.5,87.1-52,115.4"/>
    <g>
      <path class="cls-5" d="M524.6,138.6l15.7,74.6c.3,1.5,2.3,1.9,3.2.7,0,0,44.4-62,44.4-62,11.3-15.9,7.7-37.9-8.2-49.2-26.3-18.7-61.6,4.8-55.1,36h0Z"/>
      <polygon class="cls-5" points="544.5 220 536.8 218.4 542.5 210.7 544.5 220"/>
    </g>
  </g>
  <g>
    <path class="cls-14" d="M861.5,300.1c-4.9,25.5-12.8,55.5-25.9,88.1-18.8,46.9-42,83.7-62,110.4"/>
    <g>
      <path class="cls-1" d="M852,221.7l9.3,78c.2,1.5,2.2,2.2,3.2,1,0,0,51.1-59.6,51.1-59.6,13.1-15.2,11.3-38.2-3.9-51.3-25.3-21.6-63.6-.6-59.8,31.9h0Z"/>
      <polygon class="cls-1" points="865.1 307 857.3 304.6 863.8 297.2 865.1 307"/>
    </g>
  </g>
  <g>
    <g>
      <line class="cls-10" x1="774.5" y1="492.5" x2="808.9" y2="217.2"/>
      <rect class="cls-8" x="653" y="353.5" width="277.4" height="2.6" transform="translate(341.5 1096.5) rotate(-82.9)"/>
    </g>
    <g>
      <path class="cls-9" d="M778.6,115.6l28.9,96.8c.5,1.9,3.3,2.3,4.3.5,0,0,51.8-86.8,51.8-86.8,13.2-22.2,6-50.9-16.2-64.1-36.8-21.8-80.8,13.1-68.8,53.5h0Z"/>
      <polygon class="cls-9" points="813.8 220.9 803.5 219.6 810.1 208.8 813.8 220.9"/>
    </g>
  </g>
  <g>
    <path class="cls-14" d="M764,326c-1.5,25.9-1.2,57,3.4,91.7,6.7,50.1,20.1,91.5,32.9,122.2"/>
    <g>
      <path class="cls-6" d="M811.3,201.9l-46.1,119.9c-.9,2.4-4.4,2.6-5.5.3,0,0-57.1-115-57.1-115-14.6-29.4-2.6-65.1,26.8-79.7,48.7-24,101.1,24.6,81.9,74.6h0Z"/>
      <polygon class="cls-6" points="756.2 331.9 769.4 331.3 762.1 316.9 756.2 331.9"/>
    </g>
  </g>
  <g>
    <path class="cls-12" d="M686.9,266.1c4.6,25.5,12.2,55.7,24.9,88.4,18.3,47.1,41.1,84.2,60.7,111"/>
    <g>
      <path class="cls-4" d="M700.2,163.7l-13.1,100.2c-.2,2-2.9,2.8-4.1,1.2,0,0-64.9-77.4-64.9-77.4-16.6-19.8-14-49.3,5.8-65.9,32.8-27.4,81.8,0,76.4,41.9h0Z"/>
      <polygon class="cls-4" points="682.1 273.3 692.1 270.4 683.9 260.7 682.1 273.3"/>
    </g>
  </g>
  <g>
    <path class="cls-12" d="M1216.5,288.2c-1.7,25.9-5.9,56.7-14.7,90.6-12.8,48.9-31.3,88.3-47.8,117.2"/>
    <g>
      <path class="cls-3" d="M1191.8,187.9l24.3,98.1c.4,2,3.2,2.4,4.3.7,0,0,55.8-84.3,55.8-84.3,14.3-21.5,8.4-50.5-13.2-64.8-35.7-23.5-81.3,9.3-71.2,50.2h0Z"/>
      <polygon class="cls-3" points="1222.1 294.8 1211.8 293 1218.9 282.5 1222.1 294.8"/>
    </g>
  </g>
  <g>
    <g>
      <line class="cls-10" x1="1154.2" y1="486.9" x2="1154.2" y2="209.6"/>
      <rect class="cls-8" x="1152.9" y="209.6" width="2.6" height="277.4"/>
    </g>
    <g>
      <path class="cls-7" d="M1205.9,91.2l-49.3,112.1c-.9,2.2-4.3,2.3-5.2,0,0,0-49.3-112.1-49.3-112.1-12.6-28.7.4-62.1,29.1-74.7,47.5-20.7,95.2,27.9,74.7,74.7h0Z"/>
      <polygon class="cls-7" points="1147.7 212.6 1160.3 212.6 1154 198.6 1147.7 212.6"/>
    </g>
  </g>
  <path class="cls-2" d="M644.1,691.5c19.8,0,38,.4,56.1,0,73-1.9,142.2-20.3,208.4-50.2,58.4-26.4,116.4-53.7,174.6-80.5,46.2-21.2,94.5-36.3,143.9-48.1,3.6-.9,8.7.7,12.1,2.8,29.7,18.7,59.4,37.8,94.3,44.7,27.9,5.6,56.2,8.8,85.4,13.3-1-2.7-1-3.5-1.3-3.7-24.6-11.2-44-28.3-59.5-50.3-11.3-16.1-28.2-25.2-45.2-33.8-5.2-2.6-10.4-5.2-17.4-8.7,6.1-2.4,10.5-4.2,15-5.8,25.2-9.2,44.4-24.6,53.8-50.5,1.9-5.2,4.8-10.1,6.9-15.3,7.9-20.2,17.4-39.4,33.9-54.2-1-.9-1.4-1.6-1.7-1.5-35.4,9.5-70.7,19.6-103.3,36.9-27.5,14.5-49,36.1-69.3,59-4.1,4.7-8.5,7.1-14.8,7.9-90.6,12-181.3,21.5-272.8,20.3-64.3-.8-127.7-10.8-191.1-20.1-59.8-8.8-119.6-17.9-179.7-24.5-70-7.7-140.4-6.1-210.6-1.3-72.1,4.9-144,12.1-215.1,24.9-17.9,3.2-35.6,7.7-52.9,12.9-14.9,4.5-18.7,13.2-15.7,28.6,4.3,22.3,18.3,37.2,38.5,44,28,9.5,56.8,17,85.8,23.4,49.6,10.9,94.7,32.1,138.7,56.3,2.6,1.4,4.2,6.7,4.3,10.3,2.3,62.3,9.4,123.9,25,184.4,3.1,11.9,7.5,23.4,12,34.9,1.6,4,4.5,7.7,7.5,10.9,4.2,4.4,9.2,4.3,13-.5,3.1-3.9,6.3-8.2,7.7-12.8,7.1-24.1,14-48.3,20.1-72.7,8.1-32,15.4-64.2,23.1-96.3.6-2.4,1.6-4.7,2.7-7.7,8.8,2.2,17.2,4,25.4,6.4,1.7.5,3.6,2.8,4,4.5,8.1,37.9,28.9,69,52.9,98.1,43.9,53.5,93.9,100.7,150.6,140.5,8.6,6.1,18.2,11.1,28,15,11.5,4.6,18.5-1.1,15.3-12.9-4.4-16.1-9.7-32.2-16.8-47.3-15.6-33.1-33.1-65.4-48.9-98.5-10-20.9-19.1-42.4-21.6-65.9-.5-4.9-.7-9.9-1.1-16.7Z"/>
  <polyline class="cls-11" points="1171.7 459.5 1168.3 528.6 1155.3 461.6 1154.3 533.6"/>
  <line class="cls-11" x1="1147.3" y1="461.6" x2="1143.3" y2="536.6"/>
  <polyline class="cls-13" points="341.3 617.6 443.3 423.6 327.3 610.6"/>
  <polyline class="cls-13" points="467.3 423.6 470.3 671.6 452.3 423.6"/>
  <path class="cls-11" d="M482.3,674.6l-5-251c63.5,54.8,1.8,57,109.9,115.2,112,60.3,104.3,121.1,187.1,143.8-3.6-74-5.4-153-9-227"/>
  <polyline class="cls-13" points="781.3 682.6 777.3 457.6 798.3 678.6 793.3 459.6"/>
  <path class="cls-8" d="M325.9,609.6c-5.2-.3-9.8,3.1-12.3,7.5s-4.5,10.7-2.6,15.6,6.5,6.8,11,4.6,6.3-7.5,6.6-12.4.3-6.2.2-9.3-1-4.9-3.7-5-1.5.7-1.5,1.5c-.2,4.2.5,8.4,2.1,12.3s1.7,3.6,3.3,4.6,3.3,1.2,5.1,1.2,3.8,0,4.7-1.7.7-3.6.7-5.2c0-3.3-.4-6.8-2.7-9.3s-7.6-3.1-11.6-2.8l.4,2.9c4.4-.7,9.1-.7,13.4.5s6.3,5.2,7.8,9,2.5,8.3,2.4,12.5-1.8,8.3-6.1,8.4-1.9,3,0,3c3.6,0,6.6-2.5,7.9-5.7s1.3-7.9.7-11.8-2.1-8-4.1-11.5-4.5-5.9-8.5-6.9-9.7-1.2-14.4-.4-1.3,3.1.4,2.9c3.3-.3,7.5-.7,9.8,2.2s1.7,6.2,1.4,9.2,0,.9-.1,1.2-.3.3-.6.3c-.9,0-1.8,0-2.7,0-2-.2-3.2-1.2-4-3-1.8-3.7-2.5-8-2.3-12.1l-1.5,1.5c.9,0,.7,3.1.7,3.7,0,2.2,0,4.4-.1,6.5-.1,3.7-.8,8.1-4.1,10.3s-6.5.9-7.8-2.6.2-8.6,1.9-12,5.6-7.2,10.2-6.9,1.9-2.9,0-3h0Z"/>
  <g>
    <path class="cls-10" d="M312,536.9c4.1,0,8.5-1.8,11.4-4.7s4.9-7.4,4.7-11.4-1.6-8.5-4.7-11.4-7-4.7-11.4-4.7-8.5,1.8-11.4,4.7-4.9,7.4-4.7,11.4,1.6,8.5,4.7,11.4,7,4.7,11.4,4.7h0Z"/>
    <path class="cls-10" d="M297.6,518.2c-3.2-2.3-12.9-9.1-9.6-13.6-1.6,2.8,1.5,5.4,3.4,7,2.2,1.8,4.8,3.2,7.3,4.5,0,0-1.2,2.1-1.2,2.1h0Z"/>
    <path class="cls-10" d="M298.7,516.1c-1.9-4-8.7-18.6-2-20.4-3.8,1.6-1.7,6.7-.6,9.5,1.4,3.3,3.2,6.5,5.2,9.4,0,0-2.6,1.5-2.6,1.5h0Z"/>
  </g>
</svg>