<?xml version="1.0" encoding="UTF-8"?>
<svg id="Capa_1" data-name="Capa 1" xmlns="http://www.w3.org/2000/svg" version="1.1" viewBox="0 0 192 497">
  <defs>
    <style>
      .cls-1 {
        fill: #d2c17c;
      }

      .cls-1, .cls-2, .cls-3, .cls-4, .cls-5, .cls-6, .cls-7, .cls-8 {
        stroke-width: 0px;
      }

      .cls-2 {
        fill: #2e3192;
      }

      .cls-3 {
        fill: #c1272d;
      }

      .cls-9 {
        stroke: #c1272d;
        stroke-width: 2.2px;
      }

      .cls-9, .cls-10 {
        fill: none;
        stroke-linecap: round;
        stroke-miterlimit: 10;
      }

      .cls-4 {
        fill: #c69c6d;
      }

      .cls-5 {
        fill: #8c6239;
      }

      .cls-6 {
        fill: #fff;
      }

      .cls-7 {
        fill: #009245;
        opacity: .6;
      }

      .cls-10 {
        stroke: #8c6239;
        stroke-width: 3px;
      }

      .cls-8 {
        fill: #857841;
      }
    </style>
  </defs>
  <line class="cls-10" x1="91.1" y1="379.4" x2="79.8" y2="387.6"/>
  <rect class="cls-4" x="67.9" y="345.1" width="10" height="14" rx="4.1" ry="4.1" transform="translate(-135.4 59) rotate(-23.7)"/>
  <g>
    <line class="cls-6" x1="96.1" y1="389.1" x2="96.1" y2="182.1"/>
    <rect class="cls-5" x="94.8" y="182.1" width="2.6" height="207"/>
  </g>
  <g>
    <path class="cls-2" d="M138.8,85l-40.7,92.5c-.8,1.8-3.6,1.9-4.3,0,0,0-40.7-92.5-40.7-92.5-10.4-23.6.4-51.2,24-61.6,39.2-17.1,78.5,23,61.6,61.6h0Z"/>
    <polygon class="cls-2" points="90.7 185.1 101.1 185.1 95.9 173.6 90.7 185.1"/>
  </g>
  <g>
    <g>
      <path class="cls-1" d="M134.2,462.6c-.2.8-.8,2.8-2.6,4.5-2.2,2.1-4.8,2.3-5.6,2.3-6.1-9-13.2-18.6-21.4-28.5-8.2-9.8-16.2-18.4-23.9-25.8.2-.7.8-3,3-4.8s2.4-1.9,5.2-2.1c6,8.9,13,18.3,21.1,28.1,8.3,9.9,16.4,18.6,24.2,26.2Z"/>
      <path class="cls-8" d="M80.7,415.2c3.7-.7,6.8-3.4,8.2-6.8-.8,3.7-4.3,6.8-8.2,6.8h0Z"/>
      <line class="cls-9" x1="104.6" y1="441" x2="110" y2="436.5"/>
      <path class="cls-3" d="M109.7,437c1,.6,2,1.2,3,1.6s1.1.4,1.6.2,1-.8.8-1.5c-.2-.9-.9-1.8-1.8-2.2s-2.2-.4-3.2.1-.3,1.3.3,1.2c1-.1,2-.5,2.9-1.1s.8-.7,1-1.2,0-1.1-.2-1.7c-.4-.8-1.1-1.7-2.1-1.7s-1.9,1-2.3,1.9-.8,2.4-.3,3.5.4.6.8.5.6-.5.5-.8c-.3-.9-.1-1.8.2-2.6s.7-1.6,1.4-1,.5.6.6.9.2.7-.2,1c-.6.6-1.5.9-2.3,1l.3,1.2c1.1-.6,2.6-.2,3,1.1s0,.2,0,.2h0c0-.1,0-.1,0-.1,0,0-.3,0-.3,0-.4-.1-.7-.3-1-.5-.8-.4-1.5-.8-2.2-1.3s-1.4.7-.7,1.2h0Z"/>
    </g>
    <path class="cls-7" d="M132,446.1c-9-21.8-6.8-16.5-15.7-38.3-2.9-7.1-7.1-12.8-14.4-16.1-4.4-2-7.9-5.4-10-10-.3-.2-.4-.4-.6-.7.2.2.4.5.6.7-.3-.8-.7-1.6-1.2-2.3-.1-.3-.3-.5-.6-.7-2.6-4.7-3.8-9.9-6-14.8-1.1-2.5-2.4-5.1-2.9-7.7-.5-2.9-1.8-5.1-3.8-7.1-2.3,0-4.2,1.1-6.3,2-3.7,1.5-4.6,4.5-2.3,7.8,1,1.4,1.9,2.9,2.6,4.5,2.1,5.2,4.3,10.2,6.2,15.5,3,7.9,4.8,15.9,1.6,24.3-1.7,4.6-1.5,9.4.4,14.1,10.9,26.7,10.7,26.2,21.5,52.9,1.1,2.6,2.6,4.9,5.1,6.4,1,1,2.2,1.2,3.5,1,2.3.2,4.1-1.1,6.1-1.9,0,0,0,0,0,0,3.7-1.5,7.5-3,11.2-4.6,2.5-1.1,5.2-1.6,7.3-3.6,0,0,0,0,0,0,2.1-1.6,2.4-3.7,2.2-6.2-.5-5.4-2.6-10.3-4.7-15.3Z"/>
  </g>
  <line class="cls-10" x1="96.9" y1="388.1" x2="79.9" y2="388.1"/>
  <line class="cls-10" x1="92.4" y1="383.3" x2="78.5" y2="383.7"/>
  <line class="cls-10" x1="90.4" y1="379.6" x2="77.4" y2="378.6"/>
  <path class="cls-10" d="M89.4,376.6"/>
  <path class="cls-10" d="M73.4,381.6"/>
  <path class="cls-5" d="M78.8,377.8c-.9-1.5-2.3-3.2-3.9-4s-2.3-.5-3.3.4-1.3,1.4-1.7,2.2-.9,2.2-.4,3.2,1.5,1.5,2.4,1.7c1.9.5,3.9,0,5.5-1.2l-2.1-.5v-.2c0-.3,0-.5,0-.8,1-.5,1.2-.7.6-.7-.1,0-.2,0-.3,0-.4,0-.7.1-1.1.3s-.8.5-1.1.9c-.6.7-1.2,1.5-1.6,2.4-.9,1.9-1.1,4.5,1,5.7s2.2.8,3.2.2,1.4-1.4,1.8-2.3c.8-1.8.7-3.9,1.2-5.8s-.3-1.6-1-1.8-1.6.3-1.8,1c-.4,1.6-.4,3.3-.9,4.8s-.2.6-.4.9-.2.3-.3.4h0c-.1,0-.1.1,0,0,0,0,.2,0,.2,0s-.5-.1-.5-.1c.2,0-.2-.1,0,0h-.1c0,0,0,0,0-.2,0,.2,0-.3,0-.2,0,.2,0-.2,0-.2,0-.1.1-.5.2-.7.3-.6.7-1.3,1.1-1.8s.2-.3.3-.4c-.1.1.2-.1,0,0-.1,0,0,0,.1,0h.2c.2,0,.5,0,.7,0,1.1-.3,1.8-1.8,1.1-2.8s-1.3-1.1-2.1-.5-.9.6-1.3.8-.9.3-1.4.2c.1,0-.2,0-.2,0-.1,0-.3,0-.4-.1.1,0-.2,0-.2-.1,0,0,0,0-.1,0,0,0,0,0,0,0l.2.5v-.2c0,0,0-.2,0-.2,0-.2.2-.4.3-.6s.9-1.2.9-1.2c0,0-.2,0-.2,0s.5.3.5.3c.9.7,1.6,1.6,2.2,2.6,1,1.6,3.6.1,2.6-1.5h0Z"/>
</svg>