<?xml version="1.0" encoding="UTF-8"?>
<svg id="Capa_1" data-name="Capa 1" xmlns="http://www.w3.org/2000/svg" version="1.1" viewBox="0 0 1352 977">
  <defs>
    <style>
      .cls-1 {
        fill: #c1272d;
      }

      .cls-1, .cls-2, .cls-3, .cls-4, .cls-5, .cls-6 {
        stroke-width: 0px;
      }

      .cls-7 {
        stroke: #cd5257;
        stroke-miterlimit: 10;
        stroke-width: 14.2px;
      }

      .cls-7, .cls-5 {
        fill: #d77579;
      }

      .cls-8 {
        font-size: 92.8px;
      }

      .cls-8, .cls-9, .cls-10, .cls-11, .cls-12, .cls-13 {
        isolation: isolate;
      }

      .cls-8, .cls-10, .cls-11, .cls-12, .cls-13 {
        font-family: MonotypeCorsiva, 'Monotype Corsiva';
      }

      .cls-8, .cls-6 {
        fill: #cd5257;
      }

      .cls-2 {
        fill: #70bb97;
      }

      .cls-3 {
        fill: #8e7a6d;
      }

      .cls-10 {
        fill: #42210b;
      }

      .cls-10, .cls-11 {
        font-size: 123px;
      }

      .cls-4 {
        fill: #ebe7e5;
      }

      .cls-11 {
        fill: #9c887b;
      }

      .cls-12 {
        fill: #c4b8b0;
        font-size: 54px;
      }

      .cls-13 {
        fill: #b0a095;
        font-size: 61.5px;
      }
    </style>
  </defs>
  <g>
    <path class="cls-4" d="M1335.5,602.8v-9.2c-2.5-.8-1-4.6-3.1-5-11.2-2.3-14.1-13.1-20.7-20-6.2-7.6-3.1-13.6,3.4-19.1h0c4.6-6.2,11.3-11.3,11.6-20h0c5.1-3.3-1.4-6.1-.3-9.3,0-3.4,0-6.9-1.6-10.1h0c.4-2.5-.4-4.5-2-6.3-1.2-5.2-2-10.5-5.3-14.9-.6-8.3,2.1-15.8,5.9-22.9,2.4-4.4,5.7-8.4,6.7-13.6,3.4-4.2,1.6-8.5.2-12.8,1.3-12.7-3.4-23.5-10.7-33.5-2.6-2.8-5.1-5.6-7.7-8.4v-.2c-1.4-1.8-2.6-3.7-3.9-5.5,0-3.9-7.5-6.2-2.7-11,5.3-5.3,3-10.1-.4-15,0-3.5,3-6.5,2-10.2h0c1.1-2,2.2-4,3.3-6,2.5-1.6.6-3.4.3-5.2,3.7-6.2,5.3-14.6,15-14.7.6.3,1,.2,1.3-.4h0c4.7-1.1,5.8-3.8,4.8-8.6-1.4-6.6-1.9-13.4-2.8-20.1,6-11.2-3.3-17.9-7.6-26.1-5.1-7,.3-15.5-3.2-22.7,5.6-14.3,5.3-28.1-3.4-41.2.9-4.7-3.5-4.3-5.8-5.9-.7-2.9-1.4-5.9-2.1-8.8-5.2-7.8,3.8-11,5.5-16.5,2.3-2,2.2-4.7,2-7.3,1.5-3,2.4-6.1,0-9.1h0c-1.4-3.4-5.6-2.9-7.6-5.5h0c-3-6.9,2.4-10.5,5.9-14.8,3.9-.6,7.7-1.3,11.6-1.9,2.4-.3,5-1.6,3.5-3.8-3.9-5.4-3.2-10.1,0-15.4,1.2-2.1,0-4.7-2.3-6.3-4.4-5.6-12.4-6.8-16.2-13.1h0c-1.1-4.5,4.1-4.4,5.3-7.2,3.9-3.4,5.6-8,7.5-12.5,7.1-6.3,4.9-13.5,2-20.8,0-1.7-.3-3.3-.4-5,.2-5.4-.4-11,.8-16.1,1.5-6.2-3.1-7.3-5.4-5.3-5.6,4.9-13.7,3.3-18.8,8.6h0c-8,8.5-9.4,8.6-17.4,1.1-2.1-1.9-3.9-3.5-7.1-1.8-3.5,1.9-7.2,2.4-11.2.9-2.8-1-6.8,0-8,2.3-1.3,2.5-1.6,6.6,2.4,8.5-.5,1.7-1.1,3.3-1.6,5h-2.5c-1.8-1.9-4.2-1-6.3-1.4-2-1.6-.9-5.8-4.7-5.8.7-3.8,2.6-7.6-.4-11.2-.7-4.8-2.4-9.4-5-13.5-1.8-2.8-4.1-4.5-7.6-2.6-5.3,2.8-11.5,4.7-15.6,8.8-4.8,4.9-9.8,6.3-16.1,6,1,0,1.9.4,2.8.9-.9-.2-1.9-.5-2.8-.9-7.3-4-14.6-7.6-22-.2-3.1.6-6.1,1.2-9.2,1.7h0c-6.6,2.8-8.6-5.1-12.7-5.8-14.6-2.6-27.2-14.6-43.5-9.6-4.9,1.5-10.1,1.6-15.3.9-2.4-1.8-4.8-1.5-7.3,0h-12.9c-2.5-2.2-5.8-3-8.5-1.8-10.5,4.7-21.1,3.1-31.8,1.6-.3-.5-.7-.6-1.2-.3-1.7-1.7-3.9-1.1-5.9-1.6-10-2.2-17.1,5.9-26.1,7.2h0c-1.2,1.8-2.5,3.6-3.7,5.5-3.7,1.2-7.3,2.4-11,3.6-.4-.3-.7-.3-1.1,0-1.2-.6-2.4-1.2-3.5-1.8h0c-6.4-5-9.3-15.7-20.6-12.5-11.1,3.4-22.8.9-34,3.3h0c-2.9-.6-5.9-1-8.7-1.2-9.1-.7-18.2-7.1-27.5-.8h-6.2c-6.8-4.4-15.3-2.2-22.4-5.4,0-.5-.2-1.1,0-1.6h-9.2l.2.9-.3.8c-1.9.6-3.9,1.2-5.8,1.7-1.7-.6-3.4-.8-5.1.2-1.5-.1-3.2-.4-3.5,1.8-4.3,9.2-6.2,9.5-12.8,1.9-2.5-2.9-4.8-6.4-9.4-5.9h-5.5c-5,.6-10.3-.6-15,2-.7-.3-1.1,0-1.4.6-4.8,10.3-11.8,13.8-22.1,7h0c-3.3-3.2-6.9,0-10.4-.6-2.4-2.2-5.2-1.6-8-1.3-1.7-.1-3.4-.2-5.1-.3h0c-6.5-4.3-13.7-.7-20.5-1.9.3-4.4-2.6-4.2-5-2.9-2.9,1.5-5.8,2.3-8.9,2.9h0c-9.2-2.8-18.6-3.4-27.6-.7-11.6,3.5-22.7,7.7-34.1-.4-2.2-1.6-5.8-.7-8.5-2.3-1-.6-3.2-.6-3.6,1.4-.4,2.1,1.6,1.8,2.8,2.4,5.1,2.6,11.7,4.3,9.6,12.5-9.5,1.5-17-4.7-25.6-6.9-3-.9-6-2.7-9-.2-3,.5-5.9,1-8.9,1.5-.3-.2-.6-.3-.9-.4-4.2-2.3-8.2-7.3-13.2-1.8-3.9,4.3-8.7,5.1-13.7,6.2-3.4-1.4-6.9-2.8-10.3-4.2h0c-4.7-10.4-12.3-12.9-22.8-9.1-2.4.9-5.3,0-8,0-.8-.6-1.5-1.2-2.3-1.8h0c-2.1-2.7-5.3-.8-7.7-1.9-3.5-1.8-7.6.7-11.1-1.6h-18.3c-2.6,5-8.2.1-11.3,3.5h0c-.6-.3-1.1-.1-1.5.3h0c-5.5.6-11,1.2-16.5,1.8-7.1-.9-13.5,1.2-20.3,3.5-11,3.6-22.7,13.8-33.9,0-.3-.4-1.7,0-2.6.1h0c-6.5-1.2-13-2.6-19.5-3.4-6.9-.9-14.1-1.7-17.1,7.2-1.2,1.2-2.5,2.4-3.7,3.5-5.8,0-10.4-4.8-16.4-3.7-4.6-3.3-10.7.7-14.8-2.5-13.6-10.6-29.5-1.3-43.7-5.7,0,0-.2.5-.3.8-1.5,1.6-1.6,3.6-1.6,5.6h0c-.4.3-.6.7-.7,1.2-1.1,2-2.2,4-3.3,5.9h0c-4.3,3.4-10.3-5.4-14,2h0c-1.4,1.3-2.7,2.5-4.1,3.8h0c-6.5.6-12.6-.6-18.3-3.7-3.5-3.7-8.2-1.3-12.2-2.3-6.4-3-10.5-8.2-13.4-14.5-5.4-3.4-9.9.9-14.7,1.9-7.5-1.4-14.5,2.3-21.9,2.1.3.2.7.3,1,.5-.4-.1-.7-.3-1-.5-5.8,0-11.6.6-17.2-.3-13.2-2.3-26.4,4.2-39.5,0-2.4-2.3-4.8-5.9-7.5-.3h0c-6.9,2.5-8.2-5.1-12.6-7h-20.2c0,.5-.2,1.1-.4,1.6h0c-.5-.1-1,0-1.4.5h0c-6.3-.6-11.7.8-14.6,7.1h0c-2.4,2.5-1.4,5.3-1.4,8.3,0,4.5,0,11-6.3,11.2-6,.2-9.4,2.3-12,7.3-.9,1.7-3.1,3.9-6,2.3-.9-3.6.7-7.6-1.9-10.8-.5.9-1,1.4-1.4,1.6.2-.6.6-1.2,1.4-1.6-1-7.4-6.1-12.9-9.2-19.4-1.2-2.5-4-5-7.3-4.3-3.2.7-1.6,4.1-2,6.2-1.8,8.4-1,17.6-6.8,24.9-2.4,2.4-.7,4.8,0,7.2h0c-.2,3-.3,6-.5,9.1-7.9,14-2.1,24.9,7.8,34.9,2.3,2.6,4.6,5.2,6.9,7.9,2.9,4.9,8.1,8.3,9.5,14.2-1,6-5.8,2-8.7,3.3h0c-4.5-2-9-2.7-13.4.5h0c-7.4,14.4-4.1,29.3-2,44.1h0c.4,8.7,1.6,17.5,1,26.1-.3,5.1,1.3,7.8,4.9,10.3-.7,4.3-1.5,8.5-2.2,12.8-2,2.5-1.9,4.9,0,7.3,3.2,10.9,0,22,1.2,33.1.6,4.9-1.5,11.4-4.8,15.1-5.9,6.7-4.7,13-2.4,20.1-.4,3.3-1.4,6.7,1.9,9.3h0c.1,1,.2,2,.3,3.1.3,4.9,2.8,9.6,1.8,14.7l-.5.5v.7c-1.6,8.1-3.3,16.3-5,24.4-1.1,2.4-4.4,3.5-4.1,6.7-2.8,4.7-2,9.3.3,13.8,2.3,0,4.6-.2,7-.3h0c.2.6.4,1.2.7,1.8,1.6,5.5-4.3,7.1-5.8,11-2.5,3.4-3.5,7.7-1,10.8,5.2,6.7,8.1,15.3,15.6,20.3,7.6,4.6,13.1,10.3,11.2,20.2h0v7.3c0,2.2-.3,4.5-.4,6.7h0c-1.9,5.3-3.5,10.8-7.1,15.5-4,5.2-4,11.2-2.7,17.1,1.2,5.2,3.2,10.1.7,15.4-4.3-.5-6.7.9-5.6,5.7h0c-2.9,1.9-5.8,3.7-8.8,5.6-1.1,3.5-1.7,7,1.3,9.9.9,2.6.5,5.1,0,7.7-7.3,10.1-9.9,20.6-3.6,32.2h0c.1,2.3.3,4.6.4,6.9-1,2.9,1.4,4.9,1.9,7.3.9,4.2-1.4,8.8,1.6,12.8,1.3,2,3.5,1.5,5.4,1.8h0c2.4,2.5,4.8,5.1,7.2,7.6v3c-.6,1.3-1.1,2.7-1.7,4-2.1,3.1-2.6,6.2.2,9.2h0c3.2,6.4,9.5,8.7,15.5,11.3h0c.8,1.3,1.6,2.7,2.4,4h0c0,1,.2,2,.2,3.1-1,6.4-1.5,12.9-5.5,18.3h0c-3.3,0-6.6.7-9.2-2.4-3.6-4.2-7.1,0-10.4,1-3.6,1-2.7,5.2-2.2,8,.5,3.1,1.8,6,3,9,0,.4.3.8.4,1.2v4.7h0c-2,6.7-1.5,13.6-1.8,20.5-5,10.2-7.5,21.2-9.4,32.3-1.8,3.7-1.5,7.7-1.3,11.7h0c2.3,7.2,7.3-.5,10.5,2,1.4,4,7,5.4,6.8,10.3-.2,7.3,4.3,11.5,9.5,15.4,1.2,2.6,3,4.7,5.6,6h0v2.5h0c-1.6,3.6-3.4,7.1-4.9,10.7-1.4,3.7-3,6.7-7.7,6.1h0c-1.9-1.9-3.7-.4-5.4.3h0c-6.3,1.7-8,6.4-8.2,12.3-.3,5.8.2,11.4,2.8,16.8.3-.3.6-.5.9-.8-.2.6-.5,1-.9.8-.4,2.8-.5,5.5,1.3,7.9,0,3.9-1.8,8.1,1.9,11.4h0c4.4,2.8,7.9,6.5,10.8,10.9.4,2,.9,4,1.3,6,0,1,.4,2,.7,3-3.2,7.5-7.4,14.6-9.2,22.8h0c-1.8,2.6-3.5,5.1-5.3,7.7-2.1.4-5.4,1-5.3,2.7.8,10.5-7.7,18.3-7.9,28.4.3-.3.6-.3.9,0v.8c-.3-.3-.6-.6-.9-.8h-1.5v12.9c5.9,8.1,15.5,8,23.9,10.7,2.4,1.7,4.8,1.8,7.2,0,5.5,1.1,10.5-.3,15.2-3.1,2.3.8,4.7,2,5.4-1.9h19.2c6,2.7,12.5,3.9,18.9,5.3,1.8.9,3.7,2.1,5.5,0h0c10.4-3.7,20.8,2.2,31.2,0h0c1.1,0,2.1.2,3.2.4h0c7.5,1.2,14.1,8,22.4,3.5,3.9-1,7.4.6,11,1.7,4.9,2.4,9.7,2.1,14.6,0,3.3,0,6.6.3,9.7-1.4,1.8,1.2,3.4.5,5-.5,5.1-.9,10.4,1.6,15.3-1.3h0c5-5.9,8.3-12,1-18.6h0c1-1,2-2.1,1.7-3.7.7-.8,1.5-1.5,2.2-2.3,3.4-.3,6,.8,7.4,4.2-.6,3.2,0,7.2,3.2,7.3,6.3.3,13.1,3.1,19.1-1.4h0c2.1,0,4.3.3,5.7-1.8,7.3-11.1,14.2-5.4,21.1.5,1.6,1.4,3.2,2.8,5.4,3,.4,1.4.8,2.8,2.4,3.4,5.3,4.1,11.2,10.4,16.4,11.1,13.4,1.9,27.4,2.3,40.8-1.6h0c1-.2,2-.3,3-.5,4.8-.6,10,2.8,14.3-1.6,6.4-7.9,15.4-6.9,24-6.8,5.9,10,15.7,10.7,25.8,10.5,3,1.1,6.1,1.3,9.1,0,6,1.4,10.9-.4,14.9-4.9h0c3.6-5.5,9.3-4.1,14.5-4.2,3,.9,6.1,2.4,9.2.2h0c2.4-.4,4.1-1.8,5.5-3.7,5-2.2,8.3-6.1,10.4-11.1h0c2.2-2.6,2.8-6.9,7.4-7,1.5,1.6,3.5,1.8,5.5,1.8,1.5,2.1,3.8,1.4,5.8,1.7,4.1,2.3,10.2.4,12.8,5.1,4.4,8.1,12.2,12.6,18.6,18.6,2.4,2.1,4.9,1.9,7.3,0,8.2,1.9,15.6-4.1,23.8-2.1,1,1.1,1.9,2.3,3.7,2,2.5,2.1,4.9,2.1,7.2-.3h0c5.7-5.3,11.2-4.8,16.6.4,2.5,2.1,4.9,2.1,7.3,0h0c3.9-1.6,7-3.6,5.3-8.7,0-.2-.2-.4-.5-.6h-.6c-.9-2.7-2.3-4.9-4.2-6.7,3.2,2.4,6.2,5.1,10.9,4.5,2.2-.3,4.4-.7,6.6-1h0c2,.6,3.9,1.3,5.9,1.9h0c7.9,3.6,15,8.7,21.3,14.5,4.7,4.3,9.8,5.5,15.6,5.9,0,.4,0,.9.3,1.3h20.2c2.2-4.2,7.2-.2,9.8-3.3h0c1,0,2-.3,3-.4,6.8-.7,11.8-3.5,13.1-10.8,5.1-4.8,9-11.1,16.6-12.8.5.3,1,.2,1.5-.2h0c2.2,0,4.4.3,6.6.4h0c4.1,2.2,8.8,3.1,11.9,7,1.8,5.4,6,8.4,10.8,10.7h0c17.1,6.5,35.1,5.3,52.8,5.7,3.4,0,5.3-2.5,6.9-5.2,3.8-6.4,15.8-12,22-8.4,9.1,5.3,19.1,1.1,28,4.6,5.3,2.8,11,.9,16.5,1.6h0c3,.7,6,1.4,9,2.2.3.2.6.4.9.4.8.3,1.5.7,2.3,1,8.8,4,15-3.2,22.4-5.1,3.2,3.2,7.1,5,11.5,3.8,8.1-2.1,16-4.8,24-7.3,2.4-.5,5.2.2,7.1-2,3,0,5.8,0,8.9-.5,10.9-2.2,21.9-3.6,32.9-5.2,2.4.7,4.8,1.4,7.2,2,1.7,1.6,4.7,1.1,5.8,3.6h0c1.4,2.8-4.9,8,1.6,8.5,7.6.6,14.4,4.7,22,4.3,1.8,1,3.7,1.8,5.5,0,1.2,0,2.4-.2,3.7-.3,6.9.5,13.8.9,20.5-1.4l.5.3.5-.3h0c8.3,3.1,16.6,2.2,24.9,0,1-.2,2-.4,3-.6,5.8-.8,13.4,1,13.2-8.8,1.7-6.7,6.2-10.3,12.1-12.1.8,0,1.7-.2,2.5-.7h10.7c2,1.8,4,3.6,6,5.4h0c5.2,13.6,20.3,10.2,29.5,17,.5.4,2.2-.6,3.2-1.2,10-5.3,11.8-4.7,16.6,5.9,0,.7-.3,1.4-.4,2.2h9.2v-1.8c4.4-1.6,11.6-.4,7.5-9.4-1.7-3.7,2.6-5.5,5.3-7.3,5.1-1.4,10.7,1.9,15.7-1.4,4.7,4.3,9.1,0,13.6-.4,1.7.3,3.2,0,4.3-1.5,6.5-3.9,12.9-6.5,19.6-.3,7.9,10.2,18.3,13.7,27.5,9.3,2.1-.3,3.3-1.5,3.7-3.6,4.5-1.3.4-6.2,3.5-8.1,1.6-.6,3-1.4,3.6-3.1,1.3-1.2,2.5-2.5,3.8-3.7,1.5,0,3.1,0,4.5.3,6.6,1.9,9.9-.7,10-7.7,0-3.6.2-7.2.3-10.7,1.9-3.1,1.8-6.1-.3-9.1-2-3.4-1-8.3-5.3-10.5h-.5.5c-1.7-1-3.4-1.9-5.1-2.9h0c-.6-1.2-1.2-2.4-1.8-3.7v-4.4h0c1.8-3,3.6-6,5.4-9.1,3.4-4.6,9.9-4.1,13.7-8.1,5.3-4.2,1.5-7.5-1.1-10.9h0c0-5-5.8-7.6-5.4-12.7,9.3-5.7,2.9-13,2-19.7h0c4.9-3.7,2.4-10.6,6.1-14.6,6.2-6.6,3.1-11.1-2.8-15.2h0c4.5-5.3,11.8-9.4,9.2-18.3,0-5-.7-10.1,2.4-14.7l-.4.4-.4-.3v-.6c.3.2.5.3.8.5.5.2.9.2,1.4,0v-22h-1.6c-5.8-1.7-11.8-3.1-16.7-7-5-4.4-5-9.7-1.5-14.7,4.7-6.7,3.2-12.1-2.1-17.6-1.7-1.7-3.9-3.6-3.6-6.6h0c5.2-3.8,5.7-10.4,8.8-15.4,10.1-16.5,9.8-18.3-6.7-27-3.6-7,0-10.2,6.3-12.2h0c.9,0,1.8,0,2.7-.2h0c8.4-.2,10.5-5.8,10.7-12.9.2-1,.4-2,.6-3h0c2.5-3.4-.5-8.5,3.4-11.6l-.6.2h-.2ZM1080.9,947.7h.5-.5ZM605.3,52.6h0ZM790.4,63.7v.6c-.2,0-.3-.3-.4-.4h.3v-.2ZM221.9,917.3c.2,0,.4.2.6.3-.1,0-.3.2-.4.3,0-.2-.2-.4-.2-.6h0ZM345.4,943h-.2c-.2,0-.4,0-.6-.2.2,0,.5-.3.7-.4.2,0,1.3.4.1.5h0ZM127.3,882.4h0ZM799.4,107.7h-.3.3ZM60.7,270.1c-.5-.3-.9-.5-1.3-.7.2-.2.4-.4.6-.5.2.4.5.8.7,1.3h0ZM797.1,107.7c.4.2.7.3,1.1.3-.5,0-.9,0-1.3-.3h.2ZM1169.1,96.8v.2h0v-.2ZM1189.5,108.1h0ZM722.5,879.5c-.3-.3-.5-.6-.7-1,.2,0,.3,0,.5-.2h.2v1.3h0ZM189.5,121.9h0ZM1096.2,819.8h0c.2,0,.3-.2.5-.3,0,0-.3.3-.4.4h0ZM112.4,637.2c0-1.4.7-1.3,1.4-.9-.5.2-1,.5-1.4.9ZM935,209s.2,0,.2.1h0c0,.1,0,0-.2-.2h0ZM1055.6,203.4c0-.1-.2-.2-.3-.4h.2v.5h.1ZM793.3,713.9h.2-.2ZM349.8,218.9h0c0-.1.1-.3.2-.4,0,.2,0,.3-.1.5h-.1ZM1196.5,385.2h0q0-.1.2-.1h0c0,.1-.2.1-.2.1ZM694.5,638.7h0ZM306.2,355.4c2.8-.5,5.4-3.4,6.1,2v.2c-1.7.2-4.2.7-8,1.5-1-1.5-2.3-3.1,1.9-3.7ZM370.3,642h-.2v-.2s.1.2.2.2ZM179.1,330.4c.1,0,.3-.1.4-.2,0,.1-.1.2-.2.4,0,0-.1-.1-.2-.2h0ZM581.3,297.9h.2c0-.1,0,0-.2.1h0ZM605.9,337.4c.2.4,0,.8-.2,1.2-.2-.5-.4-1-.6-1.5.2.1.5.2.7.3h0ZM651.7,345.6c.4,1.1.5,1.8.2,2.2-.2-.7-.2-1.4-.2-2.2ZM561.8,381.1c.6.7,0,.9-.8,1.2h0c.3-.4.6-.8.8-1.1h0ZM1032.9,386.4h0ZM211.7,403.5c0,.6-.3,1-.6,1.4.2-.5.4-.9.6-1.4ZM665.3,409.8h0ZM200,570.4h.1-.1ZM804.9,578.1c-.2-.3-.3-.5-.5-.8h.4v.9h0ZM551.9,540.9c-.6-.8-1-1.8-.6-3.1.3-.2.6-.4.8-.5,0,1.5-.2,2.6-.2,3.5h0ZM407.1,431.5h0c-.2.1-.4.1-.6,0,.2-.1.4-.1.6,0h0ZM377.7,491.4c-.5-.3-.9-.6-1.2-.9.3.1.7.4,1.2.9ZM339.3,504.7c-.5-.1-1-.2-1.4-.4.4-.2.8-.1,1.4.3h0ZM853.9,468.6h0q0,0,0,0h0ZM802.7,494.1h0ZM824.7,444.7h0s0-.2.2-.3v.4h-.2ZM790,469.9h0c0-.2,0-.3.2-.4,0,.1,0,.3-.2.4ZM785.1,467.6c0-1.2,0-2.2-.2-3.1.6.7,1.3,1.5,1.9,2.3-.2.6-.9.7-1.7.8h0ZM802.7,494.1h0ZM789.3,441.7c.5,1.3.9,2.7.7,4.4-1.2-1.1-2.3-2.2-3.4-3.2.7-.3,1.6-.7,2.6-1.2h.1ZM756.8,457.5h0ZM590.6,441.8v.8h-.2v-.8h.2ZM611.6,499.8v-.2h0v.3h0ZM710.5,523.1v-.3c.5,0,.3.2,0,.3ZM728.1,483.1c-.2-.1-.3-.3-.5-.5h.4v.5h0ZM588.3,512.2h0ZM821.2,507.1c.3-.3.7-.6,1.4-.8v1.4c-.4-.2-.9-.4-1.4-.6ZM1125,520.2h0ZM993.1,479.7h0ZM974.9,455.9h0c0,.1,0,0,0,0ZM971.1,543.3v.5h0c-.2,0-.4-.2-.5-.4h.5ZM599.6,429.6v.2h0s0-.1.2-.2h-.2ZM502.4,407.5v.3c-.1,0-.2-.1-.3-.2h.3ZM626.8,563.6h0ZM1024.8,545.3h.4-.4ZM233.5,537.4s.1-.2.2-.3c.1.4.1.8.1,1.2,0-.3-.2-.6-.3-.9ZM207.4,427.7h0ZM236.8,552.2v-.6c.2,0,.4.2.6.3-.2,0-.4.2-.6.3ZM808.2,565v.3s-.2-.2-.4-.3h.4ZM840.3,395.2c-.2-.4-.5-.7-.7-1.1.3,0,.6.1.9.1,0,.3,0,.6-.2,1ZM344.7,548.5h0v.2c-.1,0-.1-.3-.1-.3h.1ZM769.5,582.2c0,.2-.2.4-.3.6v-.7h.4-.1ZM840.6,499.1c.3.2.5.4.8.6-.4,0-.8,0-1.3.1.2-.3.3-.5.5-.7ZM721.8,362.1c-.6-.2-1-.5-1.4-.8.4.2.9.4,1.5.8h0ZM598.7,401.2v.8c-.2-.2-.4-.4-.6-.6.2,0,.4-.2.5-.3h0ZM200,570.3h0ZM892.4,523.6c0,.2,0,.4.2.6-.2,0-.4,0-.7-.2,0-.2.3-.3.5-.4h0ZM1095.7,522h0ZM584.6,578.5s0-.2-.2-.2h.2v.4h0v-.2ZM678,578.3h.2-.2v-.2h0v.2ZM844.9,577.7v-.6c.3.2.6.5.9.7h-1,0ZM1116,362.8v-.2c-.2.2-.3.3-.4.5,0-.2.2-.4.3-.6h0q0,.1.2.1h0v.2h0ZM993.2,392.5h-1.1c.3-.2.5-.5.7-.7,0,.2.2.4.4.7h0ZM391.6,609.7c0-.2.1-.4.2-.5,0,.2-.1.4-.2.6h0ZM399.6,559.7c.4-.5.7-1,.9-1.4.9.7,0,1.1-.8,1.5h-.1ZM670.6,578.5v-.3h.2l-.2.2h0ZM846,594h0v.3-.3h0ZM577.5,347.1v.5c0-.2,0-.3-.2-.5h.2ZM1000.6,371.6h-.3.3ZM817.1,303v.2c0-.2,0-.3-.2-.5,0,.1,0,.2.2.4h0ZM797,324.2s.2-.1.3-.2c-.2.2-.4.4-.7.6,0-.1.2-.2.4-.4ZM694.6,391.4h0c0,0,0,.1,0,.1h-.2.3,0ZM603.2,356.6v-.2h0v.2ZM458.5,329h0ZM241.7,404.4v.2h0v-.2ZM227.5,657.7c0,.2,0,.5-.1.7-.2,0-.4-.2-.6-.3.2-.2.5-.3.8-.4h0ZM558.8,609.1h.2-.3v-.2h0v.2ZM1104.6,607.6c.2.6.3,1.2.3,1.7-.2-.5-.3-1.1-.3-1.7ZM1125.2,289.4h0ZM1024.5,320.4v-.4h.4s-.3.2-.4.3h0ZM912.7,335.2h0ZM722.3,307.2h-.2.2ZM298.5,385.4v.2c-.7,0-1.4,0-2-.2.5-.3,1.3-.2,2.1,0h-.1ZM162.4,314.5c-.3-.4-.6-.8-.9-1.2.6.3,1.2.6,1.8.8-.3,0-.6.2-.9.3h0ZM155.2,512.1s-.2.3-.2.4h-.8c.4,0,.7-.2,1-.3h0ZM188.9,661.7v.3s-.2,0-.2-.2h.2ZM419.7,647.6h0v.2h0v-.2ZM496.7,554.3s.1,0,.2.2h-.2v-.2ZM708.7,632.3c.4.5.8,1.1,1.2,1.6l-.3-.3c-.3-.4-.6-.8-.9-1.2h0ZM710.7,634.8l-.6-.6.6.6ZM1050.8,317.3h-.7v-.6c.2.1.5.3.7.5h0ZM750.9,304.3h0ZM723.4,276.2c.2.3.3.6.4.9-.3-.2-.5-.3-.8-.5,0-.1.2-.3.4-.4h0ZM519.6,348.4c.3,0,.6,0,.8.1v.4c-.3-.2-.6-.4-.9-.5h.1ZM453.1,312.9v-.4c.2,0,.4.1.5.2-.1,0-.3.1-.5.2h0ZM163.4,540.2h0c0,.3-.2.5-.3.8h0c.1-.3.2-.6.3-.9h0ZM476.7,598.2h0v.3-.3ZM663.9,343.8s-.2-.2-.4-.2c0,0,0-.1.2-.2,0,.1,0,.3.2.4h0ZM365.1,275.8h-.1.1ZM240.6,321.5h0ZM144.9,343.6c-.1-.2-.2-.4-.4-.6h1.1c-.2.2-.5.3-.8.5h0ZM150.7,476.6v.4c-.4-.4-.7-.8-1-1.2.4.3.7.5,1.1.8h-.1ZM489.3,567h0s.1.2.2.3v-.2h-.2ZM1076.2,315.5s0,.2.2.3h0v-.3h-.2ZM910.6,277.2h0c-.2.6-.4,1.1-.7,1.4.2-.5.3-1,.5-1.5h.2ZM513.3,312.4h.2c0-.1,0,.1,0,.1h-.2ZM152.1,307.3v-.3h.2v.3h-.2ZM919.9,718.4s-.2.3-.3.4c0-.2,0-.5-.2-.7.2,0,.3.2.5.3ZM1210.8,721.7h-.3s0-.2.2-.3c0,0,0,.2.2.3h0ZM1064.7,329.6h0ZM1031.7,242.5c-.3-.3-.7-.6-.9-1,.2,0,.3,0,.5.1.2.3.3.6.4.9ZM269.3,669.4h.2-.2ZM354.2,674c.3.3.6.6.8.9-.2,0-.4,0-.7.2,0-.4-.1-.7-.2-1.1h.1ZM760.5,661.7v-.4s0,.2.2.3h-.2ZM1172.6,703.9c1.5-.5,2.8.4,3.8,1.4-1.4-.3-3-.7-4.8-1.2.3,0,.6-.2,1-.3h0ZM1195.6,554.2v-.2h.2v.2h-.2ZM1114.5,219.2c0,.2-.2.4-.2.6-.3-.4-.6-.9-.9-1.3.4.1.8.4,1.2.8h0ZM936.6,278.2h0s0-.2-.2-.2h.2v.3h0ZM307.9,729.7v.2h0s-.2,0-.3-.2h.3ZM470.9,691.6h0ZM590.1,687.6v.5h0c-.3-.2-.6-.3-.9-.5h.9ZM1119,703.7v-.2h0v.2ZM1212.7,716.2c-.3,0-.5-.2-.8-.3h.8v.4h0ZM965.9,256.2v-.2c.3-.4.6-.8.9-1-.3.4-.6.8-.9,1.2h0ZM697.8,243.7c-.2.3-.4.6-.6.8h0c.2-.3.4-.6.7-.8h-.1ZM634.5,294.3v.2h0q0-.1.2-.2h-.2ZM498.6,274.4h.2c0,.3-.1.6-.1.9-.2-.2-.2-.5,0-.8h-.1ZM1220.4,666.8h0ZM122,385.5h-.3.3ZM706.7,697.8s0,.2.2.3h-.2v-.3ZM946,734.5h.5-.5ZM980.1,757.9v.2h-.2.2v-.2ZM1035,750.8h0ZM1075.3,738h0ZM1202,472.8v-.2h.3s-.2,0-.2.1h-.1ZM1108.8,228.6v.3h-.7c.2,0,.5-.2.7-.3ZM627.5,217.5h0c0,.1,0,0,0,0h0ZM954.4,739.7h0ZM1044.1,754.5s0,.2-.2.2v1.6c-.2-.6-.2-1.3,0-2h.2q0,0,0,.1h0ZM1229.8,290.4c0-.4.2-.7.4-.8h0v.6s-.2.1-.3.2h0ZM1057,238.6h0c.2-.3.4-.4.6-.6h0c-.2.2-.4.4-.6.6ZM299.9,294.8c-.2.5-.4,1.1-.7,1.6-.1-.4-.2-.7-.4-1,0,0,.2,0,.3-.1.3-.2.5-.3.8-.5h0ZM133,745h0c.2.4.5.8.8,1.2-.4-.2-.6-.7-.8-1.2ZM188.7,790s.1,0,.2.2h0v-.2h-.2ZM450.7,775.8h0ZM593.6,763.1h0ZM855.4,746.9h0ZM1046.6,185.9v-1s0,.1.2.2c0,.3,0,.6-.2.8ZM775.5,213.9h0ZM500.5,236c1-.8,1.7-1.2,2.2-1.2-.6.5-1.4.9-2.2,1.2ZM327.4,179.8c-.1-.2-.2-.5-.3-.7h.3v.8h0ZM108.6,425.7h-1.4,1.4ZM103.5,479.9c-.3-.1-.6-.3-.9-.5,0-.3.2-.5.4-.7.2.4.3.8.5,1.2ZM215.2,749.2c0-.3.2-.6.3-.9.2.4.4.7.6,1h-.9ZM489.2,722.9h.1-.2.1ZM561.8,763.6v-1.7c.5.5.9,1,1.3,1.6-.4,0-.7.3-1.1.5-.2,0-.2-.3,0-.4h-.2ZM1066.3,781.2h0ZM1171.2,165.3v-.4s.2.1.3.2c0,0-.2.2-.3.2ZM1171.1,164.9h0ZM700.9,154.9c0-.2-.2-.3-.4-.5.2,0,.4-.2.6-.3,0,.2-.2.5-.3.7h.1ZM365.4,149.4h0ZM336.5,149.3h0c0,.1,0,0,0,0ZM90.3,379.8h0c0,.1,0,0,0,0ZM745.3,792.9v-.5h.5c0,.2-.3.3-.4.5h0ZM958,792.1h.4c0,.2-.3.4-.4.7v-.7ZM1251.2,712.5h0v-.2h0v.2ZM1109,124.6l.2.2-.2-.2h0ZM616.1,200.3v.6s-.2-.1-.4-.2c0-.2.2-.3.3-.4h.1ZM401,148.4v-.2h.4c-.1,0-.2.1-.3.2h-.1ZM296.3,215.6h0v-.4.4ZM207.6,798.7c.3-.3.5-.5.8-.6-.2.2-.4.4-.6.6h-.2ZM780.4,801.8h0ZM795,787.2h0ZM1253.2,696.1h0c.5,0,1,0,1.3.3-.4,0-.9,0-1.4-.2h0ZM508.1,144h-.1.1ZM204.1,185.9v-.6s.1,0,.2.1c0,.2-.1.3-.2.5ZM100.2,551.1v.5c0-.2-.2-.3-.3-.5h.3ZM104.6,658.2h0ZM460.1,811.1c.2.2.4.3.6.4-.2,0-.4.2-.5.3v-.7h-.1ZM1047.7,846h0v.2-.2h0ZM1256.6,751h-.3s0-.2.2-.3v.3h.1ZM1252.8,735.3v-.7c.3,0,.6,0,.9.3-.3.2-.7.3-1.1.4h.2ZM1231.9,146.4h0c0,.1-.3.3-.4.4h0c0-.1.2-.3.3-.4h0ZM569.8,792.5h0ZM677.8,807.2h0ZM954.8,809.1h0ZM1234.9,498.3h.3v.3s0-.2-.2-.3h-.1ZM88.1,747.9h0ZM730.3,845.1h0ZM822.4,873.3h-.3.3ZM813.3,811.1h0s0,0,0,0ZM974.5,824c.4.4.8.8,1.1,1.3-.4,0-.7,0-1.1-.3v-1ZM1051.4,840.5h.2-.2v-.2h0v.2ZM1156.7,848.5s.3-.3.6-.4c-.2,0-.4.3-.6.4ZM1229,827.4h1c0,.2-.2.4-.3.6-.2-.2-.4-.5-.7-.7h0ZM1260.3,719.8h-.3s.2-.2.3-.3v.3ZM1248.1,122.5v.3s-.2-.3-.3-.4h.3ZM853.9,128.6h.2v.3-.2h-.2ZM94.2,119.8h-.3s.2,0,.3-.2v.3h0ZM344.4,848.9h0ZM996.4,880.8h0ZM1152.1,853.4h0c.2-1.2.9.8,0,0h-.2v-.2h0l.2.2ZM1276.7,817h0ZM1284,780.6c0-.4-.2-.7-.3-1.1,1.1,0,1.9.3,2.4.8-.8,0-1.5.2-2.1.3ZM334.9,97.6c-.4-.2-.9-.4-1.2-.6,0-.2.1-.3.2-.5.3.3.7.7,1.1,1h-.1ZM229.7,124.6s.1-.2.2-.3v.3h-.3.1ZM210.8,87.8h-.3c.1,0,.3-.2.4-.3v.3h0ZM171.2,142.9c-1.3-.3-2.2-.9-2.7-1.6.9.2,2,.2,3.5.1,0,.5-.3,1-.8,1.5ZM93.1,645.2c-.2,0-.4.2-.5.3,0-.6,0-1.2-.2-1.8.3.4.6.9.7,1.5ZM91.5,676.9h0ZM78.9,804.7h.2l-.2.2v-.2ZM309.6,861.7h-.2.5l-.2.4v-.3h0ZM473.8,815.4c.4.3.7.5,1.1.8-.1.2-.2.3-.3.5-.2-.4-.5-.8-.8-1.2h0ZM940.4,893.9h.3-.4.1ZM1113.5,833.2c-.3-.4-.6-.7-1-1.1.6,0,1.1.2,1.6.3-.2.3-.4.5-.7.8h0ZM1273,857.3h0ZM99.2,641.6v.2h.2l-.2-.2ZM269,862.5c0,.7,0,1.2.3,1.6-.3,0-.7-.2-1.1-.4.3-.4.6-.8.8-1.2h0ZM267.3,863c.2.2.3.4.5.5h-.3s0-.3-.1-.4h-.1ZM326.3,864h-.2v-.4s.1.3.2.4ZM471.4,842.5c.1.2.2.4.1.6,0-.2-.1-.4-.1-.6ZM1272.7,154c.3.2.7.5,1,.7,0,.2,0,.3-.2.5-.2-.4-.5-.8-.7-1.2h-.1ZM1211.8,85c-.8-.6-1.2-1.3-1.6-2,.8.4,1.9.8,3.2,1.3-.3.3-.9.6-1.7.8h0ZM1099,66.5c0-.2,0-.3-.2-.5-.2-.8-.2-1.3,0-1.7.2.7.2,1.4,0,2.2h.2ZM951.5,63.7v.2h0v-.2ZM592.5,100.3h0c.2.3.4.6.5.9,0-.3-.3-.6-.4-.8h0ZM469.3,106.2h0ZM112.7,893.9c0-.2,0-.3.2-.4h0c0,.2-.2.3-.2.4h0ZM186.9,878.1h.4-.4v-.2h0v.2ZM432.3,894.9h0ZM629,896.8h.2-.2ZM1297.5,211c0-.5-.2-1.1-.3-1.7,0,.7.3,1.2.5,1.7h-.2ZM1142,88.5h0ZM1139.9,75.2v-.4h.7c-.2.2-.4.3-.6.5h0ZM592.6,99.2c0,.3,0,.7-.2,1-.3,0-.6-.2-.9-.3.4-.3.8-.5,1.1-.6h0ZM517.4,63.5v-.2h0v.2ZM265,119.5h0ZM139.1,67.2h0ZM106.1,82v-.8c.2,0,.3,0,.5.2-.2.2-.3.4-.5.6ZM56.5,815.9c-.7-.2-1.1-1.1-1.5-2,.6.6,1.1,1.3,1.5,2ZM113.6,894.6h0ZM650.9,914.3c0,.3.3.6.4.8-.2,0-.4,0-.6.2,0-.3,0-.7.2-1.1h0ZM1298.8,657.7h0ZM1059.1,71.6h0s-.3,0-.4.2h.4v-.2ZM1026.6,47.5h0ZM1021.1,47.5h0s0,.2-.2.2c0,0-.2-.2-.4-.2h.6ZM990.6,72.1c0-.3-.2-.5-.3-.8h.4v.8h-.1ZM964.3,49.3h-.3.3ZM567.9,69.3h0s.2-.3.4-.4c0,.2-.3.3-.4.5h0ZM303.3,68.9c-.3-.2-.5-.4-.8-.6.1,0,.2,0,.3-.2.1.3.3.5.4.8,0,0,.1,0,.1,0ZM720,899.3c0-.2,0-.4-.2-.6h.2v.5h0ZM1106.3,893.5v.7c0-.2-.2-.4-.3-.6h.3ZM1159.7,920.7c0,.2,0,.4.2.6h-.5c0-.2.2-.3.3-.5h0ZM1282.4,621h0c0,0,0,0,0,0ZM1315,492.2h0ZM1314.3,482.4c0-1.2-.4-2.4-.8-3.7.5,1.3.7,2.5.9,3.6h0c0,.1,0,.1,0,.1ZM1283.3,185.9c0-.1.2-.3.2-.4,0,.1-.2.2-.2.4ZM923.7,63.3c0-.4,0-.8-.2-1.2h.6c0,.4-.3.8-.5,1.2h.1ZM277.4,101.7h-.3v-.6c.1.2.2.4.3.6ZM41,216.8h0c-.2.2-.5.3-.7.3.2,0,.4-.2.7-.3ZM1324.4,734.6h0v-.2.2h0ZM1315.1,730.6v-.2h0v.2ZM1315.5,492.4h0c0,.1,0,0,0,0ZM1140.7,54.5c0-.2-.2-.4-.3-.6h.3v.6ZM1019.2,47.5h0c-.3,0-.6,0-.9-.2.3,0,.6,0,.9.2ZM57.7,59.2l.3.3-.3-.3ZM34.5,379.5v.4c-.3-.2-.5-.3-.8-.5h.6c.6,0,0,.2,0,.1h.2ZM337.1,944.2h.8s-.2.3-.3.5c-.2,0-.4-.3-.6-.4h.1ZM391.6,928.5h.2-.2ZM413.9,933.3h.2-.2ZM633.7,924.3v.2l-.2-.2h.2ZM1328,756.6h0l.2.2h-.2v-.3h0ZM1322.6,64h0ZM850.2,26.4h0c.3-.1.5.1.8.2-.3-.1-.5-.2-.8-.2ZM535.2,26.6h.6c.5.6-.2.3-.5,0h0ZM49.8,651.7c.6-.3,1.2-.6,1.7-.9-.5.5-1.1.8-1.7.9ZM149.8,943.5h0c.2,0,.4.3.5.5-.2-.2-.4-.3-.6-.5h.1ZM198,947.3h.5-.5ZM884.1,942.9v-.2s.2,0,.3.2h-.3ZM933.6,939.7h2.2c-.8.4-1.6.3-2.2,0ZM1080.8,948.3h.3c.2.5,0,.3-.3,0ZM1213.1,935.7h0Z"/>
    <polygon class="cls-4" points="799.4 107.7 799.4 107.7 799.4 107.7 799.4 107.7 799.4 107.7"/>
    <polygon class="cls-4" points="1116 362.6 1116 362.6 1116 362.6 1116 362.6 1116 362.6"/>
  </g>
  <g class="cls-9">
    <g class="cls-9">
      <text class="cls-11" transform="translate(121.9 176.7)"><tspan x="0" y="0">Bety</tspan></text>
    </g>
    <g class="cls-9">
      <text class="cls-10" transform="translate(326 176.7)"><tspan x="0" y="0" xml:space="preserve">   </tspan></text>
    </g>
    <g class="cls-9">
      <text class="cls-12" transform="translate(407.1 176.7)"><tspan x="0" y="0">La Ballena</tspan></text>
    </g>
    <g class="cls-9">
      <text class="cls-13" transform="translate(121.9 324.3)"><tspan x="0" y="0">Querido usuario, hago esta carta para</tspan></text>
    </g>
    <g class="cls-9">
      <text class="cls-13" transform="translate(121.9 398.1)"><tspan x="0" y="0">pedir un pequeño favor.</tspan></text>
    </g>
    <g class="cls-9">
      <text class="cls-13" transform="translate(121.9 545.7)"><tspan x="0" y="0">Déjame pasar por tu pantalla, llego en 5s</tspan></text>
    </g>
    <g class="cls-9">
      <text class="cls-13" transform="translate(121.9 619.5)"><tspan x="0" y="0">¡Quedo atenta!</tspan></text>
    </g>
  </g>
  <path class="cls-3" d="M401,100.7c-16.7,42-36.6,82.8-59.5,121.8,16.7-42.1,36.6-82.8,59.5-121.8h0Z"/>
  <path class="cls-2" d="M1160.5,192.9c5.7-16.7,15.6-29.6,26.9-41.3,17.2-17.6,32.5-36.6,44.6-58.1,5.1-9,12-16.3,21.5-21,26.3-13,54.8,3.1,56.4,32.2.6,10.3-2.6,19.7-8.3,28.2-11.7,17.2-28,23.3-48.7,18.3-7-1.7-13.9-3.6-20.9-5-17.7-3.7-31.4,2.7-41.6,17.3-8.7,12.5-13.3,26.8-17.7,41.7,1.9,0,3.5.1,5-.2,7.8-1.7,15.6-3.3,23.2-5.3,9.2-2.4,18.2-5.5,27.8-5.2,3.8.1,7.7.5,11.4,1.4,10.7,2.8,17.6,9.6,19.9,20.5,2.7,13.1.6,25.7-5.9,37.4-5.1,9.1-13.3,13.5-23.6,14.2-11.1.8-21-3.2-30.6-8s-9.2-4.7-14-6.3c-8.4-2.9-13.2,0-13.8,8.7-.5,8,0,16.1.7,24.1,1.5,14.1,5.1,27.7,11.1,40.7,4.7,10.3,11.7,13.3,22.1,8.8,5.8-2.5,11.3-5.7,16.6-9.2,10.9-7.1,22.4-12.4,35.7-12.6,11-.2,21.4,1.8,30,9,11.3,9.5,15.5,22,12.8,36.3-2.5,13.4-11.5,21.4-24.4,24.9-12.4,3.4-24.5,1.5-36.7-1.8-9.3-2.6-18.7-5.1-28.2-6.7-7.7-1.4-10.9,1.8-11.6,9.7-2,23-4.2,46-5.9,69-.5,7.3,0,14.7.5,22,.5,6.6,4.2,9.2,10.6,7.3,9.5-2.7,18.8-5.9,28.3-8.8,10.3-3.1,20.7-5.5,31.5-4.8,9.8.6,18.9,3.4,26,10.5,16,15.9,11.9,40.1-8.6,50.9-10.6,5.6-21.7,6-33,3.3-9.6-2.3-19-5.6-28.5-8.1-4.6-1.2-9.2-2.2-13.9-2.8-11.2-1.4-20.9,2-29.2,9.6-8.6,7.9-14.9,17.5-21,27.2-24.5,39.4-142.2,262.9-150.6,308.5-1.7,9.2-1.1,18.7-2.3,28-.6,5.1-2.2,10.2-4.3,15-1.2,2.7-3.9,5.2-6.5,6.9-6.2,4-13.2,1.2-14.4-6-.9-5.2-.7-10.9.4-16.1,7.8-37.4,20.4-73.2,36.9-107.6,8.3-17.4,119.2-215.2,128-232.3,3.5-6.7,6.3-13.7,9.1-20.7,1.1-2.7,2.2-5.9-.2-8.3-2.4-2.4-5.6-.8-8.3,0-2.9,1-5.6,2.3-8.4,3.5-12.3,5.3-25,6.8-38.1,3.7-21.8-5.1-32.7-22.7-26.7-45.6,4.2-15.9,15.5-25.4,30.6-30.5,16.2-5.5,31.9-4.1,46.8,4.8,5.8,3.5,12.1,6.5,18.6,8.5,9.6,3.1,16.3-.8,19.4-10.5,1.1-3.5,1.9-7.3,2.1-10.9.8-16.6,1.5-33.3-.9-49.8-1-6.8-3.3-13.5-5.2-20.1-.8-2.8-3-3.5-5.4-1.6-3.4,2.8-6.4,6.1-9.5,9.2-12.2,12.5-25.6,23.4-42.5,29.1-11.8,4-23.7,5-35.5,0-22.8-9.7-30.8-34.9-17.6-55.9,11.3-17.9,28-26.7,48.9-27,9.3-.1,18.6,1.4,28,2.2,4.3.4,8.6,1,12.9,1s6.8-2.2,6.8-7-.5-6.8-.9-10.2c-1.7-14.2-3.3-28.4-5.4-42.6-1.3-8.7-2.7-17.6-5.4-26-4-12.5-11.9-17.7-25-16.8-8.5.6-16.9,2.3-25.3,4.1-12.6,2.6-24.9,2.5-36.9-2.3-13-5.3-22.5-13.8-24.1-28.7-.8-7.7.2-15.1,3-22.3,7.1-18.3,19.9-30.9,38.8-36.6,16.9-5.1,31.8-1.3,43.9,11.6,6.1,6.5,11.6,13.6,17.6,20.4,3.2,3.7,6.8,7,10.7,11h.4,0Z"/>
  <path class="cls-6" d="M1187.3,728.9c-1.7-5.3-4.5-10.2-7.6-14.9-1.8-5-3.9-9.7-6.3-14.3-7.2-13.8-16.8-25.9-28.2-35.8-2.4-2.1-5-3.8-8.8-4.5-24.2,3.7-35.8-16.5-47-35.1-4.4-7.8-16-.8-22.4,5.5-3.1,3.3-6.3,3.9-9.6,4.1-6.5.4-13.2,1.3-19.8,2.8-3.1.7-6.1,1.5-9.1,2.4s-5.9,1.9-8.8,3.1c-3.5,4.8-5.5,11.4-10.5,12.5-24.9,6.5-52.4,17.1-54.1,46.3-1.3,2.6-2.6,5.3-3.7,8-3.4,8.2-6,16.7-7.6,25.5-.3,3.1-.6,6.2,0,9.1,9.6,18.5-.2,37.4,1.4,56.4,1,12.1,9.3,21.7,19.1,27.7,2.2,2.5,4.3,5,6.3,7.4,20.4,24.2,49.7,40,81.7,43.2,3.2.3,6.6.2,10.8-1.6,16.8-9.5,34.5-1.2,52.2-.8,7.1.2,11.4-7.8,12.6-14.7,2.7-1.7,5.4-3.4,8-5.3,14.6-10.4,26.6-23.9,35.3-39.3,2.9-5.1,5.4-10.5,7.6-16,.7-18.4,6.3-36.4,10.3-53.7.8-6,.2-12.2-1.8-18.3v.3h0Z"/>
  <circle class="cls-7" cx="1064.4" cy="756.4" r="105.2" transform="translate(-223.1 974.2) rotate(-45)"/>
  <g>
    <path class="cls-6" d="M1054.5,811.1c-.9-3.4-.9-6.9,0-10.8.6-2.9.4-6.9-4.6-9.6-13.8-7.3-23.7-18.7-30.3-34.9-1.1-2.7-1.8-5.7-2.5-8.9-.2-1-.4-1.9-.6-2.9-1.2-5-4.5-6.5-7.1-6.8-5.9-.9-9.5-3.7-11.3-8.8l-2.1-9.2h.3c1.1,0,2.2-.2,3.3-.2,5.1,0,9.6,1.6,13.7,4.9,1,.8,2.5,1.8,4.6,1.8s4.5-1.4,5.9-4.3c2.8-5.7,7.2-9.4,13.3-11.4.3,0,.6-.2.8-.2v.5c.2,1,.5,2,.7,3,.7,2.9,1.4,5.3,1,7.7-.6,4.4-2.5,7.7-5.7,10.2-1.1.8-3.5,2.7-3.5,5.9s2.6,5.1,3.5,5.8c2.7,2,5.7,3,9.1,3s2.9-.2,4.5-.5c10.6-2.4,21.3-4.8,32-7.2l9-2c1.7-.4,3.3-.8,5-1.1,3.6-.8,7.4-1.7,11.1-2.4,1.4-.3,2.7-.4,3.9-.4,3.6,0,6.7,1.1,9.6,3.5,1,.8,1.5,2,2.4,4,0,.2.2.4.3.6l.5,2.1c0,1.8.3,3.6,1.2,5.2l.2.7c1.1,9.1-.6,17.8-5.3,26-6.6,11.7-15.6,18.9-27.6,21.9-3.6.9-7.5,1.8-11.4,1.8s-.5,0-.8,0h-.3c-2.8,0-5.2,1.2-6.7,3.2-3.5,4.7-7.8,7.6-13.4,9.1l-2.6.6h-.2,0Z"/>
    <path class="cls-6" d="M1034.4,716.5c.4,1.6.6,2.9.5,3.9-.4,3.1-1.6,5.3-3.9,7-1.3,1-5.4,4.2-5.4,9.8s1.8,7,5.4,9.7c3.5,2.7,7.6,4,12.1,4s3.6-.2,5.6-.7c10.6-2.4,21.3-4.8,31.7-7.2l9.2-2.1c1.7-.4,3.4-.8,5-1.2,3.8-.9,7.3-1.7,10.9-2.4,1-.2,2-.3,3-.3,2.5,0,4.5.7,6.4,2.3.3.3.7,1.4,1.1,2.2v.2l.3,1.1c0,2.2.5,4.3,1.4,6.3.9,7.9-.7,15.6-4.7,22.7-5.9,10.5-13.9,16.9-24.6,19.6-3.3.9-6.9,1.6-10.2,1.6s-.4,0-.7,0h-.5c-4.4,0-8.1,1.9-10.6,5.2-2.1,2.9-4.7,5-7.8,6.3,0-1.1.2-2.3.5-3.5,1.4-6.3-1.3-11.8-7.1-14.9-12.7-6.7-21.9-17.4-28.1-32.5-1-2.4-1.6-5.1-2.2-8.1s-.4-2-.7-2.9c-1.9-8.3-8.4-10.2-11.1-10.6-4.6-.7-6.3-2.6-7.3-5.3l-.7-3.1c3,.4,5.6,1.6,8.1,3.6.9.7,3.6,2.9,7.6,2.9s7.3-.9,10.3-7c1.5-3.1,3.6-5.5,6.4-7.1M1038.1,704.9c-.8,0-1.7.2-2.6.5-7.4,2.4-12.8,7-16.2,13.9-.5,1-.9,1.5-1.5,1.5s-.9-.3-1.6-.8c-5-4-10.6-5.9-16.7-5.9s-2.6,0-3.9.2c-3.3.4-4.2,1.1-4.8,4.4.8,3.7,1.7,7.3,2.5,11,2.5,7.3,7.8,11.1,15.3,12.2,1.9.3,2.6,1.4,3,3.1,1,4.2,1.7,8.4,3.3,12.5,6.6,16.2,16.9,29.1,32.6,37.4,1.8,1,2.6,2.1,2.1,4.2-1,4.4-1,8.9.2,13.4.6,2.1,1.5,3.6,3.9,3.6h0c1.5-.3,2.9-.7,4.4-1,6.7-1.7,12-5.4,16.1-10.9.7-.9,1.7-1.3,2.8-1.3h1.2c4.3,0,8.5-.9,12.6-2,13.8-3.5,23.8-12.1,30.7-24.3,5.1-9,7.2-18.8,5.8-29.2,0-.6-.2-1.1-.4-1.7-.7-1.2-1-2.5-.9-3.9-.2-1.1-.5-2.2-.7-3.3-1.1-2.5-2-5-4.2-6.8-3.9-3.2-8.1-4.6-12.7-4.6s-3.2.2-4.8.5c-5.4,1.1-10.8,2.4-16.2,3.6-13.7,3.1-27.3,6.1-41,9.2-1.2.3-2.3.4-3.4.4-2.2,0-4.3-.6-6.2-2.1-2.1-1.6-2.1-2.4,0-4,4.4-3.4,6.8-7.9,7.6-13.4.6-4.4-1-8.4-1.9-12.5-.6-3-2.2-4.4-4.5-4.4h0v.5h0Z"/>
  </g>
  <g>
    <path class="cls-1" d="M1127.1,746c-1.4-1-1.3-2.4-.9-3.9l.9,3.9Z"/>
    <path class="cls-1" d="M1126.2,742.1c-.4,1.4-.5,2.8.9,3.9-.3-1.3-.6-2.6-.9-3.9h0Z"/>
  </g>
  <path class="cls-5" d="M1079,794.9c1.6-4.7,2.4-9.4,1.7-14.2,0-1,.6-1.2,1.3-1.5,8.5-2.6,14-8.3,17.3-16.5,3.4-8.5,10.4-12.5,18.9-14.4,2.6-.6,1.7,1.5,1.7,2.5.4,9.2-2.1,17.6-7.2,25.2-7.5,11.1-18,17.2-31.2,18.8h-2.5Z"/>
  <path class="cls-5" d="M1085.4,748.1c1.9-.4,4.1,1,4.5,2.9s-1,4.1-2.9,4.5-4.1-1-4.5-2.9,1-4.1,2.9-4.5Z"/>
  <g class="cls-9">
    <g class="cls-9">
      <text class="cls-8" transform="translate(520.7 805)"><tspan x="0" y="0">Cerrar</tspan></text>
    </g>
  </g>
</svg>