<?xml version="1.0" encoding="UTF-8"?>
<svg id="Capa_1" data-name="Capa 1" xmlns="http://www.w3.org/2000/svg" version="1.1" viewBox="0 0 1352 977">
  <defs>
    <style>
      .cls-1 {
        fill: #9c887b;
      }

      .cls-1, .cls-2 {
        font-size: 123px;
      }

      .cls-3 {
        fill: #c1272d;
      }

      .cls-3, .cls-4, .cls-5, .cls-6, .cls-7, .cls-8 {
        stroke-width: 0px;
      }

      .cls-9, .cls-10, .cls-11 {
        font-family: MonotypeCorsiva, 'Monotype Corsiva';
      }

      .cls-9, .cls-11 {
        font-size: 92.8px;
      }

      .cls-9, .cls-8 {
        fill: #cd5257;
      }

      .cls-12 {
        stroke: #cd5257;
        stroke-miterlimit: 10;
        stroke-width: 14.2px;
      }

      .cls-12, .cls-7 {
        fill: #d77579;
      }

      .cls-4 {
        fill: #70bb97;
      }

      .cls-13 {
        fill: #b0a095;
        font-size: 61.5px;
      }

      .cls-11 {
        fill: #9a5255;
      }

      .cls-14 {
        fill: #c4b8b0;
        font-size: 54px;
      }

      .cls-5 {
        fill: #8e7a6d;
      }

      .cls-6 {
        fill: #ebe7e5;
      }

      .cls-2 {
        fill: #42210b;
      }
    </style>
  </defs>
  <g>
    <path class="cls-6" d="M1335.5,602.8c0-3.1,0-6.1,0-9.2-2.5-.8-1-4.6-3.1-5-11.2-2.3-14.1-13.1-20.7-20-6.2-7.6-3.1-13.6,3.4-19.1h0c4.6-6.2,11.3-11.3,11.6-20,0,0,0,0,0,0h0c5.1-3.3-1.4-6.1-.3-9.3,0-3.4,0-6.9-1.6-10.1h0s0,0,0,0c.4-2.5-.4-4.5-2-6.3-1.2-5.2-2-10.5-5.3-14.9-.6-8.3,2.1-15.8,5.9-22.9,2.4-4.4,5.7-8.4,6.7-13.6,3.4-4.2,1.6-8.5.2-12.8,1.3-12.7-3.4-23.5-10.7-33.5-2.6-2.8-5.1-5.6-7.7-8.4v-.2c-1.4-1.8-2.6-3.7-3.9-5.5-.1-3.9-7.5-6.2-2.7-11,5.3-5.3,3-10.1-.4-15,0-3.5,3-6.5,2-10.2h0s0,0,0,0c1.1-2,2.2-4,3.3-6,2.5-1.6.6-3.4.3-5.2,3.7-6.2,5.3-14.6,15-14.7.6.3,1,.2,1.3-.4,0,0,0,0,0,0,0,0,0,0,0,0,4.7-1.1,5.8-3.8,4.8-8.6-1.4-6.6-1.9-13.4-2.8-20.1,6-11.2-3.3-17.9-7.6-26.1-5.1-7,.3-15.5-3.2-22.7,5.6-14.3,5.3-28.1-3.4-41.2.9-4.7-3.5-4.3-5.8-5.9-.7-2.9-1.4-5.9-2.1-8.8-5.2-7.8,3.8-11,5.5-16.5,2.3-2,2.2-4.7,2-7.3,1.5-3,2.4-6.1,0-9.1h0c-1.4-3.4-5.6-2.9-7.6-5.5h0s0,0,0,0c-3-6.9,2.4-10.5,5.9-14.8,3.9-.6,7.7-1.3,11.6-1.9,2.4-.3,5-1.6,3.5-3.8-3.9-5.4-3.2-10.1,0-15.4,1.2-2.1,0-4.7-2.3-6.3-4.4-5.6-12.4-6.8-16.2-13.1h0s0,0,0,0c-1.1-4.5,4.1-4.4,5.3-7.2,3.9-3.4,5.6-8,7.5-12.5,7.1-6.3,4.9-13.5,2-20.8-.1-1.7-.3-3.3-.4-5,.2-5.4-.4-11,.8-16.1,1.5-6.2-3.1-7.3-5.4-5.3-5.6,4.9-13.7,3.3-18.8,8.6h0c-8,8.5-9.4,8.6-17.4,1.1-2.1-1.9-3.9-3.5-7.1-1.8-3.5,1.9-7.2,2.4-11.2.9-2.8-1-6.8,0-8,2.3-1.3,2.5-1.6,6.6,2.4,8.5-.5,1.7-1.1,3.3-1.6,5-.8,0-1.6,0-2.5-.1h0c-1.8-1.9-4.2-1-6.3-1.4-2-1.6-.9-5.8-4.7-5.8.7-3.8,2.6-7.6-.4-11.2-.7-4.8-2.4-9.4-5-13.5-1.8-2.8-4.1-4.5-7.6-2.6-5.3,2.8-11.5,4.7-15.6,8.8-4.8,4.9-9.8,6.3-16.1,6,1,0,1.9.4,2.8.9-.9-.2-1.9-.5-2.8-.9-7.3-4-14.6-7.6-22-.2-3.1.6-6.1,1.2-9.2,1.7h0c-6.6,2.8-8.6-5.1-12.7-5.8-14.6-2.6-27.2-14.6-43.5-9.6-4.9,1.5-10.1,1.6-15.3.9-2.4-1.8-4.8-1.5-7.3,0h0c-4.3,0-8.6,0-12.9,0-2.5-2.2-5.8-3-8.5-1.8-10.5,4.7-21.1,3.1-31.8,1.6-.3-.5-.7-.6-1.2-.3-1.7-1.7-3.9-1.1-5.9-1.6-10-2.2-17.1,5.9-26.1,7.2h0c-1.2,1.8-2.5,3.6-3.7,5.5-3.7,1.2-7.3,2.4-11,3.6-.4-.3-.7-.3-1.1,0-1.2-.6-2.4-1.2-3.5-1.8,0,0,0,0,0,0-6.4-5-9.3-15.7-20.6-12.5-11.1,3.4-22.8.9-34,3.3h0s0,0,0,0c-2.9-.6-5.9-1-8.7-1.2-9.1-.7-18.2-7.1-27.5-.8,0,0,0,0,0,0,0,0,0,0,0,0-2.1,0-4.1,0-6.2,0-6.8-4.4-15.3-2.2-22.4-5.4-.1-.5-.2-1.1-.1-1.6-3.1,0-6.1,0-9.2,0l.2.9-.3.8c-1.9.6-3.9,1.2-5.8,1.7-1.7-.6-3.4-.8-5.1.2-1.5-.1-3.2-.4-3.5,1.8-4.3,9.2-6.2,9.5-12.8,1.9-2.5-2.9-4.8-6.4-9.4-5.9-1.8,0-3.7,0-5.5,0-5,.6-10.3-.6-15,2-.7-.3-1.1,0-1.4.6-4.8,10.3-11.8,13.8-22.1,7h0s0,0,0,0c-3.3-3.2-6.9,0-10.4-.6-2.4-2.2-5.2-1.6-8-1.3-1.7-.1-3.4-.2-5.1-.3h0c-6.5-4.3-13.7-.7-20.5-1.9.3-4.4-2.6-4.2-5-2.9-2.9,1.5-5.8,2.3-8.9,2.9h0c-9.2-2.8-18.6-3.4-27.6-.7-11.6,3.5-22.7,7.7-34.1-.4-2.2-1.6-5.8-.7-8.5-2.3-1-.6-3.2-.6-3.6,1.4-.4,2.1,1.6,1.8,2.8,2.4,5.1,2.6,11.7,4.3,9.6,12.5-9.5,1.5-17-4.7-25.6-6.9-3-.9-6-2.7-9-.2-3,.5-5.9,1-8.9,1.5-.3-.2-.6-.3-.9-.4-4.2-2.3-8.2-7.3-13.2-1.8-3.9,4.3-8.7,5.1-13.7,6.2-3.4-1.4-6.9-2.8-10.3-4.2h0c-4.7-10.4-12.3-12.9-22.8-9.1-2.4.9-5.3,0-8,0-.8-.6-1.5-1.2-2.3-1.8h0c-2.1-2.7-5.3-.8-7.7-1.9-3.5-1.8-7.6.7-11.1-1.6-2.4,0-4.9,0-7.3,0-1.2,0-2.4,0-3.7,0-2.4,0-4.9,0-7.3,0-2.6,5-8.2.1-11.3,3.5h0c-.6-.3-1.1-.1-1.5.3h0c-5.5.6-11,1.2-16.5,1.8-7.1-.9-13.5,1.2-20.3,3.5-11,3.6-22.7,13.8-33.9,0-.3-.4-1.7,0-2.6.1,0,0,0,0,0,0-6.5-1.2-13-2.6-19.5-3.4-6.9-.9-14.1-1.7-17.1,7.2-1.2,1.2-2.5,2.4-3.7,3.5-5.8,0-10.4-4.8-16.4-3.7-4.6-3.3-10.7.7-14.8-2.5-13.6-10.6-29.5-1.3-43.7-5.7,0,0-.2.5-.3.8-1.5,1.6-1.6,3.6-1.6,5.6h0c-.4.3-.6.7-.7,1.2-1.1,2-2.2,4-3.3,5.9,0,0,0,0,0,0h0c-4.3,3.4-10.3-5.4-14,2h0c-1.4,1.3-2.7,2.5-4.1,3.8h0c-6.5.6-12.6-.6-18.3-3.7-3.5-3.7-8.2-1.3-12.2-2.3-6.4-3-10.5-8.2-13.4-14.5-5.4-3.4-9.9.9-14.7,1.9-7.5-1.4-14.5,2.3-21.9,2.1.3.2.7.3,1,.5-.4-.1-.7-.3-1-.5-5.8,0-11.6.6-17.2-.3-13.2-2.3-26.4,4.2-39.5,0-2.4-2.3-4.8-5.9-7.5-.3h0c-6.9,2.5-8.2-5.1-12.6-7-1.2,0-2.4,0-3.7,0-5.5,0-11,0-16.5,0,0,.5-.2,1.1-.4,1.6h0c-.5-.1-1,0-1.4.5,0,0,0,0,0,0h0c-6.3-.6-11.7.8-14.6,7.1h0s0,0,0,0c-2.4,2.5-1.4,5.3-1.4,8.3,0,4.5,0,11-6.3,11.2-6,.2-9.4,2.3-12,7.3-.9,1.7-3.1,3.9-6,2.3-.9-3.6.7-7.6-1.9-10.8-.5.9-1,1.4-1.4,1.6.2-.6.6-1.2,1.4-1.6-1-7.4-6.1-12.9-9.2-19.4-1.2-2.5-4-5-7.3-4.3-3.2.7-1.6,4.1-2,6.2-1.8,8.4-1,17.6-6.8,24.9-2.4,2.4-.7,4.8,0,7.2,0,0,0,0,0,0,0,0,0,0,0,0-.2,3-.3,6-.5,9.1-7.9,14-2.1,24.9,7.8,34.9,2.3,2.6,4.6,5.2,6.9,7.9,2.9,4.9,8.1,8.3,9.5,14.2-1,6-5.8,2-8.7,3.3h0c-4.5-2-9-2.7-13.4.5h0c-7.4,14.4-4.1,29.3-2,44.1h0c.4,8.7,1.6,17.5,1,26.1-.3,5.1,1.3,7.8,4.9,10.3-.7,4.3-1.5,8.5-2.2,12.8-2,2.5-1.9,4.9.1,7.3,3.2,10.9-.1,22,1.2,33.1.6,4.9-1.5,11.4-4.8,15.1-5.9,6.7-4.7,13-2.4,20.1-.4,3.3-1.4,6.7,1.9,9.3h0c.1,1,.2,2,.3,3.1.3,4.9,2.8,9.6,1.8,14.7l-.5.5v.7c-1.6,8.1-3.3,16.3-5,24.4-1.1,2.4-4.4,3.5-4.1,6.7-2.8,4.7-2,9.3.3,13.8,2.3,0,4.6-.2,7-.3h0s0,0,0,0c.2.6.4,1.2.7,1.8,1.6,5.5-4.3,7.1-5.8,11-2.5,3.4-3.5,7.7-1,10.8,5.2,6.7,8.1,15.3,15.6,20.3,7.6,4.6,13.1,10.3,11.2,20.2,0,0,0,0,0,0,0,2.4,0,4.9-.1,7.3-.1,2.2-.3,4.5-.4,6.7h0c-1.9,5.3-3.5,10.8-7.1,15.5-4,5.2-4,11.2-2.7,17.1,1.2,5.2,3.2,10.1.7,15.4-4.3-.5-6.7.9-5.6,5.7,0,0,0,0,0,0,0,0,0,0,0,0-2.9,1.9-5.8,3.7-8.8,5.6-1.1,3.5-1.7,7,1.3,9.9.9,2.6.5,5.1,0,7.7-7.3,10.1-9.9,20.6-3.6,32.2h0c.1,2.3.3,4.6.4,6.9-1,2.9,1.4,4.9,1.9,7.3.9,4.2-1.4,8.8,1.6,12.8,1.3,2,3.5,1.5,5.4,1.8h0c2.4,2.5,4.8,5.1,7.2,7.6,0,1,0,2-.1,3-.6,1.3-1.1,2.7-1.7,4-2.1,3.1-2.6,6.2.2,9.2h0c3.2,6.4,9.5,8.7,15.5,11.3h0c.8,1.3,1.6,2.7,2.4,4h0c0,1,.2,2,.2,3.1-1,6.4-1.5,12.9-5.5,18.3h0c-3.3,0-6.6.7-9.2-2.4-3.6-4.2-7.1.1-10.4,1-3.6,1-2.7,5.2-2.2,8,.5,3.1,1.8,6,3,9,.1.4.3.8.4,1.2,0,1.6,0,3.2,0,4.7h0c-2,6.7-1.5,13.6-1.8,20.5-5,10.2-7.5,21.2-9.4,32.3-1.8,3.7-1.5,7.7-1.3,11.7h0c2.3,7.2,7.3-.5,10.5,2,1.4,4,7,5.4,6.8,10.3-.2,7.3,4.3,11.5,9.5,15.4,1.2,2.6,3,4.7,5.6,6h0c0,.8,0,1.7,0,2.5,0,0,0,0,0,0-1.6,3.6-3.4,7.1-4.9,10.7-1.4,3.7-3,6.7-7.7,6.1h0c-1.9-1.9-3.7-.4-5.4.3h0c-6.3,1.7-8,6.4-8.2,12.3-.3,5.8.2,11.4,2.8,16.8.3-.3.6-.5.9-.8-.2.6-.5,1-.9.8-.4,2.8-.5,5.5,1.3,7.9,0,3.9-1.8,8.1,1.9,11.4,0,0,0,0,0,0,4.4,2.8,7.9,6.5,10.8,10.9.4,2,.9,4,1.3,6,.1,1,.4,2,.7,3-3.2,7.5-7.4,14.6-9.2,22.8h0c-1.8,2.6-3.5,5.1-5.3,7.7-2.1.4-5.4,1-5.3,2.7.8,10.5-7.7,18.3-7.9,28.4.3-.3.6-.3.9,0,0,.3,0,.6,0,.8-.3-.3-.6-.6-.9-.8-.5,0-1,0-1.5,0v9.2c0,1.2,0,2.4,0,3.7,5.9,8.1,15.5,8,23.9,10.7,2.4,1.7,4.8,1.8,7.2.1,5.5,1.1,10.5-.3,15.2-3.1,2.3.8,4.7,2,5.4-1.9,6.4,0,12.8,0,19.2,0,6,2.7,12.5,3.9,18.9,5.3,1.8.9,3.7,2.1,5.5,0h0s0,0,0,0c10.4-3.7,20.8,2.2,31.2,0,0,0,0,0,0,0h0c1.1.1,2.1.2,3.2.4,0,0,0,0,0,0,7.5,1.2,14.1,8,22.4,3.5,3.9-1,7.4.6,11,1.7,4.9,2.4,9.7,2.1,14.6,0,3.3-.1,6.6.3,9.7-1.4,1.8,1.2,3.4.5,5-.5,5.1-.9,10.4,1.6,15.3-1.3h0s0,0,0,0c5-5.9,8.3-12,1-18.6h0c1-1,2-2.1,1.7-3.7.7-.8,1.5-1.5,2.2-2.3,3.4-.3,6,.8,7.4,4.2-.6,3.2,0,7.2,3.2,7.3,6.3.3,13.1,3.1,19.1-1.4,0,0,0,0,0,0,0,0,0,0,0,0,0,0,0,0,0,0,2.1,0,4.3.3,5.7-1.8,7.3-11.1,14.2-5.4,21.1.5,1.6,1.4,3.2,2.8,5.4,3,.4,1.4.8,2.8,2.4,3.4,5.3,4.1,11.2,10.4,16.4,11.1,13.4,1.9,27.4,2.3,40.8-1.6,0,0,0,0,0,0,1-.2,2-.3,3-.5,4.8-.6,10,2.8,14.3-1.6,6.4-7.9,15.4-6.9,24-6.8,5.9,10,15.7,10.7,25.8,10.5,3,1.1,6.1,1.3,9.1,0,6,1.4,10.9-.4,14.9-4.9h0s0,0,0,0c3.6-5.5,9.3-4.1,14.5-4.2,3,.9,6.1,2.4,9.2.2h0c2.4-.4,4.1-1.8,5.5-3.7,5-2.2,8.3-6.1,10.4-11.1h0c2.2-2.6,2.8-6.9,7.4-7,1.5,1.6,3.5,1.8,5.5,1.8,1.5,2.1,3.8,1.4,5.8,1.7,4.1,2.3,10.2.4,12.8,5.1,4.4,8.1,12.2,12.6,18.6,18.6,2.4,2.1,4.9,1.9,7.3.1,8.2,1.9,15.6-4.1,23.8-2.1,1,1.1,1.9,2.3,3.7,2,2.5,2.1,4.9,2.1,7.2-.3h0c5.7-5.3,11.2-4.8,16.6.4,2.5,2.1,4.9,2.1,7.3,0h0s0,0,0,0c3.9-1.6,7-3.6,5.3-8.7,0-.2-.2-.4-.5-.6-.2-.1-.4,0-.6,0-.9-2.7-2.3-4.9-4.2-6.7,3.2,2.4,6.2,5.1,10.9,4.5,2.2-.3,4.4-.7,6.6-1,0,0,0,0,0,0,2,.6,3.9,1.3,5.9,1.9h0c7.9,3.6,15,8.7,21.3,14.5,4.7,4.3,9.8,5.5,15.6,5.9,0,.4.1.9.3,1.3,1.8,0,3.7,0,5.5,0,1.2,0,2.4,0,3.7,0s2.4,0,3.7,0c2.4,0,4.9,0,7.3,0,2.2-4.2,7.2-.2,9.8-3.3h0c1-.1,2-.3,3-.4,6.8-.7,11.8-3.5,13.1-10.8,5.1-4.8,9-11.1,16.6-12.8.5.3,1,.2,1.5-.2h0c2.2.1,4.4.3,6.6.4,0,0,0,0,0,0h0c4.1,2.2,8.8,3.1,11.9,7,1.8,5.4,6,8.4,10.8,10.7,0,0,0,0,0,0,0,0,0,0,0,0,17.1,6.5,35.1,5.3,52.8,5.7,3.4,0,5.3-2.5,6.9-5.2,3.8-6.4,15.8-12,22-8.4,9.1,5.3,19.1,1.1,28,4.6,5.3,2.8,11,.9,16.5,1.6h0s0,0,0,0c3,.7,6,1.4,9,2.2.3.2.6.4.9.4.8.3,1.5.7,2.3,1,8.8,4,15-3.2,22.4-5.1,3.2,3.2,7.1,5,11.5,3.8,8.1-2.1,16-4.8,24-7.3,2.4-.5,5.2.2,7.1-2,3,0,5.8.1,8.9-.5,10.9-2.2,21.9-3.6,32.9-5.2,2.4.7,4.8,1.4,7.2,2,1.7,1.6,4.7,1.1,5.8,3.6h0c1.4,2.8-4.9,8,1.6,8.5,7.6.6,14.4,4.7,22,4.3,1.8,1,3.7,1.8,5.5,0,1.2,0,2.4-.2,3.7-.3,6.9.5,13.8.9,20.5-1.4l.5.3s.5-.3.5-.3h0c8.3,3.1,16.6,2.2,24.9,0,1-.2,2-.4,3-.6,5.8-.8,13.4,1,13.2-8.8,1.7-6.7,6.2-10.3,12.1-12.1.8,0,1.7-.2,2.5-.7,3.6,0,7.1,0,10.7,0h0c2,1.8,4,3.6,6,5.4h0c5.2,13.6,20.3,10.2,29.5,17,.5.4,2.2-.6,3.2-1.2,10-5.3,11.8-4.7,16.6,5.9-.1.7-.3,1.4-.4,2.2,3.1,0,6.1,0,9.2,0,0-.6,0-1.2,0-1.8,4.4-1.6,11.6-.4,7.5-9.4-1.7-3.7,2.6-5.5,5.3-7.3,5.1-1.4,10.7,1.9,15.7-1.4,4.7,4.3,9.1,0,13.6-.4,1.7.3,3.2,0,4.3-1.5,6.5-3.9,12.9-6.5,19.6-.3,7.9,10.2,18.3,13.7,27.5,9.3,2.1-.3,3.3-1.5,3.7-3.6,4.5-1.3.4-6.2,3.5-8.1,1.6-.6,3-1.4,3.6-3.1,1.3-1.2,2.5-2.5,3.8-3.7,1.5,0,3.1,0,4.5.3,9.9,2.8,9.9,2.8,10-7.7,0-3.6.2-7.2.3-10.7,1.9-3.1,1.8-6.1-.3-9.1-2-3.4-1-8.3-5.3-10.5-.2,0-.3,0-.5,0,.2,0,.3,0,.5,0-1.7-1-3.4-1.9-5.1-2.9h0c-.6-1.2-1.2-2.4-1.8-3.7,0-1.5,0-2.9,0-4.4h0c1.8-3,3.6-6,5.4-9.1,3.4-4.6,9.9-4.1,13.7-8.1,5.3-4.2,1.5-7.5-1.1-10.9h0c0-5-5.8-7.6-5.4-12.7,9.3-5.7,2.9-13,2-19.7h0c4.9-3.7,2.4-10.6,6.1-14.6,6.2-6.6,3.1-11.1-2.8-15.2h0c4.5-5.3,11.8-9.4,9.2-18.3.1-5-.7-10.1,2.4-14.7l-.4.4-.4-.3c0-.2,0-.4,0-.6.3.2.5.3.8.5.5.2.9.2,1.4,0,0-4.3,0-8.5,0-12.8,0-3.1,0-6.1,0-9.2-.6.1-1.1,0-1.6-.1-5.8-1.7-11.8-3.1-16.7-7-5-4.4-5-9.7-1.5-14.7,4.7-6.7,3.2-12.1-2.1-17.6-1.7-1.7-3.9-3.6-3.6-6.6h0s0,0,0,0c5.2-3.8,5.7-10.4,8.8-15.4,10.1-16.5,9.8-18.3-6.7-27-3.6-7,.1-10.2,6.3-12.2,0,0,0,0,0,0,0,0,0,0,0,0,.9,0,1.8-.1,2.7-.2h0c8.4-.2,10.5-5.8,10.7-12.9.2-1,.4-2,.6-3h0c2.5-3.4-.5-8.5,3.4-11.6ZM1080.9,947.7c0,0,.2-.1.5-.1,0,0,0,0,0,0-.2,0-.3,0-.5.1ZM605.3,52.6s0,0,0,0h0s0,0,0,0c0,0,0,0,0,0ZM790.4,63.7c0,.2,0,.4.1.6-.2-.1-.3-.3-.4-.4.1,0,.2,0,.3-.1ZM221.9,917.3c.2,0,.4.2.6.3-.1,0-.3.2-.4.3,0-.2-.2-.4-.2-.6ZM345.4,943c0,0-.1,0-.2.1-.2,0-.4-.1-.6-.2.2-.1.5-.3.7-.4.2-.1,1.3.4.1.5ZM127.3,882.4s0,0,0,0c0,0,0,0,.1,0,0,0,0,0,0,.1ZM799.4,107.7c0,0-.2,0-.3,0,0,0,.1,0,.2-.1,0,0,0,0,0,0,0,0,0,0,0,0,0,0,0,0,0,0,0,0,0,0,0,0,0,0,0,0,0,0ZM60.7,270.1c-.5-.3-.9-.5-1.3-.7.2-.2.4-.4.6-.5.2.4.5.8.7,1.3ZM797.1,107.7c.4.2.7.3,1.1.3-.5,0-.9,0-1.3-.3,0,0,.1,0,.2,0ZM1169.1,96.8c0,0,0,.1,0,.2,0,0,0,0,0,0,0,0,0-.1,0-.2ZM1189.5,108.1s0,0,0,0c0,0,0,0,0,0,0,0,0,0,0,0ZM722.5,879.5c-.3-.3-.5-.6-.7-1,.2,0,.3-.1.5-.2,0,0,.2,0,.2-.1,0,.4,0,.9,0,1.3ZM189.5,121.9s0,0,0,0c0,0,0,0,0,0,0,0,0,0,0,0ZM1096.2,819.8s0,0,0,0c.2-.1.3-.2.5-.3-.1.1-.3.3-.4.4ZM112.4,637.2c.1-1.4.7-1.3,1.4-.9-.5.2-1,.5-1.4.9ZM935,209c0,0,.2,0,.2.1,0,0,0,0,0,.1,0,0,0-.2-.2-.3ZM1055.6,203.4c0-.1-.2-.2-.3-.4,0,0,.1,0,.2,0,0,0,0,0,0,0,0,.2,0,.3,0,.5ZM793.3,713.9h0s0,0,0-.1c0,0,.1,0,.2.1,0,0-.1,0-.2,0ZM349.8,218.9s0,0,0,0c0-.1.1-.3.2-.4,0,.2,0,.3-.1.5ZM1196.5,385.2s0,0,0-.1c0,0,.1,0,.2,0,0,0,0,0-.1.1ZM694.5,638.7s0,0,0,0c0,0,0,0,0,0,0,0,0,0,0,0ZM306.2,355.4c2.8-.5,5.4-3.4,6.1,2,0,0,0,.1,0,.2-1.7.2-4.2.7-8,1.5-1-1.5-2.3-3.1,1.9-3.7ZM370.3,642c0,0-.2,0-.2,0,0,0,0-.2,0-.2,0,0,.1.2.2.2ZM179.1,330.4c.1,0,.3-.1.4-.2,0,.1-.1.2-.2.4,0,0-.1-.1-.2-.2ZM581.3,297.9c0,0,.1,0,.2-.1,0,0-.1.1-.2.2,0,0,0,0,0,0,0,0,0,0,0,0ZM605.9,337.4c.2.4,0,.8-.2,1.2-.2-.5-.4-1-.6-1.5.2.1.5.2.7.3ZM651.7,345.6c.4,1.1.5,1.8.2,2.2-.2-.7-.2-1.4-.2-2.2ZM561.8,381.1c.6.7,0,.9-.8,1.2,0,0,0,0,0,0,.3-.4.6-.8.8-1.1ZM1032.9,386.4s0,0,0,0c0,0,0,0,0,0,0,0,0,0,0,0,0,0,0,0,0,0ZM211.7,403.5c0,.6-.3,1-.6,1.4.2-.5.4-.9.6-1.4ZM665.3,409.8s0,0,0,0c0,0,0,0,0,0,0,0,0,0,0,0,0,0,0,0,0,0ZM200,570.4s0,0,.1,0c0,0,0,0,0,0,0,0,0,0,0,0ZM804.9,578.1c-.2-.3-.3-.5-.5-.8.1,0,.2,0,.4-.1,0,.3,0,.6.1.9ZM551.9,540.9c-.6-.8-1-1.8-.6-3.1.3-.2.6-.4.8-.5-.1,1.5-.2,2.6-.2,3.5ZM407.1,431.5h0s0,0,0,.1c-.2,0-.4,0-.6-.1.2-.1.4-.1.6,0,0,0,0,0,0,0h0ZM377.7,491.4c-.5-.3-.9-.6-1.2-.9.3.1.7.4,1.2.9ZM339.3,504.7c-.5-.1-1-.2-1.4-.4.4-.2.8-.1,1.4.3,0,0,0,0,0,0,0,0,0,0,0,0,0,0,0,0,0,0,0,0,0,0,0,0ZM853.9,468.6s0,0,0-.1c0,0,0,0,0,.1,0,0,0,0,0,0ZM802.7,494.1s0,0,0,0c0,0,0,0,0,0,0,0,0,0,0,0ZM824.7,444.7c0,0,0,0-.1,0,0,0,0-.2.2-.3,0,.1,0,.2,0,.4ZM790,469.9s0,0,0,0c0-.2.1-.3.2-.4,0,.1-.1.3-.2.4ZM785.1,467.6c0-1.2-.1-2.2-.2-3.1.6.7,1.3,1.5,1.9,2.3-.2.6-.9.7-1.7.8ZM802.7,494.1s0,0,0,0c0,0,0,0,0,0,0,0,0,0,0,0ZM789.3,441.7c.5,1.3.9,2.7.7,4.4-1.2-1.1-2.3-2.2-3.4-3.2.7-.3,1.6-.7,2.6-1.2ZM756.8,457.5s0,0,0,0c0,0,0,0,0,0,0,0,0,0,0,0ZM590.6,441.8c0,.3,0,.6,0,.8,0,0-.1,0-.2,0,0-.3,0-.6.1-.8ZM611.6,499.8c0,0,0-.1,0-.2,0,0,0,0,.1,0,0,.1,0,.2-.1.3ZM710.5,523.1c0-.1,0-.2,0-.3.5,0,.3.2,0,.3ZM728.1,483.1c-.2-.1-.3-.3-.5-.5.1,0,.3,0,.4,0,0,.2,0,.4,0,.5ZM588.3,512.2s0,0,0,0c0,0,0,0,0,0,0,0,0,0,0,0ZM821.2,507.1c.3-.3.7-.6,1.4-.8,0,.5,0,.9,0,1.4-.4-.2-.9-.4-1.4-.6ZM1125,520.2s0,0,0,0h0s0,0,0,0c0,0,0,0,0,0,0,0,0,0,0,0ZM993.1,479.7s0,0,0,0h0s0,0,0,0ZM974.9,455.9s0,0-.1,0c0,0,0,0,.1,0,0,0,0,0,0,.1ZM971.1,543.3c0,.2,0,.3,0,.5h0s0,0,0,0h0c-.2,0-.4-.2-.5-.4.2,0,.4,0,.5-.1ZM599.6,429.6c0,0,0,.1-.1.2,0,0,0,0,0,0,0,0,.1-.1.2-.2ZM502.4,407.5c0,0,0,.2,0,.3-.1,0-.2-.1-.3-.2.1,0,.2,0,.3,0ZM626.8,563.6s0,0,0,0c0,0,0,0,0,0,0,0,0,0,0-.1ZM1024.8,545.3c.1,0,.3-.1.4-.1,0,0-.2,0-.3.1,0,0,0,0-.1,0ZM233.5,537.4c0-.1.1-.2.2-.3.1.4.1.8.1,1.2,0-.3-.2-.6-.3-.9ZM207.4,427.7s0,0,0,0h0c0,0,0,0,0,0ZM236.8,552.2c0-.2,0-.4,0-.6.2,0,.4.2.6.3-.2,0-.4.2-.6.3ZM808.2,565c0,.1,0,.2,0,.3-.1,0-.2-.2-.4-.3,0,0,.2,0,.3,0ZM840.3,395.2c-.2-.4-.5-.7-.7-1.1.3,0,.6.1.9.1,0,.3-.1.6-.2,1ZM344.7,548.5s0,0,0,0c0,0,0,.1-.1.2,0,0,0-.2,0-.3ZM769.5,582.2c-.1.2-.2.4-.3.6,0-.2,0-.4,0-.7.1,0,.3,0,.4,0ZM840.6,499.1c.3.2.5.4.8.6-.4,0-.8,0-1.3.1.2-.3.3-.5.5-.7ZM721.8,362.1c-.6-.2-1-.5-1.4-.8.4.2.9.4,1.5.8,0,0,0,0,0,0ZM598.7,401.2c0,.3,0,.5,0,.8-.2-.2-.4-.4-.6-.6.2,0,.4-.2.5-.3ZM200,570.3s0,0,0,.1h0s0,0,0,0c0,0,0,0,0,0ZM892.4,523.6c0,.2.1.4.2.6-.2,0-.4-.1-.7-.2.1-.2.3-.3.5-.4ZM1095.7,522s0,0,0,0c0,0,0,0,0,0,0,0,0,0,0,0h0s0,0,0,0c0,0,0,0,0,0,0,0,0,0,0,0ZM584.6,578.5c0,0-.1-.2-.2-.2,0,0,.1,0,.2-.1,0,.1,0,.2,0,.4ZM678,578.3c0,0,.1,0,.2.1,0,0-.1,0-.2,0,0,0,0-.1,0-.2ZM844.9,577.7c0-.2,0-.4.1-.6.3.2.6.5.9.7-.4,0-.7,0-1-.1ZM1116,362.8c0,0,0-.1,0-.2-.2.2-.3.3-.4.5.1-.2.2-.4.3-.6,0,0,0,0,0,.1,0,0,.1,0,.2,0,0,0,0,0-.1.1ZM993.2,392.5c-.4,0-.8,0-1.1,0,.3-.2.5-.5.7-.7.1.2.2.4.4.7ZM391.6,609.7c0-.2.1-.4.2-.5,0,.2-.1.4-.2.6,0,0,0,0,0,0ZM399.6,559.7c.4-.5.7-1,.9-1.4.9.7,0,1.1-.8,1.5,0,0,0,0,0,0ZM670.6,578.5c0,0,0-.2,0-.3h0c0,0,.1,0,.2,0,0,0-.1.1-.2.2ZM846,594s0,0,0,0c0,0,0,.2-.1.3,0,0,0-.2,0-.3,0,0,0,0,0,0ZM577.5,347.1c0,.2,0,.4,0,.5,0-.2-.1-.3-.2-.5,0,0,.2,0,.2,0ZM1000.6,371.6s0,0,0,0c-.1,0-.2,0-.3,0,0,0,.2,0,.3,0ZM817.1,303c0,0,0,.1,0,.2,0-.2-.1-.3-.2-.5,0,.1.1.2.2.4ZM797,324.2c.1,0,.2-.1.3-.2-.2.2-.4.4-.7.6.1-.1.2-.2.4-.4ZM694.6,391.4s0,0,0,.1c0,0,0,0,0,0,0,0,0,0,0,0h0s0,0,0,0c0,0,0,0-.1,0,0,0,0,0,0,0,0,0-.2,0-.2,0,0,0,.1,0,.2,0ZM603.2,356.6c0,0,0-.2,0-.2,0,0,0,0,0,0,0,0,0,.2,0,.2ZM458.5,329s0,0,0,0c0,0,0,0,0,0,0,0,0,0,0,0ZM241.7,404.4c0,0,0,.1,0,.2,0,0,0,0,0,0,0,0,0-.2,0-.2ZM227.5,657.7c0,.2,0,.5-.1.7-.2-.1-.4-.2-.6-.3.2-.2.5-.3.8-.4ZM558.8,609.1c0,0,.1,0,.2.1h0s0,0,0,0c0,0,0,0,0,0,0,0-.2,0-.3,0,0,0,0-.1.1-.2ZM1104.6,607.6c.2.6.3,1.2.3,1.7-.2-.5-.3-1.1-.3-1.7ZM1125.2,289.4s0,0,0,0c0,0,0,0,0,0,0,0,0,0,0,0ZM1024.5,320.4c0-.1,0-.2,0-.4.1,0,.3,0,.4,0-.1,0-.3.2-.4.3ZM912.7,335.2s0,0,0,0c0,0,0,0,0,0,0,0,0,0,0,0ZM722.3,307.2s0,0,0,0c0,0-.1,0-.2,0,0,0,.1,0,.2,0ZM298.5,385.4c0,0,0,.1,0,.2-.7,0-1.4,0-2-.2.5-.3,1.3-.2,2.1,0ZM162.4,314.5c-.3-.4-.6-.8-.9-1.2.6.3,1.2.6,1.8.8-.3,0-.6.2-.9.3ZM155.2,512.1c0,.1-.2.3-.2.4-.3,0-.6,0-.8,0,.4-.1.7-.2,1-.3ZM188.9,661.7c0,0,0,.2,0,.3,0,0-.2-.1-.2-.2,0,0,.2,0,.2,0ZM419.7,647.6s0,0,0,0h0s0,0,0,0c0,0,0,.1,0,.2,0,0,0,0,0,0,0,0,0,0,0-.1ZM496.7,554.3c0,0,.1.1.2.2,0,0-.1,0-.2,0,0,0,0-.2,0-.2ZM708.7,632.3c.4.5.8,1.1,1.2,1.6,0-.1-.2-.2-.3-.3-.3-.4-.6-.8-.9-1.2,0,0,0,0,0,0ZM710.7,634.8c-.2-.2-.4-.4-.6-.6.2.2.4.4.6.6ZM1050.8,317.3c-.2,0-.4,0-.7,0,0-.2,0-.4,0-.6.2.1.5.3.7.5ZM750.9,304.3s0,0,0,0c0,0,0,0,0,0,0,0,0,0,0,0ZM723.4,276.2c.2.3.3.6.4.9-.3-.2-.5-.3-.8-.5.1-.1.2-.3.4-.4ZM519.6,348.4c.3,0,.6,0,.8.1,0,.1,0,.3.1.4-.3-.2-.6-.4-.9-.5ZM453.1,312.9c0-.1,0-.3,0-.4.2,0,.4.1.5.2-.1,0-.3.1-.5.2ZM163.4,540.2s0,0,0,0c0,.3-.2.5-.3.8,0,0,0,0,0,0,.1-.3.2-.6.3-.9ZM476.7,598.2s0,0,0,0c0,0,0,.2,0,.3,0,0,0-.2,0-.3ZM663.9,343.8c-.1,0-.2-.2-.4-.2,0,0,.1-.1.2-.2,0,.1.1.3.2.4ZM365.1,275.8s0,0,0,0c0,0,0,0-.1,0,0,0,0,0,.1,0,0,0,0,0,0,0ZM240.6,321.5s0,0,0,0c0,0,0,0,0,0,0,0,0,0,0,0h0s0,0,0,0h0s0,0,0,0c0,0,0,0,0,0ZM144.9,343.6c-.1-.2-.2-.4-.4-.6.4,0,.8,0,1.1,0-.2.2-.5.3-.8.5ZM150.7,476.6c0,.1,0,.3,0,.4-.4-.4-.7-.8-1-1.2.4.3.7.5,1.1.8ZM489.3,567s0,0,0,0c0,0,.1.2.2.3,0,0,0-.1-.1-.2ZM1076.2,315.5c0,0,.1.2.2.3,0,0,0,0-.1,0,0-.1,0-.2,0-.3ZM910.6,277.2s0,0,.1,0c-.2.6-.4,1.1-.7,1.4.2-.5.3-1,.5-1.5,0,0,0,0,0,0ZM513.3,312.4c0,0,.1,0,.2-.1,0,0,0,.1,0,.2,0,0-.1,0-.2-.1ZM152.1,307.3c0-.1,0-.2,0-.3,0,0,.1,0,.2,0,0,.1,0,.2,0,.3ZM919.9,718.4c0,.1-.2.3-.3.4,0-.2-.1-.5-.2-.7.2,0,.3.2.5.3ZM1210.8,721.7c-.1,0-.2,0-.3,0,0,0,.1-.2.2-.3,0,0,.1.2.2.3ZM1064.7,329.6s0,0,0,0h0s0,0,0,0ZM1031.7,242.5c-.3-.3-.7-.6-.9-1,.2,0,.3,0,.5.1.2.3.3.6.4.9ZM269.3,669.4c0,0,.1,0,.2,0,0,0,0,0,0,0,0,0,0,0,0,0ZM354.2,674c.3.3.6.6.8.9-.2,0-.4.1-.7.2,0-.4-.1-.7-.2-1.1ZM760.5,661.7c0-.1,0-.2,0-.4,0,0,.1.2.2.3,0,0-.2,0-.2,0ZM1172.6,703.9c1.5-.5,2.8.4,3.8,1.4-1.4-.3-3-.7-4.8-1.2.3,0,.6-.2,1-.3ZM1195.6,554.2c0,0,0-.1-.1-.2,0,0,.1,0,.2,0,0,0,0,0,0,.1ZM1114.5,219.2c0,.2-.2.4-.2.6-.3-.4-.6-.9-.9-1.3.4.1.8.4,1.2.8ZM936.6,278.2s0,0,0,0h0s0,0,0,0c0,0-.1-.2-.2-.2,0,0,.1,0,.2,0,0,.1,0,.2,0,.3ZM307.9,729.7c0,0,0,.1,0,.2h0c0,0-.2-.1-.3-.2,0,0,.2,0,.3,0ZM470.9,691.6s0,0,0,0c0,0,0,0,0,0,0,0,0,0,0,0ZM590.1,687.6c0,.2,0,.3,0,.5h0s0,0,0,0c-.3-.2-.6-.3-.9-.5.3,0,.6,0,.9,0ZM1119,703.7c0,0,0-.1,0-.2,0,0,0,0,0,.1,0,0,0,0,0,0ZM1212.7,716.2c-.3,0-.5-.2-.8-.3.3,0,.5-.1.8-.1,0,.1,0,.3,0,.4ZM965.9,256.2c0,0,0-.1,0-.2.3-.4.6-.8.9-1-.3.4-.6.8-.9,1.2h0ZM697.8,243.7c-.2.3-.4.6-.6.8,0,0,0,0,0-.1.2-.2.4-.5.7-.7ZM634.5,294.3c0,0,0,.1,0,.2,0,0,0,0-.1-.1,0,0,.1,0,.2-.1ZM498.6,274.4c0,0,.1,0,.2,0,0,.3-.1.6-.1.9-.2-.2-.2-.5,0-.8ZM1220.4,666.8s0,0,0,0c0,0,0,0,0,0,0,0,0,0,0,0ZM122,385.5c-.1,0-.2,0-.3,0,0,0,0,0,0,0,.1,0,.2,0,.3,0ZM706.7,697.8c0,0,.1.2.2.3,0,0-.1,0-.2,0,0-.1,0-.2,0-.3ZM946,734.5c.2,0,.3.1.5.1-.1,0-.2,0-.4,0,0,0,0,0,0,0ZM980.1,757.9c0,0,0,.1,0,.2,0,0-.1,0-.2-.1,0,0,.2,0,.2,0ZM1035,750.8s0,0,0,0h0s0,0,0,0c0,0,0,0,0,0ZM1075.3,738s0,0,0,0c0,0,0,0,0,0,0,0,0,0,0,0ZM1202,472.8c0,0,0-.1,0-.2h0s0,0,0,0c0,0,.2,0,.3,0,0,0-.2,0-.2.1ZM1108.8,228.6c0,.1,0,.2,0,.3-.2,0-.5,0-.7,0,.2,0,.5-.2.7-.3ZM627.5,217.5s0,0,0,.1c0,0,0-.1,0-.2,0,0,0,0,0,0ZM954.4,739.7h0s0,0,0,0c0,0,0,0,0,0,0,0,0,0,0,0,0,0,0,0,0,0ZM1044.1,754.5c0,0-.1.2-.2.2,0,.5,0,1,0,1.4,0,0,0,.1,0,.2-.2-.6-.2-1.3,0-2,0,0,0,0,.1.1h0s0,0,0,0,0,0,0,0c0,0,0,0,0,0h0c0,0,0-.1.2-.2,0,0,0,.1-.1.2,0,0,0,0,0,0,0,0,0,0,0,0ZM1229.8,290.4c0-.4.2-.7.4-.8,0,0,0,0,0,0,0,.2,0,.4,0,.6-.1,0-.2.1-.3.2ZM1057,238.6s0,0,0-.1c.2-.2.4-.3.6-.5,0,0,0,0,0,0-.2.2-.4.4-.6.6ZM299.9,294.8c-.2.5-.4,1.1-.7,1.6-.1-.4-.2-.7-.4-1,0,0,.2,0,.3-.1.3-.2.5-.3.8-.5ZM133,745s0,0,0,0c.2.4.5.8.8,1.2-.4-.2-.6-.7-.8-1.2ZM188.7,790c0,0,.1.1.2.2,0,0,0,0,0,0,0,0,0,0,0,0,0,0,0,0,0,0,0,0,0-.1,0-.2ZM450.7,775.8s0,0,0,0c0,0,0,0,0,0,0,0,0,0,0,0ZM593.6,763.1s0,0,0,0c0,0,0,0,0,0,0,0,0,0,0,0ZM855.4,746.9s0,0,.1,0c0,0,0,0,0,.1,0,0,0,0,0,0,0,0,0,0,0,0ZM1046.6,185.9c0-.3,0-.7,0-1,0,0,.1.1.2.2,0,.3-.1.6-.2.8ZM775.5,213.9s0,0,0,0c0,0,0,0,0,0,0,0,0,0,0,0ZM500.5,236c1-.8,1.7-1.2,2.2-1.2-.6.5-1.4.9-2.2,1.2ZM327.4,179.8c-.1-.2-.2-.5-.3-.7,0,0,.2,0,.3,0,0,.3,0,.5,0,.8ZM108.6,425.7c-.4,0-.9,0-1.4,0,0,0,0,0,0,0,.5,0,.9,0,1.4,0ZM103.5,479.9c-.3-.1-.6-.3-.9-.5,0-.3.2-.5.4-.7.2.4.3.8.5,1.2ZM215.2,749.2c0-.3.2-.6.3-.9.2.4.4.7.6,1-.3,0-.6,0-.9,0ZM489.2,722.9s0,0,0,0c0,0,0,0,.1-.1,0,0,0,0,0,0,0,0-.1,0-.2.1ZM561.8,763.6c0-.6,0-1.1,0-1.7.5.5.9,1,1.3,1.6-.4.1-.7.3-1.1.5-.2,0-.2-.3-.1-.4ZM1066.3,781.2s0,0,0,0c0,0,0,0,0,0,0,0,0,0,0,0ZM1171.2,165.3c0-.1,0-.3,0-.4.1,0,.2.1.3.2-.1,0-.2.2-.3.2ZM1171.1,164.9s0,0,0,0h0s0,0,0,0ZM700.9,154.9c-.1-.2-.2-.3-.4-.5.2,0,.4-.2.6-.3,0,.2-.2.5-.3.7ZM365.4,149.4s0,0,0,0c0,0,0,0,0,0,0,0,0,0,0,0ZM336.5,149.3s0,0,0,0c0,0,0,0,0,.1,0,0,0,0,0,0ZM90.3,379.8s0,0,0,.1c0,0,0,0,0,0,0,0,0,0,0,0ZM745.3,792.9c0-.2,0-.3-.1-.5.2,0,.3,0,.5,0-.1.2-.3.3-.4.5ZM958,792.1c.1,0,.3,0,.4,0-.1.2-.3.4-.4.7,0-.2,0-.5,0-.7ZM1251.2,712.5s0,0,0,.1c0,0,0,0-.1,0,0,0,0-.1,0-.2ZM1109,124.6c0,0,.1.1.2.2,0,0-.1-.1-.2-.2,0,0,0,0,0,0ZM616.1,200.3c0,.2,0,.4,0,.6-.1,0-.2-.1-.4-.2.1-.2.2-.3.3-.4ZM401,148.4c0,0,0-.2,0-.2.1,0,.2,0,.4,0-.1,0-.2.1-.3.2ZM296.3,215.6s0,0,0,0c0-.1,0-.3,0-.4,0,.1,0,.2,0,.4ZM207.6,798.7c.3-.3.5-.5.8-.6-.2.2-.4.4-.6.6,0,0-.1,0-.2,0ZM780.4,801.8h0s0,0,0,0c0,0,0,0,0,0,0,0,0,0,0,0h0ZM795,787.2s0,0,0,0c0,0,0,0,.1,0,0,0,0,0-.1,0ZM1253.2,696.1s0,0,0,0c.5,0,1,0,1.3.3-.4,0-.9-.1-1.4-.2ZM508.1,144s0,0,0,0c0,0,0,0-.1,0,0,0,0,0,.1,0ZM204.1,185.9c0-.2,0-.4,0-.6,0,0,.1,0,.2.1,0,.2-.1.3-.2.5ZM100.2,551.1c0,.2,0,.3,0,.5-.1-.2-.2-.3-.3-.5.1,0,.2,0,.3,0ZM104.6,658.2s0,0,0,0c0,0,0,0,0,0,0,0,0,0,0,0,0,0,0,0,0,0ZM460.1,811.1c.2.2.4.3.6.4-.2.1-.4.2-.5.3,0-.2,0-.5,0-.7ZM1047.7,846h0s0,0,.1,0c0,0,0,.1,0,.2,0,0,0-.1,0-.2ZM1256.6,751s0,0,0,0c0,0,0,0,0,0h0s0,0,0,0c-.1,0-.2,0-.3,0,0,0,.1-.2.2-.3,0,0,0,.2.1.3ZM1252.8,735.3c0-.2,0-.5.1-.7.3,0,.6.1.9.3-.3.2-.7.3-1.1.4ZM1231.9,146.4s0,0,0,.1c-.1,0-.3.2-.4.3,0,0,0,0,0-.1,0,0,0,0,0,0,.1,0,.2-.2.3-.3ZM569.8,792.5s0,0,0,0c0,0,0,0,0,0,0,0,0,0,0,0ZM677.8,807.2s0,0,0,0c0,0,0,0,0,0,0,0,0,0,0,0ZM954.8,809.1s0,0-.1,0c0,0,0,0,.1,0,0,0,0,0,0,.1ZM1234.9,498.3c0,0,.2,0,.3,0,0,0,0,.2,0,.3,0,0-.1-.2-.2-.3ZM88.1,747.9s0,0,0,0c0,0,0,0,0,0h0s0,0-.1,0c0,0,0,0,0,0ZM730.3,845.1s0,0,0,0c0,0,0,0,0,0ZM822.4,873.3c0,0-.2,0-.3,0,0,0,0,0,0,0,0,0,.1,0,.2,0ZM813.3,811.1s0,0,0-.1c0,0,0,0,0,0s0,0,0,0h0s0,0,0,0c0,0,0,0,0,.1ZM974.5,824c.4.4.8.8,1.1,1.3-.4,0-.7-.1-1.1-.3v-1ZM1051.4,840.5s0,0,0,0c0,0,.1,0,.2.1,0,0-.1,0-.2,0,0,0,0-.1,0-.2,0,0,0,0,0,0ZM1156.7,848.5c0-.1.3-.3.6-.4-.2.1-.4.3-.6.4ZM1229,827.4c.3,0,.7,0,1,.1-.1.2-.2.4-.3.6-.2-.2-.4-.5-.7-.7ZM1260.3,719.8s0,0,0,0c0,0-.2,0-.3,0,.1-.1.2-.2.3-.3,0,0,0,.2,0,.3ZM1248.1,122.5c0,.1,0,.2,0,.3,0-.1-.2-.3-.3-.4,0,0,.2,0,.3.1ZM853.9,128.6c0,0,.1,0,.2,0,0,0,0,.2-.1.3,0,0,0-.1-.1-.2,0,0,0,0,0,0ZM94.2,119.8c-.1,0-.2,0-.3-.1,0,0,.2-.1.3-.2,0,0,0,.2,0,.3ZM344.4,848.9s0,0,0,0c0,0,0,0,0,0,0,0,0,0,0,0,0,0,0,0,0,0h0ZM996.4,880.8s0,0,0,0c0,0,0,0,0,0,0,0,0,0,0,0ZM1152.1,853.4s0,0,.1,0c.2-1.2.9.8,0,.1,0,0-.1,0-.2,0,0,0,0-.1,0-.2ZM1276.7,817s0,0,0,0h0s0,0,0,0c0,0,0,0,0,0ZM1284,780.6c0-.4-.2-.7-.3-1.1,1.1,0,1.9.3,2.4.8-.8.1-1.5.2-2.1.3ZM334.9,97.6c-.4-.2-.9-.4-1.2-.6,0-.2.1-.3.2-.5.3.3.7.7,1.1,1ZM229.7,124.6c0,0,.1-.2.2-.3,0,0,0,.1,0,.3,0,0-.2,0-.3,0ZM210.8,87.8c-.1,0-.2,0-.3,0,.1,0,.3-.2.4-.3,0,.1,0,.2,0,.3ZM171.2,142.9c-1.3-.3-2.2-.9-2.7-1.6.9.2,2,.2,3.5.1,0,.5-.3,1-.8,1.5ZM93.1,645.2c-.2.1-.4.2-.5.3,0-.6-.1-1.2-.2-1.8.3.4.6.9.7,1.5ZM91.5,676.9s0,0,0,0c0,0,0,0,0,0,0,0,0,0,0,0ZM78.9,804.7c0,0,.1,0,.2,0,0,0-.1.1-.2.2,0,0,0-.1,0-.2ZM309.6,861.7s0,0,0,0c0,0-.1,0-.2,0,0,0,.1,0,.2-.1,0,0,0,0,0,.1h0c0,0,.2,0,.3,0,0,.1-.1.2-.2.4,0-.1,0-.2,0-.3ZM473.8,815.4c.4.3.7.5,1.1.8-.1.2-.2.3-.3.5-.2-.4-.5-.8-.8-1.2ZM940.4,893.9c0,0,.2,0,.3.1-.1,0-.3,0-.4-.1,0,0,0,0,0,0ZM1113.5,833.2c-.3-.4-.6-.7-1-1.1.6,0,1.1.2,1.6.3-.2.3-.4.5-.7.8ZM1273,857.3s0,0,0,0c0,0,0,0,0,0,0,0,0,0,0,0ZM99.2,641.6c0,0,0,.1,0,.2,0,0,0,0-.1-.1,0,0,.1,0,.2,0ZM269,862.5c0,.7,0,1.2.3,1.6-.3-.1-.7-.2-1.1-.4.3-.4.6-.8.8-1.2ZM267.3,863c.2.2.3.4.5.5-.1,0-.2,0-.3-.1,0-.1,0-.3-.1-.4ZM326.3,864c0,0-.2,0-.2,0,0-.1,0-.3,0-.4,0,.1.1.3.2.4ZM471.4,842.5c.1.2.2.4.1.6,0-.2-.1-.4-.1-.6ZM1272.7,154c.3.2.7.5,1,.7,0,.2-.1.3-.2.5-.2-.4-.5-.8-.7-1.2ZM1211.8,85c-.8-.6-1.2-1.3-1.6-2,.8.4,1.9.8,3.2,1.3-.3.3-.9.6-1.7.8ZM1099,66.5c0-.2-.1-.3-.2-.5-.2-.8-.2-1.3,0-1.7.2.7.2,1.4.1,2.2ZM951.5,63.7c0,0,0,.1,0,.2h0s0,0-.1,0c0,0,0-.1.1-.2ZM592.5,100.3s0,0,0,0c.2.3.4.6.5.9-.1-.3-.3-.6-.4-.8ZM469.3,106.2s0,0,0-.1c0,0,0,0,0,0,0,0,0,0,0,0ZM112.7,893.9c0-.2.1-.3.2-.4,0,0,0,0,0,.1,0,.1-.2.2-.2.3ZM186.9,878.1c.1,0,.3,0,.4.1-.1,0-.3,0-.4,0,0,0,0-.1,0-.2ZM432.3,894.9s0,0,0,0c0,0,0,0,0,0,0,0,0,0,0,0ZM629,896.8c0,0,.1,0,.2,0,0,0-.1,0-.2,0,0,0,0,0,0,0ZM1297.5,211c0-.5-.2-1.1-.3-1.7.1.7.3,1.2.5,1.7,0,0-.1,0-.2,0ZM1142,88.5c0,0-.1,0-.1,0,0,0,0,0,0-.1,0,0,0,0,0,.1ZM1139.9,75.2c0-.1,0-.3-.1-.4.2,0,.4,0,.7,0-.2.2-.4.3-.6.5ZM592.6,99.2c0,.3,0,.7-.2,1-.3-.1-.6-.2-.9-.3.4-.3.8-.5,1.1-.6ZM517.4,63.5c0,0,0-.1-.1-.2,0,0,0,0,.1,0,0,0,0,.1,0,.2ZM265,119.5s0,0,0,0c0,0,0,0,0,0ZM139.1,67.2s0,0,0,0c0,0,0,0,0,0h0ZM106.1,82c0-.3,0-.5,0-.8.2,0,.3.1.5.2-.2.2-.3.4-.5.6ZM56.5,815.9c-.7-.2-1.1-1.1-1.5-2,.6.6,1.1,1.3,1.5,2ZM113.6,894.6s0,0,0,0c0,0,0,0,.1,0,0,0,0,0,0,0ZM650.9,914.3c.1.3.3.6.4.8-.2,0-.4.1-.6.2,0-.3.1-.7.2-1.1ZM1298.8,657.7s0,0,0,0c0,0,0,0,0,0,0,0,0,0,0,0ZM1059.1,71.6s0,0,0,0c-.1,0-.3.1-.4.2.1,0,.2,0,.4-.1ZM1026.6,47.5s0,0,0,0c0,0,0,0,0,0h0s0,0,0,0c0,0,0,0,0,0,0,0,0,0,0,0,0,0,0,0,0,0ZM1021.1,47.5h0c0,0-.1.2-.2.2-.1-.1-.2-.2-.4-.2.2,0,.4,0,.6,0ZM990.6,72.1c-.1-.3-.2-.5-.3-.8.1,0,.2,0,.4,0,0,.3,0,.5,0,.8ZM964.3,49.3c0,0-.2,0-.3,0,0,0,.1,0,.2,0,0,0,0,0,0,0ZM567.9,69.3s0,0,0,0c.1-.1.2-.3.4-.4-.1.2-.3.3-.4.5ZM303.3,68.9c-.3-.2-.5-.4-.8-.6.1,0,.2-.1.3-.2.1.3.3.5.4.8ZM720,899.3c0-.2-.1-.4-.2-.6,0,0,.2,0,.2,0,0,.2,0,.3,0,.5ZM1106.3,893.5c0,.2,0,.5,0,.7-.1-.2-.2-.4-.3-.6,0,0,.2,0,.3-.1ZM1159.7,920.7c0,.2.1.4.2.6-.2,0-.3,0-.5,0,0-.2.2-.3.3-.5ZM1282.4,621s0,0,.1.1c0,0,0,0,0,0,0,0,0-.1,0-.2ZM1315,492.2s0,0,0,0c0,0,0,0,0,0,0,0,0,0,0,0ZM1314.3,482.4c-.1-1.2-.4-2.4-.8-3.7.5,1.3.7,2.5.9,3.6,0,0,0,0,0,.1ZM1283.3,185.9c0-.1.2-.3.2-.4,0,.1-.2.2-.2.4ZM923.7,63.3c0-.4-.1-.8-.2-1.2.2,0,.4,0,.6,0-.1.4-.3.8-.5,1.2ZM277.4,101.7c0,0-.2,0-.3,0,0-.2,0-.4,0-.6.1.2.2.4.3.6ZM41,216.8s0,0,0,.1c-.2.1-.5.2-.7.2.2,0,.4-.2.7-.3ZM1324.4,734.6h0c0,0,0-.1,0-.2,0,0,0,.1.1.2,0,0,0,0-.1,0ZM1315.1,730.6c0,0,0-.1,0-.2,0,0,0,0,0,0,0,0,0,.1,0,.2ZM1315.5,492.4s0,0,0,0c0,0,0,0,0,.1,0,0,0,0,0,0ZM1140.7,54.5c-.1-.2-.2-.4-.3-.6,0,0,.2,0,.3,0,0,.2,0,.4,0,.6ZM1019.2,47.5s0,0,0,0h0c-.3,0-.6-.1-.9-.2.3,0,.6.1.9.2ZM57.7,59.2c.1.1.2.2.3.3-.1,0-.2-.2-.3-.3ZM34.5,379.5c0,.1,0,.3.1.4-.3-.2-.5-.3-.8-.5.2,0,.4,0,.6,0,.6,0,0,.2,0,.1ZM337.1,944.2c.3,0,.6,0,.8,0,0,.1-.2.3-.3.5-.2-.1-.4-.3-.6-.4,0,0,0,0,0,0ZM391.6,928.5c0,0,.1,0,.2,0,0,0-.1,0-.2,0,0,0,0,0,0,0ZM413.9,933.3c0,0,.1,0,.2,0,0,0,0,0,0,0,0,0,0,0-.1,0ZM633.7,924.3c0,0,0,.1,0,.2,0,0-.1-.1-.2-.2,0,0,.1,0,.2,0ZM1328,756.6s0,0,0,0c0,0,0,0,0,0,0,0,0,0,0,0,0,0,.1.1.2.2,0,0-.1,0-.2,0,0,0,0-.2,0-.3ZM1322.6,64s0,0,0,0c0,0,0,0,0,0,0,0,0,0,0,0ZM850.2,26.4s0,0,0-.1c.3,0,.5.2.8.3-.3-.1-.5-.2-.8-.2ZM535.2,26.6c.2,0,.4,0,.6,0,0,0,0,0-.1,0,.5.6-.2.3-.5,0ZM49.8,651.7c.6-.3,1.2-.6,1.7-.9-.5.5-1.1.8-1.7.9ZM149.8,943.5s0,0,0,0c.2.1.4.3.5.5-.2-.2-.4-.3-.6-.5ZM198,947.3c.2,0,.4,0,.5-.1,0,0,0,0,0,0,0,0,0,0,0,0-.2,0-.3,0-.5.1ZM884.1,942.9c0,0,0,0,0-.2,0,0,.2,0,.3.2-.1,0-.2,0-.3,0ZM933.6,939.7c.7,0,1.4,0,2.2,0-.8.4-1.6.3-2.2,0ZM1080.8,948.3c0,0,.2,0,.3,0,.2.5,0,.3-.3,0ZM1213.1,935.7s0,0,0,0c0,0,0,0,0,0,0,0,0,0,0,0Z"/>
    <polygon class="cls-6" points="799.4 107.7 799.4 107.7 799.4 107.7 799.4 107.7 799.4 107.7"/>
    <polygon class="cls-6" points="1116 362.6 1116 362.6 1116 362.6 1116 362.6 1116 362.6"/>
  </g>
  <text class="cls-10" transform="translate(121.9 176.7)"><tspan class="cls-1" x="0" y="0">Bety</tspan><tspan class="cls-2" x="204.1" y="0" xml:space="preserve">   </tspan><tspan class="cls-14" x="285.2" y="0">La Ballena</tspan><tspan class="cls-13"><tspan x="0" y="147.6">Querido usuario, hago esta carta para</tspan></tspan><tspan class="cls-13"><tspan x="0" y="221.4">pedir un pequeño favor.</tspan></tspan><tspan class="cls-13"><tspan x="0" y="369">Déjame pasar por tu pantalla, llego en 5s</tspan></tspan><tspan class="cls-13"><tspan x="0" y="442.8">¡Quedo atenta!</tspan></tspan></text>
  <path class="cls-5" d="M401,100.7c-16.7,42-36.6,82.8-59.5,121.8,16.7-42.1,36.6-82.8,59.5-121.8h0Z"/>
  <path class="cls-4" d="M1160.5,192.9c5.7-16.7,15.6-29.6,26.9-41.3,17.2-17.6,32.5-36.6,44.6-58.1,5.1-9,12-16.3,21.5-21,26.3-13,54.8,3.1,56.4,32.2.6,10.3-2.6,19.7-8.3,28.2-11.7,17.2-28,23.3-48.7,18.3-7-1.7-13.9-3.6-20.9-5-17.7-3.7-31.4,2.7-41.6,17.3-8.7,12.5-13.3,26.8-17.7,41.7,1.9,0,3.5.1,5-.2,7.8-1.7,15.6-3.3,23.2-5.3,9.2-2.4,18.2-5.5,27.8-5.2,3.8.1,7.7.5,11.4,1.4,10.7,2.8,17.6,9.6,19.9,20.5,2.7,13.1.6,25.7-5.9,37.4-5.1,9.1-13.3,13.5-23.6,14.2-11.1.8-21-3.2-30.6-8-4.6-2.3-9.2-4.7-14-6.3-8.4-2.9-13.2,0-13.8,8.7-.5,8-.1,16.1.7,24.1,1.5,14.1,5.1,27.7,11.1,40.7,4.7,10.3,11.7,13.3,22.1,8.8,5.8-2.5,11.3-5.7,16.6-9.2,10.9-7.1,22.4-12.4,35.7-12.6,11-.2,21.4,1.8,30,9,11.3,9.5,15.5,22,12.8,36.3-2.5,13.4-11.5,21.4-24.4,24.9-12.4,3.4-24.5,1.5-36.7-1.8-9.3-2.6-18.7-5.1-28.2-6.7-7.7-1.4-10.9,1.8-11.6,9.7-2,23-4.2,46-5.9,69-.5,7.3,0,14.7.5,22,.5,6.6,4.2,9.2,10.6,7.3,9.5-2.7,18.8-5.9,28.3-8.8,10.3-3.1,20.7-5.5,31.5-4.8,9.8.6,18.9,3.4,26,10.5,16,15.9,11.9,40.1-8.6,50.9-10.6,5.6-21.7,6-33,3.3-9.6-2.3-19-5.6-28.5-8.1-4.6-1.2-9.2-2.2-13.9-2.8-11.2-1.4-20.9,2-29.2,9.6-8.6,7.9-14.9,17.5-21,27.2-24.5,39.4-142.2,262.9-150.6,308.5-1.7,9.2-1.1,18.7-2.3,28-.6,5.1-2.2,10.2-4.3,15-1.2,2.7-3.9,5.2-6.5,6.9-6.2,4-13.2,1.2-14.4-6-.9-5.2-.7-10.9.4-16.1,7.8-37.4,20.4-73.2,36.9-107.6,8.3-17.4,119.2-215.2,128-232.3,3.5-6.7,6.3-13.7,9.1-20.7,1.1-2.7,2.2-5.9-.2-8.3-2.4-2.4-5.6-.8-8.3,0-2.9,1-5.6,2.3-8.4,3.5-12.3,5.3-25,6.8-38.1,3.7-21.8-5.1-32.7-22.7-26.7-45.6,4.2-15.9,15.5-25.4,30.6-30.5,16.2-5.5,31.9-4.1,46.8,4.8,5.8,3.5,12.1,6.5,18.6,8.5,9.6,3.1,16.3-.8,19.4-10.5,1.1-3.5,1.9-7.3,2.1-10.9.8-16.6,1.5-33.3-.9-49.8-1-6.8-3.3-13.5-5.2-20.1-.8-2.8-3-3.5-5.4-1.6-3.4,2.8-6.4,6.1-9.5,9.2-12.2,12.5-25.6,23.4-42.5,29.1-11.8,4-23.7,5-35.5,0-22.8-9.7-30.8-34.9-17.6-55.9,11.3-17.9,28-26.7,48.9-27,9.3-.1,18.6,1.4,28,2.2,4.3.4,8.6,1,12.9,1,4.8,0,6.8-2.2,6.8-7,0-3.4-.5-6.8-.9-10.2-1.7-14.2-3.3-28.4-5.4-42.6-1.3-8.7-2.7-17.6-5.4-26-4-12.5-11.9-17.7-25-16.8-8.5.6-16.9,2.3-25.3,4.1-12.6,2.6-24.9,2.5-36.9-2.3-13-5.3-22.5-13.8-24.1-28.7-.8-7.7.2-15.1,3-22.3,7.1-18.3,19.9-30.9,38.8-36.6,16.9-5.1,31.8-1.3,43.9,11.6,6.1,6.5,11.6,13.6,17.6,20.4,3.2,3.7,6.8,7,10.7,11Z"/>
  <path class="cls-8" d="M1187.3,728.9c-1.7-5.3-4.5-10.2-7.6-14.9-1.8-5-3.9-9.7-6.3-14.3-7.2-13.8-16.8-25.9-28.2-35.8-2.4-2.1-5-3.8-8.8-4.5-24.2,3.7-35.8-16.5-47-35.1-4.4-7.8-16-.8-22.4,5.5-3.1,3.3-6.3,3.9-9.6,4.1-6.5.4-13.2,1.3-19.8,2.8-3.1.7-6.1,1.5-9.1,2.4s-5.9,1.9-8.8,3.1c-3.5,4.8-5.5,11.4-10.5,12.5-24.9,6.5-52.4,17.1-54.1,46.3-1.3,2.6-2.6,5.3-3.7,8-3.4,8.2-6,16.7-7.6,25.5-.3,3.1-.6,6.2,0,9.1,9.6,18.5-.2,37.4,1.4,56.4,1,12.1,9.3,21.7,19.1,27.7,2.2,2.5,4.3,5,6.3,7.4,20.4,24.2,49.7,40,81.7,43.2,3.2.3,6.6.2,10.8-1.6,16.8-9.5,34.5-1.2,52.2-.8,7.1.2,11.4-7.8,12.6-14.7,2.7-1.7,5.4-3.4,8-5.3,14.6-10.4,26.6-23.9,35.3-39.3,2.9-5.1,5.4-10.5,7.6-16,.7-18.4,6.3-36.4,10.3-53.7.8-6,.2-12.2-1.8-18.3Z"/>
  <circle class="cls-12" cx="1064.4" cy="756.4" r="105.2"/>
  <g>
    <path class="cls-8" d="M1054.5,811.1c-.9-3.4-.9-6.9,0-10.8.6-2.9.4-6.9-4.6-9.6-13.8-7.3-23.7-18.7-30.3-34.9-1.1-2.7-1.8-5.7-2.5-8.9-.2-1-.4-1.9-.6-2.9-1.2-5-4.5-6.5-7.1-6.8-5.9-.9-9.5-3.7-11.3-8.8l-2.1-9.2c0,0,.2,0,.3,0,1.1-.1,2.2-.2,3.3-.2,5.1,0,9.6,1.6,13.7,4.9,1,.8,2.5,1.8,4.6,1.8s4.5-1.4,5.9-4.3c2.8-5.7,7.2-9.4,13.3-11.4.3-.1.6-.2.8-.2,0,.1,0,.3.1.5.2,1,.5,2,.7,3,.7,2.9,1.4,5.3,1,7.7-.6,4.4-2.5,7.7-5.7,10.2-1.1.8-3.5,2.7-3.5,5.9,0,3.2,2.6,5.1,3.5,5.8,2.7,2,5.7,3,9.1,3s2.9-.2,4.5-.5c10.6-2.4,21.3-4.8,32-7.2l9-2c1.7-.4,3.3-.8,5-1.1,3.6-.8,7.4-1.7,11.1-2.4,1.4-.3,2.7-.4,3.9-.4,3.6,0,6.7,1.1,9.6,3.5,1,.8,1.5,2,2.4,4,0,.2.2.4.3.6l.5,2.1c0,1.8.3,3.6,1.2,5.2l.2.7c1.1,9.1-.6,17.8-5.3,26-6.6,11.7-15.6,18.9-27.6,21.9-3.6.9-7.5,1.8-11.4,1.8s-.5,0-.8,0c-.1,0-.2,0-.3,0-2.8,0-5.2,1.2-6.7,3.2-3.5,4.7-7.8,7.6-13.4,9.1l-2.6.6Z"/>
    <path class="cls-8" d="M1034.4,716.5c.4,1.6.6,2.9.5,3.9-.4,3.1-1.6,5.3-3.9,7-1.3,1-5.4,4.2-5.4,9.8,0,3.7,1.8,7,5.4,9.7,3.5,2.7,7.6,4,12.1,4s3.6-.2,5.6-.7c10.6-2.4,21.3-4.8,31.7-7.2l9.2-2.1c1.7-.4,3.4-.8,5-1.2,3.8-.9,7.3-1.7,10.9-2.4,1-.2,2-.3,3-.3,2.5,0,4.5.7,6.4,2.3.3.3.7,1.4,1.1,2.2,0,0,0,.2.1.2l.3,1.1c0,2.2.5,4.3,1.4,6.3.9,7.9-.7,15.6-4.7,22.7-5.9,10.5-13.9,16.9-24.6,19.6-3.3.9-6.9,1.6-10.2,1.6s-.4,0-.7,0c-.2,0-.3,0-.5,0-4.4,0-8.1,1.9-10.6,5.2-2.1,2.9-4.7,5-7.8,6.3,0-1.1.2-2.3.5-3.5,1.4-6.3-1.3-11.8-7.1-14.9-12.7-6.7-21.9-17.4-28.1-32.5-1-2.4-1.6-5.1-2.2-8.1-.2-1-.4-2-.7-2.9-1.9-8.3-8.4-10.2-11.1-10.6-4.6-.7-6.3-2.6-7.3-5.3l-.7-3.1c3,.4,5.6,1.6,8.1,3.6.9.7,3.6,2.9,7.6,2.9s7.3-.9,10.3-7c1.5-3.1,3.6-5.5,6.4-7.1M1038.1,704.9c-.8,0-1.7.2-2.6.5-7.4,2.4-12.8,7-16.2,13.9-.5,1-.9,1.5-1.5,1.5s-.9-.3-1.6-.8c-5-4-10.6-5.9-16.7-5.9s-2.6,0-3.9.2c-3.3.4-4.2,1.1-4.8,4.4.8,3.7,1.7,7.3,2.5,11,2.5,7.3,7.8,11.1,15.3,12.2,1.9.3,2.6,1.4,3,3.1,1,4.2,1.7,8.4,3.3,12.5,6.6,16.2,16.9,29.1,32.6,37.4,1.8,1,2.6,2.1,2.1,4.2-1,4.4-1,8.9.2,13.4.6,2.1,1.5,3.6,3.9,3.6h0c1.5-.3,2.9-.7,4.4-1,6.7-1.7,12-5.4,16.1-10.9.7-.9,1.7-1.3,2.8-1.3,0,0,.1,0,.2,0,.3,0,.6,0,1,0,4.3,0,8.5-.9,12.6-2,13.8-3.5,23.8-12.1,30.7-24.3,5.1-9,7.2-18.8,5.8-29.2-.1-.6-.2-1.1-.4-1.7-.7-1.2-1-2.5-.9-3.9-.2-1.1-.5-2.2-.7-3.3-1.1-2.5-2-5-4.2-6.8-3.9-3.2-8.1-4.6-12.7-4.6-1.6,0-3.2.2-4.8.5-5.4,1.1-10.8,2.4-16.2,3.6-13.7,3.1-27.3,6.1-41,9.2-1.2.3-2.3.4-3.4.4-2.2,0-4.3-.6-6.2-2.1-2.1-1.6-2.1-2.4,0-4,4.4-3.4,6.8-7.9,7.6-13.4.6-4.4-1-8.4-1.9-12.5-.6-3-2.2-4.4-4.5-4.4h0Z"/>
  </g>
  <g>
    <path class="cls-3" d="M1127.1,746c-1.4-1-1.3-2.4-.9-3.9l.9,3.9Z"/>
    <path class="cls-3" d="M1126.2,742.1c-.4,1.4-.5,2.8.9,3.9-.3-1.3-.6-2.6-.9-3.9h0Z"/>
  </g>
  <path class="cls-7" d="M1079,794.9c1.6-4.7,2.4-9.4,1.7-14.2-.1-1,.6-1.2,1.3-1.5,8.5-2.6,14-8.3,17.3-16.5,3.4-8.5,10.4-12.5,18.9-14.4,2.6-.6,1.7,1.5,1.7,2.5.4,9.2-2.1,17.6-7.2,25.2-7.5,11.1-18,17.2-31.2,18.8-.7,0-1.5,0-2.4,0Z"/>
  <path class="cls-7" d="M1085.4,748.1c1.9-.4,4.1,1,4.5,2.9.4,1.9-1,4.1-2.9,4.5-1.9.4-4.1-1-4.5-2.9-.4-1.9,1-4.1,2.9-4.5Z"/>
  <text class="cls-9" transform="translate(127.9 822.6)"><tspan x="0" y="0">Permitir</tspan></text>
  <text class="cls-11" transform="translate(520.9 822.6)"><tspan x="0" y="0">Negar</tspan></text>
  <path class="cls-8" d="M495.9,737.1c-16.7,42-36.6,82.8-59.5,121.8,16.7-42.1,36.6-82.8,59.5-121.8h0Z"/>
</svg>