<?xml version="1.0" encoding="UTF-8"?>
<svg id="Capa_1" data-name="Capa 1" xmlns="http://www.w3.org/2000/svg" version="1.1" viewBox="0 0 894 894">
  <defs>
    <style>
      .cls-1 {
        fill: #fff;
        stroke-width: 0px;
      }
    </style>
  </defs>
  <path class="cls-1" d="M36.5,20c62.3,41.9,120.4,89,177.6,137.4,94,80.3,183.3,166,269,254.9,119.9,125.1,233.9,256.4,333.2,398.6,14.2,20.6,28.2,41.4,41.2,63.1-21.1-13.9-41.4-28.7-61.4-43.7-138.2-104.8-264.9-224-385.2-348.7-85.5-89.2-167.6-181.7-244.1-278.8C120.7,143.8,75.9,83.9,36.5,20h0Z"/>
  <path class="cls-1" d="M857.5,20c-39.4,63.9-84.2,123.8-130.3,182.8-76.5,97.1-158.6,189.6-244.1,278.8-120.3,124.7-246.9,243.8-385.1,348.7-20,15-40.3,29.8-61.4,43.7,13.1-21.7,27-42.5,41.2-63.1,99.3-142.2,213.4-273.5,333.2-398.6,85.7-89,175-174.7,269-254.9,57.1-48.4,115.2-95.6,177.6-137.4h0Z"/>
</svg>