<?xml version="1.0" encoding="UTF-8"?>
<svg id="Capa_1" data-name="Capa 1" xmlns="http://www.w3.org/2000/svg" version="1.1" viewBox="0 0 431.9 170.7">
  <defs>
    <style>
      .cls-1 {
        fill: #8a7400;
      }

      .cls-1, .cls-2, .cls-3 {
        stroke-width: 0px;
      }

      .cls-2 {
        fill: #f2ff4a;
      }

      .cls-3 {
        fill: #a8b222;
      }
    </style>
  </defs>
  <g>
    <polygon class="cls-2" points="422.1 148.6 353 142.5 249.7 148.6 135.7 156.1 39.5 148.6 9.8 156.1 9.8 115.9 23 70.7 9.8 14.6 74.4 14.6 132.8 25 341 14.6 422.1 14.6 414.2 82.2 422.1 148.6"/>
    <g>
      <path class="cls-1" d="M132.2,59.6h-.2l-12.1,6.5-1.8-7.2,15.2-8.1h8v69.6h-9.1v-60.9Z"/>
      <path class="cls-1" d="M206.5,57.4c-1.9-.1-4.4,0-7.1.4-14.8,2.5-22.6,13.3-24.2,24.7h.3c3.3-4.4,9.1-8,16.8-8,12.3,0,21,8.9,21,22.5s-8.7,24.5-23.1,24.5-24.6-11.6-24.6-29.7,4.9-24.5,11.8-31.4c5.8-5.7,13.5-9.2,22.3-10.3,2.8-.4,5.1-.5,6.9-.5v7.7ZM203.8,97.6c0-10-5.7-16-14.4-16s-10.9,3.5-13.5,8.6c-.6,1.1-1.1,2.5-1.1,4.2.2,11.5,5.5,19.9,15.3,19.9s13.6-6.8,13.6-16.7Z"/>
      <path class="cls-1" d="M268,84.9c0,23.7-8.8,36.7-24.2,36.7s-22.8-12.7-23-35.8c0-23.4,10.1-36.2,24.2-36.2s23,13.1,23,35.3ZM230.2,85.9c0,18.1,5.6,28.4,14.1,28.4s14.2-11.3,14.2-29-4.4-28.4-14.1-28.4-14.2,10.1-14.2,29Z"/>
      <path class="cls-1" d="M276.7,120.4v-5.8l7.4-7.2c17.8-16.9,25.8-25.9,25.9-36.4,0-7.1-3.4-13.6-13.8-13.6s-11.6,3.2-14.8,5.9l-3-6.6c4.8-4.1,11.7-7.1,19.7-7.1,15,0,21.3,10.3,21.3,20.2s-9.3,23.2-24,37.4l-5.6,5.1v.2h31.3v7.8h-44.5Z"/>
    </g>
  </g>
  <path class="cls-3" d="M414.3,82.7c-.2,0-35.1,5.6-35.2,5.6,0,0-13.1-19.8-13.2-19.9,0,0,13.5,19.6,13.5,19.6h-.2c0,0,35-6.3,35-6.3l.2,1h0Z"/>
  <polygon class="cls-3" points="39.2 148.2 55.4 138.8 55.3 139.2 47.5 120.4 55.8 139 55.9 139.2 55.7 139.3 39.7 149.1 39.2 148.2 39.2 148.2"/>
  <path class="cls-3" d="M23.2,70.2l27.8,15.2c-1,.2,24.1-12.4,23.9-12.4,0,0-23.9,12.8-23.9,12.8-.1,0,0,0-.2,0,0,0-28-14.7-28-14.7,0,0,.5-.9.5-.9h0Z"/>
  <polygon class="cls-3" points="133 24.5 161.4 38.8 132.6 25.4 133 24.5 133 24.5"/>
</svg>