<?xml version="1.0" encoding="UTF-8"?>
<svg id="Capa_1" data-name="Capa 1" xmlns="http://www.w3.org/2000/svg" version="1.1" xmlns:xlink="http://www.w3.org/1999/xlink" viewBox="0 0 426 525">
  <defs>
    <style>
      .cls-1, .cls-2, .cls-3, .cls-4 {
        stroke-width: 0px;
      }

      .cls-1, .cls-5, .cls-6, .cls-7, .cls-8 {
        fill: #a67c52;
      }

      .cls-9, .cls-5, .cls-10, .cls-6, .cls-11, .cls-12, .cls-7, .cls-13, .cls-14, .cls-15, .cls-16, .cls-17, .cls-8, .cls-18, .cls-19, .cls-20 {
        stroke: #000;
      }

      .cls-9, .cls-5, .cls-10, .cls-6, .cls-12, .cls-7, .cls-13, .cls-21, .cls-14, .cls-15, .cls-22, .cls-23, .cls-17, .cls-8, .cls-24, .cls-18, .cls-19, .cls-20 {
        stroke-miterlimit: 10;
      }

      .cls-9, .cls-5, .cls-6, .cls-11, .cls-14, .cls-22, .cls-16, .cls-8, .cls-18, .cls-19 {
        stroke-linecap: round;
      }

      .cls-9, .cls-5, .cls-11, .cls-14, .cls-16, .cls-18, .cls-19 {
        stroke-width: 4.7px;
      }

      .cls-9, .cls-16 {
        fill: #4d4d4d;
      }

      .cls-2, .cls-18 {
        fill: #5e272d;
      }

      .cls-25, .cls-21 {
        fill: #f2f2f2;
      }

      .cls-3, .cls-10, .cls-12, .cls-13, .cls-23 {
        fill: #000;
      }

      .cls-10, .cls-17, .cls-20 {
        stroke-width: 1.9px;
      }

      .cls-6 {
        stroke-width: 3.7px;
      }

      .cls-11, .cls-4, .cls-19 {
        fill: #637292;
      }

      .cls-11, .cls-16 {
        stroke-linejoin: round;
      }

      .cls-12, .cls-23 {
        stroke-width: 1.4px;
      }

      .cls-7, .cls-13 {
        stroke-width: 3.7px;
      }

      .cls-21, .cls-24 {
        stroke: #006837;
        stroke-width: 6px;
      }

      .cls-14 {
        fill: #8c6239;
      }

      .cls-15 {
        fill: #b87c52;
        stroke-width: 2.8px;
      }

      .cls-26 {
        clip-path: url(#clippath);
      }

      .cls-22 {
        fill: #1a1a1a;
        stroke-width: 2.9px;
      }

      .cls-22, .cls-23 {
        stroke: #1a1a1a;
      }

      .cls-17 {
        fill: #3e7400;
      }

      .cls-8 {
        stroke-width: 3.8px;
      }

      .cls-24 {
        fill: none;
      }

      .cls-20 {
        fill: #fff;
      }
    </style>
    <clipPath id="clippath">
      <rect class="cls-21" x="24.9" y="32.2" width="376.1" height="460.5"/>
    </clipPath>
  </defs>
  <rect class="cls-25" x="24.9" y="32.2" width="376.1" height="460.5"/>
  <g class="cls-26">
    <g>
      <g>
        <path class="cls-18" d="M207.8,649.1c-2.2,14.9-16.5,25.8-32.6,22.6-12.5-2.5-21.6-13.8-21.6-26.6,0-.4,0-.8,0-1.3h0v-35.3c0-32.5,26.3-58.8,58.8-58.8h0c32.5,0,58.8,26.3,58.8,58.8v34.7c0,15.3-12.3,27.9-27.6,27.8-13.5-.2-24.6-9.1-26.6-21.9-.4-2.3-2.3-4.1-4.6-4.1h0c-2.4,0-4.3,1.8-4.6,4.1Z"/>
        <g>
          <path class="cls-9" d="M163.4,1026.4l-45.4,18.3c-7.5,3-12.4,10.3-12.4,18.3v9.9h94.6c3.6,0,5.9-3.8,4.1-7l-2.2-3.9,3-35.7h-41.7Z"/>
          <circle class="cls-5" cx="184.2" cy="1017.8" r="22.6"/>
          <polygon class="cls-14" points="105.6 1073 105.6 1089.8 120.4 1089.8 119.6 1082.4 133.7 1082.4 133.7 1089.8 154.4 1089.8 154.4 1081.4 184.2 1081.4 184.2 1089.8 201.4 1089.8 201.4 1072.9 105.6 1073"/>
          <polyline class="cls-16" points="127.4 1055.9 136.6 1037.2 157 1043.5"/>
        </g>
        <g>
          <circle class="cls-2" cx="180.9" cy="645.7" r="25.4"/>
          <path class="cls-18" d="M153.7,642l-9.3,172v11.5c0,17.4,14.4,31.3,31.8,30.8h0c16.5-.5,29.7-13.9,29.9-30.4l.2-14.8,1.6-162"/>
        </g>
        <g>
          <circle class="cls-2" cx="175.7" cy="826.4" r="28"/>
          <path class="cls-18" d="M144.4,828.4l8.4,194.7c.1,2.9,3.6,4.4,5.8,2.5l6.7-5.7c9.8-8.4,24.2-8.7,34.3-.7l8.2,6.5c2.3,1.8,5.8,0,5.7-2.9l-7.4-196.8"/>
        </g>
        <g>
          <path class="cls-9" d="M263.2,1025.9l45.4,18.3c7.5,3,12.4,10.3,12.4,18.3v9.9h-94.6c-3.6,0-5.9-3.8-4.1-7l2.2-3.9-3-35.7h41.7Z"/>
          <circle class="cls-5" cx="242.3" cy="1017.3" r="22.6"/>
          <polygon class="cls-14" points="320.9 1072.5 320.9 1089.2 306.1 1089.2 306.9 1081.9 292.9 1081.9 292.9 1089.2 272.1 1089.2 272.1 1080.9 242.3 1080.9 242.3 1089.2 225.1 1089.2 225.1 1072.4 320.9 1072.5"/>
          <polyline class="cls-16" points="299.1 1055.4 289.9 1036.7 269.5 1043"/>
        </g>
        <g>
          <circle class="cls-2" cx="244.3" cy="645.7" r="25.4"/>
          <path class="cls-18" d="M271.5,642l9.3,172v11.5c0,17.4-14.4,31.3-31.8,30.8h0c-16.5-.5-29.7-13.9-29.9-30.4l-.2-14.8-1.6-162"/>
        </g>
        <g>
          <circle class="cls-2" cx="249.8" cy="826.4" r="28"/>
          <path class="cls-18" d="M281,828.4l-8.4,194.7c-.1,2.9-3.6,4.4-5.8,2.5l-6.7-5.7c-9.8-8.4-24.2-8.7-34.3-.7l-8.2,6.5c-2.3,1.8-5.8,0-5.7-2.9l7.4-196.8"/>
        </g>
        <g>
          <g>
            <g>
              <path class="cls-11" d="M213.1,291.7l81.6,20.4c20.2.3,36.6,16.8,36.6,37.1s-1.9,13.4-5.2,19c-6.8,11.4-12.4,23.4-17.6,35.6l-24.2,56.7-9.4,133.2-15.2,19.8-13.9-19.8-16.7,9.9-3.6-22.3-13.1,34.3-11.2-21.8-3.6,9.9-16.7-9.9-13.9,19.8-15.2-19.8-9.4-133.2-24.2-56.7c-5.2-12.2-10.8-24.2-17.6-35.6-3.3-5.5-5.2-12-5.2-19,0-20.3,16.3-36.8,36.6-37.1l81.6-20.4h-.6Z"/>
              <path class="cls-19" d="M213.7,291.7"/>
            </g>
            <circle class="cls-4" cx="213.7" cy="546.7" r="22.9"/>
          </g>
          <path class="cls-5" d="M172.3,302.3s43.6,118.5,81.7,0l-40.7-11.1-41,11.1Z"/>
        </g>
        <g>
          <g>
            <circle class="cls-4" cx="132" cy="348.7" r="34.7"/>
            <path class="cls-19" d="M95.5,349.3l-3.1,157.8v9.1c0,10.9,8.9,19.8,19.8,19.8h0c10.9,0,19.8-8.9,19.8-19.8v-8.4l4.9-124.8"/>
          </g>
          <path class="cls-8" d="M93.7,442.6l40.5,10-2.2,55.1v8.4c0,10.9-8.9,19.8-19.8,19.8h0c-10.9,0-19.8-8.9-19.8-19.8v-9.1l1.3-64.4Z"/>
        </g>
        <g>
          <circle class="cls-1" cx="112.2" cy="517" r="17.3"/>
          <path class="cls-5" d="M92.4,516.2l14.9,132,1.6,6.9c1.9,8.2,10,13.4,18.3,11.5h0c8.7-1.9,13.9-10.8,11.3-19.3l-1.5-4.9-5.2-123.1"/>
        </g>
        <g>
          <path class="cls-5" d="M110.4,658.7l-1.9,31.3c.2,1.7,3.9,12.7,5.4,13.5l9.6,5.3c1.2.7,2.6.8,3.9.4l15.1-4.4c2.1-.6,3.6-2.4,3.7-4.6l.6-8.3c0-.8,0-1.6-.4-2.4l.5-15.6c-.5-.9.4-1.8,1.3-1.4l6.7,8.2c2.1,2.6,6,2.5,8.1-.1h0c1.7-2.2,1.3-5.4-.8-7.1l-23.2-24.8"/>
          <ellipse class="cls-1" cx="123.4" cy="651" rx="13.6" ry="13.6"/>
        </g>
        <g>
          <g>
            <circle class="cls-4" cx="294.8" cy="348.7" r="34.7"/>
            <path class="cls-19" d="M331.3,349.3l3.1,157.8v9.1c0,10.9-8.9,19.8-19.8,19.8h0c-10.9,0-19.8-8.9-19.8-19.8v-8.4l-4.9-124.8"/>
          </g>
          <path class="cls-8" d="M333.2,442.6l-40.5,10,2.2,55.1v8.4c0,10.9,8.9,19.8,19.8,19.8h0c10.9,0,19.8-8.9,19.8-19.8v-9.1l-1.3-64.4Z"/>
        </g>
        <g>
          <circle class="cls-1" cx="314.4" cy="517" r="17.3"/>
          <path class="cls-5" d="M334.2,516.2l-14.9,132-1.6,6.9c-1.9,8.2-10,13.4-18.3,11.5h0c-8.7-1.9-13.9-10.8-11.3-19.3l1.5-4.9,5.2-123.1"/>
        </g>
        <g>
          <path class="cls-5" d="M316,657.9l1.9,31.3c-.2,1.7-3.9,12.7-5.4,13.5l-9.6,5.3c-1.2.7-2.6.8-3.9.4l-15.1-4.4c-2.1-.6-3.6-2.4-3.7-4.6l-.6-8.3c0-.8,0-1.6.4-2.4l-.5-15.6c.5-.9-.4-1.8-1.3-1.4l-6.7,8.2c-2.1,2.6-6,2.5-8.1-.1h0c-1.7-2.2-1.3-5.4.8-7.1l23.2-24.8"/>
          <ellipse class="cls-1" cx="303" cy="650.2" rx="13.6" ry="13.6"/>
        </g>
      </g>
      <g>
        <g id="Cuello">
          <path class="cls-6" d="M241.3,311.6l-1.7-56c-2.2-15.6-4.6-29.9-20.4-29.7h-11.4c-16,.2-17.5,15.2-19,31.2v55.6"/>
        </g>
        <path class="cls-7" d="M169.9,242.2c-11.9-.4-19.6-9.9-19.2-21.9.3-8.4,5.3-15.5,12.3-18.8l6.9,40.7Z"/>
        <path class="cls-7" d="M259.4,240.6c11.9-.8,19.3-10.5,18.5-22.5-.5-8.4-5.7-15.3-12.9-18.4l-5.6,40.9Z"/>
        <g>
          <path class="cls-7" d="M212.7,139.2l28.4,6.2c9.4,3,17.3,9.2,22.4,17.6h0c4.2,6.9,6,15.1,4.9,23.1l-5.8,60.2c-1.2,12.3-8.3,23.2-19.1,29.1h0c-6.9,3.8-14.6,5.8-22.4,6h-6"/>
          <path class="cls-7" d="M213.1,139.1l-27.3,7.3c-8,3-14.9,8.4-19.7,15.6l-.4.7c-5,7.5-6.9,16.5-5.5,25.4l7.1,59.2c1.5,12.5,9.1,23.4,20.4,29l.4.2c6.9,3.4,14.5,5.2,22.2,5.1h6.2"/>
          <path class="cls-7" d="M212.9,139.2"/>
        </g>
        <path class="cls-3" d="M239.8,239.9c2.8,0,2.8-4.3,0-4.3s-2.8,4.3,0,4.3h0Z"/>
        <g>
          <path class="cls-3" d="M192.6,251.7c13.8-1.5,27.7-1.7,41.5-.6-13.8,1.5-27.7,1.7-41.5.6h0Z"/>
          <path class="cls-3" d="M197,252.3c9.5,1.2,19.1.3,28.7,0,1.4,0,2.8-.1,4.1-.1-9.9,2.6-23.1,4-32.8.1h0Z"/>
        </g>
        <path class="cls-15" d="M221.8,239.1l-16,.2c-1.6,0-2.7-1.5-2.1-3l9.7-25.9h0l10.4,25.6c.6,1.4-.5,3-2,3.1Z"/>
        <g>
          <g>
            <path class="cls-20" d="M172.9,204.1s8.6-15.7,32.9,0c0,0-7.1,5.7-32.9,0Z"/>
            <path class="cls-17" d="M178.7,198.9s-1.9,5,1.2,6.5c0,0,17.1,1.3,22.2,0,0,0,2-1.5,0-3.6,0,0-12-8.1-23.4-3Z"/>
            <path class="cls-10" d="M187.2,198.6s-5.7,3.3,0,7.3c0,0,5.3.7,6.2.2,0,0,3.1-2,.6-6.3,0,0-2.5-2.3-6.8-1.1Z"/>
          </g>
          <g>
            <path class="cls-3" d="M178.7,209.8s11.4,2.9,21.4,0"/>
            <path class="cls-3" d="M178.7,209.8c7.2.5,14.3.9,21.4,0-6.7,2.9-14.7,2.5-21.4,0h0Z"/>
          </g>
        </g>
        <path class="cls-12" d="M205.4,192.7c-5.9.1-24.5.8-32.8,3.4-.4.1-.7-.4-.3-.7,4.2-3,14.8-8.9,33.2-7.8,1,0,1.7.9,1.7,1.9v1.4c0,1-.8,1.8-1.8,1.9Z"/>
        <line class="cls-22" x1="259.4" y1="184.8" x2="265.7" y2="167.2"/>
        <line class="cls-22" x1="222.2" y1="213.4" x2="165.9" y2="235.8"/>
        <path class="cls-23" d="M231.2,184.1h28.9v20.3c0,5.4-4.4,9.7-9.7,9.7h-28.9v-20.3c0-5.4,4.4-9.7,9.7-9.7Z"/>
        <path class="cls-13" d="M216.7,133.1c30.2-10.3,45.7-.4,53.7,11.4,6.6,9.8,8.4,22,5.6,33.5l-10.8,44-.2-1.5c-2.1-15.9-8-31.2-17.1-44.4h0s-3.2,8.1-3.2,8.1l-23.2-12.9-11.4,10,2.8-19.9-28.2,22.8-3.2-8.1h0c-9.1,13.2-15,28.5-17.1,44.4l-.2,1.5-10.8-44c-2.8-11.4-1-23.7,5.6-33.5,8-11.7,23.5-21.7,53.7-11.4l2,6,2-6Z"/>
      </g>
    </g>
  </g>
  <rect class="cls-24" x="24.9" y="32.2" width="376.1" height="460.5"/>
</svg>