<?xml version="1.0" encoding="UTF-8"?>
<svg id="Capa_1" data-name="Capa 1" xmlns="http://www.w3.org/2000/svg" version="1.1" xmlns:xlink="http://www.w3.org/1999/xlink" viewBox="0 0 426 525">
  <defs>
    <style>
      .cls-1 {
        fill: #c69c6d;
        stroke-width: 3px;
      }

      .cls-1, .cls-2, .cls-3, .cls-4, .cls-5, .cls-6, .cls-7, .cls-8, .cls-9, .cls-10, .cls-11, .cls-12, .cls-13, .cls-14 {
        stroke: #000;
        stroke-miterlimit: 10;
      }

      .cls-2, .cls-3, .cls-4, .cls-5, .cls-6, .cls-8, .cls-10, .cls-11 {
        stroke-linecap: round;
      }

      .cls-2, .cls-3, .cls-5, .cls-6, .cls-8, .cls-10, .cls-11 {
        stroke-width: 4.4px;
      }

      .cls-2, .cls-15 {
        fill: none;
      }

      .cls-16, .cls-17 {
        fill: #f2f2f2;
      }

      .cls-3, .cls-4, .cls-18, .cls-12, .cls-14 {
        fill: #d9a96d;
      }

      .cls-19, .cls-20, .cls-21, .cls-18, .cls-22, .cls-23, .cls-24 {
        stroke-width: 0px;
      }

      .cls-19, .cls-11, .cls-13 {
        fill: #000;
      }

      .cls-4 {
        stroke-width: 4px;
      }

      .cls-5, .cls-21 {
        fill: #534741;
      }

      .cls-20, .cls-24 {
        fill: #ffe56d;
      }

      .cls-6 {
        fill: #fbb03b;
      }

      .cls-15, .cls-17 {
        stroke: #1b1464;
        stroke-linejoin: round;
        stroke-width: 6px;
      }

      .cls-7 {
        fill: #999;
        stroke-width: 1.5px;
      }

      .cls-8, .cls-23 {
        fill: #1b1464;
      }

      .cls-9 {
        stroke-width: 2px;
      }

      .cls-9, .cls-22 {
        fill: #fff;
      }

      .cls-25 {
        clip-path: url(#clippath);
      }

      .cls-10 {
        fill: #22b573;
      }

      .cls-24 {
        fill-rule: evenodd;
      }

      .cls-12 {
        stroke-width: 4px;
      }

      .cls-13 {
        stroke-width: .9px;
      }

      .cls-14 {
        stroke-width: 3.8px;
      }
    </style>
    <clipPath id="clippath">
      <rect class="cls-17" x="24.9" y="32.2" width="376.1" height="460.5"/>
    </clipPath>
  </defs>
  <rect class="cls-16" x="24.9" y="32.2" width="376.1" height="460.5"/>
  <g class="cls-25">
    <g>
      <g>
        <path class="cls-5" d="M295.1,867.1c1.1,23.3-16.9,43.8-40.2,45.5-25.1,1.8-46.1-17.7-46.7-42.3h-5.2c-.6,24.4-21.3,43.9-46.2,42.3-22.3-1.4-40.3-20.1-40.7-42.5,0-2,0-4,.3-5.9,1.1-9.9,1.8-19.8,1.8-29.8v-79c0-48.6,39.4-88,88-88h0c48.6,0,88,39.4,88,88v89.3c0,6.6,0,13.3.8,19.9,0,.8.2,1.7.2,2.5Z"/>
        <polyline class="cls-5" points="205.7 788.6 205.7 838.7 205.7 867.3"/>
        <path class="cls-5" d="M206.8,838.8s24.4-21.5,0-48.8"/>
        <g>
          <circle class="cls-11" cx="251.8" cy="1414.1" r="38.8"/>
          <path class="cls-11" d="M290.6,1418.9l39.5,23.7c17,10.2,27.4,4.2,27.4,24h0s-144.4,0-144.4,0v-47.7h77.5Z"/>
          <rect class="cls-6" x="213" y="1466.6" width="144.4" height="12.2"/>
          <path class="cls-22" d="M329.3,1454.4c2.9,0,2.9-4.6,0-4.6s-2.9,4.6,0,4.6h0Z"/>
          <path class="cls-22" d="M308.3,1444.6c2.9,0,2.9-4.6,0-4.6s-2.9,4.6,0,4.6h0Z"/>
          <path class="cls-22" d="M290.7,1435.3c2.9,0,2.9-4.6,0-4.6s-2.9,4.6,0,4.6h0Z"/>
        </g>
        <g>
          <circle class="cls-11" cx="157.4" cy="1413.5" r="38.8"/>
          <path class="cls-11" d="M118.7,1418.2l-39.5,23.7c-17,10.2-27.4,4.2-27.4,24h0s144.4,0,144.4,0v-47.7h-77.5Z"/>
          <rect class="cls-6" x="51.8" y="1466" width="144.4" height="12.2"/>
          <path class="cls-22" d="M79.9,1453.7c2.9,0,2.9-4.6,0-4.6s-2.9,4.6,0,4.6h0Z"/>
          <path class="cls-22" d="M101,1444c2.9,0,2.9-4.6,0-4.6s-2.9,4.6,0,4.6h0Z"/>
          <path class="cls-22" d="M118.6,1434.7c2.9,0,2.9-4.6,0-4.6s-2.9,4.6,0,4.6h0Z"/>
        </g>
        <g>
          <circle class="cls-21" cx="251.6" cy="869.7" r="41.2"/>
          <path class="cls-5" d="M295.2,867.3l37.4,224.1v2.7c-.9,34.4-29.1,61.9-63.5,61.9h0c-35.4,0-64-29-63.4-64.5v-1.9s1.1-219.1,1.1-219.1"/>
        </g>
        <g>
          <circle class="cls-21" cx="268.4" cy="1092.3" r="59.3"/>
          <path class="cls-5" d="M331.8,1091l-26.7,302.2c-1,11.3-10.4,19.9-21.7,19.9h-56.6c-12.1,0-21.9-9.8-21.8-21.9l1-287"/>
        </g>
        <g>
          <circle class="cls-21" cx="159.8" cy="869.7" r="41.2"/>
          <path class="cls-5" d="M116.2,867.3l-37.4,224.1v2.7c.9,34.4,29.1,61.9,63.5,61.9h0c35.4,0,64-29,63.4-64.5v-1.9s-1.8-219.1-1.8-219.1"/>
        </g>
        <g>
          <circle class="cls-21" cx="142.2" cy="1092.7" r="59.3"/>
          <path class="cls-5" d="M78.8,1091.4l26.7,302.2c1,11.3,10.4,19.9,21.7,19.9h56.6c12.1,0,21.9-9.8,21.8-21.9l-1-287"/>
        </g>
        <g>
          <g>
            <path class="cls-10" d="M82.7,339.7c-.2,0-.5,0-.7,0h0s.7,0,.7,0Z"/>
            <path class="cls-10" d="M330.1,339.7h-.7.7Z"/>
            <line class="cls-2" x1="82" y1="339.7" x2="82" y2="339.7"/>
            <path class="cls-10" d="M329.4,339.7c.2,0,.5,0,.7,0h0s-.7,0-.7,0ZM82,339.7h.7-.7Z"/>
            <path class="cls-8" d="M349.8,344h0l-.6-.6c-34.3-33.8-76.7-58.3-123.1-71.1l-5.2-1.4c-10.2-2.8-20.9-2.8-31.1,0l-6.2,1.7c-12.3,3.4-24.3,7.7-35.9,12.7-31.8,13.7-60.8,33.1-85.7,57.5l-2.6,2.6h0c-16.3,8.5-27.5,25.5-27.5,45.2s1.4,13.9,4.1,20l54,158.6h0s14.9,66.6,14.9,66.6l9.5,124c1.2,15.4,14.1,27.4,29.6,27.4h124.4c15.5,0,28.3-11.9,29.6-27.3l9.8-124.6,15.2-68.1,53.1-155.9c2.8-6.3,4.4-13.3,4.4-20.7,0-20.8-12.5-38.8-30.5-46.6ZM259.6,288.5l-25.3,33.2c-14.6,19.1-43.4,19.1-58,0l-25.2-33.2c-2-.5-2.1-3.3-.1-3.9l36.1-12c11.8-3.9,24.7-3.9,36.5,0l36.2,12c2,.6,1.9,3.4-.1,3.9Z"/>
            <path class="cls-10" d="M259.6,288.5l-25.3,33.2c-14.6,19.1-43.4,19.1-58,0l-25.2-33.2c-2-.5-2.1-3.3-.1-3.9l36.1-12c11.8-3.9,24.7-3.9,36.5,0l36.2,12c2,.6,1.9,3.4-.1,3.9Z"/>
            <path class="cls-3" d="M304.3,306.7l-12.8,7c-22.3,12.1-44.5,24.6-65.5,39-12.4,8.5-28.9,8.5-41.3,0-17.7-12.2-35.2-24.6-53.4-36l-20.6-12.8c-2-.5,38.4-18.6,40.3-19.2l36.1-12c11.8-3.9,24.7-3.9,36.5,0l36.2,12c2,.6,46.5,21.6,44.5,22.1Z"/>
          </g>
          <circle class="cls-23" cx="206.8" cy="741.3" r="30.1"/>
        </g>
        <g>
          <circle class="cls-23" cx="79.8" cy="391.3" r="45.9"/>
          <path class="cls-8" d="M31.8,388.5s-38.7,78.9-16.5,204.4l.3,6.5c.2,15.1,12.5,27.2,27.6,27.2h0c15.3,0,27.6-12.4,27.6-27.6v-4.2s34.1-111.6,15.5-157.5"/>
        </g>
        <g>
          <circle class="cls-23" cx="43.2" cy="600" r="25.1"/>
          <path class="cls-8" d="M18.9,610.8c-1.5,78.4,12.3,119.3,20.9,136.9h49.5c3.9-65-18.5-148.7-18.5-148.7"/>
          <path class="cls-3" d="M89.3,736.2c-.1,1.8.4,7,.8,11.9.5,6.2,0,12.4-1.2,18.5h0c.5,11.5-8.2,21.3-19.7,22h0c-11.8.8-22-8.3-22.6-20.1l-3.3-10s-3.5-12.5-7.2-20.1l53.2-2.3Z"/>
        </g>
        <g>
          <circle class="cls-18" cx="67.5" cy="766.4" r="19.5"/>
          <path class="cls-3" d="M46.1,768.6l-15.6,45c-.6,3.3.5,26.2,2.8,28.5l15.3,15.3c1.9,1.9,4.5,3,7.2,3h31c4.3,0,8.1-2.7,9.5-6.7l5.7-15.5c.5-1.5.7-3.1.6-4.7l-3.9-19.1c-.5-1.9,1.8-3.3,3.3-2l6.7,6.3c.8.7,1.5,1.6,2,2.5,3,5.1,9.9,6.7,14.8,3.1h0c3.9-2.8,5.2-7.9,3.3-12.2-.4-1-1.1-1.9-1.8-2.7l-37.9-42.3"/>
        </g>
        <g>
          <circle class="cls-23" cx="331.1" cy="391.9" r="45.9"/>
          <path class="cls-8" d="M379.1,389s38.7,78.9,16.5,204.4l-.3,6.5c-.2,15.1-12.5,27.2-27.6,27.2h0c-15.3,0-27.6-12.4-27.6-27.6v-4.2s-34.1-111.6-15.5-157.5"/>
        </g>
        <g>
          <circle class="cls-23" cx="368.8" cy="600" r="25.1"/>
          <path class="cls-8" d="M393.2,610.7c1.5,78.4-12.3,119.3-20.9,136.9h-49.5c-3.9-65,18.5-148.7,18.5-148.7"/>
          <path class="cls-3" d="M322.8,736.1c.1,1.8-.4,7-.8,11.9-.5,6.2,0,12.4,1.2,18.5h0c-.5,11.5,8.2,21.3,19.7,22h0c11.8.8,22-8.3,22.6-20.1l3.3-10s3.5-12.5,7.2-20.1l-53.2-2.3Z"/>
        </g>
        <g>
          <circle class="cls-18" cx="343.8" cy="766.9" r="19.5"/>
          <path class="cls-3" d="M365.1,769l15.6,45c.6,3.3-.5,26.2-2.8,28.5l-15.3,15.3c-1.9,1.9-4.5,3-7.2,3h-31c-4.3,0-8.1-2.7-9.5-6.7l-5.7-15.5c-.5-1.5-.7-3.1-.6-4.7l3.9-19.1c.5-1.9-1.8-3.3-3.3-2l-6.7,6.3c-.8.7-1.5,1.6-2,2.5-3,5.1-9.9,6.7-14.8,3.1h0c-3.9-2.8-5.2-7.9-3.3-12.2.4-1,1.1-1.9,1.8-2.7l37.9-42.3"/>
        </g>
      </g>
      <g>
        <path class="cls-14" d="M152,224.1c-17.8-.6-29.3-14.9-28.7-32.7.4-12.5,7.9-23.1,18.5-28.1l10.3,60.9Z"/>
        <path class="cls-14" d="M269.1,223.6c17.8-.6,29.3-14.9,28.7-32.7-.4-12.5-7.9-23.1-18.5-28.1l-10.3,60.9Z"/>
        <g id="Cuello">
          <path class="cls-4" d="M261.3,308.2l-2.2-59.6c-3.3-16.6-24.3-31.7-48.3-31.3h0c-24.4.4-44.2,16.4-46.7,33.4l-.2,59.2"/>
        </g>
        <g>
          <path class="cls-12" d="M208.2,87.4l45.1,19.3c10.9,3.4,20.1,10.7,26,20.4h0c4.9,8,6.9,17.5,5.7,26.8l-8.9,68.2-32.1,54.2-33,.3"/>
          <path class="cls-12" d="M208.7,87.3l-43.9,20.6c-9.3,3.5-17.3,9.8-22.8,18.1l-.5.8c-5.8,8.7-8,19.2-6.4,29.4l11,67.5,33.4,53.2,33-.3"/>
          <path class="cls-12" d="M208.4,87.4"/>
        </g>
        <g>
          <path class="cls-19" d="M190.5,244.1c14.6-1.6,29.4-1.8,44.1-.7-14.6,1.6-29.4,1.8-44.1.7h0Z"/>
          <path class="cls-19" d="M195.2,244.7c10.1,1.3,20.3.3,30.5,0,1.5,0,2.9-.1,4.4-.1-10.5,2.8-24.6,4.3-34.9.1h0Z"/>
        </g>
        <path class="cls-1" d="M225.7,222.4l-25.1.4c-2.5,0-4.2-1.9-3.3-3.7l15.3-32.1h0l16.3,31.6c.9,1.8-.7,3.8-3.2,3.8Z"/>
        <g>
          <path class="cls-9" d="M202.8,175.3s-19.8-22.8-48.6,0c0,0,16.7,25.8,48.6,0Z"/>
          <path class="cls-19" d="M162.5,189.7c11,.6,23.1-.2,32.4-6.8,2.8-2.1,5.6-4.9,7-8,0,0,1.8.7,1.8.7-.9,1.9-2.1,3.4-3.5,4.9-9.7,9.8-24.7,10.5-37.7,9.2h0Z"/>
          <circle class="cls-7" cx="178.5" cy="175.3" r="9.9"/>
          <ellipse class="cls-13" cx="179" cy="175" rx="5.6" ry="5.8"/>
          <path class="cls-19" d="M151.9,173c14.6-13.1,37-17.4,50.2,0-1.7-1.6-3.4-3.2-5.3-4.5-13.8-10.4-32-4.5-44.9,4.5h0Z"/>
        </g>
        <g>
          <path class="cls-24" d="M151.3,161c-.2,0-.3,0-.4-.2-.1-.2-.1-.5,0-.6,6.7-7.6,32.1-8.4,42.7-8.4h.5c1.8,0,3.2.8,3.2,1.8v1.2c0,.4-.1.7-.4,1-.6.6-1.7.9-2.9.9s-.5,0-.8,0c-3-.4-6.1-.6-9.4-.6-16.7,0-32.1,4.9-32.3,4.9,0,0-.1,0-.2,0Z"/>
          <path class="cls-19" d="M193.6,152.2c.2,0,.3,0,.5,0,1.5,0,2.6.6,2.6,1.3v1.2c0,.8-1.3,1.4-2.8,1.4s-.5,0-.7,0c-3.2-.4-6.3-.6-9.5-.6-17,0-32.5,4.9-32.5,4.9,6.7-7.6,33.1-8.2,42.3-8.2M193.6,151.1c-10.7,0-36.2.8-43.1,8.6-.3.4-.4.9,0,1.3.2.3.5.5.9.5s.2,0,.3,0c.2,0,15.5-4.9,32.1-4.9s6.4.2,9.4.6c.3,0,.6,0,.8,0,1.4,0,2.6-.4,3.3-1.1.4-.4.6-.9.6-1.4v-1.2c0-1.4-1.6-2.4-3.7-2.4h-.5Z"/>
        </g>
        <g>
          <path class="cls-24" d="M271.1,160.6c0,0-.1,0-.2,0-.2,0-15.6-4.9-32.3-4.9s-6.5.2-9.4.6c-.3,0-.5,0-.8,0-1.2,0-2.3-.4-2.9-.9-.3-.3-.4-.6-.4-1v-1.2c0-1.1,1.4-1.8,3.2-1.8h.5c10.6,0,36,.8,42.7,8.4.2.2.2.4,0,.6-.1.2-.3.2-.4.2Z"/>
          <path class="cls-19" d="M228.8,151.8c9.1,0,35.6.7,42.3,8.2,0,0-15.5-4.9-32.5-4.9-3.1,0-6.3.2-9.5.6-.2,0-.5,0-.7,0-1.5,0-2.8-.6-2.8-1.4v-1.2c0-.7,1.2-1.3,2.7-1.3.2,0,.3,0,.5,0M228.8,150.7h-.5c-2.1,0-3.7,1-3.7,2.4v1.2c0,.5.2,1,.6,1.4.7.7,1.9,1.1,3.3,1.1s.6,0,.8,0c2.9-.4,6.1-.6,9.3-.6,16.6,0,32,4.8,32.1,4.9.1,0,.2,0,.3,0,.4,0,.7-.2.9-.5.3-.4.2-.9,0-1.3-6.8-7.8-32.4-8.6-43.1-8.6h0Z"/>
        </g>
        <g>
          <path class="cls-9" d="M222.6,174.9s19.8-22.8,48.6,0c0,0-16.7,25.8-48.6,0Z"/>
          <path class="cls-19" d="M262.9,189.4c-12.9,1.3-28,.5-37.7-9.2-1.4-1.4-2.6-2.9-3.5-4.9l1.8-.7c1.4,3.2,4.2,6,7,8,9.3,6.5,21.4,7.4,32.4,6.8h0Z"/>
          <circle class="cls-7" cx="246.9" cy="174.9" r="9.9"/>
          <ellipse class="cls-13" cx="246.5" cy="174.6" rx="5.6" ry="5.8"/>
          <path class="cls-19" d="M273.5,172.6c-12.9-9-31.1-14.8-44.9-4.5-1.9,1.3-3.6,2.9-5.3,4.5,2.9-3.7,6.5-6.9,10.8-8.9,13.3-6.3,29-.2,39.3,8.9h0Z"/>
        </g>
        <g>
          <path class="cls-20" d="M137.2,170.7c-.5,0-1-.2-1.2-.7-16.1-24.5-4.7-44.7-2.9-47.6,1.9-23.8,18.1-32.7,18.8-33.1.2-.1.5-.2.7-.2.5,0,1,.3,1.3.8.4.7.1,1.6-.6,2-1,.6-1.6,1.3-1.8,2.4-.5,1.9.4,4.5,1.2,6.3,15.5-21,32.9-25.5,44.9-25.5s9.4.9,11.5,1.5c3.6-17.1,15.5-19.6,16.1-19.7,0,0,.2,0,.3,0,.6,0,1.1.3,1.3.8.3.6.2,1.3-.4,1.8-3.5,3-5.1,6-4.9,8.9.3,3.6,3.6,6.2,4.5,6.9,30.6,5,43.6,22.4,47.8,29.6,1.9-3.5,5.1-4,6.6-4s1.5.2,1.6.2c.4.1.7.4.9.7.2.4.2.8.1,1.2-2.7,8.2,3.2,16.1,3.3,16.2.1.2.2.3.3.5,8.2,31.6-1.5,44.7-1.9,45.3-.3.4-.7.6-1.2.6s-.3,0-.4,0c-.6-.2-1-.6-1.1-1.2-3.3-25.6-15.1-32-19.5-33.5-.8,8.5-10.3,12.7-15.5,13.8,0,0-.2,0-.3,0-.4,0-.7-.1-1-.4-.3-.3-.5-.8-.5-1.3.7-6-.6-11.1-3.9-15.1-5.9-7-16.4-8.9-20.5-9.4.5,15.5-11.2,28.1-11.7,28.7-.3.3-.7.5-1.1.5s-.4,0-.6-.1c-.6-.3-.9-.9-.9-1.5,1.9-16.5-18-25.4-23-27.3l-15.3,26.9c-.3.5-.8.7-1.3.7s-.1,0-.2,0c-.6,0-1.1-.5-1.2-1.1-1-3.4-4.7-12.4-10-12.4s-12,19.1-17,36.9c-.2.6-.6,1-1.2,1.1,0,0-.1,0-.2,0Z"/>
          <path class="cls-19" d="M225.6,58.2c-12.2,10.6,0,18.2,0,18.2,38,6.1,48.6,31.9,48.6,31.9,1.1-5.4,4.5-6.2,6.4-6.2.7,0,1.2.1,1.2.1-3,9.1,3.5,17.6,3.5,17.6,8.1,31.3-1.7,44-1.7,44-4.2-32.7-22.4-35.2-22.4-35.2.7,11.2-14.4,14.2-14.4,14.2,3-24.8-27.5-26.3-27.5-26.3,1.4,15.9-11.2,29.3-11.2,29.3,2.3-20.2-25.1-29.3-25.1-29.3l-16,28s-3.8-13.5-11.4-13.5-18.5,38-18.5,38c-16.9-25.9-2.6-46.3-2.6-46.3,1.7-23.6,18.1-32.3,18.1-32.3-6.1,3.5,0,12.7,0,12.7,15.6-22.4,33.4-26.8,45.1-26.8,7.7,0,12.7,1.9,12.7,1.9,3-17.8,15.2-20.2,15.2-20.2M152.7,90.6h0M225.6,55.3c-.2,0-.4,0-.6,0-.5.1-12.7,2.7-16.9,19.4-2.4-.6-6-1.2-10.4-1.2-12,0-29.1,4.3-44.5,24-.3-1.1-.4-2.1-.2-2.9.1-.6.5-1,1.1-1.4.9-.5,1.5-1.5,1.5-2.6s-1.2-2.9-2.8-3c0,0-.1,0-.2,0-.2,0-.5,0-.7,0-.3,0-.5.2-.8.3-1.4.8-17.5,10-19.5,33.9-1.1,1.8-3.8,6.8-5.1,13.9-1.4,8.1-1.2,20.8,8.1,35,.6.8,1.5,1.3,2.5,1.3s.3,0,.4,0c1.1-.2,2.1-1,2.4-2.1,0,0,2.6-8.9,6-17.9,6.1-16,9.3-17.8,9.7-17.9,4,.1,7.4,7.6,8.5,11.3.3,1.2,1.3,2,2.5,2.1.1,0,.2,0,.4,0,1.1,0,2-.6,2.6-1.5l14.7-25.8c6.1,2.6,22.5,10.9,20.9,25.3-.1,1.3.5,2.5,1.7,3,.4.2.8.3,1.3.3.8,0,1.6-.3,2.2-.9.5-.5,11.7-12.7,12.1-28,4.6.7,13,2.8,17.9,8.6,3.1,3.6,4.3,8.3,3.6,13.9-.1.9.2,1.9.9,2.5.6.5,1.3.8,2,.8s.4,0,.6,0c5.3-1.1,14.4-5.1,16.4-13.1,4.8,2.3,14,9.6,16.9,31.6.2,1.2,1,2.2,2.2,2.5.3,0,.5.1.8.1.9,0,1.8-.4,2.4-1.2.4-.6,10.5-14.2,2.2-46.5-.1-.4-.3-.8-.5-1.1,0,0-5.5-7.4-3-14.8.3-.8.2-1.6-.2-2.4-.4-.7-1.1-1.3-1.9-1.5-.2,0-.9-.2-2-.2-1.2,0-4.2.3-6.5,2.8-5.3-8.2-18.9-23.6-47.3-28.3-1-.8-3.4-2.8-3.6-5.6-.2-2.4,1.3-4.9,4.4-7.6,1-.9,1.3-2.3.7-3.5-.5-1-1.5-1.7-2.7-1.7h0ZM225.6,61.2h0,0Z"/>
        </g>
      </g>
    </g>
  </g>
  <rect class="cls-15" x="24.9" y="32.2" width="376.1" height="460.5"/>
</svg>