<?xml version="1.0" encoding="UTF-8"?>
<svg id="Capa_1" data-name="Capa 1" xmlns="http://www.w3.org/2000/svg" version="1.1" xmlns:xlink="http://www.w3.org/1999/xlink" viewBox="0 0 426 525">
  <defs>
    <style>
      .cls-1, .cls-2 {
        fill: #333;
      }

      .cls-2, .cls-3, .cls-4, .cls-5, .cls-6, .cls-7, .cls-8, .cls-9, .cls-10, .cls-11 {
        stroke-miterlimit: 10;
      }

      .cls-2, .cls-5, .cls-7, .cls-8, .cls-12, .cls-13, .cls-11 {
        stroke: #fff;
      }

      .cls-2, .cls-7 {
        stroke-width: 6px;
      }

      .cls-14, .cls-15, .cls-16 {
        stroke-width: 0px;
      }

      .cls-14, .cls-4, .cls-5, .cls-8, .cls-12, .cls-13, .cls-11 {
        fill: #000;
      }

      .cls-3 {
        fill: #ed1c24;
      }

      .cls-3, .cls-4, .cls-6, .cls-10 {
        stroke: #000;
      }

      .cls-3, .cls-6, .cls-10 {
        stroke-width: 1.9px;
      }

      .cls-15 {
        fill: #373737;
      }

      .cls-4 {
        stroke-width: 1.5px;
      }

      .cls-5 {
        stroke-width: 4px;
      }

      .cls-6 {
        fill: #770e12;
      }

      .cls-7, .cls-9 {
        fill: none;
      }

      .cls-8 {
        stroke-width: 4px;
      }

      .cls-8, .cls-12, .cls-13, .cls-11 {
        stroke-linecap: round;
      }

      .cls-17 {
        clip-path: url(#clippath);
      }

      .cls-12 {
        stroke-width: 5.1px;
      }

      .cls-12, .cls-13 {
        stroke-linejoin: round;
      }

      .cls-9 {
        stroke: #313131;
        stroke-width: .8px;
      }

      .cls-16 {
        fill: #fff;
      }

      .cls-13 {
        stroke-width: 5.2px;
      }

      .cls-10 {
        fill: #b2151b;
      }

      .cls-11 {
        stroke-width: 4.9px;
      }
    </style>
    <clipPath id="clippath">
      <rect class="cls-2" x="24.9" y="32.2" width="376.1" height="460.5"/>
    </clipPath>
  </defs>
  <rect class="cls-1" x="24.9" y="32.2" width="376.1" height="460.5"/>
  <g class="cls-17">
    <g>
      <g>
        <path class="cls-13" d="M286.5,655.9c55.1,137.8,59.5,297.6,14.3,440.6l-17.2,54.5,1.1,2.1c22.1,42.7,23.7,96.5,4.2,141l-67.3,153.7v-1.9l-67.8-152c-20.1-45-18.5-99.7,4.2-142.8h0s-17.2-54.5-17.2-54.5c-19.7-62.4-30-128-30.8-193.6-1-84.7,14-169.3,45-247v-5.7c.4-36,29.7-65.1,65.7-65.1h0c35.9,0,65.2,28.9,65.7,64.8v6Z"/>
        <line class="cls-11" x1="220.8" y1="716.1" x2="220.8" y2="1378.4"/>
        <path class="cls-16" d="M281.4,698.6c1.5,0,1.5-2.3,0-2.3s-1.5,2.3,0,2.3h0Z"/>
        <path class="cls-16" d="M163.3,737c1.5,0,1.5-2.3,0-2.3s-1.5,2.3,0,2.3h0Z"/>
        <path class="cls-16" d="M198.7,955.6c1.5,0,1.5-2.3,0-2.3s-1.5,2.3,0,2.3h0Z"/>
        <path class="cls-16" d="M144,927.6c1.5,0,1.5-2.3,0-2.3s-1.5,2.3,0,2.3h0Z"/>
        <path class="cls-16" d="M297.7,1073.8c1.5,0,1.5-2.3,0-2.3s-1.5,2.3,0,2.3h0Z"/>
        <path class="cls-16" d="M150,1246.7c1.5,0,1.5-2.3,0-2.3s-1.5,2.3,0,2.3h0Z"/>
        <path class="cls-16" d="M284.4,1268.9c1.5,0,1.5-2.3,0-2.3s-1.5,2.3,0,2.3h0Z"/>
        <path class="cls-16" d="M260.8,1166.9c1.5,0,1.5-2.3,0-2.3s-1.5,2.3,0,2.3h0Z"/>
        <path class="cls-16" d="M256.3,801.1c2.2,0,2.2-3.4,0-3.4s-2.2,3.4,0,3.4h0Z"/>
        <path class="cls-16" d="M303.6,908.9c2.2,0,2.2-3.4,0-3.4s-2.2,3.4,0,3.4h0Z"/>
        <path class="cls-16" d="M191.3,1071.5c2.2,0,2.2-3.4,0-3.4s-2.2,3.4,0,3.4h0Z"/>
        <g>
          <path class="cls-15" d="M137,1009.8c0-.2-.1-.2-.4.1v.4s.4-.5.4-.5Z"/>
          <path class="cls-15" d="M134.8,1011.5c-.2.4-.5,1-.1.9.2-.5.3-.5.5-1.1.3-.3.5-.5.6-.3,0-.1.5-.4.5-.7-.5.3-.9.7-1.3,1.3-.1,0,0,0,0-.1Z"/>
          <path class="cls-15" d="M150.6,993.3h-.2c0,0,.1,0,.2,0Z"/>
          <path class="cls-15" d="M169.7,979.5c-.1,0-.2,0-.2,0,.1,0,.2,0,.2,0Z"/>
          <path class="cls-15" d="M166.8,981.3c0,0,.1,0,.2-.1,0,0-.2,0-.2.1Z"/>
          <path class="cls-15" d="M150.6,993.3l.6-.3c0,0-.3.1-.6.3Z"/>
          <path class="cls-15" d="M130,1016.2c.2-.1.3-.2.5-.4-.1,0-.3.2-.4.3,0,0,0,0,0,0Z"/>
          <path class="cls-15" d="M142.5,1000h-.1c0,.2,0,.3,0,.3l.2-.3Z"/>
          <path class="cls-15" d="M136.8,1005.8c.1-.1,0-.3,0-.4,0,.1,0,.3-.2.4,0,0,0,0,.2,0Z"/>
          <path class="cls-15" d="M129.6,1015.3l.2-.2c0,0-.2.1-.2.2Z"/>
          <path class="cls-15" d="M146.9,996.2s0,0,.1,0c0,0,0,0-.1,0Z"/>
          <path class="cls-15" d="M141.5,992s0,0,0,0c0,0,0,0,0,0Z"/>
          <path class="cls-15" d="M150.6,989.9h-.1s0,0,0,0h.2Z"/>
          <path class="cls-15" d="M160.7,985.5s0,0,0,0c.1-.1,0,0,0,0Z"/>
          <path class="cls-15" d="M152.2,993.7c-.7.5.7-1.2-.3-.4.1,0-.5,1.1.3.4Z"/>
          <path class="cls-15" d="M129.8,1016.3l-.4.2c.2,0,.3-.2.4-.2Z"/>
          <path class="cls-15" d="M151.9,993.3h0s0,0,0,0c0,0,0,0,0,0Z"/>
          <path class="cls-15" d="M148.3,998c0,0,.1,0,.2,0,0,0,0,0-.2,0Z"/>
          <path class="cls-15" d="M157.5,988.9l-.2.2c.1,0,.2-.1.2-.2Z"/>
          <path class="cls-15" d="M143.8,1003c-.1.1-.2.1-.3.3,0,0,0,0,0,0,0,0,.1-.2.3-.3Z"/>
          <path class="cls-15" d="M138.8,1008s0,0,.1,0c0,0,.1-.1.1-.2l-.3.2Z"/>
          <path class="cls-15" d="M147.6,1009.7c-.2,0-.3-.1-.3-.2.1.2-1,.2.3.2Z"/>
          <path class="cls-15" d="M130.1,1015.9c-.1.1-.2.2-.3.3,0,0,.2-.1.3-.2,0,0,0-.1,0-.1Z"/>
          <path class="cls-15" d="M144.8,1004.4l-.8.8c.2-.2.5-.5.8-.8Z"/>
          <path class="cls-15" d="M136.1,1005.8v-.2c0,0,0,.2,0,.2Z"/>
          <path class="cls-15" d="M141.6,1007.5c-.2,0-.4.2-.5.3,0,0,0,0,0,.1l.6-.5Z"/>
          <path class="cls-15" d="M147.3,1009.5h0s0,0,0,0Z"/>
          <path class="cls-15" d="M140.1,1006.1c.7,1,.6.3.8.4,1,1,.3.6.5,1.1.7.6,1.4.8,2,1.1,0,0,.1.1,0,.1.5.1,1.1.4,1.8.5.7.2,1.4.2,1.9,0,0,0,.1,0,.1,0-.2-.2-.2-.3-.1-.4.5,0,.9-.1,1.1,0-.3,0-.3,0-.5.1h.5c.5.2-.7,0-.7.2,1,0,2.1-.3,2.9-.3.2.3-1.8.2-.8.4-.4,0-.8,0-1.2,0,.9.4-.7,0,.1.4.8,0,1.3,0,1.7-.1.5,0,.9-.2,1.8-.4.3-.3-.2-.2.1-.4,1.1-.6,1.5-.8,1.9-1,.4-.2.8-.4,1.1-1.3,0-.5-.2-.8.4-1.8l.2.5c.5-1.5-.1-.9.4-2.5,0,.3-.2,1.2,0,1,.5-1,0-.8.1-1.5h.3c.2-1.7.1-3.5.1-5.3,0,0,.2.4.2,0,0-1.1,0-2.3,0-3.5,0-.6,0-1.1,0-1.8,0-.6-.2-1.4-.8-2.1-.3-.3-.7-.4-1-.5-.2-.1-.4-.3,0-.2-.9-.5-.1.1-.6,0-.5-.2-.7-.3-.3-.3-.9-.1-2.1,0-3.2.5-1.1.4-2,1.1-2.7,1.6l.2-.3c-1,.8-.7,1.3-1.6,2v-.2c-1.6,2-3.2,4.3-4.7,5.6,0,.5-1.7,1.9-1.5,2.3-1.1,1-.9.6-2.3,2.2-.3.5-.3.9-.6,1.5h-.2c0-.1-.3.8-.3.8l-.5.3c0,.2-.2.4-.3.6.1-.2.4-.4.4-.4-.4.9-1.3,2.2-1.4,2.2v.4c-.2.2-.2.3-.3.5l-.2,1c-.1.6-.2,1.2-.2,1.7-.1,0,0-.6,0-1,0,1.6-.3.9-.4,1.9,0,0,.3,0,.5-.2-.2,0,.3-.2.4-.3.4,0,1-.1,1.8-.4.4-.1.8-.4,1.2-.6.2-.1.4-.3.5-.3.1,0,.2-.2.3-.2v.2c1.6-1,2.9-2.5,4.3-3.9-.6.4-.6.1-.2-.3h.3c.2-.3-.5.4,0-.3.6-.5.6-.1.3.2l.6-.7c0,0,0,.2,0,.3.2-.4,1.3-.9,1.5-1.4h0c1.4-1.3,2-2,3.2-3.1-.1-.2.4-.6.6-1,.9-.8,2-1.6,3-2.6.6-.8,0-.3.3-.8.2,0,1.2-1,.8-.3,1.2-1.3,1.5-1.6,2.8-3.4-.2.1-.4.3-.4.2.2-.3.6-.7.7-.6h0c.2-.2.4-.6.7-.9.3-.3.5-.7.8-1.1.7-1,1.5-2.1,2.3-3.4,0,0-.2-.1-.3-.2-.1,0-.3,0-.5-.1-.3,0-.6-.1-.9-.2-.6,0-1.3,0-1.9.3,0,0,.1,0,.2,0-.5.2-1,.4-1.5.7-.4.3-.6.5-.9.7-.8.6.4-.5-.3-.1-.8.9-1.4,1.6-1.9,2.3-.5.6-1,1.2-1.4,2-.6.3-1.4,1.1-2.3,1.8-1,.8-2.1,1.6-3,2h.2c-.3.4-.5.3-.8.5.1,0,.5-.2.3,0-3.2,2.7-6.4,5.7-9.3,8.8-1,1.1,0,1.1-1.6,2.4l.2-.6c-.5.7-.9,1.2-1.5,1.9l-1.4,1.6c-.4.5-1.1,1.1-1,1.4,0,.3-.2.7-.3.9h0c0,.1,0,.2,0,.2,0,0,0,.1,0,.2.1.2.3.4.5.5.8.4,1.6.4,2.4,0-.2.1-.3.3-.6.3.1,0,.4,0,.7-.1.3-.1.7-.3,1.1-.6.4-.2.7-.5,1-.7.2-.2.3-.3.3-.4.6-.4.3,0,.6-.2.6-.3,1.1-1.3,1.5-1.3,0,0,0,.2-.2.3.3-.3,1.5-1.3,1-1.2.9-.7,1.5-1.6,2.2-2.2.2-.6,1.5-1.3,1.3-1.7.2.3,1.6-1.2,2-1.8,0,.2.5-.4.4,0,.6-.6,1.1-1.2.8-1.2,1.4-.8,1.9-2.4,2.9-2.6,1.6-1.9,3.1-3.6,4.5-5.2.2.3-1.7,1.8-1.3,1.9,1.4-1.6,2-2.6,3.5-4.1.4-.3-.1.3-.2.5,1.4-1.6,2.7-2.9,3.9-4.3,0,0,0,.2-.2.3.2-.3.6-.5.5-.6l-.2.3c-.6.2.7-1.3.7-1.4-.2.7,1.5-1.1,1.1,0,.2-.2.3-.4.2-.5.3-.2.4-.2.2.1,1-.8.5-.7,1.4-1.4,0,0-.1.2-.2.4.4-.5.8-.9,1.6-1.5,0,0,.1,0-.1.2,1.4-1,2.2-2,3.7-3.1-.2.6.6-.3.8-.2.2-.3.5-.5.7-.8l-.4.2c.7-.6,1-1.4,1.6-2l-.3.6.5-.6.5-.7-.8-.2c-.4,0-.8-.1-1.1,0,.4,0,.7,0,1.1.2l.6.2-.4.4h0s0,0,0,0l.3-.6h-.5c-.5,0-.5,0-.5,0,0,0,0,0-.7,0,.1,0-.1,0-.4,0-.3,0-.7.2-1,.3h0c-.3.3-.6.7-1.1,1.1-.2,0-.1-.3-.3-.3-.1.5-1.3,1.6-1.5,2.1,0-.2,0-.3,0-.3v.4c-.5.2-.6.2-.6,0-1,.6.5,0-.7.8,0,0,0,0,.2-.2-1.2.7-2.4,1.5-3.6,2.2-.5,0,1-.7.5-.7-.8.5-1.7,1.3-2.3,2-.7.8-1.3,1.5-2,2.2l.3-.2c0,.5-1.1.8-1.7,1.5.2-.2,0-.4,0-.3-1,.7-2.1,1.5-3.7,2.6l.2-.2c-.7.3-1.7,1-2.5,1.5-.1.2-.5.5-.2.4-2.5,1-3.7,3.2-5.6,4.3.2-.2.4-.5.3-.4-.5.4-.9.9-1.3,1.4.2,0,.3,0,.6-.3-.1.2-.4.7-.8,1,.5-.7-.2-.2-.5,0,0,0,0,.1,0,.1-.9.5.1.4-1,1.2h0c-.3.3-.6.7-1,1.1-.3,0,.3-.5.2-.6-.5.6-.8,1.4-1.4,1.7.2-.3.5-.6.7-.9-.7.4-.7.5-1.1.9h0s-1,.8-1,.8l.3-.2c-.3,1.1-1.3,1.5-1.9,2.7.6-1.2,0-.3-.1-.5-.3.2-.7.5-.6.4-.3.6-.8.7-1.2,1.5,0,0-.4.5-.5.3-.5.7.2,0,.2,0-.3.6-.8,1.1-1.4,1.7-.3.3-.5.6-.8,1-.3.5-.7,1.1-.8,1.6-.4.9-.4,1.2-.4,1.6,0,.3,0,.7-.1,1.2-.4.8-.3,0-.3,0-.1.4-.4,1-.1.9.4-.2.8-.5,1.2-.8-.2.2-.2.2,0,.2.6-.4.6-.7,1.3-1.1-.2.2-.4.6-.8.9.8-.6,1.6-1.4,2.3-2,.2,0-.4.6-.7.9.2-.2.5-.4.8-.6.2-.2.6-.5.7-.6.3-.3.6-.6.6-.8l-.4.3c.2-.2.2,0,0,.2-.2.3-.4.4-.6.6-.2.1-.3,0-.3,0l.4-.4c-.4,0-.7.3-1.2.8-.5.5-1.2,1.1-1.7,1.4.3-.3.5-.5.7-.8-.4.4-.8.7-1.2,1.1,0,0,0,0,0-.2,0-.1.3-.3.5-.5-.2,0-.5.4-.7.5,0,0-.1,0,0,0,0-.1,0-.1.1-.2,0,0,0-.2,0-.3.1,0,.5-.6.4-.2.3-.7.3-.9.3-1.1,0-.2,0-.4.4-.7h0c.2-.5.2-.5,0-.5-.1,0-.3.2,0-.5.4-.3.7-.3,1-.5v-.3c0-.1.3-.4.3-.3.3-.6-.2,0,0-.4.7-.6,1.5-1.9,1.9-1.8,0-.4-.7.5-.1-.2.5,0,.7-.9,1.4-1.3,0,.3-.6.8,0,.3,0-.6,1.1-1.1,1.5-1.7-.2-.2.9-1.2,1.6-2.1,0,.1,1.6-1.5,2.4-2.1h0c0-.3.8-1,1.3-1.6,0,.1,0,.3-.2.6l.5-.5c0-.2.2-.4.5-.7v.3c.7-.7,1.3-1.5,2.4-2.3,0-.2-1.1.3-.2-.7.1,0,.3.2,0,.4,0,0,.3-.3.5-.4l-.3.5c.5-.3.1-.3.5-.6,0,.1.3-.1.4,0,0,0-.4.2-.5.4.4-.3,1-.6,1.2-.7,0,0-.1-.2.2-.4.8-.6.4,0,.9-.3.1-.2.7-.5.6-.7.2-.2.3-.1.5-.1.4-.4,2-1.3,1.4-1.2h-.1s0,0,0,0h0s0,0,0,0c1.3-1.1,3.1-1.7,4.4-2.8h0c.8-.6,1.7-1.5,2.1-2.1.2-.2.6-.4.6-.3.5-.6.5-.7,1.4-1.4-.5.6.3-.1-.5.6.8-.6,1-.7,1.7-1.5-.2.4.7-.2,1.1-.5l-.6.3c.4-.3.8-.5,1.2-.8v.3c.8-.4,1.6-.9,2.3-1.5.7-.6,1.3-1.2,2.1-1.6.3-.5-.9.7-.7.2.8-.7,1.6-1.2,1.8-1.4.5-.4.6-.6.7-.9.1-.2.3-.5.9-.6,0,0-.2,0-.2-.2,0,0,.2-.3.6-.3.3,0,.5.1.6.2l-.2-.4c-.2.1-.3,0-.2-.2l.3.9s0,0-.1,0c-.2,0-.2,0-.2,0-.2,0-.5.1-.2.2h0c.1,0,.3,0,.5,0l-.4-1.1c-.3.3-.6.7-.6.5-.4.6,0,.3.3,0-.8.8-1.2,1.4-2.1,2.1.2,0,.4-.1.2,0-1.4,1.1-.5.6-1.4,1.4-.6.3,0-.4-.9.4-.7.4-.3,0,0-.3-.8.8-1.8,1.1-2.3,1.5l.4-.4c-.3.2-.5.4-.8.6h.4c-.3.1-.5.3-.6.2-.2.3.4,0,0,.6-.4.2-1.1.9-1.4.8,1.2-.8-.3,0,.7-.9-.2.2-.4.3-.7.5,0,0,0,0,0-.1-1.3.7-.4.6-1.5,1.6,0-.2-.4,0-.6.2.5-.4.4,0,0,.4-.8.6-.7.8-1.1,1.1l.4-.4c0,.2-.4.6-.8,1.1-.1,0,.4-.5.2-.3-.3.7-1.3,1-1.9,1.9-.4.3-.2-.1-.5.1-.6.9-1,.7-1.7,1.7.4-.1.4-.2,0,.5l1.3-1.5-.7,1.1c.4-.4.8-1,1.1-1.2-.3.5-.3.5,0,.4-.8.4-1,1.3-1.8,1.8l-.3-.3c-1.1.9-1.6,1.9-2.9,3.2l.5-.4c0,.3-.8.8-1.1,1.3,0-.1-.4,0-.6.2.1,0-.9.9-.8,1.3l-.7.4c-1.1,1-.9,1.5-1.9,2.5.2-.4-.3,0,.2-.8-.3.3-.7.6-.6.7-.3.1-.8,1.1-1.2,1.3,0,.2,0,.3-.4.7,0,0,0,0,0,0,0,0-.5.7,0,.4-1.4.7-2.8,2.9-4,3.5-.7.8-1.5,1.7-2.2,2.3,0,0,0,0,0-.2-.5.4-.6.6-.7.8,0,.1-.1.2-.2.4-.1.1-.3.3-.6.4-.5,0,.4-.5,0-.4,0,0-.2,0-.3,0,0,0-.2.1-.3.2-.2.2-.6.5-.6.3h.1c0-.2-.2,0-.6.1-.2,0-.4.1-.6,0,0,0-.2,0-.2-.1,0,0,0-.1.2-.2,0,0,0,0,.2-.1-.4,0,.3-.8.9-1.6,0,.4-.2.4,0,.4,0-.1,0-.2,0-.2,0,0,0-.2.3-.6.3-.2.9-.7,1.1-.6l-.6.8c.5-.2.8-1,1.2-1.4h0c1-1.1.8-1.3,1.9-2.5h-.2c.4-.8.6-.4,1.1-1.2h.4c.3-.5,1.2-1.7,1.9-2.5-.3.6-1,1.6-1.5,2.2.4-.4,1.3-1.5,1.4-1.8-.1.2-.3.5-.5.6.3-.7.9-1.4,1.7-2.3.2.6,2.3-2,3.3-2.1.7-.7,1.5-1.3,2.5-1.9.9-.6,1.9-1.2,2.9-2.1-1,.3.5-.5,0-.8.4-.4.5-.6.6-.6.4-.4.9-.8,1.3-1.2.4-.2-.2.5-.1.5.8-1,.5-.3,1.1-.9-.2,0,0-.5.5-.9-.3.2-.5.4-.8.6.4-.7.7-.9,1-1.1.3-.2.6-.3,1.1-.9-.1.1-.2.3-.3.4.1-.1.3-.3.6-.5,0,0,.1,0,.2-.1.1,0,.3-.2.9-.4,0,0-.1.1-.2.2-.1,0-.1,0-.2.1,0,0,0,0,0,0-.1.2,0,.1-.5,1.1-.5.9-1.1,1.6-1.7,2.1v-.2c-.2.3-.3.7-.7,1,0,0,0-.2-.1,0-.1.2-.5.9-.9,1.2l.2-.4c-1.5,1.4-2,2.5-3.2,3.8-.2-.2-1.5.8-2.1,1.3h0c-1.8,1.6-2.8,3-4.3,4.6-.6.3-1.5,1.1-2.5,2-.9.9-1.9,1.8-2.8,2.3.3-.1.1.2-.2.5-.5.3-.8.8-.8.4h0c0-.1-.1-.2-.2-.2,0,0-.1,0-.2,0h0c-.2.2-.4.4-.6.6.3-.5.4-.7.5-.9,0-.2.1-.4.2-.5.1-.3.2-.6.4-.9.5-1.2,1.1-2.2,1.6-2.5.2-.5.6-1,.8-1.5l.2.2c.9-1.1,1.4-1.7,2.5-3.1v.4c.5-.8.2-1.4.8-2.2h.4c1.1-1.4,2.5-2.7,3.4-4.2,0,0,0,.2-.1.4.3-.3.8-.9,1.2-1.4.4-.5.7-.8.5-.9.2.2,1.3-1.1,2-1.6v.3c.5-.5.5-.7,1.5-.9.2,0,.2.1,0,.1.4,0,.5,0,.7,0,.2,0,.4,0,.8.1-.1,0-.3,0-.4,0,.7.2.7.2,1.2.2.2,0,.5.4.6.7,0,.3,0,.6,0,.7.1,0,.4.5.3,1.1,0,0-.1-.1-.2-.2,0,1.5.3,2.3.1,3.3,0,0-.1,0-.1.2,0-1.2,0-2.2,0-2.1-.2,0-.2,1-.5.2.2.8.5,2.1.4,3.1,0,0,0,0,0,.1h0c0,.1,0,.3,0,.5,0,.3,0,.5,0,.8-.2.1-.1,1.1-.2,1.6.2,0,.1.6.4,0,0,0,0,0,0-.4,0,0,0-.2,0-.2h0c0-.3,0-.7,0-1.2,0,.4.2.8,0,1.3.1.3.2.5.3.7-.4.6-.7,1.9-.9,2,0,.7-.3,1.6-.5,2.3-.2.8-.4,1.4-.5,1.8-.2.4-.4.3-.5.3.1-.2.3-.4.3-.5-.2.3-.5.7-.9,1-.4.3-.8.5-.8.6-1,.1.5-.4-.9,0h.2c-1.3,0-2.5,0-3.7.2-1.2.1-2.5,0-3.7-1,.2.1.2.2.3.3-1.4-1-2.6-2.4-3.2-4.2-.6-1.7-.6-3.6,0-5.3.3-.9.2-1.1.3-1.7h.3c0-.5,0-.8.2-1.2.2-.7.7-1.3,1.1-1.8.5-.5.9-1.1,1.4-1.9h-.3c.2-.2.6-.6.9-.8.3-.3.6-.4.6-.3,0,0,.1-.2.4-.3h0c.4-.2,1-.3,1.5-.4.6,0,.6.2.6.3,0,.1,0,.2,1,.3.7,0,2,0,1.8,0-.3,0-.7-.2-.7-.4h.7c.2-.2.8-.5-.8-1.1-.4,0-.8,0-1.2,0-.1,0-.2-.1-.4-.2.3,0,.7,0,1,.1-.5-.3-.9-.2-1.4,0,0,0-.3-.2-.5-.2-.4.1-.8.3-1.2.5-.2,0,.5-.4-.4-.3-.5.3.6.1-.3.5-.6,0-.5-.1-1.1.4-.1,0,0-.2.2-.3-.5.4-1.4,1.1-1.4,1.4-.6.3-1.2,1.6-1.4,1.4,0,.2-.3,1-.6,1.5,0-.5-.2,0-.5.4-.3.5-.6,1.2-.7,1,0,.8-.8,2.6-.7,4,0,0,0-.2,0-.3-.1.7-.3.9-.4,1.4.3.1.3,1.3.6,1.9-.2,1-.4-.5-.7-.2.2,0,.5,1.6.7,1.2,0,.7,0,.6,0,1,.4,0,.3.6.8,1.1.3,1-.2.4.5,1.3.2.5-.5-.3-.5-.3ZM156.5,996.9h0c0,.2,0,.4,0,.5,0-.1,0-.3,0-.5ZM156.5,994.8c0,.3,0,.6,0,.9,0,0-.2,0-.2-.2,0,.1,0-.4.1-.7ZM155,999.2c0-.3,0-.4,0-.5,0,.2,0,.3,0,.6,0,0,0,0,0,0,0,0,0,0-.1-.1Z"/>
          <path class="cls-15" d="M155.2,999.8s0,0,0,.1c0,0,0-.1,0-.2,0,0,0,0,0-.1,0,0,0,.1,0,.2Z"/>
          <path class="cls-15" d="M150.4,993.4h0s0,0,0,0c0,0,0,0,0,0Z"/>
          <polygon class="cls-15" points="137.2 1003.7 137.3 1003.7 137.3 1003.5 137.2 1003.7"/>
          <path class="cls-15" d="M141,1000s0,0-.1,0c0,0,0,0,.1,0Z"/>
          <path class="cls-15" d="M137.5,1003.6l-.5.5c.2-.2.4-.3.5-.5Z"/>
          <path class="cls-15" d="M134.8,1006.3c0,0,0,0,0,.1h0s0-.1,0-.1Z"/>
          <path class="cls-15" d="M158.7,989.7s0,0,0,.1c-.2.3,0,0,0-.1Z"/>
          <path class="cls-15" d="M167.6,979.2c.2-.1.3-.3.5-.4-.3.1-.6.3-.5.4Z"/>
          <polygon class="cls-15" points="144.8 1004.3 144.8 1004.3 144.8 1004.4 144.8 1004.3"/>
          <path class="cls-15" d="M169,978.6c-.4,0-.7.1-.9.3.3-.1.6-.2.9-.3Z"/>
          <path class="cls-15" d="M133.8,1013.4h.1c0-.1,0-.1,0-.2v.2Z"/>
          <path class="cls-15" d="M133.9,1013.2v-.2c0,0,0,.1,0,.2Z"/>
          <path class="cls-15" d="M134.3,1012.7l-.3.3c.1-.1.3-.2.3-.3Z"/>
          <path class="cls-15" d="M128.3,1017.1h-.1c0,.1,0,0,.1,0Z"/>
          <path class="cls-15" d="M128.6,1015.4c0,.2-.2.6-.3.9,0,.2-.1.4-.2.6v.3c0,0-.1.1-.1.1,0,0,0,0,0,0h.1c-.2,0,0-.5.2-.9.2-.4.3-.8.3-.9Z"/>
          <path class="cls-15" d="M133.2,1009.6c-.3.3-.6.6-.9.9.2-.1.5-.3.1.2,1.2-1.1-.4.1.7-1.1Z"/>
          <path class="cls-15" d="M135.9,1006.7c-.4.5,0,0,.1.1.2-.4.3-.5-.1-.1Z"/>
          <path class="cls-15" d="M157.7,988.1v.2c.4-.4,0,0,0-.2Z"/>
          <polygon class="cls-15" points="161.4 983.9 160.9 984.1 160.8 984.4 161.4 983.9"/>
          <path class="cls-15" d="M165,983.4l-.2.2c.2-.2.5-.4.7-.7-.2.2-.3.3-.5.5Z"/>
          <path class="cls-15" d="M139.5,1006.9h.3c.2-.2,0-.5-.3,0Z"/>
          <path class="cls-15" d="M138.1,1005.9c.2,0,.7-.5.8-.8-.3.3-.7.6-.8.8Z"/>
          <path class="cls-15" d="M136.9,1008.5s0,0,0,0c0,0,0,0,0,0h0Z"/>
        </g>
        <path class="cls-13" d="M285.7,640.4l-130.3,4.4,2.6-64.1c2.1-51.2-10.5-101.9-36.2-146.2l-42.5-73.2c-5-6.6-7.9-14.7-7.9-23.6,0-13.5,6.9-25.4,17.3-32.4,41.3-27.8,81.8-56.8,120.1-88.5h.1c6.8-5.7,16.6-5.7,23.4-.1h0c38.6,31.9,79.6,60.5,120.9,88.8,10.3,7,17,18.9,17,32.2s-3.4,18.1-8.9,24.9l-41.6,71.6c-25.9,44.6-38.6,95.6-36.4,147.2l2.5,59.2Z"/>
        <circle class="cls-14" cx="220.9" cy="649.5" r="62.8"/>
        <path class="cls-14" d="M209.1,417.5c3,0,3-4.6,0-4.6s-3,4.6,0,4.6h0Z"/>
        <path class="cls-14" d="M209.1,417.5c3,0,3-4.6,0-4.6s-3,4.6,0,4.6h0Z"/>
        <path class="cls-16" d="M297.7,345.1c3,0,3-4.6,0-4.6s-3,4.6,0,4.6h0Z"/>
        <path class="cls-16" d="M144,309.7c3,0,3-4.6,0-4.6s-3,4.6,0,4.6h0Z"/>
        <path class="cls-16" d="M105.6,371.7c3,0,3-4.6,0-4.6s-3,4.6,0,4.6h0Z"/>
        <path class="cls-16" d="M105.6,371.7c3,0,3-4.6,0-4.6s-3,4.6,0,4.6h0Z"/>
        <path class="cls-16" d="M296.2,423.4c3,0,3-4.6,0-4.6s-3,4.6,0,4.6h0Z"/>
        <path class="cls-16" d="M194.3,642.1c3,0,3-4.6,0-4.6s-3,4.6,0,4.6h0Z"/>
        <path class="cls-16" d="M349.4,323c3,0,3-4.6,0-4.6s-3,4.6,0,4.6h0Z"/>
        <path class="cls-16" d="M259.3,487.9c2.2,0,2.2-3.4,0-3.4s-2.2,3.4,0,3.4h0Z"/>
        <path class="cls-16" d="M108.6,310.6c2.2,0,2.2-3.4,0-3.4s-2.2,3.4,0,3.4h0Z"/>
        <path class="cls-16" d="M288.8,270.7c2.2,0,2.2-3.4,0-3.4s-2.2,3.4,0,3.4h0Z"/>
        <path class="cls-16" d="M195.8,508c1.5,0,1.5-2.3,0-2.3s-1.5,2.3,0,2.3h0Z"/>
        <path class="cls-16" d="M278.5,373.5c1.5,0,1.5-2.3,0-2.3s-1.5,2.3,0,2.3h0Z"/>
        <path class="cls-16" d="M210.5,302.6c1.5,0,1.5-2.3,0-2.3s-1.5,2.3,0,2.3h0Z"/>
        <path class="cls-16" d="M244.5,562.6c1.5,0,1.5-2.3,0-2.3s-1.5,2.3,0,2.3h0Z"/>
        <g>
          <path class="cls-15" d="M266.1,616.1c0,0,.2-.1.1-.2,0,0-.1.1-.2.2,0,0,0,0,0,0Z"/>
          <path class="cls-15" d="M265.4,615.8c-.1.2,0,.5.2.6,0-.3,0-.2,0-.5.1-.1.3,0,.3,0,0,0,.2,0,.2,0,0-.3-.5-.2-.6.1,0,0,0,0,0-.1Z"/>
          <path class="cls-15" d="M258.9,621.5h0c0,0,0,0,0,0Z"/>
          <path class="cls-15" d="M262.3,618.9c0,0,0,0-.1,0,0,0,0,0,.1,0Z"/>
          <path class="cls-15" d="M262.7,620.6s0,0,0-.1c0,0,0,0,0,.1Z"/>
          <path class="cls-15" d="M258.9,621.5v-.3c-.2,0,0,.2,0,.3Z"/>
          <path class="cls-15" d="M265.3,618.2c0,0,0-.1,0-.2,0,0,0,.1,0,.2h0Z"/>
          <path class="cls-15" d="M261.7,623.3h0c0,0,0-.1,0-.2,0,0,0,0,0,.2Z"/>
          <path class="cls-15" d="M262.5,619.9c-.1,0,0,.1,0,.2,0,0,0,0,0-.2,0,0,0,0,0,0Z"/>
          <path class="cls-15" d="M264.2,618.7h0c0,0,0,0,0,0Z"/>
          <path class="cls-15" d="M260.4,623s0,0,0,0c0,0,0,0,0,0Z"/>
          <path class="cls-15" d="M260.3,616s0,0,0,0c0,0,0,0,0,0Z"/>
          <path class="cls-15" d="M263.3,619.5h0s0,0,0,0h.1Z"/>
          <path class="cls-15" d="M263.1,624s0,0,0,0c0,0,0,0,0,0Z"/>
          <path class="cls-15" d="M260.5,618.8c-.2-.4.6.1.3-.4,0,0-.6,0-.3.4Z"/>
          <path class="cls-15" d="M265.3,618.3c0,0,0,.1,0,.2,0,0,0-.1,0-.2Z"/>
          <path class="cls-15" d="M260.8,618.4h0s0,0,0,0c0,0,0,0,0,0Z"/>
          <path class="cls-15" d="M262.5,627.5s0,0,0,.1c0,0,0,0,0-.1Z"/>
          <path class="cls-15" d="M263.8,625.9h0c0,0,0,0,0,0Z"/>
          <path class="cls-15" d="M259.8,626.2c0,0,0,0-.2-.1,0,0,0,0,0,0,0,0,0,0,.1,0Z"/>
          <path class="cls-15" d="M257.4,624.1s0,0,0,0h0c0,0,0,0,0,0Z"/>
          <path class="cls-15" d="M250.1,614.1c.1,0,.2,0,.3,0-.1,0,.3-.5-.3,0Z"/>
          <path class="cls-15" d="M265.2,618.1s0,0,0,.1h0c0-.2,0-.2,0-.1Z"/>
          <path class="cls-15" d="M258.7,627.5l-.4-.4c.1.1.3.2.4.4Z"/>
          <path class="cls-15" d="M262.1,633h-.1s0,0,.1,0Z"/>
          <path class="cls-15" d="M257,626.1c0-.1,0-.2-.1-.3,0,0,0,0,0,0l.2.3Z"/>
          <path class="cls-15" d="M250.3,614.1h0s0,0,0,0Z"/>
          <path class="cls-15" d="M254.3,613.1c-.6-.1-.3.2-.4.4-.7,0-.3-.2-.5-.4-.4,0-.8.3-1.1.3,0,0,0,0,0-.1-.2.1-.6.2-.9.3-.3.1-.7.3-.8.6,0,0,0,0-.1,0,.2,0,.2.2.3.3-.2.1-.2.4-.4.3.1,0,0-.2.1-.2,0,0-.1.1-.2.2-.4,0,.2-.3.1-.5-.4.4-.6,1-.8,1.3-.3,0,.5-.8,0-.5.2-.2.3-.3.5-.4-.7,0,.3-.3-.3-.2-.4.3-.5.6-.6.8,0,.2-.2.5-.4.9,0,.2.2,0,.3.2,0,.6-.2.8-.4,1-.2.2-.3.3-.1.8.2.2.5.3.4.9-.1,0-.2,0-.3-.1.2.8.5.3.6,1.2-.2,0-.3-.5-.3-.4,0,.6.3.3.4.7l-.2.2c.4.7,1.1,1.3,1.6,1.9,0,0-.2,0-.2.2.8.7,1.5,1.6,2.1,2.4h.4c0,.2,0,.3,0,.3.2.3.1,0,.3,0,.2.1.1.3,0,.2.6.3,1.6,1.1,2,1.7h-.1c.3.4.8,0,1,.6h0c.8.9,1.9,1.7,2.3,2.5.3-.1.8.9,1.2.6.4.6.2.6.9,1.3.2.2.5,0,.8.1v.2c-.1,0,.4,0,.4,0v.4c0,0,.4,0,.4,0-.1,0-.2-.2-.2-.3.5.1,1.1.7,1,.8.4,0,.8.1,1.2.1,0,0-.3,0-.4,0,.7,0,0,.3.7.2,0,0,0-.1,0-.2.3.2,1,.3,1.5.1v.2c.2,0,.4,0,.7,0h.4c0,0,.5-.2.5-.2.4-.1.7-.4,1-.7.2-.3.3-.7.4-1.1-.2.6-.4.3-.4,0h.3c-.1-.4-.1.2-.3-.2,0-.4.3-.3.4,0,0-.2,0-.3,0-.5,0,0,.1,0,.2.1-.1-.2.2-.8-.1-1.1h0c-.2-1.1-.4-1.5-.6-2.2-.2,0-.3-.3-.5-.4-.1-.6-.2-1.2-.5-1.8-.3-.4-.2,0-.4-.2.2-.1,0-.7.2-.4-.3-.7-.4-.9-1-1.8,0,.1,0,.3,0,.2-.1-.2-.1-.4,0-.4h0c-.4-.4-.6-1.1-.8-1.7-.2-.6-.5-1.2-1-1.5h0c-.3-.2-.5-.4-.8-.6-.3-.3.3,0,.1-.2-1-.5-1.2-1.2-2.1-1.5-.1-.4-.6-.8-1.2-1-.6-.3-1.2-.5-1.6-.8h0c-.3.2-.2,0-.4-.1,0,.1.2.2,0,.2-1-.3-2-.6-3-.8-.1,0-.3,0-.4,0-.2,0-.2,0-.5,0-.4,0-.9,0-1.3.1-.8.3-1.2,1.3-1.1,2.3,0,.8.7.4.5,1.4-.1,0-.2-.2-.3-.2.5,1.5,1,3.1,2,4.3,0,0-.2,0-.2-.1,0,.4.6,1,.8.9.1.2,0,.1,0,.3.1.3.7.5.6.7,0,0-.1,0-.2,0,.2.1.6.7.6.4.3.5.8.7,1,1.1.4,0,.6.7.9.5-.3.2.6.8.9.9-.2,0,.2.3,0,.3.3.2.7.4.7.2.4.8,1.4.5,1.5,1.2.3,0,.6.2.8.3.3,0,.6.2.9.3.8.3,1.5.5,2.2.7.1.2-.3,0-.7,0-.4-.1-.8-.3-.8,0,.8.2,1.4.3,1.8.4,0-.7,0-1.3,0-2,0-.4.2.3.2.5,0-.4,0-.8,0-1.2,0-.3,0-.5,0-.8,0-.5,0-.9-.2-1.3,0,0,0,0,.1.2,0-.2,0-.4-.1-.4v.2c-.1.3-.5-.6-.6-.6.5.2,0-.9.6-.5,0-.1-.1-.2-.2-.2,0-.2,0-.2.2,0-.2-.6-.3-.4-.4-.9,0,0,.1,0,.2.1-.2-.3-.4-.5-.4-1,0,0,0,0,.1,0-.2-.8-.7-1.3-.8-2.1.4.2,0-.3.3-.4l-.2-.4v.2c-.2-.4-.5-.7-.6-1.1,0,0,.2.2.3.3-.1-.3-.3-.5-.5-.7,0,.2.1.3.2.5-.4-.3-.3.2-.5-.3,0,0-.2-.3-.3-.6h0c-.2,0-.5-.1-.7-.3,0-.1.2-.2.2-.3-.3,0-1-.4-1.3-.2.1,0,.2-.2.1-.2h-.2c-.2,0-.2,0-.1-.1-.6-.2,0,.4-.6,0,0,0,0,0,.2,0-.7-.3-1.4-.2-2.2,0-.2,0,0-.2.2-.2.2,0,.3,0,.2-.2-.6.1-1.2.7-1.4,1.3-.2.6,0,1.1,0,1.6v-.2c.4,0,0,.7.3,1.1,0,0-.3,0-.2,0,.2.6.7,1.1,1.2,1.8h-.1c.1.3.5.8.7,1.1.2,0,.3.2.3,0,.1.7.6,1.1,1.2,1.4.3.2.6.3.9.4.3.1.6.2,1,.2-.1,0-.3.2-.2.2.4-.1.6-.5.8-.8-.2,0-.1,0-.3.1,0-.2,0-.5.1-.7,0,.5.2.2.4,0,0,0,0,0-.2,0,.5-.4-.3-.2,0-.8h0c0-.2,0-.4,0-.7.2,0,0,.3.2.3,0-.4-.3-.8,0-1.1,0,.2,0,.4,0,.5.3-.3.2-.4.3-.7h0c0-.2,0-.4.1-.5h0c-.3,0-.3-.3-.3-.5,0-.2,0-.4-.4-.8.6.8.3.3.6.6,0,0,0,0,.2.1-.2-.2-.2-.2-.2-.1,0,0,0,0-.4,0,.1.1,0,.1.3.3-.2,0-.3-.2-.5-.3-.2,0-.2,0-.1.2.1,0,.3.1.4.2.3,0,.5.1.6,0,0,0,.1-.1.2-.2,0,0,.2-.2.2-.3.1-.2.2-.4.4-.7.2-.1,0,.3,0,.3.4-.2.5-.5.6-.9,0,0,.1,0,.2,0,0-.3-.2-.3,0-.6,0,0,.2.2.3.3,0-.4-.1-.7-.2-1,.1,0,.2.2.3.3,0-.4,0-.8-.1-1,0,0,0,.1-.1.2,0-.1.2,0,.2,0,0,.3-.1.4-.2.4v-.2c-.5.2,0,.9-.1,1.4,0,0-.2-.2-.3-.3,0,.2.1.4.1.6-.1,0-.3,0-.3-.2-.3.2,0,.3-.3.5,0,0,0,0,0,0,0,0,0,.2-.1.3,0,0-.2-.1,0-.2-.5.2-.5.7-.9.6h0c-.3.3-.3.3-.3.3,0,0,0,0,0,0,0,0,0,.1,0,.2-.4-.2-.4,0-.6-.1h0c0,0-.2,0-.2,0-.3,0,0,0-.1,0,0,0-.2,0-.3-.1-.1,0-.2-.2-.2-.3,0-.2.3-.4.3-.4.1,0-.3.2,0,0,0,0,.2,0,.3,0,.2,0,.3.1.4.3,0-.1-.3-.3,0,0,.2.2.3.6.2.9,0,0,0,0,0,.1,0,0-.1.1,0,.3,0,.3,0,.6,0,.8,0,0-.2,1-.5,1.4h0c.1,0,.1.2.1.4,0,.2,0,.3,0,.5-.1-.1-.2-.2-.2-.4v.2c0,.1,0,.2,0,.4,0,0,0-.2-.1-.3,0,.1-.1.3-.3.3-.1,0-.3,0-.4-.2,0,0,0,.3,0,.4,0,.2,0,.3-.4.1,0-.1.1-.3.2-.2,0,0-.2,0-.2-.1,0,0,.2,0,.3,0-.1-.2-.2,0-.3,0,0-.1,0-.2,0-.3,0,0,.1.2.2.1-.1-.1-.3-.4-.3-.5,0,0-.1.2-.3,0-.3-.3,0-.2,0-.5-.1,0-.2-.3-.4-.2,0-.1,0-.2,0-.3-.2-.1-.6-.9-.7-.5h0c0,0,0,0,0,0h0s0,0,0,0c-.6-.5-.8-1.5-1.2-2.1h0c-.3-.4-.4-.9-.6-1.2,0-.1.1-.3.2-.3,0-.3-.1-.4.1-.7,0,.3.1,0,0,.3.2-.3.3-.2.4-.6,0,.2.3.1.4,0,0,0-.2,0-.2,0,.1,0,.3,0,.5,0,0,0,0,.2,0,.3.5.3,1.5-.2,2,.5.3,0-.4-.3-.1-.4.4.2.6.7.7.8.3.4.6,0,.9.4,0,0,.2-.3.5,0,.2.4-.1.6-.3.4,0,0,0-.1,0-.1,0,0-.2-.2-.2,0h.1c0,.2.2.6,0,.6.2.2.2,0,.1-.2,0,.5.3.7.4,1.3,0,0,.1-.2.1-.1.1.8.3.3.5.8,0,.3-.3,0,0,.5,0,.4-.2.1-.3,0,.3.5,0,1,.1,1.2v-.2c0,.1,0,.3,0,.4l.2-.2c0,.2,0,.3,0,.3.1.1.3-.2.5.1,0,.2.2.6,0,.7,0-.7-.2.1-.4-.4,0,.1,0,.2,0,.4,0,0,0,0,0,0-.1.7.3.2.4.9-.1,0-.2.2-.2.3,0-.3.2-.2.3,0,0,.4.1.4.1.7v-.3c.2,0,.2.3.2.6-.1,0,0-.3-.1-.2.3.3-.2.8,0,1.2,0,.2-.3,0-.3.2,0,0,0,.1,0,.1,0,0-.1,0,0,.1.2.1.1,0,.3.4,0-.2,0-.3-.1-.5,0,.1.2.2.3.4,0-.2-.1-.4,0-.5.2.2.1.2.3.1-.1,0,0,.2,0,.4,0,.2.1.4,0,.4l-.4-.6s0,0,0,0c0,0-.1,0-.2,0,0,0-.2,0-.4,0h.1c0,.2-.1.2-.2.1,0,0-.3-.1-.4-.2,0-.1,0-.2,0-.4,0,.1-.5-.3-.7,0l-.2-.4c-.5-.4-.9,0-1.4-.4.3,0,0-.3.5-.1-.2-.1-.3-.2-.4-.2,0-.1-.6-.2-.7-.4-.1,0-.2.1-.4,0,0,0,0,0,0,0,0,0-.4-.2-.3.1-.2-.8-1.4-1.2-1.6-1.9-.4-.3-.8-.7-1-1,0,0,0,0,0,0-.3-.5-.6,0-.8-.6,0-.4.3.2.3,0,.3-.4-.5-.6-.5-1.1h0c0-.3-.6-.5-.8-1,0,0,0,0,0,0-.4-.2-.7-.9-1-1.4.2.1.2.2.3,0,0-.2-.3.2-.5-.3,0-.2,0-.5.3-.6v.4c.3-.3,0-.5,0-.8h.1c-.1-.6-.4-.7-.4-1.2h0c-.1-.2,0-.3,0-.3,0,0,.1,0,.2-.2,0,0,.2.2.3.3,0,0,.1-.2.3-.2.2,0,.5-.1.7-.1-.1,0-.4.2-.6.2-.2,0-.3.1-.3.2,0,0,.2,0,.3,0,.2,0,.4,0,.5-.1-.1,0-.2,0-.3,0,.3-.2.8-.3,1.3-.2-.2.5,1.3.4,1.5,1,.9,0,1.6.7,2.5,1.3,0-.6.3.1.5-.3.2.1.3.2.3.2.2.2.3.4.4.7,0,.2-.2,0-.3,0,.4.4,0,.3.2.6,0-.2.3,0,.5.2l-.2-.4c.7.3.2.7.9,1.1,0,0-.2,0-.3,0,.3.2.9,1,1.4,1.1,0,0,0,.2-.2.1.5.7,1.4,1.6,1.5,2.4h-.1c.1.1.3.2.3.4,0,0-.1,0-.1,0,0,0,.4.4.4.6h-.2c.2.8.8,1.1,1.2,1.8-.3.1-.2.8,0,1.2h0c.3,1,.8,1.6,1,2.6-.2.3-.2.9-.2.9,0,0-.1,0-.2.1,0,0-.2,0-.3,0-.1,0-.2,0-.3,0,.1,0,0,.3-.1.3-.2,0-.6.3-.5,0h0c-.2-.3-.6-.2-.9-.3v.4c-.5-.4-1.1-.5-1.6-.7-.5-.2-1-.4-1.1-.7-.2,0-.5-.2-.7-.3v-.2c-.3-.4-.6-.6-1.2-1.2h.2c-.3-.3-.9,0-1.2-.2v-.3c-.5-.6-.9-1.4-1.6-1.7,0,0,.1,0,.2,0-.3-.3-.9-1.2-1.1-.8.2-.2-.6-.6-1-.8h.2c-.5-.2-.5-.1-1-.4,0-.1,0-.2.1,0-.2-.4-.4,0-.7-.5h.2c-.3-.3-.3-.2-.6-.3-.3-.1-.5-.6-.4-.8-.1,0-.4,0-.5-.2,0,0,.1,0,.2,0-.4-.6-.9-.6-1.1-1.1,0,0,0-.1,0-.1.4.4.7.7.6.7.1-.1-.1-.5.3-.4-.4-.1-1-.4-1.2-.8,0,0,0,0,0,0h0c0,0-.1-.1-.2-.2,0-.1,0-.2-.2-.3,0-.1-.2-.4-.3-.6-.2.1-.3-.1-.3.2,0,0,0,0,.1.1,0,0,0,0,0,0h0c0,.1.2.3.3.4-.2,0-.4-.2-.4-.4-.2,0-.4,0-.5,0,0-.4,0-1,.2-1.1-.4-.5-.4-1.3-.8-1.7,0-.2.1-.2.2-.3,0,.1,0,.2,0,.3-.1-.4,0-1-.1-1.2.3-.4.2.3.3-.3h0c.4-.3.5-.7.8-1.1.3-.4.8-.7,1.5-.5,0,0-.1,0-.2,0,1.5.1,3.4.4,4.7,1.5.4.3.5.2.8.2v.3s.5,0,.5,0c.7.2.8,1.1,1.7,1.3v-.2c.2.2.9.5.7.6,0,0,.2,0,.2,0h0c0,.1.8.4.8.4.4.4-.4.3.3.9.3.2.9.3.9.2,0,0-.2-.3-.1-.4h.3c.3,0,.7-.2.3-.9l-.6-.2v-.2s.3.3.3.3c-.1-.3-.3-.3-.5-.3,0,0,0-.2,0-.3h-.6c0-.2.4-.1.1-.4-.3,0,0,.4-.4.2-.1-.3,0-.3-.3-.4,0,0,.1-.1.2,0-.3,0-.6-.4-.8-.3-.1-.3-.8-.4-.6-.7-.1,0-.5,0-.8-.1.6-.1-.8-.5-.5-.8-.5.2-1.1-.4-1.8-.5,0,0,.1,0,.2,0-.3-.2-.3-.3-.5-.5-.2.3-.7,0-1,.2-.3-.4.4-.2.3-.5,0,.2-.8,0-.7.2-.3-.3-.2-.2-.3-.5-.2.3-.3,0-.6.1-.4-.3,0-.4-.6-.4-.2-.2.3-.2.3-.2ZM250.7,622.2h0c0,0-.1-.1-.2-.2,0,0,0,0,.2.2ZM251.4,623c0,0-.2-.2-.3-.3,0,0,.1,0,.2,0,0,0,0,.2.1.3ZM251.2,620.5c.1,0,0,.2,0,.2,0,0,0-.1-.2-.2h0s0,0,.1,0Z"/>
          <path class="cls-15" d="M250.9,620.4s0,0,0,0c0,0,0,0,0,0h0s0,0,0,0Z"/>
          <path class="cls-15" d="M259,621.6h0s0,0,0,0c0,0,0,0,0,0Z"/>
          <polygon class="cls-15" points="261 632.5 261 632.5 260.9 632.5 261 632.5"/>
          <path class="cls-15" d="M262.7,623.4s0,0,0,0c0,0,0,0,0,0Z"/>
          <path class="cls-15" d="M263.2,621v-.3c0,.2,0,.3,0,.3Z"/>
          <path class="cls-15" d="M263.2,619.9c0,0,0,0-.1-.1h0s.1.1.1.1Z"/>
          <path class="cls-15" d="M265.2,625.7s0,0,0,0c0,.2,0,0,0,0Z"/>
          <path class="cls-15" d="M262.3,617.6c0,0,.2,0,.3.1-.1-.1-.2-.2-.3-.1Z"/>
          <polygon class="cls-15" points="258.7 627.5 258.7 627.5 258.7 627.5 258.7 627.5"/>
          <path class="cls-15" d="M262.9,618.1c0-.2-.2-.3-.3-.3,0,.1.2.3.3.3Z"/>
          <path class="cls-15" d="M265.5,616.6h0c0,0,0,0,0,0h0Z"/>
          <path class="cls-15" d="M265.5,616.6h0s0,0,0,0Z"/>
          <path class="cls-15" d="M265.5,616.4s0,0,0,.1c0,0,0,0,0-.1Z"/>
          <path class="cls-15" d="M264.9,619h0s0,0,0,0Z"/>
          <path class="cls-15" d="M264.3,619.7c.2-.1.5-.2.7-.5h0c0,.2-.6.3-.6.5Z"/>
          <path class="cls-15" d="M261.3,619.3c0,.2.2.3.4.4,0,0-.2,0,0,0-.3-.1-.3-.1-.3-.1,0,0,0,0,0,0,0,0-.1,0-.1-.3Z"/>
          <path class="cls-15" d="M262.5,619.4c0-.3,0,0,0,0,0,.2,0,.2,0,0Z"/>
          <path class="cls-15" d="M257.6,618h.2c0-.1,0,0-.2,0Z"/>
          <path class="cls-15" d="M258.8,616c0,0-.2,0-.3-.1v.2s.2,0,.3,0Z"/>
          <polygon class="cls-15" points="259.9 617.7 259.8 617.7 260.2 617.8 259.9 617.7"/>
          <path class="cls-15" d="M257.9,624.4v.2c0,0,.2,0,0-.2Z"/>
          <path class="cls-15" d="M253.8,616.8c.1,0,.2,0,.2-.2,0,0-.2.1-.2.2Z"/>
          <path class="cls-15" d="M264.1,631.8h.2c-.1,0-.2,0-.3,0h.1Z"/>
        </g>
        <g>
          <circle class="cls-14" cx="105.8" cy="336.9" r="32.9"/>
          <path class="cls-13" d="M71.4,337.7h0c-15.7,100.5-15.2,202.9,1.5,303.3v3.4c0,13.4,10.9,24.3,24.3,24.3h0c13.4,0,24.3-10.9,24.3-24.3v-278.4"/>
        </g>
        <path class="cls-16" d="M98.2,324.8c1.5,0,1.5-2.3,0-2.3s-1.5,2.3,0,2.3h0Z"/>
        <path class="cls-16" d="M104.2,453.3c1.5,0,1.5-2.3,0-2.3s-1.5,2.3,0,2.3h0Z"/>
        <path class="cls-16" d="M84.9,584.8c1.5,0,1.5-2.3,0-2.3s-1.5,2.3,0,2.3h0Z"/>
        <path class="cls-16" d="M240.1,537.5c1.5,0,1.5-2.3,0-2.3s-1.5,2.3,0,2.3h0Z"/>
        <path class="cls-16" d="M86.4,490.2c1.5,0,1.5-2.3,0-2.3s-1.5,2.3,0,2.3h0Z"/>
        <path class="cls-16" d="M86.4,490.2c1.5,0,1.5-2.3,0-2.3s-1.5,2.3,0,2.3h0Z"/>
        <g>
          <circle class="cls-14" cx="335.3" cy="336.5" r="32.9"/>
          <path class="cls-13" d="M369.8,337.3h0c15.7,100.5,15.2,202.9-1.5,303.3v3.4c0,13.4-10.9,24.3-24.3,24.3h0c-13.4,0-24.3-10.9-24.3-24.3v-278.4"/>
        </g>
        <path class="cls-16" d="M355.3,482.8c1.5,0,1.5-2.3,0-2.3s-1.5,2.3,0,2.3h0Z"/>
        <path class="cls-16" d="M362.7,370.6c1.5,0,1.5-2.3,0-2.3s-1.5,2.3,0,2.3h0Z"/>
        <path class="cls-16" d="M337.6,558.8c2.2,0,2.2-3.4,0-3.4s-2.2,3.4,0,3.4h0Z"/>
        <path class="cls-16" d="M352.4,439.1c2.2,0,2.2-3.4,0-3.4s-2.2,3.4,0,3.4h0Z"/>
        <polygon class="cls-14" points="281.3 462.5 158.7 462.5 115.8 408.2 121.9 353.8 318.8 354.5 324.8 407.8 281.3 462.5"/>
        <g>
          <path class="cls-15" d="M173.2,384.9c.1-.1-.1-.2-.2,0,0,0,.1.1.2.2,0,0,0-.1,0-.1Z"/>
          <path class="cls-15" d="M174.1,386.2c.5-.1,1.1-.4.7-.6-.5.3-.6.2-1.1.4-.4,0-.6-.3-.5-.4-.1,0-.3-.3-.4-.5,0,.2,0,.6.3.7.3.2.6.2,1,.1.2,0,0,.1,0,.2Z"/>
          <path class="cls-15" d="M183.5,388.9h-.2c0,.1.1,0,.2,0Z"/>
          <path class="cls-15" d="M191.2,387.2c.2-.1.2-.2.2-.2-.1.1-.2.2-.2.2Z"/>
          <path class="cls-15" d="M187.5,389.7c0,0,.1,0,.2-.1,0,0-.2,0-.2.1Z"/>
          <path class="cls-15" d="M183.5,388.9l.6-.4c0,0-.3.2-.6.4Z"/>
          <path class="cls-15" d="M176.7,389.8c.1-.1.2-.2.3-.4,0,.1-.2.2-.3.3,0,0,0,0,0,0Z"/>
          <path class="cls-15" d="M173.9,395.4h-.2c0,.2,0,.2-.1.3l.3-.3Z"/>
          <path class="cls-15" d="M179.3,392.9c-.2,0-.1.3-.1.4,0-.1.1-.2.3-.3,0,0,0,0-.2,0Z"/>
          <path class="cls-15" d="M175.1,390.3l-.2.2s.1-.1.2-.2Z"/>
          <path class="cls-15" d="M179.4,392.2s0,0,.1,0c0,0,0,0-.1,0Z"/>
          <path class="cls-15" d="M179.5,385.6s0,0,0,0c0,0,0,0,0,0Z"/>
          <path class="cls-15" d="M189.1,382.2h-.1c0,.1,0,.2,0,.2v-.2Z"/>
          <path class="cls-15" d="M180.6,394s0,0,0,0c.2-.1,0,0,0,0Z"/>
          <path class="cls-15" d="M199.6,378.1c-.8.2,1.1-.8,0-.5.1,0-.9.8,0,.5Z"/>
          <path class="cls-15" d="M176.5,390c-.1,0-.2.2-.3.2.2,0,.3-.2.3-.2Z"/>
          <path class="cls-15" d="M199.5,377.6h0s-.1,0-.1,0c0,0,0,0,.1,0Z"/>
          <path class="cls-15" d="M164.7,403.4s.1,0,.2,0c0,0,0,0-.2,0Z"/>
          <path class="cls-15" d="M176.8,396.9l-.3.2c.1,0,.2-.1.3-.2Z"/>
          <path class="cls-15" d="M160.5,404.3c0,0,.1-.1.2-.2,0,0,0,0,0,0,0,0,0,0-.1.2Z"/>
          <path class="cls-15" d="M165.3,399.6s0,0-.1,0c0,0,0,.1-.1.2l.3-.3Z"/>
          <path class="cls-15" d="M159.1,396.5c.2,0,.3,0,.4,0-.2,0,.7-.8-.4,0Z"/>
          <path class="cls-15" d="M176.6,389.8c0,0,0,.1-.1.2,0,0,.2-.1.2-.2,0,0,0,0,0,0Z"/>
          <path class="cls-15" d="M158.4,404.3c.3-.5.8-1.1,1.3-1.6-.5.4-1,1-1.3,1.6Z"/>
          <path class="cls-15" d="M184.6,400.5l-.2.2c0,0,.2-.1.2-.2Z"/>
          <path class="cls-15" d="M162.4,400.3c.2,0,.4-.2.5-.4,0,0,0,0,0-.1-.2.2-.4.3-.6.5Z"/>
          <path class="cls-15" d="M159.5,396.4h0s0,0,0,0Z"/>
          <path class="cls-15" d="M166.1,391.8c-1,.5-.4.5-.5.8-1.2.7-.7.1-1.1.2-.7.5-1.2,1.1-1.7,1.4,0,0-.2,0,0,0-.7.7-2.3,1.5-3,2.4,0,0-.1,0-.2,0,.2,0,.3.1.4.2-.4.3-.7.7-.9.7.3-.2.2-.3.3-.4l-.4.4c-.5,0,.5-.5.4-.7-.8.7-1.6,1.6-2.3,2.1-.3-.1,1.4-1.2.4-.7l1-.7c-1,.3.6-.4-.3-.3-1.3.9-1.4,1.2-2.7,2.2-.2.3.2,0,0,.4-1.6,1.7-1.9.6-2.9,2.1-.2.4-.1.8-1.1,1.6v-.5c-1,1.2-.2,1-1.4,2.2,0-.3.7-1.1.5-.9-.9.8-.3.7-.8,1.5h-.3c-.3.5-.5,1.1-.8,1.6-.1.3-.2.5-.3,1-.1.5-.1,1,0,1.4.2.4.7.7,1.1.9.4.2.7.2,1.1.2-.1,0-.5,0,0,.2,2.4.4,5.2.6,7.6.5l.9-.4c.2,0,.4,0,.2.1.9,0,0-.1.4-.3.5-.1.7,0,.4.1,1.6-.5,4.3-1.5,5.9-1.9l-.3.2c1.3-.4,1.2-.9,2.4-1.2h-.2c2.6-.8,5.3-2.3,7.4-2.9.2-.5,2.6-1.1,2.5-1.5,1.5-.5,1.2-.2,3.2-1.1.5-.3.7-.7,1.3-1v.2c.1,0,.9-.7.9-.7h.6s.6-.4.6-.4c-.2.1-.6.2-.6.1.9-.6,2.4-1.1,2.5-1,.7-.5,1.4-1,2.1-1.5,0,.1-.4.4-.6.6,1.1-.9.3,0,1.3-.7-.2,0,0-.2,0-.2.6-.2,1.8-.9,2.7-1.5v.2c1.6-1,3.3-2.2,5-3.5-.7.4-.7,0-.2-.3h.3c.2-.3-.6.4,0-.3.7-.4.6,0,.3.3l.7-.6c0,0,0,.2,0,.3.2-.4,1.5-.8,1.8-1.3h0c1.7-1.2,2.4-1.9,3.8-3-.1-.2.4-.6.7-1.1,1-.8,2.2-1.6,3.4-2.6.7-.8.1-.3.4-.8.2,0,1.3-1,.8-.3.7-.6,1.1-1,1.6-1.5.4-.5,1-1,1.6-2.2-.2.2-.4.4-.4.3.2-.4.6-.9.6-.8h0c.2-.6.5-1.4.4-2.3,0-.5-.3-1-.7-1.4-.4-.4-.8-.6-1.2-.8-1.5-.7-3-.8-4.1-.6h.1c-.8,0-1.5.2-2.3.4-1,.2.6-.3-.2-.2-2.3.9-3.7,1.3-5.3,2.2-1.6.1-4.8,2.2-6.7,2.8h.2c-.4.4-.6.3-1,.4,0,0,.6-.1.3,0-1,.5-2,1-3,1.5-1,.5-2,1.1-3,1.7-2,1.1-4,2.3-5.9,3.5-1.4.9-.4,1.1-2.3,2l.3-.5c-2.6,2.1-5.6,3.7-8.2,5.8.1-.2,0-.2.4-.4-.7.2-2.1,1.4-2.1,1.6-.4.3-.2,0-.5,0-.6.3-1.3,1.3-1.7,1.5,0,0,.1-.2.2-.3-.3.4-1.6,1.6-1.1,1.4-.9.9-1.4,1.9-2.2,2.5-.2.6-1.5,1.3-1.4,1.6,0-.2-.5.1-1,.5-.1.1-.3.2-.4.3l-.3.2c0,.1-.2.2-.3.3-.4.4-.6.8-.7,1,0-.2-.1,0-.3.3-.2.2-.3.4-.3.2-.3.6-.5,1.2-.6,1.6.5,0,.7,0,.7,0,.4.2.9.4,1.5.4.6,0,1.3-.1,1.9-.3.8-.3,1.3-.5,1.9-.4,2.5-1.1,4.6-2.3,6.6-3.6.1.4-2.3,1.3-2,1.6,1.9-1.2,2.9-2.1,4.8-3.2.5-.3-.2.3-.3.4,1.8-1.3,3.7-2.2,5.3-3.4,0,0-.2.2-.3.3.3-.2.8-.4.7-.5l-.3.2c-.6.1,1.1-1.2,1.1-1.4-.3.7,1.7-1,1.1,0,.2-.2.4-.4.3-.5.3-.2.5-.2.2.1,1.1-.8.6-.7,1.7-1.4,0,0-.2.2-.2.4.5-.5.9-1,1.8-1.5,0,0,.1,0-.2.2,1.5-1,2.4-2.1,4.1-3.2-.3.6.6-.3.9-.1l.8-.7-.4.2c.8-.6,1.3-1.2,2-1.7l-.5.5,1.4-1.1-.9.5c.7-.7-.3-.2.7-.9-.2.2.7-.6,1.2-.8h0c.3-.4.6-.8,1.2-1.2.2,0,0,.3.2.3,0-.4,2.3-2.1,2.3-2.4,0,.1.2,0,.3,0,0,0,0-.2,0-.2.5-.4.7-.5.9-.5.6-.6.4-.5.2-.3-.2.1-.5.3,0-.1,0,0,.1-.1.2-.2,0,0,0,0,.1,0v-.3c.2,0,.2-.1.2-.1h-.3c-.4,0-.9,0-1.3,0-.8,0-1.6.3-2.4.5-.2,0,.2-.3.6-.4.4-.1.7-.2.6-.3-1.3.3-3.1,1.3-3.8,1.6-1,.5-1.9,1-2.8,1.4h.4c0,.3-1.5.3-2.3,1,.2-.2.2-.4.1-.3-.6.3-1.2.7-1.9,1.2-.7.5-1.3,1.1-2.1,1.8v-.2c-.6.4-1.6,1.3-2.3,1.8-.1.2-.6.5-.2.5-2.5,1.1-4.1,3.1-6.5,3.9.2-.1.6-.4.4-.3l-1.7,1.1c.2,0,.3,0,.7-.1-.2.2-.6.6-1.1.8.8-.6-.1-.2-.5-.1,0,0,0,.1,0,.2,0,0,0,0,0,0l-1.5.3,1.7.2c1,.1,0-.4,1.5-.4h0c.5,0,1-.2,1.6-.3.3.1-.6.2-.6.4.8-.2,1.5-.7,2.3-.8-.3.2-.8.3-1.1.5.9,0,.9,0,1.6-.2h0c.5-.1.9-.3,1.4-.5h-.4c.4-.4.8-.6,1.3-1,.5-.3,1-.7,1.4-1.4-.7,1.2,0,.3,0,.5.3-.2.7-.6.7-.5.3-.7.9-.9,1-2,0,0,.1-.3.2-.5,0-.2,0-.4.2-.3,0-.3-.1-.5-.1-.5,0,0,0,0,0,.2,0,.2,0,.6,0,.5,0-.4-.2-.9-.6-1.2-.4-.3-1.1-.4-1.5-.5-.9-.1-1.9,0-2.8.3-.8.3-1.3.5-1.7.8-.4.3-.8.6-1.4,1-.5.2.2-.5.2-.5-.3.1-.6.3-.9.5l.3.5c.4-.2.7-.4,1.1-.7-.1.1,0,.1.3,0,.3-.2.3-.4.4-.5,0-.1.2-.3.4-.7,0,.2,0,.5-.2.8.6-.7.7-1.8.3-2.6,0-.1.1,0,.2.2.1.2.2.5.2.7,0-.5-.2-1.2-.7-1.5-.7-.5-1.3-.4-1.5-.3.2,0,.4,0,.6.2-.3,0-.2-.2.1-.2.3,0,.6.2.7.3.3.3.3.6.2.6-.1-.2-.2-.3-.4-.4h0s0,0,0,0c.1.3.4.8.4,1.5,0,.6-.4,1.4-.8,1.7,0-.2.1-.4.1-.6-.2.3-.5.6-.7.9-.3,0-.5,0,0-.3-.6.2-.6.4-1,.5v.2c.2,0,.3,0,.4-.1,0,0,0,0,0,0,.2-.2.4-.3.6-.5,0,.1.2.1-.2.3,1.2-.5,1.9-1.2,2.4-1.1h-.1c.9-.3.9-.3.9-.4,0,0-.1-.2.6-.4.4.1.7.3,1,.5l.2-.2c.2,0,.6,0,.5.1.7-.1-.1-.1.3-.2.2,0,.5.1.7.2.2,0,.5.3.6.5,0,.2,0,.5,0,.7,0,.2-.2.3-.3.3,0,.4.4-.7.2.2-.5,0-.5,1.1-1.2,1.6,0-.3.6-.9,0-.3,0,.6-1.2,1.1-1.7,1.5.1.3-1.3.9-2.4,1.3,0,0-.5,0-1.2.2-.7.1-1.6.2-2.1.3h0c-.1.2-.7.3-1.3.4l.2.5c.3-.2.6-.3.8-.5,0,.2,0,.3-.4.6l.7-.4c.1-.2.3-.3.8-.6v.3c.9-.5,1.7-1.3,3-1.9,0-.2-1.2,0,0-.8.1,0,.2.2,0,.4.1,0,.3-.3.6-.4l-.4.5c.6-.3.2-.3.6-.5,0,.1.4-.1.4,0-.1,0-.4.2-.5.3.5-.3,1.1-.6,1.4-.6,0,0-.1-.2.2-.4.9-.6.4,0,1-.3.2-.2.8-.6.7-.7.3-.2.4-.1.5-.2.4-.4,2-1.6,1.4-1.4h-.1c0,0,0,0,0,0h0s0,0,0,0c1.3-1.3,3.1-2.2,4.6-3.2h0c.9-.5,2.1-1.1,2.7-1.6.3-.1.7-.2.7,0,.7-.4.8-.5,1.9-.9-.7.5.3,0-.7.4,1-.4,1.4-.4,1.9-.9-.1.2,0,.2,0,.2.1,0,.3,0,.4-.2,0,0-.1,0-.2,0,.3-.2.6-.2.9-.3-.2.2-.4.3-.6.5,0,0,.2,0,.4,0h.2s.1,0,.1,0c0,0,0,0,0,0,0,0,0,0,0,0,0,.1-.3.5-1,.8,0,.2.6-.4.8-.3-.3.2-.7.4-.9.5-.1,0-.2,0-.3,0-.1,0-.2.1-.3.2-1.1.8-.7,1.1-1.9,2,.2,0,.5,0-.3.8-.8.6-1.2.5-.8,0,.2-.2.3-.2.3-.2.2-.2.5-.5.2-.4v.2c-.5.2-1.6,1.1-1.4.8-.5.5-.2.3.3,0-1.1.7-1.6,1.2-2.7,1.9.2,0,.4-.1.2,0-1.6,1.1-.6.6-1.7,1.4-.7.3,0-.4-1,.4-.7.4-.3-.1,0-.3-.9.8-1.9,1.2-2.5,1.5l.5-.4c-.3.2-.6.4-.8.6h.4c-.3.1-.6.3-.6.2-.3.3.4,0-.1.6-.5.2-1.2.9-1.5.8,1.4-.8-.3-.1.8-.9-.2.2-.5.3-.8.5,0,0,0,0,0-.1-1.4.6-.4.6-1.8,1.4,0-.2-.4,0-.6.1.5-.3.4,0,0,.4-.9.4-.9.6-1.3.9l.5-.3c-.1.2-.5.5-1.1.9-.1,0,.5-.4.3-.3-.5.6-1.6.7-2.5,1.4-.5.2-.2-.2-.6,0-.9.8-1.2.5-2.2,1.3.4,0,.4-.1-.2.5l1.7-1.2-1,.9c.5-.3,1.1-.8,1.4-1-.5.5-.4.4-.1.4-.9.2-1.4,1-2.3,1.4l-.2-.4c-1.4.6-2.2,1.5-3.9,2.3l.6-.2c-.1.3-1.1.6-1.6.9,0-.2-.4,0-.7,0,0,.1-1.3.5-1.4.8h-.9c-.4.2-.7.3-.9.4,0,0-.1,0-.2,0,0,0,0,0,0,0h-.2c-.2.3-.7.5-1.2.4.3,0,.3-.2.4-.2,0,0,.2-.1.5-.2-.2,0-.3,0-.5,0,0,0,0,0-.2,0,0-.1,0-.4.2-.6,0,0-.2-.2,0-.4,0,0,0,0,0,0,0,0,0-.1.1-.2,0-.1.1-.2-.1-.1.7-.3,1.6-1,2.4-1.8.8-.8,1.4-1.6,2-2,.7-.9,1.5-1.9,2.2-2.6,0,0,0,0,0,.2,1.1-.8.3-.9,1.7-1.7.8-.3-.6.6-.1.4.5.3,1.5-1.1,2.5-1.5l-.2.2c.8-.3,1.5-1.3,2.7-2,0,0,0,0,0,0,.6-.7,2-1.7,3-2.5-.2.4-.4.4-.1.4.5-.3-.3-.2.6-.8.4-.1,1.1-.5,1.3-.4l-.9.6c.6,0,1.2-.8,1.7-1.1h0c1.4-.8,1.2-1.1,2.7-2h-.2c.6-.8.8-.3,1.5-1h.4c.5-.3,1.7-1.3,2.7-2-.4.5-1.5,1.3-2.1,1.9.5-.3,1.8-1.2,2-1.5-.2.2-.4.4-.7.5.5-.6,1.3-1.3,2.4-1.9,0,.2.2.1.5,0,.3-.1.7-.3,1.1-.5.9-.4,1.9-.9,2.4-.9,1.9-1.2,4-1.8,6.4-2.9-1,0,.7-.3.3-.7.5-.3.8-.4.8-.4l1.8-.5c.4,0-.5.3-.4.4,1.2-.5.6,0,1.4-.3-.2,0,.3-.4,1-.6-.3,0-.7,0-1,.2.8-.5,1.2-.5,1.6-.5.4,0,.8,0,1.6-.3l-.5.2c.4-.1,1.2-.3,2-.3.8,0,1.6,0,2.1-.1.1,0,.3.2,0,.2.5.1,1.1.2,1.5.4.4.2.6.3.7.6.1.3,0,.9-.1,1.3-.2.4-.4.8-.7,1.1v-.2c-.2.3-.2.7-.7,1,0,0,0-.2-.1,0-.1.2-.6.9-1.1,1.2l.3-.4c-1.7,1.4-2.3,2.5-3.6,3.8-.2-.2-1.6.8-2.3,1.3h0c-2,1.5-3.3,2.9-5.1,4.4-1.4.6-4.2,2.8-6.3,3.9.3-.1,0,.3-.2.5-.5.2-1.2,1-1.3.7h.2c-.5-.1-1.5.5-2.2,1v.4c-2.2.7-5.2,3.2-6.6,3.4-.5.4-1.1.7-1.5,1v-.2c-1.5.7-2.2,1-3.9,1.9l.3-.3c-1,.5-1,1.2-1.9,1.6l-.4-.2c-1.7.8-3.6,1.3-5.2,2.3,0,0,0-.2.3-.3-.8.4-3.3,1.1-2.8,1.4-.1-.2-1.8.6-2.8,1v-.3c-.7.5-.7.6-1.8,1-.3,0-.3-.1,0-.1-.9.1-.7.4-1.8.5l.4-.2c-1,.2-.9.2-1.4.5-.6.2-1.9.2-2,0-.1.1-.6.3-1.2.3,0,0,.1-.1.2-.1-.8,0-1.4,0-2,0-.5,0-1,0-1.6-.2,0,0,0-.1-.2-.2,1.3.2,2.3.2,2.2.3,0-.2-1-.3-.2-.5-.8.1-2.3.3-3.2,0,0,0,0,0-.1,0h.1c-.2,0-.4-.1-.5-.1,0,0-.1-.1-.2-.2,0,0,0,0,0,0,0,0,0-.1,0-.2h0c0,0,0-.2,0-.2,0-.1.1-.3.2-.4-.2,0,.1-.6-.3-.2,0,0,0,.1-.1.4,0,0,0,.1,0,.2,0,0,0,0,0,0,0,.2,0,.3,0,.5,0,0,0,0,0,.1,0,0-.1,0-.1,0-.1-.1-.2-.4,0-.6,0-.3,0-.6,0-.8.6-.5,1.4-1.6,1.7-1.6.7-1.4,2.3-2.8,2.8-3.8.3-.3.5-.3.6-.3-.2.2-.4.4-.5.5.6-.7,2.1-1.8,2.1-2.1,1-.6-.4.6.9-.4v.2c2.6-1.6,3.5-3.8,6.7-5.1-.2,0-.3.1-.4.1,3.5-1.8,7.1-4,10.9-5.3,1-.4,1.1-.6,1.6-1h.3c0,.1.9-.6.9-.6,1.4-.9,2.8-.7,4.6-1.9h-.3c.7-.3,2.1-1.1,2.1-.9,0,0,.2-.3.5-.3h0c0,.1,1.6-.9,1.6-.9,1.3-.5,0,.5,1.9-.4.7-.4,1.8-1.4,1.5-1.3-.3.2-.7.3-.8.2l.6-.4c0-.4.2-.9-1.4-.3-.3.2-.6.5-1,.7h-.4s.9-.4.9-.4c-.6.1-.8.4-1.2.7-.1,0-.3,0-.5,0l-.9.8c-.2,0,.4-.5-.4-.2-.4.4.6,0-.2.5-.6,0-.5,0-1.1.3-.1,0,0-.2.2-.3-.5.4-1.4.7-1.6,1-.6,0-1.8.9-1.9.6-.1.2-.9.7-1.4.9.8-.8-1.9.9-1.8.4-.5.6-2.4,1.3-3.5,2,0,0,.2-.2.3-.2-.7.3-.9.3-1.4.4,0,.3-1,.9-1.5,1.3-1,.1.4-.6,0-.7.1.2-1.4.9-1,1-.7.1-.6.2-1,.1,0,.4-.6.3-1,.8-1,.3-.4-.2-1.4.4-.5.2.3-.4.3-.4ZM150.6,410.6h0c-.2,0-.4,0-.6-.1.1,0,.3,0,.6.1ZM152.9,411c-.3,0-.6,0-1-.1,0,0,0-.1.3-.1-.1,0,.4.2.7.3ZM150,408.7c0,0,0,.1,0,.2,0,0,0-.1,0-.2h0s0,0,.1,0Z"/>
          <path class="cls-15" d="M149.8,408.3s0,0,0-.1c0,0,0,.1-.1.2,0,0,0,0,0,.1,0,0,0-.1,0-.2Z"/>
          <path class="cls-15" d="M183.2,389.1h0s0,0,0,0c0,0,0,0,0,0Z"/>
          <polygon class="cls-15" points="182.4 401.8 182.4 401.7 182.2 401.8 182.4 401.8"/>
          <path class="cls-15" d="M172.4,395.1s0,0-.1,0l.3.9s0,0,0,0c0,0,0,0,0,0l-.3-.9s0,0,.1,0Z"/>
          <path class="cls-15" d="M177.8,394.8c.3,0,.5-.1.8-.2-.3,0-.6.2-.8.2Z"/>
          <path class="cls-15" d="M181.5,392.7c0,0,0,0,0-.1h0s0,.1,0,.1Z"/>
          <path class="cls-15" d="M177.8,398s0,0-.1,0c-.3.2,0,0,.1,0Z"/>
          <path class="cls-15" d="M193.5,386.4c-.1.2-.3.3-.4.5.3-.2.5-.4.4-.5Z"/>
          <path class="cls-15" d="M158.3,404.5h0c0,0,0-.1,0-.2,0,0,0,.1,0,.2Z"/>
          <path class="cls-15" d="M192.4,387.4c.3-.2.5-.4.7-.6-.2.2-.5.4-.7.6Z"/>
          <path class="cls-15" d="M176.5,385.7c0,0-.2,0-.3,0,0,0,0,0,0,0,0,0,.2,0,.3,0Z"/>
          <path class="cls-15" d="M176.2,385.7c0,0-.2,0-.3,0,.1,0,.2,0,.3,0Z"/>
          <path class="cls-15" d="M175.3,385.7c.2,0,.4,0,.5,0-.2,0-.4,0-.5,0Z"/>
          <path class="cls-15" d="M174.5,389.7h0c0,0,0,0,0,0Z"/>
          <path class="cls-15" d="M176,388.8c-.4.2-1,.3-1.5.7h0c.2-.2,1.2-.5,1.5-.7Z"/>
          <path class="cls-15" d="M182.4,389.2c-.1-.3-.5-.5-.8-.5.2.1.3.2,0,.2.3,0,.3.2.4.2,0,0,0,0,0,0,0,0,0,0,0,0,0,0,.3,0,.4.3Z"/>
          <path class="cls-15" d="M180.4,392.3c.5-.5,0,0,0-.1-.3.3-.4.4,0,.1Z"/>
          <path class="cls-15" d="M191.4,384.2v.2c.5-.3,0,0,0-.2Z"/>
          <path class="cls-15" d="M197.4,381.1c-.1,0-.3,0-.4,0l-.5.3c.3,0,.6-.1.9-.2Z"/>
          <path class="cls-15" d="M194.9,383.6h0s0,0,0,.1c0,0,0,0,0-.1Z"/>
          <path class="cls-15" d="M164.5,400.7h-.3c-.2.3,0,.5.3,0Z"/>
          <path class="cls-15" d="M182,387.2c.3,0,.8-.3,1.1-.6-.4.3-.9.5-1.1.6Z"/>
          <polygon class="cls-15" points="186.7 397.2 187 396.9 186.3 397.4 186.7 397.2"/>
        </g>
        <path class="cls-9" d="M300,424.4"/>
        <path class="cls-9" d="M149,428.9"/>
        <path class="cls-12" d="M121.4,353.7s-55.9,93.5,36.7,108.1"/>
        <path class="cls-12" d="M318.7,353.7s55.9,93.5-36.7,108.1"/>
        <line class="cls-12" x1="200.1" y1="387.5" x2="236.1" y2="387.5"/>
        <g>
          <circle class="cls-14" cx="344.1" cy="644.9" r="20.7"/>
          <polyline class="cls-13" points="368.1 649.5 330.3 934.5 320.1 649.5"/>
        </g>
        <path class="cls-16" d="M359.8,623.8c2.2,0,2.2-3.4,0-3.4s-2.2,3.4,0,3.4h0Z"/>
        <path class="cls-16" d="M336.1,689.7c1.5,0,1.5-2.3,0-2.3s-1.5,2.3,0,2.3h0Z"/>
        <path class="cls-16" d="M337.6,701.5c1.5,0,1.5-2.3,0-2.3s-1.5,2.3,0,2.3h0Z"/>
        <g>
          <circle class="cls-14" cx="97.4" cy="644.9" r="20.7"/>
          <polyline class="cls-13" points="73.4 649.5 111.2 934.5 121.4 649.5"/>
        </g>
        <path class="cls-16" d="M104.2,636.6c1.5,0,1.5-2.3,0-2.3s-1.5,2.3,0,2.3h0Z"/>
        <path class="cls-16" d="M104.2,754.8c1.5,0,1.5-2.3,0-2.3s-1.5,2.3,0,2.3h0Z"/>
      </g>
      <g>
        <g id="Cuello">
          <path class="cls-8" d="M249.6,269.2l-1.9-60c-2.4-16.8-17.2-32.1-34.2-31.8h0c-17.2.3-31.1,16.3-32.7,33.4v59.6"/>
        </g>
        <path class="cls-16" d="M193.7,236c3,0,3-4.6,0-4.6s-3,4.6,0,4.6h0Z"/>
        <path class="cls-16" d="M209.5,262.5c2.2,0,2.2-3.4,0-3.4s-2.2,3.4,0,3.4h0Z"/>
        <path class="cls-16" d="M235.1,244.8c3,0,3-4.6,0-4.6s-3,4.6,0,4.6h0Z"/>
        <path class="cls-16" d="M244,264.4c1.5,0,1.5-2.3,0-2.3s-1.5,2.3,0,2.3h0Z"/>
        <g>
          <g>
            <polygon class="cls-5" points="211.6 63.5 211.5 63.5 211.5 63.5 211.6 63.5"/>
            <path class="cls-5" d="M215,229.7c-.2,0-.5,0-.7,0h0c.2,0,.5,0,.7,0Z"/>
          </g>
          <g>
            <path class="cls-5" d="M276.7,107.4h0c0-29.6-28.5-53.6-63.6-53.6s-63.6,24-63.6,53.6,0,2.6.2,3.9c-.2,3.1,0,6.2.4,9.3l9.2,56.6c1.2,7.5,4.4,14.5,9.2,20.4l13.1,16.1c8.1,9.9,20,15.7,32.7,15.9.2,0,.5,0,.7,0h.1c.2,0,.5,0,.7,0,12.7-.6,24.5-6.8,32.2-16.9l12.6-16.5c4.6-6,7.6-13.2,8.5-20.7l7.5-57.3c.2-1.8.4-3.6.4-5.4s-.1-3.7-.4-5.5Z"/>
            <path class="cls-5" d="M215.9,229.7h0s-.7,0-.7,0c.2,0,.5,0,.7,0Z"/>
          </g>
        </g>
        <path class="cls-16" d="M244.9,79.7c1.5,0,1.5-2.3,0-2.3s-1.5,2.3,0,2.3h0Z"/>
        <path class="cls-16" d="M228.7,101.5c3,0,3-4.6,0-4.6s-3,4.6,0,4.6h0Z"/>
        <path class="cls-16" d="M170.1,88.7c3,0,3-4.6,0-4.6s-3,4.6,0,4.6h0Z"/>
        <path class="cls-16" d="M170.1,87.6c1.5,0,1.5-2.3,0-2.3s-1.5,2.3,0,2.3h0Z"/>
        <path class="cls-16" d="M189.8,196.9c1.5,0,1.5-2.3,0-2.3s-1.5,2.3,0,2.3h0Z"/>
        <path class="cls-16" d="M228.2,213.2c2.2,0,2.2-3.4,0-3.4s-2.2,3.4,0,3.4h0Z"/>
        <path class="cls-16" d="M224.8,182.8c3,0,3-4.6,0-4.6s-3,4.6,0,4.6h0Z"/>
        <path class="cls-16" d="M224.8,182.2c2.2,0,2.2-3.4,0-3.4s-2.2,3.4,0,3.4h0Z"/>
        <path class="cls-16" d="M167.1,173.4c3,0,3-4.6,0-4.6s-3,4.6,0,4.6h0Z"/>
        <g>
          <path class="cls-16" d="M262.2,155.2c3,0,3-4.6,0-4.6s-3,4.6,0,4.6h0Z"/>
          <path class="cls-16" d="M253.3,160c2.2,0,2.2-3.4,0-3.4s-2.2,3.4,0,3.4h0Z"/>
          <path class="cls-16" d="M242,160.6c3,0,3-4.6,0-4.6s-3,4.6,0,4.6h0Z"/>
          <g>
            <path class="cls-16" d="M217.6,146.4s32.2,19.9,49-12.3c0,0-30.6-33.7-49,12.3"/>
            <path class="cls-16" d="M267.4,118.8c1,4.8.3,10.1-2.5,14.3,0,0-1.2-.9-1.2-.9,3-3.7,4.2-8.6,3.7-13.3h0Z"/>
            <path class="cls-16" d="M259,114.7c2.4,4.3,3.3,9.6,1.9,14.3,0,0-1.4-.5-1.4-.5,1.8-4.4,1.4-9.5-.4-13.8h0Z"/>
            <path class="cls-16" d="M251.9,111.8c3,3.9,4.6,9,3.9,13.9,0,0-1.5-.3-1.5-.3,1.2-4.6,0-9.6-2.4-13.6h0Z"/>
          </g>
        </g>
        <path class="cls-6" d="M163.6,113s3.5-11.5,13.1-7.8l8.1,12.9-10.6,10.5-10.6-15.6Z"/>
        <path class="cls-6" d="M219.9,132.8s2,12.8-6.6,19l-23.9-12.2,12.3-15.3,18.2,8.6Z"/>
        <path class="cls-6" d="M160.2,153.3s-1.1,17.3,17.1,15.5l22.7-11.7-15.2-19.8-24.5,16Z"/>
        <path class="cls-10" d="M178.9,111c11.2-3.8,19-13.7,28.4-8,7.4,4.5,13.3,11.6,16.2,20.4,3.3,9.8-13.1,12.4-17.3,21.1-4.3,9,3.4,24-6.8,27.5-10,3.4-12.8-13.2-21.6-17.5-8.8-4.4-23.6,3.5-27-6.5-3.3-9.9-2.4-20.2,1.8-28.9,4.3-9,16-4.6,26.2-8.1Z"/>
        <path class="cls-3" d="M210.8,136.5c0,11.8,6.9,22.4-1.5,29.4-6.6,5.5-15.2,8.9-24.5,8.9s-7.5-16.4-14.4-23.1c-7.2-7-23.9-4.4-23.9-15.2s16.5-7.9,23.5-14.8c6.9-6.9,4.3-23.5,14.8-23.5s19.9,4.2,26.8,10.9c7.1,7-.7,16.7-.7,27.4Z"/>
        <g>
          <path class="cls-4" d="M160.2,133.4s30.6-33.7,49,12.3c0,0-32.2,19.9-49-12.3Z"/>
          <path class="cls-14" d="M158.7,118.1c-.5,4.7.6,9.7,3.7,13.3,0,0-1.2.9-1.2.9-2.8-4.1-3.5-9.5-2.5-14.3h0Z"/>
          <path class="cls-14" d="M167.1,114c-1.8,4.4-2.2,9.4-.4,13.8,0,0-1.4.5-1.4.5-1.4-4.8-.5-10.1,1.9-14.3h0Z"/>
          <path class="cls-14" d="M174.2,111.1c-2.4,4.1-3.6,9-2.4,13.6,0,0-1.5.3-1.5.3-.7-4.9.9-10,3.9-13.9h0Z"/>
          <path class="cls-16" d="M185,131.6c3,0,3-4.6,0-4.6s-3,4.6,0,4.6h0Z"/>
          <path class="cls-16" d="M176.2,139.2c3,0,3-4.6,0-4.6s-3,4.6,0,4.6h0Z"/>
          <path class="cls-16" d="M194.1,139.7c3,0,3-4.6,0-4.6s-3,4.6,0,4.6h0Z"/>
          <path class="cls-16" d="M185.2,146.5c3,0,3-4.6,0-4.6s-3,4.6,0,4.6h0Z"/>
        </g>
      </g>
    </g>
  </g>
  <rect class="cls-7" x="24.9" y="32.2" width="376.1" height="460.5"/>
</svg>