<?xml version="1.0" encoding="UTF-8"?>
<svg id="Capa_1" data-name="Capa 1" xmlns="http://www.w3.org/2000/svg" version="1.1" xmlns:xlink="http://www.w3.org/1999/xlink" viewBox="0 0 426 525">
  <defs>
    <style>
      .cls-1 {
        fill: none;
      }

      .cls-1, .cls-2 {
        stroke: #666;
        stroke-width: 6px;
      }

      .cls-1, .cls-2, .cls-3 {
        stroke-linejoin: round;
      }

      .cls-2, .cls-4, .cls-5 {
        fill: #f2f2f2;
      }

      .cls-6, .cls-5, .cls-7, .cls-8, .cls-9 {
        stroke-width: 0px;
      }

      .cls-6, .cls-10, .cls-11, .cls-12, .cls-13, .cls-14, .cls-15, .cls-16 {
        fill: #000;
      }

      .cls-17 {
        fill: #42210b;
        fill-rule: evenodd;
      }

      .cls-17, .cls-18, .cls-10, .cls-11, .cls-19, .cls-20, .cls-21, .cls-12, .cls-13, .cls-22, .cls-23, .cls-14, .cls-24, .cls-15, .cls-25, .cls-26, .cls-27, .cls-16 {
        stroke-miterlimit: 10;
      }

      .cls-17, .cls-3, .cls-11, .cls-19, .cls-20, .cls-21, .cls-12, .cls-13, .cls-22, .cls-23, .cls-24, .cls-15, .cls-25, .cls-26, .cls-27, .cls-16 {
        stroke: #000;
      }

      .cls-17, .cls-22 {
        stroke-width: 2px;
      }

      .cls-18 {
        stroke: #b3b3b3;
      }

      .cls-18, .cls-3, .cls-11, .cls-20, .cls-21, .cls-12, .cls-13, .cls-14, .cls-15, .cls-25, .cls-26, .cls-27, .cls-16 {
        stroke-linecap: round;
      }

      .cls-18, .cls-3, .cls-22, .cls-27 {
        fill: #fff;
      }

      .cls-18, .cls-3, .cls-15, .cls-26, .cls-27 {
        stroke-width: 6px;
      }

      .cls-7, .cls-20, .cls-21, .cls-24 {
        fill: #c69c6d;
      }

      .cls-10 {
        stroke: #4d4d4d;
        stroke-width: 4.5px;
      }

      .cls-8, .cls-25 {
        fill: #b3b3b3;
      }

      .cls-11 {
        stroke-width: 5.6px;
      }

      .cls-19 {
        fill: #a67c52;
        stroke-width: 2.9px;
      }

      .cls-20, .cls-14, .cls-25, .cls-16 {
        stroke-width: 4.6px;
      }

      .cls-21 {
        stroke-width: 3.9px;
      }

      .cls-12 {
        stroke-width: 6.1px;
      }

      .cls-13 {
        stroke-width: 5.1px;
      }

      .cls-23 {
        fill: #150b00;
      }

      .cls-23, .cls-24 {
        stroke-width: 3.9px;
      }

      .cls-14 {
        stroke: #333;
      }

      .cls-9 {
        fill: #603813;
      }

      .cls-28 {
        clip-path: url(#clippath);
      }

      .cls-26 {
        fill: #1a1a1a;
      }
    </style>
    <clipPath id="clippath">
      <rect class="cls-2" x="24.9" y="32.2" width="376.1" height="460.5"/>
    </clipPath>
  </defs>
  <rect class="cls-4" x="24.9" y="32.2" width="376.1" height="460.5"/>
  <g class="cls-28">
    <g>
      <g>
        <g>
          <path class="cls-26" d="M284.5,1285.4l57.1,20.3c8.9,2.6,15,10.8,15,20v1.3h-136.7v-41.7h64.6Z"/>
          <circle class="cls-27" cx="252.2" cy="1277.8" r="32.3"/>
          <path class="cls-27" d="M338.7,1304.9l4.4,1.2c9.1,2.4,15.5,10.7,15.5,20.2v.9h-19.9v-22.2Z"/>
          <rect class="cls-3" x="219.9" y="1327.1" width="138.6" height="19.3"/>
          <line class="cls-18" x1="270.3" y1="1294.4" x2="270.3" y2="1262.7"/>
          <line class="cls-18" x1="255.2" y1="1300.4" x2="255.2" y2="1264.6"/>
          <line class="cls-18" x1="235.7" y1="1291.4" x2="235.7" y2="1269.8"/>
          <path class="cls-5" d="M319,1312.3c2.9,0,2.9-4.5,0-4.5s-2.9,4.5,0,4.5h0Z"/>
          <path class="cls-5" d="M288.4,1302.9c2.9,0,2.9-4.5,0-4.5s-2.9,4.5,0,4.5h0Z"/>
        </g>
        <g>
          <path class="cls-26" d="M133.7,1285.1l-57.1,20.3c-8.9,2.6-15,10.8-15,20v1.3h136.7v-41.7h-64.6Z"/>
          <circle class="cls-27" cx="166" cy="1277.6" r="32.3"/>
          <path class="cls-27" d="M79.6,1304.6l-4.4,1.2c-9.1,2.4-15.5,10.7-15.5,20.2v.9h19.9v-22.2Z"/>
          <rect class="cls-3" x="59.7" y="1326.8" width="138.6" height="19.3"/>
          <line class="cls-18" x1="148" y1="1294.1" x2="148" y2="1262.4"/>
          <line class="cls-18" x1="163" y1="1300.1" x2="163" y2="1264.3"/>
          <line class="cls-18" x1="182.6" y1="1291.1" x2="182.6" y2="1269.5"/>
          <path class="cls-5" d="M99.2,1312c2.9,0,2.9-4.5,0-4.5s-2.9,4.5,0,4.5h0Z"/>
          <path class="cls-5" d="M129.8,1302.7c2.9,0,2.9-4.5,0-4.5s-2.9,4.5,0,4.5h0Z"/>
        </g>
        <g>
          <g>
            <circle class="cls-12" cx="258.1" cy="975.4" r="48.9"/>
            <path class="cls-15" d="M307,975.4l.5,294.1c0,4.3-3.5,7.8-7.8,7.8h-82.4c-4.3,0-7.8-3.5-7.8-7.8l-.3-294.2"/>
          </g>
          <line class="cls-10" x1="307.5" y1="1269.5" x2="209.5" y2="1269.5"/>
        </g>
        <g>
          <circle class="cls-11" cx="240.6" cy="755.1" r="32.7"/>
          <path class="cls-13" d="M208.2,752.4l.4,216.4v1.8c-.4,27.6,21.9,50.2,49.5,50.2h0c27.4,0,49.5-22.2,49.5-49.5v-.7l-35.9-226"/>
        </g>
        <g>
          <g>
            <circle class="cls-12" cx="159.3" cy="975.4" r="48.9"/>
            <path class="cls-15" d="M110.4,975.4l-.5,294.1c0,4.3,3.5,7.8,7.8,7.8h82.4c4.3,0,7.8-3.5,7.8-7.8l.3-294.2"/>
          </g>
          <line class="cls-10" x1="109.9" y1="1269.5" x2="207.9" y2="1269.5"/>
        </g>
        <g>
          <circle class="cls-11" cx="176.9" cy="755.1" r="32.7"/>
          <path class="cls-13" d="M209.3,752.4l-.4,216.4v1.8c.4,27.6-21.9,50.2-49.5,50.2h0c-27.4,0-49.5-22.2-49.5-49.5v-.7l35.9-226"/>
        </g>
        <path class="cls-16" d="M274.2,754.3c.8,16.9-12.3,31.8-29.2,33-18.2,1.3-33.5-12.9-33.9-30.7h-3.8c-.4,17.7-15.5,31.9-33.5,30.8-16.2-1-29.3-14.6-29.6-30.9,0-1.5,0-2.9.2-4.3.8-7.2,1.3-14.4,1.3-21.6v-57.4c0-35.3,28.6-63.9,63.9-63.9h0c35.3,0,63.9,28.6,63.9,63.9v64.9c0,4.8,0,9.7.6,14.5,0,.6.1,1.2.1,1.8Z"/>
        <path class="cls-14" d="M163.8,717.5s7.5,22.6-12,43.6"/>
        <path class="cls-14" d="M255.1,718.4s-7.5,22.6,12,43.6"/>
        <g>
          <g>
            <path class="cls-25" d="M145.5,670.6"/>
            <path class="cls-25" d="M273.3,670.6l24.3-183.1h0s20.8-44.2,20.8-44.2c5.6-11.8,11.6-23.5,19.4-34,2.5-3.3,4.3-7,5.5-11.2,4.7-16.8-3.1-32.5-16.1-39.9-31.3-17.7-62.4-35.6-92.1-55.9h0c-15.5-10.7-36-10.9-51.8-.7l-6.2,4-86.6,53.3c-12.4,7.7-19.5,22.9-15,39.2,1.2,4.2,3.1,8,5.5,11.2,7.9,10.5,13.9,22.2,19.4,34l20.8,44.2h0s24.3,183.1,24.3,183.1h0c0,11.5,4.7,34,12.2,41.5,4.3,4.3,9.6,7.8,15.5-.2,5.8-7.9,16.5-10.3,25.1-5.6l11.3,6h21.9c12.2,0,11.1-17.3,18.7-25.6,6.8-7.4,22.9-5.3,22.9-16.1h0Z"/>
            <path class="cls-20" d="M150.8,321.8l31.1,31.9c14.6,15,38.9,14.6,53.1-.9l28.1-30.7-28.2-19.7c-15.4-10.8-35.8-11.2-51.7-1.2l-32.4,20.5Z"/>
          </g>
          <circle class="cls-8" cx="209.6" cy="664.2" r="28.6"/>
        </g>
        <g>
          <circle class="cls-8" cx="108.7" cy="388.3" r="32.2"/>
          <path class="cls-25" d="M74.1,386.9v196.8c0,0-.4,3.9-.4,3.9-1.1,10.5,6.5,19.9,17,21h0c10.5,1.1,19.9-6.5,21-17l.4-3.6,17-170.7"/>
          <path class="cls-20" d="M125.3,455l-13.2,132.7-.4,3.6c-1.1,10.5-10.5,18.1-21,17h0c-10.5-1.1-18.1-10.5-17-21l.4-3.9v-128.4s51.2,0,51.2,0Z"/>
        </g>
        <g>
          <circle class="cls-7" cx="92.5" cy="589.9" r="16.8"/>
          <path class="cls-20" d="M74.1,595l13.8,142.6v7.2c0,7.8,6.3,14.1,14.1,14.1h0c8.2,0,14.7-7,14-15.2l-.5-6.1-4.1-144.5"/>
        </g>
        <g>
          <circle class="cls-7" cx="101.8" cy="745" r="11.7"/>
          <path class="cls-20" d="M88,746.5l-8.6,48.3c-.4,2,.3,16.1,1.7,17.6l9.4,9.4c1.2,1.2,2.8,1.8,4.4,1.8h19.1c2.6,0,5-1.6,5.9-4.1l3.5-9.5c.3-.9.5-1.9.3-2.9l-2.4-32.9c-.3-1.2,1.1-2,2-1.2l5,11.8c1.6,3.7,6.2,5,9.5,2.6h0c2.7-2,3.4-5.8,1.5-8.6l-23.2-33.7"/>
        </g>
        <g>
          <circle class="cls-8" cx="310.3" cy="388.3" r="32.2"/>
          <path class="cls-25" d="M344.9,386.9v196.8c0,0,.4,3.9.4,3.9,1.1,10.5-6.5,19.9-17,21h0c-10.5,1.1-19.9-6.5-21-17l-.4-3.6-17-170.7"/>
          <path class="cls-20" d="M293.6,455l13.2,132.7.4,3.6c1.1,10.5,10.5,18.1,21,17h0c10.5-1.1,18.1-10.5,17-21l-.4-3.9v-128.4s-51.2,0-51.2,0Z"/>
        </g>
        <g>
          <circle class="cls-7" cx="326.2" cy="589.9" r="16.8"/>
          <path class="cls-20" d="M344.7,595l-13.8,142.6v7.2c0,7.8-6.3,14.1-14.1,14.1h0c-8.2,0-14.7-7-14-15.2l.5-6.1,4.1-144.5"/>
        </g>
        <g>
          <circle class="cls-7" cx="316.6" cy="744.5" r="11.7"/>
          <path class="cls-20" d="M330.4,746l8.6,48.3c.4,2-.3,16.1-1.7,17.6l-9.4,9.4c-1.2,1.2-2.8,1.8-4.4,1.8h-19.1c-2.6,0-5-1.6-5.9-4.1l-3.5-9.5c-.3-.9-.5-1.9-.3-2.9l2.4-32.9c.3-1.2-1.1-2-2-1.2l-5,11.8c-1.6,3.7-6.2,5-9.5,2.6h0c-2.7-2-3.4-5.8-1.5-8.6l23.2-33.7"/>
        </g>
      </g>
      <g>
        <g id="Cuello">
          <path class="cls-21" d="M242.1,330.8l-1.8-58.9c-2.4-16.5-16.9-31.5-33.5-31.2h0c-16.8.3-30.5,16-32.1,32.8v58.5"/>
        </g>
        <path class="cls-24" d="M154.1,245.1c-12.6-.4-20.6-10.5-20.2-23,.3-8.8,5.5-16.3,13-19.8l7.2,42.8Z"/>
        <path class="cls-24" d="M260.2,243.5c12.5-.8,20.3-11.1,19.5-23.6-.6-8.8-6-16.1-13.6-19.4l-5.9,43Z"/>
        <g>
          <path class="cls-24" d="M204.7,129l32.6,7.1c10.7,3.4,19.9,10.5,25.7,20.1h0c4.9,7.9,6.8,17.3,5.6,26.5l-8.8,67.5-31.8,41.6-20.6.3"/>
          <path class="cls-24" d="M205.2,128.9l-31.3,8.4c-9.2,3.4-17.1,9.7-22.6,17.9l-.5.8c-5.7,8.6-7.9,19-6.3,29.1l10.9,66.8,33.1,40.6,20.6-.3"/>
          <path class="cls-24" d="M205,129"/>
        </g>
        <path class="cls-19" d="M216.7,244.2l-19.5.3c-1.9,0-3.3-1.9-2.6-3.7l11.8-31.7h0l12.8,31.3c.7,1.8-.6,3.7-2.5,3.7Z"/>
        <g>
          <path class="cls-6" d="M185.2,259c14.5-1.6,29.1-1.8,43.6-.7-14.5,1.6-29.1,1.8-43.6.7h0Z"/>
          <path class="cls-6" d="M189.8,259.7c10,1.3,20.1.3,30.2,0,1.4,0,2.9-.1,4.4-.1-10.4,2.8-24.3,4.2-34.5.1h0Z"/>
        </g>
        <path class="cls-22" d="M198.2,202.3s-.6-14.4-40.4.6c0,0,11.7,11.6,40.4-.6Z"/>
        <path class="cls-6" d="M198.9,202h-.9c0-.1,0-3.7-3.8-6.2-4.3-2.9-14.1-4.7-36.1,3.8l-.3-.9c9.9-3.8,18.3-5.9,24.9-6.2,5.2-.2,9.3.6,12.1,2.6,4.1,2.8,4.1,6.8,4.1,7Z"/>
        <g>
          <path class="cls-9" d="M190.2,205.2c4-5.9.3-8.1.3-8.1-5.3-2-16,1.1-16,1.1,0,0-6.2,3.4.1,9.6l5.6-.5,2.7-.3,7.2-1.8Z"/>
          <path class="cls-6" d="M174.5,208.4h-.2c-2.2-2.3-3.2-4.4-3-6.4.4-2.6,2.8-4,2.9-4.1h0s0,0,0,0c.4-.1,11-3.1,16.3-1.1h0c0,0,1.3.8,1.6,2.5.4,1.8-.2,3.9-1.8,6.2h0c0,.1-7.4,2-7.4,2l-2.7.3-5.9.6ZM174.7,198.7c-.3.2-2.1,1.4-2.4,3.4-.2,1.6.6,3.4,2.5,5.3l5.4-.5,2.7-.3,7-1.8c1.4-2.1,1.9-3.9,1.6-5.4-.3-1.2-1-1.8-1.2-1.9-4.9-1.8-14.8.9-15.6,1.1Z"/>
        </g>
        <g>
          <circle class="cls-6" cx="182.5" cy="201.6" r="5"/>
          <path class="cls-6" d="M182.5,207c-3,0-5.5-2.3-5.5-5.3,0-3,2.3-5.5,5.3-5.5s5.5,2.3,5.5,5.3c0,3-2.3,5.5-5.3,5.5ZM182.4,197.1c-2.5,0-4.5,2.1-4.4,4.6,0,2.5,2.1,4.5,4.6,4.4s4.5-2.1,4.4-4.6-2.1-4.5-4.6-4.4Z"/>
        </g>
        <path class="cls-22" d="M215,201.8s.1-14.4,40.4-.6c0,0-11.3,12-40.4.6Z"/>
        <path class="cls-6" d="M214.3,201.5c0-.2,0-4.2,3.9-7.1,2.8-2,6.8-3,12-2.9,6.6.1,15,2,25.1,5.5l-.3.9c-22.3-7.8-32-5.8-36.2-2.7-3.6,2.6-3.6,6.2-3.6,6.3h-.9Z"/>
        <g>
          <path class="cls-9" d="M223.1,204.4c-4.2-5.8-.6-8.1-.6-8.1,5.2-2.1,16.1.6,16.1.6,0,0,6.3,3.2.1,9.6l-5.7-.4-2.8-.2-7.2-1.6Z"/>
          <path class="cls-6" d="M238.9,207.1l-5.9-.4-2.8-.2-7.4-1.6h-.1c-1.7-2.5-2.4-4.5-2-6.3.3-1.7,1.5-2.5,1.6-2.5h0c5.3-2.2,15.9.4,16.4.6h0s0,0,0,0c.1,0,2.6,1.4,3,4,.3,2-.6,4.1-2.8,6.4v.2ZM230.4,205.5l2.7.2,5.4.4c1.8-2,2.6-3.8,2.4-5.4-.3-2-2.2-3.1-2.5-3.3-.8-.2-10.9-2.6-15.7-.6-.2.1-.9.7-1.1,1.9-.3,1.5.3,3.3,1.8,5.3l7,1.5Z"/>
        </g>
        <g>
          <circle class="cls-6" cx="230.7" cy="200.5" r="5"/>
          <path class="cls-6" d="M230.8,206c-3,0-5.5-2.3-5.5-5.3s2.3-5.5,5.3-5.5c3,0,5.5,2.3,5.5,5.3,0,3-2.3,5.5-5.3,5.5ZM230.6,196.1c-2.5,0-4.5,2.1-4.4,4.6,0,2.5,2.1,4.5,4.6,4.4s4.5-2.1,4.4-4.6-2.1-4.5-4.6-4.4Z"/>
        </g>
        <path class="cls-17" d="M153.8,197.6s21.4-13.5,41.4-8.1c1.7.5,3.5-.8,3.4-2.6v-2.4c0-1.4-1.2-2.6-2.7-2.7-8.5-.2-35.6.5-42.2,15.7Z"/>
        <path class="cls-17" d="M259.2,195.7s-21.8-12.8-41.7-6.8c-1.7.5-3.5-.7-3.5-2.5v-2.4c0-1.4,1.1-2.7,2.5-2.7,8.5-.4,35.6-.6,42.7,14.4Z"/>
        <path class="cls-23" d="M266.8,166.1c4.2,3.2,7.3,7.8,8.8,12.9,1,3.3,1.3,6.8,2.8,9.9,1.6,3.1,5,5.6,8.3,4.7-3.7,2.7-9,1.8-12.7-.7-3.8-2.5-6.4-6.3-9.2-9.9-.8-1.1-2-6.9-5.2-5.1-1.8,1-1.6,5.2-1.7,7.2-.4,6.1,5.5,10.1,9.1,15-5.2-7.7-17.7-7.6-14.2-22.9.8-3.6-6.4-8.1-10.1-7.5-2.4.3-3.6,3-5,5s-4.9,3.3-6,1.1c1.2-5.4,3-10.9,2.4-16.4-.6-5.5-4.8-11.2-10.3-11.1-1.2,4-.3,8.3-.7,12.5-.4,4.2-3,8.8-7.1,9-.6-2.6-1.3-5.4-3-7.4-1.7-2.1-4.9-3.2-7.2-1.7-2.6,1.7-2.6,5.4-2.3,8.6.6,5.6,1.1,11.2,1.7,16.8-6.7-6.8-10.8-16-11.4-25.5-5.5,3.4-5.6,12.8-11.7,15.1-3.1,1.2-6.5,0-9.7.7-5.3,1.2-7.9,7-9.7,12.1-2.9-5.9.6-12.7,3.5-18.6,2.9-5.9,4-12.1-1.5-13.8-6.1-1.5-7.6,3.8-6.6,9.2,3.4,18.1-12.8,24.2-9.3,35.9-4.8-.5-5-4-6.6-8.6-1.6-4.6,4.5-10.4,1.9-14.5-4.1,4.1-6.4,9.9-6.2,15.8,0,.8-.4,1.6-1.1,2-1.5.8-2.6-.7-3.2-2-6.2-13.5-3.2-30.6,7.2-41.2-5-4.7-15.8,6.1-15.8,6.1,1.2-10.6,11.7-14.7,11.7-14.7-7.6-3.5-5-12.6-5-12.6,11.3,6,25.8-14.4,25.8-14.4-3-.4-6.1-.2-9,.6,1.3-3.3,5-4.9,8.4-6,14.2-4.5,29.5-5.8,44.2-3.5l2.2-2.9c-6.8-8.9-17.2-15.1-28.3-16.7,11.2-5,25.3-3,34.6,5.1,5.2,4.5,10.7,11.2,17.3,9.4,1.7-.5,3.1-1.4,4.7-2.2,6.8-3.2,14.8-1.1,22,.9-5.1.8-9.9,3.9-12.7,8.2,5,1.5,9.5,4.4,13.1,8.2,2.9,3,5.5,6.9,9.6,7.8,3.2.7,6.5-.7,9.7-.9,6.7-.4,13.3,4.8,14.3,11.4-4.5-1.8-10.9-3.7-14.2-.2s-1.3,1.2-1.3,2.3,1.1,2.8,2.5,3.4c2,.8,5.2,1.2,9-1.9,0,0-.7,10.1-5.9,14.2,0,0,6.2,8.6,7.7,18.5,0,0-12.6-9.2-18.5-6.8"/>
      </g>
    </g>
  </g>
  <rect class="cls-1" x="24.9" y="32.2" width="376.1" height="460.5"/>
</svg>