<?xml version="1.0" encoding="UTF-8"?>
<svg id="Capa_1" data-name="Capa 1" xmlns="http://www.w3.org/2000/svg" version="1.1" xmlns:xlink="http://www.w3.org/1999/xlink" viewBox="0 0 426 525">
  <defs>
    <style>
      .cls-1 {
        stroke-width: 3.7px;
      }

      .cls-1, .cls-2, .cls-3, .cls-4, .cls-5, .cls-6, .cls-7, .cls-8, .cls-9, .cls-10, .cls-11, .cls-12, .cls-13, .cls-14, .cls-15, .cls-16, .cls-17, .cls-18, .cls-19, .cls-20 {
        stroke-miterlimit: 10;
      }

      .cls-1, .cls-2, .cls-3, .cls-4, .cls-6, .cls-7, .cls-8, .cls-9, .cls-10, .cls-11, .cls-13, .cls-14, .cls-15, .cls-16, .cls-18, .cls-19, .cls-20 {
        stroke: #000;
      }

      .cls-1, .cls-2, .cls-3, .cls-9, .cls-10, .cls-13, .cls-14, .cls-15, .cls-16 {
        stroke-linecap: round;
      }

      .cls-1, .cls-8, .cls-15, .cls-21 {
        fill: #ff9c6d;
      }

      .cls-2, .cls-22, .cls-23, .cls-16, .cls-17 {
        fill: #f2f2f2;
      }

      .cls-2, .cls-9, .cls-14, .cls-15 {
        stroke-width: 4.4px;
      }

      .cls-24, .cls-3, .cls-13 {
        fill: #000;
      }

      .cls-24, .cls-23, .cls-25, .cls-26, .cls-21, .cls-27 {
        stroke-width: 0px;
      }

      .cls-3, .cls-10, .cls-16 {
        stroke-width: 4.8px;
      }

      .cls-4 {
        stroke-width: 1.4px;
      }

      .cls-4, .cls-11, .cls-25, .cls-19, .cls-20 {
        fill: #b17f49;
      }

      .cls-5, .cls-12, .cls-17 {
        stroke: #c1272d;
      }

      .cls-5, .cls-14 {
        fill: none;
      }

      .cls-5, .cls-17 {
        stroke-width: 6px;
      }

      .cls-6 {
        fill: #fff;
      }

      .cls-6, .cls-18, .cls-20 {
        stroke-width: 1.9px;
      }

      .cls-7 {
        fill: #db9370;
      }

      .cls-7, .cls-11 {
        stroke-width: 2.8px;
      }

      .cls-8 {
        stroke-width: 3.7px;
      }

      .cls-9 {
        fill: #b3b3b3;
      }

      .cls-10, .cls-27 {
        fill: #8a000f;
      }

      .cls-12 {
        fill: red;
        stroke-width: 4.3px;
      }

      .cls-13 {
        stroke-width: 4.9px;
      }

      .cls-26 {
        fill: #bd1622;
      }

      .cls-28 {
        clip-path: url(#clippath);
      }

      .cls-18 {
        fill: #1d1d1b;
      }

      .cls-19 {
        stroke-width: 2.7px;
      }
    </style>
    <clipPath id="clippath">
      <rect class="cls-17" x="24.9" y="32.2" width="376.1" height="460.5"/>
    </clipPath>
  </defs>
  <rect class="cls-22" x="24.9" y="32.2" width="376.1" height="460.5"/>
  <g class="cls-28">
    <g>
      <path class="cls-11" d="M134.8,196.8c.3,0,.6.1.6.4,0,4.2-1,29.1-29.1,57.2-.4.4,0,.9.5.8l21.2-6.7c.3-.1.6.2.6.5-.5,5.6-4.9,44.3-35.8,78.9-.3.4,0,.9.5.8l26.7-10c.3-.1.7.1.6.5-.3,6.1-4.5,50-54.1,122.3-.3.4.2,1,.6.7l31.5-19.1c.3-.2.7,0,.7.4,0,8.7-.9,85.1-58.9,159.7-.3.4.1.9.6.7l45.8-20.3c.3-.1.7,0,.7.4,0,6.2-.2,51-27.3,84.8-.3.4.2,1,.6.7l62.4-38.8c.2-.1.6,0,.7.2,2.3,4.7,20.2,44,.2,78.2-.3.5.4,1,.8.6l50.4-56.3c.2-.2.6-.2.8,0,2.4,4.8,18,37.9,8.7,82.5-.1.5.6.8.9.3l38.2-75.6c.1-.3.5-.3.7-.1l52.6,48.3c.4.3,1,0,.8-.5-4.4-9.9-21.8-52.2-10.3-73.3.1-.2.4-.3.7-.2l57.8,34.2c.4.3.9-.3.6-.7-6.3-8.5-30.8-43.1-24.4-57,.1-.3.4-.3.7-.2l68.6,40.5c.5.3.9-.3.6-.7-7.5-9.6-38.4-51.7-33.2-86.9,0-.3.4-.5.7-.4l39.7,16c.5.2.9-.4.5-.8-11.6-10.2-64.9-61-70-136.1,0-.3.3-.6.6-.5l35.6,9.3c.5.1.8-.4.5-.8-8-8.8-49.8-59.7-49.1-117,0-.4.4-.6.7-.4l25,15c.4.3.9-.2.7-.6-4.2-7-27.1-41.3-27.4-82.4,0-.4.4-.6.7-.4l19,9.9c.5.2.9-.3.6-.7-6.5-7.7-30.3-37.9-26.8-61.8,0-.3.3-.5.6-.4l14.8,2.8c.5,0,.8-.5.4-.8-4-4-17-18.8-23.9-52,0,0,0,0,0,0-1.7-40.1-25.2-60.2-66.5-56.6-34.4,3.1-73.3,19.6-76,54.1,0,0,0,0,0,0,.1,1.2,2.4,30.9-21.1,61.8-.3.4,0,.9.5.7l15.6-5.1"/>
      <g>
        <path class="cls-10" d="M277.7,625.5c.8,16-11.6,30.1-27.6,31.2-17.3,1.3-31.7-12.2-32.1-29.1h-3.6c-.4,16.8-14.6,30.1-31.7,29.1-15.3-.9-27.7-13.8-28-29.2,0-1.4,0-2.7.2-4.1.8-6.8,1.2-13.6,1.2-20.5v-54.3c0-33.4,27-60.4,60.4-60.4h0c33.4,0,60.4,27,60.4,60.4v61.3c0,4.6,0,9.1.5,13.7,0,.6.1,1.2.1,1.7Z"/>
        <g>
          <circle class="cls-27" cx="182.2" cy="624.6" r="28.6"/>
          <path class="cls-10" d="M213.5,623.7l1.7,8.2c13.9,66.3,13.4,134.9-1.5,201h0s0,1.7,0,1.7c.4,26.1-20.7,47.5-46.8,47.5h0c-25.9,0-46.8-21-46.8-46.8v-.7s-10.1-66-10.1-66c-8.2-53.9,7.2-108.8,42.3-150.6h0"/>
        </g>
        <g>
          <g>
            <circle class="cls-27" cx="166.6" cy="832" r="43.7"/>
            <path class="cls-10" d="M119.7,828.4l-37.8,109.7c0,4.1,3.3,7.4,7.4,7.4l116.3-22.7c4.1,0,7.4-3.3,7.4-7.4l.6-77"/>
            <line class="cls-12" x1="83.3" y1="933.8" x2="214.4" y2="911.1"/>
            <polygon class="cls-15" points="173.7 1126.9 203.6 1126.9 205 922.2 138.2 936.4 173.7 1126.9"/>
          </g>
          <path class="cls-16" d="M203.8,1126.6v-84.2h-45.6l15.7,84.2-.3,2.7c-.3,8.6,6.6,15.7,15.3,15.7h0c8.7,0,15.7-7.3,15.2-16l-.4-2.5Z"/>
        </g>
        <g>
          <path class="cls-3" d="M173.7,1126.9l-37.6,5c-12,2.3-20.7,12.7-20.7,24.9h0s89.6,0,89.6,0l-1.2-30.2"/>
          <circle class="cls-23" cx="188.9" cy="1130.1" r="12.8"/>
          <polygon class="cls-16" points="131.9 1134.5 141.8 1142.1 165.8 1140 166.7 1130.6 131.9 1134.5"/>
          <polygon class="cls-13" points="112.8 1156.8 112.8 1166 178.7 1166 178.7 1158 192.7 1157.9 192.7 1167.1 206.6 1167.1 206.6 1156.8 112.8 1156.8"/>
        </g>
        <g>
          <circle class="cls-27" cx="247.2" cy="624.3" r="28.6"/>
          <path class="cls-10" d="M215.9,623.4l-.6,2.7c-14.7,68.1-14.6,138.5.3,206.5h0s0,1.7,0,1.7c-.4,26.1,20.7,47.5,46.8,47.5h0c25.9,0,46.8-21,46.8-46.8v-.7s10.1-66,10.1-66c8.2-53.9-7.2-108.8-42.3-150.6h0"/>
        </g>
        <g>
          <g>
            <circle class="cls-27" cx="262.8" cy="831.6" r="43.7"/>
            <path class="cls-10" d="M309.7,828.1l37.8,109.7c0,4.1-3.3,7.4-7.4,7.4l-116.3-22.7c-4.1,0-7.4-3.3-7.4-7.4l-.6-77"/>
            <line class="cls-12" x1="346.1" y1="933.5" x2="215" y2="910.8"/>
            <polygon class="cls-15" points="255.7 1126.6 225.8 1126.6 224.4 921.9 291.2 936.1 255.7 1126.6"/>
          </g>
          <path class="cls-16" d="M225.3,1126.9v-84.2h45.6l-15.7,84.2.3,2.7c.3,8.6-6.6,15.7-15.3,15.7h0c-8.7,0-15.7-7.3-15.2-16l.4-2.5Z"/>
        </g>
        <g>
          <path class="cls-3" d="M255.7,1126.9l37.6,5c12,2.3,20.7,12.7,20.7,24.9h0s-89.6,0-89.6,0l1.2-30.2"/>
          <circle class="cls-23" cx="240.5" cy="1130.1" r="12.8"/>
          <polygon class="cls-16" points="297.5 1134.5 287.6 1142.1 263.6 1140 262.7 1130.6 297.5 1134.5"/>
          <polygon class="cls-13" points="316.6 1156.8 316.6 1166 250.7 1166 250.7 1158 236.7 1157.9 236.7 1167.1 222.8 1167.1 222.8 1156.8 316.6 1156.8"/>
        </g>
        <g>
          <g>
            <g>
              <path class="cls-9" d="M155.9,547.7"/>
              <path class="cls-2" d="M342.9,358.3c-1.1,4-2.9,7.5-5.2,10.6-7.4,9.9-13,21-18.3,32.1l-19.6,41.8h0s-23,104.9-23,104.9c-4.5,27.7,11.1,89.2,11.6,89.9-24.4-13.3-39.3,16.2-39.3,16.2-35-52-63.9,0-63.9,0-7.8-28.8-43.8-18.5-44.8-18.2,11.5-16.5,15.5-87.9,15.5-87.9l-23-104.9h0s-19.7-41.8-19.7-41.8c-5.2-11.2-10.9-22.2-18.3-32.1-2.3-3.1-4.1-6.7-5.2-10.6-4.3-15.4,2.5-29.8,14.2-37.1l57-35.1,29.4,30.1c13.9,14.2,36.8,13.8,50.2-.8l26.5-29-26.6-18.6c-6.6-4.6-14.2-7.2-21.9-7.8,7.8.5,15.4,3,22.1,7.6,28,19.2,57.5,36.1,87.1,52.9,12.4,7,19.7,21.8,15.3,37.7Z"/>
              <path class="cls-9" d="M267.1,286.5l-26.5,29c-13.4,14.6-36.3,15-50.2.8l-29.4-30.1.6-.4,24.2-14.9,5.9-3.8c6.8-4.4,14.5-6.8,22.3-7.1.4,0,.7,0,1.1,0,.2,0,.4,0,.6,0,.5,0,1.1,0,1.6,0,.4,0,.8,0,1.2,0,7.7.6,15.3,3.2,21.9,7.8l26.6,18.6Z"/>
              <path class="cls-15" d="M267.1,286.5v45.5c-13.4,14.6-92.8,12.8-106.6-1.4l.5-44.4.6-.4,30-19c6.9-4.4,14.7-6.6,22.4-6.8.4,0,.7,0,1.1,0h.4c0,0,.1,0,.2,0,.5,0,1.1,0,1.6,0,.4,0,.8,0,1.2,0,7.7.6,15.3,3.2,21.9,7.8l26.6,18.6Z"/>
            </g>
            <path class="cls-14" d="M204.7,425.2l-7.2,4.2c-.6.4-1.2.7-1.8,1-17.5,9.4-37.4,6.3-51.5-4.7"/>
            <path class="cls-14" d="M213.7,359.4"/>
            <line class="cls-14" x1="214" y1="317.1" x2="213.7" y2="340.7"/>
            <path class="cls-14" d="M288.2,425l-7.2,4.2c-.6.4-1.2.7-1.8,1-17.5,9.4-37.4,6.3-51.5-4.7"/>
          </g>
          <circle class="cls-23" cx="214.5" cy="572.2" r="32.7"/>
        </g>
        <g>
          <circle class="cls-23" cx="121.1" cy="347.5" r="30.5"/>
          <path class="cls-2" d="M88.4,346.3v186.1s-.3,3.7-.3,3.7c-1,9.9,6.1,18.8,16.1,19.9h0c9.9,1,18.8-6.1,19.9-16.1l.4-3.4,16.1-161.4"/>
          <path class="cls-15" d="M139.1,380.3l-14.7,155.9-.4,3.4c-1,9.9-9.9,17.1-19.9,16.1h0c-9.9-1-17.1-9.9-16.1-19.9l.4-3.7v-177.4c-.1,0,50.6,25.6,50.6,25.6Z"/>
        </g>
        <g>
          <circle class="cls-21" cx="105.9" cy="538.2" r="15.9"/>
          <path class="cls-15" d="M88.5,543l13.1,112.1v6.8c0,7.4,6,13.3,13.3,13.3h0c7.8,0,13.9-6.6,13.3-14.4l-.5-5.7-3.9-113.8"/>
        </g>
        <g>
          <circle class="cls-21" cx="114.7" cy="662.1" r="11.1"/>
          <path class="cls-15" d="M101.6,663.5l-8.2,45.6c-.3,1.9.3,15.2,1.6,16.6l8.9,8.9c1.1,1.1,2.6,1.7,4.2,1.7h18c2.5,0,4.7-1.5,5.6-3.9l3.3-9c.3-.9.4-1.8.3-2.7l-2.3-31.1c-.3-1.1,1-1.9,1.9-1.1l4.7,11.2c1.5,3.5,5.9,4.7,8.9,2.5h0c2.6-1.9,3.2-5.5,1.4-8.1l-21.9-31.8"/>
        </g>
        <g>
          <circle class="cls-23" cx="311.8" cy="347.5" r="30.5"/>
          <path class="cls-2" d="M344.5,346.3v186.1s.3,3.7.3,3.7c1,9.9-6.1,18.8-16.1,19.9h0c-9.9,1-18.8-6.1-19.9-16.1l-.4-3.4-16.1-161.4"/>
          <path class="cls-15" d="M293.1,380.3l15.5,155.9.4,3.4c1,9.9,9.9,17.1,19.9,16.1h0c9.9-1,17.1-9.9,16.1-19.9l-.4-3.7-.6-183-50.7,31.3Z"/>
        </g>
        <g>
          <circle class="cls-21" cx="326.9" cy="538.2" r="15.9"/>
          <path class="cls-15" d="M344.3,543l-13.1,112.1v6.8c0,7.4-6,13.3-13.3,13.3h0c-7.8,0-13.9-6.6-13.3-14.4l.5-5.7,3.9-113.8"/>
        </g>
        <g>
          <circle class="cls-21" cx="317.8" cy="661.7" r="11.1"/>
          <path class="cls-15" d="M330.8,663.1l8.2,45.6c.3,1.9-.3,15.2-1.6,16.6l-8.9,8.9c-1.1,1.1-2.6,1.7-4.2,1.7h-18c-2.5,0-4.7-1.5-5.6-3.9l-3.3-9c-.3-.9-.4-1.8-.3-2.7l2.3-31.1c.3-1.1-1-1.9-1.9-1.1l-4.7,11.2c-1.5,3.5-5.9,4.7-8.9,2.5h0c-2.6-1.9-3.2-5.5-1.4-8.1l21.9-31.8"/>
        </g>
      </g>
      <g id="Cuello">
        <path class="cls-1" d="M246.3,297.9l-1.7-55.7c-2.2-15.6-16-29.7-31.7-29.5h0c-15.9.2-28.8,15.1-30.3,31v55.3"/>
      </g>
      <path class="cls-8" d="M163.1,216.8c-11.9-.4-19.5-9.9-19.1-21.8.3-8.3,5.2-15.4,12.3-18.7l6.8,40.5Z"/>
      <path class="cls-8" d="M263.4,215.3c11.9-.8,19.2-10.5,18.4-22.3-.5-8.3-5.7-15.2-12.9-18.3l-5.6,40.7Z"/>
      <g>
        <g>
          <path class="cls-8" d="M210.9,107l30.8,6.7c10.1,3.2,18.8,10,24.3,19h0c4.6,7.5,6.5,16.4,5.3,25.1l-5.9,45.3c-1.6,12.1-6.3,23.6-13.7,33.3l-6.9,9c-7.5,9.8-19,15.6-31.3,15.8h0"/>
          <path class="cls-8" d="M211.4,106.9l-29.6,7.9c-8.7,3.2-16.2,9.2-21.4,16.9l-.5.7c-5.4,8.1-7.5,17.9-6,27.5l7.3,44.8c2,12.1,7,23.4,14.8,32.8l7.2,8.8c7.8,9.5,19.5,15,31.8,14.8h0"/>
          <path class="cls-8" d="M211.2,107"/>
        </g>
        <path class="cls-24" d="M175.4,194.4c1.1,0,1.1-1.8,0-1.8s-1.1,1.8,0,1.8h0Z"/>
        <path class="cls-24" d="M195.1,192.6c1.1,0,1.1-1.8,0-1.8s-1.1,1.8,0,1.8h0Z"/>
        <path class="cls-24" d="M187,203.2c1.1,0,1.1-1.8,0-1.8s-1.1,1.8,0,1.8h0Z"/>
        <path class="cls-24" d="M248.8,191.6c1.1,0,1.1-1.8,0-1.8s-1.1,1.8,0,1.8h0Z"/>
        <path class="cls-24" d="M229.1,189.7c1.1,0,1.1-1.8,0-1.8s-1.1,1.8,0,1.8h0Z"/>
        <path class="cls-24" d="M237.2,200.4c1.1,0,1.1-1.8,0-1.8s-1.1,1.8,0,1.8h0Z"/>
      </g>
      <g>
        <path class="cls-26" d="M199.3,226.3c7.8-5,19.3-5.2,27.2-.4,0,0,0,.4,0,.4-1.7,0-5.1.2-6.8.2-4.9.2-12.1.2-17,.2,0,0-3.4,0-3.4,0v-.4h0Z"/>
        <path class="cls-26" d="M226.5,227.7c-7.8,5-19.3,5-27.2.2,0,0,0-.4,0-.4,1.7,0,5.1-.2,6.8-.2,4.9-.1,12.1-.1,17,0,0,0,3.4,0,3.4,0,0,0,0,.4,0,.4h0Z"/>
      </g>
      <path class="cls-7" d="M219.6,211.6l-12.8.2c-1.3,0-2.1-1.2-1.7-2.4l7.7-20.7h0l8.4,20.5c.5,1.2-.4,2.4-1.6,2.4Z"/>
      <g>
        <path class="cls-6" d="M200.3,176.1s-7.6-11-32.2-3.4c0,0,22.5,11.6,32.2,3.4Z"/>
        <path class="cls-20" d="M182.4,170.1s-4.3,2-1.2,7.6c0,0,8.8,2.6,15.3.5,0,0,1.7-2,.4-5,0,0-6.1-3.9-14.5-3.2Z"/>
        <circle class="cls-18" cx="188.8" cy="174.6" r="4.1"/>
        <path class="cls-24" d="M201.6,176.2c-1.9,5-7.7,6.2-12.3,5,0,0,1.7,0,1.7,0,3.7,0,7.9-1.7,8.8-5.5,0,0,1.8.5,1.8.5h0Z"/>
        <path class="cls-24" d="M170.1,170.3c5.9-3.3,13.8-4.3,20-1.1-6.6-1.7-13.5-.8-20,1.1h0Z"/>
      </g>
      <g>
        <path class="cls-6" d="M224.6,175.4s7.6-11,32.2-3.4c0,0-22.5,11.6-32.2,3.4Z"/>
        <path class="cls-20" d="M242.5,169.4s4.3,2,1.2,7.6c0,0-8.8,2.6-15.3.5,0,0-1.7-2-.4-5,0,0,6.1-3.9,14.5-3.2Z"/>
        <circle class="cls-18" cx="236.2" cy="173.9" r="4.1"/>
        <path class="cls-24" d="M225.2,175c1.1,4.6,6.4,5.9,10.5,5.5,0,0-1.7.3-1.7.3-4.2.7-9.1-1-10.6-5.3,0,0,1.8-.5,1.8-.5h0Z"/>
        <path class="cls-24" d="M254.8,169.6c-6.5-1.9-13.3-2.9-20-1.1,6.2-3.2,14-2.2,20,1.1h0Z"/>
      </g>
      <path class="cls-4" d="M197.8,164.1c-4.7-2.2-15.1-4.9-32.3,1.7,0,0,12-15,34.3-8.9,1.2.3,2,1.5,1.8,2.7l-.4,2.6c-.2,1.6-1.9,2.5-3.4,1.9Z"/>
      <path class="cls-4" d="M227.1,163.4c4.7-2.2,15.1-4.9,32.3,1.7,0,0-12-15-34.3-8.9s-2,1.5-1.8,2.7l.4,2.6c.2,1.6,1.9,2.5,3.4,1.9Z"/>
      <path class="cls-19" d="M149.1,162.4l10,31.1v-38.1s6.4,7,16.3,1.5c0,0-15.1.6-1.7-13.4,0,0,9,17.1,23.7,14.6,0,0-13.8-2.1-13.8-19.2s29.9-6.3,21.4,16.5c0,0,6-2.7,6.1-14.6,0,0,8.5,14,0,26.2,0,0,12.9-2.1,23.7-24.4,0,0,7.5.5,10,9.7,0,0,3.7-.6,3.9-8.5,0,0,16.6,9.4,3.4,15.3,0,0,7.7,2.4,13.2-6l1.4,40.3,7.8-32.9c4.8-20.3-7.9-42.3-7.9-42.3l-36.7-21.9-49.9,7-31.2,34.1.2,25Z"/>
      <polygon class="cls-25" points="145.9 162 153.5 162 153.5 140.3 182.6 109.4 228.6 102.3 261.3 121.3 271.7 155.4 279.2 156.6 277.6 129.5 265.8 110.5 248.9 100.1 236.5 95 230.3 93.6 214 95.3 192.7 98.8 178.6 100.9 145.9 134 145.9 162"/>
    </g>
  </g>
  <rect class="cls-5" x="24.9" y="32.2" width="376.1" height="460.5"/>
</svg>