<?xml version="1.0" encoding="UTF-8"?>
<svg id="Capa_1" data-name="Capa 1" xmlns="http://www.w3.org/2000/svg" version="1.1" viewBox="0 0 674 727">
  <defs>
    <style>
      .cls-1 {
        fill: #000;
      }

      .cls-1, .cls-2 {
        stroke-width: 0px;
      }

      .cls-2 {
        fill: #fff;
      }
    </style>
  </defs>
  <polygon class="cls-2" points="36 36 638 36 638 103.2 606.6 128.3 638 154.4 638 322.8 623.1 359.8 638 398.3 638 691 195.9 691 171.8 668.5 150 691 121.6 645.2 98.5 691 36 691 36 340.5 52.2 308.6 36 257.5 53.3 203.7 36 172.8 36 36"/>
  <g>
    <path class="cls-1" d="M52.2,53.6v-1.7h9.3v1.7h-9.3ZM55.9,64.6v-12.8h1.9v12.8h-1.9Z"/>
    <path class="cls-1" d="M63.7,64.6v-1.7h3.8v1.7h-3.8ZM64.2,56.8v-1.7h5v1.7h-5ZM68.2,53.6c-.4,0-.7,0-.9-.4-.3-.3-.4-.6-.4-.9s0-.7.4-.9c.3-.3.6-.4.9-.4s.7,0,.9.4.4.6.4.9,0,.7-.4.9c-.3.3-.6.4-.9.4ZM67.3,64.6v-9h1.9v9h-1.9ZM69,64.6v-1.7h3.1v1.7h-3.1Z"/>
    <path class="cls-1" d="M74.5,64.6v-9.5h1.7l.2,2v7.5s-1.9,0-1.9,0ZM80.4,64.6v-6.2c0-.6,0-1-.4-1.3s-.7-.5-1.3-.5c-1.5,0-2.2.9-2.2,2.6l-.6-2.4h.7c0-.6.3-1.1.7-1.4.4-.3,1-.5,1.8-.5s1.8.3,2.3.9c.6.6.8,1.5.8,2.6v6.2h-1.9,0Z"/>
    <path class="cls-1" d="M84.4,56.8v-1.7h8.6v1.7h-8.6ZM86.8,60.1v-7.9h1.9v7.9h-1.9ZM90.9,64.8c-1.4,0-2.5-.3-3.1-.9s-1-1.6-1-2.9v-1.6h1.9v1.5c0,.8.2,1.3.6,1.6s1,.5,1.8.5h1c.3,0,.7,0,1.2,0l.2,1.7c-.4,0-.8,0-1.2.2h-1.4Z"/>
    <path class="cls-1" d="M98.6,64.8c-1,0-1.8-.2-2.3-.7s-.8-1.2-.8-2,.4-1.8,1.1-2.3c.8-.5,1.8-.8,3.2-.8s1.1,0,1.5,0c.4,0,.8.2,1.2.3l-.4,1.3c-.4,0-.8,0-1.2-.2h-1.2c-1.7,0-2.5.5-2.5,1.5s0,.7.4,1c.3.2.7.3,1.2.3s1.1,0,1.5-.3.7-.5.9-.8c.2-.3.3-.6.3-1v-1l.6,2.4h-.8l.3-.3c0,.6,0,1-.4,1.4-.3.4-.6.6-1.1.8s-1,.3-1.6.3h.1ZM101.9,64.7v-2.8c0,0-.4-.8-.4-.8v-2.5c0-.6-.2-1.1-.7-1.4-.4-.3-1.1-.5-2-.5h-2.3l.2-1.8h1.9c1.6,0,2.7.4,3.5,1,.8.7,1.1,1.6,1.1,2.9v4l1.6.2v1.5h-3.1l.2.2Z"/>
    <path class="cls-1" d="M117.7,53.6v-1.7h7.8v1.7h-7.8ZM117.7,64.6v-1.7h7.8v1.7h-7.8ZM120.6,64.6v-12.8h1.9v12.8h-1.9Z"/>
    <path class="cls-1" d="M128.5,64.6v-9.5h1.7l.2,2v7.5h-1.9ZM134.3,64.6v-6.2c0-.6-.1-1-.4-1.3-.3-.3-.7-.5-1.3-.5-1.5,0-2.2.9-2.2,2.6l-.6-2.4h.7c0-.6.3-1.1.7-1.4.4-.3,1-.5,1.8-.5s1.8.3,2.3.9c.6.6.8,1.5.8,2.6v6.2h-1.9,0Z"/>
    <path class="cls-1" d="M141.9,64.6l-3.4-9.5h2l2.6,7.9h.2l2.6-7.9h2l-3.4,9.5h-2.6Z"/>
    <path class="cls-1" d="M150,64.6v-1.7h3.8v1.7h-3.8ZM150.5,56.8v-1.7h5v1.7h-5ZM154.5,53.6c-.4,0-.7,0-.9-.4-.3-.3-.4-.6-.4-.9s.1-.7.4-.9c.3-.3.6-.4.9-.4s.7,0,.9.4.4.6.4.9-.1.7-.4.9c-.3.3-.6.4-.9.4ZM153.6,64.6v-9h1.9v9h-1.9ZM155.3,64.6v-1.7h3.1v1.7h-3.1Z"/>
    <path class="cls-1" d="M164,64.8h-1.8c-.5,0-1,0-1.4-.2l.2-1.7c.6,0,1.2.2,1.7.2h1.4c1,0,1.7,0,2.1-.3.4-.2.7-.5.7-.9s0-.5-.2-.6-.4-.2-.7-.3l-2.2-.6c-.9-.2-1.6-.5-2.1-.9s-.7-.9-.7-1.6c0-1,.4-1.8,1.2-2.3s2.1-.7,3.9-.7.9,0,1.3,0,.8,0,1.2,0l-.2,1.7h-2.4c-1.1,0-1.8,0-2.3.3-.5.2-.7.5-.7.9s0,.5.3.6c.2,0,.5.2.9.3l1.8.4c1,.2,1.7.6,2.2,1s.7,1,.7,1.8-.4,1.8-1.1,2.2c-.7.5-1.9.7-3.6.7h-.2Z"/>
    <path class="cls-1" d="M171.5,64.6v-1.7h3.8v1.7h-3.8ZM172.1,56.8v-1.7h5v1.7h-5ZM176,53.6c-.4,0-.7,0-.9-.4-.3-.3-.4-.6-.4-.9s.1-.7.4-.9c.3-.3.6-.4.9-.4s.7,0,.9.4.4.6.4.9-.1.7-.4.9c-.3.3-.6.4-.9.4ZM175.2,64.6v-9h1.9v9h-1.9ZM176.9,64.6v-1.7h3.1v1.7h-3.1Z"/>
    <path class="cls-1" d="M182.3,64.6v-13.5h1.9v13.3l-1.9.2ZM184.9,64.8h-1.3c-.4,0-.8,0-1.3,0l.7-1.7c.3,0,.7.2,1.1.3h1.1c1.1,0,2-.3,2.7-1s.9-1.7.9-2.9-.2-1.5-.6-2c-.4-.5-.9-.7-1.6-.7-1.6,0-2.4.9-2.4,2.7l-.6-2.4h.7c0-1.3.9-1.9,2.3-1.9s2.3.4,2.9,1.1,1,1.8,1,3.2-.5,3.1-1.5,4.1c-1,1-2.5,1.5-4.3,1.5l.2-.2Z"/>
    <path class="cls-1" d="M192.5,52.8v-1.7h3v1.7h-3ZM198.5,64.8c-1.1,0-1.9-.3-2.4-.9s-.7-1.6-.7-2.9v-9.9h1.9v9.8c0,.5,0,.9.1,1.2,0,.3.3.6.6.7.3,0,.7.2,1.2.2s1.1,0,1.9-.3l.2,1.7c-.5,0-1,.2-1.4.3s-.9,0-1.4,0h0Z"/>
    <path class="cls-1" d="M208.7,64.8c-1.6,0-2.9-.4-3.8-1.3-.9-.9-1.3-2.1-1.3-3.7s.4-2.8,1.1-3.6c.7-.9,1.8-1.3,3.2-1.3s2.3.4,3,1.2,1.1,1.9,1.1,3.4,0,.8,0,1.2h-6.7v-1.5h5c0-.9-.2-1.5-.6-2-.4-.5-1-.7-1.7-.7s-1.4.3-1.9.8-.7,1.3-.7,2.3.3,1.9.9,2.5c.6.6,1.5.9,2.6.9h1.2c.4,0,.8,0,1.2-.2l.2,1.7c-.6,0-1.1.2-1.5.2h-1.3Z"/>
  </g>
</svg>