<?xml version="1.0" encoding="UTF-8"?>
<svg id="Capa_1" data-name="Capa 1" xmlns="http://www.w3.org/2000/svg" version="1.1" xmlns:xlink="http://www.w3.org/1999/xlink" viewBox="0 0 1920 896">
  <defs>
    <style>
      .cls-1 {
        fill: #5e560b;
      }

      .cls-1, .cls-2, .cls-3, .cls-4, .cls-5, .cls-6, .cls-7, .cls-8, .cls-9, .cls-10, .cls-11, .cls-12 {
        stroke-width: 0px;
      }

      .cls-2 {
        fill: #000;
      }

      .cls-3 {
        fill: #9b9b9b;
      }

      .cls-4 {
        fill: #2d2d2d;
      }

      .cls-5 {
        fill: #666;
      }

      .cls-6 {
        fill: #6b6412;
      }

      .cls-7 {
        fill: #b7afaf;
      }

      .cls-8 {
        fill: #fff;
      }

      .cls-9 {
        fill: url(#Degradado_sin_nombre);
      }

      .cls-10 {
        fill: #6c6c6c;
      }

      .cls-11 {
        fill: #cfc9c9;
      }

      .cls-12 {
        fill: #7f7f7f;
      }
    </style>
    <linearGradient id="Degradado_sin_nombre" data-name="Degradado sin nombre" x1="959.9" y1="2" x2="959.9" y2="898" gradientTransform="translate(0 898) scale(1 -1)" gradientUnits="userSpaceOnUse">
      <stop offset="0" stop-color="#9c9696" stop-opacity=".4"/>
      <stop offset="1" stop-color="#fff" stop-opacity="0"/>
    </linearGradient>
  </defs>
  <polygon class="cls-11" points="0 815.6 117.9 754 217.9 841 292.9 823 508.9 896 652.9 857 739.9 857 856 896 1468 896 1585.9 839 1657.9 864 1729.9 859 1920.9 896 -1.1 896 0 815.6"/>
  <g>
    <rect class="cls-10" x="451.3" y="792" width="2.6" height="20.6"/>
    <rect class="cls-10" x="451.3" y="838" width="2.6" height="20.6"/>
    <path class="cls-12" d="M377.4,875v6h-15.7c0-2-.2-3.8-.4-5.9-1.1,0-2-.2-2.9-.3-6.3,0-6.9-.7-6.9-7.1v-86.4c0-4.4,1.1-5.5,5.6-5.5h87.8c4.6,0,5.6,1,5.6,5.8v13.5c1.6,0,2.8.2,4.6.4,0,4.2.2,8.4-.2,12.6,0,.7-2.4,1.3-4.1,2.1v30.7c4-.7,4.8,1.5,4.4,4.8-.2,1.7-.2,3.4,0,5,.4,3.1-.3,5.3-4.7,4.4v12.2c0,6.9-.4,7.2-7.3,7.3-.7,0-1.4,0-2.4.2,0,2-.2,3.9-.3,6h-15.4c-.2-2-.3-4-.5-6.1h-47.3v.3ZM444.6,825.6v-39.6c0-3.1-1-4.3-4.2-4.2h-78.9c-3.3,0-4.3,1.3-4.3,4.5v78.5c0,3.3,1.1,4.4,4.4,4.4,26.1,0,52.3,0,78.5,0,3.5,0,4.5-1.3,4.5-4.6,0-12.9,0-25.9,0-38.8h0Z"/>
    <path class="cls-5" d="M444.6,825.6v38.8c0,3.4-.9,4.7-4.5,4.6-26.1,0-52.3,0-78.5,0-3.3,0-4.4-1.1-4.4-4.4v-78.5c0-3.2,1-4.5,4.3-4.5h78.9c3.1,0,4.2,1.2,4.2,4.2,0,13.2,0,26.4,0,39.6h0ZM361.2,785.5v79.8h79.7v-79.8h-79.7Z"/>
    <rect class="cls-3" x="455.3" y="785.5" width="79.7" height="79.8"/>
    <rect class="cls-4" x="361.2" y="785.5" width="79.7" height="79.8"/>
  </g>
  <path class="cls-7" d="M0,681.9l168.9,152.1,70-44,57,64,131,26h470.3l92.7-23,131,23,339-39,134.1,39h174.9l67-36,35.9-63.1,48.7-27.1.5,142.1H-1.1l1.1-214.1h0Z"/>
  <g>
    <path class="cls-1" d="M381,829.7h4.9c-.5,1.9-1,3.6-1.4,5.4h-17.5c0-2.7,0-5.3,0-7.9,0-.2.6-.7.9-.7,4,0,8,0,12,0,.9,0,1.1.4,1.1,1.2,0,.6,0,1.2,0,2.1Z"/>
    <g>
      <polygon class="cls-8" points="386.2 820 408.5 827.1 407.7 829.6 406.3 830.2 407.1 831.5 405.1 837.8 404.1 839 404.2 840.6 400.7 851.5 384.3 846.2 383.7 845.1 382.6 845.7 382.1 843.6 380.7 845.1 378.4 844.3 382.5 831.3 383.5 830.3 383.5 828.2 384.8 826.4 384.5 825.1 386.2 820"/>
      <g>
        <path class="cls-2" d="M386.6,821.8h0c0,0,.3,0,.3,0h0c0,0-.3,0-.3,0ZM386.6,822.3l.2-.5h0s-.2.5-.2.5h0Z"/>
        <path class="cls-2" d="M386.9,822.4h0c0,0,.1,0,.1,0h0c0,0-.1,0-.1,0ZM387,822.1h0c0,0,.2,0,.2,0h0c0,0-.2,0-.2,0ZM387.1,822s0,0,0,0c0,0,0,0,0,0s0,0,0,0c0,0,0,0,0,0s0,0,0,0,0,0,0,0,0,0,0,0c0,0,0,0,0,0ZM387,822.4v-.3c.1,0,.2,0,.2,0v.3c-.1,0-.2,0-.2,0ZM387,822.5h0c0,0,.1,0,.1,0h0c0,0-.1,0-.1,0Z"/>
        <path class="cls-2" d="M387.3,822.5v-.4c.1,0,.2,0,.2,0h0c0,0,0,.4,0,.4,0,0,0,0,0,0ZM387.5,822.6v-.2c0,0,0,0,0,0s0,0,0,0c0,0,0,0-.1,0h0c0,0,0,0,0,0,0,0,0,0,0,0,0,0,0,0,0,0s0,0,0,0c0,0,0,0,0,.1v.2c0,0-.1,0-.1,0h0Z"/>
        <path class="cls-2" d="M387.7,822.3h0c0,0,.3,0,.3,0h0c0,0-.3,0-.3,0ZM387.8,822.5v-.3c0,0,.2,0,.2,0v.3c0,0-.2,0-.2,0ZM387.9,822.7c0,0,0,0-.1,0s0,0,0-.1h0c0,0,0,0,0,0h0c0,0,0,.1,0,.1s0,0,0,0h0s0,0,0,0h0c0,0,0,0,0,0h0s0,0,0,0Z"/>
        <path class="cls-2" d="M388.1,822.8s0,0,0,0,0,0,0,0,0,0,0,0c0,0,0,0,.1,0s0,0,0,0c0,0,0,0,0,0h0s0,0,0,0h0c0,0,0,0-.1,0s0,0,0,0c0,0,0,0,0,0s0,0,0,0,0,0,0,0c0,0,0,0,0,0h0s0,0,0,0h0s0,0,0,0c0,0,0,0,0,0,0,0,0,0,0,0s0,0,0,0h0ZM388.3,822.8h0c0-.1,0-.1,0-.1h0c0-.1,0-.1,0-.2,0,0,0,0,0,0h0s0,0,0,0h0c0,0,0,0,.1.1,0,0,0,0,0,.1h0c0,.1,0,.2,0,.2h0c0,0-.1,0-.1,0h0Z"/>
        <path class="cls-2" d="M389,822.6h0c0,0,.3,0,.3,0h0c0,0-.3,0-.3,0ZM388.9,823h0c0,0,.3,0,.3,0h0c0,0-.3,0-.3,0ZM389,823.1l.2-.5h0s-.2.5-.2.5h0Z"/>
        <path class="cls-2" d="M389.3,823.2v-.4c.1,0,.2,0,.2,0h0c0,0,0,.4,0,.4h0ZM389.5,823.2v-.2c0,0,0,0,0,0,0,0,0,0,0,0,0,0,0,0-.1,0h0c0,0,0,0,0,0,0,0,0,0,0,0,0,0,0,0,0,0s0,0,0,0c0,0,0,0,0,.1v.2c0,0-.1,0-.1,0h0Z"/>
        <path class="cls-2" d="M389.8,823.3v-.4s0,0,0,0v.3s0,0,0,0l.2-.3h0s-.2.3-.2.3h0s0,0,0,0Z"/>
        <path class="cls-2" d="M390.1,823.4h0c0,0,.1,0,.1,0h0c0,0-.1,0-.1,0ZM390.2,823.1h0c0,0,.2,0,.2,0h0c0,0-.2,0-.2,0ZM390.4,823.1s0,0,0,0c0,0,0,0,0,0s0,0,0,0c0,0,0,0,0,0s0,0,0,0,0,0,0,0,0,0,0,0c0,0,0,0,0,0ZM390.2,823.5v-.3c.1,0,.2,0,.2,0v.3c-.1,0-.2,0-.2,0ZM390.3,823.5h0c0,0,.1,0,.1,0h0c0,0-.1,0-.1,0Z"/>
        <path class="cls-2" d="M390.6,823.6h0s0,0,0,0h0c0,0,0,0,0,0h0s0,0,0,0c0,0,0,0,0,0s0,0,0,0,0,0,0,0h0c0,0,0,0,0-.1s0,0,0,0c0,0,0,0,0,0s0,0,.2,0,0,0,0,0,0,0,0,0h0c0,0,0,0,0,0h0s0,0,0,0c0,0,0,0,0,0s0,0,0,0c0,0,0,0,0,0h0c0,0,0,0,0,0s0,0,0,0,0,0,0,0c0,0,0,0-.1,0h0Z"/>
        <path class="cls-2" d="M390.9,823.7h0c0,0,.1,0,.1,0h0c0,0-.1,0-.1,0ZM391,823.4h0c0,0,.2,0,.2,0h0c0,0-.2,0-.2,0ZM391.2,823.3s0,0,0,0c0,0,0,0,0,0s0,0,0,0c0,0,0,0,0,0s0,0,0,0,0,0,0,0,0,0,0,0c0,0,0,0,0,0ZM391,823.7v-.3c.1,0,.2,0,.2,0v.3c-.1,0-.2,0-.2,0ZM391.1,823.7h0c0,0,.1,0,.1,0h0c0,0-.1,0-.1,0Z"/>
        <path class="cls-2" d="M391.3,823.8l.2-.5h0s-.2.5-.2.5h0ZM391.4,823.8h0s0,0,0,0h0s0,0,0,0h0s0,0,.1,0,0,0,0,0,0,0,0,0c0,0,0,0,0,0,0,0,0,0-.1,0h0c0,0,0,0,0,0,0,0,0,0,.1,0s0,0,0,0,0,0,0,.1,0,.1-.1.1c0,0-.1,0-.2,0h0Z"/>
        <path class="cls-2" d="M391.8,823.5h0c0,0,.1,0,.1,0h0c0,0-.1,0-.1,0ZM391.9,824s0,0,0,0,0,0,0-.1v-.4c.1,0,.2,0,.2,0v.4c-.1,0-.1,0-.1,0,0,0,0,0,0,0,0,0,0,0,0,0s0,0,0,0h0c0,0,0,0,0,0s0,0,0,0h0Z"/>
        <path class="cls-2" d="M392.2,824.1c0,0-.1,0-.1,0,0,0,0,0,0-.2s0,0,0-.1c0,0,0,0,.1,0s0,0,0,0,0,0,0,.1,0,0,0,0h-.2c0,0,0-.1,0-.1h.2s0,0,0,0c0,0,0,0,0,0s0,0,0,0,0,0,0,0,0,0,0,.1c0,0,0,0,0,0h0s0,0,0,0h0c0,0,0,0,0,0h0s0,0,0,0Z"/>
      </g>
    </g>
    <path class="cls-6" d="M385.5,835.7c6.3,0,12.6,0,19,0,2.2,0,2.7.5,2.4,2.6-1.1,8.3-2.2,16.6-3.3,25-.2,1.3-1,1.9-2.3,1.9-10.5,0-20.9,0-31.4,0-1.4,0-2.1-.7-2.3-2.2-.6-4.4-1.1-8.8-1.7-13.2-.5-3.9-1-7.7-1.6-11.6-.3-1.8.3-2.5,2.1-2.5,6.4,0,12.7,0,19.1,0Z"/>
  </g>
  <rect class="cls-9" x="-1.1" width="1922" height="896"/>
</svg>