<?xml version="1.0" encoding="UTF-8"?>
<svg id="Capa_1" data-name="Capa 1" xmlns="http://www.w3.org/2000/svg" version="1.1" xmlns:xlink="http://www.w3.org/1999/xlink" viewBox="0 0 1920 896">
  <defs>
    <style>
      .cls-1 {
        fill: #9b9b9b;
      }

      .cls-1, .cls-2, .cls-3, .cls-4, .cls-5, .cls-6, .cls-7, .cls-8 {
        stroke-width: 0px;
      }

      .cls-2 {
        fill: #2d2d2d;
      }

      .cls-3 {
        fill: #666;
      }

      .cls-4 {
        fill: #b7afaf;
      }

      .cls-5 {
        fill: url(#Degradado_sin_nombre);
      }

      .cls-6 {
        fill: #6c6c6c;
      }

      .cls-7 {
        fill: #cfc9c9;
      }

      .cls-8 {
        fill: #7f7f7f;
      }
    </style>
    <linearGradient id="Degradado_sin_nombre" data-name="Degradado sin nombre" x1="959.9" y1="2" x2="959.9" y2="898" gradientTransform="translate(0 898) scale(1 -1)" gradientUnits="userSpaceOnUse">
      <stop offset="0" stop-color="#9c9696" stop-opacity=".4"/>
      <stop offset="1" stop-color="#fff" stop-opacity="0"/>
    </linearGradient>
  </defs>
  <polygon class="cls-7" points="0 815.6 117.9 754 217.9 841 292.9 823 508.9 896 652.9 857 739.9 857 856 896 1468 896 1585.9 839 1657.9 864 1729.9 859 1920.9 896 -1.1 896 0 815.6"/>
  <g>
    <rect class="cls-6" x="451.3" y="792" width="2.6" height="20.6"/>
    <rect class="cls-6" x="451.3" y="838" width="2.6" height="20.6"/>
    <path class="cls-8" d="M377.4,875v6h-15.7c0-2-.2-3.8-.4-5.9-1.1,0-2-.2-2.9-.3-6.3,0-6.9-.7-6.9-7.1v-86.4c0-4.4,1.1-5.5,5.6-5.5h87.8c4.6,0,5.6,1,5.6,5.8v13.5c1.6,0,2.8.2,4.6.4,0,4.2.2,8.4-.2,12.6,0,.7-2.4,1.3-4.1,2.1v30.7c4-.7,4.8,1.5,4.4,4.8-.2,1.7-.2,3.4,0,5,.4,3.1-.3,5.3-4.7,4.4v12.2c0,6.9-.4,7.2-7.3,7.3-.7,0-1.4,0-2.4.2,0,2-.2,3.9-.3,6h-15.4c-.2-2-.3-4-.5-6.1h-47.3v.3ZM444.6,825.6v-39.6c0-3.1-1-4.3-4.2-4.2h-78.9c-3.3,0-4.3,1.3-4.3,4.5v78.5c0,3.3,1.1,4.4,4.4,4.4,26.1,0,52.3,0,78.5,0,3.5,0,4.5-1.3,4.5-4.6,0-12.9,0-25.9,0-38.8h0Z"/>
    <path class="cls-3" d="M444.6,825.6v38.8c0,3.4-.9,4.7-4.5,4.6-26.1,0-52.3,0-78.5,0-3.3,0-4.4-1.1-4.4-4.4v-78.5c0-3.2,1-4.5,4.3-4.5h78.9c3.1,0,4.2,1.2,4.2,4.2,0,13.2,0,26.4,0,39.6h0ZM361.2,785.5v79.8h79.7v-79.8h-79.7Z"/>
    <rect class="cls-1" x="455.3" y="785.5" width="79.7" height="79.8"/>
    <rect class="cls-2" x="361.2" y="785.5" width="79.7" height="79.8"/>
  </g>
  <path class="cls-4" d="M0,681.9l168.9,152.1,70-44,57,64,131,26h470.3l92.7-23,131,23,339-39,134.1,39h174.9l67-36,35.9-63.1,48.7-27.1.5,142.1H-1.1l1.1-214.1h0Z"/>
  <rect class="cls-5" x="-1.1" width="1922" height="896"/>
</svg>