<?xml version="1.0" encoding="UTF-8"?>
<svg id="Capa_1" data-name="Capa 1" xmlns="http://www.w3.org/2000/svg" version="1.1" viewBox="0 0 1920 896">
  <defs>
    <style>
      .cls-1 {
        fill: #d3d3d3;
      }

      .cls-1, .cls-2 {
        stroke-width: 0px;
      }

      .cls-2 {
        fill: #bcbcbc;
      }
    </style>
  </defs>
  <polygon class="cls-1" points="0 742.1 145.4 606 112.4 385 310.4 300 392.4 71 608.4 89 868.4 12 931.9 99.3 1097.4 32 1233.4 81 1457.4 32 1501.4 117 1660.4 158 1650.4 362 1758.4 583 1758.4 742.1 1920 837.3 1920.5 0 -1.5 0 0 742.1"/>
  <polygon class="cls-2" points="-.6 896 79.4 727 79.4 564.7 220.4 498 220.4 253.6 346.4 164 557.4 58 642.4 68 847.4 32 1102.4 66 1272.1 32 1416.4 66 1516.4 32 1603.4 266 1719.4 320 1682.7 526.1 1778.4 706 1848.4 734 1920.5 896 1920.5 0 -1.5 0 -.6 896"/>
</svg>