<?xml version="1.0" encoding="UTF-8"?>
<svg id="Capa_1" data-name="Capa 1" xmlns="http://www.w3.org/2000/svg" version="1.1" xmlns:xlink="http://www.w3.org/1999/xlink" viewBox="0 0 1920 896">
  <defs>
    <style>
      .cls-1 {
        fill: url(#Degradado_sin_nombre_14);
      }

      .cls-1, .cls-2, .cls-3, .cls-4 {
        stroke-width: 0px;
      }

      .cls-2 {
        fill: #f2f2f2;
      }

      .cls-5, .cls-3 {
        fill: #898383;
      }

      .cls-6 {
        clip-path: url(#clippath);
      }

      .cls-4 {
        fill: #b7afaf;
      }
    </style>
    <linearGradient id="Degradado_sin_nombre_14" data-name="Degradado sin nombre 14" x1="960" y1="1078" x2="960" y2="182" gradientTransform="translate(0 -182)" gradientUnits="userSpaceOnUse">
      <stop offset="0" stop-color="#9c9696" stop-opacity=".4"/>
      <stop offset="1" stop-color="#9c9696" stop-opacity=".4"/>
    </linearGradient>
    <clipPath id="clippath">
      <polygon class="cls-3" points="24.4 436.9 24.4 282.7 106.7 266 144.9 116.4 305.8 50.8 494 10.3 629.8 53.8 758.2 45.3 862.2 102.6 1047.5 10.3 1169.9 42.1 1271.3 10.3 1348.1 36.8 1568.8 31.5 1622.9 94.1 1749.2 173.7 1811.8 323.3 1896.1 436.9 1876.5 609.8 1794.8 700 1740.7 825.2 1653.7 866.6 295.6 866.6 157.6 795.5 125.8 580.1 46.2 547.2 60 460.2 24.4 436.9"/>
    </clipPath>
  </defs>
  <rect class="cls-4" x="-1" width="1922" height="896"/>
  <rect class="cls-1" x="-1" width="1922" height="896"/>
  <g>
    <polygon class="cls-5" points="24.4 436.9 24.4 282.7 106.7 266 144.9 116.4 305.8 50.8 494 10.3 629.8 53.8 758.2 45.3 862.2 102.6 1047.5 10.3 1169.9 42.1 1271.3 10.3 1348.1 36.8 1568.8 31.5 1622.9 94.1 1749.2 173.7 1811.8 323.3 1896.1 436.9 1876.5 609.8 1794.8 700 1740.7 825.2 1653.7 866.6 295.6 866.6 157.6 795.5 125.8 580.1 46.2 547.2 60 460.2 24.4 436.9"/>
    <g class="cls-6">
      <polygon class="cls-2" points="46.1 170.5 212.4 211.9 272.1 -6.7 542.6 64.4 681.6 10.3 780.3 86.7 899.9 10.3 1055.1 50.6 1186.4 10.3 1445.6 10.3 1537.9 118.5 1770.3 130.2 1751.2 298.9 1876.2 403.2 1852.1 439 1852.8 641.7 1803.2 790.2 1690.7 765.8 1513.5 880.4 1421.2 831.6 1257.3 866.6 1153.8 806.1 1041.3 793.4 1003.6 880.4 777.1 880.4 671 828.4 537.3 896.3 506.6 823.1 334.2 831.1 272.1 757.3 98.1 776.4 127.8 634.2 13.2 462.3 100.2 373.2 46.1 170.5"/>
    </g>
  </g>
</svg>