<?xml version="1.0" encoding="UTF-8"?>
<svg id="Capa_1" data-name="Capa 1" xmlns="http://www.w3.org/2000/svg" version="1.1" xmlns:xlink="http://www.w3.org/1999/xlink" viewBox="0 0 16313 1433">
  <defs>
    <style>
      .cls-1 {
        fill: #ccc;
      }

      .cls-1, .cls-2, .cls-3, .cls-4 {
        stroke-width: 0px;
      }

      .cls-2 {
        fill: #b3b3b3;
      }

      .cls-3 {
        fill: #e6e6e6;
      }

      .cls-4 {
        fill: url(#Degradado_sin_nombre_5);
      }
    </style>
    <linearGradient id="Degradado_sin_nombre_5" data-name="Degradado sin nombre 5" x1="8155.5" y1="1433" x2="8155.5" y2="-1023.7" gradientUnits="userSpaceOnUse">
      <stop offset="0" stop-color="#000" stop-opacity=".2"/>
      <stop offset="1" stop-color="#000" stop-opacity="0"/>
    </linearGradient>
  </defs>
  <g>
    <polyline class="cls-3" points="16313 1377 14303 1377 14303 1316.9 14613.7 1316.9 14753 1274 14862.5 1316.9 15055.4 1316.9 15147.9 1295.4 15263.6 1316.9 15905.9 1316.9 15983 1274 16081 1265 16135.4 1316.9 16313 1316.9"/>
    <polyline class="cls-3" points="0 1316.9 316.1 1316.9 389 1309 505.1 1316.9 994.9 1316.9 1113 1276 1155 1290.9 1217 1276 1309.3 1316.9 1911 1316.9 2130.9 1290.9 2273.6 1316.9 2690.1 1316.9 2790 1247 2875 1213 2949 1232 3075.9 1213 3246 1317 3889.7 1317 4044 1286 4186.7 1317 5116.3 1317 5208.9 1265 5278.3 1317 6057.4 1317 6145.5 1265 6254 1236 6342.9 1317 7052.6 1317 7083 1298 7110 1193 7168 1278 7291.7 1317 8124.9 1317 8610.9 1255 9093 1317 9698.6 1317 9760 1278 9834 1278 9911 1228 10061.1 1317 10512.4 1317 10663 1271 10774.7 1317 12020.6 1317 12020.6 1377 0 1377"/>
    <polygon class="cls-3" points="14303 1377 12383 1377 12383 1316.9 12693.7 1316.9 12833 1274 12942.5 1316.9 13135.4 1316.9 13227.9 1295.4 13343.6 1316.9 13985.9 1316.9 14063 1274 14161 1265 14215.4 1316.9 14303 1316.9 14303 1377"/>
    <rect class="cls-3" x="12015" y="1317" width="375" height="60"/>
  </g>
  <g>
    <polygon class="cls-1" points="16313 1340.9 16002.3 1340.9 15863 1298 15753.5 1340.9 15560.6 1340.9 15468.1 1319.4 15352.4 1340.9 14710.1 1340.9 14633 1298 14535 1289 14480.6 1340.9 13986.9 1340.9 13914 1333 13797.9 1340.9 13308.1 1340.9 13190 1300 13148 1314.9 13086 1300 12993.7 1340.9 12392 1340.9 12172.1 1314.9 12029.4 1340.9 11612.9 1340.9 11513 1271 11428 1237 11354 1256 11227.1 1237 11057 1341 10413.3 1341 10259 1310 10116.3 1341 9186.7 1341 9094.1 1289 9024.7 1341 8245.6 1341 8157.5 1289 8049 1260 7960.1 1341 7250.4 1341 7220 1322 7193 1217 7135 1302 7011.3 1341 6178.1 1341 5692.1 1279 5210 1341 4604.4 1341 4543 1302 4469 1302 4392 1252 4241.9 1341 3790.6 1341 3640 1295 3528.3 1341 2282.4 1341 2282.4 1401 16313 1401 16313 1340.9"/>
    <polygon class="cls-1" points="0 1401 1920 1401 1920 1340.9 1609.3 1340.9 1470 1298 1360.5 1340.9 1167.6 1340.9 1075.1 1319.4 959.4 1340.9 317.1 1340.9 240 1298 142 1289 87.6 1340.9 0 1340.9 0 1401"/>
    <rect class="cls-1" x="1913" y="1341" width="375" height="60" transform="translate(4201 2742) rotate(180)"/>
  </g>
  <polyline class="cls-2" points="0 1372.9 310.7 1372.9 450 1330 559.5 1372.9 752.4 1372.9 844.9 1351.4 960.6 1372.9 1602.9 1372.9 1680 1330 1778 1321 1832.4 1372.9 2326.1 1372.9 2399 1365 2515.1 1372.9 3004.9 1372.9 3123 1332 3165 1346.9 3227 1332 3319.3 1372.9 3921 1372.9 4140.9 1346.9 4283.6 1372.9 4700.1 1372.9 4800 1303 4885 1269 4959 1288 5085.9 1269 5256 1373 5899.7 1373 6054 1342 6196.7 1373 7126.3 1373 7218.9 1321 7288.3 1373 8067.4 1373 8155.5 1321 8264 1292 8352.9 1373 9062.6 1373 9093 1354 9120 1249 9178 1334 9301.7 1373 10134.9 1373 10620.9 1311 11103 1373 11708.6 1373 11770 1334 11844 1334 11921 1284 12071.1 1373 12522.4 1373 12673 1327 12784.7 1373 14030.6 1373 14030.6 1433 0 1433 0 1372.9"/>
  <polygon class="cls-2" points="16313 1433 14393 1433 14393 1372.9 14703.7 1372.9 14843 1330 14952.5 1372.9 15145.4 1372.9 15237.9 1351.4 15353.6 1372.9 15995.9 1372.9 16073 1330 16171 1321 16225.4 1372.9 16313 1372.9 16313 1433"/>
  <rect class="cls-2" x="14025" y="1373" width="375" height="60"/>
  <rect class="cls-4" width="16311" height="1433"/>
</svg>