<?xml version="1.0" encoding="UTF-8"?>
<svg id="Capa_1" data-name="Capa 1" xmlns="http://www.w3.org/2000/svg" version="1.1" viewBox="0 0 16351 896">
  <defs>
    <style>
      .cls-1 {
        fill: #ccc;
        stroke-width: 0px;
      }

      .cls-2 {
        opacity: .4;
      }
    </style>
  </defs>
  <g class="cls-2">
    <path class="cls-1" d="M127.3,84c12.3-2,24.7-2.4,37.1-2.5,12.4,0,24.8.5,37.1,2.5-12.3,2-24.7,2.4-37.1,2.5-12.4,0-24.8-.5-37.1-2.5h0Z"/>
    <path class="cls-1" d="M328.7,507c12.3-2,24.7-2.4,37.1-2.5,12.4,0,24.8.5,37.1,2.5-12.3,2-24.7,2.4-37.1,2.5-12.4,0-24.8-.5-37.1-2.5h0Z"/>
    <path class="cls-1" d="M100,392.5c12.3-2,24.7-2.4,37.1-2.5,12.4,0,24.8.5,37.1,2.5-12.3,2-24.7,2.4-37.1,2.5-12.4,0-24.8-.5-37.1-2.5h0Z"/>
    <path class="cls-1" d="M515.4,759.4c12.3-2,24.7-2.4,37.1-2.5,12.4,0,24.8.5,37.1,2.5-12.3,2-24.7,2.4-37.1,2.5-12.4,0-24.8-.5-37.1-2.5h0Z"/>
    <path class="cls-1" d="M90.7,840c12.3-2,24.7-2.4,37.1-2.5,12.4,0,24.8.5,37.1,2.5-12.3,2-24.7,2.4-37.1,2.5-12.4,0-24.8-.5-37.1-2.5h0Z"/>
    <path class="cls-1" d="M621.7,257c12.3-2,24.7-2.4,37.1-2.5,12.4,0,24.8.5,37.1,2.5-12.3,2-24.7,2.4-37.1,2.5-12.4,0-24.8-.5-37.1-2.5h0Z"/>
    <path class="cls-1" d="M989.2,841.8c-12.3,2-24.7,2.4-37.1,2.5-12.4,0-24.8-.5-37.1-2.5,12.3-2,24.7-2.4,37.1-2.5,12.4,0,24.8.5,37.1,2.5h0Z"/>
    <path class="cls-1" d="M787.8,418.8c-12.3,2-24.7,2.4-37.1,2.5-12.4,0-24.8-.5-37.1-2.5,12.3-2,24.7-2.4,37.1-2.5,12.4,0,24.8.5,37.1,2.5h0Z"/>
    <path class="cls-1" d="M1016.5,533.3c-12.3,2-24.7,2.4-37.1,2.5-12.4,0-24.8-.5-37.1-2.5,12.3-2,24.7-2.4,37.1-2.5,12.4,0,24.8.5,37.1,2.5h0Z"/>
    <path class="cls-1" d="M601.1,166.3c-12.3,2-24.7,2.4-37.1,2.5-12.4,0-24.8-.5-37.1-2.5,12.3-2,24.7-2.4,37.1-2.5,12.4,0,24.8.5,37.1,2.5h0Z"/>
    <path class="cls-1" d="M1025.8,85.8c-12.3,2-24.7,2.4-37.1,2.5-12.4,0-24.8-.5-37.1-2.5,12.3-2,24.7-2.4,37.1-2.5,12.4,0,24.8.5,37.1,2.5h0Z"/>
    <path class="cls-1" d="M494.8,668.8c-12.3,2-24.7,2.4-37.1,2.5-12.4,0-24.8-.5-37.1-2.5,12.3-2,24.7-2.4,37.1-2.5,12.4,0,24.8.5,37.1,2.5h0Z"/>
    <path class="cls-1" d="M1124.6,465c12.3-2,24.7-2.4,37.1-2.5,12.4,0,24.8.5,37.1,2.5-12.3,2-24.7,2.4-37.1,2.5-12.4,0-24.8-.5-37.1-2.5h0Z"/>
    <path class="cls-1" d="M1311.3,717.4c12.3-2,24.7-2.4,37.1-2.5,12.4,0,24.8.5,37.1,2.5-12.3,2-24.7,2.4-37.1,2.5-12.4,0-24.8-.5-37.1-2.5h0Z"/>
    <path class="cls-1" d="M1417.6,215c12.3-2,24.7-2.4,37.1-2.5,12.4,0,24.8.5,37.1,2.5-12.3,2-24.7,2.4-37.1,2.5-12.4,0-24.8-.5-37.1-2.5h0Z"/>
    <path class="cls-1" d="M1785.1,799.8c-12.3,2-24.7,2.4-37.1,2.5-12.4,0-24.8-.5-37.1-2.5,12.3-2,24.7-2.4,37.1-2.5,12.4,0,24.8.5,37.1,2.5h0Z"/>
    <path class="cls-1" d="M1583.8,376.8c-12.3,2-24.7,2.4-37.1,2.5-12.4,0-24.8-.5-37.1-2.5,12.3-2,24.7-2.4,37.1-2.5,12.4,0,24.8.5,37.1,2.5h0Z"/>
    <path class="cls-1" d="M1812.4,491.3c-12.3,2-24.7,2.4-37.1,2.5-12.4,0-24.8-.5-37.1-2.5,12.3-2,24.7-2.4,37.1-2.5,12.4,0,24.8.5,37.1,2.5h0Z"/>
    <path class="cls-1" d="M1397.1,124.3c-12.3,2-24.7,2.4-37.1,2.5-12.4,0-24.8-.5-37.1-2.5,12.3-2,24.7-2.4,37.1-2.5,12.4,0,24.8.5,37.1,2.5h0Z"/>
    <path class="cls-1" d="M1821.8,43.8c-12.3,2-24.7,2.4-37.1,2.5-12.4,0-24.8-.5-37.1-2.5,12.3-2,24.7-2.4,37.1-2.5,12.4,0,24.8.5,37.1,2.5h0Z"/>
    <path class="cls-1" d="M1290.8,626.8c-12.3,2-24.7,2.4-37.1,2.5-12.4,0-24.8-.5-37.1-2.5,12.3-2,24.7-2.4,37.1-2.5,12.4,0,24.8.5,37.1,2.5h0Z"/>
    <path class="cls-1" d="M1878.9,89.2c12.3-2,24.7-2.4,37.1-2.5,12.4,0,24.8.5,37.1,2.5-12.3,2-24.7,2.4-37.1,2.5-12.4,0-24.8-.5-37.1-2.5h0Z"/>
    <path class="cls-1" d="M2080.2,512.2c12.3-2,24.7-2.4,37.1-2.5,12.4,0,24.8.5,37.1,2.5-12.3,2-24.7,2.4-37.1,2.5-12.4,0-24.8-.5-37.1-2.5h0Z"/>
    <path class="cls-1" d="M1851.5,397.7c12.3-2,24.7-2.4,37.1-2.5,12.4,0,24.8.5,37.1,2.5-12.3,2-24.7,2.4-37.1,2.5-12.4,0-24.8-.5-37.1-2.5h0Z"/>
    <path class="cls-1" d="M2266.9,764.7c12.3-2,24.7-2.4,37.1-2.5,12.4,0,24.8.5,37.1,2.5-12.3,2-24.7,2.4-37.1,2.5-12.4,0-24.8-.5-37.1-2.5h0Z"/>
    <path class="cls-1" d="M1842.2,845.2c12.3-2,24.7-2.4,37.1-2.5,12.4,0,24.8.5,37.1,2.5-12.3,2-24.7,2.4-37.1,2.5-12.4,0-24.8-.5-37.1-2.5h0Z"/>
    <path class="cls-1" d="M2373.2,262.2c12.3-2,24.7-2.4,37.1-2.5,12.4,0,24.8.5,37.1,2.5-12.3,2-24.7,2.4-37.1,2.5-12.4,0-24.8-.5-37.1-2.5h0Z"/>
    <path class="cls-1" d="M2740.7,847c-12.3,2-24.7,2.4-37.1,2.5-12.4,0-24.8-.5-37.1-2.5,12.3-2,24.7-2.4,37.1-2.5,12.4,0,24.8.5,37.1,2.5h0Z"/>
    <path class="cls-1" d="M2539.4,424c-12.3,2-24.7,2.4-37.1,2.5-12.4,0-24.8-.5-37.1-2.5,12.3-2,24.7-2.4,37.1-2.5,12.4,0,24.8.5,37.1,2.5h0Z"/>
    <path class="cls-1" d="M2768,538.5c-12.3,2-24.7,2.4-37.1,2.5-12.4,0-24.8-.5-37.1-2.5,12.3-2,24.7-2.4,37.1-2.5,12.4,0,24.8.5,37.1,2.5h0Z"/>
    <path class="cls-1" d="M2352.7,171.5c-12.3,2-24.7,2.4-37.1,2.5-12.4,0-24.8-.5-37.1-2.5,12.3-2,24.7-2.4,37.1-2.5,12.4,0,24.8.5,37.1,2.5h0Z"/>
    <path class="cls-1" d="M2777.4,91c-12.3,2-24.7,2.4-37.1,2.5-12.4,0-24.8-.5-37.1-2.5,12.3-2,24.7-2.4,37.1-2.5,12.4,0,24.8.5,37.1,2.5h0Z"/>
    <path class="cls-1" d="M2246.4,674c-12.3,2-24.7,2.4-37.1,2.5-12.4,0-24.8-.5-37.1-2.5,12.3-2,24.7-2.4,37.1-2.5,12.4,0,24.8.5,37.1,2.5h0Z"/>
    <path class="cls-1" d="M2876.1,470.2c12.3-2,24.7-2.4,37.1-2.5,12.4,0,24.8.5,37.1,2.5-12.3,2-24.7,2.4-37.1,2.5-12.4,0-24.8-.5-37.1-2.5h0Z"/>
    <path class="cls-1" d="M3062.8,722.7c12.3-2,24.7-2.4,37.1-2.5,12.4,0,24.8.5,37.1,2.5-12.3,2-24.7,2.4-37.1,2.5-12.4,0-24.8-.5-37.1-2.5h0Z"/>
    <path class="cls-1" d="M3169.1,220.2c12.3-2,24.7-2.4,37.1-2.5,12.4,0,24.8.5,37.1,2.5-12.3,2-24.7,2.4-37.1,2.5-12.4,0-24.8-.5-37.1-2.5h0Z"/>
    <path class="cls-1" d="M3536.6,805c-12.3,2-24.7,2.4-37.1,2.5-12.4,0-24.8-.5-37.1-2.5,12.3-2,24.7-2.4,37.1-2.5,12.4,0,24.8.5,37.1,2.5h0Z"/>
    <path class="cls-1" d="M3335.3,382c-12.3,2-24.7,2.4-37.1,2.5-12.4,0-24.8-.5-37.1-2.5,12.3-2,24.7-2.4,37.1-2.5,12.4,0,24.8.5,37.1,2.5h0Z"/>
    <path class="cls-1" d="M3564,496.5c-12.3,2-24.7,2.4-37.1,2.5-12.4,0-24.8-.5-37.1-2.5,12.3-2,24.7-2.4,37.1-2.5,12.4,0,24.8.5,37.1,2.5h0Z"/>
    <path class="cls-1" d="M3148.6,129.5c-12.3,2-24.7,2.4-37.1,2.5-12.4,0-24.8-.5-37.1-2.5,12.3-2,24.7-2.4,37.1-2.5,12.4,0,24.8.5,37.1,2.5h0Z"/>
    <path class="cls-1" d="M3573.3,49c-12.3,2-24.7,2.4-37.1,2.5-12.4,0-24.8-.5-37.1-2.5,12.3-2,24.7-2.4,37.1-2.5,12.4,0,24.8.5,37.1,2.5h0Z"/>
    <path class="cls-1" d="M3042.3,632c-12.3,2-24.7,2.4-37.1,2.5-12.4,0-24.8-.5-37.1-2.5,12.3-2,24.7-2.4,37.1-2.5,12.4,0,24.8.5,37.1,2.5h0Z"/>
    <path class="cls-1" d="M3761.7,501.6c12.3-2,24.7-2.4,37.1-2.5,12.4,0,24.8.5,37.1,2.5-12.3,2-24.7,2.4-37.1,2.5-12.4,0-24.8-.5-37.1-2.5h0Z"/>
    <path class="cls-1" d="M3948.4,754.1c12.3-2,24.7-2.4,37.1-2.5,12.4,0,24.8.5,37.1,2.5-12.3,2-24.7,2.4-37.1,2.5-12.4,0-24.8-.5-37.1-2.5h0Z"/>
    <path class="cls-1" d="M4054.7,251.6c12.3-2,24.7-2.4,37.1-2.5,12.4,0,24.8.5,37.1,2.5-12.3,2-24.7,2.4-37.1,2.5-12.4,0-24.8-.5-37.1-2.5h0Z"/>
    <path class="cls-1" d="M4422.2,836.4c-12.3,2-24.7,2.4-37.1,2.5-12.4,0-24.8-.5-37.1-2.5,12.3-2,24.7-2.4,37.1-2.5,12.4,0,24.8.5,37.1,2.5h0Z"/>
    <path class="cls-1" d="M4220.9,413.4c-12.3,2-24.7,2.4-37.1,2.5-12.4,0-24.8-.5-37.1-2.5,12.3-2,24.7-2.4,37.1-2.5,12.4,0,24.8.5,37.1,2.5h0Z"/>
    <path class="cls-1" d="M4449.6,527.9c-12.3,2-24.7,2.4-37.1,2.5-12.4,0-24.8-.5-37.1-2.5,12.3-2,24.7-2.4,37.1-2.5,12.4,0,24.8.5,37.1,2.5h0Z"/>
    <path class="cls-1" d="M4034.2,160.9c-12.3,2-24.7,2.4-37.1,2.5-12.4,0-24.8-.5-37.1-2.5,12.3-2,24.7-2.4,37.1-2.5,12.4,0,24.8.5,37.1,2.5h0Z"/>
    <path class="cls-1" d="M4458.9,80.4c-12.3,2-24.7,2.4-37.1,2.5-12.4,0-24.8-.5-37.1-2.5,12.3-2,24.7-2.4,37.1-2.5,12.4,0,24.8.5,37.1,2.5h0Z"/>
    <path class="cls-1" d="M3927.9,663.4c-12.3,2-24.7,2.4-37.1,2.5-12.4,0-24.8-.5-37.1-2.5,12.3-2,24.7-2.4,37.1-2.5,12.4,0,24.8.5,37.1,2.5h0Z"/>
    <path class="cls-1" d="M4557.7,459.6c12.3-2,24.7-2.4,37.1-2.5,12.4,0,24.8.5,37.1,2.5-12.3,2-24.7,2.4-37.1,2.5-12.4,0-24.8-.5-37.1-2.5h0Z"/>
    <path class="cls-1" d="M4744.3,712.1c12.3-2,24.7-2.4,37.1-2.5,12.4,0,24.8.5,37.1,2.5-12.3,2-24.7,2.4-37.1,2.5-12.4,0-24.8-.5-37.1-2.5h0Z"/>
    <path class="cls-1" d="M4850.7,209.6c12.3-2,24.7-2.4,37.1-2.5,12.4,0,24.8.5,37.1,2.5-12.3,2-24.7,2.4-37.1,2.5-12.4,0-24.8-.5-37.1-2.5h0Z"/>
    <path class="cls-1" d="M5218.2,794.4c-12.3,2-24.7,2.4-37.1,2.5-12.4,0-24.8-.5-37.1-2.5,12.3-2,24.7-2.4,37.1-2.5,12.4,0,24.8.5,37.1,2.5h0Z"/>
    <path class="cls-1" d="M5016.8,371.4c-12.3,2-24.7,2.4-37.1,2.5-12.4,0-24.8-.5-37.1-2.5,12.3-2,24.7-2.4,37.1-2.5,12.4,0,24.8.5,37.1,2.5h0Z"/>
    <path class="cls-1" d="M5245.5,485.9c-12.3,2-24.7,2.4-37.1,2.5-12.4,0-24.8-.5-37.1-2.5,12.3-2,24.7-2.4,37.1-2.5,12.4,0,24.8.5,37.1,2.5h0Z"/>
    <path class="cls-1" d="M4830.1,118.9c-12.3,2-24.7,2.4-37.1,2.5-12.4,0-24.8-.5-37.1-2.5,12.3-2,24.7-2.4,37.1-2.5,12.4,0,24.8.5,37.1,2.5h0Z"/>
    <path class="cls-1" d="M5254.8,38.4c-12.3,2-24.7,2.4-37.1,2.5-12.4,0-24.8-.5-37.1-2.5,12.3-2,24.7-2.4,37.1-2.5,12.4,0,24.8.5,37.1,2.5h0Z"/>
    <path class="cls-1" d="M4723.8,621.4c-12.3,2-24.7,2.4-37.1,2.5-12.4,0-24.8-.5-37.1-2.5,12.3-2,24.7-2.4,37.1-2.5,12.4,0,24.8.5,37.1,2.5h0Z"/>
    <path class="cls-1" d="M5311.9,83.8c12.3-2,24.7-2.4,37.1-2.5,12.4,0,24.8.5,37.1,2.5-12.3,2-24.7,2.4-37.1,2.5-12.4,0-24.8-.5-37.1-2.5h0Z"/>
    <path class="cls-1" d="M5513.3,506.8c12.3-2,24.7-2.4,37.1-2.5,12.4,0,24.8.5,37.1,2.5-12.3,2-24.7,2.4-37.1,2.5-12.4,0-24.8-.5-37.1-2.5h0Z"/>
    <path class="cls-1" d="M5284.6,392.3c12.3-2,24.7-2.4,37.1-2.5,12.4,0,24.8.5,37.1,2.5-12.3,2-24.7,2.4-37.1,2.5-12.4,0-24.8-.5-37.1-2.5h0Z"/>
    <path class="cls-1" d="M5699.9,759.3c12.3-2,24.7-2.4,37.1-2.5,12.4,0,24.8.5,37.1,2.5-12.3,2-24.7,2.4-37.1,2.5-12.4,0-24.8-.5-37.1-2.5h0Z"/>
    <path class="cls-1" d="M5275.3,839.8c12.3-2,24.7-2.4,37.1-2.5,12.4,0,24.8.5,37.1,2.5-12.3,2-24.7,2.4-37.1,2.5-12.4,0-24.8-.5-37.1-2.5h0Z"/>
    <path class="cls-1" d="M5806.3,256.8c12.3-2,24.7-2.4,37.1-2.5,12.4,0,24.8.5,37.1,2.5-12.3,2-24.7,2.4-37.1,2.5-12.4,0-24.8-.5-37.1-2.5h0Z"/>
    <path class="cls-1" d="M6173.8,841.6c-12.3,2-24.7,2.4-37.1,2.5-12.4,0-24.8-.5-37.1-2.5,12.3-2,24.7-2.4,37.1-2.5,12.4,0,24.8.5,37.1,2.5h0Z"/>
    <path class="cls-1" d="M5972.4,418.6c-12.3,2-24.7,2.4-37.1,2.5-12.4,0-24.8-.5-37.1-2.5,12.3-2,24.7-2.4,37.1-2.5,12.4,0,24.8.5,37.1,2.5h0Z"/>
    <path class="cls-1" d="M6201.1,533.1c-12.3,2-24.7,2.4-37.1,2.5-12.4,0-24.8-.5-37.1-2.5,12.3-2,24.7-2.4,37.1-2.5,12.4,0,24.8.5,37.1,2.5h0Z"/>
    <path class="cls-1" d="M5785.7,166.1c-12.3,2-24.7,2.4-37.1,2.5-12.4,0-24.8-.5-37.1-2.5,12.3-2,24.7-2.4,37.1-2.5,12.4,0,24.8.5,37.1,2.5h0Z"/>
    <path class="cls-1" d="M6210.4,85.6c-12.3,2-24.7,2.4-37.1,2.5-12.4,0-24.8-.5-37.1-2.5,12.3-2,24.7-2.4,37.1-2.5,12.4,0,24.8.5,37.1,2.5h0Z"/>
    <path class="cls-1" d="M5679.4,668.6c-12.3,2-24.7,2.4-37.1,2.5-12.4,0-24.8-.5-37.1-2.5,12.3-2,24.7-2.4,37.1-2.5,12.4,0,24.8.5,37.1,2.5h0Z"/>
    <path class="cls-1" d="M6309.2,464.8c12.3-2,24.7-2.4,37.1-2.5,12.4,0,24.8.5,37.1,2.5-12.3,2-24.7,2.4-37.1,2.5-12.4,0-24.8-.5-37.1-2.5h0Z"/>
    <path class="cls-1" d="M6495.9,717.3c12.3-2,24.7-2.4,37.1-2.5,12.4,0,24.8.5,37.1,2.5-12.3,2-24.7,2.4-37.1,2.5-12.4,0-24.8-.5-37.1-2.5h0Z"/>
    <path class="cls-1" d="M6602.2,214.8c12.3-2,24.7-2.4,37.1-2.5,12.4,0,24.8.5,37.1,2.5-12.3,2-24.7,2.4-37.1,2.5-12.4,0-24.8-.5-37.1-2.5h0Z"/>
    <path class="cls-1" d="M6969.7,799.6c-12.3,2-24.7,2.4-37.1,2.5-12.4,0-24.8-.5-37.1-2.5,12.3-2,24.7-2.4,37.1-2.5,12.4,0,24.8.5,37.1,2.5h0Z"/>
    <path class="cls-1" d="M6768.3,376.6c-12.3,2-24.7,2.4-37.1,2.5-12.4,0-24.8-.5-37.1-2.5,12.3-2,24.7-2.4,37.1-2.5,12.4,0,24.8.5,37.1,2.5h0Z"/>
    <path class="cls-1" d="M6997,491.1c-12.3,2-24.7,2.4-37.1,2.5-12.4,0-24.8-.5-37.1-2.5,12.3-2,24.7-2.4,37.1-2.5,12.4,0,24.8.5,37.1,2.5h0Z"/>
    <path class="cls-1" d="M6581.7,124.1c-12.3,2-24.7,2.4-37.1,2.5-12.4,0-24.8-.5-37.1-2.5,12.3-2,24.7-2.4,37.1-2.5,12.4,0,24.8.5,37.1,2.5h0Z"/>
    <path class="cls-1" d="M7006.3,43.6c-12.3,2-24.7,2.4-37.1,2.5-12.4,0-24.8-.5-37.1-2.5,12.3-2,24.7-2.4,37.1-2.5,12.4,0,24.8.5,37.1,2.5h0Z"/>
    <path class="cls-1" d="M6475.3,626.6c-12.3,2-24.7,2.4-37.1,2.5-12.4,0-24.8-.5-37.1-2.5,12.3-2,24.7-2.4,37.1-2.5,12.4,0,24.8.5,37.1,2.5h0Z"/>
    <path class="cls-1" d="M7199.3,100.7c12.3-2,24.7-2.4,37.1-2.5,12.4,0,24.8.5,37.1,2.5-12.3,2-24.7,2.4-37.1,2.5-12.4,0-24.8-.5-37.1-2.5h0Z"/>
    <path class="cls-1" d="M7400.6,523.7c12.3-2,24.7-2.4,37.1-2.5,12.4,0,24.8.5,37.1,2.5-12.3,2-24.7,2.4-37.1,2.5-12.4,0-24.8-.5-37.1-2.5h0Z"/>
    <path class="cls-1" d="M7172,409.2c12.3-2,24.7-2.4,37.1-2.5,12.4,0,24.8.5,37.1,2.5-12.3,2-24.7,2.4-37.1,2.5-12.4,0-24.8-.5-37.1-2.5h0Z"/>
    <path class="cls-1" d="M7587.3,776.2c12.3-2,24.7-2.4,37.1-2.5,12.4,0,24.8.5,37.1,2.5-12.3,2-24.7,2.4-37.1,2.5-12.4,0-24.8-.5-37.1-2.5h0Z"/>
    <path class="cls-1" d="M7162.6,856.7c12.3-2,24.7-2.4,37.1-2.5,12.4,0,24.8.5,37.1,2.5-12.3,2-24.7,2.4-37.1,2.5-12.4,0-24.8-.5-37.1-2.5h0Z"/>
    <path class="cls-1" d="M7693.6,273.7c12.3-2,24.7-2.4,37.1-2.5,12.4,0,24.8.5,37.1,2.5-12.3,2-24.7,2.4-37.1,2.5-12.4,0-24.8-.5-37.1-2.5h0Z"/>
    <path class="cls-1" d="M8061.1,858.5c-12.3,2-24.7,2.4-37.1,2.5-12.4,0-24.8-.5-37.1-2.5,12.3-2,24.7-2.4,37.1-2.5,12.4,0,24.8.5,37.1,2.5h0Z"/>
    <path class="cls-1" d="M7859.8,435.5c-12.3,2-24.7,2.4-37.1,2.5-12.4,0-24.8-.5-37.1-2.5,12.3-2,24.7-2.4,37.1-2.5,12.4,0,24.8.5,37.1,2.5h0Z"/>
    <path class="cls-1" d="M8088.5,550c-12.3,2-24.7,2.4-37.1,2.5-12.4,0-24.8-.5-37.1-2.5,12.3-2,24.7-2.4,37.1-2.5,12.4,0,24.8.5,37.1,2.5h0Z"/>
    <path class="cls-1" d="M7673.1,183.1c-12.3,2-24.7,2.4-37.1,2.5-12.4,0-24.8-.5-37.1-2.5,12.3-2,24.7-2.4,37.1-2.5,12.4,0,24.8.5,37.1,2.5h0Z"/>
    <path class="cls-1" d="M8097.8,102.5c-12.3,2-24.7,2.4-37.1,2.5-12.4,0-24.8-.5-37.1-2.5,12.3-2,24.7-2.4,37.1-2.5,12.4,0,24.8.5,37.1,2.5h0Z"/>
    <path class="cls-1" d="M7566.8,685.5c-12.3,2-24.7,2.4-37.1,2.5-12.4,0-24.8-.5-37.1-2.5,12.3-2,24.7-2.4,37.1-2.5,12.4,0,24.8.5,37.1,2.5h0Z"/>
    <path class="cls-1" d="M8196.6,481.7c12.3-2,24.7-2.4,37.1-2.5,12.4,0,24.8.5,37.1,2.5-12.3,2-24.7,2.4-37.1,2.5-12.4,0-24.8-.5-37.1-2.5h0Z"/>
    <path class="cls-1" d="M8383.2,734.2c12.3-2,24.7-2.4,37.1-2.5,12.4,0,24.8.5,37.1,2.5-12.3,2-24.7,2.4-37.1,2.5-12.4,0-24.8-.5-37.1-2.5h0Z"/>
    <path class="cls-1" d="M8489.6,231.7c12.3-2,24.7-2.4,37.1-2.5,12.4,0,24.8.5,37.1,2.5-12.3,2-24.7,2.4-37.1,2.5-12.4,0-24.8-.5-37.1-2.5h0Z"/>
    <path class="cls-1" d="M8857.1,816.5c-12.3,2-24.7,2.4-37.1,2.5-12.4,0-24.8-.5-37.1-2.5,12.3-2,24.7-2.4,37.1-2.5,12.4,0,24.8.5,37.1,2.5h0Z"/>
    <path class="cls-1" d="M8655.7,393.5c-12.3,2-24.7,2.4-37.1,2.5-12.4,0-24.8-.5-37.1-2.5,12.3-2,24.7-2.4,37.1-2.5,12.4,0,24.8.5,37.1,2.5h0Z"/>
    <path class="cls-1" d="M8884.4,508c-12.3,2-24.7,2.4-37.1,2.5-12.4,0-24.8-.5-37.1-2.5,12.3-2,24.7-2.4,37.1-2.5,12.4,0,24.8.5,37.1,2.5h0Z"/>
    <path class="cls-1" d="M8469,141.1c-12.3,2-24.7,2.4-37.1,2.5-12.4,0-24.8-.5-37.1-2.5,12.3-2,24.7-2.4,37.1-2.5,12.4,0,24.8.5,37.1,2.5h0Z"/>
    <path class="cls-1" d="M8893.7,60.5c-12.3,2-24.7,2.4-37.1,2.5-12.4,0-24.8-.5-37.1-2.5,12.3-2,24.7-2.4,37.1-2.5,12.4,0,24.8.5,37.1,2.5h0Z"/>
    <path class="cls-1" d="M8362.7,643.5c-12.3,2-24.7,2.4-37.1,2.5-12.4,0-24.8-.5-37.1-2.5,12.3-2,24.7-2.4,37.1-2.5,12.4,0,24.8.5,37.1,2.5h0Z"/>
    <path class="cls-1" d="M8950.8,105.9c12.3-2,24.7-2.4,37.1-2.5,12.4,0,24.8.5,37.1,2.5-12.3,2-24.7,2.4-37.1,2.5-12.4,0-24.8-.5-37.1-2.5h0Z"/>
    <path class="cls-1" d="M9152.2,528.9c12.3-2,24.7-2.4,37.1-2.5,12.4,0,24.8.5,37.1,2.5-12.3,2-24.7,2.4-37.1,2.5-12.4,0-24.8-.5-37.1-2.5h0Z"/>
    <path class="cls-1" d="M8923.5,414.4c12.3-2,24.7-2.4,37.1-2.5,12.4,0,24.8.5,37.1,2.5-12.3,2-24.7,2.4-37.1,2.5-12.4,0-24.8-.5-37.1-2.5h0Z"/>
    <path class="cls-1" d="M9338.8,781.4c12.3-2,24.7-2.4,37.1-2.5,12.4,0,24.8.5,37.1,2.5-12.3,2-24.7,2.4-37.1,2.5-12.4,0-24.8-.5-37.1-2.5h0Z"/>
    <path class="cls-1" d="M8914.2,861.9c12.3-2,24.7-2.4,37.1-2.5,12.4,0,24.8.5,37.1,2.5-12.3,2-24.7,2.4-37.1,2.5-12.4,0-24.8-.5-37.1-2.5h0Z"/>
    <path class="cls-1" d="M9445.2,278.9c12.3-2,24.7-2.4,37.1-2.5,12.4,0,24.8.5,37.1,2.5-12.3,2-24.7,2.4-37.1,2.5-12.4,0-24.8-.5-37.1-2.5h0Z"/>
    <path class="cls-1" d="M9812.7,863.7c-12.3,2-24.7,2.4-37.1,2.5-12.4,0-24.8-.5-37.1-2.5,12.3-2,24.7-2.4,37.1-2.5,12.4,0,24.8.5,37.1,2.5h0Z"/>
    <path class="cls-1" d="M9611.3,440.8c-12.3,2-24.7,2.4-37.1,2.5-12.4,0-24.8-.5-37.1-2.5,12.3-2,24.7-2.4,37.1-2.5,12.4,0,24.8.5,37.1,2.5h0Z"/>
    <path class="cls-1" d="M9840,555.2c-12.3,2-24.7,2.4-37.1,2.5-12.4,0-24.8-.5-37.1-2.5,12.3-2,24.7-2.4,37.1-2.5,12.4,0,24.8.5,37.1,2.5h0Z"/>
    <path class="cls-1" d="M9424.6,188.3c-12.3,2-24.7,2.4-37.1,2.5-12.4,0-24.8-.5-37.1-2.5,12.3-2,24.7-2.4,37.1-2.5,12.4,0,24.8.5,37.1,2.5h0Z"/>
    <path class="cls-1" d="M9849.3,107.8c-12.3,2-24.7,2.4-37.1,2.5-12.4,0-24.8-.5-37.1-2.5,12.3-2,24.7-2.4,37.1-2.5,12.4,0,24.8.5,37.1,2.5h0Z"/>
    <path class="cls-1" d="M9318.3,690.8c-12.3,2-24.7,2.4-37.1,2.5-12.4,0-24.8-.5-37.1-2.5,12.3-2,24.7-2.4,37.1-2.5,12.4,0,24.8.5,37.1,2.5h0Z"/>
    <path class="cls-1" d="M9948.1,486.9c12.3-2,24.7-2.4,37.1-2.5,12.4,0,24.8.5,37.1,2.5-12.3,2-24.7,2.4-37.1,2.5-12.4,0-24.8-.5-37.1-2.5h0Z"/>
    <path class="cls-1" d="M10134.8,739.4c12.3-2,24.7-2.4,37.1-2.5,12.4,0,24.8.5,37.1,2.5-12.3,2-24.7,2.4-37.1,2.5-12.4,0-24.8-.5-37.1-2.5h0Z"/>
    <path class="cls-1" d="M10241.1,236.9c12.3-2,24.7-2.4,37.1-2.5,12.4,0,24.8.5,37.1,2.5-12.3,2-24.7,2.4-37.1,2.5-12.4,0-24.8-.5-37.1-2.5h0Z"/>
    <path class="cls-1" d="M10608.6,821.7c-12.3,2-24.7,2.4-37.1,2.5-12.4,0-24.8-.5-37.1-2.5,12.3-2,24.7-2.4,37.1-2.5,12.4,0,24.8.5,37.1,2.5h0Z"/>
    <path class="cls-1" d="M10407.2,398.8c-12.3,2-24.7,2.4-37.1,2.5-12.4,0-24.8-.5-37.1-2.5,12.3-2,24.7-2.4,37.1-2.5,12.4,0,24.8.5,37.1,2.5h0Z"/>
    <path class="cls-1" d="M10635.9,513.2c-12.3,2-24.7,2.4-37.1,2.5-12.4,0-24.8-.5-37.1-2.5,12.3-2,24.7-2.4,37.1-2.5,12.4,0,24.8.5,37.1,2.5h0Z"/>
    <path class="cls-1" d="M10220.6,146.3c-12.3,2-24.7,2.4-37.1,2.5-12.4,0-24.8-.5-37.1-2.5,12.3-2,24.7-2.4,37.1-2.5,12.4,0,24.8.5,37.1,2.5h0Z"/>
    <path class="cls-1" d="M10645.2,65.8c-12.3,2-24.7,2.4-37.1,2.5-12.4,0-24.8-.5-37.1-2.5,12.3-2,24.7-2.4,37.1-2.5,12.4,0,24.8.5,37.1,2.5h0Z"/>
    <path class="cls-1" d="M10114.2,648.8c-12.3,2-24.7,2.4-37.1,2.5-12.4,0-24.8-.5-37.1-2.5,12.3-2,24.7-2.4,37.1-2.5,12.4,0,24.8.5,37.1,2.5h0Z"/>
    <path class="cls-1" d="M10833.7,518.3c12.3-2,24.7-2.4,37.1-2.5,12.4,0,24.8.5,37.1,2.5-12.3,2-24.7,2.4-37.1,2.5-12.4,0-24.8-.5-37.1-2.5h0Z"/>
    <path class="cls-1" d="M11020.4,770.8c12.3-2,24.7-2.4,37.1-2.5,12.4,0,24.8.5,37.1,2.5-12.3,2-24.7,2.4-37.1,2.5-12.4,0-24.8-.5-37.1-2.5h0Z"/>
    <path class="cls-1" d="M11126.7,268.3c12.3-2,24.7-2.4,37.1-2.5,12.4,0,24.8.5,37.1,2.5-12.3,2-24.7,2.4-37.1,2.5-12.4,0-24.8-.5-37.1-2.5h0Z"/>
    <path class="cls-1" d="M11494.2,853.1c-12.3,2-24.7,2.4-37.1,2.5-12.4,0-24.8-.5-37.1-2.5,12.3-2,24.7-2.4,37.1-2.5,12.4,0,24.8.5,37.1,2.5h0Z"/>
    <path class="cls-1" d="M11292.8,430.1c-12.3,2-24.7,2.4-37.1,2.5-12.4,0-24.8-.5-37.1-2.5,12.3-2,24.7-2.4,37.1-2.5,12.4,0,24.8.5,37.1,2.5h0Z"/>
    <path class="cls-1" d="M11521.5,544.6c-12.3,2-24.7,2.4-37.1,2.5-12.4,0-24.8-.5-37.1-2.5,12.3-2,24.7-2.4,37.1-2.5,12.4,0,24.8.5,37.1,2.5h0Z"/>
    <path class="cls-1" d="M11106.2,177.7c-12.3,2-24.7,2.4-37.1,2.5-12.4,0-24.8-.5-37.1-2.5,12.3-2,24.7-2.4,37.1-2.5,12.4,0,24.8.5,37.1,2.5h0Z"/>
    <path class="cls-1" d="M11530.8,97.1c-12.3,2-24.7,2.4-37.1,2.5-12.4,0-24.8-.5-37.1-2.5,12.3-2,24.7-2.4,37.1-2.5,12.4,0,24.8.5,37.1,2.5h0Z"/>
    <path class="cls-1" d="M10999.8,680.1c-12.3,2-24.7,2.4-37.1,2.5-12.4,0-24.8-.5-37.1-2.5,12.3-2,24.7-2.4,37.1-2.5,12.4,0,24.8.5,37.1,2.5h0Z"/>
    <path class="cls-1" d="M11629.6,476.3c12.3-2,24.7-2.4,37.1-2.5,12.4,0,24.8.5,37.1,2.5-12.3,2-24.7,2.4-37.1,2.5-12.4,0-24.8-.5-37.1-2.5h0Z"/>
    <path class="cls-1" d="M11816.3,728.8c12.3-2,24.7-2.4,37.1-2.5,12.4,0,24.8.5,37.1,2.5-12.3,2-24.7,2.4-37.1,2.5-12.4,0-24.8-.5-37.1-2.5h0Z"/>
    <path class="cls-1" d="M11922.6,226.3c12.3-2,24.7-2.4,37.1-2.5,12.4,0,24.8.5,37.1,2.5-12.3,2-24.7,2.4-37.1,2.5-12.4,0-24.8-.5-37.1-2.5h0Z"/>
    <path class="cls-1" d="M12290.1,811.1c-12.3,2-24.7,2.4-37.1,2.5-12.4,0-24.8-.5-37.1-2.5,12.3-2,24.7-2.4,37.1-2.5,12.4,0,24.8.5,37.1,2.5h0Z"/>
    <path class="cls-1" d="M12088.8,388.1c-12.3,2-24.7,2.4-37.1,2.5-12.4,0-24.8-.5-37.1-2.5,12.3-2,24.7-2.4,37.1-2.5,12.4,0,24.8.5,37.1,2.5h0Z"/>
    <path class="cls-1" d="M12317.4,502.6c-12.3,2-24.7,2.4-37.1,2.5-12.4,0-24.8-.5-37.1-2.5,12.3-2,24.7-2.4,37.1-2.5,12.4,0,24.8.5,37.1,2.5h0Z"/>
    <path class="cls-1" d="M11902.1,135.7c-12.3,2-24.7,2.4-37.1,2.5-12.4,0-24.8-.5-37.1-2.5,12.3-2,24.7-2.4,37.1-2.5,12.4,0,24.8.5,37.1,2.5h0Z"/>
    <path class="cls-1" d="M12326.8,55.1c-12.3,2-24.7,2.4-37.1,2.5-12.4,0-24.8-.5-37.1-2.5,12.3-2,24.7-2.4,37.1-2.5,12.4,0,24.8.5,37.1,2.5h0Z"/>
    <path class="cls-1" d="M11795.8,638.1c-12.3,2-24.7,2.4-37.1,2.5-12.4,0-24.8-.5-37.1-2.5,12.3-2,24.7-2.4,37.1-2.5,12.4,0,24.8.5,37.1,2.5h0Z"/>
    <path class="cls-1" d="M12383.9,100.6c12.3-2,24.7-2.4,37.1-2.5,12.4,0,24.8.5,37.1,2.5-12.3,2-24.7,2.4-37.1,2.5-12.4,0-24.8-.5-37.1-2.5h0Z"/>
    <path class="cls-1" d="M12585.2,523.5c12.3-2,24.7-2.4,37.1-2.5,12.4,0,24.8.5,37.1,2.5-12.3,2-24.7,2.4-37.1,2.5-12.4,0-24.8-.5-37.1-2.5h0Z"/>
    <path class="cls-1" d="M12356.5,409c12.3-2,24.7-2.4,37.1-2.5,12.4,0,24.8.5,37.1,2.5-12.3,2-24.7,2.4-37.1,2.5-12.4,0-24.8-.5-37.1-2.5h0Z"/>
    <path class="cls-1" d="M12771.9,776c12.3-2,24.7-2.4,37.1-2.5,12.4,0,24.8.5,37.1,2.5-12.3,2-24.7,2.4-37.1,2.5-12.4,0-24.8-.5-37.1-2.5h0Z"/>
    <path class="cls-1" d="M12347.2,856.5c12.3-2,24.7-2.4,37.1-2.5,12.4,0,24.8.5,37.1,2.5-12.3,2-24.7,2.4-37.1,2.5-12.4,0-24.8-.5-37.1-2.5h0Z"/>
    <path class="cls-1" d="M12878.2,273.5c12.3-2,24.7-2.4,37.1-2.5,12.4,0,24.8.5,37.1,2.5-12.3,2-24.7,2.4-37.1,2.5-12.4,0-24.8-.5-37.1-2.5h0Z"/>
    <path class="cls-1" d="M13245.7,858.3c-12.3,2-24.7,2.4-37.1,2.5-12.4,0-24.8-.5-37.1-2.5,12.3-2,24.7-2.4,37.1-2.5,12.4,0,24.8.5,37.1,2.5h0Z"/>
    <path class="cls-1" d="M13044.4,435.4c-12.3,2-24.7,2.4-37.1,2.5-12.4,0-24.8-.5-37.1-2.5,12.3-2,24.7-2.4,37.1-2.5,12.4,0,24.8.5,37.1,2.5h0Z"/>
    <path class="cls-1" d="M13273,549.8c-12.3,2-24.7,2.4-37.1,2.5-12.4,0-24.8-.5-37.1-2.5,12.3-2,24.7-2.4,37.1-2.5,12.4,0,24.8.5,37.1,2.5h0Z"/>
    <path class="cls-1" d="M12857.7,182.9c-12.3,2-24.7,2.4-37.1,2.5-12.4,0-24.8-.5-37.1-2.5,12.3-2,24.7-2.4,37.1-2.5,12.4,0,24.8.5,37.1,2.5h0Z"/>
    <path class="cls-1" d="M13282.4,102.4c-12.3,2-24.7,2.4-37.1,2.5-12.4,0-24.8-.5-37.1-2.5,12.3-2,24.7-2.4,37.1-2.5,12.4,0,24.8.5,37.1,2.5h0Z"/>
    <path class="cls-1" d="M12751.4,685.4c-12.3,2-24.7,2.4-37.1,2.5-12.4,0-24.8-.5-37.1-2.5,12.3-2,24.7-2.4,37.1-2.5,12.4,0,24.8.5,37.1,2.5h0Z"/>
    <path class="cls-1" d="M13381.2,481.5c12.3-2,24.7-2.4,37.1-2.5,12.4,0,24.8.5,37.1,2.5-12.3,2-24.7,2.4-37.1,2.5-12.4,0-24.8-.5-37.1-2.5h0Z"/>
    <path class="cls-1" d="M13567.8,734c12.3-2,24.7-2.4,37.1-2.5,12.4,0,24.8.5,37.1,2.5-12.3,2-24.7,2.4-37.1,2.5-12.4,0-24.8-.5-37.1-2.5h0Z"/>
    <path class="cls-1" d="M13674.2,231.5c12.3-2,24.7-2.4,37.1-2.5,12.4,0,24.8.5,37.1,2.5-12.3,2-24.7,2.4-37.1,2.5-12.4,0-24.8-.5-37.1-2.5h0Z"/>
    <path class="cls-1" d="M14041.7,816.3c-12.3,2-24.7,2.4-37.1,2.5-12.4,0-24.8-.5-37.1-2.5,12.3-2,24.7-2.4,37.1-2.5,12.4,0,24.8.5,37.1,2.5h0Z"/>
    <path class="cls-1" d="M13840.3,393.4c-12.3,2-24.7,2.4-37.1,2.5-12.4,0-24.8-.5-37.1-2.5,12.3-2,24.7-2.4,37.1-2.5,12.4,0,24.8.5,37.1,2.5h0Z"/>
    <path class="cls-1" d="M14069,507.8c-12.3,2-24.7,2.4-37.1,2.5-12.4,0-24.8-.5-37.1-2.5,12.3-2,24.7-2.4,37.1-2.5,12.4,0,24.8.5,37.1,2.5h0Z"/>
    <path class="cls-1" d="M13653.6,140.9c-12.3,2-24.7,2.4-37.1,2.5-12.4,0-24.8-.5-37.1-2.5,12.3-2,24.7-2.4,37.1-2.5,12.4,0,24.8.5,37.1,2.5h0Z"/>
    <path class="cls-1" d="M14078.3,60.4c-12.3,2-24.7,2.4-37.1,2.5-12.4,0-24.8-.5-37.1-2.5,12.3-2,24.7-2.4,37.1-2.5,12.4,0,24.8.5,37.1,2.5h0Z"/>
    <path class="cls-1" d="M13547.3,643.4c-12.3,2-24.7,2.4-37.1,2.5-12.4,0-24.8-.5-37.1-2.5,12.3-2,24.7-2.4,37.1-2.5,12.4,0,24.8.5,37.1,2.5h0Z"/>
    <path class="cls-1" d="M13716.2,853.1c-12.3,2-24.7,2.4-37.1,2.5-12.4,0-24.8-.5-37.1-2.5,12.3-2,24.7-2.4,37.1-2.5,12.4,0,24.8.5,37.1,2.5h0Z"/>
    <path class="cls-1" d="M13743.5,544.6c-12.3,2-24.7,2.4-37.1,2.5-12.4,0-24.8-.5-37.1-2.5,12.3-2,24.7-2.4,37.1-2.5,12.4,0,24.8.5,37.1,2.5h0Z"/>
    <path class="cls-1" d="M13752.8,97.1c-12.3,2-24.7,2.4-37.1,2.5-12.4,0-24.8-.5-37.1-2.5,12.3-2,24.7-2.4,37.1-2.5,12.4,0,24.8.5,37.1,2.5h0Z"/>
    <path class="cls-1" d="M13851.6,476.3c12.3-2,24.7-2.4,37.1-2.5,12.4,0,24.8.5,37.1,2.5-12.3,2-24.7,2.4-37.1,2.5-12.4,0-24.8-.5-37.1-2.5h0Z"/>
    <path class="cls-1" d="M14038.3,728.8c12.3-2,24.7-2.4,37.1-2.5,12.4,0,24.8.5,37.1,2.5-12.3,2-24.7,2.4-37.1,2.5-12.4,0-24.8-.5-37.1-2.5h0Z"/>
    <path class="cls-1" d="M14144.6,226.3c12.3-2,24.7-2.4,37.1-2.5,12.4,0,24.8.5,37.1,2.5-12.3,2-24.7,2.4-37.1,2.5-12.4,0-24.8-.5-37.1-2.5h0Z"/>
    <path class="cls-1" d="M14512.1,811.1c-12.3,2-24.7,2.4-37.1,2.5-12.4,0-24.8-.5-37.1-2.5,12.3-2,24.7-2.4,37.1-2.5,12.4,0,24.8.5,37.1,2.5h0Z"/>
    <path class="cls-1" d="M14310.8,388.1c-12.3,2-24.7,2.4-37.1,2.5-12.4,0-24.8-.5-37.1-2.5,12.3-2,24.7-2.4,37.1-2.5,12.4,0,24.8.5,37.1,2.5h0Z"/>
    <path class="cls-1" d="M14539.4,502.6c-12.3,2-24.7,2.4-37.1,2.5-12.4,0-24.8-.5-37.1-2.5,12.3-2,24.7-2.4,37.1-2.5,12.4,0,24.8.5,37.1,2.5h0Z"/>
    <path class="cls-1" d="M14124.1,135.7c-12.3,2-24.7,2.4-37.1,2.5-12.4,0-24.8-.5-37.1-2.5,12.3-2,24.7-2.4,37.1-2.5,12.4,0,24.8.5,37.1,2.5h0Z"/>
    <path class="cls-1" d="M14548.8,55.1c-12.3,2-24.7,2.4-37.1,2.5-12.4,0-24.8-.5-37.1-2.5,12.3-2,24.7-2.4,37.1-2.5,12.4,0,24.8.5,37.1,2.5h0Z"/>
    <path class="cls-1" d="M14017.8,638.1c-12.3,2-24.7,2.4-37.1,2.5-12.4,0-24.8-.5-37.1-2.5,12.3-2,24.7-2.4,37.1-2.5,12.4,0,24.8.5,37.1,2.5h0Z"/>
    <path class="cls-1" d="M14605.9,100.6c12.3-2,24.7-2.4,37.1-2.5,12.4,0,24.8.5,37.1,2.5-12.3,2-24.7,2.4-37.1,2.5-12.4,0-24.8-.5-37.1-2.5h0Z"/>
    <path class="cls-1" d="M14807.2,523.5c12.3-2,24.7-2.4,37.1-2.5,12.4,0,24.8.5,37.1,2.5-12.3,2-24.7,2.4-37.1,2.5-12.4,0-24.8-.5-37.1-2.5h0Z"/>
    <path class="cls-1" d="M14578.5,409c12.3-2,24.7-2.4,37.1-2.5,12.4,0,24.8.5,37.1,2.5-12.3,2-24.7,2.4-37.1,2.5-12.4,0-24.8-.5-37.1-2.5h0Z"/>
    <path class="cls-1" d="M14993.9,776c12.3-2,24.7-2.4,37.1-2.5,12.4,0,24.8.5,37.1,2.5-12.3,2-24.7,2.4-37.1,2.5-12.4,0-24.8-.5-37.1-2.5h0Z"/>
    <path class="cls-1" d="M14569.2,856.5c12.3-2,24.7-2.4,37.1-2.5,12.4,0,24.8.5,37.1,2.5-12.3,2-24.7,2.4-37.1,2.5-12.4,0-24.8-.5-37.1-2.5h0Z"/>
    <path class="cls-1" d="M15100.2,273.5c12.3-2,24.7-2.4,37.1-2.5,12.4,0,24.8.5,37.1,2.5-12.3,2-24.7,2.4-37.1,2.5-12.4,0-24.8-.5-37.1-2.5h0Z"/>
    <path class="cls-1" d="M15467.7,858.3c-12.3,2-24.7,2.4-37.1,2.5-12.4,0-24.8-.5-37.1-2.5,12.3-2,24.7-2.4,37.1-2.5,12.4,0,24.8.5,37.1,2.5h0Z"/>
    <path class="cls-1" d="M15266.4,435.4c-12.3,2-24.7,2.4-37.1,2.5-12.4,0-24.8-.5-37.1-2.5,12.3-2,24.7-2.4,37.1-2.5,12.4,0,24.8.5,37.1,2.5h0Z"/>
    <path class="cls-1" d="M15495,549.8c-12.3,2-24.7,2.4-37.1,2.5-12.4,0-24.8-.5-37.1-2.5,12.3-2,24.7-2.4,37.1-2.5,12.4,0,24.8.5,37.1,2.5h0Z"/>
    <path class="cls-1" d="M15079.7,182.9c-12.3,2-24.7,2.4-37.1,2.5-12.4,0-24.8-.5-37.1-2.5,12.3-2,24.7-2.4,37.1-2.5,12.4,0,24.8.5,37.1,2.5h0Z"/>
    <path class="cls-1" d="M15504.4,102.4c-12.3,2-24.7,2.4-37.1,2.5-12.4,0-24.8-.5-37.1-2.5,12.3-2,24.7-2.4,37.1-2.5,12.4,0,24.8.5,37.1,2.5h0Z"/>
    <path class="cls-1" d="M14973.4,685.4c-12.3,2-24.7,2.4-37.1,2.5-12.4,0-24.8-.5-37.1-2.5,12.3-2,24.7-2.4,37.1-2.5,12.4,0,24.8.5,37.1,2.5h0Z"/>
    <path class="cls-1" d="M15603.2,481.5c12.3-2,24.7-2.4,37.1-2.5,12.4,0,24.8.5,37.1,2.5-12.3,2-24.7,2.4-37.1,2.5-12.4,0-24.8-.5-37.1-2.5h0Z"/>
    <path class="cls-1" d="M15789.8,734c12.3-2,24.7-2.4,37.1-2.5,12.4,0,24.8.5,37.1,2.5-12.3,2-24.7,2.4-37.1,2.5-12.4,0-24.8-.5-37.1-2.5h0Z"/>
    <path class="cls-1" d="M15896.2,231.5c12.3-2,24.7-2.4,37.1-2.5,12.4,0,24.8.5,37.1,2.5-12.3,2-24.7,2.4-37.1,2.5-12.4,0-24.8-.5-37.1-2.5h0Z"/>
    <path class="cls-1" d="M16263.7,816.3c-12.3,2-24.7,2.4-37.1,2.5-12.4,0-24.8-.5-37.1-2.5,12.3-2,24.7-2.4,37.1-2.5,12.4,0,24.8.5,37.1,2.5h0Z"/>
    <path class="cls-1" d="M16062.3,393.4c-12.3,2-24.7,2.4-37.1,2.5-12.4,0-24.8-.5-37.1-2.5,12.3-2,24.7-2.4,37.1-2.5,12.4,0,24.8.5,37.1,2.5h0Z"/>
    <path class="cls-1" d="M16291,507.8c-12.3,2-24.7,2.4-37.1,2.5-12.4,0-24.8-.5-37.1-2.5,12.3-2,24.7-2.4,37.1-2.5,12.4,0,24.8.5,37.1,2.5h0Z"/>
    <path class="cls-1" d="M15875.6,140.9c-12.3,2-24.7,2.4-37.1,2.5-12.4,0-24.8-.5-37.1-2.5,12.3-2,24.7-2.4,37.1-2.5,12.4,0,24.8.5,37.1,2.5h0Z"/>
    <path class="cls-1" d="M16300.3,60.4c-12.3,2-24.7,2.4-37.1,2.5-12.4,0-24.8-.5-37.1-2.5,12.3-2,24.7-2.4,37.1-2.5,12.4,0,24.8.5,37.1,2.5h0Z"/>
    <path class="cls-1" d="M15769.3,643.4c-12.3,2-24.7,2.4-37.1,2.5-12.4,0-24.8-.5-37.1-2.5,12.3-2,24.7-2.4,37.1-2.5,12.4,0,24.8.5,37.1,2.5h0Z"/>
  </g>
</svg>