<?xml version="1.0" encoding="UTF-8"?>
<svg id="Capa_1" data-name="Capa 1" xmlns="http://www.w3.org/2000/svg" version="1.1" viewBox="0 0 1920 896">
  <defs>
    <style>
      .cls-1 {
        fill: #d3d3d3;
      }

      .cls-1, .cls-2, .cls-3, .cls-4 {
        stroke-width: 0px;
      }

      .cls-2 {
        fill: #909090;
      }

      .cls-3 {
        fill: #a6a6a6;
      }

      .cls-4 {
        fill: #bcbcbc;
      }
    </style>
  </defs>
  <polygon class="cls-3" points="988 0 1090.5 54 1291.5 27 1376.5 36 1546.5 14 1686.5 146 1919.5 212.4 1921.5 0 988 0"/>
  <polygon class="cls-3" points="-.5 245.9 143.5 232 208.5 130 367.5 99 475 0 -.5 0 -.5 245.9"/>
  <polygon class="cls-2" points="-.5 314 112.5 182.9 201.5 183 297.5 77 475 0 -.5 0 -.5 314"/>
  <polygon class="cls-2" points="475 0 546.5 29 648.6 14.5 939.5 73 1153.5 13 1229.5 25 1360.3 0 1495.3 36.5 1587.5 84 1663 84 1817.5 187 1921.6 314 1921.5 0 475 0"/>
  <polygon class="cls-1" points="932 896 829.5 842 628.5 869 543.5 860 373.5 882 233.5 750 .5 683.6 -1.5 896 932 896"/>
  <polygon class="cls-1" points="1920.5 650.1 1776.5 664 1711.5 766 1552.5 797 1445 896 1920.5 896 1920.5 650.1"/>
  <polygon class="cls-4" points="1920.5 582 1807.5 713.1 1718.5 713 1622.5 819 1445 896 1920.5 896 1920.5 582"/>
  <polygon class="cls-4" points="1445 896 1373.5 867 1271.4 881.5 980.5 823 766.5 883 690.5 871 559.7 896 424.7 859.5 332.5 812 257 812 102.5 709 -1.6 582 -1.5 896 1445 896"/>
</svg>