<?xml version="1.0" encoding="UTF-8"?>
<svg id="Capa_1" data-name="Capa 1" xmlns="http://www.w3.org/2000/svg" version="1.1" viewBox="0 0 145 353">
  <defs>
    <style>
      .cls-1 {
        fill: #000;
      }

      .cls-1, .cls-2, .cls-3, .cls-4 {
        stroke-width: 0px;
      }

      .cls-2 {
        fill: #006837;
      }

      .cls-3 {
        fill: #8c6239;
      }

      .cls-4 {
        fill: #fff;
      }
    </style>
  </defs>
  <g>
    <line class="cls-4" x1="68.4" y1="315.3" x2="68.4" y2="150.5"/>
    <rect class="cls-3" x="67.1" y="150.5" width="2.6" height="164.8"/>
  </g>
  <g>
    <path class="cls-1" d="M104.4,329.5c-4-1.8-7.6-4.3-10.8-7.2-.5-.4-.8-.4-1.4,0-4.3,2.8-9.1,4.7-14.1,5.9-.3,0-.7,0-1.1.1-.2-.2-.5-.1-.7-.1.2,0,.5,0,.7.1-.8.1-1,.4-.7,1.3.4,1.1.7,2.4.7,3.6-.1.1,0,.3,0,.5,0,0-.1.4.1,0,.1.5.3.8.8,1,1.9,1.2,3.7,2.5,5.3,4.1.3.3.6.5.7.9-.2.2-.5.2-.8.1-3.3-.4-6.1-1.6-8.3-4.1-.4-.4-.6-.9-.8-1.5-.3-1.5-.8-3-1.4-4.5-.2-.5-.5-.8-1.1-.7-2.7.3-5.4.3-8.1.2-.5,0-.7.1-.9.5-.3.6-.7,1.2-1,1.9-.1,0-.3,0-.4-.1-.4-.5-.9-.9-.7-1.7,0-.3-.4-.3-.5-.4-.4-.3-1-.2-1.3-.6-.6,0-1.2-.2-1.7-.5-.8-.5-1.7-.7-2.4.3-.3.4-.7.6-1,.9-.5-.2-.5-.6-.2-.9.3-.4.2-.7.2-1.1,0-.7-.5-.7-.8-.9-.4-.3-.8,0-1.1.2-.7.2-1.4.7-2.1.8-1,.5-1.9,1.1-2.5,2.2-1.9,3.1-4.8,4.8-8.4,5.4,1.3-.9,2.7-1.8,3.8-3-.1-.3-.3-.2-.5-.2-2.2.3-3.8-.6-4.9-2.4-1.8-2.8-2.7-5.8-2.8-9.1,0-.9.2-1.7.7-2.5,0-.7-.6-.6-1-.6-.2,0-.3,0-.5,0-.2,0-.4,0-.6-.2,0,0,0-.2,0-.3h0s0,0,0,0c.4-.2.9,0,1.4-.2h.7c.4-.2.8,0,1.2-.2.1,0,.3-.1.4-.2.6-.5,1.1-.9,1.5.2-.3-.8,0-1.3.8-1.4.4,0,.8.1,1.1,0,.7-.2,1.4-.3,2.2-.2.9.2,1.9.2,2.8,0,1.6.3,2.9,0,4-1.3.4-.5,1.1-.8,1.8-.8.3.2.6,0,.7,0,0,0-.3.1-.5-.1,1.4-.5,2.6,0,3.8.7.3.2.6.4,1.1.2,5.2-2.4,10.7-2.7,16.3-2.6,2,0,4,.2,6,.5.6,0,1,0,1.5-.4.8-.5,1.7-1,2.5-1.4,1-.5,1.9-.3,2.9,0,.3,0,.6,0,.7.4l2.1,1.3c.5.3,1.1.5,1.4,1.1.5.7.9.7,1.7.3,1.6-1,3.3-1.9,5-2.7,1.5-.6,2.9-.6,4.3.2,2,1.2,3.8,2.6,5.4,4.3.7,1.1,1.9,1.8,2.4,3.1,0,0,.1-.3.3-.3.4,0,.5.3.7.5,1.6,1.8,3.1,3.5,4.7,5.3.2.3.5.4.9.5,1.2.3,2.5.7,3.7,1.1-.1.6-.6.2-.8.3-.3.2-.4-.1-.6-.2-.4-.2-.8,0-1.2,0,0,.4.3.6.3.9,2,2.4,3.9,4.7,5.9,7.1,1.9,2.1,4.2,3.6,6.8,4.8.4.2.9.3,1.3.8-1,.5-1.9.2-2.8,0-2.8-.7-5.3-2.1-7.7-3.7-.4-.2-.8-.5-1.2-.7-1-.3-1.8-.9-2.4-1.8l-6.7-6c-.7-.3-1.1-.9-1.5-1.4-.2,0-.2-.4-.6-.3-.6-.1-.8-.5-.9-1-.2-.2-.4-.4-.7-.7-.4-.2-.9-.1-1.3-.4h0c-.3-.3-.8,0-1.1-.2-1.2-.2-2.4-.6-3.6-.7-.3.1-.7.1-1.2,0,.4.4.6.7.7,1.1,2.7,3.3,5.6,6.5,9.9,7.9-1.1.4-2.2,0-3.2-.2-.4-.1-.8-.2-1.1-.4Z"/>
    <path class="cls-1" d="M41.2,339.3c3.9-2.3,6.3-5.9,8.5-9.8,0-.2.2-.3.4-.4.6,0,.7.9,1.5.8.1,0,.1.3.1.5,0,.3-.2.7-.1,1-.5.9-1.1,1.8-1.6,2.6-2,3-4.9,4.8-8.4,5.6-.3,0-.3,0-.3-.3Z"/>
    <path class="cls-1" d="M39.9,314.9c-.2.3-.5.2-.8.2-1,0-1.3.5-.9,1.7-.6-.2-.8-1.5-1.8-.6.4-.5,0-.4-.3-.4-1.1-.1-2.1-.1-3.2-.4,0,0,.1-.1.3-.1-.2-.1-.4,0-.6,0-.8,0-1.5,0-2.3-.2-.4,0-.8,0-1.1-.2h0c-.3-.2-.8,0-1.1-.2-2.3-.6-4.6-1.1-6.9-1.9-.3-.1-.8,0-.8-.6,0-.1.2-.2.3-.2,1.5,0,2.9.7,4.3,1,4.9,1.1,9.8,1.7,14.8,2Z"/>
    <path class="cls-1" d="M59.9,329.2c.4.2,1.2.2.5,1.1,0,.1.5.8.8,1.1,0,.5-.4.9-.8.9-.7,0-.3.4-.4.6-2.2,1.4-4.7,2.2-7.3,2.8,1.6-1.2,3.4-2.1,4.9-3.4.3-.6.9-.8,1.5-1.1,0-.3,0-.6.3-.8,0-.4,0-1,.6-1.2Z"/>
    <path class="cls-1" d="M32.6,316.8v.2c0,0,0,.3,0,.3.3,0,.4-.1.5-.3.1,0,.3,0,.4,0,.3.2.8.1,1.1.5-.4.4-.9,0-1.3.3-.1,0-.2,0-.3,0-.5.2-1,0-1.4.2-2.3.3-4.7.6-7,.9-.4.2-.8,0-1.1.2h-.3c-.7,0-1.5.4-2.1-.4,2.6-.6,5.1-1.4,7.8-1.5.5-.2,1,.3,1.4-.2.1,0,.2,0,.3,0,.2,0,.5-.1.7,0,0,.1,0,.2,0,.3.1,0,0,0,0,0,.1-.3.4-.2.6-.4.1,0,.3,0,.4,0Z"/>
    <path class="cls-1" d="M51.5,331.4c-.5-.4-.3-.9.2-1.5-1.2.6-1.2-.4-1.7-.7.2-1.3,1.3-1.8,2.2-2.6.1-.1.3-.2.4-.4.4.2.7.5,1.2.1-.2.4-.8.7,0,1.2.4.3,0,.7-.2.9-.4.3-.5.6-.2,1-.6.7-1.2,1.3-1.8,2Z"/>
    <path class="cls-1" d="M108.1,317c-.3.3,0,.7-.2,1.2-.7-1.4-1.5-2.6-2.6-3.5-.2-.2-.3-.3,0-.5.9.5,1.3,1.6,2.3,1.9.1,0,.2.2.3.4,0,.1.2.3.1.5Z"/>
    <path class="cls-1" d="M21.2,318.7c.7.3,1.3.4,2.1.4-.8.3-1.7.4-2.6.4-.5,0-1,.3-1.2-.4.6,0,1.1-.5,1.7-.4Z"/>
    <path class="cls-1" d="M19.5,319.2c.3.5.7.4,1.2.4-1.2.2-2.3.5-3.5.7,0-.1,0-.2,0-.3.8-.4,1.6-.6,2.4-.8Z"/>
    <path class="cls-1" d="M20.4,312.1c-.8.2-1.3-.5-2-.7,0-.3,0-.5.5-.4.7.1,1.3.4,1.8.8,0,.1-.2.2-.2.3Z"/>
    <path class="cls-1" d="M18.9,311c-.2,0-.4.2-.5.4-.7-.2-1.2-.6-1.8-1,0-.1.1-.2.3-.2,0,0,.1,0,.2,0,.6.3,1.2.6,1.7.9Z"/>
    <path class="cls-1" d="M60,332.9c-.4-.7-.3-.6.4-.7.4,0,.6-.4.8-.8,0,0,.2.2.2.3-.3.6-.9,1-1.5,1.3Z"/>
    <path class="cls-1" d="M117.1,324.7c.2-.3.6,0,.8-.3.7.1,1.4.2,2.2.7-1.2.1-2.1-.4-3.1-.4Z"/>
    <path class="cls-1" d="M33.5,317.8c.3-.4.7,0,1.1-.3-.3-.3-.7-.2-.9-.6.5.2,1.5-.3,1,.9-.4,0-.8,0-1.2,0Z"/>
    <path class="cls-1" d="M44.9,314.6c-.9.3-1.9.4-2.8,0,.9-.1,1.9-.1,2.8,0Z"/>
    <path class="cls-1" d="M30.5,317c0,.2-.4.3-.4.6,0,.3-.2.3-.3.2-.4,0,0-.2,0-.4,0-.4-.4-.2-.7-.3.4-.2.9-.2,1.4-.2Z"/>
    <path class="cls-1" d="M16.9,310.1c0,0-.2.1-.3.2-.4-.1-.7-.3-.8-.7.4,0,.8.1,1.1.5Z"/>
    <path class="cls-1" d="M112.4,316.2c-.7.1-1.2.2-1.9,0,.6-.2,1.2-.1,1.9,0Z"/>
    <path class="cls-1" d="M31.8,318c0-.1-.2-.4.1-.3.4.1.9.1,1.3.2-.5.2-.9.2-1.4.2Z"/>
    <path class="cls-1" d="M108.5,316.4c-.3,0-.6-.2-.7.2-.2-.1-.1-.3-.1-.4.4-.2.8,0,1.1,0,.1,0,.1.1,0,.2,0,0-.2,0-.3,0Z"/>
    <path class="cls-1" d="M121,325.2c.4,0,.7.2,1.1.3,0,.2,0,.3-.2.2-.3,0-.6,0-.8-.2,0,0,0,0,0-.1,0,0,0,0,0,0Z"/>
    <path class="cls-1" d="M83.1,339.8c.3,0,.5,0,.8-.1,0-.2.2-.1.3,0,.1.1.1.3,0,.3-.3,0-.7,0-1-.2Z"/>
    <path class="cls-1" d="M41.2,339.3c0,0,.2.2.3.3-.3.2-.7.3-1.1.2.2-.3.5-.4.8-.5Z"/>
    <path class="cls-1" d="M121,325.2c0,0,0,.1,0,.2-.3,0-.6,0-.9-.3.3-.3.6,0,.9,0Z"/>
    <path class="cls-1" d="M32.6,315.3c.3-.4.7-.4,1.1,0-.3,0-.5,0-.8,0-.1,0-.2,0-.4,0Z"/>
    <path class="cls-1" d="M15.9,320.3c0,0,.1,0,.2,0,.2,0,.6-.4.6,0,0,.3-.4.1-.6.2-.2,0-.3,0-.2-.2Z"/>
    <path class="cls-1" d="M32.2,316.8c-.2.1-.4.3-.6.4h0c-.2-.3-.5-.2-.8-.2.4-.2.9-.2,1.4-.2Z"/>
    <path class="cls-1" d="M50.8,312.4c.3,0,.6,0,1.1,0-.6.2-1,.3-1.3,0,0,0,0,0,.1,0Z"/>
    <path class="cls-1" d="M34.1,316.6c-.4.4-.9.2-1.4.2.4-.2.9-.2,1.4-.2Z"/>
    <path class="cls-1" d="M124.4,326c0,0,0,.1,0,.2-.3,0-.6,0-.9-.2,0,0,0,0,0-.1,0,0,0,0,0,0l.9.2Z"/>
    <path class="cls-1" d="M123.6,325.8c0,0,0,.1,0,.2-.3,0-.6,0-.9-.2,0,0,0,0,0-.1,0,0,0,0,0,0,.3,0,.6.2.9.2Z"/>
    <path class="cls-1" d="M36.1,316.4c-.4.4-.8.2-1.2.2.4-.2.8-.2,1.2-.2Z"/>
    <path class="cls-1" d="M122.7,325.6c0,0,0,.1,0,.2-.3,0-.6,0-.9-.2,0,0,.2-.1.2-.2.2,0,.4.1.7.2Z"/>
    <path class="cls-1" d="M77.1,333.7c0,0,0,.1,0,.2,0,.1-.2,0-.2,0,0-.3,0-.5.2-.7,0,.2,0,.4,0,.6Z"/>
    <path class="cls-1" d="M23.6,319.1c.3-.3.7-.2,1.1-.2-.4.2-.7.2-1.1.2Z"/>
    <path class="cls-1" d="M15.9,320.3c0,0,.1.1.2.2-.2.2-.5.2-.8.1.1-.2.3-.3.6-.3Z"/>
    <path class="cls-1" d="M20.4,312.1c0-.1.2-.2.2-.3,0,0,.1,0,.1,0,0,0-.2.2-.3.2,0,0,0,0-.1,0Z"/>
    <path class="cls-1" d="M33.3,317c.2.3.1.5-.2.6-.3,0-.6.1-.8-.1-.3-.4.4-.2.4-.5h.6Z"/>
    <path class="cls-1" d="M52.4,326.7c-.3-.3-.7,0-1.1-.2.3-.5.8-.3,1.3-.3,0,.2,0,.3-.2.4Z"/>
    <path class="cls-1" d="M77.2,328.2c-.3,0-.6,0-1,0,.4-.2.7-.2,1,0,0,0,0,0,0,0Z"/>
    <path class="cls-1" d="M26.3,318.4c-.3.1-.7.2-.8,0-.1-.2.2-.3.4-.2,0,0,.2.1.4.2Z"/>
    <path class="cls-1" d="M31.5,317.2c-.2.2-.4.3-.7.4.2-.5.5-.4.7-.4,0,0,0,0,0,0Z"/>
    <path class="cls-1" d="M27.9,318.2c-.2.1-.5.2-.7,0,.3-.1.5-.2.7,0Z"/>
  </g>
  <path class="cls-3" d="M64,332.5c-.5,0-1-.5-1-1v-19.9c0-.6.4-1,1-1s1,.5,1,1v19.9c0,.6-.4,1-1,1Z"/>
  <path class="cls-3" d="M78.9,328.6s0,0,0,0c-.5.2-1.1,0-1.2-.5l-5.3-17.1c-.1-.4.2-.9.7-1.1s0,0,0,0c.5-.2,1.1,0,1.2.5l5.3,17.1c.1.4-.2.9-.7,1.1Z"/>
  <path class="cls-3" d="M66.8,330.5c-.5,0-1-.4-1-.9v-18.6c0-.5.4-.9,1-.9s1,.4,1,.9v18.6c0,.5-.4.9-1,.9Z"/>
  <path class="cls-3" d="M70.8,330.5s0,0,0,0c-.5,0-1-.4-1-1l.3-19c0-.5.4-.9,1-.9.5,0,1,.4,1,1l-.3,19c0,.5-.5.9-1,.9Z"/>
  <path class="cls-3" d="M70.9,329.5c-.5,0-.9-.3-1-.8l-4.1-18.1c-.1-.5.2-1,.8-1.1.5-.1,1.1.2,1.2.7l4.1,18.1c.1.5-.2,1-.8,1.1,0,0-.1,0-.2,0Z"/>
  <path class="cls-3" d="M63.3,330.8c-2.3,1.5-5.1,3.5-5.1,6.6s.2,1.5.8,1.9,1.3.6,2,.5c1.4-.3,2.1-1.6,2.5-2.9s.9-3.4,1.2-5.1-.1-.9-.6-1-.9.1-1,.6c-.4,1.5-.6,3-.7,4.6s-.3,3,.9,3.9,1.2.7,1.9.5,1.2-.7,1.4-1.4.2-1.4,0-2.1-.2-1.6-.4-2.4c-.2-1.3-.5-2.8-1.6-3.7s-.8-.4-1.2,0-.4.9,0,1.2c.7.6.9,1.3,1.1,2.2s.2,1.1.3,1.6.2,1.1.2,1.7,0,.8-.2,1.1,0,0-.1,0c0,0-.3,0-.3-.1-.3-.2-.4-.6-.4-1s0-1.1,0-1.7c.1-1.4.3-2.7.6-4.1l-1.6-.5c-.3,1.3-.5,2.5-.9,3.8s-.3,1.1-.5,1.7-.4.9-.7,1.1-.2.1-.4.2-.3,0-.4,0,0,0-.1,0,0-.1-.1-.1c0-.1,0-.3,0-.5,0-1,.5-1.9,1.2-2.7s2-1.8,3.1-2.5.5-.8.3-1.2-.8-.6-1.2-.3h0Z"/>
  <g>
    <path class="cls-2" d="M108.3,73.8l-38,86.4c-.7,1.7-3.3,1.7-4,0,0,0-38-86.4-38-86.4-9.7-22.1.3-47.8,22.4-57.5C87.3.3,124.1,37.8,108.3,73.8h0Z"/>
    <polygon class="cls-2" points="63.4 167.3 73.1 167.3 68.3 156.5 63.4 167.3"/>
  </g>
  <path class="cls-4" d="M39.5,324.3c2.9,0,2.9-4.5,0-4.5s-2.9,4.5,0,4.5h0Z"/>
</svg>