<?xml version="1.0" encoding="UTF-8"?>
<svg id="Capa_1" data-name="Capa 1" xmlns="http://www.w3.org/2000/svg" version="1.1" viewBox="0 0 1170 430">
  <defs>
    <style>
      .cls-1 {
        fill: #76531a;
      }

      .cls-1, .cls-2, .cls-3, .cls-4, .cls-5, .cls-6, .cls-7, .cls-8, .cls-9, .cls-10, .cls-11 {
        stroke-width: 0px;
      }

      .cls-2 {
        fill: #615233;
      }

      .cls-3 {
        fill: #e2ff45;
      }

      .cls-4 {
        fill: #f2f2f2;
      }

      .cls-5 {
        fill: #796743;
      }

      .cls-6 {
        fill: #858585;
      }

      .cls-12 {
        opacity: .3;
      }

      .cls-7 {
        fill: #666;
      }

      .cls-8 {
        fill: #ef7c26;
      }

      .cls-9 {
        fill: #999;
      }

      .cls-10 {
        fill: #3d3422;
      }

      .cls-11 {
        fill: #1e1a11;
      }
    </style>
  </defs>
  <g>
    <path class="cls-5" d="M273,330.5c-18.3-.5-33-15.6-33-34V117.5h33v213Z"/>
    <path class="cls-10" d="M272,118.5v210.9c-17.3-1-31-15.4-31-32.9V118.5h31M274,116.5h-35v180c0,19.3,15.7,35,35,35h0V116.5h0Z"/>
  </g>
  <g>
    <path class="cls-5" d="M115,337.5v-179c0-18.4,14.7-33.5,33-34v213h-33Z"/>
    <path class="cls-10" d="M147,125.6v210.9h-31v-178c0-17.5,13.7-31.9,31-32.9M149,123.5h0c-19.3,0-35,15.7-35,35v180h35V123.5h0Z"/>
  </g>
  <g>
    <path class="cls-5" d="M187,76.5h33v179c0,18.4-14.7,33.5-33,34V76.5Z"/>
    <path class="cls-10" d="M219,77.5v178c0,17.5-13.7,31.9-31,32.9V77.5h31M221,75.5h-35v215h0c19.3,0,35-15.7,35-35V75.5h0Z"/>
  </g>
  <g>
    <path class="cls-2" d="M58.5,218.5c-9.1,0-16.5-7.4-16.5-16.5s7.4-16.5,16.5-16.5h196.5v33H58.5Z"/>
    <path class="cls-11" d="M254,186.5v31H58.5c-8.5,0-15.5-7-15.5-15.5s7-15.5,15.5-15.5h195.5M256,184.5H58.5c-9.7,0-17.5,7.8-17.5,17.5s7.8,17.5,17.5,17.5h197.5v-35h0Z"/>
  </g>
  <g>
    <path class="cls-5" d="M312,330.5V117.5c18.3.5,33,15.6,33,34v179h-33Z"/>
    <path class="cls-10" d="M313,118.6c17.3,1,31,15.4,31,32.9v178h-31V118.6M311,116.5h0v215h35v-180c0-19.3-15.7-35-35-35h0Z"/>
  </g>
  <g>
    <path class="cls-2" d="M240,150.5v-33h71c18.4,0,33.5,14.7,34,33h-105Z"/>
    <path class="cls-11" d="M311,118.5c17.5,0,31.9,13.7,32.9,31h-102.9v-31h70M311,116.5h-72v35h107c0-19.3-15.7-35-35-35h0Z"/>
  </g>
  <g>
    <path class="cls-2" d="M274,330.5c-18.4,0-33.5-14.7-34-33h105v33h-71Z"/>
    <path class="cls-11" d="M344,298.5v31h-70c-17.5,0-31.9-13.7-32.9-31h102.9M346,296.5h-107c0,19.3,15.7,35,35,35h72v-35h0Z"/>
  </g>
  <g>
    <path class="cls-5" d="M591,323.5c-18.3-.5-33-15.6-33-34V110.5h33v213Z"/>
    <path class="cls-10" d="M590,111.5v210.9c-17.3-1-31-15.4-31-32.9V111.5h31M592,109.5h-35v180c0,19.3,15.7,35,35,35h0V109.5h0Z"/>
  </g>
  <g>
    <path class="cls-5" d="M630,323.5V110.5h16.5c9.1,0,16.5,7.4,16.5,16.5v196.5h-33Z"/>
    <path class="cls-10" d="M646.5,111.5c8.5,0,15.5,7,15.5,15.5v195.5h-31V111.5h15.5M646.5,109.5h-17.5v215h35V127c0-9.7-7.8-17.5-17.5-17.5h0Z"/>
  </g>
  <g>
    <path class="cls-2" d="M592,323.5c-18.4,0-33.5-14.7-34-33h105v33h-71Z"/>
    <path class="cls-11" d="M662,291.5v31h-70c-17.5,0-31.9-13.7-32.9-31h102.9M664,289.5h-107c0,19.3,15.7,35,35,35h72v-35h0Z"/>
  </g>
  <g>
    <rect class="cls-5" x="690" y="95.5" width="33" height="213"/>
    <path class="cls-10" d="M722,96.5v211h-31V96.5h31M724,94.5h-35v215h35V94.5h0Z"/>
  </g>
  <g>
    <path class="cls-2" d="M672,110.5v-33h71c18.4,0,33.5,14.7,34,33h-105Z"/>
    <path class="cls-11" d="M743,78.5c17.5,0,31.9,13.7,32.9,31h-102.9v-31h70M743,76.5h-72v35h107c0-19.3-15.7-35-35-35h0Z"/>
  </g>
  <g>
    <path class="cls-2" d="M690,313.5v-33h105c-.5,18.3-15.6,33-34,33h-71Z"/>
    <path class="cls-11" d="M793.9,281.5c-1,17.3-15.4,31-32.9,31h-70v-31h102.9M796,279.5h-107v35h72c19.3,0,35-15.7,35-35h0Z"/>
  </g>
  <g>
    <path class="cls-2" d="M670.5,213.5c-9.1,0-16.5-7.4-16.5-16.5s7.4-16.5,16.5-16.5h88.5v33h-88.5Z"/>
    <path class="cls-11" d="M758,181.5v31h-87.5c-8.5,0-15.5-7-15.5-15.5s7-15.5,15.5-15.5h87.5M760,179.5h-89.5c-9.7,0-17.5,7.8-17.5,17.5s7.8,17.5,17.5,17.5h89.5v-35h0Z"/>
  </g>
  <g>
    <path class="cls-5" d="M837,337.5c-18.3-.5-33-15.6-33-34V124.5h33v213Z"/>
    <path class="cls-10" d="M836,125.5v210.9c-17.3-1-31-15.4-31-32.9V125.5h31M838,123.5h-35v180c0,19.3,15.7,35,35,35V123.5h0Z"/>
  </g>
  <g>
    <path class="cls-2" d="M804,157.5v-33h71c18.4,0,33.5,14.7,34,33h-105Z"/>
    <path class="cls-11" d="M875,125.5c17.5,0,31.9,13.7,32.9,31h-102.9v-31h70M875,123.5h-72v35h107c0-19.3-15.7-35-35-35h0Z"/>
  </g>
  <g>
    <polygon class="cls-2" points="839 231.2 871.1 159.5 908.4 159.5 839 297.2 839 231.2"/>
    <path class="cls-11" d="M906.8,160.5l-66.8,132.5v-61.6l31.8-70.9h35M910,158.5h-39.5l-32.5,72.5v70.4l72-142.9h0Z"/>
  </g>
  <g>
    <path class="cls-5" d="M857.6,264.7l18.7-37,34.4,59.7c4.3,7.5,4.3,16.6,0,24.1-4.3,7.4-11.8,11.8-20.3,12l-32.7-58.8Z"/>
    <path class="cls-10" d="M876.3,229.8l33.5,58.1c4.2,7.2,4.2,15.9,0,23.1-4,6.9-11,11.1-18.8,11.5l-32.2-57.8,17.6-34.9M876.2,225.5l-19.7,39.2,33.3,59.8c19.3,0,31.4-20.9,21.8-37.6l-35.3-61.3h0Z"/>
  </g>
  <g>
    <rect class="cls-5" x="852" y="173.5" width="213" height="33" transform="translate(529.7 1068) rotate(-75.2)"/>
    <path class="cls-10" d="M970.5,84l30,7.9-54,204-30-7.9,54-204M969.1,81.6l-55,207.8,33.8,9,55-207.8-33.8-9h0Z"/>
  </g>
  <g>
    <path class="cls-5" d="M970.4,82.9l31.5,8.4,45.9,173.5c4.7,17.8-5.7,36.1-23.2,41.3l-54.1-223.1Z"/>
    <path class="cls-10" d="M971.7,84.3l29.3,7.8,45.7,172.9c4.5,16.9-5.1,34.3-21.5,39.8l-53.5-220.4M969,81.5l54.8,225.8h0c18.7-4.9,29.8-24.1,24.9-42.8l-46-174-33.6-9h0Z"/>
  </g>
  <g>
    <path class="cls-2" d="M914,239.5v-33h196.5c9.1,0,16.5,7.4,16.5,16.5s-7.4,16.5-16.5,16.5h-196.5Z"/>
    <path class="cls-11" d="M1110.5,207.5c8.5,0,15.5,7,15.5,15.5s-7,15.5-15.5,15.5h-195.5v-31h195.5M1110.5,205.5h-197.5v35h197.5c9.7,0,17.5-7.8,17.5-17.5s-7.8-17.5-17.5-17.5h0Z"/>
  </g>
  <circle class="cls-5" cx="131.5" cy="202" r="4.5"/>
  <circle class="cls-5" cx="203.5" cy="202" r="4.5"/>
  <circle class="cls-5" cx="256.5" cy="134" r="4.5"/>
  <circle class="cls-5" cx="328.5" cy="134" r="4.5"/>
  <circle class="cls-5" cx="256.5" cy="315" r="4.5"/>
  <circle class="cls-5" cx="328.5" cy="315" r="4.5"/>
  <circle class="cls-5" cx="574.5" cy="307" r="4.5"/>
  <circle class="cls-5" cx="646.5" cy="308" r="4.5"/>
  <circle class="cls-5" cx="706.5" cy="94" r="4.5"/>
  <circle class="cls-5" cx="706.5" cy="197" r="4.5"/>
  <circle class="cls-5" cx="706.5" cy="297" r="4.5"/>
  <circle class="cls-5" cx="820.5" cy="141" r="4.5"/>
  <circle class="cls-5" cx="856.5" cy="230" r="4.5"/>
  <circle class="cls-5" cx="949.5" cy="223" r="4.5"/>
  <circle class="cls-5" cx="1020.5" cy="223" r="4.5"/>
  <g class="cls-12">
    <rect class="cls-4" x="28" y="37.5" width="1114" height="355" rx="177.5" ry="177.5"/>
  </g>
  <g>
    <g>
      <path class="cls-9" d="M365,303.5V124.5c0-18.4,14.7-33.5,33-34v213h-33Z"/>
      <path class="cls-7" d="M397,91.6v210.9h-31V124.5c0-17.5,13.7-31.9,31-32.9M399,89.5h0c-19.3,0-35,15.7-35,35v180h35V89.5h0Z"/>
    </g>
    <g>
      <path class="cls-6" d="M363,303.5c-18.4,0-33.5-14.7-34-33h213v33h-179Z"/>
      <path class="cls-7" d="M541,271.5v31h-178c-17.5,0-31.9-13.7-32.9-31h210.9M543,269.5h-215c0,19.3,15.7,35,35,35h180v-35h0Z"/>
    </g>
    <g>
      <path class="cls-9" d="M494,269.5v-105c18.3.5,33,15.6,33,34v71h-33Z"/>
      <path class="cls-7" d="M495,165.6c17.3,1,31,15.4,31,32.9v70h-31v-102.9M493,163.5h0v107h35v-72c0-19.3-15.7-35-35-35h0Z"/>
    </g>
    <g>
      <path class="cls-3" d="M398.7,269.5c.6-24.5,4.7-48.7,12.2-71.7,3.4-10.4,7.6-20.8,12.4-30.7-.4,4.1-.5,8.3-.3,12.4.5,13.9,3.9,27.5,10.1,40.4l2.2,4.6-.3-5.1c-1-15.9-.7-32,1-47.8,2.3-21.3,7-42.4,14.1-62.8-2.1,22-.7,43.8,4,64.9,2,9.2,4.7,18.3,8,27.1l.7,1.8,1.1-1.6c4.3-6.3,9.6-16.5,10.2-29.5,0-2,0-4,0-6,5.6,13.6,10,27.8,13.1,42.2,4.3,20.3,6,41,5,61.8h-93.3Z"/>
      <path class="cls-1" d="M448.4,116.8c-1.1,19.3.5,38.5,4.6,57.1,2,9.2,4.8,18.4,8.1,27.3l1.3,3.6,2.2-3.2c4.4-6.4,9.7-16.8,10.3-30,0-.2,0-.4,0-.7,4.7,12,8.3,24.4,11,37,4.2,19.9,5.9,40.2,5,60.6h-91.4c.7-24.1,4.8-47.8,12.2-70.4,2.9-8.8,6.2-17.4,10.1-25.8,0,2.4,0,4.9,0,7.3.5,14,3.9,27.7,10.2,40.8l4.5,9.3-.7-10.3c-1-15.9-.7-31.9,1-47.7,2-18.6,5.8-37,11.5-54.9M452,100.5c-6.9,18.2-13.9,42.2-17,71-1.9,17.9-1.9,34.1-1,48-4.3-8.9-9.4-22.7-10-40-.2-6.7.2-12.8,1-18-5.3,10.3-10.5,22.3-15,36-9.2,28.2-11.9,53.6-12.3,73h95.3c.8-16.4.3-38.2-5-63-4.2-19.6-10.2-36.1-16-49,.7,3.6,1.2,8,1,13-.6,13.7-6.5,23.9-10,29-3-8.1-5.8-17.1-8-27-6.4-28.8-5.5-54.2-3-73h0Z"/>
    </g>
    <g>
      <path class="cls-8" d="M427,268.5c-.8-2-1.8-5.6-1-9.8.9-4.6,3.4-7.8,5.5-9.7,0,1.2,0,2.5.6,3.9,1.4,3.6,5.2,6.1,9.6,6.1h1.5s-.5-1.4-.5-1.4c-1.3-3.3-2.7-8.7-1.7-15,1-6.6,4.2-11.4,6.8-14.4-.3,5.2,0,10.4,1.3,15.5,1.1,4.6,2.8,9.1,5.1,13.3l.5,1,.9-.6c2.1-1.4,3.9-3.2,5.3-5.3,2.4-3.5,3.1-7.2,3.3-10.1,1.7,2.8,3,5.7,3.9,8.9,2.1,7.2,1.6,13.7.7,18.1l-41.8-.4Z"/>
      <path class="cls-1" d="M446.6,231.3c0,4.3.4,8.5,1.4,12.6,1.1,4.7,2.9,9.2,5.2,13.5l1.1,1.9,1.8-1.2c2.2-1.5,4.1-3.4,5.5-5.5,1.7-2.5,2.6-5.1,3.1-7.5,1,1.9,1.7,3.9,2.4,6,1.9,6.6,1.6,12.6.9,16.8l-20-.2-20.3-.2c-.7-2-1.4-5.1-.7-8.6.6-3.2,2.1-5.7,3.6-7.5.1.6.3,1.3.5,1.9,1.6,4,5.7,6.7,10.5,6.8h3c0,0-1.1-2.7-1.1-2.7-1.3-3.2-2.6-8.4-1.6-14.5.8-4.8,2.7-8.6,4.7-11.5M449,225.5c-1.9,1.8-7.5,7.6-9,17-1.1,7.2.7,12.9,1.7,15.5-4,0-7.4-2.3-8.7-5.5-1.1-2.7-.3-5.2,0-6-1.2.8-6.6,4.7-8,12-1,5.2.6,9.4,1.3,11,14.4.1,28.9.3,43.3.4.8-3.7,1.9-10.9-.6-19.4-1.6-5.4-4.1-9.4-6-12,.2,1.9.6,7.6-3,13-1.6,2.4-3.6,4-5,5-1.7-3.2-3.7-7.5-5-13-1.7-7.4-1.5-13.8-1-18h0Z"/>
    </g>
    <g>
      <path class="cls-3" d="M427.4,112.8l4.3-12.8c.5,2.7,1.3,5.3,2.4,7.9.7,1.7,1.6,3.4,2.5,5l-4.6,4.2-4.6-4.3Z"/>
      <path class="cls-1" d="M431.5,103.6c.4,1.6,1,3.1,1.6,4.6.6,1.5,1.4,3,2.2,4.4l-3.3,3.1-3.4-3.3,2.2-6.7.7-2.1M432.1,95.7c-1.9,5.8-3.9,11.6-5.8,17.4l5.7,5.4,5.9-5.4c-1-1.6-2-3.4-2.9-5.6-1.9-4.5-2.6-8.6-2.9-11.8h0Z"/>
    </g>
    <g>
      <path class="cls-3" d="M475.3,89.3c1.1-1.4,2-2.9,2.6-4.5.3-.9.6-1.7.8-2.5l2,6.8-2.9,2.1-2.6-1.9Z"/>
      <path class="cls-1" d="M478.7,85.7l.9,3-1.7,1.3-1.2-.9c.8-1.1,1.4-2.2,1.9-3.4M478,76.5c.2,1.5.4,4.6-1,8-.9,2.3-2.2,4-3.1,5l4,3,4-3c-1.3-4.3-2.6-8.7-3.9-13h0Z"/>
    </g>
  </g>
</svg>