<?xml version="1.0" encoding="UTF-8"?>
<svg id="Capa_1" data-name="Capa 1" xmlns="http://www.w3.org/2000/svg" version="1.1" viewBox="0 0 145.1 45">
  <defs>
    <style>
      .cls-1 {
        stroke-width: 0px;
      }

      .cls-1, .cls-2 {
        fill: #c7b299;
      }

      .cls-2 {
        font-family: Calibri, Calibri;
        font-size: 22.4px;
      }
    </style>
  </defs>
  <text class="cls-2" transform="translate(48.1 30)"><tspan x="0" y="0">Instagram</tspan></text>
  <g>
    <path class="cls-1" d="M39.6,22.7c0,8.1-6.7,14.8-14.9,14.8-8.2,0-14.8-6.7-14.8-14.9,0-8.1,6.7-14.7,14.9-14.7,8.1,0,14.7,6.7,14.7,14.9ZM34.3,22.7s0,0,0,0c0-1.4,0-2.8,0-4.2,0-3.1-2.4-5.4-5.5-5.5-2.7,0-5.3,0-8,0-3.3,0-5.6,2.3-5.6,5.6,0,2.7,0,5.3,0,8,0,3.3,2.3,5.6,5.6,5.7,2.7,0,5.3,0,8,0,3.3,0,5.5-2.4,5.6-5.7,0-1.3,0-2.6,0-4Z"/>
    <path class="cls-1" d="M32.6,22.8c0,1.4,0,2.7,0,4.1,0,2.1-1.4,3.7-3.5,3.7-2.8,0-5.7,0-8.5,0-2.2,0-3.6-1.6-3.6-3.8,0-2.7,0-5.3,0-8,0-2.2,1.4-3.8,3.6-3.9,2.8,0,5.6,0,8.4,0,2.2,0,3.5,1.6,3.6,3.8,0,1.4,0,2.7,0,4.1ZM29.7,22.8c0-2.8-2.2-5.1-4.9-5.1-2.8,0-5,2.2-5,5,0,2.7,2.2,5,4.9,5,2.8,0,5-2.2,5.1-4.9ZM28.6,17.2c0,.2,0,.3,0,.5.4.3.8.9,1.3,1,.7.1,1.3-.4,1.1-1.1,0-.4-.6-1.1-1-1.1-.4,0-.9.5-1.4.7Z"/>
    <path class="cls-1" d="M21.5,22.8c0-1.8,1.4-3.2,3.2-3.2,1.8,0,3.2,1.4,3.2,3.1,0,1.8-1.4,3.3-3.2,3.3-1.8,0-3.2-1.4-3.2-3.2Z"/>
  </g>
</svg>