<?xml version="1.0" encoding="UTF-8"?>
<svg id="Capa_1" data-name="Capa 1" xmlns="http://www.w3.org/2000/svg" version="1.1" viewBox="0 0 278 275">
  <defs>
    <style>
      .cls-1 {
        fill: #c69c6d;
      }

      .cls-1, .cls-2, .cls-3 {
        stroke-width: 0px;
      }

      .cls-2 {
        fill: #fff;
      }

      .cls-3 {
        fill: #211106;
      }
    </style>
  </defs>
  <rect class="cls-3" x=".1" width="275.4" height="275.2"/>
  <path class="cls-2" d="M275.9,12.1c-69.6,0-126.1,56.1-126.1,125.3s56.4,125.3,126.1,125.3"/>
  <g>
    <path class="cls-1" d="M275.5,66.7c-39.3,0-71.2,31.7-71.2,70.8s31.9,70.8,71.2,70.8"/>
    <path class="cls-3" d="M275.5,218c-44.6,0-81-36.1-81-80.6s36.3-80.6,81-80.6v19.5c-33.9,0-61.5,27.4-61.5,61.1s27.6,61.1,61.5,61.1v19.5Z"/>
  </g>
  <g>
    <path class="cls-3" d="M275.5,105.7c-17,0-30.8,13.7-30.8,30.6s13.8,30.6,30.8,30.6"/>
    <path class="cls-3" d="M275.5,178c-23.1,0-41.9-18.7-41.9-41.7s18.8-41.7,41.9-41.7v22.2c-10.8,0-19.7,8.7-19.7,19.5s8.8,19.5,19.7,19.5v22.2Z"/>
  </g>
</svg>