<?xml version="1.0" encoding="UTF-8"?>
<svg id="Capa_1" data-name="Capa 1" xmlns="http://www.w3.org/2000/svg" version="1.1" viewBox="0 0 145.1 45">
  <defs>
    <style>
      .cls-1 {
        stroke-width: 0px;
      }

      .cls-1, .cls-2 {
        fill: #c7b299;
      }

      .cls-2 {
        font-family: Calibri, Calibri;
        font-size: 22.4px;
      }
    </style>
  </defs>
  <text class="cls-2" transform="translate(48.1 30)"><tspan x="0" y="0">WhatsApp</tspan></text>
  <g>
    <path class="cls-1" d="M10,22.7c0-8.2,6.6-14.8,14.7-14.9,8.1,0,14.8,6.6,14.8,14.8,0,8.2-6.5,14.8-14.7,14.9-8.1,0-14.8-6.6-14.8-14.8ZM16.2,31.3c2.6-1.2,5-1.3,7.5-.4.4.2.9,0,1.4,0,5-.2,8.6-4.5,8.1-9.6-.5-4.5-5.2-8.1-9.6-7.3-5.1.9-8.5,5.6-7,10.4.6,2,.4,3.7-.1,5.5,0,.3-.1.6-.3,1.2Z"/>
    <path class="cls-1" d="M18.3,29c.8-1.6.4-2.9-.1-4.3-1.1-3,.2-6.4,2.9-8.1,2.7-1.7,6.3-1.3,8.6.9,2.4,2.3,2.8,5.8,1.1,8.6-1.6,2.7-5,4-8.1,3.1q-2-.6-4.4-.3ZM26.8,23.6c-.9,1.7-1.8,1-2.7.2-.4-.3-.8-.7-1-1.1-.2-.4,0-1,0-1.5,0-.8-.2-1.7-.4-2.5,0-.2-.8-.5-.9-.4-.5.5-1.1,1.1-1.4,1.8-.2.4,0,1,.2,1.5,1.2,2.5,2.9,4.4,5.7,5.1.6.1,1.3,0,1.9-.2.4-.2.8-.8.9-1.3,0-.3-.5-.7-.9-1-.3-.3-.7-.4-1.3-.7Z"/>
  </g>
</svg>