<?xml version="1.0" encoding="UTF-8"?>
<svg id="Capa_1" data-name="Capa 1" xmlns="http://www.w3.org/2000/svg" version="1.1" viewBox="0 0 145.1 45">
  <defs>
    <style>
      .cls-1 {
        stroke-width: 0px;
      }

      .cls-1, .cls-2 {
        fill: #c7b299;
      }

      .cls-2 {
        font-family: Calibri, Calibri;
        font-size: 22.4px;
      }
    </style>
  </defs>
  <path class="cls-1" d="M39.4,21.4v2.2c0,.2,0,.3-.1.5-.8,6-4.1,10.1-9.7,12.2-1.2.4-2.5.6-3.7.8h-2.2c-.1,0-.3,0-.4-.1-6.1-.8-10.3-4.2-12.4-10-.4-1.1-.5-2.3-.8-3.5,0-.7,0-1.5,0-2.2,0-.2,0-.3.1-.5.9-6.2,4.3-10.3,10.2-12.4,1-.4,2.1-.5,3.2-.7.7,0,1.5,0,2.2,0,.1,0,.2,0,.4,0,6.1.7,10.9,4.7,12.6,10.5.3,1,.4,2,.6,3ZM26.4,33.3v-9.8h3.7v-3.9h-3.7c0-1.1,0-2.1,0-3.2,0-.6.5-.9,1-1,.4,0,.9,0,1.3,0,.5,0,1,0,1.5,0v-3.5c-1.3,0-2.5,0-3.8,0-1.9.1-3.3,1.4-3.8,3.2-.2.6-.2,1.3-.2,2,0,.9,0,1.7,0,2.6h-3.3v3.9h3.3v9.8h3.9Z"/>
  <text class="cls-2" transform="translate(48.1 30)"><tspan x="0" y="0">FaceBook</tspan></text>
</svg>