<?xml version="1.0" encoding="UTF-8"?>
<svg id="Capa_1" data-name="Capa 1" xmlns="http://www.w3.org/2000/svg" version="1.1" viewBox="0 0 400 90">
  <defs>
    <style>
      .cls-1, .cls-2, .cls-3 {
        isolation: isolate;
      }

      .cls-4 {
        fill: #aa2636;
      }

      .cls-4, .cls-5, .cls-6, .cls-7 {
        stroke-width: 0px;
      }

      .cls-8 {
        fill: none;
        stroke: #000;
        stroke-dasharray: 0 0 12.1 12.1;
      }

      .cls-8, .cls-9 {
        stroke-miterlimit: 10;
      }

      .cls-2 {
        font-family: BerlinSansFB-Reg, 'Berlin Sans FB';
        font-size: 2.7px;
      }

      .cls-2, .cls-3 {
        fill: #000;
      }

      .cls-3 {
        font-family: Calibri, Calibri;
        font-size: 23.8px;
      }

      .cls-5 {
        fill: #3a3a3a;
      }

      .cls-6 {
        fill: #333;
      }

      .cls-7 {
        fill: #acacac;
      }

      .cls-9 {
        fill: #7f00ff;
        stroke: #3a3a3a;
        stroke-width: 2px;
      }
    </style>
  </defs>
  <rect class="cls-8" x="13.5" y="9" width="373" height="72" rx="11.7" ry="11.7"/>
  <g class="cls-1">
    <g class="cls-1">
      <text class="cls-3" transform="translate(257.8 50.3)"><tspan x="0" y="0">Luz Violeta</tspan></text>
    </g>
  </g>
  <g>
    <path class="cls-7" d="M58.2,29.6c4.3,1.2,8.5,2.5,12.8,3.7.8.2,1.8.2,2.6,0,2.4-.9,4.8-2,7.2-2.8,1-.3,2.2-.4,3.2-.1,3.8,1,7.5,2.2,11.3,3.2,2.1.6,3.3,1.9,3.8,3.9.9,3.5.5,7-.3,10.4-1.1,4.9-2.6,9.6-5.9,13.6-.7.9-1.6,1.8-2.6,2.3-1,.5-2.4.8-3.5.5-4.1-1-8.2-2.2-12.2-3.5-.9-.3-1.8-1.1-2.5-1.9-1.7-2.2-3.1-4.5-4.9-6.6-.9-1.1-2.2-1.5-3.7-.9-.6.3-1.5.2-2.2,0-2.3-.6-4.6-1.3-6.9-2-.5-.2-1.2-.4-1.5-.7-.8-1.5-2.3-1.7-3.7-2.1-2.8-.8-5.6-1.6-8.4-2.4-3.8-1.1-4.9-2.4-4.9-6.4,0-3.6,1-6.9,3.3-9.8,1.8-2.2,3.4-2.7,6.2-1.9,4.2,1.2,8.3,2.4,12.5,3.6h0ZM95.1,49.5c-.1,0-.3-.1-.4-.2.9-3.1,1.5-6.2.9-9.5-.2-1.3-.6-2.6-2-3-1.4-.4-2.6.4-3.3,1.4-1.4,2-2.7,4-3.7,6.3-1.6,3.8-2.4,7.8-1.5,11.9.2,1,1,2.2,1.9,2.7,1.2.7,2.3-.4,3.2-1.2.2-.2.4-.4.5-.6,1.5-2.6,2.9-5.2,4.4-7.8h0Z"/>
    <path class="cls-9" d="M95.1,49.5c-1.4,2.6-2.9,5.2-4.4,7.8-.1.2-.3.4-.5.6-.9.8-2,1.9-3.2,1.2-.9-.5-1.6-1.7-1.9-2.7-.9-4.1,0-8.1,1.5-11.9.9-2.2,2.3-4.3,3.7-6.3.7-1,1.9-1.9,3.3-1.4,1.4.4,1.7,1.8,2,3,.6,3.2,0,6.4-.9,9.5.1,0,.3.1.4.2h0Z"/>
    <g>
      <path class="cls-6" d="M43.3,27.1l.2-.9h.1s-.2,1-.2,1h-.1ZM43.7,27.2v-.8c0,0-.1,0-.1,0v-.2c0,0,.1,0,.1,0v.8h.1v.2c0,0-.1,0-.1,0h0ZM43.8,27.2l.2-.9h.1s-.2,1-.2,1h-.1Z"/>
      <path class="cls-6" d="M44.4,27.4c0,0-.2,0-.2-.2s0-.2,0-.3c0-.1,0-.2.2-.2,0,0,.2,0,.2,0,0,0,.2,0,.2.2s0,.2,0,.3c0,.1,0,.2-.2.2,0,0-.2,0-.2,0ZM44.4,27.3s0,0,.1,0,0,0,0-.2c0,0,0-.1,0-.2s0,0-.1,0,0,0-.1,0,0,0,0,.2c0,0,0,.1,0,.2s0,0,.1,0Z"/>
      <path class="cls-6" d="M45.8,27.8c0,0-.1,0-.2,0s0,0,0-.2c0,0,0-.1.1-.1,0,0,.1,0,.2,0,0,0,0,0,.1,0,0,0,0,0,0,0h0c0,0,0,0,0,0,0,0,0,0,0,0-.1,0-.2,0-.2,0,0,0,0,0,0,0s0,0,0,0c0,0,0,0,.1,0,0,0,0,0,0,0,0,0,0,0,0,0h0c0,0,0,.1,0,.1h0s0,0,0,0c0,0,0,0,0,0,0,0,0,0,0,0s0,0-.1,0h0ZM46.1,27.9v-.2s0,0,0,0v-.2c0,0,0,0,0-.1,0,0,0,0-.1,0h-.2s0-.2,0-.2h.1c.1,0,.2.1.2.2,0,0,0,.1,0,.2v.3c0,0,0,0,0,0h0c0,.1-.2,0-.2,0h0Z"/>
      <path class="cls-6" d="M46.8,28.1c-.1,0-.2,0-.2-.2,0,0,0-.2,0-.3s0-.2.2-.2.2,0,.3,0c0,0,.1,0,.2,0s0,0,0,.1h-.1s0,0,0,0,0,0,0,0c0,0-.1,0-.2,0,0,0,0,0,0,.2,0,0,0,.1,0,.2,0,0,0,0,.2.1,0,0,0,0,0,0s0,0,0,0h0c0,.1,0,.1-.1.1,0,0,0,0-.1,0h0Z"/>
      <path class="cls-6" d="M47.5,28.3c-.1,0-.2,0-.2-.2,0,0,0-.2,0-.3s0-.2.2-.2c0,0,.2,0,.2,0,0,0,.2,0,.2.1s0,.2,0,.3c0,0,0,0,0,0h-.5c0-.1,0-.2,0-.2h.4s0,0,0,0,0,0-.1,0c0,0-.1,0-.2,0,0,0,0,0,0,.2,0,0,0,.1,0,.2,0,0,0,0,.2.1,0,0,0,0,0,0h0,0c0,.1,0,.1-.1.1,0,0,0,0,0,0Z"/>
      <path class="cls-6" d="M47.9,28.3h0c0-.1.5,0,.5,0h0c0,.1-.5,0-.5,0ZM48.1,28.4l.2-.7h.1s0,.2,0,.2v.5c-.1,0-.3,0-.3,0h0ZM48.1,27.8h0c0-.1.2,0,.2,0h0c0,.1-.2,0-.2,0h0ZM48.3,28.1v-.2h0c0-.1.1-.2.2-.1,0,0,.1,0,.1.1,0,0,0,.1,0,.2h-.1c0,0,0-.1,0-.2,0,0,0,0,0,0,0,0-.1,0-.2,0s0,.1,0,.2h0Z"/>
      <path class="cls-6" d="M49.1,28.7c-.1,0-.2,0-.2-.2,0,0,0-.2,0-.3,0-.1,0-.2.2-.2,0,0,.2,0,.3,0,0,0,.1,0,.2,0,0,0,0,0,0,.1h-.1s0,0,0,0c0,0,0,0,0,0,0,0-.1,0-.2,0,0,0,0,0,0,.2,0,0,0,.1,0,.2,0,0,0,0,.2.1,0,0,0,0,0,0s0,0,0,0h0c0,.1,0,.1-.1.1,0,0,0,0-.1,0h0Z"/>
      <path class="cls-6" d="M49.7,28.8c0,0-.1,0-.2,0,0,0,0,0,0-.2,0,0,0-.1.1-.1,0,0,.1,0,.2,0,0,0,0,0,.1,0,0,0,0,0,0,0h0c0,0,0,0,0,0,0,0,0,0,0,0-.1,0-.2,0-.2,0,0,0,0,0,0,0,0,0,0,0,0,0s0,0,.1,0c0,0,0,0,0,0s0,0,0,0h0c0,0,0,.1,0,.1h0s0,0,0,0c0,0,0,0,0,0,0,0,0,0,0,0s0,0-.1,0h0ZM50,28.9v-.2s0,0,0,0v-.2c0,0,0,0,0-.1s0,0-.1,0h-.2s0-.2,0-.2h.1c.1,0,.2.1.2.2,0,0,0,.1,0,.2v.3c0,0,0,0,0,0h0c0,.1-.2,0-.2,0h0Z"/>
      <path class="cls-6" d="M50.3,29h0c0-.1.5,0,.5,0h0c0,.1-.5,0-.5,0ZM50.4,29l.2-.7h.1s0,.2,0,.2v.5c-.1,0-.3,0-.3,0h0ZM50.4,28.4h0c0-.1.2,0,.2,0h0c0,.1-.2,0-.2,0h0ZM50.6,28.7v-.2h0c0-.1.1-.2.2-.1,0,0,.1,0,.1.1,0,0,0,.1,0,.2h-.1c0,0,0-.1,0-.2,0,0,0,0,0,0,0,0-.1,0-.2,0,0,0,0,.1,0,.2h0Z"/>
      <path class="cls-6" d="M43.1,28.8c0,0-.1,0-.2,0s0,0,0-.2c0,0,0-.1.1-.1,0,0,.1,0,.2,0,0,0,0,0,.1,0,0,0,0,0,0,0h0c0,0,0,0,0,0s0,0,0,0c-.1,0-.2,0-.2,0,0,0,0,0,0,0,0,0,0,0,0,0,0,0,0,0,.1,0,0,0,0,0,0,0,0,0,0,0,0,0h0c0,0,0,.1,0,.1h0s0,0,0,0c0,0,0,0,0,0s0,0,0,0,0,0-.1,0h0ZM43.3,28.8v-.2s0,0,0,0v-.2c0,0,0,0,0-.1s0,0-.1,0h-.2s0-.2,0-.2h.1c.1,0,.2.1.2.2s0,.1,0,.2v.3c0,0,0,0,0,0h0c0,.1-.2,0-.2,0h0Z"/>
      <path class="cls-6" d="M44.6,28.3h0c0-.1.2,0,.2,0h0c0,.1-.2,0-.2,0ZM44.8,29.2c0,0-.1,0-.2-.1,0,0,0-.1,0-.2l.2-.7h.1s-.2.7-.2.7c0,0,0,0,0,0s0,0,0,0c0,0,0,0,0,0,0,0,0,0,.1,0h0c0,.1,0,.1-.1.1s0,0-.1,0h0Z"/>
      <path class="cls-6" d="M45.5,29.4c0,0-.2,0-.2-.2s0-.2,0-.3c0-.1,0-.2.2-.2,0,0,.2,0,.2,0,0,0,.2,0,.2.2s0,.2,0,.3c0,.1,0,.2-.2.2,0,0-.2,0-.2,0ZM45.6,29.3s0,0,.1,0,0,0,0-.2c0,0,0-.1,0-.2s0,0-.1,0,0,0-.1,0,0,0,0,.2c0,0,0,.1,0,.2s0,0,.1,0Z"/>
      <path class="cls-6" d="M46.2,29.6s0,0-.1,0,0,0,0,0h0c0-.1,0,0,.1,0,0,0,0,0,0,0,0,0,.1,0,.2,0,0,0,0,0,0,0h0c0,0,0,0,0,0h-.1c0-.1-.1-.2-.1-.2,0,0,0,0,0-.1,0,0,0-.1.1-.1s.2,0,.3,0c0,0,0,0,0,0,0,0,0,0,0,0h0c0,.1,0,0,0,0s0,0,0,0c0,0-.1,0-.2,0s0,0,0,0c0,0,0,0,0,0s0,0,0,0h.1c0,.1.1.1.1.2,0,0,0,0,0,.1,0,0,0,.1-.1.1s-.2,0-.3,0h0Z"/>
      <path class="cls-6" d="M47.8,30c0,0-.2,0-.2-.2s0-.2,0-.3c0-.1,0-.2.2-.2,0,0,.2,0,.2,0,0,0,.2,0,.2.2,0,0,0,.2,0,.3,0,.1,0,.2-.2.2,0,0-.2,0-.2,0h0ZM47.9,29.9s0,0,.1,0,0,0,0-.2c0,0,0-.1,0-.2s0,0-.1,0c0,0,0,0-.1,0s0,0,0,.2c0,0,0,.1,0,.2s0,0,.1,0Z"/>
      <path class="cls-6" d="M48.3,30.5h0c0-.1.1-.1.1-.1,0,0,.1,0,.2,0,0,0,0,0,0-.1v-.2c0,0,.2,0,.2,0v.2c0,0,0,.1-.1.2s0,0-.1,0-.1,0-.2,0h-.1s0,0,0,0ZM48.5,29.6h0c0-.1.3,0,.3,0h0c0,.1-.3,0-.3,0ZM48.7,30v-.5c.1,0,.3,0,.3,0v.5c-.1,0-.3,0-.3,0ZM48.9,29.5s0,0,0,0c0,0,0,0,0,0,0,0,0,0,0,0,0,0,0,0,0,0,0,0,0,0,0,0s0,0,0,0c0,0,0,0,0,0s0,0,0,0Z"/>
      <path class="cls-6" d="M49.4,30.4c0,0-.2,0-.2-.2,0,0,0-.2,0-.3,0-.1,0-.2.2-.2,0,0,.2,0,.2,0,0,0,.2,0,.2.2,0,0,0,.2,0,.3,0,.1,0,.2-.2.2s-.2,0-.2,0ZM49.4,30.3s0,0,.1,0,0,0,0-.2c0,0,0-.1,0-.2s0,0-.1,0c0,0,0,0-.1,0s0,0,0,.2c0,0,0,.1,0,.2s0,0,.1,0Z"/>
      <path class="cls-6" d="M50.1,30.6s0,0-.1,0,0,0,0,0h0c0-.1,0,0,.1,0,0,0,0,0,0,0,0,0,.1,0,.2,0,0,0,0,0,0,0h0c0,0,0,0,0,0h-.1c0-.1-.1-.2-.1-.2s0,0,0-.1c0,0,0-.1.1-.1,0,0,.2,0,.3,0,0,0,0,0,0,0,0,0,0,0,0,0h0c0,.1,0,0,0,0s0,0,0,0c0,0-.1,0-.2,0s0,0,0,0c0,0,0,0,0,0s0,0,0,0h.1c0,.1.1.1.1.2,0,0,0,0,0,.1,0,0,0,.1-.1.1,0,0-.2,0-.3,0h0Z"/>
    </g>
    <path class="cls-4" d="M54.3,47.1h0c.5-1.2,1.9-1.8,3.1-1.5l3.3,1c1,.3,1.6,1.3,1.4,2.4v.5c-.2.5-.7.7-1.1.6l-6.3-2c-.4-.1-.7-.6-.5-1.1h0Z"/>
    <path class="cls-5" d="M71.6,33.4c-2.9,2.4-4.7,5.9-5.4,9.6-.5,2.7-.5,5.4-.3,8.2-.6-1.8-.9-3.7-.9-5.5,0-3.2.9-6.4,2.8-9,1-1.3,2.3-2.5,3.8-3.3h0Z"/>
    <circle class="cls-5" cx="39.5" cy="40.1" r="1.7"/>
    <g class="cls-1">
      <text class="cls-2" transform="translate(38.4 40.5) rotate(24.3) scale(1.2 1)"><tspan x="0" y="0">X</tspan></text>
    </g>
  </g>
</svg>