<?xml version="1.0" encoding="UTF-8"?>
<svg id="Capa_1" data-name="Capa 1" xmlns="http://www.w3.org/2000/svg" version="1.1" viewBox="0 0 400 90">
  <defs>
    <style>
      .cls-1 {
        stroke-width: 0px;
      }

      .cls-1, .cls-2 {
        fill: #000;
      }

      .cls-3 {
        fill: #fff;
        stroke-width: .6px;
      }

      .cls-3, .cls-4 {
        stroke: #000;
        stroke-miterlimit: 10;
      }

      .cls-5, .cls-2 {
        isolation: isolate;
      }

      .cls-4 {
        fill: none;
      }

      .cls-2 {
        font-family: Calibri, Calibri;
        font-size: 23.8px;
      }
    </style>
  </defs>
  <rect class="cls-4" x="13.5" y="9" width="373" height="72" rx="11.7" ry="11.7"/>
  <g class="cls-5">
    <g class="cls-5">
      <text class="cls-2" transform="translate(175.3 50.3)"><tspan x="0" y="0">Documento Secreto</tspan></text>
    </g>
  </g>
  <g>
    <polygon class="cls-3" points="48 19.2 83.3 32.4 81.8 36.4 79.4 37.1 80.7 39.4 77 49.2 75.3 51.1 75.4 53.6 68.9 70.8 43 61.1 42.1 59.2 40.4 60.1 39.7 56.8 37.3 59 33.7 57.6 41.4 37.1 43 35.5 43.2 32.2 45.4 29.4 45 27.2 48 19.2"/>
    <g>
      <path class="cls-1" d="M48.6,20.6h0c0,0,.5.1.5.1h0c0,0-.5-.1-.5-.1ZM48.6,21.3l.3-.7h.1s-.3.8-.3.8h-.1Z"/>
      <path class="cls-1" d="M49,21.5h0c0,0,.2,0,.2,0h0c0,0-.2,0-.2,0ZM49.2,21.1h0c0,0,.3,0,.3,0h0c0,0-.3,0-.3,0ZM49.5,21s0,0,0,0c0,0,0,0,0,0s0,0,0,0c0,0,0,0,0,0s0,0,0,0,0,0,0,0,0,0,0,0c0,0,0,0,0,0ZM49.2,21.6l.2-.5h.1s-.2.6-.2.6h-.1ZM49.3,21.6h0c0,0,.2,0,.2,0h0c0,0-.2,0-.2,0Z"/>
      <path class="cls-1" d="M49.7,21.7l.2-.6h0s0,.2,0,.2l-.2.4s-.1,0-.1,0ZM50,21.9v-.4c.1,0,.2,0,.1,0s0,0,0,0c0,0-.1,0-.2.1v-.2s0,0,0,0c0,0,0,0,0,0,0,0,0,0,.1,0s0,0,.1.1c0,0,0,.1,0,.2v.4c-.1,0-.2,0-.2,0h0Z"/>
      <path class="cls-1" d="M50.4,21.5h0c0,0,.5,0,.5,0h0c0,0-.5,0-.5,0ZM50.5,21.7l.2-.5h.1s-.2.5-.2.5h-.1ZM50.6,22.1c0,0-.1,0-.2-.1s0-.1,0-.2h0c0,0,.1,0,.1,0h0c0,.1,0,.2,0,.2s0,0,0,0h0s0,0,0,0h0c0,0,0,0,0,0h0s0,0,0,0Z"/>
      <path class="cls-1" d="M51.1,22.3c0,0-.1,0-.1,0s0,0,0-.1,0,0,.1-.1c0,0,.1,0,.2,0h0s0,0,0,0h0c0,0,0,0,0,0h0c0,0-.2,0-.2,0s0,0,0,0c0,0,0,0,0,0s0,0,0,0,0,0,0,0c0,0,0,0,0,0h0c0,0,0,0,0,0h0s0,0,0,0c0,0,0,0,0,0,0,0,0,0,0,0s0,0-.1,0h0s0,0,0,0ZM51.3,22.3v-.2c0,0,0,0,0,0h0c0-.2,0-.2,0-.2,0,0,0,0-.1,0h-.1c0,0,0-.2,0-.2h.1c0,0,.1.1.2.2,0,0,0,.1,0,.2v.2c0,0,0,0,0,0h0c0,0-.2,0-.2,0,0,0,0,0,0,0Z"/>
      <path class="cls-1" d="M52.4,22h0c0,0,.5,0,.5,0h0c0,0-.5,0-.5,0ZM52.2,22.7h0c0,0,.5,0,.5,0h0c0,0-.5,0-.5,0ZM52.4,22.7l.3-.7h.1s-.3.8-.3.8h-.1Z"/>
      <path class="cls-1" d="M52.8,22.9l.2-.6h0s0,.2,0,.2l-.2.4h-.1ZM53.2,23v-.4c.1,0,.2,0,.1,0,0,0,0,0,0,0,0,0-.1,0-.2.1v-.2s0,0,0,0c0,0,0,0,0,0,0,0,0,0,.1,0s0,0,.1.1c0,0,0,.1,0,.2v.4c-.1,0-.2,0-.2,0h0Z"/>
      <path class="cls-1" d="M53.6,23.2v-.6s.1,0,.1,0v.5s0,0,0,0l.3-.4h.1s-.4.5-.4.5h-.2q0,0,0,0Z"/>
      <path class="cls-1" d="M54.1,23.4h0c0,0,.2,0,.2,0h0c0,0-.2,0-.2,0ZM54.3,22.9h0c0,0,.3,0,.3,0h0c0,0-.3,0-.3,0ZM54.6,22.8s0,0,0,0c0,0,0,0,0,0s0,0,0,0c0,0,0,0,0,0s0,0,0,0,0,0,0,0,0,0,0,0c0,0,0,0,0,0ZM54.3,23.5l.2-.5h.1s-.2.6-.2.6h-.1ZM54.4,23.5h0c0,0,.2,0,.2,0h0c0,0-.2,0-.2,0Z"/>
      <path class="cls-1" d="M54.9,23.7h-.1c0,0,0,0,0,0h0c0,0,0,0,0,0h0c0,0,0,0,.1,0,0,0,0,0,0,0s0,0,0,0,0,0,0,0h-.1c0-.1,0-.1-.1-.2s0,0,0-.1c0,0,0,0,.1-.1s.1,0,.2,0,0,0,0,0h0s0,.1,0,.1h-.1c0,0-.1,0-.1,0,0,0,0,0,0,0s0,0,0,0c0,0,0,0,0,0h0c0,0,0,.1.1.2s0,0,0,.1,0,0-.1.1c0,0-.1,0-.2,0h0s0,0,0,0Z"/>
      <path class="cls-1" d="M55.4,23.9h0c0,0,.2,0,.2,0h0c0,0-.2,0-.2,0ZM55.6,23.4h0c0,0,.3,0,.3,0h0c0,0-.3,0-.3,0ZM55.9,23.3s0,0,0,0c0,0,0,0,0,0s0,0,0,0c0,0,0,0,0,0s0,0,0,0,0,0,0,0,0,0,0,0c0,0,0,0,0,0ZM55.6,23.9l.2-.5h.1s-.2.6-.2.6h-.1ZM55.7,24h0c0,0,.2,0,.2,0h0c0,0-.2,0-.2,0Z"/>
      <path class="cls-1" d="M56,24.1l.3-.8h.1s-.3.8-.3.8h-.1ZM56.1,24.2h0s0,0,0,0h0c0,0,0,0,0,0h0c0,0,.1,0,.2,0s0,0,.1-.2,0,0,0-.1c0,0,0,0,0,0,0,0-.2,0-.2.1v-.2s0,0,0,0c0,0,0,0,.2,0s.1,0,.1.1,0,.1,0,.2,0,.2-.2.2c0,0-.2,0-.3,0h0s0,0,0,0Z"/>
      <path class="cls-1" d="M56.8,23.6h0c0,0,.2,0,.2,0h0c0,0-.2,0-.2,0ZM56.9,24.5c0,0-.1,0-.1-.1s0-.1,0-.2l.2-.6h.1s-.2.6-.2.6c0,0,0,0,0,0,0,0,0,0,0,0,0,0,0,0,0,0s0,0,.1,0h0c0,0,0,0,0,0s0,0,0,0h0Z"/>
      <path class="cls-1" d="M57.5,24.7c0,0-.2,0-.2-.2,0,0,0-.2,0-.2s0-.2.1-.2c0,0,.1,0,.2,0s.1,0,.1.1,0,.1,0,.2,0,0,0,0h-.4c0-.1,0-.2,0-.2h.3c0,0,0,0,0,0,0,0,0,0,0,0s0,0-.1,0,0,0,0,.1,0,.1,0,.2c0,0,0,0,.1.1h0s0,0,0,0h0c0,0,0,0,0,0h0s0,0,0,0Z"/>
    </g>
  </g>
</svg>