<?xml version="1.0" encoding="UTF-8"?>
<svg id="Capa_1" data-name="Capa 1" xmlns="http://www.w3.org/2000/svg" version="1.1" viewBox="0 0 400 90">
  <defs>
    <style>
      .cls-1 {
        fill: #d2c17c;
      }

      .cls-1, .cls-2, .cls-3 {
        stroke-width: 0px;
      }

      .cls-2 {
        fill: #c1272d;
      }

      .cls-4, .cls-5 {
        isolation: isolate;
      }

      .cls-6 {
        stroke: #000;
      }

      .cls-6, .cls-7 {
        fill: none;
        stroke-miterlimit: 10;
      }

      .cls-5 {
        fill: #000;
        font-family: Calibri, Calibri;
        font-size: 23.8px;
      }

      .cls-7 {
        stroke: #c1272d;
        stroke-linecap: round;
        stroke-width: 1.5px;
      }

      .cls-3 {
        fill: #857841;
      }
    </style>
  </defs>
  <g>
    <path class="cls-1" d="M75,61.4c0,.5-.5,1.9-1.8,3.1-1.5,1.4-3.3,1.6-3.9,1.6-4.2-6.2-9.1-12.8-14.8-19.7-5.6-6.8-11.2-12.7-16.5-17.9,0-.5.6-2.1,2-3.3s1.7-1.3,3.6-1.4c4.2,6.1,9,12.7,14.6,19.5,5.7,6.9,11.4,12.9,16.7,18.1h.1Z"/>
    <path class="cls-3" d="M38,28.6c2.6-.5,4.7-2.3,5.7-4.7-.6,2.6-3,4.7-5.7,4.7h0Z"/>
    <line class="cls-7" x1="54.5" y1="46.5" x2="58.3" y2="43.3"/>
    <path class="cls-2" d="M58,43.7c.7.4,1.4.8,2.1,1.1s.7.3,1.1.2.7-.6.6-1c0-.6-.6-1.2-1.2-1.5s-1.5-.3-2.2,0-.2.9.2.9c.7,0,1.4-.3,2-.8s.6-.5.7-.9,0-.8-.2-1.2c-.3-.6-.7-1.2-1.4-1.2s-1.3.7-1.6,1.3-.6,1.6-.2,2.5.3.4.6.3.4-.3.3-.6c-.2-.6,0-1.2.2-1.8s.5-1.1,1-.7.3.4.4.6,0,.5,0,.7c-.4.4-1,.6-1.6.7l.2.9c.8-.4,1.8,0,2.1.7s0,0,0,0h-.2c-.2,0-.5-.2-.7-.3-.5-.3-1-.5-1.5-.9s-1,.5-.5.8h0Z"/>
  </g>
  <rect class="cls-6" x="13.5" y="9" width="373" height="72" rx="11.7" ry="11.7"/>
  <g class="cls-4">
    <text class="cls-5" transform="translate(228.6 50.3)"><tspan x="0" y="0">Carta De Bety</tspan></text>
  </g>
</svg>