<?xml version="1.0" encoding="UTF-8"?>
<svg id="Capa_1" data-name="Capa 1" xmlns="http://www.w3.org/2000/svg" version="1.1" viewBox="0 0 400 90">
  <defs>
    <style>
      .cls-1, .cls-2 {
        fill: #000;
      }

      .cls-1, .cls-3 {
        stroke-width: 0px;
      }

      .cls-4, .cls-2 {
        isolation: isolate;
      }

      .cls-5 {
        stroke: #000;
        stroke-dasharray: 0 0 12.1 12.1;
        stroke-miterlimit: 10;
      }

      .cls-5, .cls-6 {
        fill: none;
      }

      .cls-2 {
        font-family: Calibri, Calibri;
        font-size: 23.8px;
      }

      .cls-3 {
        fill: #fff;
      }

      .cls-6 {
        stroke: #8c6239;
        stroke-linecap: round;
        stroke-linejoin: round;
        stroke-width: .8px;
      }
    </style>
  </defs>
  <rect class="cls-5" x="13.5" y="9" width="373" height="72" rx="11.7" ry="11.7"/>
  <g class="cls-4">
    <g class="cls-4">
      <text class="cls-2" transform="translate(299.4 50.3)"><tspan x="0" y="0">Ratón</tspan></text>
    </g>
  </g>
  <g>
    <path class="cls-1" d="M74,65.8c1-1.6,1.8-2.8,2.6-4l-.5-.3c-.2.2-.4.5-.6.6-.4,0-.9,0-1.3,0,0-.4,0-.9.2-1.2.5-.9,1.6-1.7,1.4-2.5,0-.7-1.3-1.3-2.1-2-.7-.7-1.7-1.3-2.1-2.1-1.1-1.9-2.6-2.3-4.6-2.3-4,0-7.3-2.1-10.7-3.9-1.5-.8-3-1.5-5-2.4-.8,1.6-1.6,3.1-2.5,4.8-.7,0-1.1-1.5-2.5-1.2-.6.1-1.4-1.2-.4-2.1,1.3-1.1,1.4-2.4.5-3.6-1.2-1.7-2.4-3.4-4-4.6-1-.7-2.7-.8-4-.8-2.3,0-4.3-.7-6.2-2-.7-.5-1.2-1.6-1.3-2.5,0-.4,1.1-1,1.8-1.3,1.9-.7,3.8-1.2,5.7-1.8.2,0,.4-.2.4-.2.1-1.7,1.9-.7,2.6-1.5,0,0,.9.4,1.2.8.2.4.1,1,.2,1.4,4.7,1.4,9.4,3,13.6,5.7,1.7,1.1,3.8,1.4,5.7,1.9,4.4,1.3,8.8,2.5,13.3,3.7,1,.2,2.1.1,3.2,0,11.7-2.3,21.6-7.8,29.6-16.8.7-.7,1.5-1.3,2.3-2,.1.1.2.2.4.4,0,.2,0,.5-.2.6-3.8,3.6-7.4,7.3-11.3,10.7-3.5,3.1-7.9,4.5-12.1,6.2-3.1,1.2-6.2,2.6-9.2,3.9-.5.2-.9.8-1,1.3-.2,1.9-.2,3.9-.3,5.8,0,.2.1.5.3.6,1.8.9,1.2,2.6,1.2,4.1-.1,2.2-.3,4.5-.7,6.6-.2.9-1.2,1.8-1.9,2.6-.2.2-1-.3-1.4-.4h0Z"/>
    <circle class="cls-3" cx="38.5" cy="33.9" r="1.8"/>
    <polyline class="cls-6" points="57.3 37.3 52.5 46.2 59.3 38 55.2 47.5"/>
    <polyline class="cls-6" points="65.9 39.8 67 52 68.2 40.5 76.8 50.1"/>
    <path class="cls-6" d="M55.1,47.5s-3,.6-1.5,2.2,2.3,1.2,1.5-2.2Z"/>
    <path class="cls-6" d="M55.2,47.4s-1.8-2.4-2.7-.4-.1,2.6,2.7.4Z"/>
  </g>
</svg>