<?xml version="1.0" encoding="UTF-8"?>
<svg id="Capa_1" data-name="Capa 1" xmlns="http://www.w3.org/2000/svg" version="1.1" viewBox="0 0 400 90">
  <defs>
    <style>
      .cls-1 {
        fill: #00ff36;
        font-family: InformalRoman-Regular, 'Informal Roman';
        font-size: 2.8px;
      }

      .cls-1, .cls-2, .cls-3, .cls-4 {
        isolation: isolate;
      }

      .cls-5, .cls-4 {
        fill: #000;
      }

      .cls-5, .cls-6 {
        stroke-width: 0px;
      }

      .cls-7 {
        fill: none;
      }

      .cls-7, .cls-8 {
        stroke: #000;
        stroke-miterlimit: 10;
      }

      .cls-3 {
        font-family: Chiller-Regular, Chiller;
        font-size: 3.2px;
      }

      .cls-3, .cls-6 {
        fill: #bf0005;
      }

      .cls-4 {
        font-family: Calibri, Calibri;
        font-size: 23.8px;
      }

      .cls-8 {
        fill: #fff;
        stroke-width: .6px;
      }
    </style>
  </defs>
  <rect class="cls-7" x="13.5" y="9" width="373" height="72" rx="11.7" ry="11.7"/>
  <g class="cls-2">
    <g class="cls-2">
      <g class="cls-2">
        <text class="cls-4" transform="translate(175.3 50.3)"><tspan x="0" y="0">Documento Secreto</tspan></text>
      </g>
    </g>
  </g>
  <polygon class="cls-8" points="47.7 19.3 83 32.5 81.5 36.4 79.1 37.2 80.4 39.4 76.7 49.3 75 51.2 75 53.7 68.6 70.9 42.7 61.2 41.7 59.3 40 60.2 39.3 56.9 36.9 59 33.3 57.7 41 37.1 42.6 35.6 42.8 32.2 45 29.5 44.7 27.3 47.7 19.3"/>
  <g>
    <path class="cls-5" d="M48.3,20.6h0c0,0,.5.1.5.1h0c0,0-.5-.1-.5-.1ZM48.2,21.4l.3-.8h.1s-.3.8-.3.8h-.1Z"/>
    <path class="cls-5" d="M48.7,21.5h0c0,0,.2,0,.2,0h0c0,0-.2,0-.2,0ZM48.9,21.1h0c0,0,.3,0,.3,0h0c0,0-.3,0-.3,0ZM49.2,21s0,0,0,0c0,0,0,0,0,0s0,0,0,0c0,0,0,0,0,0s0,0,0,0,0,0,0,0,0,0,0,0c0,0,0,0,0,0ZM48.9,21.6l.2-.5h.1s-.2.6-.2.6h-.1ZM49,21.7h0c0,0,.2,0,.2,0h0c0,0-.2,0-.2,0Z"/>
    <path class="cls-5" d="M49.3,21.8l.2-.6h0s0,.2,0,.2l-.2.4s-.1,0-.1,0ZM49.7,21.9v-.4c.1,0,.2,0,.1,0s0,0,0,0c0,0-.1,0-.2.1v-.2s0,0,0,0c0,0,0,0,0,0,0,0,0,0,.1,0s0,0,.1.1c0,0,0,.1,0,.2v.4c-.1,0-.2,0-.2,0h0Z"/>
    <path class="cls-5" d="M50.1,21.5h0c0,0,.5,0,.5,0h0c0,0-.5,0-.5,0ZM50.1,21.8l.2-.5h.1s-.2.5-.2.5h-.1ZM50.3,22.2c0,0-.1,0-.2-.1s0-.1,0-.2h0c0,0,.1,0,.1,0h0c0,.1,0,.2,0,.2s0,0,0,0h0s0,0,0,0h0c0,0,0,0,0,0h0s0,0,0,0Z"/>
    <path class="cls-5" d="M50.7,22.3c0,0-.1,0-.1,0s0,0,0-.1,0,0,.1-.1c0,0,.1,0,.2,0h0s0,0,0,0h0c0,0,0,0,0,0h0c0,0-.2,0-.2,0s0,0,0,0c0,0,0,0,0,0s0,0,0,0,0,0,0,0c0,0,0,0,0,0h0c0,0,0,0,0,0h0s0,0,0,0c0,0,0,0,0,0,0,0,0,0,0,0s0,0-.1,0h0s0,0,0,0ZM50.9,22.4v-.2c0,0,0,0,0,0h0c0-.2,0-.2,0-.2,0,0,0,0-.1,0h-.1c0,0,0-.2,0-.2h.1c0,0,.1.1.2.2,0,0,0,.1,0,.2v.2c0,0,0,0,0,0h0c0,0-.2,0-.2,0,0,0,0,0,0,0Z"/>
    <path class="cls-5" d="M52.1,22.1h0c0,0,.5,0,.5,0h0c0,0-.5,0-.5,0ZM51.9,22.7h0c0,0,.5,0,.5,0h0c0,0-.5,0-.5,0ZM52,22.8l.3-.8h.1s-.3.8-.3.8h-.1Z"/>
    <path class="cls-5" d="M52.5,23l.2-.6h0s0,.2,0,.2l-.2.4h-.1ZM52.8,23.1v-.4c.1,0,.2,0,.1,0,0,0,0,0,0,0,0,0-.1,0-.2.1v-.2s0,0,0,0c0,0,0,0,0,0,0,0,0,0,.1,0s0,0,.1.1c0,0,0,.1,0,.2v.4c-.1,0-.2,0-.2,0h0Z"/>
    <path class="cls-5" d="M53.3,23.3v-.6s.1,0,.1,0v.5s0,0,0,0l.3-.4h.1s-.4.5-.4.5h-.2q0,0,0,0Z"/>
    <path class="cls-5" d="M53.8,23.4h0c0,0,.2,0,.2,0h0c0,0-.2,0-.2,0ZM54,23h0c0,0,.3,0,.3,0h0c0,0-.3,0-.3,0ZM54.3,22.9s0,0,0,0c0,0,0,0,0,0s0,0,0,0c0,0,0,0,0,0s0,0,0,0,0,0,0,0,0,0,0,0c0,0,0,0,0,0ZM54,23.5l.2-.5h.1s-.2.6-.2.6h-.1ZM54.1,23.6h0c0,0,.2,0,.2,0h0c0,0-.2,0-.2,0Z"/>
    <path class="cls-5" d="M54.6,23.8h-.1c0,0,0,0,0,0h0c0,0,0,0,0,0h0c0,0,0,0,.1,0,0,0,0,0,0,0s0,0,0,0,0,0,0,0h-.1c0-.1,0-.1-.1-.2s0,0,0-.1c0,0,0,0,.1-.1s.1,0,.2,0,0,0,0,0h0s0,.1,0,.1h-.1c0,0-.1,0-.1,0,0,0,0,0,0,0s0,0,0,0c0,0,0,0,0,0h0c0,0,0,.1.1.2s0,0,0,.1,0,0-.1.1c0,0-.1,0-.2,0h0s0,0,0,0Z"/>
    <path class="cls-5" d="M55,23.9h0c0,0,.2,0,.2,0h0c0,0-.2,0-.2,0ZM55.2,23.5h0c0,0,.3,0,.3,0h0c0,0-.3,0-.3,0ZM55.5,23.4s0,0,0,0c0,0,0,0,0,0s0,0,0,0c0,0,0,0,0,0s0,0,0,0,0,0,0,0,0,0,0,0c0,0,0,0,0,0ZM55.2,24l.2-.5h.1s-.2.6-.2.6h-.1ZM55.3,24h0c0,0,.2,0,.2,0h0c0,0-.2,0-.2,0Z"/>
    <path class="cls-5" d="M55.6,24.2l.3-.8h.1s-.3.8-.3.8h-.1ZM55.8,24.2h0s0,0,0,0h0c0,0,0,0,0,0h0c0,0,.1,0,.2,0s0,0,.1-.2,0,0,0-.1c0,0,0,0,0,0,0,0-.2,0-.2.1v-.2s0,0,0,0c0,0,0,0,.2,0s.1,0,.1.1,0,.1,0,.2,0,.2-.2.2c0,0-.2,0-.3,0h0s0,0,0,0Z"/>
    <path class="cls-5" d="M56.5,23.7h0c0,0,.2,0,.2,0h0c0,0-.2,0-.2,0ZM56.6,24.5c0,0-.1,0-.1-.1s0-.1,0-.2l.2-.6h.1s-.2.6-.2.6c0,0,0,0,0,0,0,0,0,0,0,0,0,0,0,0,0,0s0,0,.1,0h0c0,0,0,0,0,0s0,0,0,0h0Z"/>
    <path class="cls-5" d="M57.2,24.7c0,0-.2,0-.2-.2,0,0,0-.2,0-.2s0-.2.1-.2c0,0,.1,0,.2,0s.1,0,.1.1,0,.1,0,.2,0,0,0,0h-.4c0-.1,0-.2,0-.2h.3c0,0,0,0,0,0,0,0,0,0,0,0s0,0-.1,0,0,0,0,.1,0,.1,0,.2c0,0,0,0,.1.1h0s0,0,0,0h0c0,0,0,0,0,0h0s0,0,0,0Z"/>
  </g>
  <g class="cls-2">
    <g class="cls-2">
      <text class="cls-3" transform="translate(43.1 49) rotate(13.2)"><tspan x="0" y="0">45 MUERTES TOTALES</tspan></text>
    </g>
    <g class="cls-2">
      <text class="cls-3" transform="translate(42.2 52.7) rotate(13.2)"><tspan x="0" y="0">SE DECLARÓ UNA DEMANDA</tspan></text>
    </g>
    <g class="cls-2">
      <text class="cls-3" transform="translate(41.4 56.5) rotate(13.2)"><tspan x="0" y="0">Y PRONTA CLAUSURA</tspan></text>
    </g>
  </g>
  <path class="cls-6" d="M71,52.6c-3.7-.9-36.2-9.4-30.8.6,1.8,3.3,5.9,5.4,9.4,6.6,5.3,1.8,12.4,2.6,17.5-.2,2-1.1,3.5-2.9,4.1-5.1-.8,3-3.3,5.1-6.1,6.1-5.5,1.8-12.4.8-17.6-1.4-3-1.3-6.4-3.4-7.7-6.5-3.8-9.4,27.3-1.1,31.2,0h0Z"/>
  <g class="cls-2">
    <g class="cls-2">
      <text class="cls-1" transform="translate(47.9 26.8) rotate(20.6)"><tspan x="0" y="0">El laboratorio de goodliver</tspan></text>
    </g>
    <g class="cls-2">
      <text class="cls-1" transform="translate(46.7 29.9) rotate(20.6)"><tspan x="0" y="0">ha acabado con la vida de</tspan></text>
    </g>
    <g class="cls-2">
      <text class="cls-1" transform="translate(45.5 33.1) rotate(20.6)"><tspan x="0" y="0">muchas personas inocentes.</tspan></text>
    </g>
    <g class="cls-2">
      <text class="cls-1" transform="translate(44.4 36.3) rotate(20.6)"><tspan x="0" y="0">Sus experimentos van en contra</tspan></text>
    </g>
    <g class="cls-2">
      <text class="cls-1" transform="translate(43.2 39.4) rotate(20.6)"><tspan x="0" y="0">de todo lo legal y ético,</tspan></text>
    </g>
    <g class="cls-2">
      <text class="cls-1" transform="translate(42 42.6) rotate(20.6)"><tspan x="0" y="0">evite colaboraciones o quedar</tspan></text>
    </g>
    <g class="cls-2">
      <text class="cls-1" transform="translate(40.8 45.7) rotate(20.6)"><tspan x="0" y="0">empleado.</tspan></text>
    </g>
  </g>
  <g>
    <path class="cls-6" d="M67.9,64.7c0,0,.1,0,.2,0,0,.1,0,.2,0,.3,0,0,0,.2,0,.2s.2,0,.2,0c.1,0,.2-.2.3-.3.1-.1.3-.3.4-.4,0,0,.2,0,.2,0,0,0,0,.2,0,.2-.1.2-.2.3-.4.4-.1.1-.3.2-.5.3,0,0-.1.2-.1.3,0,0,.1,0,.2.1,0,.2,0,.3-.2.3-.2,0-.2.2,0,.2.1,0,.2.2.1.3,0,0-.2.2-.3.2-.5,0-.6.2-.4.6,0,.2,0,.4-.1.5-.1.1-.3.3-.5.2-.3-.1-.6-.2-.9,0-.2,0-.4,0-.5-.2-.2-.3-.5-.4-.9-.3,0,0-.3,0-.3,0-.1-.3-.4-.3-.7-.3-.2,0-.4,0-.5,0,0,0-.2,0-.3,0,0,0-.1,0-.2-.2,0,0,.1-.1.2-.2,0,0,.1,0,.1,0,.2,0,.2-.2,0-.3-.1-.2-.3-.3-.5-.3-.2,0-.4,0-.5-.1,0,0-.2-.2-.2-.3.2,0,.4,0,.5.1.1,0,.2.2.4,0,0,0,.1,0,.2,0s.1,0,.2,0c0,0,.2,0,.3,0,0,0,0-.2,0-.2-.2-.2-.6-.3-.9-.4-.2,0-.4-.1-.6-.4,0,0,0-.2,0-.2,0,0,0,0,0,0,.1,0,.3.2.4.3.2.2.4.3.7.3.1,0,.3,0,.4.1.2.1.4.3.7,0,0,0,.1,0,.2,0,0,0,.2,0,.3,0,0,0,0-.2,0-.2,0,0,0,0,0,0,.1-.1.2,0,.3,0,0,0,.1,0,.2,0,0,0,0-.2,0-.3,0-.2-.2-.4-.4-.6-.4-.4-.8-.7-1.1-1.1-.1-.1-.2-.3-.3-.4,0,0,0-.2,0-.2,0,0,0,0,0,0,0,0,.1.1.2.2.2.2.3.4.5.6.1.2.3.3.5.3.3,0,.4.3.5.5.1.3.3.6.6.8.1,0,.3,0,.4.1,0,0,.1,0,.2,0,.2.1.4,0,.5-.3,0-.1,0-.3,0-.4,0,0,0-.2,0-.3,0,0,0,0,0,0,0,0,0,.3.2.2,0,0,.2-.2.2-.3,0-.2,0-.5,0-.7,0-.2,0-.4.3-.5,0,.1,0,.3,0,.4,0,0,0,.1,0,.2,0,0,.1,0,.2-.1.3-.4.3-.9.3-1.3,0-.2,0-.5.2-.7.1-.2.2-.4.3-.6,0,0,0-.2,0-.2,0,0,.1,0,.2-.1,0,0,0,.1,0,.2,0,.2,0,.4-.2.6-.1.5-.3.9-.4,1.4,0,.1,0,.3,0,.4,0,.2,0,.4,0,.6,0,.1,0,.2,0,.4h0s0,0,0,0Z"/>
    <path class="cls-6" d="M64.6,62.7s0,0,.1,0c0,0,.1,0,.1.1,0,.1,0,.2.1.3,0,0,.2.2.2.3.1.1.2.2.3.4,0,0,0,.2,0,.3,0,.2,0,.3.2.4,0,0,0,0,0,.1,0,0-.1,0-.1,0,0,0-.2-.1-.2-.2-.1-.4-.3-.8-.6-1-.2-.1-.2-.4-.2-.7h0Z"/>
    <path class="cls-6" d="M68.3,68.6c-.1-.1-.3-.2-.3-.3,0-.2,0-.3.2-.5s.1,0,.1,0c0,0,0,.1,0,.1,0,.1,0,.2,0,.3,0,0,0,.2,0,.3,0,0-.1,0-.2,0h0Z"/>
    <path class="cls-6" d="M61.5,66.9c-.2,0-.5,0-.7,0-.2,0-.3,0-.3-.2,0-.2.1-.2.2-.2.2,0,.4.1.6.2,0,0,0,.1,0,.2h0s0,0,0,0Z"/>
    <path class="cls-6" d="M66.4,63.4c-.2-.2-.2-.6,0-.8,0,0,.1-.2.2,0,0,.1,0,.8-.1.9h0Z"/>
    <path class="cls-6" d="M61.3,64.5c.1.1.3.3.4.5-.2,0-.3,0-.4-.2,0,0,0-.2,0-.2,0,0,0,0,0,0h0Z"/>
    <path class="cls-6" d="M69,62.8c0,.1-.1.2-.2.4-.1-.2,0-.3.2-.4Z"/>
    <path class="cls-6" d="M67.5,68.5h.3c0,.1,0,.3,0,.3,0,0-.2,0-.3-.1h0c0-.1,0-.1,0-.1Z"/>
    <path class="cls-6" d="M67.6,61.1c.1.2.1.3,0,.5,0-.2,0-.4,0-.5Z"/>
  </g>
</svg>