<?xml version="1.0" encoding="UTF-8"?>
<svg id="Capa_1" data-name="Capa 1" xmlns="http://www.w3.org/2000/svg" version="1.1" viewBox="0 0 400 90">
  <defs>
    <style>
      .cls-1 {
        fill: #8a7400;
      }

      .cls-1, .cls-2, .cls-3 {
        stroke-width: 0px;
      }

      .cls-4, .cls-5 {
        isolation: isolate;
      }

      .cls-6 {
        fill: none;
        stroke: #000;
        stroke-miterlimit: 10;
      }

      .cls-2 {
        fill: #f2ff4a;
      }

      .cls-3 {
        fill: #a8b222;
      }

      .cls-5 {
        fill: #000;
        font-family: Calibri, Calibri;
        font-size: 23.8px;
      }
    </style>
  </defs>
  <rect class="cls-6" x="13.5" y="9" width="373" height="72" rx="11.7" ry="11.7"/>
  <g class="cls-4">
    <g class="cls-4">
      <g class="cls-4">
        <text class="cls-5" transform="translate(291.4 50.3)"><tspan x="0" y="0">Código</tspan></text>
      </g>
    </g>
  </g>
  <g>
    <polygon class="cls-2" points="112.8 57.3 99.4 56.1 79.2 57.3 57 58.8 38.2 57.3 32.5 58.8 32.5 51 35 42.1 32.5 31.2 45.1 31.2 56.4 33.2 97 31.2 112.8 31.2 111.3 44.4 112.8 57.3"/>
    <g>
      <path class="cls-1" d="M56.3,40h0l-2.4,1.3-.4-1.4,3-1.6h1.6v13.6h-1.8v-11.9Z"/>
      <path class="cls-1" d="M70.8,39.6c-.4,0-.9,0-1.4,0-2.9.5-4.4,2.6-4.7,4.8h0c.6-.9,1.8-1.6,3.3-1.6,2.4,0,4.1,1.7,4.1,4.4s-1.7,4.8-4.5,4.8-4.8-2.3-4.8-5.8,1-4.8,2.3-6.1c1.1-1.1,2.6-1.8,4.3-2,.5,0,1-.1,1.3-.1v1.5ZM70.3,47.4c0-1.9-1.1-3.1-2.8-3.1s-2.1.7-2.6,1.7c-.1.2-.2.5-.2.8,0,2.2,1.1,3.9,3,3.9s2.7-1.3,2.7-3.3Z"/>
      <path class="cls-1" d="M82.8,44.9c0,4.6-1.7,7.2-4.7,7.2s-4.4-2.5-4.5-7c0-4.6,2-7.1,4.7-7.1s4.5,2.5,4.5,6.9ZM75.4,45.1c0,3.5,1.1,5.5,2.8,5.5s2.8-2.2,2.8-5.7-.9-5.5-2.8-5.5-2.8,2-2.8,5.7Z"/>
      <path class="cls-1" d="M84.5,51.8v-1.1l1.4-1.4c3.5-3.3,5-5.1,5.1-7.1,0-1.4-.7-2.7-2.7-2.7s-2.3.6-2.9,1.1l-.6-1.3c.9-.8,2.3-1.4,3.8-1.4,2.9,0,4.2,2,4.2,3.9s-1.8,4.5-4.7,7.3l-1.1,1h0s6.1,0,6.1,0v1.5h-8.7Z"/>
    </g>
  </g>
  <path class="cls-3" d="M111.3,44.5l-6.8,1.1h0s0,0,0,0l-2.6-3.9s2.7,3.9,2.6,3.8c0,0,6.8-1.2,6.8-1.2v.2h0Z"/>
  <path class="cls-3" d="M38.2,57.3l3.2-1.8h0c0,0-1.5-3.6-1.5-3.6l1.6,3.6s0,0,0,0c0,0-3.1,1.9-3.1,1.9v-.2h0Z"/>
  <path class="cls-3" d="M35.1,42.1l5.4,3c-.2,0,4.7-2.4,4.7-2.4,0,0-4.6,2.5-4.7,2.5,0,0-5.5-2.9-5.5-2.9v-.2h0Z"/>
  <polygon class="cls-3" points="56.5 33.1 62 35.9 56.4 33.3 56.5 33.1 56.5 33.1"/>
</svg>