<?xml version="1.0" encoding="UTF-8"?>
<svg id="Capa_1" data-name="Capa 1" xmlns="http://www.w3.org/2000/svg" version="1.1" viewBox="0 0 773.1 442">
  <defs>
    <style>
      .cls-1 {
        fill: #000;
        font-family: BerlinSansFB-Reg, 'Berlin Sans FB';
        font-size: 28.8px;
      }

      .cls-1, .cls-2 {
        isolation: isolate;
      }

      .cls-3 {
        fill: #7f00ff;
        stroke: #3a3a3a;
        stroke-miterlimit: 10;
        stroke-width: 20.7px;
      }

      .cls-4 {
        fill: #aa2636;
      }

      .cls-4, .cls-5, .cls-6, .cls-7 {
        stroke-width: 0px;
      }

      .cls-5 {
        fill: #3a3a3a;
      }

      .cls-6 {
        fill: #333;
      }

      .cls-7 {
        fill: #acacac;
      }
    </style>
  </defs>
  <path class="cls-7" d="M243.6,120.5c46.5.2,92.9.8,139.4.2,8.9-.2,19.1-3.3,26.3-8.5,22-15.7,42.3-33.9,64.6-49.2,9-6.2,21.4-10.2,32.4-10.5,41.1-1.1,82.2.3,123.3-.2,22.8-.3,38.6,9.6,49.7,28.8,18.9,32.8,25.6,68.9,27.4,105.8,2.6,52.4,1.7,104.8-19.6,154.2-4.8,11.1-10.6,23.1-19.4,30.7-8.9,7.8-21.9,14.5-33.5,15-44.3,1.6-88.6,1.1-132.9-.4-10.2-.3-21.6-5.6-30.1-11.7-23.2-16.8-44.7-36.2-68.2-52.6-12.1-8.5-26.2-9.3-39.7,1.5-5.7,4.5-14.7,6.4-22.2,6.6-25.1.7-50.2.2-75.3-.2-5.8-.1-13.5,0-16.9-3.3-12.6-13.1-28.1-10.5-43.3-10.6-30.4-.2-60.9-.3-91.2-.4-41.5,0-56.6-10.2-68.4-50.2-10.6-36.3-9.9-72.8,4.7-108.2,11.3-27.6,26.7-37.5,56.7-37.4,45.4,0,90.7.4,136.1.5h0ZM673.5,214.1c-1.6-.4-3.1-.7-4.7-1.1.5-33.9-3.1-67.1-18.3-97.9-5.9-12-13.4-24.6-28.6-25-15.4-.5-24.8,11.5-29,23.9-8,24-16,48.7-18.9,73.7-5,42.7-1.9,85.5,19.3,124.3,5.2,9.5,16.5,19.4,26.6,21.8,13.9,3.2,21.7-10.5,28.5-21.6,1.3-2.3,2.7-4.6,3.3-7.2,7.2-30.3,14.4-60.5,21.6-90.8l.2-.2Z"/>
  <path class="cls-3" d="M673.5,214.1c-7.1,30.2-14.2,60.6-21.6,90.8-.6,2.6-1.9,4.9-3.3,7.2-6.8,11-14.6,24.8-28.5,21.6-10.2-2.4-21.4-12.3-26.6-21.8-21.2-38.8-24.3-81.6-19.3-124.3,2.9-25,10.8-49.6,18.9-73.7,4.1-12.4,13.6-24.4,29-23.9,15.2.4,22.7,13,28.6,25,15.1,30.8,18.7,64.1,18.3,97.9,1.6.4,3.1.7,4.7,1.1l-.2.2Z"/>
  <g>
    <path class="cls-6" d="M86.5,138.5v-9.9c-.1,0,1.3,0,1.3,0v9.9c.1,0-1.3,0-1.3,0ZM91,138.5l-3-7.5h-.6s0-2.4,0-2.4h.9c0,0,3,7.4,3,7.4h.3c0,0,0,2.4,0,2.4h-.6s0,0,0,0ZM91.4,138.5v-9.9c-.1,0,1.3,0,1.3,0v9.9c.1,0-1.3,0-1.3,0Z"/>
    <path class="cls-6" d="M98,138.5c-1,0-1.9-.3-2.5-1s-.9-1.6-.8-2.9c0-1.2.2-2.1.8-2.8.5-.7,1.4-1,2.4-1.1,1,0,1.9.3,2.5,1s.9,1.6.8,2.9c0,1.2-.2,2.1-.8,2.8-.5.7-1.4,1-2.4,1.1ZM98.1,137.1c.5,0,1-.3,1.3-.7s.4-1.1.4-1.9c0-.8-.2-1.4-.5-1.8s-.7-.6-1.3-.7-1,.3-1.3.7-.4,1.1-.4,1.9c0,.8.2,1.4.5,1.8s.7.6,1.3.7Z"/>
    <path class="cls-6" d="M113.8,138.2c-.7,0-1.4-.1-1.8-.5s-.7-.9-.7-1.6c0-.8.2-1.4.8-1.8.6-.5,1.4-.6,2.5-.7.4,0,.8,0,1.2,0,.3,0,.7.1.9.3l-.3,1c-.3,0-.7-.1-1-.1-.3,0-.6,0-.9,0-1.2,0-2,.5-1.9,1.2,0,.3.2.6.3.7s.5.3.9.3c.4,0,.8-.1,1.2-.3.3,0,.5-.4.7-.6.1-.2.3-.5.2-.8v-.8s.5,1.9.5,1.9h-.6s.2-.3.2-.3c0,.4,0,.8-.3,1.1-.2.3-.5.5-.9.7s-.8.2-1.3.3h.3ZM116.4,138.1v-2.2c0,0-.3-.6-.3-.6v-2c0-.5-.3-.9-.6-1.1-.4-.2-.8-.4-1.6-.4h-1.8s.1-1.3.1-1.3h1.5c1.2,0,2.1.2,2.7.8.5.5.9,1.2,1,2.2v3.1c0,0,1.3.1,1.3.1v1.2s-2.3.2-2.3.2l-.2-.2Z"/>
    <path class="cls-6" d="M124,138c-1.2,0-2.3-.3-3-.9-.7-.6-1.1-1.6-1.1-2.8s.3-2.2.9-2.9,1.6-1.1,2.8-1.1c.7,0,1.4.1,1.9.4s.9.7,1.2,1.1l-1.1.8c-.2-.4-.5-.6-.9-.8s-.7-.2-1.1-.2c-.7,0-1.3.3-1.6.7-.4.4-.5,1-.5,1.8,0,.8.2,1.5.7,1.9.4.4,1.1.6,1.9.6.3,0,.7,0,1,0s.7,0,1-.2l.2,1.3c-.4.1-.8.2-1.2.2-.4.1-.8,0-1.2,0h0Z"/>
    <path class="cls-6" d="M132.3,137.8c-1.2,0-2.3-.3-3-.9-.7-.6-1.1-1.6-1.1-2.8s.2-2.1.8-2.8c.5-.7,1.4-1,2.4-1,1,0,1.8.3,2.3.9s.8,1.4.9,2.7c0,.3,0,.6,0,.9h-5.2c0,.1,0-1,0-1h3.9c0-.7-.1-1.3-.4-1.6s-.8-.5-1.3-.6c-.6,0-1.1.3-1.5.6-.3.4-.5,1.1-.5,1.8,0,.8.2,1.5.8,2,.5.5,1.1.6,2.1.7.3,0,.6,0,.9,0l.9-.2.2,1.3c-.4.1-.8.2-1.2.1-.4.1-.7,0-.9,0Z"/>
    <path class="cls-6" d="M136.4,137.7v-1.3c0,0,4.9,0,4.9,0v1.3c0,0-4.9,0-4.9,0ZM138,137.6l-.2-7.4h1.2s.3,2.1.3,2.1v5.3c0,0-1.4,0-1.4,0h0ZM136.6,131.5v-1.3c0,0,2.4,0,2.4,0l.2,1.3h-2.6s0,.1,0,.1ZM139.5,134.4l-.5-2.4.6-.2c0-1.2.8-1.9,2-1.9.7,0,1.3.2,1.6.7.3.4.5,1.1.6,2.1h-1.5c0-.5,0-.9-.3-1.2,0-.3-.4-.4-.8-.3-.6,0-1.1.3-1.4.8s-.5,1.3-.4,2.3h0Z"/>
    <path class="cls-6" d="M149.2,137.5c-1.2,0-2.3-.3-3-.9-.7-.6-1.1-1.6-1.1-2.8,0-1.2.3-2.2.9-2.9.6-.7,1.6-1.1,2.8-1.1.7,0,1.4.1,1.9.4.5.3.9.7,1.2,1.1l-1.1.8c-.2-.4-.5-.6-.9-.8-.4-.2-.7-.2-1.1-.2-.7,0-1.3.3-1.6.7-.4.4-.5,1-.5,1.8,0,.8.2,1.5.7,1.9.4.4,1.1.6,1.9.6.3,0,.7,0,1,0s.7,0,1-.2l.2,1.3c-.4.1-.8.2-1.2.2-.4.1-.8,0-1.2,0h0Z"/>
    <path class="cls-6" d="M155.8,137.4c-.7,0-1.4-.1-1.8-.5-.4-.4-.7-.9-.7-1.6,0-.8.2-1.4.8-1.8.6-.5,1.4-.6,2.5-.7.4,0,.8,0,1.2,0,.3,0,.7.1.9.3l-.3,1c-.3,0-.7-.1-1-.1-.3,0-.6,0-.9,0-1.2,0-2,.5-1.9,1.2,0,.3.2.6.3.7.2.1.5.3.9.3s.8-.1,1.2-.3c.3,0,.5-.4.7-.6s.3-.5.2-.8v-.8s.5,1.9.5,1.9h-.6s.2-.3.2-.3c0,.4,0,.8-.3,1.1-.2.3-.5.5-.9.7s-.8.2-1.3.3h.3ZM158.3,137.3v-2.2c0,0-.3-.6-.3-.6v-2c0-.5-.3-.9-.6-1.1s-.8-.4-1.6-.4h-1.8s.1-1.3.1-1.3h1.5c1.2,0,2.1.2,2.7.8.5.5.9,1.2,1,2.2v3.1c0,0,1.3.1,1.3.1v1.2s-2.3.2-2.3.2l-.2-.2Z"/>
    <path class="cls-6" d="M161.6,137.1v-1.3c0,0,4.9,0,4.9,0v1.3c0,0-4.9,0-4.9,0ZM163.3,137.1l-.2-7.4h1.2s.3,2.1.3,2.1v5.3c0,0-1.4,0-1.4,0h0ZM161.7,131v-1.3c0,0,2.4,0,2.4,0l.2,1.3h-2.6s0,.1,0,.1ZM164.7,133.9l-.5-2.4.6-.2c0-1.2.8-1.9,2-1.9.7,0,1.3.2,1.6.7.3.4.5,1.1.6,2.1h-1.5c0-.5,0-.9-.3-1.2,0-.3-.4-.4-.8-.3-.6,0-1.1.3-1.4.8-.3.5-.5,1.3-.4,2.3h0Z"/>
    <path class="cls-6" d="M88.9,155.9c-.7,0-1.4-.1-1.8-.5s-.7-.9-.7-1.6c0-.8.2-1.4.8-1.8.6-.5,1.4-.6,2.5-.7.4,0,.8,0,1.2,0,.3,0,.7.1.9.3l-.3,1c-.3,0-.7-.1-1-.1s-.6,0-.9,0c-1.2,0-2,.5-1.9,1.2,0,.3.2.6.3.7.2.1.5.3.9.3.4,0,.8-.1,1.2-.3.3,0,.5-.4.7-.6.1-.2.3-.5.2-.8v-.8s.5,1.9.5,1.9h-.6s.2-.3.2-.3c0,.4,0,.8-.3,1.1s-.5.5-.9.7-.8.2-1.3.3h.3ZM91.5,155.7v-2.2c0,0-.3-.6-.3-.6v-2c0-.5-.3-.9-.6-1.1s-.8-.4-1.6-.4h-1.8s.1-1.3.1-1.3h1.5c1.2,0,2.1.2,2.7.8s.9,1.2,1,2.2v3.1c0,0,1.3.1,1.3.1v1.2s-2.3.2-2.3.2l-.2-.2Z"/>
    <path class="cls-6" d="M103.1,146.3v-1.3c0,0,2.2,0,2.2,0v1.3c0,0-2.2,0-2.2,0ZM107.9,155.5c-.8,0-1.5-.2-1.9-.7-.3-.4-.6-1.2-.6-2.2v-7.7c-.1,0,1.3,0,1.3,0v7.7c.1.4.2.7.3,1s.2.5.5.5c.2.1.6.2,1,.1.4-.1.9-.2,1.5-.3l.2,1.3-1.1.3c-.3,0-.7,0-1.1.1h0Z"/>
    <path class="cls-6" d="M115.2,155.4c-1,0-1.9-.3-2.5-1s-.9-1.6-.8-2.9c0-1.2.2-2.1.8-2.8.5-.7,1.4-1,2.4-1.1,1,0,1.9.3,2.5,1s.9,1.6.8,2.9c0,1.2-.2,2.1-.8,2.8-.5.7-1.4,1-2.4,1.1ZM115.2,154c.5,0,1-.3,1.3-.7s.4-1.1.4-1.9c0-.8-.2-1.4-.5-1.8s-.7-.6-1.3-.7-1,.3-1.3.7-.4,1.1-.4,1.9c0,.8.2,1.4.5,1.8s.7.6,1.3.7Z"/>
    <path class="cls-6" d="M123,155.2c-.5,0-1,0-1.5,0s-.8,0-1.1-.1v-1.4c.7,0,1.1.1,1.4.1.4,0,.7,0,1,0,.7,0,1.3,0,1.6-.2.4-.1.5-.4.5-.7v-.5c-.2,0-.4-.2-.7-.2l-1.7-.5c-.8-.2-1.3-.4-1.6-.7-.4-.3-.5-.7-.6-1.2,0-.8.3-1.4.9-1.8s1.6-.6,3-.7c.3,0,.7,0,1,0,.3,0,.6,0,1,.1v1.3c-.6,0-.9,0-1.1,0s-.5,0-.8,0c-.8,0-1.4,0-1.8.2s-.5.4-.5.7c0,.2.1.4.2.5s.4.2.7.2l1.3.3c.8.2,1.4.4,1.8.7.4.3.5.8.6,1.4,0,.8-.2,1.4-.8,1.8s-1.5.5-2.8.6h-.1Z"/>
    <path class="cls-6" d="M140.4,154.9c-1,0-1.9-.3-2.5-1s-.9-1.6-.8-2.9c0-1.2.2-2.1.8-2.8.5-.7,1.4-1,2.4-1.1,1,0,1.9.3,2.5,1,.6.7.9,1.6.8,2.9,0,1.2-.2,2.1-.8,2.8-.5.7-1.4,1-2.4,1.1h0ZM140.3,153.6c.5,0,1-.3,1.3-.7s.4-1.1.4-1.9c0-.8-.2-1.4-.5-1.8s-.7-.6-1.3-.7c-.5,0-1,.3-1.3.7s-.4,1.1-.4,1.9c0,.8.2,1.4.5,1.8s.7.6,1.3.7Z"/>
    <path class="cls-6" d="M145.9,158v-1.3c0,0,1.3-.2,1.3-.2.7,0,1.2-.4,1.6-.7.3-.4.5-1,.5-1.7v-2.3s1.4,0,1.4,0v2.1c.1.9,0,1.6-.2,2.2s-.6,1-1.2,1.3-1.2.5-2.1.6h-1.2c0,.1,0,0,0,0ZM146.3,148.6v-1.3c0,0,2.9,0,2.9,0v1.3c0,0-2.9,0-2.9,0ZM149.3,152.2v-5c0,0,1.4,0,1.4,0v5c0,0-1.4,0-1.4,0ZM149.7,146c-.3,0-.5,0-.7-.3-.2-.2-.3-.4-.3-.7,0-.3,0-.5.3-.7.2-.2.4-.3.7-.3.3,0,.5,0,.7.3s.3.4.3.7c0,.3,0,.5-.3.7s-.4.3-.7.3Z"/>
    <path class="cls-6" d="M157.2,154.6c-1,0-1.9-.3-2.5-1-.6-.7-.9-1.6-.8-2.9,0-1.2.2-2.1.8-2.8.5-.7,1.4-1,2.4-1.1,1,0,1.9.3,2.5,1,.6.7.9,1.6.8,2.9,0,1.2-.2,2.1-.8,2.8s-1.4,1-2.4,1.1ZM157.2,153.2c.5,0,1-.3,1.3-.7s.4-1.1.4-1.9c0-.8-.2-1.4-.5-1.8s-.7-.6-1.3-.7c-.5,0-1,.3-1.3.7s-.4,1.1-.4,1.9c0,.8.2,1.4.5,1.8s.7.6,1.3.7Z"/>
    <path class="cls-6" d="M165,154.4c-.5,0-1,0-1.5,0s-.8,0-1.1-.1v-1.4c.7,0,1.1.1,1.4.1.4,0,.7,0,1,0,.7,0,1.3,0,1.6-.2.4-.1.5-.4.5-.7v-.5c-.2,0-.4-.2-.7-.2l-1.7-.5c-.8-.2-1.3-.4-1.6-.7s-.5-.7-.6-1.2c0-.8.3-1.4.9-1.8.6-.4,1.6-.6,3-.7.3,0,.7,0,1,0,.3,0,.6,0,1,.1v1.3c-.6,0-.9,0-1.1,0s-.5,0-.8,0c-.8,0-1.4,0-1.8.2s-.5.4-.5.7c0,.2.1.4.2.5s.4.2.7.2l1.3.3c.8.2,1.4.4,1.8.7.4.3.5.8.6,1.4,0,.8-.2,1.4-.8,1.8-.6.4-1.5.5-2.8.6h-.1Z"/>
  </g>
  <path class="cls-4" d="M254.5,308.7h0c1.8-13.8,13.7-24,27.5-23.8l35.7.7c11.2.2,20.5,8.8,21.5,19.9l.4,5.2c.5,5-3.5,9.1-8.5,9l-68.8-1.7c-4.9-.1-8.6-4.5-8-9.3h0Z"/>
  <path class="cls-5" d="M389.6,120.1c-21.9,32.7-30.1,73-26.8,111.9,2.6,28.9,10.8,56.3,21,83.6-11.1-16.2-19.4-34.4-25.2-53.3-9.3-31.9-9.7-67,2.2-98.3,6.3-16.4,15.5-32.1,28.7-43.9h.1Z"/>
  <circle class="cls-5" cx="85.5" cy="280" r="17.9"/>
  <g class="cls-2">
    <text class="cls-1" transform="translate(75.1 287.9) rotate(8.3) scale(1.2 1)"><tspan x="0" y="0">X</tspan></text>
  </g>
</svg>