<?xml version="1.0" encoding="UTF-8"?>
<svg id="Capa_1" data-name="Capa 1" xmlns="http://www.w3.org/2000/svg" version="1.1" viewBox="0 0 927 743">
  <defs>
    <style>
      .cls-1 {
        fill: #000;
        font-family: BerlinSansFB-Reg, 'Berlin Sans FB';
        font-size: 28.8px;
      }

      .cls-1, .cls-2, .cls-3 {
        isolation: isolate;
      }

      .cls-4 {
        fill: #7f00ff;
        stroke: #3a3a3a;
        stroke-miterlimit: 10;
        stroke-width: 20.7px;
      }

      .cls-5 {
        fill: #aa2636;
      }

      .cls-5, .cls-6, .cls-7, .cls-8, .cls-9, .cls-10 {
        stroke-width: 0px;
      }

      .cls-6 {
        fill: #250643;
      }

      .cls-7, .cls-3 {
        fill: #b69ecf;
      }

      .cls-3 {
        font-family: Calibri-Italic, Calibri;
        font-size: 22.3px;
        font-style: italic;
      }

      .cls-8 {
        fill: #3a3a3a;
      }

      .cls-9 {
        fill: #333;
      }

      .cls-10 {
        fill: #acacac;
      }
    </style>
  </defs>
  <g>
    <path class="cls-10" d="M361,300c44.6,13,89.1,26.4,133.9,38.6,8.6,2.3,19.3,2.1,27.6-.9,25.5-9,50-20.9,75.7-29.5,10.4-3.5,23.4-3.9,34-1.2,39.8,10.3,78.9,22.9,118.6,33.8,22,6,34.4,19.9,39.8,41.4,9.1,36.7,5.6,73.3-2.8,109.3-12,51.1-27.3,101.2-61.4,142.8-7.7,9.3-16.6,19.3-27.1,24.2-10.7,5-25.1,7.9-36.3,5.2-43-10.7-85.5-23.4-127.6-37-9.7-3.1-19.2-11.3-25.7-19.5-17.7-22.6-33-47.1-51-69.4-9.3-11.5-22.6-16.2-38.6-9.5-6.7,2.8-15.9,2.1-23.2.2-24.3-6.2-48.3-13.6-72.3-20.9-5.5-1.7-13-3.7-15.3-7.8-8.5-16.1-24.1-17.8-38.7-22.1-29.2-8.6-58.4-17.1-87.6-25.5-39.9-11.5-51.6-25.4-51.9-67.1-.2-37.8,10.6-72.7,34.4-102.7,18.5-23.4,36-28.7,64.8-20.3,43.6,12.6,87.1,25.4,130.7,38h0ZM748.4,508.5c-1.4-.8-2.8-1.5-4.2-2.3,9.8-32.5,15.5-65.4,9.4-99.2-2.4-13.2-6.1-27.3-20.6-31.9-14.7-4.7-27,4.2-34.5,15-14.3,20.9-28.8,42.4-38.5,65.6-16.6,39.7-25.4,81.7-15.7,124.8,2.4,10.6,10.5,23.2,19.6,28.3,12.5,6.9,23.8-4.1,33.3-12.9,1.9-1.8,3.9-3.7,5.2-6,15.3-27.1,30.5-54.2,45.8-81.3h.2Z"/>
    <path class="cls-4" d="M748.4,508.5c-15.2,27.1-30.4,54.3-45.8,81.3-1.3,2.3-3.2,4.2-5.2,6-9.6,8.7-20.9,19.8-33.3,12.9-9.1-5.1-17.2-17.7-19.6-28.3-9.7-43.1-.9-85.1,15.7-124.8,9.7-23.2,24.1-44.7,38.5-65.6,7.4-10.8,19.8-19.7,34.5-15,14.5,4.6,18.2,18.7,20.6,31.9,6,33.8.3,66.8-9.4,99.2,1.4.8,2.8,1.5,4.2,2.3h-.2Z"/>
    <g>
      <path class="cls-9" d="M205,274l2.6-9.6,1.4.4-2.6,9.6-1.4-.4ZM209.3,275.2l-.8-8-.6-.2.6-2.3.9.2.8,8h.3l-.6,2.4-.6-.2h0ZM209.7,275.3l2.6-9.6,1.4.4-2.6,9.6-1.4-.4Z"/>
      <path class="cls-9" d="M216.1,277.1c-1-.3-1.7-.8-2.1-1.6s-.4-1.8,0-3c.3-1.2.8-2,1.6-2.5.7-.5,1.6-.6,2.6-.4,1,.3,1.7.8,2.1,1.6s.4,1.8,0,3c-.3,1.2-.8,2-1.6,2.5-.7.5-1.6.6-2.6.4ZM216.5,275.8c.5.1,1,0,1.4-.3s.7-.9.9-1.7c.2-.8.2-1.4,0-1.9s-.5-.8-1.1-1-1,0-1.4.3-.7.9-.9,1.7c-.2.8-.2,1.4,0,1.9s.5.8,1.1,1Z"/>
      <path class="cls-9" d="M231.3,281.2c-.7-.2-1.3-.5-1.6-1s-.4-1-.2-1.7c.2-.8.6-1.3,1.3-1.5.7-.3,1.5-.2,2.6,0,.4.1.8.2,1.1.4.3.1.6.3.8.5l-.6.9c-.3-.1-.6-.3-.9-.4-.3,0-.6-.2-.9-.3-1.2-.3-2-.1-2.2.6,0,.3,0,.6.1.8s.4.4.8.5c.4.1.8.1,1.2,0,.3,0,.6-.2.8-.4.2-.2.4-.4.4-.7l.2-.8v2l-.6-.2.3-.2c-.1.4-.3.7-.6,1-.3.2-.6.4-1,.4s-.8,0-1.3-.1l.3.2ZM233.9,281.8l.5-2.1v-.6l.5-1.9c.1-.5,0-.9-.2-1.2-.3-.3-.7-.6-1.4-.8l-1.7-.5.5-1.2,1.4.4c1.2.3,2,.8,2.4,1.5.4.6.5,1.4.3,2.4l-.8,3,1.2.5-.3,1.2-2.3-.5v-.2Z"/>
      <path class="cls-9" d="M241.2,283.8c-1.2-.3-2.1-.9-2.6-1.7-.5-.8-.6-1.8-.3-3s.9-2,1.7-2.5,1.8-.6,3-.3c.7.2,1.3.5,1.7.9s.7.9.8,1.4l-1.3.5c-.1-.4-.3-.7-.6-1s-.6-.4-1-.5c-.7-.2-1.3-.1-1.7.2-.5.3-.8.8-1,1.6-.2.8-.2,1.5.2,2,.3.5.9.9,1.7,1.1.3,0,.7.2,1,.2s.7.1,1,.1l-.2,1.3c-.4,0-.8,0-1.2-.1-.4,0-.8-.2-1.2-.3h0Z"/>
      <path class="cls-9" d="M249.2,285.9c-1.2-.3-2.1-.9-2.6-1.7-.5-.8-.6-1.8-.3-3s.8-2,1.6-2.5c.7-.5,1.6-.6,2.6-.3,1,.3,1.6.8,2,1.5s.4,1.6.1,2.8c0,.3-.2.6-.3.9l-5-1.3.3-1.1,3.8,1c.2-.6.2-1.2,0-1.6s-.6-.7-1.1-.9c-.6-.2-1.1,0-1.6.2-.4.3-.8.9-1,1.6-.2.8-.2,1.5.2,2.1.3.6.9.9,1.8,1.2.3,0,.6.1.9.2h.9l-.2,1.3c-.4,0-.8,0-1.2-.2-.4,0-.7-.1-.9-.2Z"/>
      <path class="cls-9" d="M253.2,286.9l.3-1.3,4.8,1.3-.3,1.3-4.8-1.3ZM254.8,287.3l1.9-7.2,1.2.3-.3,2.1-1.4,5.1-1.4-.4h0ZM255.1,281l.3-1.3,2.4.6-.2,1.3-2.5-.7h0ZM257.1,284.6l.2-2.4h.6c.4-1.1,1.3-1.6,2.5-1.3.7.2,1.2.6,1.4,1.1.2.5.2,1.2,0,2.2l-1.4-.4c.1-.5.2-.9,0-1.2,0-.3-.3-.5-.7-.5-.6-.2-1.1,0-1.6.4s-.8,1.1-1,2.1h0Z"/>
      <path class="cls-9" d="M265.5,290.3c-1.2-.3-2.1-.9-2.6-1.7-.5-.8-.6-1.8-.3-3,.3-1.2.9-2,1.7-2.5.8-.5,1.8-.6,3-.3.7.2,1.3.5,1.7.9.4.4.7.9.8,1.4l-1.3.5c-.1-.4-.3-.7-.6-1-.3-.3-.6-.4-1-.5-.7-.2-1.3-.1-1.7.2-.5.3-.8.8-1,1.6-.2.8-.2,1.5.2,2,.3.5.9.9,1.7,1.1.3,0,.7.2,1,.2s.7.1,1,.1l-.2,1.3c-.4,0-.8,0-1.2-.1-.4,0-.8-.2-1.2-.3h0Z"/>
      <path class="cls-9" d="M271.9,292c-.7-.2-1.3-.5-1.6-1-.3-.5-.4-1-.2-1.7.2-.8.6-1.3,1.3-1.5.7-.3,1.5-.2,2.6,0,.4.1.8.2,1.1.4.3.1.6.3.8.5l-.6.9c-.3-.1-.6-.3-.9-.4-.3,0-.6-.2-.9-.3-1.2-.3-2-.1-2.2.6,0,.3,0,.6.1.8.2.2.4.4.8.5s.8.1,1.2,0c.3,0,.6-.2.8-.4s.4-.4.4-.7l.2-.8v2l-.6-.2.3-.2c-.1.4-.3.7-.6,1-.3.2-.6.4-1,.4s-.8,0-1.3-.1l.3.2ZM274.4,292.6l.5-2.1v-.6l.5-1.9c.1-.5,0-.9-.2-1.2s-.7-.6-1.4-.8l-1.7-.5.5-1.2,1.4.4c1.2.3,2,.8,2.4,1.5.4.6.5,1.4.3,2.4l-.8,3,1.2.5-.3,1.2-2.3-.5v-.2Z"/>
      <path class="cls-9" d="M277.6,293.3l.3-1.3,4.8,1.3-.3,1.3-4.8-1.3ZM279.2,293.8l1.9-7.2,1.2.3-.3,2.1-1.4,5.1-1.4-.4h0ZM279.4,287.5l.3-1.3,2.4.6-.2,1.3-2.5-.7h0ZM281.4,291.1l.2-2.4h.6c.4-1.1,1.3-1.6,2.5-1.3.7.2,1.2.6,1.4,1.1.2.5.2,1.2,0,2.2l-1.4-.4c.1-.5.2-.9,0-1.2,0-.3-.3-.5-.7-.5-.6-.2-1.1,0-1.6.4-.4.4-.8,1.1-1,2.1h0Z"/>
      <path class="cls-9" d="M202.5,291.3c-.7-.2-1.3-.5-1.6-1s-.4-1-.2-1.7c.2-.8.6-1.3,1.3-1.5.7-.3,1.5-.2,2.6,0,.4.1.8.2,1.1.4.3.1.6.3.8.5l-.6.9c-.3-.1-.6-.3-.9-.4s-.6-.2-.9-.3c-1.2-.3-2-.1-2.2.6,0,.3,0,.6.1.8.2.2.4.4.8.5.4.1.8.1,1.2,0,.3,0,.6-.2.8-.4.2-.2.4-.4.4-.7l.2-.8v2l-.6-.2.3-.2c-.1.4-.3.7-.6,1s-.6.4-1,.4-.8,0-1.3-.1l.3.2ZM205.1,291.9l.5-2.1v-.6l.5-1.9c.1-.5,0-.9-.2-1.2s-.7-.6-1.4-.8l-1.7-.5.5-1.2,1.4.4c1.2.3,2,.8,2.4,1.5s.5,1.4.3,2.4l-.8,3,1.2.5-.3,1.2-2.3-.5v-.2Z"/>
      <path class="cls-9" d="M218.8,286l.3-1.3,2.2.6-.3,1.3-2.2-.6ZM220.9,296.2c-.8-.2-1.4-.6-1.6-1.2-.2-.5-.2-1.3,0-2.3l2-7.4,1.4.4-2,7.4c-.1.4-.1.7-.1,1s.1.5.3.6c.2.2.5.3.9.4.4,0,.9.1,1.5.1l-.2,1.3h-1.1c-.3,0-.7-.1-1.1-.2h0Z"/>
      <path class="cls-9" d="M227.9,298.1c-1-.3-1.7-.8-2.1-1.6s-.4-1.8,0-3c.3-1.2.8-2,1.6-2.5.7-.5,1.6-.6,2.6-.4,1,.3,1.7.8,2.1,1.6s.4,1.8,0,3c-.3,1.2-.8,2-1.6,2.5-.7.5-1.6.6-2.6.4ZM228.3,296.8c.5.1,1,0,1.4-.3s.7-.9.9-1.7c.2-.8.2-1.4,0-1.9s-.5-.8-1.1-1-1,0-1.4.3-.7.9-.9,1.7c-.2.8-.2,1.4,0,1.9s.5.8,1.1,1Z"/>
      <path class="cls-9" d="M235.5,300.1c-.5-.1-1-.3-1.4-.4s-.7-.3-1-.4l.5-1.3c.5.2.9.4,1.2.5.4.1.7.2,1,.3.7.2,1.3.3,1.6.2.4,0,.6-.2.7-.5v-.5c0-.1-.2-.3-.5-.4l-1.5-.9c-.7-.4-1.1-.7-1.4-1.1-.3-.4-.3-.8-.2-1.3.2-.8.7-1.3,1.4-1.5s1.7-.1,3.1.2c.3,0,.7.2,1,.3.3,0,.6.2.9.4l-.5,1.2c-.4-.1-.7-.2-.9-.3s-.5-.2-.8-.2c-.8-.2-1.4-.3-1.8-.3s-.6.2-.7.5c0,.2,0,.4.1.5s.3.3.6.4l1.2.7c.7.4,1.2.8,1.5,1.2.3.4.3.9.2,1.5-.2.8-.6,1.3-1.3,1.5s-1.6.1-2.9-.2h-.1Z"/>
      <path class="cls-9" d="M252.3,304.6c-1-.3-1.7-.8-2.1-1.6s-.4-1.8,0-3c.3-1.2.8-2,1.6-2.5.7-.5,1.6-.6,2.6-.4,1,.3,1.7.8,2.1,1.6.4.8.4,1.8,0,3-.3,1.2-.8,2-1.6,2.5-.7.5-1.6.6-2.6.4h0ZM252.6,303.3c.5.1,1,0,1.4-.3s.7-.9.9-1.7c.2-.8.2-1.4,0-1.9s-.5-.8-1.1-1c-.5-.1-1,0-1.4.3s-.7.9-.9,1.7c-.2.8-.2,1.4,0,1.9s.5.8,1.1,1Z"/>
      <path class="cls-9" d="M256.7,309.1l.3-1.3,1.4.2c.7.1,1.3,0,1.7-.2.4-.3.7-.8.9-1.5l.6-2.2,1.4.4-.5,2c-.2.9-.5,1.5-.9,2s-.9.8-1.5.9-1.3.1-2.2,0l-1.2-.2h0ZM259.7,300.1l.3-1.3,2.9.8-.3,1.3-2.9-.8ZM261.6,304.4l1.3-4.8,1.4.4-1.3,4.8-1.4-.4ZM263.7,298.6c-.3,0-.5-.2-.6-.5-.1-.2-.2-.5-.1-.8,0-.3.2-.5.5-.6.2-.1.5-.2.8-.1.3,0,.5.2.6.5s.2.5.1.8c0,.3-.2.5-.5.6s-.5.2-.8.1Z"/>
      <path class="cls-9" d="M268.5,308.9c-1-.3-1.7-.8-2.1-1.6-.4-.8-.4-1.8,0-3,.3-1.2.8-2,1.6-2.5.7-.5,1.6-.6,2.6-.4,1,.3,1.7.8,2.1,1.6.4.8.4,1.8,0,3-.3,1.2-.8,2-1.6,2.5s-1.6.6-2.6.4ZM268.9,307.6c.5.1,1,0,1.4-.3s.7-.9.9-1.7c.2-.8.2-1.4,0-1.9s-.5-.8-1.1-1c-.5-.1-1,0-1.4.3s-.7.9-.9,1.7c-.2.8-.2,1.4,0,1.9s.5.8,1.1,1Z"/>
      <path class="cls-9" d="M276.1,310.9c-.5-.1-1-.3-1.4-.4s-.7-.3-1-.4l.5-1.3c.5.2.9.4,1.2.5.4.1.7.2,1,.3.7.2,1.3.3,1.6.2.4,0,.6-.2.7-.5v-.5c0-.1-.2-.3-.5-.4l-1.5-.9c-.7-.4-1.1-.7-1.4-1.1s-.3-.8-.2-1.3c.2-.8.7-1.3,1.4-1.5.7-.2,1.7-.1,3.1.2.3,0,.7.2,1,.3.3,0,.6.2.9.4l-.5,1.2c-.4-.1-.7-.2-.9-.3s-.5-.2-.8-.2c-.8-.2-1.4-.3-1.8-.3s-.6.2-.7.5c0,.2,0,.4.1.5s.3.3.6.4l1.2.7c.7.4,1.2.8,1.5,1.2.3.4.3.9.2,1.5-.2.8-.6,1.3-1.3,1.5-.7.2-1.6.1-2.9-.2h-.1Z"/>
    </g>
    <path class="cls-5" d="M319.6,483.9h0c5.5-12.8,19.8-19.3,33-15.3l34.1,10.5c10.7,3.3,17.3,14.1,15.2,25.1l-1,5.1c-.9,4.9-5.9,7.8-10.6,6.3l-65.7-20.6c-4.7-1.5-7-6.7-5.1-11.1h0Z"/>
    <path class="cls-8" d="M501.4,339.8c-30.1,25.4-49.1,61.9-56.6,100.2-5.5,28.5-5.1,57.1-2.9,86.1-6.2-18.6-9.2-38.4-9.5-58.2-.1-33.2,9.2-67.1,29.2-93.9,10.6-14,23.8-26.6,39.7-34.3h0Z"/>
    <circle class="cls-8" cx="165" cy="409.7" r="17.9"/>
    <g class="cls-2">
      <text class="cls-1" transform="translate(152.9 414.4) rotate(24.3) scale(1.2 1)"><tspan x="0" y="0">X</tspan></text>
    </g>
  </g>
  <g>
    <path class="cls-6" d="M302.6,121.7h321.9c24.4,0,44.2,19.8,44.2,44.2h0c0,24.4-19.8,44.1-44.2,44.1h-321.9c-24.4,0-44.2-19.8-44.2-44.1h0c0-24.4,19.8-44.2,44.2-44.2Z"/>
    <g>
      <path class="cls-7" d="M314.9,146.9h8.4v30.9h12.3v7.1h-20.6v-38h0Z"/>
      <path class="cls-7" d="M342.2,146.9h8.4v21.7c0,3.1.1,5.2.4,6.4s.9,2.1,1.7,2.7c.9.6,2,.9,3.2.9s2.5-.3,3.3-1,1.3-1.6,1.5-2.7c.2-1.1.3-3.2.3-6.3v-21.7h7v21.4c0,4.3-.2,7.5-.7,9.6s-1.7,3.9-3.8,5.4-4.8,2.3-8.3,2.3-5.9-.6-7.8-1.7c-1.9-1.1-3.2-2.7-4-4.7s-1.2-5.5-1.2-10.6v-21.7h0Z"/>
      <path class="cls-7" d="M375.9,146.9h24.4v5.9l-15.9,25.3h16.4v6.8h-26.1v-5.8l16-25.4h-14.8v-6.8Z"/>
      <path class="cls-7" d="M416.8,146.9h8.8l5.8,29,6-29h7.2l-9.3,38.2-9.4-.2-9.1-38Z"/>
      <path class="cls-7" d="M450.4,146.9h8.4v38h-8.4v-38Z"/>
      <path class="cls-7" d="M495.2,165.8c0,13.1-4.6,19.6-13.8,19.6s-8-1.7-10.3-5-3.5-8.2-3.5-14.6c0-13.1,4.6-19.6,13.8-19.6s7.9,1.6,10.3,4.9c2.4,3.3,3.5,8.2,3.5,14.7h0ZM486.4,165.8c0-5.1-.4-8.5-1.2-10.2-.8-1.7-2.1-2.5-3.8-2.5s-3,.9-3.8,2.6c-.8,1.7-1.2,5.1-1.2,10.2s.4,8.4,1.2,10.2,2.1,2.6,3.8,2.6,3-.8,3.8-2.5,1.2-5.1,1.2-10.3h0Z"/>
      <path class="cls-7" d="M504,146.9h8.4v30.9h12.3v7.1h-20.6v-38h-.1Z"/>
      <path class="cls-7" d="M531.3,146.9h23.1v6.5h-14.8v8.8h11.5v6.5h-11.5v9.4h14.8v6.8h-23.1v-38Z"/>
      <path class="cls-7" d="M557.3,146.9h23.7v7.1h-7.8v30.9h-8.4v-30.9h-7.6v-7.1h0Z"/>
      <path class="cls-7" d="M592.9,146.9h8.4l10.9,38h-8.5l-1.9-7.9h-10.7l-1.9,7.9h-7.7l11.4-38ZM600.1,170.5l-3.8-15.6-3.7,15.6h7.5Z"/>
    </g>
  </g>
  <text class="cls-3" transform="translate(325.1 239)"><tspan x="0" y="0">Ahora podrás ver más secretos</tspan></text>
</svg>