<?xml version="1.0" encoding="UTF-8"?>
<svg id="Capa_1" data-name="Capa 1" xmlns="http://www.w3.org/2000/svg" version="1.1" viewBox="0 0 400 400">
  <defs>
    <style>
      .cls-1 {
        fill: #000;
        stroke-width: 0px;
      }
    </style>
  </defs>
  <path class="cls-1" d="M31.6,200.1h80.4c0,.8,0,1.6,0,2.4,0,9,0,18,0,27,0,7.4,5.6,13.4,12.9,14.3,7.1.9,14-3.8,15.8-10.8.4-1.5.5-3.2.5-4.8,0-8.6,0-17.1,0-25.7,0-.8,0-1.6,0-2.5h117c0,.8.1,1.6.1,2.4,0,8.8,0,17.6,0,26.4,0,6.4,3,11.3,9,13.9,5.7,2.5,11.1,1.4,15.7-2.8,3.2-2.9,4.7-6.7,4.7-11,0-8.8,0-17.6,0-26.4,0-.8,0-1.6,0-2.5h80.4c0,.8.1,1.5.1,2.2,0,38,.1,76,0,114.1-.1,24.3-11.4,42.2-32.8,53.5-7.6,4-15.8,5.9-24.3,5.9-39.2,0-78.4,0-117.6,0-34.4,0-68.7,0-103.1,0-17.9,0-32.9-6.8-44.7-20.3-9.2-10.4-14.2-22.7-14.2-36.7-.2-39,0-78.1,0-117.1,0-.5,0-1,.1-1.6Z"/>
  <path class="cls-1" d="M75.4,60.8c0-4.8,0-9.2,0-13.5,0-13.7,9.3-23,23-23,11.6,0,23.1,0,34.7,0,13.3,0,22.8,9.5,22.8,22.9,0,4.5,0,8.9,0,13.5h87.9c0-4.8,0-9.6,0-14.4,0-9.2,5.5-17.2,14-20.4,2.5-1,5.4-1.5,8.1-1.5,12-.2,24-.1,36,0,12.8,0,22.2,9.4,22.3,22.2,0,4.7,0,9.4,0,14.3,1,0,1.8.1,2.7.1,7.6.1,15.3-.2,22.8.4,14,1.1,25.4,13.5,25.7,27.5.3,13.4.3,26.8,0,40.2-.6,22.3-19.4,40.9-41.7,41.7-1.5,0-3.1,0-4.6,0-87,0-173.9,0-260.9,0-22.1,0-39.8-14.8-43.8-36.6-.5-2.6-.6-5.2-.6-7.9,0-11.8,0-23.6,0-35.4,0-17.3,12.8-30,30.2-30.1,6.2,0,12.5,0,18.7,0,.7,0,1.4,0,2.5,0Z"/>
</svg>