<?xml version="1.0" encoding="UTF-8"?>
<svg id="Capa_1" data-name="Capa 1" xmlns="http://www.w3.org/2000/svg" version="1.1" viewBox="0 0 1433 800">
  <defs>
    <style>
      .cls-1 {
        fill: #76531a;
      }

      .cls-1, .cls-2, .cls-3, .cls-4, .cls-5, .cls-6, .cls-7, .cls-8, .cls-9, .cls-10, .cls-11, .cls-12 {
        stroke-width: 0px;
      }

      .cls-2 {
        fill: #615233;
      }

      .cls-3 {
        fill: #e2ff45;
      }

      .cls-4 {
        fill: #f2f2f2;
      }

      .cls-5 {
        fill: #796743;
      }

      .cls-6 {
        fill: #858585;
      }

      .cls-7 {
        fill: #666;
      }

      .cls-13 {
        opacity: .3;
      }

      .cls-8 {
        fill: #ef7c26;
      }

      .cls-9 {
        fill: #999;
      }

      .cls-10 {
        fill: #3d3422;
      }

      .cls-11 {
        fill: #1e1a11;
      }

      .cls-12 {
        fill: #fff;
      }
    </style>
  </defs>
  <rect class="cls-12" x="-2" width="1435" height="800"/>
  <g>
    <g>
      <path class="cls-5" d="M552.7,424.4c-9.6-.3-17.3-8.2-17.3-17.9v-94h17.3v111.8Z"/>
      <path class="cls-10" d="M552.2,313.1v110.7c-9.1-.5-16.3-8.1-16.3-17.3v-93.5h16.3M553.2,312.1h-18.4v94.5c0,10.1,8.2,18.4,18.4,18.4h0v-112.9h0Z"/>
    </g>
    <g>
      <path class="cls-5" d="M469.7,428.1v-94c0-9.7,7.7-17.6,17.3-17.9v111.8h-17.3Z"/>
      <path class="cls-10" d="M486.5,316.9v110.7h-16.3v-93.5c0-9.2,7.2-16.7,16.3-17.3M487.6,315.8h0c-10.1,0-18.4,8.2-18.4,18.4v94.5h18.4v-112.9h0Z"/>
    </g>
    <g>
      <path class="cls-5" d="M507.5,291.1h17.3v94c0,9.7-7.7,17.6-17.3,17.9v-111.8Z"/>
      <path class="cls-10" d="M524.3,291.6v93.5c0,9.2-7.2,16.7-16.3,17.3v-110.7h16.3M525.4,290.6h-18.4v112.9h0c10.1,0,18.4-8.2,18.4-18.4v-94.5h0Z"/>
    </g>
    <g>
      <path class="cls-2" d="M440.1,365.6c-4.8,0-8.7-3.9-8.7-8.7s3.9-8.7,8.7-8.7h103.2v17.3h-103.2Z"/>
      <path class="cls-11" d="M542.7,348.8v16.3h-102.6c-4.5,0-8.1-3.7-8.1-8.1s3.7-8.1,8.1-8.1h102.6M543.8,347.8h-103.7c-5.1,0-9.2,4.1-9.2,9.2s4.1,9.2,9.2,9.2h103.7v-18.4h0Z"/>
    </g>
    <g>
      <path class="cls-5" d="M573.2,424.4v-111.8c9.6.3,17.3,8.2,17.3,17.9v94h-17.3Z"/>
      <path class="cls-10" d="M573.7,313.2c9.1.5,16.3,8.1,16.3,17.3v93.5h-16.3v-110.7M572.6,312.1h0v112.9h18.4v-94.5c0-10.1-8.2-18.4-18.4-18.4h0Z"/>
    </g>
    <g>
      <path class="cls-2" d="M535.4,329.9v-17.3h37.3c9.7,0,17.6,7.7,17.9,17.3h-55.1Z"/>
      <path class="cls-11" d="M572.6,313.1c9.2,0,16.7,7.2,17.3,16.3h-54v-16.3h36.8M572.6,312.1h-37.8v18.4h56.2c0-10.1-8.2-18.4-18.4-18.4h0Z"/>
    </g>
    <g>
      <path class="cls-2" d="M553.2,424.4c-9.7,0-17.6-7.7-17.9-17.3h55.1v17.3h-37.3Z"/>
      <path class="cls-11" d="M590,407.6v16.3h-36.8c-9.2,0-16.7-7.2-17.3-16.3h54M591,406.6h-56.2c0,10.1,8.2,18.4,18.4,18.4h37.8v-18.4h0Z"/>
    </g>
    <g>
      <path class="cls-5" d="M719.7,420.8c-9.6-.3-17.3-8.2-17.3-17.9v-94h17.3v111.8Z"/>
      <path class="cls-10" d="M719.1,309.5v110.7c-9.1-.5-16.3-8.1-16.3-17.3v-93.5h16.3M720.2,308.4h-18.4v94.5c0,10.1,8.2,18.4,18.4,18.4h0v-112.9h0Z"/>
    </g>
    <g>
      <path class="cls-5" d="M740.1,420.8v-111.8h8.7c4.8,0,8.7,3.9,8.7,8.7v103.2h-17.3Z"/>
      <path class="cls-10" d="M748.8,309.5c4.5,0,8.1,3.7,8.1,8.1v102.6h-16.3v-110.8h8.1M748.8,308.4h-9.2v112.9h18.4v-103.7c0-5.1-4.1-9.2-9.2-9.2h0Z"/>
    </g>
    <g>
      <path class="cls-2" d="M720.2,420.8c-9.7,0-17.6-7.7-17.9-17.3h55.1v17.3h-37.3Z"/>
      <path class="cls-11" d="M756.9,404v16.3h-36.8c-9.2,0-16.7-7.2-17.3-16.3h54M758,402.9h-56.2c0,10.1,8.2,18.4,18.4,18.4h37.8v-18.4h0Z"/>
    </g>
    <g>
      <rect class="cls-5" x="771.6" y="301.1" width="17.3" height="111.8"/>
      <path class="cls-10" d="M788.4,301.6v110.8h-16.3v-110.8h16.3M789.5,300.5h-18.4v112.9h18.4v-112.9h0Z"/>
    </g>
    <g>
      <path class="cls-2" d="M762.2,308.9v-17.3h37.3c9.7,0,17.6,7.7,17.9,17.3h-55.1Z"/>
      <path class="cls-11" d="M799.5,292.1c9.2,0,16.7,7.2,17.3,16.3h-54v-16.3h36.8M799.5,291.1h-37.8v18.4h56.2c0-10.1-8.2-18.4-18.4-18.4h0Z"/>
    </g>
    <g>
      <path class="cls-2" d="M771.6,415.5v-17.3h55.1c-.3,9.6-8.2,17.3-17.9,17.3h-37.3Z"/>
      <path class="cls-11" d="M826.2,398.7c-.5,9.1-8.1,16.3-17.3,16.3h-36.8v-16.3h54M827.3,397.7h-56.2v18.4h37.8c10.1,0,18.4-8.2,18.4-18.4h0Z"/>
    </g>
    <g>
      <path class="cls-2" d="M761.4,363c-4.8,0-8.7-3.9-8.7-8.7s3.9-8.7,8.7-8.7h46.5v17.3h-46.5Z"/>
      <path class="cls-11" d="M807.3,346.2v16.3h-45.9c-4.5,0-8.1-3.7-8.1-8.1s3.7-8.1,8.1-8.1h45.9M808.4,345.2h-47c-5.1,0-9.2,4.1-9.2,9.2s4.1,9.2,9.2,9.2h47v-18.4h0Z"/>
    </g>
    <g>
      <path class="cls-5" d="M848.8,428.1c-9.6-.3-17.3-8.2-17.3-17.9v-94h17.3v111.8Z"/>
      <path class="cls-10" d="M848.3,316.8v110.7c-9.1-.5-16.3-8.1-16.3-17.3v-93.5h16.3M849.3,315.8h-18.4v94.5c0,10.1,8.2,18.4,18.4,18.4v-112.9h0Z"/>
    </g>
    <g>
      <path class="cls-2" d="M831.5,333.6v-17.3h37.3c9.7,0,17.6,7.7,17.9,17.3h-55.1Z"/>
      <path class="cls-11" d="M868.8,316.8c9.2,0,16.7,7.2,17.3,16.3h-54v-16.3h36.8M868.8,315.8h-37.8v18.4h56.2c0-10.1-8.2-18.4-18.4-18.4h0Z"/>
    </g>
    <g>
      <polygon class="cls-2" points="849.9 372.3 866.7 334.7 886.3 334.7 849.9 407 849.9 372.3"/>
      <path class="cls-11" d="M885.5,335.2l-35.1,69.6v-32.3l16.7-37.2h18.4M887.1,334.1h-20.7l-17.1,38.1v37l37.8-75h0Z"/>
    </g>
    <g>
      <path class="cls-5" d="M859.6,389.9l9.8-19.4,18.1,31.3c2.3,3.9,2.3,8.7,0,12.7-2.3,3.9-6.2,6.2-10.7,6.3l-17.2-30.9h0Z"/>
      <path class="cls-10" d="M869.4,371.6l17.6,30.5c2.2,3.8,2.2,8.3,0,12.1-2.1,3.6-5.8,5.8-9.9,6l-16.9-30.3,9.2-18.3M869.4,369.3l-10.3,20.6,17.5,31.4c10.1,0,16.5-11,11.4-19.7l-18.5-32.2h0Z"/>
    </g>
    <g>
      <rect class="cls-5" x="856.5" y="341.9" width="111.8" height="17.3" transform="translate(340.4 1143.2) rotate(-75.2)"/>
      <path class="cls-10" d="M918.9,295l15.8,4.1-28.4,107.1-15.8-4.1,28.4-107.1M918.2,293.8l-28.9,109.1,17.7,4.7,28.9-109.1-17.7-4.7h0Z"/>
    </g>
    <g>
      <path class="cls-5" d="M918.8,294.5l16.5,4.4,24.1,91.1c2.5,9.3-3,19-12.2,21.7l-28.4-117.1h0Z"/>
      <path class="cls-10" d="M919.5,295.2l15.4,4.1,24,90.8c2.4,8.9-2.7,18-11.3,20.9l-28.1-115.7M918.1,293.7l28.8,118.5h0c9.8-2.6,15.6-12.7,13.1-22.5l-24.2-91.4-17.6-4.7h0Z"/>
    </g>
    <g>
      <path class="cls-2" d="M889.2,376.7v-17.3h103.2c4.8,0,8.7,3.9,8.7,8.7s-3.9,8.7-8.7,8.7h-103.2Z"/>
      <path class="cls-11" d="M992.4,359.9c4.5,0,8.1,3.7,8.1,8.1s-3.7,8.1-8.1,8.1h-102.6v-16.3h102.6M992.4,358.8h-103.7v18.4h103.7c5.1,0,9.2-4.1,9.2-9.2s-4.1-9.2-9.2-9.2h0Z"/>
    </g>
    <circle class="cls-5" cx="478.4" cy="357" r="2.4"/>
    <circle class="cls-5" cx="516.2" cy="357" r="2.4"/>
    <circle class="cls-5" cx="544" cy="321.3" r="2.4"/>
    <circle class="cls-5" cx="581.8" cy="321.3" r="2.4"/>
    <circle class="cls-5" cx="544" cy="416.3" r="2.4"/>
    <circle class="cls-5" cx="581.8" cy="416.3" r="2.4"/>
    <circle class="cls-5" cx="711" cy="412.1" r="2.4"/>
    <circle class="cls-5" cx="748.8" cy="412.6" r="2.4"/>
    <circle class="cls-5" cx="780.3" cy="300.3" r="2.4"/>
    <circle class="cls-5" cx="780.3" cy="354.4" r="2.4"/>
    <circle class="cls-5" cx="780.3" cy="406.9" r="2.4"/>
    <circle class="cls-5" cx="840.1" cy="325" r="2.4"/>
    <circle class="cls-5" cx="859" cy="371.7" r="2.4"/>
    <circle class="cls-5" cx="907.9" cy="368" r="2.4"/>
    <circle class="cls-5" cx="945.1" cy="368" r="2.4"/>
    <g class="cls-13">
      <path class="cls-4" d="M517.3,270.6h398.5c51.5,0,93.2,41.7,93.2,93.2h0c0,51.5-41.7,93.2-93.2,93.2h-398.5c-51.5,0-93.2-41.7-93.2-93.2h0c0-51.5,41.7-93.2,93.2-93.2Z"/>
    </g>
    <g>
      <g>
        <path class="cls-9" d="M601,410.3v-94c0-9.7,7.7-17.6,17.3-17.9v111.8h-17.3Z"/>
        <path class="cls-7" d="M617.8,299v110.7h-16.3v-93.5c0-9.2,7.2-16.7,16.3-17.3M618.8,297.9h0c-10.1,0-18.4,8.2-18.4,18.4v94.5h18.4v-112.9h0Z"/>
      </g>
      <g>
        <path class="cls-6" d="M599.9,410.3c-9.7,0-17.6-7.7-17.9-17.3h111.8v17.3h-94Z"/>
        <path class="cls-7" d="M693.4,393.5v16.3h-93.5c-9.2,0-16.7-7.2-17.3-16.3h110.7M694.4,392.4h-112.9c0,10.1,8.2,18.4,18.4,18.4h94.5v-18.4h0Z"/>
      </g>
      <g>
        <path class="cls-9" d="M668.7,392.4v-55.1c9.6.3,17.3,8.2,17.3,17.9v37.3h-17.3Z"/>
        <path class="cls-7" d="M669.2,337.9c9.1.5,16.3,8.1,16.3,17.3v36.8h-16.3v-54M668.2,336.8h0v56.2h18.4v-37.8c0-10.1-8.2-18.4-18.4-18.4h0Z"/>
      </g>
      <g>
        <path class="cls-3" d="M618.7,392.4c.3-12.9,2.5-25.6,6.4-37.6,1.8-5.5,4-10.9,6.5-16.1-.2,2.2-.3,4.4-.2,6.5.3,7.3,2,14.4,5.3,21.2l1.2,2.4-.2-2.7c-.5-8.3-.4-16.8.5-25.1,1.2-11.2,3.7-22.3,7.4-33-1.1,11.6-.4,23,2.1,34.1,1.1,4.8,2.5,9.6,4.2,14.2l.4.9.6-.8c2.3-3.3,5-8.7,5.4-15.5v-3.2c2.9,7.1,5.3,14.6,6.9,22.2,2.3,10.7,3.2,21.5,2.6,32.4h-49.1Z"/>
        <path class="cls-1" d="M644.8,312.3c-.6,10.1.3,20.2,2.4,30,1.1,4.8,2.5,9.7,4.3,14.3l.7,1.9,1.2-1.7c2.3-3.4,5.1-8.8,5.4-15.8v-.4c2.5,6.3,4.4,12.8,5.8,19.4,2.2,10.4,3.1,21.1,2.6,31.8h-48c.4-12.7,2.5-25.1,6.4-37,1.5-4.6,3.3-9.1,5.3-13.5v3.8c.3,7.4,2,14.5,5.4,21.4l2.4,4.9-.4-5.4c-.5-8.3-.4-16.7.5-25,1.1-9.8,3-19.4,6-28.8M646.7,303.7c-3.6,9.6-7.3,22.2-8.9,37.3-1,9.4-1,17.9-.5,25.2-2.3-4.7-4.9-11.9-5.3-21-.1-3.5.1-6.7.5-9.5-2.8,5.4-5.5,11.7-7.9,18.9-4.8,14.8-6.2,28.1-6.5,38.3h50c.4-8.6.2-20.1-2.6-33.1-2.2-10.3-5.4-19-8.4-25.7.4,1.9.6,4.2.5,6.8-.3,7.2-3.4,12.5-5.3,15.2-1.6-4.3-3-9-4.2-14.2-3.4-15.1-2.9-28.5-1.6-38.3h0Z"/>
      </g>
      <g>
        <path class="cls-8" d="M633.5,391.9c-.4-1.1-.9-2.9-.5-5.1.5-2.4,1.8-4.1,2.9-5.1,0,.6,0,1.3.3,2,.7,1.9,2.7,3.2,5,3.2h.8l-.3-.7c-.7-1.7-1.4-4.6-.9-7.9.5-3.5,2.2-6,3.6-7.6-.2,2.7,0,5.5.7,8.1.6,2.4,1.5,4.8,2.7,7l.3.5.5-.3c1.1-.7,2-1.7,2.8-2.8,1.3-1.8,1.6-3.8,1.7-5.3.9,1.5,1.6,3,2,4.7,1.1,3.8.8,7.2.4,9.5l-21.9-.2h0Z"/>
        <path class="cls-1" d="M643.8,372.4c0,2.3.2,4.5.7,6.6.6,2.5,1.5,4.8,2.7,7.1l.6,1,.9-.6c1.2-.8,2.2-1.8,2.9-2.9.9-1.3,1.4-2.7,1.6-3.9.5,1,.9,2,1.3,3.2,1,3.5.8,6.6.5,8.8h-10.5c0-.1-10.7-.2-10.7-.2-.4-1.1-.7-2.7-.4-4.5.3-1.7,1.1-3,1.9-3.9,0,.3.2.7.3,1,.8,2.1,3,3.5,5.5,3.6h1.6l-.6-1.4c-.7-1.7-1.4-4.4-.8-7.6.4-2.5,1.4-4.5,2.5-6M645.1,369.3c-1,.9-3.9,4-4.7,8.9-.6,3.8.4,6.8.9,8.1-2.1,0-3.9-1.2-4.6-2.9-.6-1.4-.2-2.7,0-3.2-.6.4-3.5,2.5-4.2,6.3-.5,2.7.3,4.9.7,5.8,7.6,0,15.2.2,22.7.2.4-1.9,1-5.7-.3-10.2-.8-2.8-2.2-4.9-3.2-6.3.1,1,.3,4-1.6,6.8-.8,1.3-1.9,2.1-2.6,2.6-.9-1.7-1.9-3.9-2.6-6.8-.9-3.9-.8-7.2-.5-9.5h0Z"/>
      </g>
      <g>
        <path class="cls-3" d="M633.8,310.2l2.3-6.7c.3,1.4.7,2.8,1.3,4.1.4.9.8,1.8,1.3,2.6l-2.4,2.2-2.4-2.3h0Z"/>
        <path class="cls-1" d="M635.9,305.3c.2.8.5,1.6.8,2.4s.7,1.6,1.2,2.3l-1.7,1.6-1.8-1.7,1.2-3.5.4-1.1M636.2,301.2c-1,3-2,6.1-3,9.1l3,2.8,3.1-2.8c-.5-.8-1.1-1.8-1.5-2.9-1-2.4-1.4-4.5-1.5-6.2h0Z"/>
      </g>
      <g>
        <path class="cls-3" d="M658.9,297.8c.6-.7,1.1-1.5,1.4-2.4.2-.5.3-.9.4-1.3l1.1,3.6-1.5,1.1-1.4-1h0Z"/>
        <path class="cls-1" d="M660.7,295.9l.5,1.6-.9.7-.6-.5c.4-.6.7-1.2,1-1.8M660.3,291.1c.1.8.2,2.4-.5,4.2-.5,1.2-1.2,2.1-1.6,2.6l2.1,1.6,2.1-1.6c-.7-2.3-1.4-4.6-2-6.8h0Z"/>
      </g>
    </g>
  </g>
</svg>