<?xml version="1.0" encoding="UTF-8"?>
<svg xmlns="http://www.w3.org/2000/svg" version="1.1" xmlns:xlink="http://www.w3.org/1999/xlink" viewBox="0 0 2158.5 1080">
  <defs>
    <style>
      .cls-1 {
        fill: #1c1b17;
      }

      .cls-1, .cls-2, .cls-3, .cls-4, .cls-5, .cls-6, .cls-7, .cls-8, .cls-9, .cls-10, .cls-11, .cls-12, .cls-13, .cls-14, .cls-15, .cls-16, .cls-17, .cls-18, .cls-19, .cls-20, .cls-21, .cls-22, .cls-23, .cls-24, .cls-25, .cls-26, .cls-27, .cls-28, .cls-29, .cls-30, .cls-31, .cls-32, .cls-33, .cls-34, .cls-35, .cls-36, .cls-37, .cls-38, .cls-39 {
        stroke-width: 1.6px;
      }

      .cls-1, .cls-2, .cls-3, .cls-4, .cls-5, .cls-6, .cls-7, .cls-8, .cls-9, .cls-11, .cls-12, .cls-13, .cls-15, .cls-16, .cls-17, .cls-19, .cls-21, .cls-23, .cls-24, .cls-25, .cls-27, .cls-28, .cls-29, .cls-30, .cls-31, .cls-32, .cls-34, .cls-36, .cls-37, .cls-38 {
        stroke-linecap: round;
        stroke-linejoin: round;
      }

      .cls-1, .cls-2, .cls-3, .cls-4, .cls-5, .cls-6, .cls-7, .cls-9, .cls-10, .cls-11, .cls-12, .cls-13, .cls-14, .cls-15, .cls-16, .cls-18, .cls-20, .cls-21, .cls-22, .cls-23, .cls-24, .cls-25, .cls-26, .cls-27, .cls-28, .cls-29, .cls-30, .cls-31, .cls-32, .cls-33, .cls-34, .cls-35, .cls-36, .cls-37, .cls-38, .cls-39 {
        stroke: #000;
      }

      .cls-40 {
        filter: url(#luminosity-invert-7);
      }

      .cls-41 {
        filter: url(#outer-glow-2);
      }

      .cls-41, .cls-42, .cls-43, .cls-44, .cls-45, .cls-46, .cls-47, .cls-48, .cls-49, .cls-50, .cls-51 {
        stroke-width: 0px;
      }

      .cls-41, .cls-46 {
        opacity: .1;
      }

      .cls-41, .cls-46, .cls-26, .cls-32 {
        fill: #fff;
      }

      .cls-2 {
        fill: #060605;
      }

      .cls-52 {
        filter: url(#luminosity-invert-15);
      }

      .cls-53 {
        mask: url(#mask-10);
      }

      .cls-42, .cls-15, .cls-20 {
        fill: #000;
      }

      .cls-54 {
        filter: url(#luminosity-invert-8);
      }

      .cls-3 {
        fill: #313131;
      }

      .cls-4 {
        fill: #716565;
      }

      .cls-55 {
        opacity: .8;
      }

      .cls-55, .cls-56, .cls-57 {
        mix-blend-mode: darken;
      }

      .cls-5 {
        fill: #191919;
      }

      .cls-58 {
        filter: url(#luminosity-invert-11);
      }

      .cls-6 {
        fill: #0e0e12;
      }

      .cls-7 {
        fill: #444449;
      }

      .cls-59 {
        filter: url(#luminosity-invert-10);
      }

      .cls-8 {
        fill: #e72700;
        stroke: #e70000;
      }

      .cls-60 {
        mask: url(#mask-2);
      }

      .cls-9 {
        fill: #505050;
      }

      .cls-61 {
        isolation: isolate;
      }

      .cls-10 {
        fill: #69696d;
      }

      .cls-10, .cls-14, .cls-18, .cls-20, .cls-22, .cls-26, .cls-33, .cls-35, .cls-39 {
        stroke-miterlimit: 10;
      }

      .cls-11 {
        fill: #1d1c24;
      }

      .cls-62 {
        mask: url(#mask-13);
      }

      .cls-12 {
        fill: #7c7c7c;
      }

      .cls-63 {
        mask: url(#mask-3);
      }

      .cls-43 {
        fill: #7e0000;
        filter: url(#outer-glow-1);
        opacity: .3;
      }

      .cls-44, .cls-17, .cls-19, .cls-34 {
        fill: none;
      }

      .cls-13 {
        fill: #1a1914;
      }

      .cls-64 {
        mask: url(#mask-9);
      }

      .cls-14 {
        fill: #291000;
      }

      .cls-65 {
        mask: url(#mask-12);
      }

      .cls-66 {
        filter: url(#luminosity-invert-9);
      }

      .cls-67 {
        filter: url(#luminosity-invert-5);
      }

      .cls-68 {
        filter: url(#luminosity-invert-13);
      }

      .cls-69 {
        mask: url(#mask-5);
      }

      .cls-45 {
        fill: #1c1918;
      }

      .cls-16 {
        fill: #222224;
      }

      .cls-17 {
        stroke: #1c1918;
      }

      .cls-70 {
        filter: url(#luminosity-invert);
      }

      .cls-71 {
        filter: url(#luminosity-invert-14);
      }

      .cls-72 {
        filter: url(#luminosity-invert-3);
      }

      .cls-18 {
        fill: #150a02;
      }

      .cls-19 {
        stroke: #2b2522;
      }

      .cls-73 {
        mask: url(#mask-8);
      }

      .cls-74 {
        mask: url(#mask-4);
      }

      .cls-21, .cls-50 {
        fill: #0e0e0c;
      }

      .cls-46 {
        filter: url(#outer-glow-3);
      }

      .cls-75 {
        clip-path: url(#clippath);
      }

      .cls-47 {
        fill: #2a2822;
      }

      .cls-22 {
        fill: #040216;
      }

      .cls-23 {
        fill: #212121;
      }

      .cls-24 {
        fill: #4d4d4d;
      }

      .cls-76 {
        mask: url(#mask-6);
      }

      .cls-48 {
        opacity: 0;
      }

      .cls-48, .cls-36 {
        fill: #666;
      }

      .cls-25 {
        fill: #2d382a;
      }

      .cls-49 {
        fill: #2b2522;
      }

      .cls-27 {
        fill: #222225;
      }

      .cls-77 {
        filter: url(#luminosity-invert-6);
      }

      .cls-28 {
        fill: #101010;
      }

      .cls-29 {
        fill: #a21b00;
      }

      .cls-78 {
        mask: url(#mask-1);
      }

      .cls-79 {
        mask: url(#mask);
      }

      .cls-30 {
        fill: #101311;
      }

      .cls-31 {
        fill: #201e1a;
      }

      .cls-80 {
        mask: url(#mask-7);
      }

      .cls-33 {
        fill: #8f8f92;
      }

      .cls-81 {
        filter: url(#luminosity-invert-2);
      }

      .cls-35 {
        fill: #151209;
      }

      .cls-51 {
        fill: url(#Degradado_sin_nombre_5);
      }

      .cls-82 {
        mask: url(#mask-14);
      }

      .cls-83 {
        mask: url(#mask-11);
      }

      .cls-37 {
        fill: #04030d;
      }

      .cls-84 {
        filter: url(#luminosity-invert-12);
      }

      .cls-57 {
        opacity: 1;
      }

      .cls-85 {
        filter: url(#luminosity-invert-4);
      }

      .cls-38 {
        fill: #d2d1d1;
      }

      .cls-39 {
        fill: #0d0b04;
      }
    </style>
    <clipPath id="clippath">
      <rect class="cls-44" y="-2" width="2158.5" height="1080"/>
    </clipPath>
    <filter id="luminosity-invert" x="-6.8" y="294" width="1722" height="304" color-interpolation-filters="sRGB" filterUnits="userSpaceOnUse">
      <feColorMatrix result="cm" values="-1 0 0 0 1 0 -1 0 0 1 0 0 -1 0 1 0 0 0 1 0"/>
    </filter>
    <mask id="mask" x="-6.8" y="294" width="1722" height="304" maskUnits="userSpaceOnUse">
      <g class="cls-70">
        <image width="1722" height="304" transform="translate(-6.8 294)" xlink:href="posterComicTwo-1.png"/>
      </g>
    </mask>
    <filter id="luminosity-invert-2" x="603.2" y="293" width="1108" height="354" color-interpolation-filters="sRGB" filterUnits="userSpaceOnUse">
      <feColorMatrix result="cm" values="-1 0 0 0 1 0 -1 0 0 1 0 0 -1 0 1 0 0 0 1 0"/>
    </filter>
    <mask id="mask-1" x="603.2" y="293" width="1108" height="354" maskUnits="userSpaceOnUse">
      <g class="cls-81">
        <image width="1108" height="354" transform="translate(603.2 293)" xlink:href="posterComicTwo-2.png"/>
      </g>
    </mask>
    <filter id="luminosity-invert-3" x="603.2" y="293" width="1108" height="354" color-interpolation-filters="sRGB" filterUnits="userSpaceOnUse">
      <feColorMatrix result="cm" values="-1 0 0 0 1 0 -1 0 0 1 0 0 -1 0 1 0 0 0 1 0"/>
    </filter>
    <mask id="mask-2" x="603.2" y="293" width="1108" height="354" maskUnits="userSpaceOnUse">
      <g class="cls-72">
        <image width="1108" height="354" transform="translate(603.2 293)" xlink:href="posterComicTwo-3.png"/>
      </g>
    </mask>
    <filter id="luminosity-invert-4" x="603.2" y="293" width="1108" height="354" color-interpolation-filters="sRGB" filterUnits="userSpaceOnUse">
      <feColorMatrix result="cm" values="-1 0 0 0 1 0 -1 0 0 1 0 0 -1 0 1 0 0 0 1 0"/>
    </filter>
    <mask id="mask-3" x="603.2" y="293" width="1108" height="354" maskUnits="userSpaceOnUse">
      <g class="cls-85">
        <image width="1108" height="354" transform="translate(603.2 293)" xlink:href="posterComicTwo-4.png"/>
      </g>
    </mask>
    <filter id="luminosity-invert-5" x="603.2" y="293" width="1108" height="354" color-interpolation-filters="sRGB" filterUnits="userSpaceOnUse">
      <feColorMatrix result="cm" values="-1 0 0 0 1 0 -1 0 0 1 0 0 -1 0 1 0 0 0 1 0"/>
    </filter>
    <mask id="mask-4" x="603.2" y="293" width="1108" height="354" maskUnits="userSpaceOnUse">
      <g class="cls-67">
        <image width="1108" height="354" transform="translate(603.2 293)" xlink:href="posterComicTwo-5.png"/>
      </g>
    </mask>
    <filter id="luminosity-invert-6" x="603.2" y="293" width="1108" height="354" color-interpolation-filters="sRGB" filterUnits="userSpaceOnUse">
      <feColorMatrix result="cm" values="-1 0 0 0 1 0 -1 0 0 1 0 0 -1 0 1 0 0 0 1 0"/>
    </filter>
    <mask id="mask-5" x="603.2" y="293" width="1108" height="354" maskUnits="userSpaceOnUse">
      <g class="cls-77">
        <image width="1108" height="354" transform="translate(603.2 293)" xlink:href="posterComicTwo-6.png"/>
      </g>
    </mask>
    <filter id="luminosity-invert-7" x="603.2" y="293" width="1108" height="354" color-interpolation-filters="sRGB" filterUnits="userSpaceOnUse">
      <feColorMatrix result="cm" values="-1 0 0 0 1 0 -1 0 0 1 0 0 -1 0 1 0 0 0 1 0"/>
    </filter>
    <mask id="mask-6" x="603.2" y="293" width="1108" height="354" maskUnits="userSpaceOnUse">
      <g class="cls-40">
        <image width="1108" height="354" transform="translate(603.2 293)" xlink:href="posterComicTwo-7.png"/>
      </g>
    </mask>
    <filter id="luminosity-invert-8" x="603.2" y="293" width="1108" height="354" color-interpolation-filters="sRGB" filterUnits="userSpaceOnUse">
      <feColorMatrix result="cm" values="-1 0 0 0 1 0 -1 0 0 1 0 0 -1 0 1 0 0 0 1 0"/>
    </filter>
    <mask id="mask-7" x="603.2" y="293" width="1108" height="354" maskUnits="userSpaceOnUse">
      <g class="cls-54">
        <image width="1108" height="354" transform="translate(603.2 293)" xlink:href="posterComicTwo-8.png"/>
      </g>
    </mask>
    <filter id="luminosity-invert-9" x="1099.2" y="592" width="616" height="340" color-interpolation-filters="sRGB" filterUnits="userSpaceOnUse">
      <feColorMatrix result="cm" values="-1 0 0 0 1 0 -1 0 0 1 0 0 -1 0 1 0 0 0 1 0"/>
    </filter>
    <mask id="mask-8" x="1099.2" y="592" width="616" height="340" maskUnits="userSpaceOnUse">
      <g class="cls-66">
        <image width="616" height="340" transform="translate(1099.2 592)" xlink:href="posterComicTwo-9.png"/>
      </g>
    </mask>
    <filter id="luminosity-invert-10" x="1099.2" y="592" width="616" height="340" color-interpolation-filters="sRGB" filterUnits="userSpaceOnUse">
      <feColorMatrix result="cm" values="-1 0 0 0 1 0 -1 0 0 1 0 0 -1 0 1 0 0 0 1 0"/>
    </filter>
    <mask id="mask-9" x="1099.2" y="592" width="616" height="340" maskUnits="userSpaceOnUse">
      <g class="cls-59">
        <image width="616" height="340" transform="translate(1099.2 592)" xlink:href="posterComicTwo-10.png"/>
      </g>
    </mask>
    <filter id="luminosity-invert-11" x="1099.2" y="592" width="616" height="340" color-interpolation-filters="sRGB" filterUnits="userSpaceOnUse">
      <feColorMatrix result="cm" values="-1 0 0 0 1 0 -1 0 0 1 0 0 -1 0 1 0 0 0 1 0"/>
    </filter>
    <mask id="mask-10" x="1099.2" y="592" width="616" height="340" maskUnits="userSpaceOnUse">
      <g class="cls-58">
        <image width="616" height="340" transform="translate(1099.2 592)" xlink:href="posterComicTwo-11.png"/>
      </g>
    </mask>
    <filter id="luminosity-invert-12" x="1099.2" y="592" width="616" height="340" color-interpolation-filters="sRGB" filterUnits="userSpaceOnUse">
      <feColorMatrix result="cm" values="-1 0 0 0 1 0 -1 0 0 1 0 0 -1 0 1 0 0 0 1 0"/>
    </filter>
    <mask id="mask-11" x="1099.2" y="592" width="616" height="340" maskUnits="userSpaceOnUse">
      <g class="cls-84">
        <image width="616" height="340" transform="translate(1099.2 592)" xlink:href="posterComicTwo-12.png"/>
      </g>
    </mask>
    <filter id="luminosity-invert-13" x="1099.2" y="592" width="616" height="340" color-interpolation-filters="sRGB" filterUnits="userSpaceOnUse">
      <feColorMatrix result="cm" values="-1 0 0 0 1 0 -1 0 0 1 0 0 -1 0 1 0 0 0 1 0"/>
    </filter>
    <mask id="mask-12" x="1099.2" y="592" width="616" height="340" maskUnits="userSpaceOnUse">
      <g class="cls-68">
        <image width="616" height="340" transform="translate(1099.2 592)" xlink:href="posterComicTwo-13.png"/>
      </g>
    </mask>
    <filter id="luminosity-invert-14" x="1099.2" y="592" width="616" height="340" color-interpolation-filters="sRGB" filterUnits="userSpaceOnUse">
      <feColorMatrix result="cm" values="-1 0 0 0 1 0 -1 0 0 1 0 0 -1 0 1 0 0 0 1 0"/>
    </filter>
    <mask id="mask-13" x="1099.2" y="592" width="616" height="340" maskUnits="userSpaceOnUse">
      <g class="cls-71">
        <image width="616" height="340" transform="translate(1099.2 592)" xlink:href="posterComicTwo-14.png"/>
      </g>
    </mask>
    <filter id="luminosity-invert-15" x="1099.2" y="592" width="616" height="340" color-interpolation-filters="sRGB" filterUnits="userSpaceOnUse">
      <feColorMatrix result="cm" values="-1 0 0 0 1 0 -1 0 0 1 0 0 -1 0 1 0 0 0 1 0"/>
    </filter>
    <mask id="mask-14" x="1099.2" y="592" width="616" height="340" maskUnits="userSpaceOnUse">
      <g class="cls-52">
        <image width="616" height="340" transform="translate(1099.2 592)" xlink:href="posterComicTwo-15.png"/>
      </g>
    </mask>
    <filter id="outer-glow-1" filterUnits="userSpaceOnUse">
      <feOffset dx="0" dy="0"/>
      <feGaussianBlur result="blur" stdDeviation="9.5"/>
      <feFlood flood-color="#c10a0a" flood-opacity="1"/>
      <feComposite in2="blur" operator="in"/>
      <feComposite in="SourceGraphic"/>
    </filter>
    <filter id="outer-glow-2" filterUnits="userSpaceOnUse">
      <feOffset dx="0" dy="0"/>
      <feGaussianBlur result="blur-2" stdDeviation="33.3"/>
      <feFlood flood-color="#fff" flood-opacity="1"/>
      <feComposite in2="blur-2" operator="in"/>
      <feComposite in="SourceGraphic"/>
    </filter>
    <filter id="outer-glow-3" filterUnits="userSpaceOnUse">
      <feOffset dx="0" dy="0"/>
      <feGaussianBlur result="blur-3" stdDeviation="33.3"/>
      <feFlood flood-color="#fff" flood-opacity="1"/>
      <feComposite in2="blur-3" operator="in"/>
      <feComposite in="SourceGraphic"/>
    </filter>
    <radialGradient id="Degradado_sin_nombre_5" data-name="Degradado sin nombre 5" cx="1005.8" cy="656.6" fx="1005.8" fy="656.6" r="879.9" gradientTransform="translate(0 280) scale(1 .6)" gradientUnits="userSpaceOnUse">
      <stop offset=".2" stop-color="#000" stop-opacity="0"/>
      <stop offset="1" stop-color="#000" stop-opacity=".8"/>
    </radialGradient>
  </defs>
  <g class="cls-61">
    <g id="Capa_13" data-name="Capa 13">
      <g class="cls-75">
        <g>
          <rect class="cls-22" x="-4.5" y="-29.2" width="2167.4" height="1220.2"/>
          <path class="cls-37" d="M2163,349.3l-179.2-84c-14.9-7-31.8-8.1-47.5-3l-213.4,68.7c-18.1,5.8-37.8,3.4-53.9-6.5l-282.1-173.5c-17.8-11-39.8-12.7-59.1-4.6l-336.3,140.9c-13.6,5.7-28.7,6.6-42.8,2.6l-170.6-48.4-102.5,339.5,1057.4,143.6,430.8-129.3-.8-245.9Z"/>
          <path class="cls-6" d="M1782.2,576.9l-337.1-261.7c-15.6-12.1-35.8-16.5-55-11.8l-342.5,82.4c-16.8,4-34.5,1.2-49.2-7.8l-320.7-196.9c-14.2-8.7-31.2-11.6-47.4-8.2l-270,57.3c-12.3,2.6-25.1,1.6-36.8-2.9L-2.9,101.4v511.2h1785v-35.7Z"/>
          <path class="cls-11" d="M2159.8,459.5l-131.7-68.5c-25-13-55.6-8.4-75.6,11.5l-54.8,54.3c-22.3,22.1-57.1,25-82.9,7.1l-95.5-66.6c-15.7-11-35.5-14.4-54-9.5l-213.2,57.1c-10.4,2.8-21.3,2.9-31.8.5l-4.4-1c-30-7.1-60.8,7.8-73.8,35.7l-53.8,115.2,787,34.1,88.5,19.9-4-189.7Z"/>
          <path class="cls-7" d="M2126.1,589.5l-181.2-90.3c-5.8-2.9-12.1-4.9-18.6-6l-127.1-20.6c-11.2-1.8-22.7-.7-33.4,3.3l-113.5,42.8c-12.7,4.8-23.5,13.4-31,24.6l-67,100.1,571.6-54.1Z"/>
          <rect class="cls-25" x="-2.9" y="629.3" width="2165.8" height="561.7"/>
          <g>
            <polyline class="cls-34" points="2163.8 409.5 2139.2 435.7 2163 454.8 2139.2 481.4 2163 501.8 2139.2 527.6 2163 547.3 2139.2 580.1"/>
            <polyline class="cls-34" points="2139.2 409.5 2163.8 435.7 2139.9 454.8 2163.8 481.4 2139.9 501.8 2163.8 527.6 2139.9 547.3 2163.8 580.1"/>
            <polyline class="cls-34" points="2138.4 409.5 2113.8 435.7 2137.6 454.8 2113.8 481.4 2137.6 501.8 2113.8 527.6 2137.6 547.3 2113.8 580.1"/>
            <polyline class="cls-34" points="2113.8 409.5 2138.4 435.7 2114.6 454.8 2138.4 481.4 2114.6 501.8 2138.4 527.6 2114.6 547.3 2138.4 580.1"/>
            <polyline class="cls-34" points="2113 409.5 2088.4 435.7 2112.2 454.8 2088.4 481.4 2112.2 501.8 2088.4 527.6 2112.2 547.3 2088.4 580.1"/>
            <polyline class="cls-34" points="2088.4 409.5 2113 435.7 2089.2 454.8 2113 481.4 2089.2 501.8 2113 527.6 2089.2 547.3 2113 580.1"/>
            <polyline class="cls-34" points="2087.6 409.5 2063 435.7 2086.8 454.8 2063 481.4 2086.8 501.8 2063 527.6 2086.8 547.3 2063 580.1"/>
            <polyline class="cls-34" points="2063 409.5 2087.6 435.7 2063.8 454.8 2087.6 481.4 2063.8 501.8 2087.6 527.6 2063.8 547.3 2087.6 580.1"/>
            <polyline class="cls-34" points="2062.2 409.5 2037.6 435.7 2061.4 454.8 2037.6 481.4 2061.4 501.8 2037.6 527.6 2061.4 547.3 2037.6 580.1"/>
            <polyline class="cls-34" points="2037.6 409.5 2062.2 435.7 2038.4 454.8 2062.2 481.4 2038.4 501.8 2062.2 527.6 2038.4 547.3 2062.2 580.1"/>
            <polyline class="cls-34" points="2036.8 409.5 2012.2 435.7 2036 454.8 2012.2 481.4 2036 501.8 2012.2 527.6 2036 547.3 2012.2 580.1"/>
            <polyline class="cls-34" points="2012.2 409.5 2036.8 435.7 2013 454.8 2036.8 481.4 2013 501.8 2036.8 527.6 2013 547.3 2036.8 580.1"/>
            <polyline class="cls-34" points="2011.4 409.5 1986.8 435.7 2010.6 454.8 1986.8 481.4 2010.6 501.8 1986.8 527.6 2010.6 547.3 1986.8 580.1"/>
            <polyline class="cls-34" points="1986.8 409.5 2011.4 435.7 1987.6 454.8 2011.4 481.4 1987.6 501.8 2011.4 527.6 1987.6 547.3 2011.4 580.1"/>
            <polyline class="cls-34" points="1986 409.5 1961.4 435.7 1985.2 454.8 1961.4 481.4 1985.2 501.8 1961.4 527.6 1985.2 547.3 1961.4 580.1"/>
            <polyline class="cls-34" points="1961.4 409.5 1986 435.7 1962.2 454.8 1986 481.4 1962.2 501.8 1986 527.6 1962.2 547.3 1986 580.1"/>
            <polyline class="cls-34" points="1960.7 409.5 1936.1 435.7 1959.9 454.8 1936.1 481.4 1959.9 501.8 1936.1 527.6 1959.9 547.3 1936.1 580.1"/>
            <polyline class="cls-34" points="1936.1 409.5 1960.7 435.7 1936.9 454.8 1960.7 481.4 1936.9 501.8 1960.7 527.6 1936.9 547.3 1960.7 580.1"/>
            <polyline class="cls-34" points="1935.3 409.5 1910.7 435.7 1934.5 454.8 1910.7 481.4 1934.5 501.8 1910.7 527.6 1934.5 547.3 1910.7 580.1"/>
            <polyline class="cls-34" points="1910.7 409.5 1935.3 435.7 1911.5 454.8 1935.3 481.4 1911.5 501.8 1935.3 527.6 1911.5 547.3 1935.3 580.1"/>
            <polyline class="cls-34" points="1909.9 409.5 1885.3 435.7 1909.1 454.8 1885.3 481.4 1909.1 501.8 1885.3 527.6 1909.1 547.3 1885.3 580.1"/>
            <polyline class="cls-34" points="1885.3 409.5 1909.9 435.7 1886.1 454.8 1909.9 481.4 1886.1 501.8 1909.9 527.6 1886.1 547.3 1909.9 580.1"/>
            <polyline class="cls-34" points="1884.5 409.5 1859.9 435.7 1883.7 454.8 1859.9 481.4 1883.7 501.8 1859.9 527.6 1883.7 547.3 1859.9 580.1"/>
            <polyline class="cls-34" points="1859.9 409.5 1884.5 435.7 1860.7 454.8 1884.5 481.4 1860.7 501.8 1884.5 527.6 1860.7 547.3 1884.5 580.1"/>
            <polyline class="cls-34" points="1859.1 409.5 1834.5 435.7 1858.3 454.8 1834.5 481.4 1858.3 501.8 1834.5 527.6 1858.3 547.3 1834.5 580.1"/>
            <polyline class="cls-34" points="1834.5 409.5 1859.1 435.7 1835.3 454.8 1859.1 481.4 1835.3 501.8 1859.1 527.6 1835.3 547.3 1859.1 580.1"/>
            <polyline class="cls-34" points="1833.7 409.5 1809.1 435.7 1832.9 454.8 1809.1 481.4 1832.9 501.8 1809.1 527.6 1832.9 547.3 1809.1 580.1"/>
            <polyline class="cls-34" points="1809.1 409.5 1833.7 435.7 1809.9 454.8 1833.7 481.4 1809.9 501.8 1833.7 527.6 1809.9 547.3 1833.7 580.1"/>
            <polyline class="cls-34" points="1808.3 409.5 1783.7 435.7 1807.5 454.8 1783.7 481.4 1807.5 501.8 1783.7 527.6 1807.5 547.3 1783.7 580.1"/>
            <polyline class="cls-34" points="1783.7 409.5 1808.3 435.7 1784.5 454.8 1808.3 481.4 1784.5 501.8 1808.3 527.6 1784.5 547.3 1808.3 580.1"/>
            <polyline class="cls-34" points="1782.9 409.5 1758.4 435.7 1782.2 454.8 1758.4 481.4 1782.2 501.8 1758.4 527.6 1782.2 547.3 1758.4 580.1"/>
            <polyline class="cls-34" points="1758.4 409.5 1782.9 435.7 1759.1 454.8 1782.9 481.4 1759.1 501.8 1782.9 527.6 1759.1 547.3 1782.9 580.1"/>
            <g>
              <polyline class="cls-34" points="1757.6 409.5 1733 435.7 1756.8 454.8 1733 481.4 1756.8 501.8 1733 527.6 1756.8 547.3 1733 580.1"/>
              <polyline class="cls-34" points="1733 409.5 1757.6 435.7 1733.8 454.8 1757.6 481.4 1733.8 501.8 1757.6 527.6 1733.8 547.3 1757.6 580.1"/>
              <polyline class="cls-34" points="1732.2 409.5 1707.6 435.7 1731.4 454.8 1707.6 481.4 1731.4 501.8 1707.6 527.6 1731.4 547.3 1707.6 580.1"/>
              <polyline class="cls-34" points="1707.6 409.5 1732.2 435.7 1708.4 454.8 1732.2 481.4 1708.4 501.8 1732.2 527.6 1708.4 547.3 1732.2 580.1"/>
              <polyline class="cls-34" points="1706.8 409.5 1682.2 435.7 1706 454.8 1682.2 481.4 1706 501.8 1682.2 527.6 1706 547.3 1682.2 580.1"/>
              <polyline class="cls-34" points="1682.2 409.5 1706.8 435.7 1683 454.8 1706.8 481.4 1683 501.8 1706.8 527.6 1683 547.3 1706.8 580.1"/>
              <polyline class="cls-34" points="1681.4 409.5 1656.8 435.7 1680.6 454.8 1656.8 481.4 1680.6 501.8 1656.8 527.6 1680.6 547.3 1656.8 580.1"/>
              <polyline class="cls-34" points="1656.8 409.5 1681.4 435.7 1657.6 454.8 1681.4 481.4 1657.6 501.8 1681.4 527.6 1657.6 547.3 1681.4 580.1"/>
              <polyline class="cls-34" points="1656 409.5 1631.4 435.7 1655.2 454.8 1631.4 481.4 1655.2 501.8 1631.4 527.6 1655.2 547.3 1631.4 580.1"/>
              <polyline class="cls-34" points="1631.4 409.5 1656 435.7 1632.2 454.8 1656 481.4 1632.2 501.8 1656 527.6 1632.2 547.3 1656 580.1"/>
              <polyline class="cls-34" points="1630.6 409.5 1606 435.7 1629.8 454.8 1606 481.4 1629.8 501.8 1606 527.6 1629.8 547.3 1606 580.1"/>
              <polyline class="cls-34" points="1606 409.5 1630.6 435.7 1606.8 454.8 1630.6 481.4 1606.8 501.8 1630.6 527.6 1606.8 547.3 1630.6 580.1"/>
              <polyline class="cls-34" points="1605.2 409.5 1580.6 435.7 1604.4 454.8 1580.6 481.4 1604.4 501.8 1580.6 527.6 1604.4 547.3 1580.6 580.1"/>
              <polyline class="cls-34" points="1580.6 409.5 1605.2 435.7 1581.4 454.8 1605.2 481.4 1581.4 501.8 1605.2 527.6 1581.4 547.3 1605.2 580.1"/>
              <polyline class="cls-34" points="1579.8 409.5 1555.3 435.7 1579.1 454.8 1555.3 481.4 1579.1 501.8 1555.3 527.6 1579.1 547.3 1555.3 580.1"/>
              <polyline class="cls-34" points="1555.3 409.5 1579.8 435.7 1556 454.8 1579.8 481.4 1556 501.8 1579.8 527.6 1556 547.3 1579.8 580.1"/>
              <polyline class="cls-34" points="1554.5 409.5 1529.9 435.7 1553.7 454.8 1529.9 481.4 1553.7 501.8 1529.9 527.6 1553.7 547.3 1529.9 580.1"/>
              <polyline class="cls-34" points="1529.9 409.5 1554.5 435.7 1530.7 454.8 1554.5 481.4 1530.7 501.8 1554.5 527.6 1530.7 547.3 1554.5 580.1"/>
              <polyline class="cls-34" points="1529.1 409.5 1504.5 435.7 1528.3 454.8 1504.5 481.4 1528.3 501.8 1504.5 527.6 1528.3 547.3 1504.5 580.1"/>
              <polyline class="cls-34" points="1504.5 409.5 1529.1 435.7 1505.3 454.8 1529.1 481.4 1505.3 501.8 1529.1 527.6 1505.3 547.3 1529.1 580.1"/>
              <polyline class="cls-34" points="1503.7 409.5 1479.1 435.7 1502.9 454.8 1479.1 481.4 1502.9 501.8 1479.1 527.6 1502.9 547.3 1479.1 580.1"/>
              <polyline class="cls-34" points="1479.1 409.5 1503.7 435.7 1479.9 454.8 1503.7 481.4 1479.9 501.8 1503.7 527.6 1479.9 547.3 1503.7 580.1"/>
              <polyline class="cls-34" points="1478.3 409.5 1453.7 435.7 1477.5 454.8 1453.7 481.4 1477.5 501.8 1453.7 527.6 1477.5 547.3 1453.7 580.1"/>
              <polyline class="cls-34" points="1453.7 409.5 1478.3 435.7 1454.5 454.8 1478.3 481.4 1454.5 501.8 1478.3 527.6 1454.5 547.3 1478.3 580.1"/>
              <polyline class="cls-34" points="1452.9 409.5 1428.3 435.7 1452.1 454.8 1428.3 481.4 1452.1 501.8 1428.3 527.6 1452.1 547.3 1428.3 580.1"/>
              <polyline class="cls-34" points="1428.3 409.5 1452.9 435.7 1429.1 454.8 1452.9 481.4 1429.1 501.8 1452.9 527.6 1429.1 547.3 1452.9 580.1"/>
              <polyline class="cls-34" points="1427.5 409.5 1402.9 435.7 1426.7 454.8 1402.9 481.4 1426.7 501.8 1402.9 527.6 1426.7 547.3 1402.9 580.1"/>
              <polyline class="cls-34" points="1402.9 409.5 1427.5 435.7 1403.7 454.8 1427.5 481.4 1403.7 501.8 1427.5 527.6 1403.7 547.3 1427.5 580.1"/>
              <polyline class="cls-34" points="1402.1 409.5 1377.5 435.7 1401.3 454.8 1377.5 481.4 1401.3 501.8 1377.5 527.6 1401.3 547.3 1377.5 580.1"/>
              <polyline class="cls-34" points="1377.5 409.5 1402.1 435.7 1378.3 454.8 1402.1 481.4 1378.3 501.8 1402.1 527.6 1378.3 547.3 1402.1 580.1"/>
              <polyline class="cls-34" points="1376.8 409.5 1352.2 435.7 1376 454.8 1352.2 481.4 1376 501.8 1352.2 527.6 1376 547.3 1352.2 580.1"/>
              <polyline class="cls-34" points="1352.2 409.5 1376.8 435.7 1353 454.8 1376.8 481.4 1353 501.8 1376.8 527.6 1353 547.3 1376.8 580.1"/>
            </g>
            <g>
              <polyline class="cls-34" points="1351.4 409.5 1326.8 435.7 1350.6 454.8 1326.8 481.4 1350.6 501.8 1326.8 527.6 1350.6 547.3 1326.8 580.1"/>
              <polyline class="cls-34" points="1326.8 409.5 1351.4 435.7 1327.6 454.8 1351.4 481.4 1327.6 501.8 1351.4 527.6 1327.6 547.3 1351.4 580.1"/>
              <polyline class="cls-34" points="1326 409.5 1301.4 435.7 1325.2 454.8 1301.4 481.4 1325.2 501.8 1301.4 527.6 1325.2 547.3 1301.4 580.1"/>
              <polyline class="cls-34" points="1301.4 409.5 1326 435.7 1302.2 454.8 1326 481.4 1302.2 501.8 1326 527.6 1302.2 547.3 1326 580.1"/>
              <polyline class="cls-34" points="1300.6 409.5 1276 435.7 1299.8 454.8 1276 481.4 1299.8 501.8 1276 527.6 1299.8 547.3 1276 580.1"/>
              <polyline class="cls-34" points="1276 409.5 1300.6 435.7 1276.8 454.8 1300.6 481.4 1276.8 501.8 1300.6 527.6 1276.8 547.3 1300.6 580.1"/>
              <polyline class="cls-34" points="1275.2 409.5 1250.6 435.7 1274.4 454.8 1250.6 481.4 1274.4 501.8 1250.6 527.6 1274.4 547.3 1250.6 580.1"/>
              <polyline class="cls-34" points="1250.6 409.5 1275.2 435.7 1251.4 454.8 1275.2 481.4 1251.4 501.8 1275.2 527.6 1251.4 547.3 1275.2 580.1"/>
              <polyline class="cls-34" points="1249.8 409.5 1225.2 435.7 1249 454.8 1225.2 481.4 1249 501.8 1225.2 527.6 1249 547.3 1225.2 580.1"/>
              <polyline class="cls-34" points="1225.2 409.5 1249.8 435.7 1226 454.8 1249.8 481.4 1226 501.8 1249.8 527.6 1226 547.3 1249.8 580.1"/>
              <polyline class="cls-34" points="1224.4 409.5 1199.8 435.7 1223.6 454.8 1199.8 481.4 1223.6 501.8 1199.8 527.6 1223.6 547.3 1199.8 580.1"/>
              <polyline class="cls-34" points="1224.4 580.1 1200.6 547.3 1224.4 527.6 1200.6 501.8 1224.4 481.4 1200.6 454.8 1224.4 435.7 1199.8 409.5"/>
              <polyline class="cls-34" points="1199 409.5 1174.5 435.7 1198.3 454.8 1174.5 481.4 1198.3 501.8 1174.5 527.6 1198.3 547.3 1174.5 580.1"/>
              <polyline class="cls-34" points="1174.5 409.5 1199 435.7 1175.2 454.8 1199 481.4 1175.2 501.8 1199 527.6 1175.2 547.3 1199 580.1"/>
              <polyline class="cls-34" points="1173.7 409.5 1149.1 435.7 1172.9 454.8 1149.1 481.4 1172.9 501.8 1149.1 527.6 1172.9 547.3 1149.1 580.1"/>
              <polyline class="cls-34" points="1149.1 409.5 1173.7 435.7 1149.9 454.8 1173.7 481.4 1149.9 501.8 1173.7 527.6 1149.9 547.3 1173.7 580.1"/>
              <polyline class="cls-34" points="1148.3 409.5 1123.7 435.7 1147.5 454.8 1123.7 481.4 1147.5 501.8 1123.7 527.6 1147.5 547.3 1123.7 580.1"/>
              <polyline class="cls-34" points="1123.7 409.5 1148.3 435.7 1124.5 454.8 1148.3 481.4 1124.5 501.8 1148.3 527.6 1124.5 547.3 1148.3 580.1"/>
              <polyline class="cls-34" points="1122.9 409.5 1098.3 435.7 1122.1 454.8 1098.3 481.4 1122.1 501.8 1098.3 527.6 1122.1 547.3 1098.3 580.1"/>
              <polyline class="cls-34" points="1098.3 409.5 1122.9 435.7 1099.1 454.8 1122.9 481.4 1099.1 501.8 1122.9 527.6 1099.1 547.3 1122.9 580.1"/>
              <polyline class="cls-34" points="1097.5 409.5 1072.9 435.7 1096.7 454.8 1072.9 481.4 1096.7 501.8 1072.9 527.6 1096.7 547.3 1072.9 580.1"/>
              <polyline class="cls-34" points="1072.9 409.5 1097.5 435.7 1073.7 454.8 1097.5 481.4 1073.7 501.8 1097.5 527.6 1073.7 547.3 1097.5 580.1"/>
              <polyline class="cls-34" points="1072.1 409.5 1047.5 435.7 1071.3 454.8 1047.5 481.4 1071.3 501.8 1047.5 527.6 1071.3 547.3 1047.5 580.1"/>
              <polyline class="cls-34" points="1047.5 409.5 1072.1 435.7 1048.3 454.8 1072.1 481.4 1048.3 501.8 1072.1 527.6 1048.3 547.3 1072.1 580.1"/>
              <polyline class="cls-34" points="1046.7 409.5 1022.1 435.7 1045.9 454.8 1022.1 481.4 1045.9 501.8 1022.1 527.6 1045.9 547.3 1022.1 580.1"/>
              <polyline class="cls-34" points="1022.1 409.5 1046.7 435.7 1022.9 454.8 1046.7 481.4 1022.9 501.8 1046.7 527.6 1022.9 547.3 1046.7 580.1"/>
              <polyline class="cls-34" points="1021.3 409.5 996.7 435.7 1020.5 454.8 996.7 481.4 1020.5 501.8 996.7 527.6 1020.5 547.3 996.7 580.1"/>
              <polyline class="cls-34" points="996.7 409.5 1021.3 435.7 997.5 454.8 1021.3 481.4 997.5 501.8 1021.3 527.6 997.5 547.3 1021.3 580.1"/>
              <polyline class="cls-34" points="995.9 409.5 971.4 435.7 995.2 454.8 971.4 481.4 995.2 501.8 971.4 527.6 995.2 547.3 971.4 580.1"/>
              <polyline class="cls-34" points="971.4 409.5 995.9 435.7 972.1 454.8 995.9 481.4 972.1 501.8 995.9 527.6 972.1 547.3 995.9 580.1"/>
              <polyline class="cls-34" points="970.6 409.5 946 435.7 969.8 454.8 946 481.4 969.8 501.8 946 527.6 969.8 547.3 946 580.1"/>
              <polyline class="cls-34" points="946 409.5 970.6 435.7 946.8 454.8 970.6 481.4 946.8 501.8 970.6 527.6 946.8 547.3 970.6 580.1"/>
            </g>
          </g>
          <rect class="cls-16" x="1337.9" y="580.1" width="825.1" height="49.2"/>
          <rect class="cls-16" x="956.3" y="392.1" width="1207.5" height="17.5"/>
          <g>
            <g>
              <polygon class="cls-50" points="1711.5 595.2 1102.3 595.2 -3.7 296.9 605.6 296.9 1711.5 595.2"/>
              <polygon class="cls-34" points="1711.5 595.2 1102.3 595.2 -3.7 296.9 605.6 296.9 1711.5 595.2"/>
            </g>
            <g class="cls-79">
              <g class="cls-57">
                <polygon class="cls-42" points="1711.5 595.2 1102.3 595.2 -3.7 296.9 605.6 296.9 1711.5 595.2"/>
                <polygon class="cls-34" points="1711.5 595.2 1102.3 595.2 -3.7 296.9 605.6 296.9 1711.5 595.2"/>
              </g>
            </g>
          </g>
          <rect class="cls-1" x="-2.9" y="296.1" width="609.3" height="50.8"/>
          <g>
            <g>
              <g>
                <g>
                  <polygon class="cls-47" points="606.4 346.9 1707.6 643.6 1707.6 592.8 606.4 296.1 606.4 346.9"/>
                  <polygon class="cls-34" points="606.4 346.9 1707.6 643.6 1707.6 592.8 606.4 296.1 606.4 346.9"/>
                </g>
                <g class="cls-78">
                  <g class="cls-55">
                    <polygon class="cls-49" points="606.4 346.9 1707.6 643.6 1707.6 592.8 606.4 296.1 606.4 346.9"/>
                    <polygon class="cls-19" points="606.4 346.9 1707.6 643.6 1707.6 592.8 606.4 296.1 606.4 346.9"/>
                  </g>
                </g>
              </g>
              <g class="cls-60">
                <g class="cls-56">
                  <g>
                    <polygon class="cls-49" points="606.4 346.9 1707.6 643.6 1707.6 592.8 606.4 296.1 606.4 346.9"/>
                    <polygon class="cls-19" points="606.4 346.9 1707.6 643.6 1707.6 592.8 606.4 296.1 606.4 346.9"/>
                  </g>
                  <g class="cls-63">
                    <g class="cls-55">
                      <polygon class="cls-49" points="606.4 346.9 1707.6 643.6 1707.6 592.8 606.4 296.1 606.4 346.9"/>
                      <polygon class="cls-19" points="606.4 346.9 1707.6 643.6 1707.6 592.8 606.4 296.1 606.4 346.9"/>
                    </g>
                  </g>
                </g>
              </g>
            </g>
            <g class="cls-74">
              <g class="cls-57">
                <g>
                  <g>
                    <polygon class="cls-45" points="606.4 346.9 1707.6 643.6 1707.6 592.8 606.4 296.1 606.4 346.9"/>
                    <polygon class="cls-17" points="606.4 346.9 1707.6 643.6 1707.6 592.8 606.4 296.1 606.4 346.9"/>
                  </g>
                  <g class="cls-69">
                    <g class="cls-55">
                      <polygon class="cls-45" points="606.4 346.9 1707.6 643.6 1707.6 592.8 606.4 296.1 606.4 346.9"/>
                      <polygon class="cls-17" points="606.4 346.9 1707.6 643.6 1707.6 592.8 606.4 296.1 606.4 346.9"/>
                    </g>
                  </g>
                </g>
                <g class="cls-76">
                  <g class="cls-56">
                    <g>
                      <polygon class="cls-45" points="606.4 346.9 1707.6 643.6 1707.6 592.8 606.4 296.1 606.4 346.9"/>
                      <polygon class="cls-17" points="606.4 346.9 1707.6 643.6 1707.6 592.8 606.4 296.1 606.4 346.9"/>
                    </g>
                    <g class="cls-80">
                      <g class="cls-55">
                        <polygon class="cls-45" points="606.4 346.9 1707.6 643.6 1707.6 592.8 606.4 296.1 606.4 346.9"/>
                        <polygon class="cls-17" points="606.4 346.9 1707.6 643.6 1707.6 592.8 606.4 296.1 606.4 346.9"/>
                      </g>
                    </g>
                  </g>
                </g>
              </g>
            </g>
          </g>
          <polygon class="cls-1" points="-2.9 296.1 1103.1 596 1103.1 929.2 -2.9 629.3 -2.9 296.1"/>
          <g>
            <g>
              <g>
                <g>
                  <rect class="cls-47" x="1102.3" y="595.2" width="609.3" height="333.2"/>
                  <rect class="cls-34" x="1102.3" y="595.2" width="609.3" height="333.2"/>
                </g>
                <g class="cls-73">
                  <g class="cls-55">
                    <rect class="cls-49" x="1102.3" y="595.2" width="609.3" height="333.2"/>
                    <rect class="cls-19" x="1102.3" y="595.2" width="609.3" height="333.2"/>
                  </g>
                </g>
              </g>
              <g class="cls-64">
                <g class="cls-56">
                  <g>
                    <rect class="cls-49" x="1102.3" y="595.2" width="609.3" height="333.2"/>
                    <rect class="cls-19" x="1102.3" y="595.2" width="609.3" height="333.2"/>
                  </g>
                  <g class="cls-53">
                    <g class="cls-55">
                      <rect class="cls-49" x="1102.3" y="595.2" width="609.3" height="333.2"/>
                      <rect class="cls-19" x="1102.3" y="595.2" width="609.3" height="333.2"/>
                    </g>
                  </g>
                </g>
              </g>
            </g>
            <g class="cls-83">
              <g class="cls-57">
                <g>
                  <g>
                    <rect class="cls-45" x="1102.3" y="595.2" width="609.3" height="333.2"/>
                    <rect class="cls-17" x="1102.3" y="595.2" width="609.3" height="333.2"/>
                  </g>
                  <g class="cls-65">
                    <g class="cls-55">
                      <rect class="cls-45" x="1102.3" y="595.2" width="609.3" height="333.2"/>
                      <rect class="cls-17" x="1102.3" y="595.2" width="609.3" height="333.2"/>
                    </g>
                  </g>
                </g>
                <g class="cls-62">
                  <g class="cls-56">
                    <g>
                      <rect class="cls-45" x="1102.3" y="595.2" width="609.3" height="333.2"/>
                      <rect class="cls-17" x="1102.3" y="595.2" width="609.3" height="333.2"/>
                    </g>
                    <g class="cls-82">
                      <g class="cls-55">
                        <rect class="cls-45" x="1102.3" y="595.2" width="609.3" height="333.2"/>
                        <rect class="cls-17" x="1102.3" y="595.2" width="609.3" height="333.2"/>
                      </g>
                    </g>
                  </g>
                </g>
              </g>
            </g>
          </g>
          <polygon class="cls-27" points="1783.7 1191 1352.2 1191 1352.2 929.2 1542.6 929.2 1783.7 1191"/>
          <path class="cls-13" d="M1415.4,805.4h48.1c22.6,0,41,18.4,41,41v82.8h-130.1v-82.8c0-22.6,18.4-41,41-41Z"/>
          <rect class="cls-31" x="1149.1" y="695.9" width="609.3" height="57.1"/>
          <polygon class="cls-21" points="1103.1 670.5 1712.3 670.5 1758.4 695.9 1149.1 695.9 1103.1 670.5"/>
          <polygon class="cls-1" points="1103.1 670.5 1149.1 695.9 1149.1 753.1 1103.1 727.7 1103.1 670.5"/>
          <circle class="cls-15" cx="1486.8" cy="780.2" r="6.9"/>
          <circle class="cls-29" cx="1485.6" cy="781.4" r="4.9"/>
          <path class="cls-34" d="M1490.7,774.5s5.8-8.7,15.4-4,14.3-14.3,23.8-11.1c9.5,3.2,17.6-6.3,17.6-6.3"/>
          <line class="cls-32" x1="1439.4" y1="929.2" x2="1439.4" y2="805.4"/>
          <rect class="cls-36" x="1358.5" y="799.1" width="155.5" height="12.7"/>
          <rect class="cls-36" x="1509.2" y="811.8" width="4.8" height="117.4"/>
          <rect class="cls-36" x="1358.5" y="811.8" width="4.8" height="117.4"/>
          <rect class="cls-5" x="1149.1" y="753.1" width="14.3" height="211"/>
          <rect class="cls-5" x="1744.1" y="753.1" width="14.3" height="211"/>
          <polygon class="cls-38" points="772.1 712.6 1006.5 776.2 1006.5 846.8 772.1 783.2 772.1 712.6"/>
          <polygon class="cls-15" points="772.1 576.1 1006.5 639.7 1006.5 710.3 772.1 646.8 772.1 576.1"/>
          <polygon class="cls-15" points="416.7 614.2 651.1 677.8 651.1 748.4 416.7 684.8 416.7 614.2"/>
          <polygon class="cls-38" points="416.7 477.8 651.1 541.3 651.1 612 416.7 548.4 416.7 477.8"/>
          <polygon class="cls-15" points="39 509.5 273.5 573.1 273.5 643.7 39 580.1 39 509.5"/>
          <polygon class="cls-15" points="39 373 273.5 436.6 273.5 507.2 39 443.7 39 373"/>
          <polygon class="cls-15" points="772.1 712.6 772.1 783.2 825.5 797.7 825.5 727.1 772.1 712.6"/>
          <rect class="cls-2" x="1428.3" y="868.9" width="4.8" height="34.9"/>
          <rect class="cls-2" x="1445.8" y="868.9" width="4.8" height="34.9"/>
          <polygon class="cls-23" points="815.9 442.1 723.5 250.1 709.6 250.1 621.5 383.7 631.8 386.5 712.7 261.2 718.7 261.1 806.6 442.1 815.9 442.1"/>
          <path class="cls-32" d="M675.6,442.1"/>
          <polyline class="cls-3" points="711.1 256.4 675.6 442.1 687.8 442.1 720.9 256.4"/>
          <polygon class="cls-39" points="760.3 644.2 1017.4 713.5 1017.4 729.9 760.3 659.6 760.3 644.2"/>
          <polygon class="cls-39" points="760.3 779 1017.4 848.4 1017.4 864.8 760.3 794.5 760.3 779"/>
          <polygon class="cls-12" points="742.9 262.8 693.7 243.7 692.1 193 718.7 188 779.4 231 779.4 250.1 742.9 262.8"/>
          <polygon class="cls-9" points="779.4 250.1 752.4 242.1 700 207.2 692.1 193 718.7 188 779.4 231 779.4 250.1"/>
          <polygon class="cls-4" points="740.2 221.5 754 196.1 730.2 212 723.2 221.5 733.7 229.7 740.2 221.5"/>
          <path class="cls-30" d="M1980.5,626.9v75.5c0,8.7,5.7,16.4,14,19l5.6,1.7c40.4,12.6,83.7,12.1,123.8-1.3l1-.3c8-2.7,13.5-10.2,13.6-18.7l.7-75.9h-158.7Z"/>
          <ellipse class="cls-15" cx="2059.8" cy="626.9" rx="79.3" ry="23"/>
          <path class="cls-28" d="M1804.4,626.9v75.5c0,8.7,5.7,16.4,14,19l5.6,1.7c40.4,12.6,83.7,12.1,123.8-1.3l1-.3c8-2.7,13.5-10.2,13.6-18.7l.7-75.9h-158.7Z"/>
          <ellipse class="cls-15" cx="1883.7" cy="626.9" rx="79.3" ry="23"/>
          <g>
            <line class="cls-35" x1="748" y1="649.2" x2="1046.7" y2="631.3"/>
            <rect class="cls-35" x="747.7" y="628.3" width="299.3" height="23.8" transform="translate(-36.7 54.8) rotate(-3.4)"/>
          </g>
          <g>
            <line class="cls-35" x1="1022.1" y1="731.3" x2="758.7" y2="565.8"/>
            <rect class="cls-35" x="878.5" y="493" width="23.8" height="311.1" transform="translate(-132.4 1057.5) rotate(-57.9)"/>
          </g>
          <g>
            <line class="cls-35" x1="720.9" y1="599.7" x2="1059.8" y2="683.2"/>
            <rect class="cls-35" x="878.5" y="467" width="23.8" height="349" transform="translate(54.5 1352.5) rotate(-76.2)"/>
          </g>
          <g>
            <line class="cls-35" x1="868.2" y1="570.6" x2="890.4" y2="695.9"/>
            <rect class="cls-35" x="867.4" y="569.6" width="23.8" height="127.3" transform="translate(-97 163.2) rotate(-10)"/>
          </g>
          <polygon class="cls-15" points="495.7 569.8 495.7 499.2 651.1 541.3 651.1 612 495.7 569.8"/>
          <polygon class="cls-39" points="25.7 575.9 282.7 645.3 282.7 661.7 25.7 591.4 25.7 575.9"/>
          <polygon class="cls-39" points="404.9 545.8 662 615.2 662 631.5 404.9 561.2 404.9 545.8"/>
          <polygon class="cls-39" points="404.9 682.3 662 751.6 662 768 404.9 697.7 404.9 682.3"/>
          <path class="cls-7" d="M-3.7,731.3l227.1-198.6c10.6-9.3,26.5-9.2,37,.3l188,170.2c5,4.6,11.6,7.1,18.4,7.2l182.2,2c9.5.1,18.3,5.1,23.3,13.2l99.7,160.7-483,61.9L-3.7,731.3Z"/>
          <path class="cls-7" d="M1923,836.4l152-127.1c8.2-6.9,19.6-8.4,29.4-4l59.4,27.1-.8,177.8-240-73.8Z"/>
          <polygon class="cls-10" points="629.7 948.2 317.5 776.5 -3.7 695.9 -2.9 1017.9 403.2 1060.1 629.7 948.2"/>
          <path class="cls-7" d="M1833.7,1032.2l39.9-32.1c6.8-5.5,15.9-7.4,24.4-5.3l113.4,29.2,89.3,71.4-190,20.4-77-83.6Z"/>
          <path class="cls-33" d="M313,1095.4l-182-156.5c-7.1-6.1-16.8-8.2-25.8-5.7l-108.1,30.8v226.9l315.9-95.5Z"/>
          <polygon class="cls-33" points="2163.8 1105.6 2088.4 1053.6 1923 1079.6 1834.5 1191 2163 1191 2163.8 1105.6"/>
          <path class="cls-33" d="M573.4,1190.2l152-90.3c6.1-3.6,13.4-4.8,20.4-3.2l200.2,45.5,99.8-30.2c8.8-2.7,18.4-.8,25.5,5l92.1,74.1-590-.8Z"/>
          <path class="cls-10" d="M1288.3,1028.1l27.4-18.9c7-4.8,15.8-6.2,23.9-3.7h0c16.2,4.9,24.3,23.1,17.1,38.5l-4.5,9.6-63.9-25.5Z"/>
          <path class="cls-33" d="M1711.5,1190.2l25.3-31.9c10.8-13.6,31.3-14.1,42.7-1.1l29.6,33.7-97.6-.8Z"/>
          <polyline class="cls-25" points="782.5 887.9 763.5 881.6 752.4 892.8 734.9 872.1 739.7 895.9 725.4 854.6 720.9 895.9 705.8 878 692.1 902.2"/>
          <polyline class="cls-25" points="393 1061.6 377.9 1045 371.6 1060.9 371.6 1020.6 365.1 1060.1 362.1 1027.5 355.7 1060.9 344.6 1046.6 331.1 1061.6"/>
          <polyline class="cls-25" points="2021.7 870.5 2043.4 865.6 2047.1 880 2056.6 854.6 2056.6 884.6 2077.3 841.9 2077.3 889.4"/>
          <rect class="cls-18" x="1856.7" y="659.4" width="58.7" height="58.7"/>
          <polygon class="cls-14" points="1867.9 702.8 1886.1 673.8 1903 702.8 1867.9 702.8"/>
          <g>
            <line class="cls-26" x1="1885.5" y1="684.1" x2="1885.5" y2="692.5"/>
            <rect class="cls-20" x="1883.9" y="684.1" width="3.2" height="8.4"/>
          </g>
          <path class="cls-42" d="M1885.5,699.2c3.1,0,3.1-4.8,0-4.8s-3.1,4.8,0,4.8h0Z"/>
          <polygon class="cls-39" points="25.1 440.1 282.2 509.5 282.2 525.9 25.1 455.5 25.1 440.1"/>
          <g>
            <rect class="cls-24" x="1368" y="811.8" width="4.8" height="117.4"/>
            <rect class="cls-24" x="1383.9" y="811.8" width="4.8" height="117.4"/>
            <rect class="cls-24" x="1399.8" y="811.8" width="4.8" height="117.4"/>
            <rect class="cls-24" x="1415.6" y="811.8" width="4.8" height="117.4"/>
            <rect class="cls-24" x="1431.5" y="811.8" width="4.8" height="117.4"/>
            <rect class="cls-24" x="1447.4" y="811.8" width="4.8" height="117.4"/>
            <rect class="cls-24" x="1463.2" y="811.8" width="4.8" height="117.4"/>
            <rect class="cls-24" x="1479.1" y="811.8" width="4.8" height="117.4"/>
            <rect class="cls-24" x="1496.5" y="811.8" width="4.8" height="117.4"/>
          </g>
          <circle class="cls-8" cx="754.8" cy="195.3" r="4"/>
          <polygon class="cls-43" points="1485.6 781.4 1337.9 929.2 1368 960.1 1498.9 975.4 1563.3 928.2 1485.6 781.4"/>
          <polygon class="cls-41" points="825.5 727.1 739.6 834 756.8 861.7 678.6 918.9 923 988.7 1006.5 903 1006.5 776.2 825.5 727.1"/>
          <polygon class="cls-46" points="416.7 477.8 325.7 591.6 445.5 701.7 495.7 599.2 495.7 499.2 416.7 477.8"/>
          <polygon class="cls-48" points="2037.6 346.1 1808.3 195.3 1529.9 321.5 1415.6 296.1 1225.2 383.7 1276 527.6 1427.5 604.7 1681.4 580.1 1883.7 603.9 2036 547.3 2113 435.7 2037.6 346.1"/>
          <polygon class="cls-48" points="78.8 155.7 273.5 44.8 629.7 127.4 902.2 100.2 1156.2 349.2 1223.6 501.8 1062.7 671.7 815.9 641.5 606.4 889.4 436.4 841.9 174 928.4 25.7 741.4 130.9 555.7 69.7 409.5 78.8 155.7"/>
          <polygon class="cls-48" points="760.3 1122.3 983.7 981.2 1186.7 1029 1337.9 821.9 1618.3 786.3 1872.2 858.6 2063 781.4 2139.2 910.1 2100.7 1122.3 1809.1 1096 1509.2 1147.8 1199 1122.3 902.2 1169.4 760.3 1122.3"/>
          <rect class="cls-51" x="-5.2" y="-30" width="2169" height="1220.2"/>
        </g>
      </g>
    </g>
  </g>
</svg>