<?xml version="1.0" encoding="UTF-8"?>
<svg id="Capa_2" data-name="Capa 2" xmlns="http://www.w3.org/2000/svg" version="1.1" xmlns:xlink="http://www.w3.org/1999/xlink" viewBox="0 0 2150 1080">
  <defs>
    <style>
      .cls-1 {
        fill: #ccc;
      }

      .cls-1, .cls-2, .cls-3, .cls-4, .cls-5, .cls-6, .cls-7, .cls-8, .cls-9, .cls-10, .cls-11, .cls-12, .cls-13, .cls-14, .cls-15, .cls-16 {
        stroke-width: 0px;
      }

      .cls-2 {
        fill: url(#Degradado_sin_nombre_14);
      }

      .cls-17, .cls-18, .cls-19, .cls-20, .cls-21, .cls-22, .cls-23, .cls-24, .cls-25, .cls-26, .cls-27, .cls-28, .cls-29, .cls-30, .cls-31, .cls-32, .cls-33, .cls-34, .cls-35, .cls-36, .cls-37, .cls-38, .cls-39, .cls-40, .cls-41 {
        stroke-miterlimit: 10;
      }

      .cls-17, .cls-19, .cls-20, .cls-21, .cls-24, .cls-25, .cls-26, .cls-28, .cls-29, .cls-30, .cls-31, .cls-33, .cls-34, .cls-42, .cls-35, .cls-36, .cls-37, .cls-38, .cls-39, .cls-43, .cls-40, .cls-41 {
        stroke: #000;
      }

      .cls-17, .cls-19, .cls-20, .cls-22, .cls-23, .cls-24, .cls-26, .cls-27, .cls-29, .cls-33, .cls-34, .cls-42, .cls-36, .cls-37, .cls-44, .cls-39, .cls-43, .cls-41 {
        stroke-linecap: round;
      }

      .cls-17, .cls-20, .cls-22, .cls-26, .cls-43 {
        stroke-width: 4.5px;
      }

      .cls-17, .cls-21, .cls-6, .cls-33, .cls-36, .cls-43 {
        fill: #c69c6d;
      }

      .cls-3, .cls-18, .cls-19, .cls-22, .cls-26, .cls-27, .cls-29, .cls-32, .cls-34, .cls-35, .cls-44, .cls-41 {
        fill: #000;
      }

      .cls-18 {
        stroke-width: 3.7px;
      }

      .cls-18, .cls-27, .cls-44 {
        stroke: #fff;
      }

      .cls-4 {
        fill: #c1272d;
      }

      .cls-19, .cls-23, .cls-24, .cls-42, .cls-37 {
        stroke-width: 5.9px;
      }

      .cls-5 {
        fill: #f2f2f2;
      }

      .cls-20, .cls-7 {
        fill: #b3b3b3;
      }

      .cls-21, .cls-30 {
        stroke-width: 3.8px;
      }

      .cls-22 {
        stroke: #333;
      }

      .cls-23 {
        stroke: #b3b3b3;
      }

      .cls-23, .cls-24, .cls-42, .cls-14, .cls-40 {
        fill: #fff;
      }

      .cls-25 {
        fill: #b2151b;
      }

      .cls-25, .cls-28, .cls-31 {
        stroke-width: 1.8px;
      }

      .cls-27 {
        stroke-width: 3.7px;
      }

      .cls-28 {
        fill: #ed1c24;
      }

      .cls-8 {
        fill: #666;
      }

      .cls-9 {
        fill: #e6e6e6;
      }

      .cls-29 {
        stroke-width: 6.7px;
      }

      .cls-10 {
        fill: #999;
      }

      .cls-30 {
        fill: #150b00;
      }

      .cls-11 {
        fill: url(#Degradado_sin_nombre_7);
      }

      .cls-12 {
        fill: #603813;
      }

      .cls-13 {
        fill: url(#Degradado_sin_nombre_9);
      }

      .cls-31 {
        fill: #770e12;
      }

      .cls-32 {
        stroke: #4d4d4d;
      }

      .cls-32, .cls-33 {
        stroke-width: 4.4px;
      }

      .cls-34 {
        stroke-width: 5px;
      }

      .cls-42, .cls-44, .cls-43 {
        stroke-linejoin: round;
      }

      .cls-35 {
        stroke-width: 1.4px;
      }

      .cls-36 {
        stroke-width: 3.8px;
      }

      .cls-37 {
        fill: #1a1a1a;
      }

      .cls-38 {
        fill: #42210b;
        fill-rule: evenodd;
      }

      .cls-38, .cls-40 {
        stroke-width: 1.9px;
      }

      .cls-44 {
        stroke-width: 4.8px;
      }

      .cls-15 {
        fill: #c2c2c2;
      }

      .cls-16 {
        fill: url(#Degradado_sin_nombre_9-2);
      }

      .cls-39 {
        fill: #a67c52;
        stroke-width: 2.9px;
      }

      .cls-41 {
        stroke-width: 5.4px;
      }
    </style>
    <linearGradient id="Degradado_sin_nombre_9" data-name="Degradado sin nombre 9" x1="972.5" y1="894.4" x2="2263.5" y2="189.6" gradientUnits="userSpaceOnUse">
      <stop offset="0" stop-color="#000" stop-opacity="0"/>
      <stop offset=".1" stop-color="rgba(0, 0, 0, .5)" stop-opacity=".5"/>
      <stop offset="1" stop-color="#000"/>
    </linearGradient>
    <linearGradient id="Degradado_sin_nombre_7" data-name="Degradado sin nombre 7" x1="-103.6" y1="890.3" x2="1179.6" y2="189.7" gradientUnits="userSpaceOnUse">
      <stop offset="0" stop-color="#000"/>
      <stop offset="1" stop-color="#000" stop-opacity="0"/>
    </linearGradient>
    <linearGradient id="Degradado_sin_nombre_9-2" data-name="Degradado sin nombre 9" x1="1728.3" y1="119.9" x2="1730.9" y2="118.5" xlink:href="#Degradado_sin_nombre_9"/>
    <linearGradient id="Degradado_sin_nombre_14" data-name="Degradado sin nombre 14" x1="1079.5" y1="1084.5" x2="1079.5" y2="-.5" gradientUnits="userSpaceOnUse">
      <stop offset="0" stop-color="#000"/>
      <stop offset="1" stop-color="#000" stop-opacity="0"/>
    </linearGradient>
  </defs>
  <rect class="cls-13" x="1076" width="1084" height="1084"/>
  <rect class="cls-9" width="1082" height="1079"/>
  <polygon class="cls-10" points="-.5 301.5 215 222.7 459.3 503.5 790.6 478.1 1013.3 706.8 1076 836.7 1082 1079 0 1080 -.5 301.5"/>
  <polygon class="cls-15" points="0 333.7 240.7 671.2 325.6 647.4 577.8 775.9 826.7 820.6 1352.9 1080 0 1080 0 333.7"/>
  <g>
    <g>
      <circle class="cls-7" cx="611.1" cy="699.1" r="31.3"/>
      <path class="cls-20" d="M577.8,702.8l28.7,188.8.2,3.8c.5,10.2,9.1,18.1,19.4,17.7h0c10.2-.5,18.1-9.1,17.7-19.4l-.2-3.5-8.5-166.3"/>
      <path class="cls-17" d="M636.9,760.7l6.6,129.3.2,3.5c.5,10.2-7.4,18.9-17.7,19.4h0c-10.2.5-18.9-7.4-19.4-17.7l-.2-3.8-18.7-123.2,49.1-7.5Z"/>
    </g>
    <g>
      <circle class="cls-6" cx="624.2" cy="892" r="16.3"/>
      <path class="cls-17" d="M622.2,910.4l133.4,39.1,6.5,2.6c7,2.8,15-.6,17.8-7.6h0c3-7.4-1-15.8-8.6-18.1l-5.6-1.7-131.6-48.4"/>
    </g>
    <g>
      <circle class="cls-6" cx="767.7" cy="939.5" r="11.3"/>
      <path class="cls-17" d="M764.1,952.5l40.4,25.2c1.7,1.1,14.6,5.6,16.4,4.8l11.8-5.1c1.5-.6,2.6-1.8,3.2-3.3l6.9-17.2c.9-2.4.3-5.1-1.6-6.8l-7.3-6.6c-.7-.6-1.6-1.1-2.5-1.3l-30.5-9.7c-1.2-.2-1.4-1.7-.4-2.2l12.4-.2c3.9,0,6.7-3.8,5.8-7.6h0c-.8-3.2-4-5.1-7.2-4.4l-38.7,8.7"/>
    </g>
    <g>
      <path class="cls-37" d="M1222.1,980.8l48.7-32.9c7.1-5.4,17-5.5,24.2-.2l1,.8-78.6,106.8-32.6-24,37.2-50.5Z"/>
      <circle class="cls-24" cx="1197.6" cy="1001.7" r="31.4"/>
      <path class="cls-24" d="M1268.5,949.7l3.4-2.7c7.2-5.7,17.3-6,24.7-.5l.7.5-11.4,15.5-17.3-12.8Z"/>
      <rect class="cls-42" x="1197.7" y="997.3" width="134.5" height="18.8" transform="translate(-295.7 1428.5) rotate(-53.6)"/>
      <line class="cls-23" x1="1220.9" y1="997.1" x2="1196.2" y2="978.9"/>
      <line class="cls-23" x1="1217" y1="1012.3" x2="1189" y2="991.7"/>
      <line class="cls-23" x1="1198.7" y1="1022.4" x2="1181.8" y2="1010"/>
      <path class="cls-5" d="M1261.2,970.2c2.8,0,2.8-4.4,0-4.4s-2.8,4.4,0,4.4h0Z"/>
      <path class="cls-5" d="M1236.3,988.7c2.8,0,2.8-4.4,0-4.4s-2.8,4.4,0,4.4h0Z"/>
    </g>
    <g>
      <circle class="cls-41" cx="823.7" cy="980" r="31.7"/>
      <path class="cls-34" d="M797.6,962.4l123-170.6,1.1-1.4c16.5-21.1,56.2-17.3,77.1-.5h0c20.7,16.7,23.9,46.9,7.3,67.6l-.4.5-164.8,149"/>
    </g>
    <g>
      <g>
        <circle class="cls-29" cx="966.5" cy="820.6" r="53.5"/>
        <path class="cls-19" d="M934.8,863.7l229.6,169.6c3.4,2.5,8.1,1.8,10.6-1.6l47.4-64.4c2.5-3.4,1.8-8.1-1.6-10.6l-222.8-178.9"/>
      </g>
      <line class="cls-32" x1="1164.3" y1="1033.4" x2="1220.7" y2="956.8"/>
    </g>
    <g>
      <path class="cls-37" d="M1346.5,1004.6l28.2-51.6c3.9-8.1,12.6-12.7,21.5-11.3l1.3.2-20.9,131-39.9-6.4,9.9-62Z"/>
      <circle class="cls-24" cx="1334.3" cy="1034.4" r="31.4"/>
      <path class="cls-24" d="M1373.4,955.7l1.8-4c3.7-8.4,12.6-13.2,21.7-11.8h.8c0,.1-3,19.2-3,19.2l-21.3-3.4Z"/>
      <rect class="cls-42" x="1329.1" y="998.6" width="134.5" height="18.8" transform="translate(181.5 2228.6) rotate(-81)"/>
      <line class="cls-23" x1="1352.9" y1="1019.7" x2="1322.6" y2="1014.8"/>
      <line class="cls-23" x1="1356.4" y1="1035" x2="1322.1" y2="1029.5"/>
      <line class="cls-23" x1="1344.8" y1="1052.4" x2="1324.1" y2="1049.1"/>
      <path class="cls-5" d="M1375.4,977.5c2.8,0,2.8-4.4,0-4.4s-2.8,4.4,0,4.4h0Z"/>
      <path class="cls-5" d="M1361.8,1005.4c2.8,0,2.8-4.4,0-4.4s-2.8,4.4,0,4.4h0Z"/>
    </g>
    <g>
      <circle class="cls-41" cx="831.8" cy="977.1" r="31.7"/>
      <path class="cls-34" d="M828,945.9l209.4-19.8h1.7c26.8-1.6,50.1,30.8,51.1,57.6h0c1.1,26.5-19.6,48.9-46.1,50h-.7s-220.6-25.9-220.6-25.9"/>
    </g>
    <g>
      <g>
        <circle class="cls-29" cx="1045.9" cy="979.6" r="53.5"/>
        <path class="cls-19" d="M1037.5,1032.5l281.8,45.4c4.1.7,8-2.2,8.7-6.3l12.6-78.9c.7-4.1-2.2-8-6.3-8.7l-280-56.7"/>
      </g>
      <line class="cls-32" x1="1319.3" y1="1077.9" x2="1334.2" y2="984"/>
    </g>
    <path class="cls-26" d="M763.6,926.7h0c-18.6-28.7-10.4-67.1,18.3-85.8h0s0,0,0,0l47.8,65c12.5,17,22,36,28.2,56.2h0c9,14.7,4.2,34.1-11.1,42.7-13.7,7.8-31.5,3.6-40.4-9.5l-1.9-.8c-26.6-11.7-43-38.8-40.9-67.8Z"/>
    <path class="cls-22" d="M826.7,929.3s18,14.4,13.2,41.9"/>
    <path class="cls-20" d="M670.1,629.9"/>
    <g>
      <path class="cls-20" d="M570.5,612.8h0s-5,26-5,26c-5.1,32,3.5,64.7,23.8,90l175.2,198.1s39.4,22.2,48.7,11.9c9.3-10.3,6.7-20.5,19.8-28.5l-80.3-156.2c-7-13.7-13.6-27.7-19.5-41.9-4.1-9.7-9.7-22.3-17.6-35.7-29.5-50.3-88.1-75.9-145.1-63.7Z"/>
      <path class="cls-43" d="M567.9,626.2s73.5,15.4,94.2,7.2l8-3.4s-34.7-29.7-99.6-17.2l-2.6,13.4Z"/>
    </g>
    <g id="Cuello">
      <path class="cls-33" d="M625.4,615l-12.7-61.1c-4.2-15.5-18.5-28.3-32.4-26.1h0c-14.1,2.2-19.3,17.4-18.3,33.6l8.3,54.6"/>
    </g>
    <path class="cls-21" d="M651.1,582.5l-31.3,4.8-58.8-27-21.3-66.7c-3-9.5-2.3-19.8,2-28.8l.4-.8c4.1-8.6,10.8-15.7,19.2-20.3l29-12.4,29.6,19.1c11.7,7.6,3.8,2.2,21.5,33.6l9.5,67v31.6Z"/>
    <path class="cls-39" d="M641.4,499.3l20.3,28.8c.9,1.6,0,3.6-1.9,3.9l-13.4,1.9"/>
    <g>
      <path class="cls-3" d="M628.6,551.1c5.9-4.6,13.9-6.1,21.2-4.4,0,0-.6,2.1-.6,2.1-6.8-2.3-14.5-1.5-20.7,2.3h0Z"/>
      <path class="cls-3" d="M633.1,551.1c5.2-2.4,11.2-3.1,17-2l-.5,2.1c-5.2-1.7-11.1-1.8-16.5-.1,0,0,5.5-1.7,0,0Z"/>
    </g>
    <g>
      <path class="cls-40" d="M632.4,495.4s-2.5-13.7-38.8,6.2c0,0,12.8,9.6,38.8-6.2Z"/>
      <path class="cls-3" d="M633,495h-.9s-.6-3.4-4.5-5.3c-4.6-2.2-14.2-2.5-34.1,8.6l-.4-.8c9-5.1,16.8-8.2,23-9.4,4.9-1,9-.7,12,.8,4.3,2.1,4.9,6,4.9,6.1Z"/>
      <g>
        <path class="cls-12" d="M625.1,499.2c3-6.2-.8-7.8-.8-7.8-5.3-1.2-15.3,3.3-15.3,3.3,0,0-5.5,4.2,1.5,9.2l5.3-1.3,2.6-.7,6.6-2.7Z"/>
        <path class="cls-3" d="M610.4,504.5h-.2c-2.4-1.9-3.7-3.8-3.7-5.8,0-2.6,2.1-4.3,2.2-4.3h0s0,0,0,0c.4-.2,10.1-4.5,15.5-3.3h0c0,0,1.3.6,1.9,2.2.6,1.6.3,3.7-.9,6.3v.2c0,0-6.9,2.8-6.9,2.8l-2.6.7-5.6,1.4ZM609.3,495.1c-.3.2-1.9,1.6-1.8,3.6,0,1.6,1.1,3.2,3.2,4.8l5.1-1.3,2.6-.7,6.4-2.6c1-2.2,1.3-4,.8-5.4-.4-1.1-1.2-1.6-1.4-1.7-4.9-1-14.1,2.9-14.9,3.2Z"/>
      </g>
      <g>
        <circle class="cls-3" cx="617.2" cy="496.8" r="4.8"/>
        <path class="cls-3" d="M618,502c-2.9.5-5.6-1.5-6-4.4s1.5-5.6,4.4-6,5.6,1.5,6,4.4-1.5,5.6-4.4,6ZM616.5,492.5c-2.4.4-4,2.6-3.6,5s2.6,4,5,3.6c2.4-.4,4-2.6,3.6-5-.4-2.4-2.6-4-5-3.6Z"/>
      </g>
    </g>
    <path class="cls-38" d="M589.1,497s18.7-15.9,38.7-13.4c1.7.2,3.2-1.3,2.9-3l-.4-2.3c-.2-1.4-1.5-2.4-2.9-2.2-8.2,1-34.1,5.4-38.4,20.9Z"/>
    <path class="cls-30" d="M624.6,439.9c7.8-.6,12.7,1.4,16.1,3.1,3.3,1.7,6.3,4.1,9.8,5.2,3.5,1.1,7.8.6,9.2-2.5-.2,4.6-4.4,7.8-8.8,8.7-4.5.9-9.3,0-14-.6,0,0,11.7,8.3,18.5,4.4,0,0-2.1,6.2-10.7,7.4,3.1,1.1,7.7,2.4,13.6,2.5-14.6,10.9-28.5-3.3-28.5-3.3.8,5.8-3.1,9.3-3.1,9.3-.2-11.8-15-14.1-15-14.1-1.3,2,.1,4.8.8,7.3.7,2.5-.5,5.9-3,5.2-3.6-4.8-6.8-10.2-11.6-13.8-4.8-3.6,1.2,10.6,5,14.4,5.2,5.2-14.2-8.9-11.1-5.5,3.1,3.3,5.1,8.6,2.6,11.7-2.5-1.5-5.1-3-7.9-3.3-2.8-.3-5.7,1.2-6.1,3.9-.4,3.1.8,3.2,3.5,5.3,4.9,3.7,6.1,0,11,3.8-9.8-.1-14.5,6.1-22.5-.5,0,0,3.5,16.4,11.6,19.7,0,0-7.7,2.5-20.3-11.8l12.6,48.4s-17.1,3.9-20.4-8.9c0,0-15.1,8.1-3.1,19.6,0,0-16.8-3.7-21.2-34.6-7.1.2-5.3,15.9-5.3,15.9-7.7-8.6-4.2-19.2-4.2-19.2-7.7,2.9-13.4-5.7-13.4-5.7,12.1-3.8,5.2-29.2,5.2-29.2-2.3,1.8-4.2,4.2-5.4,6.9-1.8-3.4-.7-7.2.6-10.4,5.6-13.6,14.5-25.5,25.9-34.5l-.9-3.7c-11.6-1.7-23.3,1.3-31.8,8.1,3.2-11.8,14-20.4,26.6-21.2,7-.4,16,.6,18.8-5.6.7-1.5.9-3.3,1.3-5,1.9-7.2,8.7-11.5,15.1-15.2-2.7,4.3-3.3,10-1.6,15.2,4.5-2.4,9.7-3.6,15.1-3.4,4.3.2,9.1,1.1,12.5-1.2,2.6-1.8,3.6-5.2,5.6-7.7,4-5.1,12.5-6,18.5-1.9-4.4,1.9-10.1,5.1-9.4,10,.2,1.3,0,1.8,1,2.6,1.3,1.1,3,1.3,4.4.7,1.9-.8,4.3-2.8,4.3-7.8,0,0,7.7,8,7.6,14.7,0,0,10.9,1.9,19.9,8.1,0,0-15.5,2.3-17.5,8.3"/>
    <path class="cls-36" d="M580.6,544.1c-12.1,1.3-21.3-7.2-22.6-19.3-.9-8.5,3.1-16.4,9.7-20.8"/>
    <g>
      <circle class="cls-7" cx="611.1" cy="699.1" r="31.3"/>
      <path class="cls-20" d="M620.7,731.2l180.8-61.5,3.7-.8c10-2.3,16.2-12.2,14-22.2h0c-2.3-10-12.2-16.2-22.2-14l-3.4.8-162.2,37.6"/>
      <path class="cls-17" d="M667.3,662.9l126.1-29.3,3.4-.8c10-2.3,19.9,4,22.2,14h0c2.3,10-4,19.9-14,22.2l-3.7.8-117.9,40.1-16-47.1Z"/>
    </g>
    <g>
      <circle class="cls-6" cx="798.8" cy="652.2" r="16.3"/>
      <path class="cls-17" d="M809.2,667.5l126.7-57.2,6.6-2.3c7.1-2.4,11-10.2,8.5-17.3h0c-2.6-7.6-11-11.3-18.4-8.1l-5.4,2.3-131.4,48.9"/>
    </g>
    <g>
      <circle class="cls-6" cx="938.6" cy="594.9" r="11.3"/>
      <path class="cls-17" d="M944.3,607.1l47-7.1c2-.3,14.7-5.3,15.6-7.1l5.7-11.6c.7-1.4.8-3.1.3-4.6l-6-17.5c-.8-2.4-3.1-4.1-5.6-4.1l-9.9-.2c-1,0-1.9.2-2.8.6l-29.5,12.5c-1,.6-2.2-.4-1.7-1.5l9.3-8.3c2.9-2.6,2.6-7.3-.6-9.5h0c-2.7-1.9-6.4-1.3-8.4,1.3l-23.7,31.8"/>
    </g>
    <g>
      <g>
        <circle class="cls-3" cx="1322.2" cy="146" r="30.5"/>
        <path class="cls-44" d="M1352.7,155.6h0c-11.9,93.5-38.8,184.5-79.6,269.5l-.9,3c-3.5,11.9-15.9,18.8-27.8,15.3h0c-11.9-3.5-18.8-15.9-15.3-27.8l.8-2.8,71-244.9"/>
      </g>
      <path class="cls-14" d="M1332.4,137.2c1.4,0,1.4-2.1,0-2.1s-1.4,2.1,0,2.1h0Z"/>
      <path class="cls-14" d="M1294,250c1.4,0,1.4-2.1,0-2.1s-1.4,2.1,0,2.1h0Z"/>
      <path class="cls-14" d="M1277.2,372c1.4,0,1.4-2.1,0-2.1s-1.4,2.1,0,2.1h0Z"/>
      <path class="cls-14" d="M1300.3,287.5c1.4,0,1.4-2.1,0-2.1s-1.4,2.1,0,2.1h0Z"/>
      <path class="cls-14" d="M1246.7,413.2c1.4,0,1.4-2.1,0-2.1s-1.4,2.1,0,2.1h0Z"/>
    </g>
    <g>
      <g>
        <g>
          <circle class="cls-3" cx="1250" cy="422" r="19.2"/>
          <polyline class="cls-44" points="1259.3 442.6 1023 565.5 1233.8 406.2"/>
        </g>
        <path class="cls-14" d="M1163.9,475.8c1.4,0,1.4-2.1,0-2.1s-1.4,2.1,0,2.1h0Z"/>
      </g>
      <path class="cls-14" d="M1207.7,434c2.7,0,2.7-4.3,0-4.3s-2.7,4.3,0,4.3h0Z"/>
      <path class="cls-14" d="M1233.9,438.8c2.7,0,2.7-4.3,0-4.3s-2.7,4.3,0,4.3h0Z"/>
    </g>
    <g>
      <path class="cls-44" d="M1546.7,318.4c115.2,208.9,250.4,402.6,250.4,402.6l145.4,242.2-18.6-153.1c-5.5-45.3-38.7-97.7-77.3-121.2l-24-71c-14.1-59-53.7-109.4-67.9-168.4-34.3-142.5-65-135.7-146.8-164.4,0,0-13.5-15.5-28.7-19.4-15.2-3.9-51.2,7.8-32.4,52.8Z"/>
      <path class="cls-14" d="M1632.6,343.3c1.4,0,1.4-2.1,0-2.1s-1.4,2.1,0,2.1h0Z"/>
      <path class="cls-14" d="M1708.7,533.8c1.4,0,1.4-2.1,0-2.1s-1.4,2.1,0,2.1h0Z"/>
      <path class="cls-14" d="M1738.8,485.5c1.4,0,1.4-2.1,0-2.1s-1.4,2.1,0,2.1h0Z"/>
      <path class="cls-14" d="M1903.8,771c1.4,0,1.4-2.1,0-2.1s-1.4,2.1,0,2.1h0Z"/>
      <path class="cls-14" d="M1769.6,622.4c2.1,0,2.1-3.2,0-3.2s-2.1,3.2,0,3.2h0Z"/>
      <path class="cls-14" d="M1562.2,282.8c2.7,0,2.7-4.3,0-4.3s-2.7,4.3,0,4.3h0Z"/>
    </g>
    <g>
      <g>
        <g>
          <path class="cls-44" d="M1414.5,280.9c-9.7,10.9-38.8,37.3-73.8,28.1-14.6-3.9-30.6-15-44.3-46.6-17-39.2-36-64-48.6-71-13.8-7.8-19.9-24.5-14.4-39.3,21.1-9,41.1-17.1,63.6-33.4,9.4-6.8,22-9,33.7-4.6,7.2,2.7,13,7.3,17.1,13.2.6.8,1.2,1.7,1.9,2.5l49,59.2c30.3,36.6,120.8,58.2,165.9,72.8l22.7,7.4-23.8,64.6c-36.6-11.6-95-32.2-132.6-46.4-5.5-2.1-11.1-4.2-16.5-6.3Z"/>
          <path class="cls-14" d="M1604.5,314.2c2.7,0,2.7-4.3,0-4.3s-2.7,4.3,0,4.3h0Z"/>
          <path class="cls-14" d="M1467.1,264c1.4,0,1.4-2.1,0-2.1s-1.4,2.1,0,2.1h0Z"/>
          <path class="cls-14" d="M1262.5,203.1c1.4,0,1.4-2.1,0-2.1s-1.4,2.1,0,2.1h0Z"/>
        </g>
        <circle class="cls-3" cx="1576.3" cy="301.5" r="31.9"/>
      </g>
      <path class="cls-14" d="M1555.9,323.2c2.7,0,2.7-4.3,0-4.3s-2.7,4.3,0,4.3h0Z"/>
      <path class="cls-14" d="M1345.8,241.2c2.7,0,2.7-4.3,0-4.3s-2.7,4.3,0,4.3h0Z"/>
    </g>
    <g>
      <g>
        <circle class="cls-3" cx="1318.8" cy="144.3" r="30.5"/>
        <path class="cls-44" d="M1333.9,116.1h0c89.7,29,174.1,72.3,250.1,128l2.8,1.4c11.1,5.6,15.5,19.1,9.9,30.2h0c-5.6,11.1-19.1,15.5-30.2,9.9l-2.6-1.3-227.6-115.1"/>
      </g>
      <path class="cls-14" d="M1311,133.5c1.4,0,1.4-2.1,0-2.1s-1.4,2.1,0,2.1h0Z"/>
      <path class="cls-14" d="M1414.8,192.1c1.4,0,1.4-2.1,0-2.1s-1.4,2.1,0,2.1h0Z"/>
      <path class="cls-14" d="M1531.6,231.2c1.4,0,1.4-2.1,0-2.1s-1.4,2.1,0,2.1h0Z"/>
      <path class="cls-14" d="M1452.8,192.9c1.4,0,1.4-2.1,0-2.1s-1.4,2.1,0,2.1h0Z"/>
      <path class="cls-14" d="M1566.4,268.8c1.4,0,1.4-2.1,0-2.1s-1.4,2.1,0,2.1h0Z"/>
    </g>
    <g>
      <g>
        <g>
          <circle class="cls-3" cx="1576.8" cy="266.1" r="19.2"/>
          <polyline class="cls-44" points="1598.3 258.9 1697.6 506 1559.6 280.7"/>
        </g>
        <path class="cls-14" d="M1620.9,358c1.4,0,1.4-2.1,0-2.1s-1.4,2.1,0,2.1h0Z"/>
      </g>
      <path class="cls-14" d="M1582.6,311.4c2.7,0,2.7-4.3,0-4.3s-2.7,4.3,0,4.3h0Z"/>
      <path class="cls-14" d="M1589.8,285.7c2.7,0,2.7-4.3,0-4.3s-2.7,4.3,0,4.3h0Z"/>
    </g>
    <g>
      <path class="cls-31" d="M1124.5,129.7s-11.1-.6-11,8.9l8.6,11.2,12.5-5.8-10.2-14.2Z"/>
      <path class="cls-31" d="M1123.7,185s10.5,5.9,18.6.4l-3-24.7-17.2,5.8,1.6,18.6Z"/>
      <path class="cls-31" d="M1160.7,139.8s15.4,4.5,8.1,19.8l-17.4,16-12.4-19.6,21.7-16.2Z"/>
      <path class="cls-25" d="M1117.9,142.5c-6.9,8.5-18,12.2-16,22.1,1.6,7.9,5.8,15.2,12.5,20.7,7.5,6,15-7.4,23.8-8.3,9.2-.9,19.8,10.7,26.1,2.9,6.1-7.6-7.3-15.3-8.3-24.3-1-9,10.6-19.4,3-25.6-7.5-6.1-16.7-8.5-25.7-7.7s-9.2,12.4-15.4,20.2Z"/>
      <path class="cls-28" d="M1129.8,178.3c10.3,3.8,17.3,13.2,26.1,8.1s12.6-10.4,15.6-18.5c3.3-9-11.8-11.8-15.4-19.9-3.8-8.5,3.8-22.2-5.6-25.6-9.2-3.4-12.2,11.9-20.4,15.7-8.2,3.8-21.8-3.8-25.2,5.4-3.3,9.1-2.7,18.6.9,26.8,3.8,8.4,14.7,4.7,24,8.1Z"/>
      <g>
        <path class="cls-35" d="M1143.4,133.4s-39.1,15.8-5,46.6c0,0,27.6-21.6,5-46.6Z"/>
        <path class="cls-3" d="M1130.5,127.2c4.5.7,8.9,3,11.6,6.7,0,0-1.2.8-1.2.8-2.2-3.8-6.2-6.4-10.4-7.5h0Z"/>
        <path class="cls-3" d="M1124.3,133.1c4.5-.7,9.4.2,13.1,3,0,0-.9,1.1-.9,1.1-3.2-3-7.8-4.3-12.2-4.1h0Z"/>
        <path class="cls-3" d="M1119.5,138.4c4.3-1.3,9.3-1.1,13.4,1.1,0,0-.7,1.2-.7,1.2-3.6-2.5-8.3-3.1-12.6-2.3h0Z"/>
        <path class="cls-14" d="M1131.8,155.7c2.7,0,2.7-4.3,0-4.3s-2.7,4.3,0,4.3h0Z"/>
        <path class="cls-14" d="M1141.3,150.6c2.7,0,2.7-4.3,0-4.3s-2.7,4.3,0,4.3h0Z"/>
        <path class="cls-14" d="M1136,166.2c2.7,0,2.7-4.3,0-4.3s-2.7,4.3,0,4.3h0Z"/>
        <path class="cls-14" d="M1144.7,160.7c2.7,0,2.7-4.3,0-4.3s-2.7,4.3,0,4.3h0Z"/>
      </g>
      <g>
        <g id="Cuello-2" data-name="Cuello">
          <path class="cls-27" d="M1262.3,200.4l-75.8-24c-13.8-7.5-22.4-25.2-16.7-39.9h0c5.7-14.8,24.1-21.8,39.5-17.7l61.3,18"/>
        </g>
        <path class="cls-14" d="M1246.4,147.4c2.7,0,2.7-4.3,0-4.3s-2.7,4.3,0,4.3h0Z"/>
        <path class="cls-14" d="M1264.9,169.2c2.1,0,2.1-3.2,0-3.2s-2.1,3.2,0,3.2h0Z"/>
        <path class="cls-14" d="M1240.8,186.2c2.7,0,2.7-4.3,0-4.3s-2.7,4.3,0,4.3h0Z"/>
        <path class="cls-14" d="M1256,199.4c1.4,0,1.4-2.1,0-2.1s-1.4,2.1,0,2.1h0Z"/>
      </g>
      <path class="cls-18" d="M1213.2,194.2c-8.1,7.6-20,10.6-31.3,7.1-1.6-.5-3.2-.8-4.8-1.1l-27.1-4.6-6.3.7c-2.1.2-4.2-.5-5.6-2.1l-16.2-14.2-8.6-3.3c-.9-.3-1.8-.7-2.7-1.1-39.2-16.9-49.2-67.5-20.1-97.8h0c18.4-19.1,48.3-22.3,70.8-7.4l28.9,26.9c26.5,24.7,35.6,62.9,23.1,96.9h0Z"/>
      <path class="cls-14" d="M1084.8,144.6c2.7,0,2.7-4.3,0-4.3s-2.7,4.3,0,4.3h0Z"/>
      <path class="cls-14" d="M1131.1,81c2.7,0,2.7-4.3,0-4.3s-2.7,4.3,0,4.3h0Z"/>
      <path class="cls-14" d="M1091.1,106.6c2.7,0,2.7-4.3,0-4.3s-2.7,4.3,0,4.3h0Z"/>
      <path class="cls-14" d="M1198.6,180.2c2.7,0,2.7-4.3,0-4.3s-2.7,4.3,0,4.3h0Z"/>
      <path class="cls-14" d="M1171.3,108.8c2.1,0,2.1-3.2,0-3.2s-2.1,3.2,0,3.2h0Z"/>
      <path class="cls-14" d="M1114,119.8c1.4,0,1.4-2.1,0-2.1s-1.4,2.1,0,2.1h0Z"/>
      <path class="cls-14" d="M1195.8,146c1.4,0,1.4-2.1,0-2.1s-1.4,2.1,0,2.1h0Z"/>
      <g>
        <path class="cls-14" d="M1157.9,145.6c2.7,0,2.7-4.3,0-4.3s-2.7,4.3,0,4.3h0Z"/>
        <path class="cls-14" d="M1159.7,154.5c2.1,0,2.1-3.2,0-3.2s-2.1,3.2,0,3.2h0Z"/>
        <path class="cls-14" d="M1156.1,164.9c2.7,0,2.7-4.3,0-4.3s-2.7,4.3,0,4.3h0Z"/>
        <g>
          <path class="cls-14" d="M1139.3,180.7s27.6-21.6,5-46.6c0,0-39.1,15.8-5,46.6"/>
          <path class="cls-14" d="M1131.3,128.6c4.5.7,8.9,3,11.6,6.7,0,0-1.2.8-1.2.8-2.2-3.8-6.2-6.4-10.4-7.5h0Z"/>
          <path class="cls-14" d="M1125.1,134.5c4.5-.7,9.4.2,13.1,3,0,0-.9,1.1-.9,1.1-3.2-3-7.8-4.3-12.2-4.1h0Z"/>
          <path class="cls-14" d="M1120.3,139.8c4.3-1.3,9.3-1.1,13.4,1.1,0,0-.7,1.2-.7,1.2-3.6-2.5-8.3-3.1-12.6-2.3h0Z"/>
        </g>
      </g>
    </g>
  </g>
  <polygon class="cls-8" points="0 891.4 163.6 767 323.6 836.7 464.4 681.8 580.6 705.9 662.1 991.7 1434.5 1080 0 1080 0 891.4"/>
  <polygon class="cls-10" points="0 791 209.9 891.4 317.9 775.7 683 942.5 753.6 1049.1 1045.9 1003.3 1203 1080 0 1080 0 791"/>
  <path class="cls-4" d="M771,664c8.9-5.8,18.2-11.1,27.8-15.7-8.9,5.8-18.2,11.1-27.8,15.7h0Z"/>
  <path class="cls-4" d="M808,656.1c1.8-6.1,4.1-11.9,7.2-17.4-1.7,6.1-4.1,11.9-7.2,17.4h0Z"/>
  <path class="cls-4" d="M613,531.7c0,6.6-.8,13.2-2.3,19.7,0-6.6.8-13.2,2.3-19.7h0Z"/>
  <path class="cls-4" d="M594.5,530.4c2.5,9,4.4,18.3,5.5,27.6-2.5-9-4.4-18.3-5.5-27.6h0Z"/>
  <path class="cls-4" d="M677,911c7.1-1.6,14.2-2.5,21.5-2.7-7.1,1.6-14.2,2.5-21.5,2.7h0Z"/>
  <path class="cls-4" d="M701.5,920.9c6.8-.7,13.7-.7,20.5,0-6.8.7-13.7.7-20.5,0h0Z"/>
  <path class="cls-4" d="M798.8,664c-2.7.7-5.5.7-8.2,0,2.7-.7,5.5-.7,8.2,0h0Z"/>
  <rect class="cls-11" width="1076" height="1080"/>
  <polygon class="cls-3" points="0 515.5 204.1 372.1 406.6 316.9 477 289 564 305.8 569.2 355 557.9 319.3 483 311 549 342 553.1 391.2 537.9 353.1 481 338 527.1 366.2 520.4 402.2 514 371 470.2 360.6 452 377 472 411 498 410 468 426 408 355 221 397 0 641.8 0 515.5"/>
  <polygon class="cls-3" points="256 1080 307.5 806.3 407.4 621.7 435.8 551.4 508.1 500.1 547.2 530.3 513.6 513.9 455.9 562.3 523.9 535.9 562.3 566.9 524.2 551.6 474 582.4 526.3 568.5 547.7 598.3 520.7 581.3 483 605.8 482.2 630.3 520.6 639.3 537.9 619.8 528.7 652.5 435.9 646.9 337.2 811.2 379 1080 256 1080"/>
  <polygon class="cls-3" points="0 601.2 176 550 289.3 459.9 339.4 440 401.3 452 405 487 396.9 461.6 343.6 455.7 390.6 477.7 393.5 512.7 382.7 485.6 342.2 474.9 375 495 370.2 520.6 365.7 498.4 334.5 491 321.6 502.6 335.8 526.8 354.3 526.1 333 537.5 290.3 487 190 582 0 691 0 601.2"/>
  <polygon class="cls-1" points="1409.5 121.9 1727.5 89.4 2058.5 229.4 2036.6 499.1 1931.6 350.3 2005.8 498.1 1808.8 388.5 1709.8 229.8 1409.5 121.9"/>
  <polygon class="cls-14" points="1409.5 121.9 1716.6 33 2067.2 111.5 2094 380.8 1964 253.2 2063.5 385.4 1850 312.8 1724.3 174.3 1409.5 121.9"/>
  <path class="cls-16" d="M1729.6,120.7c1.9,0,1.9-3,0-3s-1.9,3,0,3h0Z"/>
  <path class="cls-14" d="M1754.6-558.1c1.9,0,1.9-3,0-3s-1.9,3,0,3h0Z"/>
  <path class="cls-14" d="M1687.1,84.1c1.9,0,1.9-3,0-3s-1.9,3,0,3h0Z"/>
  <path class="cls-14" d="M2057.4,284.6c1.9,0,1.9-3,0-3s-1.9,3,0,3h0Z"/>
  <path class="cls-14" d="M2115.3,124.6c1.9,0,1.9-3,0-3s-1.9,3,0,3h0Z"/>
  <path class="cls-14" d="M1982.2,47.4c1.9,0,1.9-3,0-3s-1.9,3,0,3h0Z"/>
  <path class="cls-14" d="M1907,248c1.9,0,1.9-3,0-3s-1.9,3,0,3h0Z"/>
  <path class="cls-14" d="M2061.3,629.9c1.9,0,1.9-3,0-3s-1.9,3,0,3h0Z"/>
  <path class="cls-14" d="M2082.5,992.4c1.9,0,1.9-3,0-3s-1.9,3,0,3h0Z"/>
  <path class="cls-14" d="M1727.6,1013.6c1.9,0,1.9-3,0-3s-1.9,3,0,3h0Z"/>
  <path class="cls-14" d="M1681.4,741.7c1.9,0,1.9-3,0-3s-1.9,3,0,3h0Z"/>
  <path class="cls-14" d="M1451.9,805.4c1.9,0,1.9-3,0-3s-1.9,3,0,3h0Z"/>
  <path class="cls-14" d="M1475,446.6c1.9,0,1.9-3,0-3s-1.9,3,0,3h0Z"/>
  <path class="cls-14" d="M1166.4,377.2c1.9,0,1.9-3,0-3s-1.9,3,0,3h0Z"/>
  <path class="cls-14" d="M1145.2,770.6c1.9,0,1.9-3,0-3s-1.9,3,0,3h0Z"/>
  <path class="cls-14" d="M2030.4,489.1c1.9,0,1.9-3,0-3s-1.9,3,0,3h0Z"/>
  <path class="cls-14" d="M2033,195.9c1.9,0,1.9-3,0-3s-1.9,3,0,3h0Z"/>
  <path class="cls-14" d="M1778.4,201.1c1.9,0,1.9-3,0-3s-1.9,3,0,3h0Z"/>
  <path class="cls-14" d="M2105,51.9c1.9,0,1.9-3,0-3s-1.9,3,0,3h0Z"/>
  <path class="cls-14" d="M2092.1,90.5c1.9,0,1.9-3,0-3s-1.9,3,0,3h0Z"/>
  <path class="cls-14" d="M1901.9,33.9c1.9,0,1.9-3,0-3s-1.9,3,0,3h0Z"/>
  <path class="cls-14" d="M1876.1,121.4c1.9,0,1.9-3,0-3s-1.9,3,0,3h0Z"/>
  <path class="cls-14" d="M1595.9,59.6c1.9,0,1.9-3,0-3s-1.9,3,0,3h0Z"/>
  <rect class="cls-2" x="-.5" y="-.5" width="2160" height="1085"/>
</svg>