<?xml version="1.0" encoding="UTF-8"?>
<svg id="Capa_1" data-name="Capa 1" xmlns="http://www.w3.org/2000/svg" version="1.1" viewBox="0 0 360.6 258.4">
  <defs>
    <style>
      .cls-1 {
        fill: #000;
      }

      .cls-1, .cls-2, .cls-3, .cls-4 {
        stroke-width: 0px;
      }

      .cls-5 {
        isolation: isolate;
      }

      .cls-2 {
        fill: #4a2900;
      }

      .cls-3 {
        fill: #fff;
      }

      .cls-4 {
        fill: #ffaf55;
      }

      .cls-6 {
        fill: none;
        stroke: #8c6239;
        stroke-linecap: round;
        stroke-linejoin: round;
        stroke-width: 2.9px;
      }
    </style>
  </defs>
  <g>
    <path class="cls-1" d="M191.8,247.4c3.7-5.7,6.4-9.9,9.1-14.2l-1.8-1.2c-.7.7-1.3,1.8-2.2,2-1.5.3-3.1,0-4.7.1,0-1.5,0-3.1.6-4.1,1.8-3.1,5.6-6.1,5.1-8.8-.3-2.6-4.7-4.7-7.3-7-2.6-2.5-5.9-4.7-7.5-7.6-3.8-6.6-9.2-8-16.4-8.2-14-.3-25.7-7.6-37.7-13.9-5.3-2.8-10.7-5.3-17.6-8.5-2.9,5.6-5.7,11-8.9,17-2.5.1-3.8-5.4-8.8-4.2-2,.4-4.8-4.4-1.3-7.5,4.5-4,4.8-8.3,1.6-12.7-4.4-5.9-8.6-12.1-14.3-16.4-3.5-2.6-9.5-2.8-14.3-2.9-8-.1-15.4-2.5-21.8-7-2.5-1.8-4.2-5.7-4.7-8.9-.1-1.3,4-3.7,6.4-4.5,6.6-2.3,13.5-4.2,20.2-6.3.6-.1,1.5-.6,1.5-.9.4-6.1,6.6-2.5,9.1-5.3.1-.1,3.4,1.5,4.1,2.8.9,1.3.4,3.5.6,5.1,16.8,5,33.2,10.7,48.1,20.3,5.9,3.8,13.3,4.8,20.2,6.9,15.7,4.5,31.3,8.9,47.1,13,3.5.9,7.6.4,11.3-.3,41.5-8.2,76.7-27.7,104.8-59.7,2.3-2.6,5.4-4.7,8.2-7,.4.4.9.9,1.3,1.3-.3.7-.3,1.6-.7,2-13.3,12.7-26.2,25.9-39.9,37.9-12.3,10.8-27.9,16.1-42.9,22.1-11,4.4-21.8,9.1-32.5,13.9-1.6.7-3.2,2.9-3.5,4.7-.7,6.9-.9,13.8-1.2,20.6,0,.7.4,1.8,1,2,6.4,3.4,4.4,9.4,4.1,14.5-.4,7.9-1,15.8-2.6,23.6-.7,3.4-4.1,6.4-6.9,9.1-.7.7-3.7-1-5-1.5v-.4Z"/>
    <circle class="cls-3" cx="66" cy="134.2" r="6.3"/>
    <polyline class="cls-6" points="132.5 146.2 115.6 177.7 139.6 148.7 125.1 182.3"/>
    <polyline class="cls-6" points="163.1 155.3 166.8 198.3 171.3 157.6 201.6 191.6"/>
    <path class="cls-6" d="M124.9,182.3s-10.5,2-5.4,7.9,8,4.4,5.4-7.9Z"/>
    <path class="cls-6" d="M125.1,182.2s-6.4-8.5-9.5-1.5c-3.1,7-.4,9.2,9.5,1.5Z"/>
  </g>
  <g>
    <g class="cls-5">
      <g class="cls-5">
        <path class="cls-1" d="M132.8,83.2c0,0,0,.2,0,.2,0,0,0,0,0,.1,0,0,0,0-.2,0,0,0-.2,0-.3,0s-.2,0-.2,0c0,0-.1,0-.1,0s0,0,0,0c0,0,0,0,0,0l-.3-1.9h-3.2l-1,1.9s0,0,0,0c0,0,0,0-.1,0,0,0-.1,0-.2,0,0,0-.2,0-.3,0s-.2,0-.3,0c0,0-.1,0-.1,0s0,0,0-.1c0,0,0-.1,0-.2l4-7.2s0,0,0-.1c0,0,0,0,.1,0,0,0,.1,0,.2,0s.2,0,.3,0,.2,0,.3,0,.1,0,.2,0,0,0,.1,0c0,0,0,0,0,.1l1.2,7.2ZM130.8,76.8h0l-2.1,3.8h2.7l-.6-3.8Z"/>
        <path class="cls-1" d="M134.9,83.4s0,0,0,0c0,0,0,0,0,0,0,0,0,0-.2,0,0,0-.1,0-.2,0s-.2,0-.2,0c0,0-.1,0-.1,0,0,0,0,0,0,0,0,0,0,0,0,0l1.6-8s0,0,0,0c0,0,0,0,0,0,0,0,0,0,.2,0,0,0,.1,0,.2,0s.2,0,.2,0c0,0,.1,0,.1,0,0,0,0,0,0,0,0,0,0,0,0,0l-1.6,8Z"/>
        <path class="cls-1" d="M137.7,83.4s0,0,0,0c0,0,0,0,0,0,0,0,0,0-.2,0,0,0-.1,0-.2,0s-.2,0-.2,0c0,0-.1,0-.1,0,0,0,0,0,0,0,0,0,0,0,0,0l1.1-5.4s0,0,0,0c0,0,0,0,0,0s0,0,.2,0c0,0,.1,0,.2,0s.2,0,.2,0c0,0,.1,0,.1,0s0,0,0,0c0,0,0,0,0,0l-1.1,5.4ZM139.3,76.2c0,.1,0,.2,0,.3s0,.1-.1.2-.1,0-.2,0-.2,0-.3,0-.2,0-.3,0-.1,0-.2,0,0-.1,0-.2c0,0,0-.2,0-.3,0-.1,0-.2,0-.3,0,0,0-.1.1-.2s.1,0,.2-.1c0,0,.2,0,.3,0s.2,0,.3,0c0,0,.1,0,.2.1,0,0,0,.1,0,.2,0,0,0,.2,0,.3Z"/>
        <path class="cls-1" d="M147.4,83.4s0,0,0,0,0,0,0,0c0,0,0,0-.2,0,0,0-.1,0-.2,0s-.2,0-.2,0c0,0-.1,0-.1,0,0,0,0,0,0,0s0,0,0,0l.7-3.3c0-.1,0-.2,0-.3,0-.1,0-.2,0-.3,0-.3,0-.5-.1-.6,0-.2-.3-.2-.5-.2s-.4,0-.6.2c-.2.1-.4.3-.6.5-.2.2-.4.5-.5.8-.1.3-.3.6-.3,1l-.5,2.4s0,0,0,0,0,0,0,0c0,0,0,0-.2,0,0,0-.1,0-.2,0s-.2,0-.2,0c0,0-.1,0-.1,0,0,0,0,0,0,0,0,0,0,0,0,0l.7-3.3c0-.1,0-.2,0-.4,0-.1,0-.2,0-.3,0-.2,0-.4-.1-.6s-.3-.2-.5-.2-.4,0-.6.2-.4.3-.6.5c-.2.2-.4.5-.5.8-.1.3-.3.6-.3,1l-.5,2.4s0,0,0,0c0,0,0,0,0,0,0,0,0,0-.2,0,0,0-.1,0-.2,0s-.2,0-.2,0c0,0-.1,0-.1,0,0,0,0,0,0,0,0,0,0,0,0,0l1.1-5.4s0,0,0,0c0,0,0,0,0,0,0,0,0,0,.1,0s.1,0,.2,0,.2,0,.2,0c0,0,0,0,.1,0,0,0,0,0,0,0,0,0,0,0,0,0l-.2,1c0-.1.2-.3.3-.4.1-.2.3-.3.5-.4s.4-.2.6-.3c.2,0,.4-.1.7-.1s.4,0,.6,0c.2,0,.3.2.4.3.1.1.2.2.2.4,0,.2,0,.3,0,.5,0-.1.2-.3.3-.4.1-.2.3-.3.5-.4s.4-.2.6-.3c.2,0,.4-.1.7-.1s.5,0,.7.1c.2,0,.3.2.4.3s.2.3.2.5,0,.4,0,.6,0,.3,0,.4c0,.1,0,.3,0,.4l-.7,3.4Z"/>
        <path class="cls-1" d="M154.3,79.1c0,.3,0,.5-.2.7-.1.2-.3.4-.6.6-.3.2-.6.3-1,.4-.4,0-.9.1-1.5.1h-.6c0,.1,0,.3,0,.4,0,.1,0,.2,0,.3,0,.4,0,.7.3.9s.5.3,1,.3.5,0,.7,0,.4,0,.5-.1c.1,0,.3,0,.4-.1,0,0,.2,0,.2,0s0,0,0,0c0,0,0,0,0,.1s0,0,0,.1,0,.1,0,.2,0,.1,0,.2c0,0,0,0,0,.1,0,0-.1,0-.3.1-.1,0-.3,0-.4.1-.2,0-.3,0-.5,0s-.4,0-.6,0c-.4,0-.7,0-.9-.1-.3,0-.5-.2-.7-.4-.2-.2-.3-.4-.4-.6,0-.2-.1-.5-.1-.9s0-.5,0-.8.1-.6.2-.9c.1-.3.2-.6.4-.8s.4-.5.6-.7c.2-.2.5-.4.8-.5.3-.1.7-.2,1-.2s.6,0,.9.1c.2,0,.4.2.6.3.1.1.3.3.3.4,0,.2.1.3.1.5ZM153.3,79.2c0-.2,0-.4-.2-.5-.2-.1-.4-.2-.7-.2s-.5,0-.7.1c-.2,0-.4.2-.5.4-.2.2-.3.3-.4.5-.1.2-.2.4-.3.6h.6c.4,0,.8,0,1,0,.3,0,.5-.1.7-.2.2,0,.3-.2.4-.3,0-.1.1-.2.1-.4Z"/>
        <path class="cls-1" d="M160.3,79.2c0,.1,0,.3,0,.4,0,.1,0,.3,0,.4l-.7,3.4s0,0,0,0c0,0,0,0,0,0,0,0,0,0-.2,0,0,0-.1,0-.2,0s-.2,0-.2,0c0,0-.1,0-.1,0,0,0,0,0,0,0s0,0,0,0l.7-3.3c0-.1,0-.2,0-.4,0-.1,0-.2,0-.3,0-.2,0-.4-.2-.6s-.3-.2-.5-.2-.4,0-.6.2c-.2.1-.4.3-.6.5-.2.2-.4.5-.5.8-.1.3-.3.6-.3,1l-.5,2.4s0,0,0,0,0,0,0,0c0,0,0,0-.2,0,0,0-.1,0-.2,0s-.2,0-.2,0c0,0-.1,0-.1,0,0,0,0,0,0,0s0,0,0,0l1.1-5.4s0,0,0,0c0,0,0,0,0,0,0,0,0,0,.1,0,0,0,.1,0,.2,0s.2,0,.2,0,0,0,.1,0c0,0,0,0,0,0,0,0,0,0,0,0l-.2,1c0-.1.2-.3.3-.4.1-.2.3-.3.5-.4.2-.1.4-.2.6-.3s.5-.1.7-.1.5,0,.7.1c.2,0,.3.2.4.3.1.1.2.3.2.5,0,.2,0,.4,0,.5Z"/>
        <path class="cls-1" d="M165,78.1s0,0,0,.1c0,0,0,0,0,.1,0,0,0,0,0,.1s0,0,0,.1,0,0,0,0,0,0,0,0h-1.4l-.6,3c0,0,0,.2,0,.3,0,.1,0,.2,0,.3,0,.2,0,.4.1.4,0,0,.2.1.4.1s.2,0,.3,0c0,0,.1,0,.2,0,0,0,.1,0,.2,0,0,0,0,0,.1,0s0,0,0,0c0,0,0,0,0,.1s0,.1,0,.2c0,0,0,.1,0,.2,0,0,0,.1,0,.2,0,0,0,0,0,.1,0,0,0,0-.1,0s-.1,0-.2,0-.2,0-.3,0-.2,0-.3,0c-.2,0-.4,0-.6,0s-.3-.1-.4-.2c-.1-.1-.2-.2-.2-.4s0-.3,0-.6,0-.1,0-.2c0,0,0-.1,0-.2,0,0,0-.1,0-.2,0,0,0-.1,0-.2l.6-3h-.7s0,0-.1,0c0,0,0,0,0-.2s0-.1,0-.2c0,0,0-.1,0-.2,0,0,0-.1,0-.2,0,0,0,0,.1,0h.8l.3-1.3s0,0,0,0c0,0,0,0,0,0,0,0,0,0,.2,0,0,0,.1,0,.2,0s.2,0,.2,0,.1,0,.1,0c0,0,0,0,0,0,0,0,0,0,0,0l-.3,1.3h1.4c0,0,0,0,.1,0s0,0,0,.1Z"/>
        <path class="cls-1" d="M170.6,79.8c0,.3,0,.6,0,.9,0,.3-.1.6-.3.9-.1.3-.3.6-.4.8s-.4.5-.6.7c-.2.2-.5.3-.8.4-.3.1-.6.2-1,.2s-.7,0-1-.1c-.3,0-.5-.2-.7-.4-.2-.2-.3-.4-.4-.6,0-.3-.1-.5-.1-.9s0-.6,0-.9c0-.3.1-.6.3-.9.1-.3.3-.5.4-.8.2-.3.4-.5.6-.7.2-.2.5-.3.8-.4.3-.1.6-.2,1-.2s.7,0,1,.1c.3,0,.5.2.7.4.2.2.3.4.4.6,0,.3.1.5.1.9ZM169.5,79.9c0-.2,0-.4,0-.5s-.1-.3-.2-.4c0-.1-.2-.2-.4-.3-.2,0-.3,0-.6,0s-.5,0-.6.1-.4.2-.5.3c-.2.1-.3.3-.4.5-.1.2-.2.4-.3.6,0,.2-.1.4-.2.7s0,.5,0,.7,0,.4,0,.5c0,.2.1.3.2.4s.2.2.4.3c.2,0,.3,0,.6,0s.5,0,.7-.1.4-.2.5-.3.3-.3.4-.5c.1-.2.2-.4.3-.6,0-.2.1-.4.2-.7s0-.5,0-.7Z"/>
        <path class="cls-1" d="M179.6,79.7c0,.2,0,.5,0,.8,0,.3-.1.6-.2.9,0,.3-.2.6-.4.9-.1.3-.3.5-.5.7s-.5.4-.7.5c-.3.1-.6.2-.9.2s-.3,0-.5,0c-.1,0-.3,0-.4-.1-.1,0-.2-.1-.3-.2-.1,0-.2-.2-.3-.3l-.5,2.6s0,0,0,0c0,0,0,0,0,0,0,0,0,0-.2,0,0,0-.1,0-.2,0s-.2,0-.2,0c0,0-.1,0-.1,0,0,0,0,0,0,0,0,0,0,0,0,0l1.5-7.5c0,0,0-.1.1-.1,0,0,.2,0,.4,0s.2,0,.2,0c0,0,0,0,.1,0,0,0,0,0,0,0s0,0,0,0l-.2,1c0-.1.2-.3.3-.4.1-.1.3-.3.5-.4.2-.1.4-.2.6-.3s.5-.1.7-.1.6,0,.8.2c.2.1.4.2.5.4.1.2.2.4.3.6s0,.5,0,.8ZM178.6,79.8c0-.2,0-.3,0-.5,0-.1,0-.3-.1-.4s-.2-.2-.3-.2c-.1,0-.2,0-.4,0s-.4,0-.7.2c-.2.1-.4.3-.6.5s-.4.5-.5.8c-.1.3-.3.6-.3,1l-.2,1c.2.3.4.5.6.6.2.1.5.2.7.2s.4,0,.6-.1c.2,0,.3-.2.5-.4s.2-.4.3-.6.2-.4.2-.7.1-.5.1-.7c0-.2,0-.4,0-.6Z"/>
        <path class="cls-1" d="M184.9,83.4c0,0,0,.1-.1.1s-.2,0-.4,0-.1,0-.2,0c0,0,0,0-.1,0,0,0,0,0,0,0,0,0,0,0,0,0l.2-1c0,.1-.1.3-.3.4-.1.2-.3.3-.5.4-.2.1-.4.2-.6.3s-.5.1-.7.1-.6,0-.8-.2-.4-.3-.5-.4-.2-.4-.3-.6,0-.5,0-.7,0-.5,0-.8.1-.6.2-.9.2-.6.4-.9c.1-.3.3-.5.5-.7.2-.2.5-.4.7-.5.3-.1.6-.2.9-.2s.7,0,.9.2.5.3.7.6v-.5c.1,0,.2-.1.3-.1s.2,0,.4,0,.1,0,.2,0c0,0,0,0,.1,0,0,0,0,0,0,0,0,0,0,0,0,0l-1.1,5.4ZM184.7,79.4c-.2-.3-.4-.5-.6-.6-.2-.1-.5-.2-.7-.2s-.4,0-.6.2c-.2.1-.3.2-.5.4-.1.2-.2.4-.3.6,0,.2-.2.4-.2.7,0,.2-.1.4-.1.7,0,.2,0,.4,0,.6s0,.3,0,.4c0,.1,0,.3.1.4s.1.2.3.3c.1,0,.2.1.4.1s.4,0,.7-.2c.2-.1.4-.3.6-.5.2-.2.4-.5.5-.8.1-.3.3-.6.3-1l.2-1Z"/>
        <path class="cls-1" d="M190.8,78s0,0,0,0c0,0,0,0,0,.2,0,0,0,.1,0,.2,0,0,0,.1,0,.2,0,0,0,0,0,.1,0,0,0,0,0,0s0,0-.1,0c0,0,0,0-.1,0,0,0,0,0-.2,0,0,0-.1,0-.2,0-.1,0-.3,0-.5.2-.2.1-.4.3-.5.5-.2.2-.3.5-.5.7-.1.3-.2.6-.3.9l-.5,2.4s0,0,0,0,0,0,0,0c0,0,0,0-.2,0,0,0-.1,0-.2,0s-.2,0-.2,0c0,0-.1,0-.1,0,0,0,0,0,0,0s0,0,0,0l1.1-5.4s0,0,0,0c0,0,0,0,0,0,0,0,0,0,.1,0,0,0,.1,0,.2,0s.2,0,.2,0,0,0,.1,0c0,0,0,0,0,0,0,0,0,0,0,0l-.2,1c0-.2.2-.3.3-.5.1-.2.3-.3.4-.4.1-.1.3-.2.5-.3.2,0,.3-.1.5-.1s.1,0,.2,0c0,0,.1,0,.2,0,0,0,.1,0,.2,0,0,0,0,0,.1,0,0,0,0,0,0,.1Z"/>
        <path class="cls-1" d="M195.4,83.4c0,0,0,.1-.1.1s-.2,0-.4,0-.1,0-.2,0c0,0,0,0-.1,0,0,0,0,0,0,0s0,0,0,0l.2-1c0,.1-.1.3-.3.4-.1.2-.3.3-.5.4-.2.1-.4.2-.6.3-.2,0-.5.1-.7.1s-.6,0-.8-.2c-.2-.1-.4-.3-.5-.4-.1-.2-.2-.4-.3-.6,0-.2,0-.5,0-.7s0-.5,0-.8c0-.3.1-.6.2-.9,0-.3.2-.6.4-.9.1-.3.3-.5.5-.7.2-.2.5-.4.7-.5s.6-.2.9-.2.7,0,.9.2.5.3.7.6v-.5c.1,0,.2-.1.3-.1s.2,0,.4,0,.1,0,.2,0c0,0,0,0,.1,0,0,0,0,0,0,0,0,0,0,0,0,0l-1.1,5.4ZM195.2,79.4c-.2-.3-.4-.5-.6-.6-.2-.1-.5-.2-.7-.2s-.4,0-.6.2c-.2.1-.3.2-.5.4s-.2.4-.3.6c0,.2-.2.4-.2.7,0,.2-.1.4-.1.7,0,.2,0,.4,0,.6s0,.3,0,.4c0,.1,0,.3.1.4,0,.1.1.2.3.3.1,0,.2.1.4.1s.4,0,.7-.2c.2-.1.4-.3.6-.5.2-.2.4-.5.5-.8.1-.3.3-.6.3-1l.2-1Z"/>
        <path class="cls-1" d="M205.9,83.2c0,0,0,.2,0,.2,0,0,0,0,0,.1,0,0,0,0-.2,0,0,0-.2,0-.3,0s-.2,0-.2,0c0,0-.1,0-.1,0s0,0,0,0c0,0,0,0,0,0l-.3-1.9h-3.2l-1,1.9s0,0,0,0c0,0,0,0-.1,0,0,0-.1,0-.2,0,0,0-.2,0-.3,0s-.2,0-.3,0c0,0-.1,0-.1,0s0,0,0-.1c0,0,0-.1,0-.2l4-7.2s0,0,0-.1c0,0,0,0,.1,0,0,0,.1,0,.2,0s.2,0,.3,0,.2,0,.3,0,.1,0,.2,0,0,0,.1,0c0,0,0,0,0,.1l1.2,7.2ZM203.9,76.8h0l-2.1,3.8h2.7l-.6-3.8Z"/>
        <path class="cls-1" d="M211.1,78s0,0,0,0c0,0,0,0,0,.2,0,0,0,.1,0,.2,0,0,0,.1,0,.2,0,0,0,0,0,.1,0,0,0,0,0,0s0,0-.1,0c0,0,0,0-.1,0,0,0,0,0-.2,0,0,0-.1,0-.2,0-.1,0-.3,0-.5.2s-.4.3-.5.5c-.2.2-.3.5-.5.7s-.2.6-.3.9l-.5,2.4s0,0,0,0c0,0,0,0,0,0,0,0,0,0-.2,0,0,0-.1,0-.2,0s-.2,0-.2,0c0,0-.1,0-.1,0,0,0,0,0,0,0,0,0,0,0,0,0l1.1-5.4s0,0,0,0c0,0,0,0,0,0,0,0,0,0,.1,0s.1,0,.2,0,.2,0,.2,0c0,0,0,0,.1,0,0,0,0,0,0,0,0,0,0,0,0,0l-.2,1c0-.2.2-.3.3-.5.1-.2.3-.3.4-.4.1-.1.3-.2.5-.3.2,0,.3-.1.5-.1s.1,0,.2,0c0,0,.1,0,.2,0,0,0,.1,0,.2,0,0,0,0,0,.1,0,0,0,0,0,0,.1Z"/>
        <path class="cls-1" d="M215.7,83.4c0,0,0,.1-.1.1s-.2,0-.4,0-.1,0-.2,0c0,0,0,0-.1,0,0,0,0,0,0,0s0,0,0,0l.2-1c0,.1-.1.3-.3.4-.1.2-.3.3-.5.4-.2.1-.4.2-.6.3-.2,0-.5.1-.7.1s-.6,0-.8-.2c-.2-.1-.4-.3-.5-.4-.1-.2-.2-.4-.3-.6,0-.2,0-.5,0-.7s0-.5,0-.8c0-.3.1-.6.2-.9,0-.3.2-.6.4-.9.1-.3.3-.5.5-.7.2-.2.5-.4.7-.5s.6-.2.9-.2.7,0,.9.2.5.3.7.6v-.5c.1,0,.2-.1.3-.1s.2,0,.4,0,.1,0,.2,0c0,0,0,0,.1,0,0,0,0,0,0,0,0,0,0,0,0,0l-1.1,5.4ZM215.5,79.4c-.2-.3-.4-.5-.6-.6-.2-.1-.5-.2-.7-.2s-.4,0-.6.2c-.2.1-.3.2-.5.4s-.2.4-.3.6c0,.2-.2.4-.2.7,0,.2-.1.4-.1.7,0,.2,0,.4,0,.6s0,.3,0,.4c0,.1,0,.3.1.4,0,.1.1.2.3.3.1,0,.2.1.4.1s.4,0,.7-.2c.2-.1.4-.3.6-.5.2-.2.4-.5.5-.8.1-.3.3-.6.3-1l.2-1Z"/>
        <path class="cls-1" d="M222.7,79.2c0,.1,0,.3,0,.4,0,.1,0,.3,0,.4l-.7,3.4s0,0,0,0c0,0,0,0,0,0,0,0,0,0-.2,0,0,0-.1,0-.2,0s-.2,0-.2,0c0,0-.1,0-.1,0,0,0,0,0,0,0,0,0,0,0,0,0l.7-3.3c0-.1,0-.2,0-.4,0-.1,0-.2,0-.3,0-.2,0-.4-.2-.6-.1-.1-.3-.2-.5-.2s-.4,0-.6.2c-.2.1-.4.3-.6.5-.2.2-.4.5-.5.8-.1.3-.3.6-.3,1l-.5,2.4s0,0,0,0c0,0,0,0,0,0,0,0,0,0-.2,0,0,0-.1,0-.2,0s-.2,0-.2,0c0,0-.1,0-.1,0,0,0,0,0,0,0,0,0,0,0,0,0l1.1-5.4s0,0,0,0c0,0,0,0,0,0,0,0,0,0,.1,0s.1,0,.2,0,.2,0,.2,0c0,0,0,0,.1,0,0,0,0,0,0,0,0,0,0,0,0,0l-.2,1c0-.1.2-.3.3-.4.1-.2.3-.3.5-.4s.4-.2.6-.3.5-.1.7-.1.5,0,.7.1c.2,0,.3.2.4.3s.2.3.2.5,0,.4,0,.5ZM223.1,75.6s0,0,0,.1c0,0,0,.2,0,.3,0,.1,0,.2-.1.3s-.1.2-.2.3c0,0-.2.2-.3.2s-.3,0-.5,0-.3,0-.4,0c-.1,0-.2,0-.3-.1,0,0-.2-.1-.3-.2,0,0-.2-.1-.2-.2,0,0-.1-.1-.2-.1,0,0-.2,0-.2,0-.2,0-.3,0-.4.2,0,.1-.1.3-.1.5,0,0,0,0,0,0s0,0,0,0,0,0-.1,0c0,0-.1,0-.2,0s-.1,0-.2,0c0,0,0,0,0,0,0,0,0,0,0,0,0,0,0,0,0,0s0,0,0-.1c0,0,0-.2,0-.3s0-.2.1-.3.1-.2.2-.3c0,0,.2-.2.3-.2.1,0,.3,0,.5,0s.3,0,.4,0c.1,0,.2,0,.3.1,0,0,.2.1.3.2,0,0,.2.1.2.2,0,0,.1.1.2.1,0,0,.2,0,.2,0,.1,0,.3,0,.3-.2,0-.1.1-.3.2-.5,0,0,0-.1,0-.1s.1,0,.3,0,.2,0,.3,0c0,0,0,0,0,.1Z"/>
        <path class="cls-1" d="M228.2,83.4c0,0,0,.1-.1.1s-.2,0-.4,0-.1,0-.2,0c0,0,0,0-.1,0,0,0,0,0,0,0s0,0,0,0l.2-1c0,.1-.1.3-.3.4-.1.2-.3.3-.5.4-.2.1-.4.2-.6.3-.2,0-.5.1-.7.1s-.6,0-.8-.2c-.2-.1-.4-.3-.5-.4-.1-.2-.2-.4-.3-.6,0-.2,0-.5,0-.7s0-.5,0-.8c0-.3.1-.6.2-.9,0-.3.2-.6.4-.9.1-.3.3-.5.5-.7.2-.2.5-.4.7-.5s.6-.2.9-.2.7,0,.9.2.5.3.7.6v-.5c.1,0,.2-.1.3-.1s.2,0,.4,0,.1,0,.2,0c0,0,0,0,.1,0,0,0,0,0,0,0,0,0,0,0,0,0l-1.1,5.4ZM228,79.4c-.2-.3-.4-.5-.6-.6-.2-.1-.5-.2-.7-.2s-.4,0-.6.2c-.2.1-.3.2-.5.4s-.2.4-.3.6c0,.2-.2.4-.2.7,0,.2-.1.4-.1.7,0,.2,0,.4,0,.6s0,.3,0,.4c0,.1,0,.3.1.4,0,.1.1.2.3.3.1,0,.2.1.4.1s.4,0,.7-.2c.2-.1.4-.3.6-.5.2-.2.4-.5.5-.8.1-.3.3-.6.3-1l.2-1Z"/>
        <path class="cls-1" d="M234.1,78.3s0,0,0,.2,0,.1,0,.2c0,0,0,.1,0,.2,0,0,0,0,0,0s-.1,0-.2,0c0,0-.1,0-.2-.1,0,0-.2,0-.3-.1-.1,0-.3,0-.5,0s-.3,0-.5,0c-.1,0-.2.1-.3.2s-.2.2-.2.3c0,.1,0,.2,0,.3s0,.3.2.4.2.2.4.3.3.2.5.2c.2,0,.4.2.5.3.2.1.3.3.4.4.1.2.2.4.2.6s0,.5-.2.8c-.1.2-.3.4-.5.6-.2.2-.5.3-.7.4s-.6.1-1,.1-.4,0-.5,0c-.2,0-.3,0-.4-.1-.1,0-.2,0-.3-.1,0,0-.2-.1-.2-.2,0,0,0,0,0,0,0,0,0,0,0-.1s0,0,0-.1c0,0,0,0,0-.1,0,0,0,0,0-.1,0,0,0,0,0-.1,0,0,0,0,0,0s0,0,0,0c0,0,.1,0,.2,0,0,0,.2.1.3.2.1,0,.2.1.4.2.2,0,.4,0,.6,0s.4,0,.6,0c.2,0,.3-.1.4-.2.1,0,.2-.2.2-.3s0-.2,0-.4,0-.3-.2-.4-.2-.2-.4-.3c-.2,0-.3-.2-.5-.3-.2,0-.4-.2-.5-.3-.2-.1-.3-.3-.4-.4-.1-.2-.2-.4-.2-.6s0-.5.2-.7c.1-.2.2-.4.4-.6.2-.2.4-.3.7-.4.3,0,.6-.1.9-.1s.3,0,.4,0c.1,0,.3,0,.4,0s.2,0,.3.1c0,0,.2,0,.2.1,0,0,0,.1,0,.2Z"/>
      </g>
    </g>
    <g>
      <path class="cls-2" d="M92.1,19.3h176.3c13.4,0,24.2,10.8,24.2,24.2h0c0,13.4-10.8,24.2-24.2,24.2H92.1c-13.4,0-24.2-10.8-24.2-24.2h0c0-13.4,10.8-24.2,24.2-24.2Z"/>
      <g>
        <path class="cls-4" d="M145.3,32.9h6c1.2,0,2.1,0,2.7.2.6.1,1.3.4,1.9.9.6.5,1.1,1.1,1.5,2,.4.8.5,1.8.5,2.8,0,2.5-.9,4.2-2.7,5.2l3.5,8.6h-4.6l-2.6-7.8h-2.1v7.8h-4.2v-19.6ZM149.5,36.1v5.5h1.9c1.6,0,2.5-.9,2.5-2.8s-.1-1.2-.4-1.6c-.2-.4-.5-.7-.9-.8-.3-.1-.8-.2-1.4-.2h-1.7Z"/>
        <path class="cls-4" d="M164.3,32.9h4.2l5.5,19.6h-4.3l-1-4.1h-5.4l-.9,4.1h-3.9l5.8-19.6ZM168,45.1l-1.9-8-1.9,8h3.8Z"/>
        <path class="cls-4" d="M173,32.9h12v3.7h-3.9v15.9h-4.2v-15.9h-3.8v-3.7Z"/>
        <path class="cls-4" d="M199.7,42.7c0,6.7-2.3,10.1-7,10.1s-4-.9-5.2-2.6c-1.2-1.7-1.8-4.2-1.8-7.5,0-6.7,2.3-10.1,7-10.1s4,.8,5.2,2.5c1.2,1.7,1.8,4.2,1.8,7.6ZM195.2,42.7c0-2.6-.2-4.4-.6-5.3s-1-1.3-1.9-1.3-1.5.4-1.9,1.3c-.4.9-.6,2.6-.6,5.3s.2,4.3.6,5.2c.4.9,1,1.4,1.9,1.4s1.5-.4,1.9-1.3c.4-.9.6-2.6.6-5.3ZM190.3,30.2l4.8-4.5,1.6,2.4-5.2,3.3-1.2-1.2Z"/>
        <path class="cls-4" d="M202.5,32.9h4.7l4.9,12.2v-12.2h3.3v19.6h-3.8l-5.8-14.2v14.2h-3.3v-19.6Z"/>
      </g>
    </g>
  </g>
</svg>