<?xml version="1.0" encoding="UTF-8"?>
<svg id="Capa_1" data-name="Capa 1" xmlns="http://www.w3.org/2000/svg" version="1.1" viewBox="0 0 120.9 336.9">
  <defs>
    <style>
      .cls-1 {
        fill: #000;
      }

      .cls-1, .cls-2, .cls-3, .cls-4, .cls-5 {
        stroke-width: 0px;
      }

      .cls-2, .cls-6 {
        fill: none;
      }

      .cls-3 {
        fill: #8b2b00;
      }

      .cls-4 {
        fill: #8c6239;
      }

      .cls-5 {
        fill: #fff;
      }

      .cls-6 {
        stroke: #8c6239;
        stroke-linecap: round;
        stroke-linejoin: round;
      }
    </style>
  </defs>
  <g>
    <line class="cls-2" x1="60.3" y1="298.9" x2="60.3" y2="91.4"/>
    <rect class="cls-4" x="59.2" y="91.4" width="2.2" height="207.6"/>
  </g>
  <g>
    <path class="cls-3" d="M30,57.1l28.9,65.8c.6,1.3,2.6,1.4,3.1,0l28.9-65.8c7.4-16.8-.3-36.4-17.1-43.8C45.9,1.1,18,29.7,30,57.1h0Z"/>
    <polygon class="cls-3" points="64.1 128.3 56.8 128.3 60.5 120.1 64.1 128.3"/>
  </g>
  <path class="cls-1" d="M66,318.1c-.4-.2-.9-.4-1.4-.6,1.5-.6,3-.8,3.9-1.6.9-.8,1.2-2.4,1.6-3.7-6.3,3.6-12.4,3.8-18.7,0-.1,1.6.2,3.1,1.3,3.9,1,.8,2.5,1,3.9,1.4,0,.9-.9.3-1.5.9.6.3,1.1.6,1.6,1,.4.3.7.7,1,1-.4.2-.9.6-1.3.6-.5,0-1.1-.4-1.5-.7-.7-.4-1.2-1-1.9-1.4-1.8-.9-3.2-.4-4,1.5-.5,1.2-1.1,1.4-2.2.8-.3-.1-.6-.5-.6-.7,0-.3.3-.6.6-.8.3-.2.7-.3.9-.5.4-.5,1-1,.6-1.7-.4-.8-.4-2-1.8-1.9-.9,0-1.7-.2-2.5-.9-.4-.4-1.3-.5-1.9-.3-.7.2-.6,1-.4,1.6,0,.3,0,.8-.3.8-.3.1-.8,0-1.1,0-.2-.1-.4-.6-.3-.8.2-1.4-.2-1.8-1.6-1.4-1.6.4-2.3,1.7-2.7,3.1-.4,1.2-1.1,1.7-2.2,1.3-.4-.1-.8-.5-.9-.8,0-.3.3-.8.6-1,1.4-.6,1.7-1.9,2.3-3.2-1.6-.1-3.1,0-4.5.7-.4.2-1,.2-1.4,0-.3-.2-.4-.8-.4-1.2.1-.9.9-.8,1.5-.7,2.3.4,4.5-.1,6.6-1.1.2-.1.4-.2.6-.4.1,0,.2-.2.3-.2-1.2-2.5-1-3.6,1.6-6.2.9-.9,2.1-1.7,3.2-2.4.6-.4,1.3-.5,1.8,0,1,1,2.2.7,3.5,1-1.3-3.4.9-5.6,2-8.3-1.5-2.3-.7-4.1,1.8-5.6,2-1.2,3.1-.2,4.6.5,1.1.5,2.4.7,3.7.9.9.1,1.9.1,2.9,0,1.2-.3,2.4-.7,3.6-1.1.9-.3,1.7-.9,2.6-.8,1.3.1,2.5.9,3.4,1.9,1,1.2.9,2.4.2,3.8-.2.5-.2,1.2,0,1.8.4,1.2,1,2.4,1.5,3.7.4,1,.6,2-.6,2.9.9.1,1.5.3,2-.4.4-.7,1.1-.6,1.7-.3,2.6,1.3,4.5,3.2,5.6,5.9.4,1,0,1.9-.9,2.8.8.4,1.5.9,2.2,1.2,1.8.6,3.7,1,5.6.7.7-.1,1.3,0,1.4.8,0,.4,0,1-.3,1.1-.4.2-1,.2-1.4,0-1.4-.7-2.9-.9-4.6-.8.7,1.3,1,2.7,2.6,3.1.4.1.7.6,1,.9-.3.3-.6.8-1,.9-1,.4-1.9,0-2.4-1.1-.4-.8-.8-1.7-1.4-2.3-.6-.6-1.5-.9-2.3-1.1-.9-.2-1.3.3-1.1,1.2,0,.4,0,.9-.2,1.1-.2.2-.8.3-1.1,0-.2-.2-.2-.7-.3-1.1-.1-.5-.2-1.2-.5-1.3-.5-.2-1.3-.2-1.6.1-.8.7-1.6,1-2.6,1.1-.9,0-1,.9-1.2,1.5-.3.7-.2,1.5.5,2,.4.3.8.4,1.2.7.3.2.6.6.6.9,0,.2-.4.5-.7.6-1.2.4-1.6.3-2-.6-1-2.2-2.9-2.7-4.9-1.3-.4.3-.7.8-1.1,1-.6.3-1.3.6-2,.7-.2,0-.6-.5-.9-.7.2-.3.5-.6.8-.8.5-.3,1.1-.6,1.7-.8,0,0,0-.2-.1-.3ZM47.3,314.2c-.3-.9-.5-1.6-.7-2.2-.7,0-1.2-.1-1.8-.1-.3,0-.7,0-.8.3-.1.1,0,.6.2.8.8.9,1.7,1.3,3.2,1.3ZM74.1,314.1c1.4,0,2.4-.7,2.7-1.9-1.7-.8-2.1-.5-2.7,1.9Z"/>
  <circle class="cls-5" cx="53.6" cy="292.7" r="1.9"/>
  <circle class="cls-5" cx="69.2" cy="292.7" r="1.9"/>
  <path class="cls-5" d="M51.7,301.1c5.9-3.2,13.5-3.2,19.4,0-6.2-2.5-13.2-2.5-19.4,0h0Z"/>
  <polyline class="cls-6" points="48.4 303.3 61.4 310.6 74 302.8"/>
  <line class="cls-6" x1="74.9" y1="302.9" x2="75.5" y2="311.8"/>
  <line class="cls-6" x1="46" y1="302.9" x2="44.8" y2="311.9"/>
  <path class="cls-6" d="M61.4,310.6s-11.1,1.3-4.8,6.7,4.8-6.7,4.8-6.7Z"/>
  <path class="cls-6" d="M67.3,316.4c6.4-5.4-5.9-5.8-5.9-5.8,0,0-.6,11.2,5.9,5.8"/>
</svg>