<?xml version="1.0" encoding="UTF-8"?>
<svg id="Capa_1" data-name="Capa 1" xmlns="http://www.w3.org/2000/svg" version="1.1" viewBox="0 0 471 471">
  <defs>
    <style>
      .cls-1 {
        fill: #000;
      }

      .cls-1, .cls-2 {
        stroke: #000;
      }

      .cls-1, .cls-2, .cls-3 {
        stroke-miterlimit: 10;
      }

      .cls-4 {
        font-family: BellMT, 'Bell MT';
        font-size: 256.5px;
      }

      .cls-4, .cls-2 {
        fill: #fff;
      }

      .cls-3 {
        fill: #1a1a1a;
        stroke: #fff;
        stroke-width: 20px;
      }
    </style>
  </defs>
  <g>
    <circle class="cls-1" cx="235.5" cy="235.5" r="214.5"/>
    <path class="cls-2" d="M235.5,41c26.3,0,51.7,5.1,75.7,15.3,23.2,9.8,44,23.8,61.8,41.7,17.9,17.9,31.9,38.7,41.7,61.8,10.1,24,15.3,49.4,15.3,75.7s-5.1,51.7-15.3,75.7c-9.8,23.2-23.8,44-41.7,61.8-17.9,17.9-38.7,31.9-61.8,41.7-24,10.1-49.4,15.3-75.7,15.3s-51.7-5.1-75.7-15.3c-23.2-9.8-44-23.8-61.8-41.7-17.9-17.9-31.9-38.7-41.7-61.8-10.1-24-15.3-49.4-15.3-75.7s5.1-51.7,15.3-75.7c9.8-23.2,23.8-44,41.7-61.8,17.9-17.9,38.7-31.9,61.8-41.7,24-10.1,49.4-15.3,75.7-15.3M235.5,21C117,21,21,117,21,235.5s96,214.5,214.5,214.5,214.5-96,214.5-214.5S354,21,235.5,21h0Z"/>
  </g>
  <path class="cls-3" d="M305,387h-139c0-45.3-36.7-82-82-82v-139c45.3,0,82-36.7,82-82h139c0,45.3,36.7,82,82,82v139c-45.3,0-82,36.7-82,82Z"/>
  <text class="cls-4" transform="translate(156 317.8)"><tspan x="0" y="0">P</tspan></text>
</svg>