<?xml version="1.0" encoding="UTF-8"?>
<svg id="Capa_1" data-name="Capa 1" xmlns="http://www.w3.org/2000/svg" version="1.1" viewBox="0 0 471 471">
  <defs>
    <style>
      .cls-1 {
        font-family: BellMT, 'Bell MT';
        font-size: 256.5px;
      }

      .cls-1, .cls-2 {
        fill: #fff;
      }

      .cls-3 {
        fill: #666;
      }

      .cls-3, .cls-2 {
        stroke-width: 0px;
      }

      .cls-4 {
        fill: #4d4d4d;
        stroke: #666;
        stroke-miterlimit: 10;
        stroke-width: 20px;
      }
    </style>
  </defs>
  <g>
    <path class="cls-2" d="M235.5,440c-112.8,0-204.5-91.7-204.5-204.5S122.7,31,235.5,31s204.5,91.7,204.5,204.5-91.7,204.5-204.5,204.5Z"/>
    <path class="cls-3" d="M235.5,41c26.3,0,51.7,5.1,75.7,15.3,23.2,9.8,44,23.8,61.8,41.7,17.9,17.9,31.9,38.7,41.7,61.8,10.1,24,15.3,49.4,15.3,75.7s-5.1,51.7-15.3,75.7c-9.8,23.2-23.8,44-41.7,61.8-17.9,17.9-38.7,31.9-61.8,41.7-24,10.1-49.4,15.3-75.7,15.3s-51.7-5.1-75.7-15.3c-23.2-9.8-44-23.8-61.8-41.7-17.9-17.9-31.9-38.7-41.7-61.8-10.1-24-15.3-49.4-15.3-75.7s5.1-51.7,15.3-75.7c9.8-23.2,23.8-44,41.7-61.8,17.9-17.9,38.7-31.9,61.8-41.7,24-10.1,49.4-15.3,75.7-15.3M235.5,21C117,21,21,117,21,235.5s96,214.5,214.5,214.5,214.5-96,214.5-214.5S354,21,235.5,21h0Z"/>
  </g>
  <rect class="cls-4" x="84" y="84" width="303" height="303" rx="82" ry="82"/>
  <text class="cls-1" transform="translate(145.9 317.8)"><tspan x="0" y="0">K</tspan></text>
</svg>