<?xml version="1.0" encoding="UTF-8"?>
<svg id="Capa_1" data-name="Capa 1" xmlns="http://www.w3.org/2000/svg" version="1.1" viewBox="0 0 1080 1080">
  <defs>
    <style>
      .cls-1 {
        fill: #fff;
        stroke-width: 0px;
      }
    </style>
  </defs>
  <path class="cls-1" d="M949.3,309.2q-22.7-54-119.9-59.9c0-16.2.2-32.8,0-49.4-.5-42.3-23.6-65.3-66.3-65.3-225.9,0-451.9.2-677.8-.3-34,0-54.7,16.1-66.3,46.6v718.1c12.5,34.3,37.2,46.8,73.3,46.7,260-.8,520.1-.4,780.1-.4,46.9,0,63.8-13.7,73.8-58.8,36.8-166.2,73.8-332.3,110.8-498.5.6-2.8,2.6-5.3,4-7.9v-27.8c-21.8-54.4-69.8-42.5-111.7-43.1ZM770.3,249.7c-45,4.1-102.9-14.7-115.2,59.3h-24.7c-102.6,0-205.2,0-307.7,0-47.2,0-63.1,12.9-73.3,59-35.9,163.1-72.4,326.1-107,489.5-5.2,24.5-14,35-39,30.6-7.4-1.3-15.3-.2-27.2-.2v-28c0-213,.3-425.9-.5-638.9,0-22.3,4-30.1,28.7-30,212.9,1.1,425.7.6,638.6.6h27.2v57.9Z"/>
</svg>