<?xml version="1.0" encoding="UTF-8"?>
<svg id="Capa_1" data-name="Capa 1" xmlns="http://www.w3.org/2000/svg" version="1.1" xmlns:xlink="http://www.w3.org/1999/xlink" viewBox="0 0 1862.4 2217.9">
  <defs>
    <style>
      .cls-1 {
        stroke: #c2bc6c;
        stroke-linecap: round;
        stroke-linejoin: round;
      }

      .cls-1, .cls-2, .cls-3, .cls-4, .cls-5 {
        fill: none;
      }

      .cls-1, .cls-2, .cls-6 {
        stroke-width: 8px;
      }

      .cls-7 {
        fill: #d3d2e0;
      }

      .cls-7, .cls-2, .cls-3, .cls-8, .cls-6, .cls-5 {
        stroke-miterlimit: 10;
      }

      .cls-7, .cls-3 {
        stroke: #5e5e5e;
        stroke-width: 5.5px;
      }

      .cls-9, .cls-10, .cls-11, .cls-12, .cls-13, .cls-14 {
        fill: #000;
      }

      .cls-9, .cls-15, .cls-4, .cls-16, .cls-17, .cls-18, .cls-19, .cls-20, .cls-21, .cls-22 {
        stroke-width: 0px;
      }

      .cls-10, .cls-11, .cls-12, .cls-13, .cls-23, .cls-24, .cls-25 {
        isolation: isolate;
      }

      .cls-10, .cls-11, .cls-12, .cls-13, .cls-14, .cls-26 {
        font-family: CourierNewPSMT, 'Courier New';
      }

      .cls-10, .cls-14 {
        font-size: 42.2px;
      }

      .cls-11 {
        font-size: 43.1px;
      }

      .cls-12 {
        font-size: 120.3px;
      }

      .cls-27 {
        opacity: .5;
      }

      .cls-2, .cls-6 {
        stroke: #fff;
      }

      .cls-13 {
        font-size: 56.9px;
      }

      .cls-24 {
        fill: #400505;
        font-size: 41px;
      }

      .cls-24, .cls-25 {
        font-family: ArialMT, Arial;
      }

      .cls-15 {
        fill: #f4f4f4;
      }

      .cls-16 {
        fill: red;
      }

      .cls-28 {
        clip-path: url(#clippath);
      }

      .cls-17 {
        fill: #fff67f;
      }

      .cls-26 {
        font-size: 285.7px;
      }

      .cls-26, .cls-19 {
        fill: #bc0000;
      }

      .cls-8 {
        stroke: #000;
        stroke-width: 1.1px;
      }

      .cls-8, .cls-18 {
        fill: #fff;
      }

      .cls-25 {
        fill: #ff1515;
        font-size: 60.2px;
      }

      .cls-20 {
        fill: #169b0b;
      }

      .cls-21 {
        fill: #5e5e5e;
      }

      .cls-22 {
        fill: #107408;
      }

      .cls-6 {
        fill: #dad7a7;
      }

      .cls-5 {
        stroke: #bc0000;
        stroke-width: 5.1px;
      }
    </style>
    <clipPath id="clippath">
      <rect class="cls-4" x="149.8" y="284.9" width="437.4" height="437.4" transform="translate(-65.9 55.6) rotate(-7.9)"/>
    </clipPath>
  </defs>
  <rect class="cls-17" x="84.6" y="79.1" width="1693.3" height="2059.7" rx="38.6" ry="38.6"/>
  <polyline class="cls-1" points="95.3 91 931.2 405 1774.3 101.4"/>
  <g class="cls-23">
    <text class="cls-24" transform="translate(137.8 2069.8)"><tspan x="0" y="0">Proyecto “La Nueva Era”</tspan></text>
  </g>
  <g class="cls-23">
    <text class="cls-25" transform="translate(137.8 2018.5)"><tspan x="0" y="0">Archivos de Robótica</tspan></text>
  </g>
  <rect class="cls-2" x="865.8" y="405" width="137.9" height="1606.1"/>
  <circle class="cls-6" cx="934.8" cy="405" r="68.9"/>
  <circle class="cls-6" cx="934.8" cy="2011.1" r="68.9"/>
  <g>
    <rect class="cls-15" x="149.6" y="145.8" width="1563.3" height="1926.4" transform="translate(-144 139) rotate(-7.9)"/>
    <g class="cls-23">
      <text class="cls-12" transform="translate(661.5 330.4) rotate(-7.9)"><tspan x="0" y="0">Animales</tspan></text>
    </g>
    <g class="cls-23">
      <text class="cls-11" transform="translate(668.6 380.8) rotate(-7.9)"><tspan x="0" y="0">05 / 2030 / Abr</tspan></text>
    </g>
    <g class="cls-23">
      <text class="cls-11" transform="translate(680 428) rotate(-7.9)"><tspan x="0" y="0">Propuesta de vigilancia en las</tspan></text>
      <text class="cls-11" transform="translate(687.1 479.2) rotate(-7.9)"><tspan x="0" y="0">islas de prueba.</tspan></text>
    </g>
    <g>
      <circle class="cls-5" cx="1346.8" cy="313.9" r="139.9" transform="translate(172.5 1044.3) rotate(-45)"/>
      <g>
        <path class="cls-19" d="M1159.1,459.7l7.2-6,1.6-1,9.5-4.1,1.9,3.2-18.2,11-1.9-3.2h-.1ZM1152.2,395.1l4.8-2.9,50.6,42.3-7.3,4.4-44.6-37.7,1.8-1.1,12.6,57.2-3.8,2.3-14-64.4h-.1ZM1162.6,433.2l21.3-13,3.5,2.8-23.9,14.4-.9-4.4h0ZM1189,441.6l9.2-7.2,1.6-1,10.6-4.8,1.9,3.2-21.3,13-1.9-3.2h-.1Z"/>
        <path class="cls-19" d="M1185.5,379.8l-1.9-3.2,11.1-6.7,2.6,4.4-.8.4-11,5h0ZM1206,396.6c-5-8.1-9.9-16.4-15.1-24.3l7.6-4.6c4.7,8.2,9.5,16.4,14.7,24.6l2.9,4.8c4.9,8,9.4,15.5,14.6,23.5l-7.6,4.6c-4.7-8.2-9.5-16.4-14.7-24.6l-2.4-4h0ZM1222,397.2l-7.8,4.7-2.2-3.7,9-5.4c9.8-5.9,10.4-13.3,5.8-20.8-4.7-7.7-11.6-9.5-21.2-3.7l-8.7,5.3-2.2-3.7,10.2-6.1c13.1-8,23.8-5.5,29.4,3.7,5.4,8.8,3.8,20-12.4,29.8h0ZM1225,418l11-5,1.9,3.2-22.1,13.4-1.9-3.2,9.5-7.4,1.6-1h0Z"/>
        <path class="cls-19" d="M1231.2,352.1l-1.9-3.2,11.1-6.7,2.6,4.4-.8.4-11,5h0ZM1251.7,368.9c-5-8.1-9.9-16.4-15.1-24.3l7.6-4.6c4.8,8.4,9.4,16.1,15.1,25.4l1.4,2.3c5.4,8.9,10.4,17.2,15.6,25.1l-7.6,4.6c-4.7-8.2-9.5-16.4-14.7-24.6l-2.4-4h0ZM1255.6,367.1l9.8-6c8.5-5.2,9.9-12.3,6-18.7-4-6.6-9.8-8.1-18-3.1l-10.8,6.6-2.2-3.7,10.9-6.6c12.1-7.3,22.3-6.5,27.6,2.2,4.1,6.7,2.5,16.1-7.3,23.2v-.8c5.9-2.9,10.9-2.4,17.4,3.4l11.9,10.8h-3.3s8.7-3.9,8.7-3.9l1.9,3.2c-1.1,1.4-2.8,2.8-5.2,4.3-4.9,3-7.8,3-10.9,0l-11.1-10.9c-5.5-5.4-9-4.8-15.6-.8l-7.5,4.6-2.1-3.6h0ZM1270.7,390.3l11-5,1.9,3.2-22.1,13.4-1.9-3.2,9.5-7.4,1.6-1h0Z"/>
        <path class="cls-19" d="M1343.7,315.9c10.4,17.3,4.9,34.9-7.3,42.3-12.3,7.4-30,5.1-41-13-10.4-17.3-4.9-34.9,7.4-42.3,12.2-7.4,29.9-4.9,40.9,13ZM1333.9,354.1c11.2-6.7,8.6-21.5,1.4-33.3s-19.1-20.9-30.1-14.1c-11.2,6.7-8.7,21.5-1.5,33.4s19.1,20.8,30.3,14.1Z"/>
        <path class="cls-19" d="M1342.3,286.3l-11,5-1.9-3.2,21.3-13,2.1,3.6-9,6.5-1.6,1ZM1334,285.4l7.6-4.6,43,35.3-1.6,1-12-54.1,4.3-2.6,14.4,64.5-3.2,1.9-52.3-41.4h-.1ZM1373.1,267.7l-8.4,4-2.1-3.6,18.3-11.1,1.9,3.2-8,6.5-1.6,1h0Z"/>
        <path class="cls-19" d="M1402.7,312l7.2-6,1.6-1,9.5-4.1,1.9,3.2-18.2,11-1.9-3.2h-.1ZM1395.8,247.4l4.8-2.9,50.6,42.3-7.3,4.4-44.6-37.7,1.8-1.1,12.6,57.2-3.8,2.3-14-64.4h-.1ZM1406.2,285.5l21.3-13,3.5,2.8-23.9,14.4-.9-4.4h0ZM1432.5,293.8l9.2-7.2,1.6-1,10.6-4.8,1.9,3.2-21.3,13-1.9-3.2h-.1Z"/>
        <path class="cls-19" d="M1429.1,232.1l-1.9-3.2,11.1-6.7,2.6,4.4-.8.4-11,5h0ZM1449.6,248.8c-5-8.1-9.9-16.4-15.1-24.3l7.6-4.6c4.7,8.2,9.5,16.4,14.7,24.6l1.9,3c5.6,9.1,10.4,17.3,15.6,25.3l-7.6,4.6c-4.7-8.2-9.5-16.4-15.2-25.6l-1.9-3ZM1468.2,271.5l10.2-6.1c12.4-7.6,14.2-20,5.4-34.4-9-14.9-20.7-18.8-32.3-11.7l-10.9,6.6-2.2-3.7,12.3-7.4c15-9.1,31.1-6.1,41.5,11.1,10.3,17.1,4.3,33.5-11,42.8l-10.7,6.4-2.2-3.7h-.2ZM1467.7,270.7l2.6,4.4-11.1,6.7-1.9-3.2,9.5-7.4.8-.4h0Z"/>
        <path class="cls-19" d="M1548.7,191.4c10.4,17.3,4.9,34.9-7.3,42.3-12.3,7.4-30,5.1-41-13-10.4-17.3-4.9-34.9,7.4-42.3,12.3-7.4,29.9-4.9,40.9,13ZM1539,229.8c11.2-6.7,8.6-21.5,1.4-33.3-7.2-11.9-19.1-20.9-30.1-14.1-11.2,6.7-8.7,21.5-1.5,33.4s19.1,20.8,30.3,14.1Z"/>
      </g>
      <circle class="cls-5" cx="1346.8" cy="313.9" r="119.1" transform="translate(172.5 1044.3) rotate(-45)"/>
    </g>
    <g class="cls-23">
      <text class="cls-10" transform="translate(194.7 841.4) rotate(-7.9)"><tspan x="0" y="0">Las Islas de pruebas han tenido fallas de vigilancia</tspan></text>
      <text class="cls-10" transform="translate(201.7 891.5) rotate(-7.9)"><tspan x="0" y="0">por la causa de fallos en instalaciones y la dificultad</tspan></text>
      <text class="cls-10" transform="translate(208.7 941.7) rotate(-7.9)"><tspan x="0" y="0">de seguimiento por personal propio.</tspan></text>
    </g>
    <g class="cls-23">
      <text class="cls-10" transform="translate(225.5 1062.4) rotate(-7.9)"><tspan x="0" y="0">La propuesta habla sobre animales</tspan></text>
      <text class="cls-10" transform="translate(232.5 1112.5) rotate(-7.9)"><tspan x="0" y="0">robot, estos son resistentes y</tspan></text>
      <text class="cls-10" transform="translate(239.4 1162.6) rotate(-7.9)"><tspan x="0" y="0">autónomos, capaces de ingresar y</tspan></text>
      <text class="cls-10" transform="translate(246.4 1212.8) rotate(-7.9)"><tspan x="0" y="0">cruzar terrenos.</tspan></text>
    </g>
    <g class="cls-23">
      <text class="cls-10" transform="translate(261.8 1323.3) rotate(-7.9)"><tspan x="0" y="0">Pruebas Realizadas</tspan></text>
      <text class="cls-10" transform="translate(275.8 1423.6) rotate(-7.9)"><tspan x="0" y="0">Resistencia:</tspan></text>
      <text class="cls-10" transform="translate(282.8 1473.8) rotate(-7.9)"><tspan x="0" y="0">Fuerza:</tspan></text>
      <text class="cls-10" transform="translate(289.7 1523.9) rotate(-7.9)"><tspan x="0" y="0">Capacidad:</tspan></text>
      <text class="cls-10" transform="translate(296.7 1574) rotate(-7.9)"><tspan x="0" y="0">Agilidad:</tspan></text>
      <text class="cls-10" transform="translate(303.7 1624.1) rotate(-7.9)"><tspan x="0" y="0">Reconocimiento:</tspan></text>
      <text class="cls-10" transform="translate(317.6 1724.4) rotate(-7.9)"><tspan x="0" y="0">Prueba Práctica en la isla</tspan></text>
      <text class="cls-10" transform="translate(331.6 1824.7) rotate(-7.9)"><tspan x="0" y="0">Proyecto 2.1 / Políticos Corruptos:</tspan></text>
      <text class="cls-10" transform="translate(338.6 1874.8) rotate(-7.9)"><tspan x="0" y="0">Proyecto La Nueva era: </tspan></text>
      <text class="cls-10" transform="translate(345.6 1924.9) rotate(-7.9)"><tspan x="0" y="0">Proyecto Hoguera:</tspan></text>
    </g>
    <g class="cls-23">
      <text class="cls-13" transform="translate(309.6 2070.8) rotate(-7.9)"><tspan x="0" y="0">GASTOS TOTALES EN PROYECTO: 134.000.000.000$</tspan></text>
    </g>
    <path class="cls-16" d="M1713.1,1742.6c-102.2,16.4-436.5,75.3-479.6,168.4-6.7,14.8-3.9,32,5.7,44.9,9.6,12.9,24.2,20.7,39.1,26.3,102.1,34.4,277.4-3.7,374.2-47.6,41.9-19.3,98.7-50.5,115.4-95.8,9.3-25.5,0-51.3-17.3-71,17.3,19.6,26.7,45.5,17.5,71.1-16.6,45.7-73.3,76.8-115.3,96.2-96.8,44-272.5,82.4-374.8,48-15-5.5-29.9-13.6-39.5-26.7-9.8-13.2-12.8-30.7-5.7-45.9,43.5-93.6,377.3-151.8,480.5-168h-.2Z"/>
    <path class="cls-19" d="M591.6,1402.7l9-2.7,1.8-.3h10.2s.5,3.7.5,3.7l-21.1,2.9-.5-3.7ZM610.7,1340.8l5.5-.8,29.7,58.8-8.5,1.2-26-52.3,2.1-.3-11,57.5-4.3.6,12.7-64.7ZM605.2,1379.8l24.7-3.4,2.1,4-27.6,3.8.9-4.4h-.1ZM626.2,1397.9l11.4-3,1.8-.3,11.5-.2.5,3.7-24.7,3.4-.5-3.7Z"/>
    <path class="cls-19" d="M496.6,1396l-.5-3.7,12.9-1.8.7,5.1h-.9c0,.1-12.1.4-12.1.4h-.1ZM516.7,1446.9l.7,5.1-12.9,1.8-.5-3.7,11.7-3.1h.9c0-.1.1-.1.1-.1ZM508.7,1419.5c-1.3-9.4-2.6-18.9-4.3-28.4l8.7-1.2c1,9.3,2.3,18.8,3.6,28.5l.5,3.2c1.5,10.8,2.8,20.3,4.5,29.7l-8.7,1.2c-1-9.3-2.3-18.8-3.6-28.5l-.6-4.5ZM512.7,1418.2l9.1-1.3c11.2-1.6,15.6-5.8,14.4-14.2s-6.4-10.7-15.8-9.4l-10.9,1.5-.6-4.2,13.5-1.9c12.5-1.7,20.7,3.5,22,12.2s-3.1,14.2-15.1,17.3v-.9c14.3-.8,21,4.8,22.1,12.6s-4.6,17.7-21.9,20.1l-12.3,1.7-.6-4.2,10-1.4c11.9-1.7,17.1-7,16-15-1.1-8-7.4-12.1-20.1-10.3l-9.3,1.3-.6-4.2h.1Z"/>
    <g>
      <path class="cls-19" d="M552.3,1491.6l9-2.7,1.8-.3h10.2s.5,3.7.5,3.7l-21.1,2.9-.5-3.7ZM571.5,1429.6l5.5-.8,29.7,58.8-8.5,1.2-26-52.3,2.1-.3-11,57.5-4.3.6,12.7-64.7ZM566,1468.7l24.7-3.4,2.1,4-27.6,3.8.9-4.4h-.1ZM586.9,1486.8l11.4-3,1.8-.3,11.5-.2.5,3.7-24.7,3.4-.5-3.7Z"/>
      <path class="cls-19" d="M611.9,1458.9l-.7-5.1,43.2-6,.7,5.1-43.2,6ZM627.2,1431l5.5-.8,6.4,45.9-5.5.8-6.4-45.9Z"/>
    </g>
    <g>
      <path class="cls-19" d="M518.2,1547.5l9-2.7,1.8-.3h10.2s.5,3.7.5,3.7l-21.1,2.9-.5-3.7ZM537.4,1485.6l5.5-.8,29.7,58.8-8.5,1.2-26-52.3,2.1-.3-11,57.5-4.3.6,12.7-64.7ZM531.8,1524.6l24.7-3.4,2.1,4-27.6,3.8.9-4.4h-.1ZM552.7,1542.7l11.4-3,1.8-.3,11.5-.2.5,3.7-24.7,3.4-.5-3.7Z"/>
      <path class="cls-19" d="M577.7,1514.8l-.7-5.1,43.2-6,.7,5.1-43.2,6ZM593.1,1486.9l5.5-.8,6.4,45.9-5.5.8-6.4-45.9Z"/>
      <path class="cls-19" d="M626.2,1508l-.7-5.1,43.2-6,.7,5.1-43.2,6ZM641.6,1480.1l5.5-.8,6.4,45.9-5.5.8-6.4-45.9Z"/>
    </g>
    <path class="cls-19" d="M681.6,1585.8l9-2.7,1.8-.3h10.2s.5,3.7.5,3.7l-21.1,2.9-.5-3.7ZM700.7,1523.9l5.5-.8,29.7,58.8-8.5,1.2-26-52.3,2.1-.3-11,57.5-4.3.6,12.7-64.7ZM695.3,1563l24.7-3.4,2.1,4-27.6,3.8.9-4.4h-.1ZM716.2,1581l11.4-3,1.8-.3,11.5-.2.5,3.7-24.7,3.4-.5-3.7Z"/>
    <path class="cls-19" d="M1270.3,1697.3c-.8-5.9-4.8-8.1-13.2-10.1l-3.7-.9c-9.8-2.4-17-6.8-18.3-16.2s6.5-18.2,18.2-19.8,11.3.4,15.6,2.8l1.1,12-5.5.8-4.5-13.5,6.3,2.2.6,4.5c-5.2-3.8-8.7-4.8-13.6-4.2-7.1,1-12,5.3-11.1,12.2s5.1,8.7,12.1,10.2l3.8.9c12.7,3,18.1,7.6,19.3,16.2,1.2,8.6-6.7,18.7-19.2,20.4-12.5,1.7-13.8-.3-18.4-2.4l-1.2-12.9,5.5-.8,4.3,13.8-6.3-1.8-.6-4.4c6.3,3.3,9.6,4.7,15.8,3.9,6.3-.9,13.9-6,12.9-13.1h0Z"/>
    <g>
      <path class="cls-19" d="M934.9,1794.1c-.8-5.9-4.8-8.1-13.2-10.1l-3.7-.9c-9.8-2.4-17-6.8-18.3-16.2s6.5-18.2,18.2-19.8c11.7-1.6,11.3.4,15.6,2.8l1.1,12-5.5.8-4.5-13.5,6.3,2.2.6,4.5c-5.2-3.8-8.7-4.8-13.6-4.2-7.1,1-12,5.3-11.1,12.2s5.1,8.7,12.1,10.2l3.8.9c12.7,3,18.1,7.6,19.3,16.2s-6.7,18.7-19.2,20.4-13.8-.3-18.4-2.4l-1.2-12.9,5.5-.8,4.3,13.8-6.3-1.8-.6-4.4c6.3,3.3,9.6,4.7,15.8,3.9,6.3-.9,13.9-6,12.9-13.1h0Z"/>
      <path class="cls-19" d="M946.7,1779l-.7-5.1,43.2-6,.7,5.1-43.2,6ZM962.1,1751.1l5.5-.8,6.4,45.9-5.5.8-6.4-45.9Z"/>
    </g>
    <g>
      <path class="cls-9" d="M769.9,1827.2l-.5-3.7,12.9-1.8.7,5.1h-.9c0,.1-12.1.4-12.1.4h-.1ZM791,1878l12.1-.2.5,3.7-25.6,3.6-.5-3.7,11.7-3.1,1.8-.3ZM782,1850.7c-1.3-9.4-2.6-18.9-4.3-28.4l8.7-1.2c1,9.3,2.3,18.8,3.6,28.5l.8,5.6c1.3,9.3,2.5,17.9,4.1,27.3l-8.7,1.2c-1-9.3-2.3-18.8-3.6-28.5l-.6-4.5ZM796.4,1857.7l-9.1,1.3-.6-4.2,10.5-1.5c11.2-1.6,14.8-8.1,13.6-16.9-1.2-8.7-6.9-13.3-17.9-11.8l-10,1.4-.6-4.2,11.8-1.6c15.2-2.1,24.1,4.4,25.5,15.1,1.5,10.7-4.4,19.9-23.1,22.5h-.1Z"/>
      <path class="cls-9" d="M864,1845.3c.3,2.1.2,3.9,0,5.2l-33.8,4.7-.5-3.9,21.8-3c4.4-.6,5.1-2.8,4.8-5.4-.7-5.2-5.8-9.3-11.5-8.5-5.7.8-11.9,6.7-10.1,19.8,1.8,13.1,8.3,17,17.5,15.7s9.1-4,12-8.3l2.3,1.3c-2.4,6.9-7.7,11.9-16,13-12.3,1.7-21.4-5.7-23.3-19.7-1.9-13.9,6.3-24.7,17.6-26.2,11.3-1.6,17.8,4,19.4,15.1h0Z"/>
      <path class="cls-9" d="M882.9,1870.3c-.4-4.1-1.6-13.5-2.4-19.3l-.6-4.3c-.7-5.1-1.1-7.9-1.9-11.5l-7.5.2-.5-3.2,11.7-7.2,1.5.7,2.6,10.4,1.9,13.8c.8,5.7,2.1,15.1,3,19.2l-7.9,1.1v.2ZM896.7,1865.2l.5,3.2-21.1,2.9-.5-3.2,9.8-3.2,1.8-.3,9.4.6ZM914.5,1837.7l1.2,8.4c.8,5.8,2.1,15.1,3,19.2l-7.9,1.1c-.4-4.1-1.5-13.4-2.4-19.3l-1.1-7.7c-1.2-8.5-3.7-10.9-9.2-10.2s-8.1,3-12.6,8.1l-1.9.3-.6-4.1,4.6-.6-3.7,2.2c3.5-6.3,10.2-11.9,16.7-12.8s12.3,3.2,14,15.3h-.2ZM915.2,1860.7l9.4.6.5,3.2-21.1,2.9-.5-3.2,9.8-3.2,1.8-.3Z"/>
      <path class="cls-9" d="M952.2,1856.8c4.6-.6,7.6-3.1,11.1-9.1l1.2,2.4c-2.6,6.7-6.4,11-13.5,12-11.1,1.5-20-6.7-21.8-20-1.8-13.3,5-24.4,16.3-25.9,11.3-1.6,10,.7,15.8,7.3l-.5,2.5c-6-4.3-9.9-5.3-13.3-4.9-6.9,1-12.1,7.3-10.3,19.8s8,16.9,15.4,15.9h-.2ZM977.6,1853.9l.5,3.2-13.9,2.8-2.2-9.2-3.7-26.8.2-1.2-3.2-23.1-8,.2-.5-3.2,13.5-6.1,1.4.6,1.5,13,7.5,54-2.2-4.4,9.3.2h-.1Z"/>
      <path class="cls-9" d="M989.6,1855.4c-.4-4.1-1.6-13.5-2.4-19.3l-.6-4.3c-.7-5.1-1.1-7.9-1.9-11.5l-7.7.2-.5-3.2,13.1-7.4,1.5.7,1.4,12.4,1.7,12.1c.8,5.7,2.1,15.1,3,19.2l-7.7,1.1v.2ZM1003.3,1850.3l.5,3.2-21.1,2.9-.5-3.2,9.8-3.2,1.8-.3,9.4.6ZM978.9,1795c-.5-3.5,1.9-6.1,5.3-6.6,3.3-.5,6.4,1.4,6.8,4.9s-1.9,6.1-5.3,6.6-6.4-1.5-6.8-4.9Z"/>
      <path class="cls-9" d="M1044.9,1820.1c.3,2.1.2,3.9,0,5.2l-33.8,4.7-.5-3.9,21.8-3c4.4-.6,5.1-2.8,4.8-5.4-.7-5.2-5.8-9.3-11.5-8.5-5.7.8-11.9,6.7-10.1,19.8s8.3,17,17.5,15.7c9.2-1.3,9.1-4,12-8.3l2.3,1.3c-2.4,6.9-7.7,11.9-16,13-12.3,1.7-21.4-5.7-23.3-19.7-1.9-13.9,6.3-24.7,17.6-26.2s17.8,4,19.4,15.1h0Z"/>
      <path class="cls-9" d="M1063.8,1845.1c-.4-4.1-1.6-13.5-2.4-19.3l-.6-4.3c-.7-5.1-1.1-7.9-1.9-11.5l-7.5.2-.5-3.2,11.7-7.2,1.5.7,2.6,10.4,1.9,13.8c.8,5.7,2.1,15.1,3,19.2l-7.9,1.1v.2ZM1077.7,1840l.5,3.2-21.1,2.9-.5-3.2,9.8-3.2,1.8-.3,9.4.6ZM1095.4,1812.5l1.2,8.4c.8,5.8,2.1,15.1,3,19.2l-7.9,1.1c-.4-4.1-1.5-13.4-2.4-19.3l-1.1-7.7c-1.2-8.5-3.7-10.9-9.2-10.2s-8.1,3-12.6,8.1l-1.9.3-.6-4.1,4.6-.6-3.7,2.2c3.5-6.3,10.2-11.9,16.7-12.8,6.5-.9,12.3,3.2,14,15.3h-.2ZM1096.1,1835.5l9.4.6.5,3.2-21.1,2.9-.5-3.2,9.8-3.2,1.8-.3Z"/>
      <path class="cls-9" d="M1128.7,1832.6c2.1-.3,3.8-1.4,5.9-3.5l2.4,2.2c-1.9,3.2-5.4,5.5-9.9,6.1-4.5.6-10.7-1.9-11.7-8.9l-1.1-7.7-3-21.8-7.7,1.1-.5-3.9,11.1-3.1-3.3,3.5.6-15.2,5.3-.7,1.5,16.1,4.1,29.7c.7,4.8,3,6.5,6,6.1h.2ZM1130.6,1791.7l.7,4.8-16.3,2.3-.7-4.8,16.3-2.3Z"/>
      <path class="cls-9" d="M1176.1,1801.8c.3,2.1.2,3.9,0,5.2l-33.8,4.7-.5-3.9,21.8-3c4.4-.6,5.1-2.8,4.8-5.4-.7-5.2-5.8-9.3-11.5-8.5s-11.9,6.7-10.1,19.8,8.3,17,17.5,15.7c9.2-1.3,9.1-4,12-8.3l2.3,1.3c-2.4,6.9-7.7,11.9-16,13-12.3,1.7-21.4-5.7-23.3-19.7-1.9-13.9,6.3-24.7,17.6-26.2,11.3-1.6,17.8,4,19.4,15.1h0Z"/>
    </g>
    <rect class="cls-7" x="1159.6" y="883.4" width="491.5" height="686.9" transform="translate(-155.7 205.5) rotate(-7.9)"/>
    <g class="cls-27">
      <circle class="cls-5" cx="942.6" cy="1294.6" r="139.9"/>
      <g>
        <path class="cls-19" d="M1150.5,1332.2l-9.5-4.1.9-3.5,20.6,5.7-1.1,4-9.1-1.6-1.8-.5h0ZM1155.6,1393.2l-3.5-.9-3.8-66,4.8,1.3,3.2,55.4-1.8-.5,31.7-45.7,8.6,2.3-39,54.1h-.1ZM1185.2,1341.8l-10.4-3.8,1.1-4,24,6.7-.9,3.5-11.9-1.9-1.8-.5Z"/>
        <path class="cls-19" d="M1083.3,1355.6l-1.6,16.6-2.8-5.6,30.5,8.4-1.2,4.5-33.5-9.2,3.7-16,5,1.4h0ZM1099.1,1344.9l-4.1,9.5-4-1.1,5.9-21.1,4,1.1-1.3,9.9-.5,1.8h0ZM1092.8,1328.1l-5-1.4,5-15.7,31.8,8.8-1.2,4.5-28.7-7.9,5.3-3.4-7.1,15.1h.1ZM1097,1341.4l20.2,5.6-1.1,4.1-20.2-5.6,1.1-4.1ZM1119.7,1353c-2.5,9.4-5.1,18.7-7.4,27.7l-8.6-2.3c2.8-9.1,5.4-18.4,8.1-28.7l1-3.4c2.5-9.4,5.1-18.7,7.4-27.7l8.6,2.3c-2.8,9.1-5.4,18.4-7.8,27.5l-1.2,4.5h0ZM1110.5,1374.9l11.2,4.5-.9,3.5-12.5-3.4,1.3-4.9.9.2h0ZM1124.2,1325l-.9-.2,1.3-4.9,12.5,3.4-.9,3.5-11.9-1.9h0Z"/>
        <path class="cls-19" d="M1061.9,1337l-8.5-2.3c-7.4-2-11-1.7-14.8,5l-7.7,13.5c-2.2,3.8-5,4.5-10.5,3-2.6-.7-4.7-1.7-6.2-2.7l.9-3.5,9.4,1.4-3.2.9,8.5-13.6c4.6-7.4,9.4-9.2,15.9-8.1v.8c-11.4-4.2-15.4-12.7-13.3-20.3,2.7-9.8,12.3-13.5,26-9.7l12.2,3.4-1.1,4.1-12.1-3.4c-9.3-2.6-14.4.5-16.5,7.9-2,7.2,1.2,13.7,10.9,16.3l11.1,3.1-1.1,4h0ZM1056.6,1360l11.2,4.5-.9,3.5-25-6.9.9-3.5,11.9,1.9,1.8.5h0ZM1065.9,1338.1c-2.5,9.4-5.1,18.7-7.4,27.7l-8.6-2.3c2.8-9.1,5.4-18.4,8.2-28.4l.7-2.6c2.9-10.5,5.3-19.2,7.6-28.6l8.6,2.3c-2.8,9.1-5.4,18.4-7.8,27.5l-1.2,4.5h0ZM1070.3,1310.1l-.9-.2,1.3-4.9,12.5,3.4-.9,3.5-11.9-1.9h0Z"/>
        <path class="cls-19" d="M998.7,1344.1l11.2,4.5-.9,3.5-25-6.9.9-3.5,11.9,1.9,1.8.5h0ZM1008.1,1322.3c-2.5,9.4-5.1,18.7-7.4,27.7l-8.6-2.3c2.8-9.1,5.4-18.4,7.8-27.5l1.2-4.5c2.5-9.4,5.1-18.7,7.4-27.7l8.6,2.3c-2.8,9.1-5.4,18.4-7.8,27.5l-1.2,4.5ZM1012.5,1294.2l-1.8-.5-11.2-4.5.9-3.5,25,6.9-.9,3.5-11.9-1.9h0Z"/>
        <path class="cls-19" d="M953.5,1305.8l-4.1,9.5-4-1.1,6.1-22,4,1.1-1.3,9.9-.7,2.6h0ZM948.2,1288.2l-5-1.4,5-15.7,31.8,8.8-1.2,4.5-28.7-7.9,5.3-3.4-7.1,15.1h.1ZM965.7,1335l11.2,4.5-.9,3.5-25-6.9.9-3.5,11.9,1.9,1.8.5h0ZM951.7,1301.4l20.8,5.8-1.1,4.1-20.8-5.8,1.1-4.1ZM975.1,1313.1c-2.5,9.4-5.1,18.7-7.4,27.7l-8.6-2.3c2.8-9.1,5.4-18.4,8.1-28.7l1-3.4c2.5-9.4,5.1-18.7,7.4-27.7l8.6,2.3c-2.8,9.1-5.4,18.4-7.8,27.5l-1.2,4.5h0ZM979.5,1285.1l-.9-.2,1.3-4.9,12.5,3.4-.9,3.5-11.9-1.9h0Z"/>
        <path class="cls-19" d="M915.1,1321l11.2,4.5-.9,3.5-25-6.9.9-3.5,11.9,1.9,1.8.5h0ZM924.4,1299.3c-2.5,9.4-5.1,18.7-7.4,27.7l-8.6-2.3c2.8-9.1,5.4-18.4,7.8-27.5l1.2-4.5c2.5-9.4,5.1-18.7,7.4-27.7l8.6,2.3c-2.8,9.1-5.4,18.4-7.8,27.5l-1.2,4.5ZM928.8,1271.1l-1.8-.5-11.2-4.5.9-3.5,25,6.9-.9,3.5-11.9-1.9h0Z"/>
        <path class="cls-19" d="M864.7,1309.1c12.4,3.5,23.7-3.5,28.5-20.9,4.7-17.4-2.3-29.4-14.3-32.7-4.2-1.2-9.7-1.1-16.1,2.2l1.5-5.4,5.9.3-5.8,12.6-5.4-1.5,3.9-12.9c7-1.9,13.5-.9,18.3.4,17.4,4.7,26.4,21.7,21.5,39.5-5,18.2-20.7,27.9-38.8,22.9-6.2-1.7-12-4.7-16.8-9.2l3.3-13,5.4,1.5-1.4,13.8-5.2-2.8,1.3-4.9c4,5.6,9.2,8.6,14.3,10.1h0Z"/>
        <path class="cls-19" d="M808.2,1296.9l-24-6.7.9-3.5,11.5,1.7,1.8.5,10.9,4.4-.9,3.5h-.1ZM836,1304.5l-4.2-1.2-3.5-58.4,2.1.6-32.6,48.5-8.2-2.3,37.1-54.5,5.4,1.5,4.1,65.8h-.1ZM832.5,1282.7l-26.9-7.4,2.6-3.7,24,6.7.3,4.5h0ZM841.8,1306.1l-20.5-5.6.9-3.5,10.2,1.3,1.8.5,8.6,3.8-.9,3.5h-.1Z"/>
        <path class="cls-19" d="M767.7,1285.7l-12-3.3c-17.3-4.8-27.6-18.9-22.3-38.2,5.3-19.5,20-26.7,36.9-22l13.9,3.8-1.1,4.1-12.2-3.4c-13.2-3.7-23.3,3.2-27.9,20.1-4.5,16.3.6,27.8,14.6,31.7l11.4,3.1-1.1,4.1h-.2ZM779.5,1258.1c-2.8,10.4-5.4,19.7-7.7,28.8l-8.6-2.3c2.8-9.1,5.4-18.4,8.1-28.7l1-3.4c2.5-9.4,5.1-18.7,7.4-27.7l8.6,2.3c-2.8,9.1-5.4,18.4-7.8,27.5l-1,3.4h0ZM769.9,1281l11.2,4.5-.9,3.5-12.5-3.4,1.3-4.9.9.2h0ZM783.6,1231.1l-.9-.2,1.3-4.9,12.5,3.4-.9,3.5-11.9-1.9h0Z"/>
        <path class="cls-19" d="M705.2,1202.8c13.7,3.8,24,19.2,18.7,38.7-5.7,20.3-22,27.5-35.9,23.7-13.9-3.8-23.9-19.1-18.6-38.7,5.7-20.3,22-27.5,35.8-23.7ZM714.6,1239c3.6-13.4,2-28.2-10.6-31.7-12.6-3.4-21.5,8.5-25.2,21.8-3.6,13.4-2.1,28.2,10.5,31.7,12.6,3.4,21.6-8.4,25.3-21.8h0Z"/>
      </g>
      <circle class="cls-5" cx="942.6" cy="1294.6" r="119.1"/>
    </g>
    <g>
      <rect class="cls-18" x="149.8" y="284.9" width="437.4" height="437.4" transform="translate(-65.9 55.6) rotate(-7.9)"/>
      <g class="cls-28">
        <g>
          <path class="cls-18" d="M615.6,691.6l-433.2,60.3-60.3-433.2,433.2-60.3,60.3,433.2ZM337.1,667.3c-5.4,12-3.7,15.5,8.7,17.1,3.9.6,8.4.4,12.2-1,10.5-3.9,20.6-8.7,31-12.7,2.9-1.1,6.6-.5,10-.3,14.7.6,29.4,1.8,44,1.5,4.5-.2,8.8-5.1,13.2-7.8-3.4-3.9-6.9-7.7-10.4-11.6-.5-.6-1.3-.9-2.3-1.4,2-4.5,4.9-8.4,5.5-12.7,1.3-8,3.5-16.9,1.6-24.3-4.2-15.7-11-30.6-16.2-46.1-1.7-5-3.7-11.4-2.1-15.9,3.1-8.8.6-15.6-2.9-23.2-3.3-7.2-5.1-15.1-8.2-22.4-3.7-8.7-7.4-17.6-12.5-25.5-3.7-5.9-9.6-10.2-14.5-15.3,8.7-16.7,7-26-6.9-38.7-1.5-1.3-2.4-3.6-3.1-5.5-2.3-6.8-4.3-13.8-7.5-23.9,2.5-19.7,5.6-43.6,8.9-68.9-16.4,3.9-17.7,18.6-23.7,29-6.3,10.9-11.4,22.5-15.4,30.9-8.4-20.2-34.1-28.2-45.7-49.2-1.7,1-3.3,2.1-5.1,3.1,3.4,24.4,14.9,45.8,27.6,67-1.5,4.1-3.9,8.9-5.3,14-2.1,8-3.1,16.2-5.2,24.2-2,8.2-1.8,15.6,4.9,21.9,1.8,1.7,3.2,5.3,2.7,7.6-4,22.6-4.9,44.8,5.2,66.4.9,2.1,1.4,5.4.5,7.3-5.6,11.1-2.4,22.1-.3,33.2.4,2.1,1.3,4.3,1.1,6.3-1.4,11.8-4,23.3-4.6,35.1-.6,15.5,0,31.2,14.9,42.1h0Z"/>
          <path class="cls-9" d="M337.1,667.3c-14.9-11-15.5-26.7-14.9-42.1.5-11.7,3.1-23.3,4.6-35.1.3-2-.6-4.2-1.1-6.3-2.1-11-5.3-22.1.3-33.2.9-1.9.5-5.2-.5-7.3-10-21.5-9.2-43.8-5.2-66.4.4-2.4-.9-5.9-2.7-7.6-6.6-6.3-7-13.7-4.9-21.9,2-8,3.1-16.2,5.2-24.2,1.4-5.1,3.8-10,5.3-14-12.7-21.1-24.1-42.6-27.6-67,1.7-1,3.3-2.1,5.1-3.1,11.6,21.2,37.3,29.2,45.7,49.2,4.1-8.3,9.1-19.9,15.4-30.9,6-10.4,7.3-25.1,23.7-29-3.3,25.3-6.4,49.2-8.9,68.9,3.2,10.1,5.1,17.1,7.5,23.9.7,2,1.6,4.2,3.1,5.5,13.9,12.6,15.6,21.8,6.9,38.7,4.9,5,10.8,9.5,14.5,15.3,5.1,7.9,8.8,16.7,12.5,25.5,3.1,7.3,4.9,15.2,8.2,22.4,3.5,7.6,6,14.4,2.9,23.2-1.6,4.5.4,10.8,2.1,15.9,5.2,15.5,12,30.4,16.2,46.1,1.9,7.4-.3,16.3-1.6,24.3-.7,4.3-3.5,8.3-5.5,12.7,1,.5,1.8.9,2.3,1.4,3.5,3.8,6.9,7.7,10.4,11.6-4.4,2.7-8.7,7.6-13.2,7.8-14.7.4-29.4-.9-44-1.5-3.3,0-7-.8-10,.3-10.5,3.9-20.6,8.8-31,12.7-3.7,1.4-8.1,1.6-12.2,1-12.3-1.6-14-5.1-8.7-17.1h0Z"/>
        </g>
      </g>
      <rect class="cls-3" x="149.8" y="284.9" width="437.4" height="437.4" transform="translate(-65.9 55.6) rotate(-7.9)"/>
    </g>
    <ellipse class="cls-8" cx="333.5" cy="432" rx="7.5" ry="14" transform="translate(-188.6 273) rotate(-35.4)"/>
    <ellipse class="cls-8" cx="372.1" cy="427.4" rx="14" ry="7.5" transform="translate(-155.1 635) rotate(-70.4)"/>
    <polygon class="cls-21" points="1638 1115.7 1535.5 1070.9 1346.9 1291.3 1346.1 1581.2 1695.2 1527.1 1638 1115.7"/>
    <polygon class="cls-20" points="1152.9 1180.7 1294.8 1525.1 1201.9 1010.6 1340.7 1527.2 1297.1 931.4 1388.1 1532.3 1359.4 1020.4 1418.1 1503.7 1441.3 1128.9 1469.2 1489.2 1515.1 1201 1500.3 1522 1528.6 1358.8 1535.7 1554.8 1209.3 1600.9 1152.9 1180.7"/>
    <polygon class="cls-22" points="1161.7 1246.2 1281.5 1536.9 1203.1 1102.5 1320.3 1538.7 1283.4 1035.6 1360.3 1543 1336 1110.7 1385.6 1518.9 1405.2 1202.4 1428.7 1506.6 1467.5 1263.3 1455 1534.3 1478.9 1396.5 1484.9 1562 1209.3 1600.9 1161.7 1246.2"/>
    <text class="cls-14" transform="translate(1163.1 981.2) rotate(-7.9)"><tspan x="0" y="0">(VISTA DE CÁMARA)</tspan></text>
  </g>
  <text class="cls-26" transform="translate(1680.6 194.8)"><tspan x="0" y="0">X</tspan></text>
</svg>