<?xml version="1.0" encoding="UTF-8"?>
<svg id="Capa_1" data-name="Capa 1" xmlns="http://www.w3.org/2000/svg" version="1.1" viewBox="0 0 1080 1080">
  <defs>
    <style>
      .cls-1 {
        fill: #000;
        stroke-width: 0px;
      }
    </style>
  </defs>
  <path class="cls-1" d="M540,90.9c60.6,0,119.4,11.9,174.8,35.3,53.5,22.6,101.5,55,142.8,96.3s73.6,89.3,96.3,142.8c23.4,55.3,35.3,114.1,35.3,174.8s-11.9,119.4-35.3,174.8c-22.6,53.5-55,101.5-96.3,142.8-41.3,41.3-89.3,73.6-142.8,96.3-55.3,23.4-114.1,35.3-174.8,35.3s-119.4-11.9-174.8-35.3c-53.5-22.6-101.5-55-142.8-96.3-41.3-41.3-73.6-89.3-96.3-142.8-23.4-55.3-35.3-114.1-35.3-174.8s11.9-119.4,35.3-174.8c22.6-53.5,55-101.5,96.3-142.8,41.3-41.3,89.3-73.6,142.8-96.3,55.3-23.4,114.1-35.3,174.8-35.3M540,54.9c-267.9,0-485.1,217.2-485.1,485.1s217.2,485.1,485.1,485.1,485.1-217.2,485.1-485.1S807.9,54.9,540,54.9h0Z"/>
  <g>
    <path class="cls-1" d="M540,926.1c-52.1,0-102.7-10.2-150.3-30.3-46-19.4-87.3-47.3-122.7-82.7-35.5-35.5-63.3-76.8-82.7-122.7-20.1-47.6-30.3-98.1-30.3-150.3s10.2-102.7,30.3-150.3c19.4-46,47.3-87.3,82.7-122.7,35.5-35.5,76.8-63.3,122.7-82.7,47.6-20.1,98.1-30.3,150.3-30.3s102.7,10.2,150.3,30.3c46,19.4,87.3,47.3,122.7,82.7,35.5,35.5,63.3,76.8,82.7,122.7,20.1,47.6,30.3,98.1,30.3,150.3s-10.2,102.7-30.3,150.3c-19.4,46-47.3,87.3-82.7,122.7-35.5,35.5-76.8,63.3-122.7,82.7-47.6,20.1-98.1,30.3-150.3,30.3Z"/>
    <path class="cls-1" d="M540,168.8c50.1,0,98.7,9.8,144.5,29.2,44.2,18.7,83.9,45.5,118,79.6,34.1,34.1,60.9,73.8,79.6,118,19.3,45.7,29.2,94.4,29.2,144.5s-9.8,98.7-29.2,144.5c-18.7,44.2-45.5,83.9-79.6,118-34.1,34.1-73.8,60.9-118,79.6-45.7,19.3-94.4,29.2-144.5,29.2s-98.7-9.8-144.5-29.2c-44.2-18.7-83.9-45.5-118-79.6-34.1-34.1-60.9-73.8-79.6-118-19.3-45.7-29.2-94.4-29.2-144.5s9.8-98.7,29.2-144.5c18.7-44.2,45.5-83.9,79.6-118,34.1-34.1,73.8-60.9,118-79.6,45.7-19.3,94.4-29.2,144.5-29.2M540,139c-221.4,0-401,179.5-401,401s179.5,401,401,401,401-179.5,401-401-179.5-401-401-401h0Z"/>
  </g>
</svg>