<?xml version="1.0" encoding="UTF-8"?>
<svg id="Capa_1" data-name="Capa 1" xmlns="http://www.w3.org/2000/svg" version="1.1" viewBox="0 0 1080 1080">
  <defs>
    <style>
      .cls-1 {
        fill: #000;
        stroke-width: 0px;
      }
    </style>
  </defs>
  <path class="cls-1" d="M152.3,504.9c-6.8-2.5-8.1-3.2-9.5-3.4-32.8-4-73.7,6.9-86-38.8-11.3-42.1,25.7-57,50.3-76.8,128.7-103.8,258.5-206.2,386.8-310.5,32.5-26.5,58.8-27,91.5-.5,131.7,107,264.8,212.2,397.2,318.3,23.3,18.7,52.4,35.4,39.4,73.1-12.9,37.4-45.3,33.8-75.7,33.8-4.2,0-8.4,1.3-18.6,3.1v45c0,135.3.2,270.5,0,405.8-.1,57.3-13.5,70.3-71.8,70.6-51.8.3-103.6.6-155.4-.2-46.8-.7-61.9-16.1-62.4-62.3-.5-44.6.6-89.2-.3-133.8-1.2-61.3-41.7-104.3-97.2-104.7-55.4-.4-96.9,42.8-98.2,103.7-.9,47.5-.4,95-.3,142.4,0,35.5-18.9,53.8-53,54.4-60.4,1.2-120.9.9-181.3.3-39.3-.4-55.9-21.9-55.7-60.7.6-138.1.2-276.3.1-414.4,0-15.5,0-30.9,0-44.3Z"/>
</svg>