<?xml version="1.0" encoding="UTF-8"?>
<svg id="Capa_1" data-name="Capa 1" xmlns="http://www.w3.org/2000/svg" version="1.1" viewBox="0 0 1080 1080">
  <defs>
    <style>
      .cls-1 {
        fill: #000;
        stroke-width: 0px;
      }
    </style>
  </defs>
  <path class="cls-1" d="M540,60c64.8,0,127.7,12.7,186.8,37.7,57.2,24.2,108.5,58.8,152.6,102.9,44.1,44.1,78.7,95.4,102.9,152.6,25,59.1,37.7,122,37.7,186.8s-12.7,127.7-37.7,186.8c-24.2,57.2-58.8,108.5-102.9,152.6-44.1,44.1-95.4,78.7-152.6,102.9-59.1,25-122,37.7-186.8,37.7s-127.7-12.7-186.8-37.7c-57.2-24.2-108.5-58.8-152.6-102.9-44.1-44.1-78.7-95.4-102.9-152.6-25-59.1-37.7-122-37.7-186.8s12.7-127.7,37.7-186.8c24.2-57.2,58.8-108.5,102.9-152.6,44.1-44.1,95.4-78.7,152.6-102.9,59.1-25,122-37.7,186.8-37.7M540,0C241.8,0,0,241.8,0,540s241.8,540,540,540,540-241.8,540-540S838.2,0,540,0h0Z"/>
  <path class="cls-1" d="M466.4,212.4h147.1l-36.4,391.6h-74.8l-36-391.6ZM483,744.3h114v123.3h-114v-123.3Z"/>
</svg>