<?xml version="1.0" encoding="UTF-8"?>
<svg id="Capa_1" data-name="Capa 1" xmlns="http://www.w3.org/2000/svg" version="1.1" viewBox="0 0 192 497">
  <defs>
    <style>
      .cls-1, .cls-2, .cls-3, .cls-4 {
        fill: none;
      }

      .cls-1, .cls-2, .cls-4 {
        stroke: #8c6239;
      }

      .cls-1, .cls-4 {
        stroke-miterlimit: 10;
      }

      .cls-5 {
        fill: #2e3192;
      }

      .cls-5, .cls-6, .cls-3, .cls-7, .cls-8 {
        stroke-width: 0px;
      }

      .cls-6 {
        fill: #000;
      }

      .cls-2 {
        stroke-linejoin: round;
        stroke-width: 2px;
      }

      .cls-2, .cls-4 {
        stroke-linecap: round;
      }

      .cls-7 {
        fill: #8c6239;
      }

      .cls-8 {
        fill: #fff;
      }

      .cls-4 {
        stroke-width: 3px;
      }
    </style>
  </defs>
  <g>
    <line class="cls-3" x1="96.1" y1="389.1" x2="96.1" y2="182.1"/>
    <rect class="cls-7" x="94.8" y="182.1" width="2.6" height="207"/>
  </g>
  <g>
    <path class="cls-5" d="M138.8,85l-40.7,92.5c-.8,1.8-3.6,1.9-4.3,0l-40.7-92.5c-10.4-23.6.4-51.2,24-61.6,39.2-17.1,78.5,23,61.6,61.6h0Z"/>
    <polygon class="cls-5" points="90.7 185.1 101.1 185.1 95.9 173.6 90.7 185.1"/>
  </g>
  <path class="cls-4" d="M89.4,376.6"/>
  <path class="cls-4" d="M73.4,381.6"/>
  <g>
    <path class="cls-6" d="M83.9,343.7c0,.2-.1.3-.2.5h0c-.1.3-.3.6-.2,1-.3.7-.5,1.5-.5,2.2-.1.3-.2.6-.3.9-.2.5-.2,1.1-.7,1.2-.4,0-.3-.7-.7-1-.3-.5-.5-1.2-1.4-.9-.7-.1-1,.4-1.3.8-.6.8-1,1.7-1.2,2.6-.9,3.2-1.1,6.4-1,9.7.2,2.9.4,5.7,1.1,8.5.7,3.1,2.1,5.9,4.3,8.3,1,1.3,2.1,2.5,3.5,3.6.4.7,1.1,1.1,1.6,1.6,3.5,3.2,7.1,6.2,10.5,9.6,0,0,0,.1.1.2,2.1,2.4,4,5,5,8.1,0,0,.2.1.2.2-.3.5,0,1,.1,1.4,0,1.1-.3,2.3-.6,3.4,0,.2,0,.4-.1.6-.2,0-.3,0-.3.2-1.2,2.1-2.9,3.8-4.5,5.6-3.1,3.6-5.1,7.7-5.8,12.5-.7,4.7-.1,9.3,0,14-.2,3.5-1.1,6.7-3.2,9.5-1.4,1.8-3.1,3.3-4.8,4.8-.7-.3-.8-1.1-1.3-1.5,0-.3-.3-.6-.5-.8-.6-1-1.4-1.8-2.4-2.4-1.4-.7-2.5-.3-2.9,1.2-.2.9-.4,1.8-.5,2.6-.1.7-.2,1.5-.7,2.1-.6-.3-1.2-.6-1.9-.8-1.2-.3-2.4-.9-3.6,0-1.4,1-1.3,2.4-.8,3.8.4,1.4.7,2.7.3,4.1-.4,1.7-.2,3.4.1,5.1,0,.4.4.8.4,1.2-.1,2,.2,4,0,6-.1.9-.3,1.9,0,2.9-.2.3-.1.7,0,1,.1.5.5.6,1,.6,1.4.8,2.9,1.4,4.6,1.1.5.2,1,.2,1.4-.3,1.1,0,2.8-1.1,3.2-2.1.7.2.8-.6,1.3-.8.5-.6,1.4-.9,1.7-1.8.9-.3,1.5-1.1,2.4-1.5-.1.6-.2,1-.3,1.5-.5,2.5-2.2,4.3-3.1,6.6,0,.2-.1.4-.2.7,0,0,0,0,.1,0,0,0,0,0-.1,0-.1.3-.3.6-.2,1-.1.4-.2.8-.1,1.2,0,.4,0,.8.2,1.2.6,1.5,1.3,3,3.1,3.3.9-.3,1.1-1,1.3-1.8.3-.6.5-1.1.5-1.8.2-.5.3-1,.5-1.5.3-1,.6-2.1.8-3.1.3-1.9,1.1-3.6,2.5-5,.2-.2.3-.3.3-.6,0,0,0,0,0,0,1.1-.3,1.8-1.4,2.9-1.9,0,1.7-.4,3.4-.9,5.1-.3,1-.8,1.9-.8,3,0,.2,0,.5-.2.6-.2.5-.5.9-.5,1.5,0,.3,0,.5-.1.8-.4,1.2-.9,2.3-1,3.6-.1.4-.2.8.1,1.1.6,1.7,1.8,2.7,3.4,3.3.6.3,1.4.4,1.9-.1.6-.6.7-1.4.5-2.1-.2-.9-.3-1.9-.5-2.9.3-.4,0-.8.2-1.2,0-.2.1-.4.2-.6,0-.2.2-.4.3-.7.7-1,1.5-2.1,2.2-3.1,0,0,0,0,0,0,.6-.5,1-1.1,1.4-1.7.9-1.2,1.8-2.4,2.6-3.7.3-.3.5-.7.6-1.2,1.7-2.6,2.5-5.4,2.8-8.4.1-.3.2-.5,0-.8.5-.3,0-.9.3-1.3.2-.4.5-.8.2-1.3,0-.6.2-1.1.3-1.6.1-.3.2-.6.2-1,0-.7.3-1.3.6-1.9,1.5-3.9,3.7-7.4,5.1-11.3.5-.8.6-1.8.7-2.7.3-3.6.5-7.2.3-10.8,0-.5,0-1,.4-1.4.3-.2.5-.4.8-.6.3,0,.5-.2.7-.4.7-.3,1.4-.6,2.1-.8,3.8-1.2,6.7-3.4,8.7-6.9.2-.3.4-.6.6-.9,0,0,0-.2,0-.3.6-.6.8-1.5,1.3-2.2,0-.5.6-.8.5-1.3,1.2-2.1,2.3-4.4,3.8-6.4,0,0,0,0,0,0h0s0,0,0,0c0,0,.2-.1.2-.2,1-.9,1.8-1.8,3-2.5.4-.2.9-.2,1.1-.7.2.3.5,0,.7,0,1.5-.3,3-.2,4.4.4.6.2,1.3.5,2,.4.4,0,.7,0,.9-.3,1.3-1.5,1.4-2.8.5-4.5-.8-1.5-1.9-2.6-3.3-3.5-1.1-.6-2.2-.4-3.4-.2-1.3.2-2.3.6-3.3,1.3-.3.2-.7.4-1,.6-2.1,1.4-4.1,3.1-6.3,4.4-.8.5-1.8.6-2.6,1.3-2.2-.1-4.4-.4-6.5-.8-.5-.2-.9-.3-1.4-.3-.6-.3-1.2-.3-1.8-.4-.3-.1-.6-.2-1-.2-.4-.1-.9-.2-1.3-.4-.3,0-.6-.3-1-.1h-.3s0,0-.1,0c-.1,0-.3,0-.4,0,0,0-.2-.1-.3-.2-.5-.1-.4-.4-.3-.8.4-.8.6-1.6.8-2.4.7-2.1,1.4-4.2,2.1-6.2.4-.7.3-1.5.6-2.3.1-.8,0-1.6.3-2.4,0-.4.3-.7.2-1.1,0,0,0-.1-.1-.2,0-.1,0-.2,0-.3,0,0,0-.1,0-.2,0,0,0,0,.1-.1.3-.6.1-1.2,0-1.7,0-.9-.1-1.7-.2-2.6-.3-1.1-.1-2.3-.6-3.3-.7-2-1.4-4-2.5-5.8-2.4-4.1-5.9-7.2-9.4-10.4-.4-.5-.9-.7-1.4-1h0s0,0,0,0c0,0,0,0,0,0,0-.3-.2-.4-.3-.5-.9-1-2-1.9-2.8-3-.3-.6-.8-.9-1.2-1.4-.5-.3-.7-.8-.9-1.2-.2-.5-.6-.9-.9-1.4-.9-1.1-1.2-2.5-2-3.6,0-.6-.4-.9-.9-1.2h0c.3-.5-.1-.8-.4-.8-.5,0-.5.5-.6.9-.2.4-.5.4-.9.2-.3-.5-.7-.9-1-1.4,0-.4-.3-.7-.5-.9-.6-1.3-1-2.6-1.3-4-.1-.6-.2-1.3-.7-1.8,0-.4-.2-.9-.5-1.1-1.2-1.4-1-1.8-1.9.3ZM84.5,487.3s0,0-.1,0c0,0,0,0,0,0,0,0,0,0,.1,0h0s0,0,0,0c0,0,0,0,0,0,0,0,0,0,0,0ZM83.5,486.7s0,0,0,0c0,0,0,0,0,0,0,0,0,0,0,0ZM82.4,452.5s0,0,0,0c0,0,0,0,0,0,0,0,0,0,0,0ZM89.3,474.4s0,0,0,0c0,0,0,0,0,.1,0,0,0,0,0-.1ZM89.9,473.7s0,0,0,0c0,0,0,0,0,0,0,0,0,0,0,0ZM89.3,474.6s0,0,0,0c0,0,0,0,0,0,0,0,0,0,0,0ZM102.1,474.3s0,0,0,0h0ZM144.7,407.9s0,0,0,0c0,0,0,0,0,0,0,0,0,0,0,0ZM130.4,413.5s0,0,0,0c0,0,0,0,0,0,0,0,0,0,0,0,0,0,0,0,0,0,.1,0-.1,0-.2,0ZM132.8,410.4s0,0,0,0c0,0,0,0,0,0,0,0,0,0,0,0ZM132.6,410.5s0,0,0,0c0,0,0,0,0,0,0,0,0,0,0,0,0,0,0,0,0,0,0,0,0,0,0,0ZM124.5,424.2h0s0,0,0,0c0,0,0,0,0,0Z"/>
    <polygon class="cls-6" points="84.5 487.3 84.5 487.3 84.5 487.3 84.5 487.3 84.5 487.3"/>
  </g>
  <polyline class="cls-2" points="96.5 359.7 81 376.6 99.2 362.8 82.8 378.7 100.8 364.6 85.2 381.1"/>
  <path class="cls-1" d="M100.8,364.6s-1.7-10.5,2.4-8-.2,3.4-2.4,8Z"/>
  <path class="cls-1" d="M108.7,362c.4,4.8-2.9,1.8-7.9,2.7,0,0,7.5-7.4,7.9-2.7"/>
  <circle class="cls-8" cx="76.4" cy="464.5" r="2.8"/>
</svg>