<?xml version="1.0" encoding="UTF-8"?>
<svg id="Capa_1" data-name="Capa 1" xmlns="http://www.w3.org/2000/svg" version="1.1" viewBox="0 0 192 436.4">
  <defs>
    <style>
      .cls-1 {
        fill: #2e8cff;
      }

      .cls-1, .cls-2, .cls-3, .cls-4, .cls-5, .cls-6 {
        stroke-width: 0px;
      }

      .cls-2 {
        fill: #000;
      }

      .cls-7 {
        stroke-linejoin: round;
        stroke-width: 2px;
      }

      .cls-7, .cls-3, .cls-8 {
        fill: none;
      }

      .cls-7, .cls-8 {
        stroke: #8c6239;
        stroke-linecap: round;
      }

      .cls-4 {
        fill: #8c6239;
      }

      .cls-5 {
        fill: #fff;
      }

      .cls-6 {
        fill: #d0005e;
      }

      .cls-8 {
        stroke-miterlimit: 10;
        stroke-width: 3px;
      }
    </style>
  </defs>
  <g>
    <line class="cls-3" x1="96.1" y1="361.9" x2="96.1" y2="121.5"/>
    <rect class="cls-4" x="94.8" y="121.5" width="2.6" height="240.4"/>
  </g>
  <g>
    <path class="cls-6" d="M120.4,67.4l-23.2,52.8c-.5,1-2.1,1.1-2.5,0l-23.2-52.8c-5.9-13.5.2-29.2,13.7-35.2,22.4-9.8,44.8,13.1,35.2,35.2h0Z"/>
    <polygon class="cls-6" points="92.9 124.5 98.9 124.5 95.9 118 92.9 124.5"/>
  </g>
  <path class="cls-8" d="M73.4,321"/>
  <path class="cls-3" d="M91.4,353.4"/>
  <circle class="cls-5" cx="30.6" cy="337.7" r="3.4"/>
  <g>
    <line class="cls-3" x1="95.1" y1="363.8" x2="110.2" y2="204.8"/>
    <rect class="cls-4" x="22.8" y="283" width="159.7" height="2.6" transform="translate(-190.1 359.6) rotate(-84.6)"/>
  </g>
  <g>
    <path class="cls-1" d="M139.5,153.2l-28.1,50.4c-.6,1-2.1.9-2.4-.2l-18.1-54.8c-4.6-14,3-29.1,17-33.7,23.2-7.6,43.4,17.3,31.7,38.3h0Z"/>
    <polygon class="cls-1" points="106.7 207.5 112.6 208.1 110.3 201.2 106.7 207.5"/>
  </g>
  <g>
    <path class="cls-5" d="M36,350.9v-.3c-.3-.2-.5-.4-.8-.5-1.1-.5-2.3-.9-3.3-1.5-1.3-.8-2.5-1.9-3.6-2.9-.3-.3-.4-1.1-.2-1.5.6-1.4,3.1-2,4.2-1,3.8,3.2,7.6,6.4,11.4,9.6.9.8,1.2,1.8,1,3-.8,3.9.3,6.4,3.6,8.6,1.2.8,1.3,1.3.3,2.5-2.6,3.1-5.2,6.2-7.8,9.2-1.1,1.3-1.4,2.8-.8,4.4,1.4,3.6,2.8,7.3,4.2,10.9.6,1.6,1.9,2.5,3.6,2.3,3.7-.4,7.4-.5,11,.6.2,0,.5,0,.8-.1,0-.3,0-.6-.2-.8-.8-1.2-1.6-2.6-2.6-3.6-.5-.6-1.5-1.1-2.3-1.2-1.6-.2-3.2,0-4.8,0-1.2,0-2.1-.5-2.6-1.6-.5-1-.9-2.1-1.3-3.2-.6-1.5,0-2.8,1.4-3.4,1.6-.8,3.3-1.5,4.9-2.3,1.9-.9,4-1.7,5.7-2.9,2.6-1.7,5-3.7,7.4-5.7,1.2-1,2.5-1.3,4.1-.8,5.8,1.7,11.7,3.4,17.5,5.1,5.1,1.5,10.3,1.6,15.5.7,1.4-.2,2.8-.6,4.2-.6,3.5-.1,6.7.7,9.4,3.2,4.4,4.1,8.8,8.1,13.2,12.2,1.4,1.3,3,2.2,4.9,2.7,4,1.1,8,2.3,12.1,3.4,3.1.8,5.4,2.6,7.2,5.3,3.2,4.9,6.4,9.7,9.7,14.5.7,1,1.6,1.9,2.6,2.4,1.3.7,2.2,1.5,2.6,2.9.6,1.8,1.8,3.1,3.4,4,1,.6,1.8.2,2-1,.1-1,.2-2.1.3-3.1.2-1.8-.4-3.2-2-4.1-2.3-1.4-4.2-3.3-5.8-5.4-.4-.6-1-1.1-1.4-1.7-.7-1.1-1.4-2.1-1.9-3.3-1.5-3.6-3-7.3-4.4-11-1-2.5-2.7-4.3-5.3-5.2-1.7-.7-3.4-1.3-5.1-2.1-3.8-1.8-6.5-4.8-7.8-8.9-.8-2.7-1.3-5.6-1.9-8.4,0-.2,0-.4.2-1,.4.6.6.8.7,1.1,1.6,2.7,3.2,5.3,4.8,8,.1.2.2.4.4.6.1.1.5.3.5.2.1-.1.3-.4.3-.6,0-.3-.1-.5-.2-.8-.9-2.4-1.9-4.8-2.7-7.2-.7-1.9-1.6-3.5-3-5-2.3-2.4-4.4-5-6.7-7.3-1.8-1.8-3.9-3.4-5.9-5-3.9-3.3-8.3-5.7-13.3-6.7-4.8-1-9.7-1.7-14.5-2.6-2.1-.4-4.3-.6-6.3-1.7-3.7-2.1-7.4-4.2-11-6.4-4.1-2.6-8.4-3.8-13.2-3.7-2.2,0-4.4-.1-6.5-.5-2.4-.5-4.6-1.4-6.9-2.1-3.9-1.3-7.7-2.8-11.7-3.8-5.9-1.4-11.9-2.4-18-1.9-.7,0-1-.2-1-.9,0-.7,0-1.3-.1-2,0-.3-.2-.7-.4-.7-.3,0-.6.2-.8.4-.4.4-.7.8-1.1,1.2-.1,0-.2-.1-.3-.2.2-2.3.3-4.5.6-6.8.6-4.4,2.1-8.5,4.9-12.1,3.8-4.6,8.8-6.9,14.7-7.4,5-.4,8.7,2,10.6,6.6,1.1,2.8,1.4,5.6.8,8.5,0,.3.2.6.3.9.2-.2.5-.3.7-.6.2-.2.2-.5.2-.8.5-2.1.5-4.2.1-6.3-.8-4.3-2.8-7.8-6.9-9.8-3-1.4-6.1-1.6-9.3-1-2.1.4-4.1,1-6.2,1.5.1,0,.3-.2.4-.3,4.6-2.6,9.6-4.1,15-4,5.4.1,9.7,3.5,11.1,8.7.6,2.3.7,4.7.1,7.1,0,.3.2.6.3.9.3-.2.6-.3.7-.6.2-.3.3-.8.4-1.2,1.7-6.9-1.6-15.8-11.2-17.6-4-.7-8-.2-11.9.8-7.8,2-13.9,6.3-17.9,13.4-4.1,7.4-5.1,15.3-4.5,23.6,0,.5,0,1-.3,1.4-.6,1.2-.8,2.5-.3,3.7,1.3,2.7,1,5.3-.4,8-1,1.9-1.8,3.9-2.7,5.9-.7,1.7,0,4.1,1.3,4.6,2.2.7,4.5,1.4,6.6-.3,0,0,.2,0,.3-.1.7-.4,1.3-.3,1.9,0,1.5.8,3,1.5,4.4,2.3,2.4,1.3,4.9,1.6,7.5,1,.8-.2,1.7-.4,2.5-.6Z"/>
    <path class="cls-2" d="M36,350.9c-.8.2-1.7.5-2.5.6-2.6.5-5.2.3-7.5-1-1.5-.8-3-1.5-4.4-2.3-.7-.4-1.3-.4-1.9,0,0,0-.2,0-.3.1-2.1,1.7-4.4,1-6.6.3-1.3-.4-2-2.9-1.3-4.6.8-2,1.7-3.9,2.7-5.9,1.3-2.6,1.6-5.2.4-8-.6-1.2-.3-2.5.3-3.7.2-.4.3-1,.3-1.4-.6-8.3.4-16.2,4.5-23.6,4-7.1,10.1-11.4,17.9-13.4,3.9-1,7.9-1.5,11.9-.8,9.6,1.8,12.9,10.7,11.2,17.6,0,.4-.2.8-.4,1.2-.1.2-.5.4-.7.6-.1-.3-.4-.7-.3-.9.6-2.4.5-4.7-.1-7.1-1.4-5.2-5.7-8.6-11.1-8.7-5.4-.1-10.3,1.4-15,4-.2,0-.3.2-.4.3,2.1-.5,4.1-1.1,6.2-1.5,3.2-.6,6.3-.5,9.3,1,4.1,2,6.1,5.5,6.9,9.8.4,2.1.4,4.2-.1,6.3,0,.3,0,.6-.2.8-.2.2-.5.4-.7.6,0-.3-.3-.6-.3-.9.6-2.9.3-5.8-.8-8.5-1.9-4.6-5.6-7.1-10.6-6.6-5.8.5-10.9,2.8-14.7,7.4-2.9,3.5-4.3,7.6-4.9,12.1-.3,2.2-.4,4.5-.6,6.8.1,0,.2.1.3.2.4-.4.7-.9,1.1-1.2.2-.2.6-.4.8-.4.2,0,.4.5.4.7,0,.7,0,1.3.1,2,0,.7.3,1,1,.9,6.1-.5,12.1.5,18,1.9,4,1,7.8,2.5,11.7,3.8,2.3.7,4.6,1.6,6.9,2.1,2.1.4,4.3.6,6.5.5,4.8,0,9.1,1.1,13.2,3.7,3.6,2.3,7.3,4.3,11,6.4,1.9,1.1,4.1,1.4,6.3,1.7,4.8.8,9.7,1.6,14.5,2.6,5,1,9.4,3.4,13.3,6.7,2,1.7,4.1,3.2,5.9,5,2.4,2.3,4.4,4.9,6.7,7.3,1.4,1.5,2.3,3.1,3,5,.8,2.4,1.8,4.8,2.7,7.2,0,.3.2.5.2.8,0,.2-.1.5-.3.6,0,0-.4,0-.5-.2-.2-.2-.3-.4-.4-.6-1.6-2.7-3.2-5.3-4.8-8-.2-.3-.4-.6-.7-1.1-.1.5-.3.8-.2,1,.6,2.8,1.1,5.6,1.9,8.4,1.2,4.1,3.9,7,7.8,8.9,1.7.8,3.4,1.5,5.1,2.1,2.5,1,4.3,2.7,5.3,5.2,1.4,3.7,2.9,7.3,4.4,11,.5,1.2,1.2,2.2,1.9,3.3.4.6.9,1.1,1.4,1.7,1.6,2.2,3.5,4,5.8,5.4,1.5.9,2.2,2.3,2,4.1-.1,1-.2,2.1-.3,3.1-.2,1.2-1,1.6-2,1-1.6-.9-2.9-2.2-3.4-4-.4-1.4-1.3-2.2-2.6-2.9-1-.5-2-1.4-2.6-2.4-3.3-4.8-6.5-9.6-9.7-14.5-1.7-2.7-4.1-4.5-7.2-5.3-4-1.1-8-2.3-12.1-3.4-1.8-.5-3.4-1.4-4.9-2.7-4.4-4.1-8.9-8.1-13.2-12.2-2.7-2.5-5.9-3.4-9.4-3.2-1.4,0-2.8.4-4.2.6-5.2.9-10.4.8-15.5-.7-5.8-1.7-11.7-3.4-17.5-5.1-1.5-.4-2.8-.2-4.1.8-2.4,1.9-4.8,3.9-7.4,5.7-1.8,1.2-3.8,1.9-5.7,2.9-1.6.8-3.3,1.5-4.9,2.3-1.4.7-2,2-1.4,3.4.4,1.1.9,2.1,1.3,3.2.5,1.1,1.3,1.6,2.6,1.6,1.6,0,3.2-.1,4.8,0,.8,0,1.7.6,2.3,1.2,1,1.1,1.7,2.4,2.6,3.6.1.2.1.6.2.8-.3,0-.6.2-.8.1-3.6-1.1-7.3-1-11-.6-1.7.2-3-.7-3.6-2.3-1.4-3.6-2.8-7.3-4.2-10.9-.6-1.6-.4-3,.8-4.4,2.6-3.1,5.2-6.1,7.8-9.2,1-1.1.9-1.7-.3-2.5-3.3-2.2-4.4-4.7-3.6-8.6.2-1.2,0-2.2-1-3-3.8-3.2-7.6-6.4-11.4-9.6-1.1-.9-3.6-.4-4.2,1-.2.4,0,1.2.2,1.5,1.1,1.1,2.3,2.1,3.6,2.9,1,.7,2.2,1,3.3,1.5.3.1.6.3.8.5v.3Z"/>
  </g>
  <polyline class="cls-7" points="85.5 337.7 79.9 371.6 89.1 339.7 87.1 373.7 93.1 342"/>
  <line class="cls-7" x1="82.1" y1="335.6" x2="44.5" y2="357.8"/>
  <polyline class="cls-7" points="97.2 344.1 99.2 374.8 100.5 344.1 103.6 374.2"/>
  <path class="cls-7" d="M44.7,356.9s-13.8,2.1-9.3,4.6,9.3-4.6,9.3-4.6Z"/>
  <path class="cls-7" d="M44.7,356.9s-9.3-10.3-8.9-5.2,8.9,5.2,8.9,5.2Z"/>
  <ellipse class="cls-5" cx="22.4" cy="336.3" rx="4.1" ry="2.6" transform="translate(-124.6 33) rotate(-22)"/>
</svg>