<?xml version="1.0" encoding="UTF-8"?>
<svg id="Capa_1" data-name="Capa 1" xmlns="http://www.w3.org/2000/svg" version="1.1" viewBox="0 0 339 521">
  <defs>
    <style>
      .cls-1 {
        fill: #000;
      }

      .cls-1, .cls-2, .cls-3, .cls-4 {
        stroke-width: 0px;
      }

      .cls-2 {
        fill: #c1272d;
      }

      .cls-3 {
        fill: #8c6239;
      }

      .cls-4 {
        fill: #fff;
      }
    </style>
  </defs>
  <g>
    <line class="cls-4" x1="175.2" y1="426.8" x2="175.2" y2="262"/>
    <rect class="cls-3" x="173.9" y="262" width="2.6" height="164.8"/>
  </g>
  <path class="cls-1" d="M92.2,458.7c-.1.2-.2.3-.3.5-.7.5-1,1.2-1,2-1.1,2.4-.6,4.5,1.2,6.4.5,1,1.1,1.9,2.1,2.6,1.4.8,2.8,1.5,4.4,1.7,3.7,0,7.2-.8,10.5-2.3.9-.4,1.7-1.2,2.8-1.2,4.2,0,7.6,2,10.8,4.4,2.4,1.8,2.4,3,.7,5.6-.6.9-1.5,1.6-2.1,2.5-2.4,4.1-6.5,6.9-8.6,11.3h0c-.6.7-1.6,1-2.2,1.8-.7.9-.9,2.1-1.4,3.2-.8,1.7.4,2.8,1.5,3.8.5.8.2,1.5-.5,1.9-1.2.7-1.7,2-2.2,3.2.8,2.4,1.9,3.1,3.9,2.6.6,0-.9-1.4.7-.9,2,.6,3.9-.4,4.9-2.3.2-.4.2-1.1.7-1.3,3.4-.9,5.2-4.6,8.9-5,.9-.7,1.7-1.6,2.6-2.3,3.6-3.5,6.9-7.2,10.2-11,.5-.6,1.1-1.1,1.7-1.5,2.9-1.9,4.9-4.9,8.1-6.4,3.9-1.7,7.9-3.1,12-4.2.3,0,.5,0,.8-.1,4,.8,7.8.2,11.7-.9.3,0,.6-.1.9-.2,1.2.5,2.3-.3,3.4-.3l.8-.2c7.5,0,14.3-3,21.3-5.3,2-.7,3.9-1.1,6-.7,2.7.5,3.5,1.5,3.3,4.2-.1,1.8-.3,3.5-.1,5.3.3,2.2,1,4.1,2.9,5.4.4.6.8,1.1,1.2,1.7.4.4.4,1,1,1.2,3.5.1,4.3-.5,5-3.9.2-.7.3-1.5.4-2.3-.4-1.8-.8-3.6-.4-5.5.3-1.3.6-2.1,2.3-2.1,1.7,0,3.3-.7,5,.3,1.1.5,2.4.1,3.5.8,2.1,1.6,1.6,3.7,1.5,5.9-.3,4.6-2.1,8.9-2.3,13.5-.1,2.1-.4,4.2-.1,6.3.4,2.4,2.1,4.2,4.4,4.7,2.1.4,4-.7,5.2-2.8,2-3.5,2.2-7.5,2.8-11.3.4-2.9.6-5.9,1.4-8.8.6-5,1.1-9.9-.2-14.9-.5-1.3-.6-2.7-1.9-3.6-2.2-.5-4.3-1.2-6.4-2.3-1.6-.9-2.6-2.1-3.1-3.8-1-2.8-.6-3.4,2.2-3.5,2.4,0,4.5-.7,6.3-2.3,3-2.5,3.3-5.3,1-8.4-.6-.8-1.6-1.3-1.9-2.3-1-1.4-2.7-1.3-4-2-3.7-2-6.7-4.7-9.7-7.6-4.7-3.2-9.6-6.1-15.2-7.4-3.1-.7-6.2-.7-9.3-.9-4.5,0-9,.8-13.3,1.8-12.1,2.8-24.1,6.3-35.8,10.4-5.9,2.1-11.7,4.6-17.4,7.1-1.3.6-2.7,1.1-4.1,1.2-2.8-.3-4.1-1.3-4.3-3.6,0-.9,0-1.7,1.3-2,1-.2,1.9-.8,1.4-2.1-1.6-1.2-.2-2,.5-2.7.8-.7,1.9-1,2.6-1.9,2.4-5.1,2.6-10.6,2.4-16,0-3-2.7-4-5-2.1-2.6,2.1-5.5,3.9-8.2,5.9-2.6,2-3.4,4.9-4.4,7.7-.2.6-.3,1.3-1,1.6-.7.4-1.3.9-1.6,1.6-1.4,3.8-4.4,6.2-7.8,8.2-.5.4-.9.8-1.5,1.1-3.9,3.1-6.2,7.4-8.6,11.7-.8,2.2-1.6,4.4-2.7,6.5-.5,1.4-1,2.8-1.2,4.3Z"/>
  <path class="cls-4" d="M108.8,455.9c2.6,0,5.1-2.3,5-5s-2.2-5-5-5-5.1,2.3-5,5,2.2,5,5,5h0Z"/>
  <path class="cls-3" d="M160.4,476.3c-1.3,0-2.3-1-2.3-2.3v-44.7c0-1.3,1-2.3,2.3-2.3s2.3,1,2.3,2.3v44.7c0,1.3-1,2.3-2.3,2.3Z"/>
  <path class="cls-3" d="M183.1,474.3s0,0,0,0c-1.3,0-2.3-1.1-2.3-2.4l.7-49.4c0-1.3,1.1-2.3,2.3-2.3s0,0,0,0c1.3,0,2.3,1.1,2.3,2.4l-.7,49.4c0,1.3-1.1,2.3-2.3,2.3Z"/>
  <path class="cls-3" d="M167.1,476.3c-1.3,0-2.3-1-2.3-2.3v-46c0-1.3,1-2.3,2.3-2.3s2.3,1,2.3,2.3v46c0,1.3-1,2.3-2.3,2.3Z"/>
  <path class="cls-3" d="M176.4,474.3s0,0,0,0c-1.3,0-2.3-1.1-2.3-2.4l.7-47.4c0-1.3,1.1-2.3,2.4-2.3,1.3,0,2.3,1.1,2.3,2.4l-.7,47.4c0,1.3-1.1,2.3-2.3,2.3Z"/>
  <path class="cls-3" d="M176.7,474.5c-1.1,0-2-.7-2.3-1.8l-9.7-44.3c-.3-1.3.5-2.5,1.8-2.8,1.3-.3,2.5.5,2.8,1.8l9.7,44.3c.3,1.3-.5,2.5-1.8,2.8-.2,0-.3,0-.5,0Z"/>
  <path class="cls-3" d="M124.4,476.9c-.9,0-1.8-.5-2.1-1.4-.5-1.2,0-2.6,1.2-3.1l36-15.3c1.2-.5,2.6,0,3.1,1.2.5,1.2,0,2.6-1.2,3.1l-36,15.3c-.3.1-.6.2-.9.2Z"/>
  <path class="cls-3" d="M158.8,472.3c-5.5,3.6-11.9,8.3-12.1,15.6s.5,3.5,1.8,4.6,3,1.4,4.7,1.1c3.3-.6,5-3.8,5.9-6.7s2.1-8,2.9-12.1-.3-2.2-1.4-2.5-2.2.3-2.5,1.4c-.9,3.5-1.3,7.2-1.6,10.8s-.6,7,2.1,9.2,2.9,1.6,4.5,1.2,2.8-1.7,3.3-3.2.4-3.3.2-4.9-.6-3.8-.9-5.7c-.5-3.1-1.3-6.6-3.9-8.6s-2-.8-2.8,0-.9,2.2,0,2.8c1.7,1.3,2.2,3.2,2.6,5.3s.4,2.6.6,3.9.5,2.7.5,4.1,0,2-.5,2.5-.2,0-.2,0c-.1,0-.6-.2-.8-.3-.7-.5-.9-1.4-.9-2.4s0-2.7.2-4c.3-3.2.6-6.4,1.5-9.6l-3.9-1.1c-.6,3-1.3,6-2,9s-.7,2.7-1.2,3.9-.9,2-1.7,2.6-.5.3-.8.4-.7.1-1,0-.2,0-.3-.1-.2-.2-.2-.4c-.2-.3-.2-.8-.2-1.2,0-2.3,1.3-4.6,2.7-6.3s4.7-4.2,7.3-5.9,1.3-1.8.7-2.7-1.8-1.3-2.7-.7h0Z"/>
  <g>
    <path class="cls-2" d="M242.4,121.4l-63.9,145.4c-1.2,2.9-5.6,2.9-6.8,0,0,0-63.9-145.4-63.9-145.4-16.3-37.2.6-80.5,37.7-96.9,61.6-26.8,123.4,36.2,96.9,96.9h0Z"/>
    <polygon class="cls-2" points="166.9 278.8 183.2 278.8 175 260.7 166.9 278.8"/>
  </g>
</svg>