<?xml version="1.0" encoding="UTF-8"?>
<svg id="Capa_1" data-name="Capa 1" xmlns="http://www.w3.org/2000/svg" version="1.1" viewBox="0 0 210.7 436.4">
  <defs>
    <style>
      .cls-1 {
        fill: #000;
      }

      .cls-1, .cls-2, .cls-3, .cls-4, .cls-5, .cls-6, .cls-7 {
        stroke-width: 0px;
      }

      .cls-2 {
        fill: #fffc2e;
      }

      .cls-3 {
        fill: #a7d1b2;
      }

      .cls-8 {
        stroke-linejoin: round;
        stroke-width: 2px;
      }

      .cls-8, .cls-4, .cls-9 {
        fill: none;
      }

      .cls-8, .cls-9 {
        stroke: #8c6239;
        stroke-linecap: round;
      }

      .cls-5 {
        fill: #e973ff;
      }

      .cls-6 {
        fill: #8c6239;
      }

      .cls-7 {
        fill: #fff;
      }

      .cls-9 {
        stroke-miterlimit: 10;
        stroke-width: 3px;
      }
    </style>
  </defs>
  <g>
    <line class="cls-4" x1="118" y1="361.3" x2="138.2" y2="121.8"/>
    <rect class="cls-6" x="7.9" y="240.2" width="240.4" height="2.6" transform="translate(-123.3 348.9) rotate(-85.2)"/>
  </g>
  <g>
    <path class="cls-2" d="M118.5,65.8l18.7,54.6c.4,1.1,2,1.3,2.4.2l27.6-50.7c7-12.9,2.2-29.1-10.7-36.2-21.5-11.6-45.8,9.3-38,32.1h0Z"/>
    <polygon class="cls-2" points="141.1 125 135.2 124.5 138.7 118.2 141.1 125"/>
  </g>
  <g>
    <line class="cls-4" x1="118.1" y1="361.2" x2="115.8" y2="199.3"/>
    <rect class="cls-6" x="116.1" y="199.2" width="1.8" height="161.9" transform="translate(-3.9 1.7) rotate(-.8)"/>
  </g>
  <g>
    <path class="cls-3" d="M98.9,163.1l16.1,35.3c.3.7,1.4.7,1.7,0l15.2-35.8c3.9-9.1-.4-19.7-9.6-23.6-15.2-6.4-30.1,9.3-23.4,24h0Z"/>
    <polygon class="cls-3" points="118 201.3 114 201.4 115.9 196.9 118 201.3"/>
  </g>
  <path class="cls-9" d="M73.4,321"/>
  <path class="cls-4" d="M91.4,353.4"/>
  <g>
    <line class="cls-4" x1="77" y1="363.8" x2="61.9" y2="204.8"/>
    <rect class="cls-6" x="68" y="204.4" width="2.6" height="159.7" transform="translate(-26.4 7.8) rotate(-5.4)"/>
  </g>
  <g>
    <path class="cls-5" d="M32.6,153.2l28.1,50.4c.6,1,2.1.9,2.4-.2l18.1-54.8c4.6-14-3-29.1-17-33.7-23.2-7.6-43.4,17.3-31.7,38.3h.1Z"/>
    <polygon class="cls-5" points="65.3 207.5 59.4 208.1 61.7 201.2 65.3 207.5"/>
  </g>
  <path class="cls-8" d="M44.7,356.9s-13.8,2.1-9.3,4.6,9.3-4.6,9.3-4.6Z"/>
  <path class="cls-8" d="M44.7,356.9s-9.3-10.3-8.9-5.2,8.9,5.2,8.9,5.2Z"/>
  <path class="cls-1" d="M47.4,368.3c-1.7-.8-3.3-1.5-4.9-2.2h-.6c-3.8,1.2-7.4.2-11-1.1-1.4-.5-2.9-.8-4.2-1.6-1.3-.8-2.4-1.9-3.6-2.9-.4-.3-.9-.6-1.4-.6-3.7-.3-6.5-3-7.2-6.7-.1-.6-.3-1.3-.6-1.9-.9-1.9-.1-3.8,1.8-3.7,5.1.1,8.3-2.9,11.4-6.4,1.4-1.5,2.7-3.3,4.3-4.3,1.7-1,3.8-1.5,5.8-1.9,4.8-1,9.7-.7,14.4.4,5.8,1.3,11.5.9,17.2-.3,12.3-2.7,24.5-5.4,36.8-8.1,6.5-1.4,13-2.4,19.6-2.3,10.4.1,19.6,3.7,28.1,9.6,4.5,3.1,8.2,7.2,12.1,11.1,2.3,2.3,4.7,4.5,8.1,4.9,2.2.2,4.4.2,6.6.3,4.6.2,9.1.6,13.5,2.1,5.8,2,10,5.9,12.5,11.5.3.7.5,1.4.6,2.2.1,1.2-.4,1.5-1.5,1.1-.9-.4-1.7-1-2.7-1.6-1.7,1.6-3.7,1-5.7.5-3.6-.8-6.9-2.5-10-4.7-.2,1.2-.9,1.3-1.7.9-2.7-1.3-5.4-2.7-8.1-4.1-.3-.2-.7-.4-1.2-.7,1.3,1.7,2.5,3.2,3.6,4.7.4.6.8,1.3,1,2,.3.7.2,1.3-1,1.2,3.4,4.4,3,9.5,3.6,14.4.4,3.4.9,6.6,3.9,8.8.4.3.6,1,.8,1.6-.6.2-1.3.6-1.9.7-3.4.5-6-1.3-8.3-3.4-6.4-6-10-13.3-10.5-22.1-.2-2.8-.4-5.6-.8-8.3-.5-3.2-2.2-4.6-5.5-4.4-4.9.2-9.5,1.6-13.9,3.4-6.3,2.6-12.6,5.3-18.7,8.3-15.5,7.5-31.7,11.1-48.9,9.8-1.2,0-2.3-.2-3.5-.3h-.2c.5,2.6,2.1,4.4,4.1,6,.7.5,1.5.9,2,1.6.4.4.8,1.2.7,1.7,0,.4-.9.7-1.4,1,0,0-.3,0-.5.1,1.5,1.1,2.9,2.2,4.3,3.3,0,.2,0,.3-.2.5-.5,0-1,.2-1.6.3.8.5,1.6.9,2.2,1.5s1.2,1.4,1.2,2.2-1.1,1.1-1.8,1.2c-3.2.8-6.4.7-9.6-.2-8.3-2.2-15.9-5.9-22.4-11.6-1.1-.9-2.1-2-2.9-3.1-2.5-3.1-3.6-6.6-1.9-10.4h-.3Z"/>
  <circle class="cls-7" cx="36" cy="346" r="4.3"/>
  <path class="cls-8" d="M72.9,334.3l6.2,40.2-3.6-40.7,8.9,40.7-3.9-41.8s27.5,41,40.3,35.2l-2-42.8"/>
  <polyline class="cls-8" points="122.4 325 123.7 366.6 125.1 324.8"/>
  <path class="cls-8" d="M123.7,366.6s-4.3,8.8,4.8,8.7-4.8-8.7-4.8-8.7Z"/>
  <path class="cls-8" d="M116.1,373.2c1.6,9,7.8-6.1,7.8-6.1,0,0-9.4-2.9-7.8,6.1"/>
</svg>