<?xml version="1.0" encoding="UTF-8"?>
<svg id="Capa_1" data-name="Capa 1" xmlns="http://www.w3.org/2000/svg" version="1.1" viewBox="0 0 244.6 516.8">
  <defs>
    <style>
      .cls-1 {
        fill: #000;
      }

      .cls-1, .cls-2, .cls-3, .cls-4, .cls-5 {
        stroke-width: 0px;
      }

      .cls-6 {
        stroke: #8c6239;
        stroke-linecap: round;
        stroke-linejoin: round;
        stroke-width: 2px;
      }

      .cls-6, .cls-2 {
        fill: none;
      }

      .cls-3 {
        fill: #63637c;
      }

      .cls-4 {
        fill: #8c6239;
      }

      .cls-5 {
        fill: #fff;
      }
    </style>
  </defs>
  <g>
    <line class="cls-2" x1="121.1" y1="457.5" x2="121.1" y2="121.5"/>
    <rect class="cls-4" x="119.6" y="121.5" width="3.2" height="336"/>
  </g>
  <g>
    <path class="cls-3" d="M77.8,72.5l41.4,94c.8,1.8,3.7,1.9,4.4,0l41.4-94c10.6-24-.4-52-24.4-62.6-39.8-17.4-79.8,23.4-62.6,62.6h-.1Z"/>
    <polygon class="cls-3" points="126.7 174.2 116.1 174.2 121.4 162.5 126.7 174.2"/>
  </g>
  <path class="cls-1" d="M36,481.5c-2.6,1.1-5,2.2-7.5,3.2-4.1,1.7-8.2,3.4-12.7,3.6-4.1.2-7.7-1.3-11.1-3.5-.8-.5-1.3-1.2-1.1-2.3,0-.2-.1-.5-.3-.7-1-1-.7-1.9,0-2.8,1.3-1.5,3.5-1.6,5.2-.5,1.4.8,2.8,1.8,4.3,2.2,2.3.6,4.5-.2,6.4-1.4,8.5-5,16-11.3,22.3-18.9,1.9-2.3,2.8-5.1,3.2-8,.2-1.7.5-3.4.9-5.1.2-.8,0-1.4-.7-1.8-2.1-1-4.2-1.9-6.3-3-4.6-2.5-9.4-2.7-14.4-1.4-3.1.8-6.1-1.2-7.1-4.2-.2-.7-.7-1.4-1.3-2-1.9-2-1.9-3.9.4-5.5,1.9-1.3,3.2-3,3.9-5.2.9-3.1,3-5.1,5.7-6.7,1.5-.9,3-1.9,4.6-2.7,2.2-1.1,2.8-2.9,2.8-5.1,0-1.7-.3-3.3-.5-5,0-.8-.2-1.7-.4-2.8.8.3,1.4.4,1.8.7,1.9,1.7,4.2,3.2,5.6,5.2,4.9,7.6,12.2,11.1,20.5,13.6,7.6,2.2,15,1.3,22.5-.5,7.1-1.7,14.3-3.2,21.7-3.8,9.4-.7,18.8-.8,28,1.7,4.7,1.3,9.1,3.3,13.7,5.1,3.6,1.4,7.2,2.7,11.1,2.8,2,0,4.2,0,6.1-.7,5.1-1.9,10.3-1.6,15.5-.8,4.2.7,8.4,1.3,12.6,1.9,6,.8,11.5-1,16.5-4,4.7-2.9,9.1-6,13.6-9.3,2.5-1.9,3.6-4.8,4.7-7.7.4-1,.9-2,1.5-2.9,1.2-1.8,3.2-2.5,5-1.9,1.6.5,3.1,2.5,2.6,4.4-.8,3.1-1.8,6.2-3.3,9.1-3.2,6.1-8.4,10.3-14.2,13.8-8.4,5-17.5,8.4-27.3,9.4-2.9.3-5.8-.2-8.7-.3-.4,0-.8-.1-1.4-.2,1.3,1.4,2.6,2.5,3.6,3.9,3.7,4.6,7.3,9.3,10.9,14,1.6,2,3.7,3,6.1,3.4,4.1.7,8.2,1.5,12.3.5,1.6-.4,2.9.2,3.9,1.6,5.4,7.8,10.8,15.6,16.1,23.4,1.4,2,2.4,4.2,3.4,6.5,1.4,3.1-.2,5.3-3.5,5.3-2.9,0-3.3-.4-4-3.3-.1-.6-.5-1.2-.9-1.8-3.2-4.1-6.5-8.1-9.7-12.2-.3-.3-.6-.7-.9-.9-2.4-.9-4.9-2-7.8-1.6,1.3,1.8,2.6,3.5,3.7,5.3,1.9,3.2,3.7,6.4,5.6,9.7.2.4.3.8.4,1.2.6,2.4-.9,4.4-3.4,4.4-1,0-2,0-2.9-.4-.6-.3-1.4-1.1-1.4-1.7,0-2-1.3-3.2-2.4-4.6-2.6-3.3-5.3-6.7-7.9-10-2-2.5-6.3-3.7-9.3-2.8-3.2.9-6.5,2.1-9.8,2.4-11.5,1-22.5-.5-32.4-6.8-2.6-1.7-5-3.7-7.3-5.7-3-2.7-6.6-3.8-10.5-3.8-2.1,0-4.3,1-6.4,1.5-10.3,2.3-20.6,4.7-30.9,6.8-5,1-10.1.6-15.1.2-1.6-.1-3.3,0-4.9.4-7.5,2.1-14.1,5.9-20.6,10.1-6.3,4.1-12.6,8.3-19,12.3-3,1.9-6.3,3.4-10,3.7-3.4.2-6.7-.4-9.7-2-.6-.3-.9-1.2-1.3-1.9-.2-.3-.3-.6-.5-.8-.9-.6-1-1.5-.5-2.4,1-1.9,3.5-2.7,5.5-1.5,3.4,1.9,6.5,1.4,9.5-.7.4-.3.9-.5,1.3-.9,2.3-2.3,4.5-4.7,6.9-7.1Z"/>
  <circle class="cls-5" cx="27.7" cy="425.3" r="4.3"/>
  <polyline class="cls-6" points="108 417.2 108 469 112.4 417 116.4 467.1"/>
  <polyline class="cls-6" points="126.2 417.9 122.7 465.7 130.7 418.8 128.6 464.2"/>
  <line class="cls-6" x1="99.9" y1="417.9" x2="103.4" y2="470"/>
  <path class="cls-6" d="M103.4,470s-15.3,8.9-7.8,11.5,7.8-11.5,7.8-11.5Z"/>
  <path class="cls-6" d="M103.4,470s2.1,17.6,7.5,11.7c5.3-5.9-7.5-11.7-7.5-11.7Z"/>
</svg>