<?xml version="1.0" encoding="UTF-8"?>
<svg id="Capa_1" data-name="Capa 1" xmlns="http://www.w3.org/2000/svg" version="1.1" viewBox="0 0 210.7 402.3">
  <defs>
    <style>
      .cls-1 {
        fill: #000;
      }

      .cls-1, .cls-2, .cls-3, .cls-4, .cls-5 {
        stroke-width: 0px;
      }

      .cls-2 {
        fill: #fffc2e;
      }

      .cls-6 {
        stroke-linejoin: round;
        stroke-width: 2px;
      }

      .cls-6, .cls-3, .cls-7 {
        fill: none;
      }

      .cls-6, .cls-7 {
        stroke: #8c6239;
        stroke-linecap: round;
      }

      .cls-4 {
        fill: #8c6239;
      }

      .cls-5 {
        fill: #fff;
      }

      .cls-7 {
        stroke-miterlimit: 10;
        stroke-width: 3px;
      }
    </style>
  </defs>
  <g>
    <line class="cls-3" x1="103.2" y1="343" x2="103.2" y2="118.6"/>
    <rect class="cls-4" x="101.6" y="118.6" width="3.2" height="224.4"/>
  </g>
  <g>
    <path class="cls-2" d="M59.9,73.8l41.4,94c.8,1.8,3.7,1.9,4.4,0l41.4-94c10.6-24-.4-52-24.4-62.6-39.8-17.4-79.8,23.4-62.6,62.6h-.1Z"/>
    <polygon class="cls-2" points="108.7 175.5 98.2 175.5 103.4 163.8 108.7 175.5"/>
  </g>
  <path class="cls-7" d="M73.4,321"/>
  <path class="cls-3" d="M91.4,353.4"/>
  <circle class="cls-5" cx="30.6" cy="337.7" r="3.4"/>
  <path class="cls-6" d="M58.4,354.8s-13.8,2.1-9.3,4.6,9.3-4.6,9.3-4.6Z"/>
  <path class="cls-6" d="M58.4,354.8s-2,13.8,1.7,10.2-1.7-10.2-1.7-10.2Z"/>
  <ellipse class="cls-5" cx="22.4" cy="336.3" rx="4.1" ry="2.6" transform="translate(-124.6 33) rotate(-22)"/>
  <path class="cls-1" d="M194.7,340.1c.2,3.4,0,6.7-2.2,9.5-3.2,4-6.4,4.2-9.1,0-1.8-2.8-4-3.1-6.8-2.8-8.4.8-16.8,1.6-25.2,2.7-1.2.2-2.7,1.3-3.4,2.5-2.9,5.1-4.8,7-8.8,7.5.3-2.2.6-4.3,1-7-4.1,2.4-7.9,4.4-11.5,6.7-.6.4-.8,1.7-1.1,2.6-1.1,3.2-2,6.5-3.3,9.7-.4,1-1.7,1.5-3,2.6-.8-1.8-1.6-3.1-2-4.6-.7-2.5-2.3-3.2-4.6-2.4-3.3,1.1-6.5,2.3-9.7,3.7-1.2.6-2.2,1.8-3,2.9-2.4,3.3-4.6,6.9-9.5,7.9-.2-1.7-.7-3.4-.5-5.1.2-2.6-.6-4-3.1-4.7-1.2-.3-2.4-.7-3.4-1.3-4.3-2.3-8.2-2.9-11.9,1.4-1.1,1.2-3.4,1.5-5.2,2.2-1.5-4.1,2.1-8.8-2.3-12.1-3.3-2.5-6.1-5.8-9.2-8.6-4-3.7-7.9-.5-12.1.6,1.1-2.5,2-4.6,2.9-6.7-.3-.2-.6-.4-.9-.5-2.5,1.2-4.9,2.3-7.7,3.6-.1-3.4,4.5-5.6,1.1-9.5-2.2,1.5-4.5,3.1-7.6,5.3.7-2.9,1.1-4.8,1.6-6.9-4.9-1.4-10.1,2.3-14.6-1.1-.6-.5-1.4-1.3-2-2.5-.6-1.1-.9-2.1-1-2.8-.4-2.2-1.5-9.3,2.6-16.3,4.5-7.9,12.9-11.3,19.3-11.8,2.2-.2,4-.3,5.9.3,5.7,1.8,12,2.9,16.9,6.1,6.6,4.2,14.3,7.2,19,14.1.5.8,1.7,1.2,2.7,1.6,4.1,1.6,8.1,3.2,10.4,7.5,2.4-2.4,5.1-1.5,7.3-.2,1.9,1.1,3.1.6,4.8-.2,4.4-2,8.4-5.2,13.7-4.4.6,0,1.3-.8,1.9-1.2,6.2-3.8,12.8-6.7,20.1-6,3.3.3,6.3.2,9.5-.6,5.6-1.3,11.2-1.1,16.4,2.1.4.2,1,.2,1.5,0,7.9-1.7,13.5,2.1,18.4,7.7,1.8,2,4,3.7,6.1,5.6l1.7,2.9Z"/>
  <circle class="cls-5" cx="32" cy="321" r="4.3"/>
  <polyline class="cls-6" points="82.8 326.8 58.4 354.8 103.2 334.6 136 354.8 120.9 328.3"/>
</svg>