<?xml version="1.0" encoding="UTF-8"?>
<svg id="Capa_1" data-name="Capa 1" xmlns="http://www.w3.org/2000/svg" version="1.1" viewBox="0 0 244.6 516.8">
  <defs>
    <style>
      .cls-1 {
        fill: #0a0;
      }

      .cls-1, .cls-2, .cls-3 {
        stroke-width: 0px;
      }

      .cls-2 {
        fill: #000;
      }

      .cls-3 {
        fill: #fff;
      }

      .cls-4 {
        fill: none;
        stroke: #8c6239;
        stroke-miterlimit: 10;
        stroke-width: 4px;
      }
    </style>
  </defs>
  <g>
    <path class="cls-1" d="M69.1,152.2l49.6,112.7c1,2.2,4.4,2.3,5.3,0l49.6-112.7c12.6-28.7-.5-62.4-29.2-75-47.7-20.8-95.6,28.1-75,75h-.2Z"/>
    <polygon class="cls-1" points="127.7 274.2 115 274.2 121.4 260.1 127.7 274.2"/>
  </g>
  <path class="cls-2" d="M83.6,163c.8-3.8,2.7-7,6-9.1,2-1.3,4.3-2.1,6.5-3.2,1.4-.7,2.7-1.3,4-2,.7-.4,1.1-.9.7-1.9-.6-1.6-.9-3.4-1.4-5.2-.7.5-1.5,1-1.9,1.3.3,1.1.7,2,.5,2.7-.4,1.2-2.3,1.1-2.6,0-.2-.7-.3-1.5-.4-2.7-.6.7-.9,1.1-1.2,1.4-.5.4-1.1.8-1.7.9-.3,0-1-.8-.9-1.1.2-.6.7-1.2,1.1-1.7.3-.3.8-.5,1.1-.8,0-.2-.2-.3-.2-.4-.4,0-.8.2-1.1.1-.5-.2-1.1-.4-1.4-.8-.2-.3,0-1.2.3-1.3.5-.2,1.1-.1,1.6,0,.4,0,.7.3,1,.5-.4-.9-1-1.6-.9-2.3.1-1.1,1.5-1.1,2.1,0,.2.4.4.8.7,1.2,0-1.1-1.1-2.4.7-2.8,1.2-.3,1.2.8,1.3,1.8.5-.7,1-1.2,1.4-1.8.9-1.2,1.6-1.4,2.9-.5,2,1.4,3.1,3.4,3.8,5.6.3.8.4,1.5.7,2.6.5-.6.9-.9,1.2-1.4.6-.9,1.2-1.8,1.8-2.7,2.1-3.6,5.4-4.7,9.4-4.3.8.1,1.6.2,2.4.3.7,0,.9-.1.7-.9-.3-.9-.4-1.8-.7-2.7-.2-.5-.4-1-.7-1.5-.5.3-.9.5-1.2.6-.9.4-1.5,0-1.8-.9-.3-.8,0-1.5.9-1.7.4-.2.9-.1,1.3-.3.3-.1.8-.2.8-.5.1-.3-.2-.6-.3-.9-.1-.2-.5-.3-.5-.5-.2-.6-.5-1.3-.4-1.8,0-.3,1-.8,1.2-.7.6.2,1.1.8,1.4,1.3.3.5.3,1.1.5,1.7h.5c.1-.4.2-.8.3-1.1.3-.6.6-1.2,1-1.6s1.2.3,1.2.5c0,.6-.2,1.2-.4,1.8-.1.3-.4.5-.5.8,1-.4,1.5-1.9,2.8-.9.3.2.5.9.4,1.1-.7.7-1.4,1.2-2.2,1.9,0,0,.3.4.6.4.8,0,1.5.1,1.7,1,0,.4-.3,1.1-.4,1.1-.7,0-1.4-.3-2.1-.4-.1,0-.2,0-.3-.1,0,.2-.2.5-.2.6.9,1.6,1.7,3.1,2.8,4.6.6.8,1.3.2,1.5-.4,1.2-3.5,4-3.9,7-3.8,2.3.2,4.6.8,6.8,1.5.9.3,1.5,1.3,2.3,2v1.9c-2.2,3.3-5.2,5.6-8.8,7-2,.8-4,1-5.5-1-.5-.7-1-.5-1.5,0-2,1.8-3,4.1-4,6.6-.2.5,0,1,.1,1.5h.4c0-.4-.2-.8,0-1,.4-.5,1-.8,1.4-1.1.3.5.5.9.7,1.4,0,.2-.1.4,0,.5,0,.3.2.6.3.8.2-.1.4-.3.6-.4.6-.2,1.1-.5,1.6-.5.3,0,.8.8.7,1-.3.5-.8.9-1.2,1.3-.2.2-.6.2-1.1.4.8.4,1.5.5,1.7.9.2.4-.1,1-.2,1.5-1.3-.4-1.4,2.2-2.9,1.2-.4-.3-.5-.9-.9-1.6-.1.5-.1.8-.3.9-.5.3-1,.5-1.5.8-.1-.5-.5-1.2-.3-1.5.9-1.4,0-1.9-1-2.3-.5-.2-.9-.4-1.4-.6-1.1-.5-1.3-1.2-.9-2.3.4-1.3.7-2.6.9-4-2.5,2.2-5.2,1.3-7.8.6-1.2-.4-2.1,0-2.7,1.2.9.4,1.6.8,2.4,1.2,2.8,1.4,3.2,3,1.4,5.5-.7.9-1.4,1.8-.4,3,.3,0,.7-.2,1-.2.8,0,1.3.5,1.3,1.4s-.6,1.2-1.3,1.1c-.3,0-.6-.1-.8,0-.4,0-.7.2-1.1.3.1.3.3.6.3,1,.1.6.3,1.2.1,1.7-.1.3-1,.7-1.2.6-.5-.3-.9-.8-1.2-1.4-.2-.4-.2-.9-.2-1.1-.8.5-1.5,1-2.3,1.4-.1,0-.8-.7-.7-.8.3-.7.8-1.4,1.2-2-.7.1-1.9,1.2-2.2-.4-.4-2,1.6-1.1,2.5-1.7-.8-.8-2.8-.9-1.5-2.6.5-.6,1.3-.3,2.5,1.2.2-.5.4-1,.5-1.4.2-1,0-1.5-1.2-1.6-1.5-.2-2.9-.7-4.3-1-.4-.1-.9-.3-1.3-.2-3.7,1.1-7.5,2.2-11.1,3.5-2.6.9-5.2,2-6.6,4.7-2.1,4.1,0,9.7,4.2,10.8.9.3,2,0,2.9.2.5.1,1,.5,1.5.8-.4.4-.7,1.1-1.1,1.2-4.6,1.1-8-.4-10.4-5.3-.5-1-.7-2.1-1-3.1v-2.7h0Z"/>
  <circle class="cls-3" cx="138.1" cy="135" r="1.4"/>
  <circle class="cls-3" cx="139.2" cy="141" r="1.4"/>
  <line class="cls-4" x1="121.3" y1="274.2" x2="122.3" y2="482"/>
</svg>