<?xml version="1.0" encoding="UTF-8"?>
<svg id="Capa_1" data-name="Capa 1" xmlns="http://www.w3.org/2000/svg" version="1.1" viewBox="0 0 192 497">
  <defs>
    <style>
      .cls-1 {
        fill: #000;
      }

      .cls-1, .cls-2, .cls-3, .cls-4, .cls-5 {
        stroke-width: 0px;
      }

      .cls-2 {
        fill: #cc3995;
      }

      .cls-6 {
        stroke-linejoin: round;
        stroke-width: 2px;
      }

      .cls-6, .cls-3, .cls-7 {
        fill: none;
      }

      .cls-6, .cls-7 {
        stroke: #8c6239;
        stroke-linecap: round;
      }

      .cls-4 {
        fill: #8c6239;
      }

      .cls-5 {
        fill: #fff;
      }

      .cls-7 {
        stroke-miterlimit: 10;
        stroke-width: 3px;
      }
    </style>
  </defs>
  <g>
    <line class="cls-3" x1="96.1" y1="422.5" x2="96.1" y2="182.1"/>
    <rect class="cls-4" x="94.8" y="182.1" width="2.6" height="240.4"/>
  </g>
  <g>
    <path class="cls-2" d="M138.8,85l-40.7,92.5c-.8,1.8-3.6,1.9-4.3,0l-40.7-92.5c-10.4-23.6.4-51.2,24-61.6,39.2-17.1,78.5,23,61.6,61.6h0Z"/>
    <polygon class="cls-2" points="90.7 185.1 101.1 185.1 95.9 173.6 90.7 185.1"/>
  </g>
  <path class="cls-7" d="M73.4,381.6"/>
  <circle class="cls-5" cx="76.4" cy="464.5" r="2.8"/>
  <g>
    <path class="cls-5" d="M158.7,484.7c1.3-.5,2.1-1.5,2.3-3.1,0-.1,0-.2.1-.3.8-1.2,1.6-2.5,2.5-3.7,1-1.4,1.4-3,1.5-4.7,0-2.1,0-4.2.2-6.3.2-1.6.3-3.2,0-4.8-.3-1.6-.5-3.1-.4-4.7,0-.9,0-1.9-.3-2.8-.2-1.1-1.1-1.7-2.2-1.8-.8,0-1.6,0-2.3.2-1.9.5-3.8,1.1-5.7,1.5-1.3.3-2.6.4-3.9.4-1.1,0-1.8-.7-2.3-1.7.2,0,.3-.1.4-.2,3.1-.8,6.2-1.6,9.3-2.2,1.9-.4,3.8-.7,5.5-1.6,1.2-.6,2.5-1.1,3.9-.6.2,0,.4,0,.6,0,1.2-.2,1.9.7,2.4,1.4.7,1.1,1.2,2.4,1.8,3.6.4.7.3,1.4-.3,2.1-.8,1-.7,2.1.1,2.8,1.2,1.1,2.6,2,3.9,3,.3.2.7.2.7-.3,0-.7.3-1.1.7-1.5.2-.2.2-.4.3-.6.2-.6,1.1-1,.9-1.8,0,0,0,0,.1,0,1-.7,1.4-1.7,1.5-2.9,0-.4.1-.6.5-.8.4-.2.7-.4.4-.9,0-.1,0-.4.2-.6.5-.8.5-1.2-.1-2-.1-.2-.3-.3-.4-.5-2.4-2.6-4.8-5.2-6.6-8.3-.8-1.4-2.2-2-3.8-1.8-1.1.1-2.3.3-3.4.6-2,.4-4,.9-6,.4-3.9-1.1-7.3-3.1-10-6.2-1.1-1.3-2.4-2.3-3.9-3.1-1.2-.6-2.4-1.4-3.6-2-.5-.3-.6-.7-.3-1.1.5-.8.9-1.7,1.4-2.5,2.1-3.4,3.7-7,4.2-11,.4-3.1.5-6.2,0-9.3-.7-3.8-2.9-6.7-5.5-9.4-.8-.9-1.7-1.6-2.9-1.9-.5-.1-1.1-.2-1.4.3-.4.5-.3,1,0,1.5.3.7.6,1.3,1,2,.9,1.6,1.9,3.2,2.3,5,1.4,6.5.6,12.6-3.1,18.2-1.2,1.8-3.6,2.9-5.7,2.4-3.7-.7-7.3-1.5-11-2.2-6.8-1.3-13.7-2.6-20.5-4-3-.6-6-.9-8.8-2.1-2.8-1.3-5.7-2.4-8.4-3.7-3.7-1.8-7.3-3.7-10.9-5.7-1.9-1-3.7-2.2-5.8-2.4-1.8-.2-2.8-1-3.9-2.3-3.2-3.7-6.4-7.4-10.3-10.3-.7-.5-.9-1-.7-1.8.2-1-.2-1.8-1-2.3-.6-.4-1.2-.7-1.8-1-1.5-.7-3.1-1.3-4.6-2.2-.9-.5-1.7-.9-2.7-1-1.4-.1-2.7,0-4.1-.2-1.3-.2-2.6,0-3.8.5-3.6,1.4-6.9,3.4-9.6,6.2-1,.9-1.8,1.9-2.1,3.3,0,.3-.3.6-.5.9-1,1.6-1.2,3.2-.6,5,.2.4.3.9.4,1.4.2.9.2,1.9-.4,2.6-2.1,2.6-4.2,5.1-6.2,7.7-.5.6-1,1-1.4,1.6-.5.6-.8,1.3-.6,2.2.4,1.2,2.2,2.7,3.5,2.9.3,0,.7.2,1,.4,1.1.8,2.2,1.4,3.5,1.4,1.2,0,2.4,0,3.7.2,1.6.2,3.1-.2,4.4-1.1.9-.6,1.9-1,3-1,1.3,0,2.4-.5,3.2-1.5.3-.4.7-.8,1-1.3.4-.5,1-.9,1.7-1,.8,0,1.6,0,2.4,0,.3,0,.6.2.9.3.7.4,1.5.9,2.2,1.4.3.2.6.5.8.8.3.6.4,1.2.7,1.8.1.3,0,.5-.2.8-.3.3-.5.7-.6,1.1-.2,1.6.4,3.1.6,4.7,0,.2.1.3.3.4.3.3.3.6.2.9-.5,1.1-.4,2.2,0,3.3.4,1.2.8,2.4,1.2,3.7-1.9,1-3.4,2.4-4.4,4.3-1.2,2.3-2.2,4.7-3.3,7-.4.9-.8,1.8-1.5,2.6-1.6,1.7-3.1,3.4-4.4,5.3-.9,1.3-1.4,2.9-2,4.5-.9,2.4-1.3,4.8-1,7.4,0,.3.1.6.2.9,0,0,.3.1.5,0,.1,0,.2-.3.2-.4,2.2,1,4.1.3,5.8-1.1.8-.7,1.6-1.4,2.5-2,1-.7,1.9-1.6,2.5-2.6,1.7-2.6,3.8-4.9,3.6-8.3.3,0,.6-.1.8-.1,1.7,0,3.5-.2,5.2-.2,3.3,0,6.6,0,9.9-.5.2,0,.3,0,.5.1,1.4.6,2.7,1.3,4.1,1.7,2.3.6,4.5,1.3,6.9,1.6,3.1.3,6.2.4,9.3.4,5.9,0,11.7.5,17.5,1.3,5.6.8,11.2,1.1,16.8.7.2,0,.4,0,.6.1.9.4,1.8.8,2.7,1.3,2,.9,3.9,1.9,5.4,3.5,1.2,1.3,2.1,2.9,3.1,4.3,1,1.4,2.1,2.7,3.7,3.4,1.8.8,3.6,1.5,5.4,2.2,1.7.7,3.4.7,5.1,0,1.2-.5,2.5-.9,3.7-1.2,2-.5,3.9-1.1,5.5-2.6.6-.6,1.4-1,2.3-.9.5,0,.9,0,1.4,0,1.6-.2,3.1,1.3,2.9,3-.4,2.2-.6,4.4-.8,6.5-.2,1.6-.6,3-1.5,4.3-.2.3-.3.6-.5.9-.4.7-.6,1.4-.4,2.1.3,1.1.5,2.2.9,3.3.1.4.2,1.1,1,.9,0,0,.2.2.3.3.3.2.6.8,1.1.5.2-.2,0-.8,0-1.3Z"/>
    <path class="cls-1" d="M158.7,484.7c0,.5.2,1.2,0,1.3-.4.4-.7-.3-1.1-.5-.1,0-.2-.3-.3-.3-.8.2-.9-.5-1-.9-.3-1.1-.6-2.2-.9-3.3-.2-.7,0-1.5.4-2.1.2-.3.3-.6.5-.9.9-1.3,1.3-2.8,1.5-4.3.2-2.2.4-4.4.8-6.5.3-1.7-1.3-3.2-2.9-3-.5,0-.9,0-1.4,0-.9,0-1.7.3-2.3.9-1.5,1.5-3.5,2.1-5.5,2.6-1.3.3-2.5.8-3.7,1.2-1.7.7-3.4.7-5.1,0-1.8-.8-3.6-1.5-5.4-2.2-1.6-.7-2.7-2-3.7-3.4-1-1.5-1.9-3-3.1-4.3-1.4-1.6-3.4-2.6-5.4-3.5-.9-.4-1.8-.9-2.7-1.3-.2,0-.4-.1-.6-.1-5.6.5-11.2,0-16.8-.7-5.8-.8-11.6-1.3-17.5-1.3-3.1,0-6.2,0-9.3-.4-2.3-.3-4.6-.9-6.9-1.6-1.4-.4-2.7-1.1-4.1-1.7-.2,0-.3-.1-.5-.1-3.3.5-6.6.5-9.9.5-1.7,0-3.5.1-5.2.2-.3,0-.5,0-.8.1.2,3.4-2,5.8-3.6,8.3-.7,1-1.5,1.9-2.5,2.6-.9.6-1.7,1.3-2.5,2-1.7,1.4-3.6,2.1-5.8,1.1,0,.1-.1.3-.2.4-.1,0-.4,0-.5,0-.1-.3-.2-.6-.2-.9-.3-2.5,0-5,1-7.4.6-1.5,1.1-3.1,2-4.5,1.3-1.9,2.8-3.7,4.4-5.3.7-.8,1.1-1.7,1.5-2.6,1.1-2.4,2.1-4.7,3.3-7,1-1.9,2.5-3.3,4.4-4.3-.4-1.2-.7-2.5-1.2-3.7-.4-1.1-.4-2.2,0-3.3.1-.3.2-.7-.2-.9-.1-.1-.2-.3-.3-.4-.2-1.6-.8-3.1-.6-4.7,0-.4.3-.8.6-1.1.2-.3.3-.5.2-.8-.2-.6-.4-1.3-.7-1.8-.2-.3-.5-.6-.8-.8-.7-.5-1.5-1-2.2-1.4-.3-.2-.6-.3-.9-.3-.8,0-1.6,0-2.4,0-.7,0-1.3.4-1.7,1-.3.4-.7.8-1,1.3-.8,1-1.9,1.5-3.2,1.5-1.2,0-2.1.4-3,1-1.3.9-2.8,1.3-4.4,1.1-1.2-.1-2.4,0-3.7-.2-1.3,0-2.5-.7-3.5-1.4-.3-.2-.6-.4-1-.4-1.2-.2-3.1-1.7-3.5-2.9-.3-.9.1-1.5.6-2.2.4-.6,1-1.1,1.4-1.6,2.1-2.6,4.2-5.1,6.2-7.7.6-.8.6-1.7.4-2.6,0-.5-.2-.9-.4-1.4-.7-1.8-.4-3.4.6-5,.2-.3.4-.6.5-.9.3-1.4,1.1-2.4,2.1-3.3,2.8-2.7,6-4.8,9.6-6.2,1.2-.5,2.5-.7,3.8-.5,1.4.2,2.7.1,4.1.2,1,0,1.8.5,2.7,1,1.5.8,3.1,1.4,4.6,2.2.6.3,1.3.6,1.8,1,.8.5,1.2,1.4,1,2.3-.1.8,0,1.3.7,1.8,3.9,3,7.1,6.7,10.3,10.3,1.1,1.3,2.2,2.1,3.9,2.3,2.1.2,3.9,1.4,5.8,2.4,3.6,1.9,7.2,3.9,10.9,5.7,2.8,1.3,5.6,2.4,8.4,3.7,2.8,1.3,5.8,1.5,8.8,2.1,6.8,1.4,13.7,2.7,20.5,4,3.7.7,7.3,1.4,11,2.2,2.1.4,4.6-.6,5.7-2.4,3.6-5.6,4.5-11.7,3.1-18.2-.4-1.8-1.4-3.4-2.3-5-.3-.7-.7-1.3-1-2-.2-.5-.3-1,0-1.5.4-.5.9-.4,1.4-.3,1.2.3,2.1,1.1,2.9,1.9,2.6,2.7,4.8,5.6,5.5,9.4.6,3.1.5,6.2,0,9.3-.5,4-2.1,7.6-4.2,11-.5.8-1,1.7-1.4,2.5-.3.5-.2.8.3,1.1,1.2.7,2.4,1.4,3.6,2,1.5.8,2.8,1.8,3.9,3.1,2.7,3.1,6.1,5.1,10,6.2,2,.6,4,0,6-.4,1.1-.2,2.3-.5,3.4-.6,1.6-.2,3,.4,3.8,1.8,1.8,3.1,4.2,5.7,6.6,8.3.1.2.3.3.4.5.6.8.6,1.1.1,2-.1.2-.2.5-.2.6.3.5,0,.7-.4.9-.4.2-.5.4-.5.8,0,1.2-.5,2.2-1.5,2.9,0,0-.1,0-.1,0,.3.9-.6,1.2-.9,1.8,0,.2-.2.5-.3.6-.4.4-.8.9-.7,1.5,0,.5-.4.5-.7.3-1.3-1-2.7-1.9-3.9-3-.9-.7-.9-1.9-.1-2.8.5-.7.6-1.3.3-2.1-.6-1.2-1-2.5-1.8-3.6-.5-.7-1.2-1.6-2.4-1.4-.2,0-.4,0-.6,0-1.4-.5-2.7,0-3.9.6-1.7.9-3.6,1.2-5.5,1.6-3.1.7-6.2,1.5-9.3,2.2-.1,0-.2,0-.4.2.5,1,1.2,1.7,2.3,1.7,1.3,0,2.6-.1,3.9-.4,1.9-.4,3.8-1.1,5.7-1.5.8-.2,1.6-.2,2.3-.2,1.1,0,2,.7,2.2,1.8.2.9.3,1.9.3,2.8-.1,1.6,0,3.2.4,4.7.3,1.6.2,3.2,0,4.8-.2,2.1-.1,4.2-.2,6.3,0,1.7-.4,3.3-1.5,4.7-.9,1.2-1.7,2.5-2.5,3.7,0,0-.1.2-.1.3-.1,1.6-1,2.6-2.3,3.1Z"/>
  </g>
  <polyline class="cls-6" points="86.3 411.8 75.6 451.9 90.2 413.4"/>
  <path class="cls-3" d="M91.4,414"/>
  <polyline class="cls-6" points="94.5 415.2 94.5 452.7 98.1 416.1 99.4 453.2"/>
  <line class="cls-6" x1="101.5" y1="416.7" x2="103" y2="453.7"/>
  <path class="cls-6" d="M75.6,451.9s-10.6.8-7.7,3.6,6.4,1.6,7.7-3.6Z"/>
  <path class="cls-6" d="M79.2,459.6c2.7-2.9,1.6-6.4-3.6-7.7,0,0,.8,10.6,3.6,7.7"/>
  <circle class="cls-5" cx="30.6" cy="398.2" r="3.4"/>
</svg>