<?xml version="1.0" encoding="UTF-8"?>
<svg id="Capa_1" data-name="Capa 1" xmlns="http://www.w3.org/2000/svg" version="1.1" viewBox="0 0 120.9 389.6">
  <defs>
    <style>
      .cls-1 {
        fill: #000;
      }

      .cls-1, .cls-2, .cls-3, .cls-4, .cls-5 {
        stroke-width: 0px;
      }

      .cls-6 {
        stroke: #8c6239;
        stroke-linecap: round;
        stroke-linejoin: round;
        stroke-width: 2px;
      }

      .cls-6, .cls-2 {
        fill: none;
      }

      .cls-3 {
        fill: #8c6239;
      }

      .cls-4 {
        fill: #fff;
      }

      .cls-5 {
        fill: #ff4574;
      }
    </style>
  </defs>
  <g>
    <line class="cls-2" x1="56.6" y1="349.5" x2="56.6" y2="114.4"/>
    <rect class="cls-3" x="55.5" y="114.4" width="2.2" height="235.1"/>
  </g>
  <g>
    <path class="cls-5" d="M26.2,80.1l28.9,65.8c.6,1.3,2.6,1.4,3.1,0l28.9-65.8c7.4-16.8-.3-36.4-17.1-43.8-27.9-12.2-55.8,16.4-43.8,43.8h0Z"/>
    <polygon class="cls-5" points="60.4 151.3 53 151.3 56.7 143.1 60.4 151.3"/>
  </g>
  <path class="cls-1" d="M50.3,360c2.4-.5,4.8-1,7.2-1.3.5,0,1.3.3,1.8.7,1.5,1.1,3,1.7,4.8,1,.8-.3,1.8-.9,2.2-1.6.2-.4-.7-1.4-1.1-2,4.3-1.9,8.9-3.9,13.5-6,4.5,4.7,10.3,7.2,16.8,8.4,1.7.3,3.8.9,5-.8,1.2-1.7,0-3.4-.9-4.9-1.6-2.9-4-5-7.5-6.2.5-.5,1-.9,1.4-1.3,2.5-2.3,3.9-5.1,4.3-8.4.3-2.5-.9-3.5-3.3-2.7-1.3.4-2.6,1-3.7,1.8-4.2,3-8.3,6-12.4,9-4.7-2.2-9.6-4.4-14.5-6.7,0,0,0-.1,0-.3,1.4-5.1,0-7.1-5.2-7.9-7.9-1.2-15,.3-21.3,5.2-.7.6-1.8.6-2.6,1-3.1,1.5-6.5,2.7-9.2,4.7-4.6,3.5-4.5,8.4-.1,12.2,3.8,3.3,8.4,4.8,13.3,5.6,1.1.2,1.9.6,2.7,1.5.8,1.1,2.1,2.1,3.4,2.5,3.6,1.3,5.5,0,5.7-3.7Z"/>
  <circle class="cls-4" cx="35.8" cy="347.3" r="4.3"/>
  <path class="cls-6" d="M56.6,358.3s-15.3,8.9-7.8,11.5,7.8-11.5,7.8-11.5Z"/>
  <path class="cls-6" d="M56.6,358.3s2.1,17.6,7.5,11.7c5.3-5.9-7.5-11.7-7.5-11.7Z"/>
  <polyline class="cls-6" points="57.1 358.7 56 330.4 65.6 356.5 65.6 339.8"/>
</svg>