<?xml version="1.0" encoding="UTF-8"?>
<svg id="Capa_1" data-name="Capa 1" xmlns="http://www.w3.org/2000/svg" version="1.1" viewBox="0 0 244.6 516.8">
  <defs>
    <style>
      .cls-1 {
        fill: #000;
      }

      .cls-1, .cls-2, .cls-3, .cls-4, .cls-5 {
        stroke-width: 0px;
      }

      .cls-2 {
        fill: #f49700;
      }

      .cls-6 {
        stroke: #8c6239;
        stroke-linecap: round;
        stroke-linejoin: round;
        stroke-width: 2px;
      }

      .cls-6, .cls-3 {
        fill: none;
      }

      .cls-4 {
        fill: #8c6239;
      }

      .cls-5 {
        fill: #fff;
      }
    </style>
  </defs>
  <g>
    <line class="cls-3" x1="121.1" y1="425.2" x2="121.1" y2="121.5"/>
    <rect class="cls-4" x="119.6" y="121.5" width="3.2" height="303.7"/>
  </g>
  <g>
    <path class="cls-2" d="M77.8,72.5l41.4,94c.8,1.8,3.7,1.9,4.4,0l41.4-94c10.6-24-.4-52-24.4-62.6-39.8-17.4-79.8,23.4-62.6,62.6h-.1Z"/>
    <polygon class="cls-2" points="126.7 174.2 116.1 174.2 121.4 162.5 126.7 174.2"/>
  </g>
  <path class="cls-1" d="M140,476c2.5-3.9,4.4-6.8,6.2-9.7l-1.2-.8c-.5.5-.9,1.2-1.5,1.4-1,.2-2.1,0-3.2.1,0-1,0-2.1.4-2.8,1.2-2.1,3.8-4.2,3.5-6-.2-1.8-3.2-3.2-5-4.8-1.8-1.7-4-3.2-5.1-5.2-2.6-4.5-6.3-5.5-11.2-5.6-9.6-.2-17.6-5.2-25.8-9.5-3.6-1.9-7.3-3.6-12-5.8-2,3.8-3.9,7.5-6.1,11.6-1.7.1-2.6-3.7-6-2.9-1.4.3-3.3-3-.9-5.1,3.1-2.7,3.3-5.7,1.1-8.7-3-4-5.9-8.3-9.8-11.2-2.4-1.8-6.5-1.9-9.8-2-5.5-.1-10.5-1.7-14.9-4.8-1.7-1.2-2.9-3.9-3.2-6.1-.1-.9,2.7-2.5,4.4-3.1,4.5-1.6,9.2-2.9,13.8-4.3.4-.1,1-.4,1-.6.3-4.2,4.5-1.7,6.2-3.6.1-.1,2.3,1,2.8,1.9.6.9.3,2.4.4,3.5,11.5,3.4,22.7,7.3,32.9,13.9,4,2.6,9.1,3.3,13.8,4.7,10.7,3.1,21.4,6.1,32.2,8.9,2.4.6,5.2.3,7.7-.2,28.4-5.6,52.4-18.9,71.6-40.8,1.6-1.8,3.7-3.2,5.6-4.8.3.3.6.6.9.9-.2.5-.2,1.1-.5,1.4-9.1,8.7-17.9,17.7-27.3,25.9-8.4,7.4-19.1,11-29.3,15.1-7.5,3-14.9,6.2-22.2,9.5-1.1.5-2.2,2-2.4,3.2-.5,4.7-.6,9.4-.8,14.1,0,.5.3,1.2.7,1.4,4.4,2.3,3,6.4,2.8,9.9-.3,5.4-.7,10.8-1.8,16.1-.5,2.3-2.8,4.4-4.7,6.2-.5.5-2.5-.7-3.4-1Z"/>
  <circle class="cls-5" cx="54" cy="398.6" r="4.3"/>
  <polyline class="cls-6" points="99.5 406.8 87.9 428.3 104.3 408.5 94.4 431.5"/>
  <polyline class="cls-6" points="120.4 413 122.9 442.4 126 414.6 146.7 437.8"/>
  <path class="cls-6" d="M94.3,431.5s-7.2,1.4-3.7,5.4,5.5,3,3.7-5.4Z"/>
  <path class="cls-6" d="M94.4,431.4s-4.4-5.8-6.5-1-.3,6.3,6.5,1Z"/>
</svg>